<svg width="65" height="65" viewBox="0 0 65 65" fill="none" xmlns="http://www.w3.org/2000/svg">
<path d="M0.0490153 34.2686C1.0257 52.1909 16.3463 65.9277 34.2684 64.951C52.1906 63.9748 65.9277 48.6539 64.951 30.7317C63.9742 12.8094 48.6537 -0.927677 30.7315 0.0490162C12.8094 1.0257 -0.927667 16.3463 0.0490153 34.2686Z" fill="#E57E25"/>
<path d="M0.988034 36.4034C4.98549 32.2078 11.8489 30.5755 16.9593 32.6012C12.82 39.1531 9.98913 46.4241 8.61866 54.0233C9.20337 54.6469 9.81675 55.2414 10.4491 55.8164C10.6126 55.6541 10.7217 55.4461 10.7617 55.2206C12.0328 47.5837 14.8348 40.273 19.0042 33.7153C22.1058 35.8317 23.7736 39.4998 23.7089 44.3246L23.7076 44.3868L23.7134 44.4499C24.3909 51.3934 28.8135 57.5429 35.5429 60.898C37.5874 61.9241 39.7802 62.633 42.0441 63C43.9299 62.4403 45.76 61.7126 47.5118 60.8254C43.9758 61.2867 40.1688 60.6282 36.5951 58.8468C30.6023 55.8587 26.6615 50.4207 26.0408 44.2905C26.1157 37.3053 23.1069 33.6563 20.2971 31.7681C21.9047 29.4451 23.679 27.2386 25.6063 25.1652C34.3657 32.3508 42.629 40.1042 50.3412 48.3739L55.6975 54.1269L57.4163 52.5714L52.0598 46.8184C44.313 38.5112 36.015 30.7201 27.2206 23.4967C28.7612 21.9632 30.3863 20.5143 32.0886 19.1567C35.064 22.4749 39.6337 23.9334 45.2073 23.2704C50.4833 23.2233 55.5788 25.7818 59.1959 30.2951C62.0091 33.805 63.578 38.0748 63.6697 42.1314C64.2989 40.2217 64.7446 38.2579 65 36.2658C64.1404 33.5842 62.7944 31.0786 61.0271 28.8706C56.9433 23.7745 51.1431 20.8958 45.1153 20.9729L45.0511 20.9741L44.9884 20.9821C40.2658 21.5509 36.4357 20.3923 33.9511 17.7294C39.8072 13.4166 46.4243 10.2118 53.4667 8.27783C53.6882 8.21106 53.8838 8.07923 54.0274 7.90007C53.3814 7.34332 52.7134 6.81196 52.0248 6.30718C45.0138 8.33214 38.4254 11.5734 32.5695 15.8787C30.0549 11.5146 30.4992 5.16813 33.6746 0.658708L34.1153 0.0329947C33.0211 -0.0155457 31.9252 -0.0105264 30.8315 0.0480409L30.8705 0.752816C27.9187 5.96629 27.8008 12.5554 30.7048 17.3061C28.851 18.7798 27.0845 20.3571 25.4141 22.0303C21.4237 18.8006 17.3356 15.69 13.1553 12.7027L9.12408 9.82905C8.58064 10.3841 8.05757 10.9583 7.55592 11.5503L11.7889 14.5673C15.8859 17.4945 19.8933 20.5415 23.806 23.7042C21.787 25.8838 19.9303 28.2042 18.2505 30.6474C18.1139 30.5879 17.975 30.5263 17.8447 30.4746C12.1802 28.2217 4.97418 29.6802 0.221376 33.9256L0 33.9375C0.059063 35.005 0.173265 36.0557 0.333292 37.0901L0.988034 36.4034Z" fill="#38454F"/>
</svg>
