<svg width="1139" height="263" viewBox="0 0 1139 263" fill="none" xmlns="http://www.w3.org/2000/svg">
<rect y="214.959" width="1138.7" height="47.4458" fill="#C4C4C4"/>
<rect x="0.5" y="215.459" width="46.4458" height="46.4458" fill="#C4C4C4" stroke="#464646"/>
<rect x="285.175" y="215.459" width="46.4458" height="46.4458" fill="#C4C4C4" stroke="#464646"/>
<rect x="47.9459" y="215.459" width="46.4458" height="46.4458" fill="#C4C4C4" stroke="#464646"/>
<rect x="95.3917" y="215.459" width="46.4458" height="46.4458" fill="#C4C4C4" stroke="#464646"/>
<rect x="142.838" y="215.459" width="46.4458" height="46.4458" fill="#C4C4C4" stroke="#464646"/>
<rect x="190.284" y="215.459" width="46.4458" height="46.4458" fill="#C4C4C4" stroke="#464646"/>
<rect x="237.729" y="215.459" width="46.4458" height="46.4458" fill="#C4C4C4" stroke="#464646"/>
<rect x="285.175" y="215.459" width="46.4458" height="46.4458" fill="#C4C4C4" stroke="#464646"/>
<rect x="332.621" y="215.459" width="46.4458" height="46.4458" fill="#C4C4C4" stroke="#464646"/>
<rect x="380.067" y="215.459" width="46.4458" height="46.4458" fill="#C4C4C4" stroke="#464646"/>
<rect x="427.513" y="215.459" width="46.4458" height="46.4458" fill="#C4C4C4" stroke="#464646"/>
<rect x="474.958" y="215.459" width="46.4458" height="46.4458" fill="#C4C4C4" stroke="#464646"/>
<rect x="522.404" y="215.459" width="46.4458" height="46.4458" fill="#C4C4C4" stroke="#464646"/>
<rect x="569.85" y="215.459" width="46.4458" height="46.4458" fill="#C4C4C4" stroke="#464646"/>
<rect x="617.296" y="215.459" width="46.4458" height="46.4458" fill="#C4C4C4" stroke="#464646"/>
<rect x="664.742" y="215.459" width="46.4458" height="46.4458" fill="#C4C4C4" stroke="#464646"/>
<rect x="712.188" y="215.459" width="46.4458" height="46.4458" fill="#C4C4C4" stroke="#464646"/>
<rect x="949.417" y="215.459" width="46.4458" height="46.4458" fill="#C4C4C4" stroke="#464646"/>
<rect x="759.634" y="215.459" width="46.4458" height="46.4458" fill="#C4C4C4" stroke="#464646"/>
<rect x="807.08" y="215.459" width="46.4458" height="46.4458" fill="#C4C4C4" stroke="#464646"/>
<rect x="1044.31" y="215.459" width="46.4458" height="46.4458" fill="#C4C4C4" stroke="#464646"/>
<rect x="854.525" y="215.459" width="46.4458" height="46.4458" fill="#C4C4C4" stroke="#464646"/>
<rect x="901.971" y="215.459" width="46.4458" height="46.4458" fill="#C4C4C4" stroke="#464646"/>
<rect x="949.417" y="215.459" width="46.4458" height="46.4458" fill="#C4C4C4" stroke="#464646"/>
<rect x="996.863" y="215.459" width="46.4458" height="46.4458" fill="#C4C4C4" stroke="#464646"/>
<rect x="1044.31" y="215.459" width="46.4458" height="46.4458" fill="#C4C4C4" stroke="#464646"/>
<rect x="1091.75" y="215.459" width="46.4458" height="46.4458" fill="#C4C4C4" stroke="#464646"/>
<path d="M26.088 230.777V248.231H23.9743V232.993H23.8721L19.6107 235.822V233.675L23.9743 230.777H26.088Z" fill="#464646"/>
<path d="M65.7099 248.231V246.697L71.4713 240.391C72.1474 239.652 72.7042 239.01 73.1417 238.464C73.5792 237.913 73.9031 237.396 74.1133 236.913C74.3292 236.425 74.4372 235.913 74.4372 235.379C74.4372 234.766 74.2895 234.234 73.994 233.785C73.7042 233.337 73.3065 232.99 72.8008 232.746C72.2951 232.501 71.727 232.379 71.0963 232.379C70.4258 232.379 69.8406 232.518 69.3406 232.797C68.8463 233.07 68.4628 233.453 68.19 233.947C67.923 234.442 67.7895 235.021 67.7895 235.686H65.7781C65.7781 234.663 66.0139 233.766 66.4855 232.993C66.9571 232.22 67.5991 231.618 68.4116 231.186C69.2298 230.754 70.1474 230.538 71.1645 230.538C72.1872 230.538 73.0934 230.754 73.8832 231.186C74.673 231.618 75.2923 232.2 75.7412 232.933C76.19 233.666 76.4145 234.481 76.4145 235.379C76.4145 236.021 76.298 236.649 76.065 237.263C75.8378 237.871 75.44 238.55 74.8718 239.3C74.3093 240.044 73.5281 240.953 72.5281 242.027L68.6076 246.22V246.356H76.7213V248.231H65.7099Z" fill="#464646"/>
<path d="M355.847 248.47C354.677 248.47 353.642 248.263 352.745 247.848C351.853 247.427 351.157 246.851 350.657 246.118C350.157 245.379 349.909 244.538 349.915 243.595C349.909 242.856 350.054 242.175 350.35 241.55C350.645 240.919 351.049 240.393 351.56 239.973C352.077 239.547 352.654 239.277 353.29 239.163V239.061C352.455 238.845 351.79 238.376 351.296 237.655C350.802 236.927 350.557 236.101 350.563 235.175C350.557 234.288 350.782 233.496 351.236 232.797C351.691 232.098 352.316 231.547 353.111 231.143C353.912 230.74 354.824 230.538 355.847 230.538C356.858 230.538 357.762 230.74 358.557 231.143C359.353 231.547 359.978 232.098 360.432 232.797C360.892 233.496 361.125 234.288 361.131 235.175C361.125 236.101 360.873 236.927 360.373 237.655C359.878 238.376 359.222 238.845 358.404 239.061V239.163C359.034 239.277 359.603 239.547 360.108 239.973C360.614 240.393 361.017 240.919 361.319 241.55C361.62 242.175 361.773 242.856 361.779 243.595C361.773 244.538 361.517 245.379 361.012 246.118C360.512 246.851 359.816 247.427 358.924 247.848C358.037 248.263 357.012 248.47 355.847 248.47ZM355.847 246.595C356.637 246.595 357.319 246.467 357.892 246.212C358.466 245.956 358.909 245.595 359.222 245.129C359.534 244.663 359.694 244.118 359.699 243.493C359.694 242.834 359.523 242.251 359.188 241.746C358.853 241.24 358.395 240.842 357.816 240.552C357.242 240.263 356.586 240.118 355.847 240.118C355.103 240.118 354.438 240.263 353.853 240.552C353.273 240.842 352.816 241.24 352.48 241.746C352.151 242.251 351.989 242.834 351.995 243.493C351.989 244.118 352.14 244.663 352.446 245.129C352.759 245.595 353.205 245.956 353.784 246.212C354.364 246.467 355.052 246.595 355.847 246.595ZM355.847 238.311C356.472 238.311 357.026 238.186 357.509 237.936C357.998 237.686 358.381 237.337 358.659 236.888C358.938 236.439 359.08 235.913 359.086 235.311C359.08 234.72 358.941 234.206 358.668 233.768C358.395 233.325 358.017 232.984 357.534 232.746C357.052 232.501 356.489 232.379 355.847 232.379C355.194 232.379 354.623 232.501 354.134 232.746C353.645 232.984 353.267 233.325 353 233.768C352.733 234.206 352.603 234.72 352.608 235.311C352.603 235.913 352.736 236.439 353.009 236.888C353.287 237.337 353.671 237.686 354.159 237.936C354.648 238.186 355.211 238.311 355.847 238.311Z" fill="#464646"/>
<path d="M683.029 230.777V248.231H680.915V232.993H680.813L676.552 235.822V233.675L680.915 230.777H683.029ZM693.503 248.47C692.503 248.47 691.603 248.271 690.802 247.873C690.001 247.476 689.359 246.93 688.876 246.237C688.393 245.544 688.128 244.754 688.083 243.868H690.128C690.208 244.658 690.566 245.311 691.202 245.828C691.844 246.339 692.611 246.595 693.503 246.595C694.219 246.595 694.856 246.427 695.413 246.092C695.975 245.757 696.415 245.297 696.734 244.712C697.057 244.121 697.219 243.453 697.219 242.709C697.219 241.947 697.052 241.268 696.717 240.672C696.387 240.07 695.932 239.595 695.353 239.248C694.773 238.902 694.111 238.726 693.367 238.72C692.833 238.714 692.285 238.797 691.722 238.967C691.16 239.132 690.697 239.345 690.333 239.606L688.356 239.368L689.413 230.777H698.481V232.652H691.185L690.572 237.8H690.674C691.032 237.516 691.481 237.28 692.02 237.092C692.56 236.905 693.123 236.811 693.708 236.811C694.776 236.811 695.728 237.067 696.563 237.578C697.404 238.084 698.063 238.777 698.54 239.658C699.023 240.538 699.265 241.544 699.265 242.675C699.265 243.788 699.015 244.783 698.515 245.658C698.02 246.527 697.339 247.214 696.469 247.72C695.6 248.22 694.611 248.47 693.503 248.47Z" fill="#464646"/>
<path d="M912.235 248.231V246.697L917.997 240.391C918.673 239.652 919.23 239.01 919.667 238.464C920.105 237.913 920.428 237.396 920.639 236.913C920.855 236.425 920.963 235.913 920.963 235.379C920.963 234.766 920.815 234.234 920.519 233.785C920.23 233.337 919.832 232.99 919.326 232.746C918.821 232.501 918.252 232.379 917.622 232.379C916.951 232.379 916.366 232.518 915.866 232.797C915.372 233.07 914.988 233.453 914.715 233.947C914.448 234.442 914.315 235.021 914.315 235.686H912.303C912.303 234.663 912.539 233.766 913.011 232.993C913.482 232.22 914.125 231.618 914.937 231.186C915.755 230.754 916.673 230.538 917.69 230.538C918.713 230.538 919.619 230.754 920.409 231.186C921.198 231.618 921.818 232.2 922.267 232.933C922.715 233.666 922.94 234.481 922.94 235.379C922.94 236.021 922.823 236.649 922.59 237.263C922.363 237.871 921.965 238.55 921.397 239.3C920.835 240.044 920.053 240.953 919.053 242.027L915.133 246.22V246.356H923.247V248.231H912.235ZM932.46 248.47C931.176 248.47 930.082 248.121 929.178 247.422C928.275 246.717 927.585 245.697 927.107 244.362C926.63 243.021 926.392 241.402 926.392 239.504C926.392 237.618 926.63 236.007 927.107 234.672C927.59 233.331 928.284 232.308 929.187 231.604C930.096 230.893 931.187 230.538 932.46 230.538C933.732 230.538 934.821 230.893 935.724 231.604C936.633 232.308 937.326 233.331 937.803 234.672C938.286 236.007 938.528 237.618 938.528 239.504C938.528 241.402 938.289 243.021 937.812 244.362C937.335 245.697 936.644 246.717 935.741 247.422C934.838 248.121 933.744 248.47 932.46 248.47ZM932.46 246.595C933.732 246.595 934.721 245.981 935.426 244.754C936.13 243.527 936.482 241.777 936.482 239.504C936.482 237.993 936.321 236.706 935.997 235.643C935.678 234.581 935.218 233.771 934.616 233.214C934.019 232.658 933.301 232.379 932.46 232.379C931.198 232.379 930.213 233.001 929.502 234.246C928.792 235.484 928.437 237.237 928.437 239.504C928.437 241.016 928.596 242.3 928.914 243.356C929.232 244.413 929.69 245.217 930.286 245.768C930.889 246.32 931.613 246.595 932.46 246.595Z" fill="#464646"/>
<path d="M961.603 248.231V246.697L967.364 240.391C968.041 239.652 968.597 239.01 969.035 238.464C969.472 237.913 969.796 237.396 970.007 236.913C970.222 236.425 970.33 235.913 970.33 235.379C970.33 234.766 970.183 234.234 969.887 233.785C969.597 233.337 969.2 232.99 968.694 232.746C968.188 232.501 967.62 232.379 966.989 232.379C966.319 232.379 965.734 232.518 965.234 232.797C964.739 233.07 964.356 233.453 964.083 233.947C963.816 234.442 963.683 235.021 963.683 235.686H961.671C961.671 234.663 961.907 233.766 962.379 232.993C962.85 232.22 963.492 231.618 964.305 231.186C965.123 230.754 966.041 230.538 967.058 230.538C968.08 230.538 968.987 230.754 969.776 231.186C970.566 231.618 971.185 232.2 971.634 232.933C972.083 233.666 972.308 234.481 972.308 235.379C972.308 236.021 972.191 236.649 971.958 237.263C971.731 237.871 971.333 238.55 970.765 239.3C970.203 240.044 969.421 240.953 968.421 242.027L964.501 246.22V246.356H972.614V248.231H961.603ZM982.271 230.777V248.231H980.157V232.993H980.055L975.793 235.822V233.675L980.157 230.777H982.271Z" fill="#464646"/>
<path d="M118.678 248.47C117.553 248.47 116.551 248.277 115.67 247.891C114.795 247.504 114.099 246.967 113.582 246.28C113.07 245.587 112.792 244.783 112.747 243.868H114.894C114.94 244.43 115.133 244.916 115.474 245.325C115.815 245.729 116.261 246.041 116.812 246.263C117.363 246.484 117.974 246.595 118.644 246.595C119.394 246.595 120.059 246.464 120.639 246.203C121.218 245.942 121.673 245.578 122.002 245.112C122.332 244.646 122.497 244.106 122.497 243.493C122.497 242.851 122.338 242.285 122.019 241.797C121.701 241.302 121.235 240.916 120.622 240.638C120.008 240.359 119.258 240.22 118.372 240.22H116.974V238.345H118.372C119.065 238.345 119.673 238.22 120.195 237.97C120.724 237.72 121.136 237.368 121.431 236.913C121.732 236.459 121.883 235.925 121.883 235.311C121.883 234.72 121.752 234.206 121.491 233.768C121.23 233.331 120.86 232.99 120.383 232.746C119.911 232.501 119.355 232.379 118.713 232.379C118.11 232.379 117.542 232.49 117.008 232.712C116.48 232.927 116.048 233.243 115.713 233.658C115.377 234.067 115.195 234.561 115.167 235.141H113.122C113.156 234.226 113.431 233.425 113.948 232.737C114.465 232.044 115.142 231.504 115.977 231.118C116.818 230.731 117.741 230.538 118.747 230.538C119.826 230.538 120.752 230.757 121.525 231.195C122.298 231.626 122.892 232.197 123.306 232.908C123.721 233.618 123.928 234.385 123.928 235.209C123.928 236.192 123.67 237.03 123.153 237.723C122.642 238.416 121.945 238.896 121.065 239.163V239.3C122.167 239.481 123.028 239.95 123.647 240.706C124.267 241.456 124.576 242.385 124.576 243.493C124.576 244.442 124.318 245.294 123.801 246.05C123.289 246.8 122.59 247.391 121.704 247.822C120.818 248.254 119.809 248.47 118.678 248.47Z" fill="#464646"/>
<path d="M403.165 230.538C403.881 230.544 404.597 230.68 405.313 230.947C406.029 231.214 406.682 231.658 407.273 232.277C407.864 232.891 408.339 233.729 408.697 234.791C409.055 235.854 409.233 237.186 409.233 238.788C409.233 240.339 409.086 241.717 408.79 242.922C408.501 244.121 408.08 245.132 407.529 245.956C406.983 246.78 406.319 247.405 405.535 247.831C404.756 248.257 403.876 248.47 402.893 248.47C401.915 248.47 401.043 248.277 400.276 247.891C399.515 247.498 398.89 246.956 398.401 246.263C397.918 245.564 397.608 244.754 397.472 243.834H399.552C399.739 244.635 400.111 245.297 400.668 245.82C401.231 246.337 401.972 246.595 402.893 246.595C404.239 246.595 405.302 246.007 406.08 244.831C406.864 243.655 407.256 241.993 407.256 239.845H407.12C406.802 240.322 406.424 240.734 405.986 241.081C405.549 241.427 405.063 241.695 404.529 241.882C403.995 242.07 403.427 242.163 402.824 242.163C401.824 242.163 400.907 241.916 400.072 241.422C399.242 240.922 398.577 240.237 398.077 239.368C397.583 238.493 397.336 237.493 397.336 236.368C397.336 235.3 397.574 234.322 398.052 233.436C398.535 232.544 399.211 231.834 400.08 231.305C400.955 230.777 401.983 230.521 403.165 230.538ZM403.165 232.413C402.449 232.413 401.804 232.592 401.231 232.95C400.662 233.302 400.211 233.78 399.876 234.382C399.546 234.979 399.381 235.641 399.381 236.368C399.381 237.095 399.54 237.757 399.858 238.354C400.182 238.945 400.623 239.416 401.179 239.768C401.742 240.115 402.381 240.288 403.097 240.288C403.637 240.288 404.14 240.183 404.606 239.973C405.072 239.757 405.478 239.464 405.824 239.095C406.177 238.72 406.452 238.297 406.651 237.825C406.85 237.348 406.949 236.851 406.949 236.334C406.949 235.652 406.785 235.013 406.455 234.416C406.131 233.82 405.682 233.337 405.108 232.967C404.54 232.598 403.893 232.413 403.165 232.413Z" fill="#464646"/>
<path d="M730.287 230.777V248.231H728.174V232.993H728.072L723.81 235.822V233.675L728.174 230.777H730.287ZM741.103 248.47C740.387 248.459 739.671 248.322 738.955 248.061C738.239 247.8 737.586 247.359 736.995 246.74C736.404 246.115 735.929 245.271 735.572 244.209C735.214 243.141 735.035 241.8 735.035 240.186C735.035 238.641 735.179 237.271 735.469 236.078C735.759 234.879 736.179 233.871 736.731 233.052C737.282 232.229 737.947 231.604 738.725 231.177C739.509 230.751 740.393 230.538 741.376 230.538C742.353 230.538 743.222 230.734 743.983 231.126C744.751 231.513 745.376 232.052 745.858 232.746C746.341 233.439 746.654 234.237 746.796 235.141H744.716C744.523 234.356 744.148 233.706 743.591 233.189C743.035 232.672 742.296 232.413 741.376 232.413C740.023 232.413 738.958 233.001 738.179 234.177C737.407 235.354 737.018 237.004 737.012 239.129H737.148C737.466 238.646 737.844 238.234 738.282 237.893C738.725 237.547 739.214 237.28 739.748 237.092C740.282 236.905 740.847 236.811 741.444 236.811C742.444 236.811 743.358 237.061 744.188 237.561C745.018 238.055 745.682 238.74 746.182 239.615C746.682 240.484 746.932 241.481 746.932 242.606C746.932 243.686 746.691 244.675 746.208 245.572C745.725 246.464 745.046 247.175 744.171 247.703C743.302 248.226 742.279 248.481 741.103 248.47ZM741.103 246.595C741.819 246.595 742.461 246.416 743.029 246.058C743.603 245.7 744.054 245.22 744.384 244.618C744.719 244.016 744.887 243.345 744.887 242.606C744.887 241.885 744.725 241.229 744.401 240.638C744.083 240.041 743.643 239.567 743.08 239.214C742.523 238.862 741.887 238.686 741.171 238.686C740.631 238.686 740.128 238.794 739.662 239.01C739.197 239.22 738.787 239.51 738.435 239.879C738.089 240.248 737.816 240.672 737.617 241.149C737.418 241.621 737.319 242.118 737.319 242.641C737.319 243.334 737.481 243.981 737.804 244.584C738.134 245.186 738.583 245.672 739.151 246.041C739.725 246.41 740.376 246.595 741.103 246.595Z" fill="#464646"/>
<path d="M159.759 244.652V242.913L167.429 230.777H168.691V233.47H167.839L162.043 242.641V242.777H172.373V244.652H159.759ZM167.975 248.231V244.123V243.314V230.777H169.986V248.231H167.975Z" fill="#464646"/>
<path d="M445.601 230.777V248.231H443.487V232.993H443.385L439.123 235.822V233.675L443.487 230.777H445.601ZM456.314 248.47C455.03 248.47 453.936 248.121 453.032 247.422C452.129 246.717 451.439 245.697 450.961 244.362C450.484 243.021 450.245 241.402 450.245 239.504C450.245 237.618 450.484 236.007 450.961 234.672C451.444 233.331 452.137 232.308 453.041 231.604C453.95 230.893 455.041 230.538 456.314 230.538C457.586 230.538 458.674 230.893 459.578 231.604C460.487 232.308 461.18 233.331 461.657 234.672C462.14 236.007 462.382 237.618 462.382 239.504C462.382 241.402 462.143 243.021 461.666 244.362C461.189 245.697 460.498 246.717 459.595 247.422C458.691 248.121 457.598 248.47 456.314 248.47ZM456.314 246.595C457.586 246.595 458.575 245.981 459.28 244.754C459.984 243.527 460.336 241.777 460.336 239.504C460.336 237.993 460.174 236.706 459.851 235.643C459.532 234.581 459.072 233.771 458.47 233.214C457.873 232.658 457.155 232.379 456.314 232.379C455.052 232.379 454.066 233.001 453.356 234.246C452.646 235.484 452.291 237.237 452.291 239.504C452.291 241.016 452.45 242.3 452.768 243.356C453.086 244.413 453.544 245.217 454.14 245.768C454.743 246.32 455.467 246.595 456.314 246.595Z" fill="#464646"/>
<path d="M778.366 230.777V248.231H776.252V232.993H776.15L771.889 235.822V233.675L776.252 230.777H778.366ZM783.931 248.231L791.738 232.788V232.652H782.738V230.777H793.92V232.754L786.147 248.231H783.931Z" fill="#464646"/>
<path d="M1007.36 248.231V246.697L1013.12 240.391C1013.8 239.652 1014.36 239.01 1014.79 238.464C1015.23 237.913 1015.55 237.396 1015.76 236.913C1015.98 236.425 1016.09 235.913 1016.09 235.379C1016.09 234.766 1015.94 234.234 1015.65 233.785C1015.36 233.337 1014.96 232.99 1014.45 232.746C1013.95 232.501 1013.38 232.379 1012.75 232.379C1012.08 232.379 1011.49 232.518 1010.99 232.797C1010.5 233.07 1010.11 233.453 1009.84 233.947C1009.57 234.442 1009.44 235.021 1009.44 235.686H1007.43C1007.43 234.663 1007.67 233.766 1008.14 232.993C1008.61 232.22 1009.25 231.618 1010.06 231.186C1010.88 230.754 1011.8 230.538 1012.82 230.538C1013.84 230.538 1014.74 230.754 1015.53 231.186C1016.32 231.618 1016.94 232.2 1017.39 232.933C1017.84 233.666 1018.07 234.481 1018.07 235.379C1018.07 236.021 1017.95 236.649 1017.72 237.263C1017.49 237.871 1017.09 238.55 1016.52 239.3C1015.96 240.044 1015.18 240.953 1014.18 242.027L1010.26 246.22V246.356H1018.37V248.231H1007.36ZM1021.89 248.231V246.697L1027.65 240.391C1028.33 239.652 1028.89 239.01 1029.32 238.464C1029.76 237.913 1030.09 237.396 1030.3 236.913C1030.51 236.425 1030.62 235.913 1030.62 235.379C1030.62 234.766 1030.47 234.234 1030.18 233.785C1029.89 233.337 1029.49 232.99 1028.98 232.746C1028.48 232.501 1027.91 232.379 1027.28 232.379C1026.61 232.379 1026.02 232.518 1025.52 232.797C1025.03 233.07 1024.65 233.453 1024.37 233.947C1024.11 234.442 1023.97 235.021 1023.97 235.686H1021.96C1021.96 234.663 1022.2 233.766 1022.67 232.993C1023.14 232.22 1023.78 231.618 1024.59 231.186C1025.41 230.754 1026.33 230.538 1027.35 230.538C1028.37 230.538 1029.28 230.754 1030.07 231.186C1030.86 231.618 1031.47 232.2 1031.92 232.933C1032.37 233.666 1032.6 234.481 1032.6 235.379C1032.6 236.021 1032.48 236.649 1032.25 237.263C1032.02 237.871 1031.62 238.55 1031.05 239.3C1030.49 240.044 1029.71 240.953 1028.71 242.027L1024.79 246.22V246.356H1032.9V248.231H1021.89Z" fill="#464646"/>
<path d="M1054.43 248.231V246.697L1060.19 240.391C1060.87 239.652 1061.43 239.01 1061.86 238.464C1062.3 237.913 1062.63 237.396 1062.84 236.913C1063.05 236.425 1063.16 235.913 1063.16 235.379C1063.16 234.766 1063.01 234.234 1062.72 233.785C1062.43 233.337 1062.03 232.99 1061.52 232.746C1061.02 232.501 1060.45 232.379 1059.82 232.379C1059.15 232.379 1058.56 232.518 1058.06 232.797C1057.57 233.07 1057.18 233.453 1056.91 233.947C1056.65 234.442 1056.51 235.021 1056.51 235.686H1054.5C1054.5 234.663 1054.74 233.766 1055.21 232.993C1055.68 232.22 1056.32 231.618 1057.13 231.186C1057.95 230.754 1058.87 230.538 1059.89 230.538C1060.91 230.538 1061.82 230.754 1062.61 231.186C1063.4 231.618 1064.01 232.2 1064.46 232.933C1064.91 233.666 1065.14 234.481 1065.14 235.379C1065.14 236.021 1065.02 236.649 1064.79 237.263C1064.56 237.871 1064.16 238.55 1063.59 239.3C1063.03 240.044 1062.25 240.953 1061.25 242.027L1057.33 246.22V246.356H1065.44V248.231H1054.43ZM1074.86 248.47C1073.74 248.47 1072.73 248.277 1071.85 247.891C1070.98 247.504 1070.28 246.967 1069.76 246.28C1069.25 245.587 1068.97 244.783 1068.93 243.868H1071.08C1071.12 244.43 1071.32 244.916 1071.66 245.325C1072 245.729 1072.44 246.041 1072.99 246.263C1073.55 246.484 1074.16 246.595 1074.83 246.595C1075.58 246.595 1076.24 246.464 1076.82 246.203C1077.4 245.942 1077.86 245.578 1078.18 245.112C1078.51 244.646 1078.68 244.106 1078.68 243.493C1078.68 242.851 1078.52 242.285 1078.2 241.797C1077.88 241.302 1077.42 240.916 1076.8 240.638C1076.19 240.359 1075.44 240.22 1074.55 240.22H1073.16V238.345H1074.55C1075.25 238.345 1075.86 238.22 1076.38 237.97C1076.91 237.72 1077.32 237.368 1077.61 236.913C1077.92 236.459 1078.07 235.925 1078.07 235.311C1078.07 234.72 1077.93 234.206 1077.67 233.768C1077.41 233.331 1077.04 232.99 1076.57 232.746C1076.09 232.501 1075.54 232.379 1074.9 232.379C1074.29 232.379 1073.72 232.49 1073.19 232.712C1072.66 232.927 1072.23 233.243 1071.9 233.658C1071.56 234.067 1071.38 234.561 1071.35 235.141H1069.3C1069.34 234.226 1069.61 233.425 1070.13 232.737C1070.65 232.044 1071.32 231.504 1072.16 231.118C1073 230.731 1073.92 230.538 1074.93 230.538C1076.01 230.538 1076.93 230.757 1077.71 231.195C1078.48 231.626 1079.07 232.197 1079.49 232.908C1079.9 233.618 1080.11 234.385 1080.11 235.209C1080.11 236.192 1079.85 237.03 1079.34 237.723C1078.82 238.416 1078.13 238.896 1077.25 239.163V239.3C1078.35 239.481 1079.21 239.95 1079.83 240.706C1080.45 241.456 1080.76 242.385 1080.76 243.493C1080.76 244.442 1080.5 245.294 1079.98 246.05C1079.47 246.8 1078.77 247.391 1077.89 247.822C1077 248.254 1075.99 248.47 1074.86 248.47Z" fill="#464646"/>
<path d="M213.467 248.47C212.467 248.47 211.567 248.271 210.765 247.873C209.964 247.476 209.322 246.93 208.839 246.237C208.356 245.544 208.092 244.754 208.047 243.868H210.092C210.172 244.658 210.53 245.311 211.166 245.828C211.808 246.339 212.575 246.595 213.467 246.595C214.183 246.595 214.819 246.427 215.376 246.092C215.939 245.757 216.379 245.297 216.697 244.712C217.021 244.121 217.183 243.453 217.183 242.709C217.183 241.947 217.015 241.268 216.68 240.672C216.351 240.07 215.896 239.595 215.317 239.248C214.737 238.902 214.075 238.726 213.331 238.72C212.797 238.714 212.248 238.797 211.686 238.967C211.123 239.132 210.66 239.345 210.297 239.606L208.319 239.368L209.376 230.777H218.444V232.652H211.149L210.535 237.8H210.638C210.995 237.516 211.444 237.28 211.984 237.092C212.524 236.905 213.086 236.811 213.672 236.811C214.74 236.811 215.692 237.067 216.527 237.578C217.368 238.084 218.027 238.777 218.504 239.658C218.987 240.538 219.228 241.544 219.228 242.675C219.228 243.788 218.978 244.783 218.478 245.658C217.984 246.527 217.302 247.214 216.433 247.72C215.564 248.22 214.575 248.47 213.467 248.47Z" fill="#464646"/>
<path d="M494.968 230.777V248.231H492.855V232.993H492.752L488.491 235.822V233.675L492.855 230.777H494.968ZM506.125 230.777V248.231H504.011V232.993H503.909L499.647 235.822V233.675L504.011 230.777H506.125Z" fill="#464646"/>
<path d="M825.273 230.777V248.231H823.159V232.993H823.057L818.796 235.822V233.675L823.159 230.777H825.273ZM835.884 248.47C834.713 248.47 833.679 248.263 832.782 247.848C831.89 247.427 831.193 246.851 830.693 246.118C830.193 245.379 829.946 244.538 829.952 243.595C829.946 242.856 830.091 242.175 830.387 241.55C830.682 240.919 831.086 240.393 831.597 239.973C832.114 239.547 832.691 239.277 833.327 239.163V239.061C832.492 238.845 831.827 238.376 831.333 237.655C830.838 236.927 830.594 236.101 830.6 235.175C830.594 234.288 830.818 233.496 831.273 232.797C831.728 232.098 832.353 231.547 833.148 231.143C833.949 230.74 834.861 230.538 835.884 230.538C836.895 230.538 837.799 230.74 838.594 231.143C839.39 231.547 840.015 232.098 840.469 232.797C840.929 233.496 841.162 234.288 841.168 235.175C841.162 236.101 840.909 236.927 840.409 237.655C839.915 238.376 839.259 238.845 838.441 239.061V239.163C839.071 239.277 839.64 239.547 840.145 239.973C840.651 240.393 841.054 240.919 841.355 241.55C841.657 242.175 841.81 242.856 841.816 243.595C841.81 244.538 841.554 245.379 841.049 246.118C840.549 246.851 839.853 247.427 838.961 247.848C838.074 248.263 837.049 248.47 835.884 248.47ZM835.884 246.595C836.674 246.595 837.355 246.467 837.929 246.212C838.503 245.956 838.946 245.595 839.259 245.129C839.571 244.663 839.73 244.118 839.736 243.493C839.73 242.834 839.56 242.251 839.225 241.746C838.89 241.24 838.432 240.842 837.853 240.552C837.279 240.263 836.622 240.118 835.884 240.118C835.14 240.118 834.475 240.263 833.89 240.552C833.31 240.842 832.853 241.24 832.517 241.746C832.188 242.251 832.026 242.834 832.032 243.493C832.026 244.118 832.176 244.663 832.483 245.129C832.796 245.595 833.242 245.956 833.821 246.212C834.401 246.467 835.088 246.595 835.884 246.595ZM835.884 238.311C836.509 238.311 837.063 238.186 837.546 237.936C838.034 237.686 838.418 237.337 838.696 236.888C838.975 236.439 839.117 235.913 839.122 235.311C839.117 234.72 838.978 234.206 838.705 233.768C838.432 233.325 838.054 232.984 837.571 232.746C837.088 232.501 836.526 232.379 835.884 232.379C835.23 232.379 834.659 232.501 834.171 232.746C833.682 232.984 833.304 233.325 833.037 233.768C832.77 234.206 832.64 234.72 832.645 235.311C832.64 235.913 832.773 236.439 833.046 236.888C833.324 237.337 833.708 237.686 834.196 237.936C834.685 238.186 835.247 238.311 835.884 238.311Z" fill="#464646"/>
<path d="M261.066 248.47C260.35 248.459 259.634 248.322 258.918 248.061C258.203 247.8 257.549 247.359 256.958 246.74C256.367 246.115 255.893 245.271 255.535 244.209C255.177 243.141 254.998 241.8 254.998 240.186C254.998 238.641 255.143 237.271 255.433 236.078C255.722 234.879 256.143 233.871 256.694 233.052C257.245 232.229 257.91 231.604 258.688 231.177C259.472 230.751 260.356 230.538 261.339 230.538C262.316 230.538 263.185 230.734 263.947 231.126C264.714 231.513 265.339 232.052 265.822 232.746C266.305 233.439 266.617 234.237 266.759 235.141H264.68C264.487 234.356 264.112 233.706 263.555 233.189C262.998 232.672 262.259 232.413 261.339 232.413C259.987 232.413 258.921 233.001 258.143 234.177C257.37 235.354 256.981 237.004 256.975 239.129H257.112C257.43 238.646 257.808 238.234 258.245 237.893C258.688 237.547 259.177 237.28 259.711 237.092C260.245 236.905 260.81 236.811 261.407 236.811C262.407 236.811 263.322 237.061 264.151 237.561C264.981 238.055 265.646 238.74 266.146 239.615C266.646 240.484 266.896 241.481 266.896 242.606C266.896 243.686 266.654 244.675 266.171 245.572C265.688 246.464 265.009 247.175 264.134 247.703C263.265 248.226 262.242 248.481 261.066 248.47ZM261.066 246.595C261.782 246.595 262.424 246.416 262.992 246.058C263.566 245.7 264.018 245.22 264.347 244.618C264.683 244.016 264.85 243.345 264.85 242.606C264.85 241.885 264.688 241.229 264.364 240.638C264.046 240.041 263.606 239.567 263.043 239.214C262.487 238.862 261.85 238.686 261.134 238.686C260.595 238.686 260.092 238.794 259.626 239.01C259.16 239.22 258.751 239.51 258.399 239.879C258.052 240.248 257.779 240.672 257.58 241.149C257.382 241.621 257.282 242.118 257.282 242.641C257.282 243.334 257.444 243.981 257.768 244.584C258.097 245.186 258.546 245.672 259.114 246.041C259.688 246.41 260.339 246.595 261.066 246.595Z" fill="#464646"/>
<path d="M587.797 230.777V248.231H585.684V232.993H585.582L581.32 235.822V233.675L585.684 230.777H587.797ZM598.715 248.47C597.59 248.47 596.587 248.277 595.707 247.891C594.832 247.504 594.136 246.967 593.618 246.28C593.107 245.587 592.829 244.783 592.783 243.868H594.931C594.976 244.43 595.17 244.916 595.511 245.325C595.851 245.729 596.297 246.041 596.849 246.263C597.4 246.484 598.011 246.595 598.681 246.595C599.431 246.595 600.096 246.464 600.675 246.203C601.255 245.942 601.709 245.578 602.039 245.112C602.368 244.646 602.533 244.106 602.533 243.493C602.533 242.851 602.374 242.285 602.056 241.797C601.738 241.302 601.272 240.916 600.658 240.638C600.045 240.359 599.295 240.22 598.408 240.22H597.011V238.345H598.408C599.101 238.345 599.709 238.22 600.232 237.97C600.761 237.72 601.172 237.368 601.468 236.913C601.769 236.459 601.92 235.925 601.92 235.311C601.92 234.72 601.789 234.206 601.528 233.768C601.266 233.331 600.897 232.99 600.42 232.746C599.948 232.501 599.391 232.379 598.749 232.379C598.147 232.379 597.579 232.49 597.045 232.712C596.516 232.927 596.084 233.243 595.749 233.658C595.414 234.067 595.232 234.561 595.204 235.141H593.158C593.192 234.226 593.468 233.425 593.985 232.737C594.502 232.044 595.178 231.504 596.013 231.118C596.854 230.731 597.778 230.538 598.783 230.538C599.863 230.538 600.789 230.757 601.562 231.195C602.334 231.626 602.928 232.197 603.343 232.908C603.758 233.618 603.965 234.385 603.965 235.209C603.965 236.192 603.707 237.03 603.189 237.723C602.678 238.416 601.982 238.896 601.101 239.163V239.3C602.204 239.481 603.064 239.95 603.684 240.706C604.303 241.456 604.613 242.385 604.613 243.493C604.613 244.442 604.354 245.294 603.837 246.05C603.326 246.8 602.627 247.391 601.741 247.822C600.854 248.254 599.846 248.47 598.715 248.47Z" fill="#464646"/>
<path d="M303.895 248.231L311.702 232.788V232.652H302.702V230.777H313.884V232.754L306.111 248.231H303.895Z" fill="#464646"/>
<path d="M635.185 230.777V248.231H633.071V232.993H632.969L628.707 235.822V233.675L633.071 230.777H635.185ZM639.795 244.652V242.913L647.466 230.777H648.727V233.47H647.875L642.08 242.641V242.777H652.409V244.652H639.795ZM648.011 248.231V244.123V243.314V230.777H650.023V248.231H648.011Z" fill="#464646"/>
<path d="M540.727 230.777V248.231H538.613V232.993H538.511L534.25 235.822V233.675L538.613 230.777H540.727ZM545.747 248.231V246.697L551.508 240.391C552.184 239.652 552.741 239.01 553.179 238.464C553.616 237.913 553.94 237.396 554.15 236.913C554.366 236.425 554.474 235.913 554.474 235.379C554.474 234.766 554.326 234.234 554.031 233.785C553.741 233.337 553.343 232.99 552.838 232.746C552.332 232.501 551.764 232.379 551.133 232.379C550.463 232.379 549.877 232.518 549.377 232.797C548.883 233.07 548.5 233.453 548.227 233.947C547.96 234.442 547.826 235.021 547.826 235.686H545.815C545.815 234.663 546.051 233.766 546.522 232.993C546.994 232.22 547.636 231.618 548.448 231.186C549.267 230.754 550.184 230.538 551.201 230.538C552.224 230.538 553.13 230.754 553.92 231.186C554.71 231.618 555.329 232.2 555.778 232.933C556.227 233.666 556.451 234.481 556.451 235.379C556.451 236.021 556.335 236.649 556.102 237.263C555.875 237.871 555.477 238.55 554.909 239.3C554.346 240.044 553.565 240.953 552.565 242.027L548.645 246.22V246.356H556.758V248.231H545.747Z" fill="#464646"/>
<path d="M872.625 230.777V248.231H870.511V232.993H870.409L866.148 235.822V233.675L870.511 230.777H872.625ZM883.202 230.538C883.918 230.544 884.634 230.68 885.35 230.947C886.065 231.214 886.719 231.658 887.31 232.277C887.901 232.891 888.375 233.729 888.733 234.791C889.091 235.854 889.27 237.186 889.27 238.788C889.27 240.339 889.122 241.717 888.827 242.922C888.537 244.121 888.117 245.132 887.565 245.956C887.02 246.78 886.355 247.405 885.571 247.831C884.793 248.257 883.912 248.47 882.929 248.47C881.952 248.47 881.08 248.277 880.313 247.891C879.551 247.498 878.926 246.956 878.438 246.263C877.955 245.564 877.645 244.754 877.509 243.834H879.588C879.776 244.635 880.148 245.297 880.705 245.82C881.267 246.337 882.009 246.595 882.929 246.595C884.276 246.595 885.338 246.007 886.117 244.831C886.901 243.655 887.293 241.993 887.293 239.845H887.156C886.838 240.322 886.46 240.734 886.023 241.081C885.585 241.427 885.1 241.695 884.565 241.882C884.031 242.07 883.463 242.163 882.861 242.163C881.861 242.163 880.943 241.916 880.108 241.422C879.278 240.922 878.614 240.237 878.114 239.368C877.619 238.493 877.372 237.493 877.372 236.368C877.372 235.3 877.611 234.322 878.088 233.436C878.571 232.544 879.247 231.834 880.117 231.305C880.992 230.777 882.02 230.521 883.202 230.538ZM883.202 232.413C882.486 232.413 881.841 232.592 881.267 232.95C880.699 233.302 880.247 233.78 879.912 234.382C879.582 234.979 879.418 235.641 879.418 236.368C879.418 237.095 879.577 237.757 879.895 238.354C880.219 238.945 880.659 239.416 881.216 239.768C881.778 240.115 882.418 240.288 883.134 240.288C883.673 240.288 884.176 240.183 884.642 239.973C885.108 239.757 885.514 239.464 885.861 239.095C886.213 238.72 886.489 238.297 886.688 237.825C886.886 237.348 886.986 236.851 886.986 236.334C886.986 235.652 886.821 235.013 886.492 234.416C886.168 233.82 885.719 233.337 885.145 232.967C884.577 232.598 883.929 232.413 883.202 232.413Z" fill="#464646"/>
<path d="M1102.01 248.231V246.697L1107.77 240.391C1108.44 239.652 1109 239.01 1109.44 238.464C1109.88 237.913 1110.2 237.396 1110.41 236.913C1110.63 236.425 1110.73 235.913 1110.73 235.379C1110.73 234.766 1110.59 234.234 1110.29 233.785C1110 233.337 1109.6 232.99 1109.1 232.746C1108.59 232.501 1108.02 232.379 1107.39 232.379C1106.72 232.379 1106.14 232.518 1105.64 232.797C1105.14 233.07 1104.76 233.453 1104.49 233.947C1104.22 234.442 1104.09 235.021 1104.09 235.686H1102.08C1102.08 234.663 1102.31 233.766 1102.78 232.993C1103.25 232.22 1103.9 231.618 1104.71 231.186C1105.53 230.754 1106.44 230.538 1107.46 230.538C1108.48 230.538 1109.39 230.754 1110.18 231.186C1110.97 231.618 1111.59 232.2 1112.04 232.933C1112.49 233.666 1112.71 234.481 1112.71 235.379C1112.71 236.021 1112.59 236.649 1112.36 237.263C1112.13 237.871 1111.74 238.55 1111.17 239.3C1110.61 240.044 1109.83 240.953 1108.83 242.027L1104.9 246.22V246.356H1113.02V248.231H1102.01ZM1115.75 244.652V242.913L1123.42 230.777H1124.69V233.47H1123.83L1118.04 242.641V242.777H1128.37V244.652H1115.75ZM1123.97 248.231V244.123V243.314V230.777H1125.98V248.231H1123.97Z" fill="#464646"/>
<rect x="47.2651" y="103.116" width="143" height="111.535" fill="#E6A352"/>
<path d="M59.2618 79H178.748L190.265 103.116H47.2651L59.2618 79Z" fill="#E6A352" fill-opacity="0.7"/>
<path d="M113.487 79H124.523L125.483 103.116H112.527L113.487 79Z" fill="#C4C4C4" fill-opacity="0.7"/>
<rect x="112.527" y="103.116" width="12.9564" height="25.1205" fill="#C4C4C4"/>
<rect x="478.201" y="75.3179" width="186.614" height="139.216" fill="#E6A352"/>
<path d="M493.857 45.2168H649.786L664.815 75.3175H478.201L493.857 45.2168Z" fill="#E6A352" fill-opacity="0.7"/>
<path d="M564.62 45.2168H579.023L580.275 75.3175H563.367L564.62 45.2168Z" fill="#C4C4C4" fill-opacity="0.7"/>
<rect x="563.367" y="75.3179" width="16.908" height="31.3549" fill="#C4C4C4"/>
<rect x="854.265" y="103" width="94.8917" height="111.535" fill="#E6A352"/>
<path d="M861.862 78.8652H941.151L948.793 102.981H853.902L861.862 78.8652Z" fill="#E6A352" fill-opacity="0.7"/>
<path d="M897.845 78.8652H905.169L905.806 102.981H897.208L897.845 78.8652Z" fill="#C4C4C4" fill-opacity="0.7"/>
<rect x="897.208" y="102.981" width="8.59757" height="25.1205" fill="#C4C4C4"/>
<rect x="759.265" y="157.34" width="47.5092" height="57.0705" fill="#E6A352"/>
<path d="M763.251 145H802.948L806.774 157.34H759.265L763.251 145Z" fill="#E6A352" fill-opacity="0.7"/>
<path d="M781.266 145H784.933L785.252 157.34H780.947L781.266 145Z" fill="#C4C4C4" fill-opacity="0.7"/>
<rect x="780.947" y="157.34" width="4.30452" height="12.8537" fill="#C4C4C4"/>
<rect x="1000.11" y="161.948" width="94.8917" height="52.5849" fill="#E6A352"/>
<path d="M1008.07 150.578H1087.35L1095 161.948H1000.11L1008.07 150.578Z" fill="#E6A352" fill-opacity="0.7"/>
<path d="M1044.05 150.578H1051.37L1052.01 161.948H1043.41L1044.05 150.578Z" fill="#C4C4C4" fill-opacity="0.7"/>
<rect x="1043.41" y="161.948" width="8.59757" height="11.8434" fill="#C4C4C4"/>
<g filter="url(#filter0_d_2037_1332)">
<path d="M238.881 159.831L253.672 151L238.881 155.076L222.448 163.681L238.881 159.831Z" fill="#EBC99C"/>
</g>
<g filter="url(#filter1_d_2037_1332)">
<path d="M378.567 159.831L363.777 151L378.567 155.076L395.001 163.681L378.567 159.831Z" fill="#EBC99C"/>
</g>
<rect x="238.881" y="159.152" width="140.508" height="55.7052" fill="#E6A352"/>
<rect x="253.672" y="151" width="110.105" height="8.15198" fill="#BC8239"/>
<path d="M238.881 159.152L253.672 151V159.152H238.881Z" fill="#936122"/>
<path d="M379.327 159.152H238.943L226.556 168.663H391.714L379.327 159.152Z" fill="#ECC290"/>
<path d="M378.567 159.152L363.777 151V159.152H378.567Z" fill="#AE752E"/>
<path d="M174.632 192.677L175.463 171.621H184.498L185.329 192.677H174.632Z" fill="#C4C4C4" stroke="#444B5B" stroke-width="0.75"/>
<circle cx="179.98" cy="200.225" r="14.2805" fill="#303140" stroke="#7BD5E0" stroke-width="3"/>
<path d="M175.389 176.023C177.015 175.449 181.127 174.646 184.571 176.023" stroke="#444B5B" stroke-width="0.5" stroke-linecap="round"/>
<path d="M175.103 179.366C176.729 178.793 180.842 177.989 184.285 179.366" stroke="#444B5B" stroke-width="0.5" stroke-linecap="round"/>
<path d="M175.389 182.809C177.015 182.235 181.127 181.432 184.571 182.809" stroke="#444B5B" stroke-width="0.5" stroke-linecap="round"/>
<path d="M245.963 94.0383C240.151 97.2373 232.121 107.174 228.833 111.743C230.735 113.12 234.315 115.689 233.422 114.954C232.529 114.22 243.997 103.379 249.842 98.0503C249.535 96.9772 247.128 94.9285 245.963 94.0383Z" fill="#C4C4C4" stroke="#444B5B" stroke-width="0.5"/>
<path d="M122.26 149.031C122.125 142.399 126.716 130.476 129.028 125.344C131.171 126.303 135.187 128.119 134.104 127.712C133.021 127.306 129.366 142.658 127.675 150.385C126.592 150.655 123.614 149.595 122.26 149.031Z" fill="#C4C4C4" stroke="#444B5B" stroke-width="0.5"/>
<path d="M225.906 71.7094C225.906 91.8933 236.735 108.256 180.562 108.256C124.389 108.256 134.879 91.8933 134.879 71.7094C134.879 51.5256 157.108 35.1633 180.562 35.1633C204.016 35.1633 225.906 51.5256 225.906 71.7094Z" fill="#7BD5E0"/>
<path d="M226.323 69.4015C226.323 88.4978 237.16 104.533 180.94 104.533C124.72 104.533 135.219 88.4978 135.219 69.4015C135.219 50.3053 157.466 34.8247 180.94 34.8247C204.415 34.8247 226.323 50.3053 226.323 69.4015Z" fill="#9BE3E8"/>
<path d="M139.181 64.9406C139.181 74.285 136.757 94.8881 133.767 94.8881C127.507 94.8881 124.63 86.1287 124.63 76.7843C124.63 67.4399 127.054 59.8648 130.044 59.8648C138.195 59.8648 139.181 55.5963 139.181 64.9406Z" fill="#303140"/>
<path d="M139.181 64.2493C139.181 72.0673 136.757 89.3052 133.767 89.3052C127.507 89.3052 124.63 81.9765 124.63 74.1584C124.63 66.3403 127.054 60.0025 130.044 60.0025C138.195 60.0025 139.181 56.4312 139.181 64.2493Z" fill="#4A4E62"/>
<path d="M221.747 65.2373C221.747 74.5816 224.171 95.1848 227.161 95.1848C233.421 95.1848 236.298 86.4253 236.298 77.0809C236.298 67.7366 233.874 60.1614 230.884 60.1614C222.733 60.1614 221.747 55.8929 221.747 65.2373Z" fill="#353D4D"/>
<path d="M148.57 114.88C149.395 108.948 154.467 104.532 160.456 104.532H199.803C205.715 104.532 210.746 108.838 211.659 114.678L218.645 159.344C219.755 166.446 214.415 172.925 207.231 173.19L178.772 174.241L153.755 173.227C146.672 172.94 141.379 166.607 142.356 159.585L148.57 114.88Z" fill="#7BD5E0"/>
<path d="M148.123 116.544L143.738 151.078C143.436 153.45 144.846 155.713 147.142 156.381C159.344 159.931 181.495 164.122 209.175 157.528C211.494 156.975 213.041 154.794 212.861 152.416C211.449 133.762 209.513 121.953 207.441 115.166C206.713 112.782 204.158 111.67 201.726 112.215C186.586 115.606 166.249 114.071 154.197 112.117C151.291 111.645 148.494 113.623 148.123 116.544Z" fill="#9BE3EC"/>
<path d="M156.068 121.743C156.89 115.809 161.963 111.391 167.954 111.391H192.594C198.508 111.391 203.54 115.699 204.451 121.542L208.837 149.665C209.945 156.765 204.606 163.24 197.425 163.506L179.227 164.18L163.562 163.543C156.481 163.256 151.19 156.926 152.163 149.905L156.068 121.743Z" fill="#444B5B"/>
<circle cx="137.827" cy="115.7" r="13.1972" fill="#353D4D"/>
<path d="M150.686 113.331C150.686 118.47 145.797 122.467 139.35 122.467C132.902 122.467 125.137 118.301 125.137 113.162C125.137 108.022 131.379 102.502 137.827 102.502C144.275 102.502 150.686 108.192 150.686 113.331Z" fill="#444B5B"/>
<circle cx="223.101" cy="115.7" r="13.1972" fill="#353D4D"/>
<ellipse cx="123.449" cy="154.357" rx="9.91681" ry="5.43063" transform="rotate(15.3589 123.449 154.357)" fill="#7BD5E0"/>
<ellipse cx="123.645" cy="153.515" rx="9.02168" ry="4.31986" transform="rotate(15.3589 123.645 153.515)" fill="#90E2EB"/>
<ellipse cx="9.91681" cy="5.43063" rx="9.91681" ry="5.43063" transform="matrix(0.711522 0.702664 0.702664 -0.711522 239.906 89.728)" fill="#7BD5E0"/>
<path d="M228.272 47.3533C184.799 60.2465 146.518 52.2434 132.813 46.6301C130.25 49.6881 131.745 53.6897 132.813 55.3083C170.335 68.1189 212.087 60.646 228.272 55.3083C231.165 51.3411 229.477 48.352 228.272 47.3533Z" fill="#FECA00" stroke="#353D4D" stroke-width="3"/>
<path d="M226.961 47.2147C191.339 60.1906 150.201 52.6213 134.084 47.2147C130.53 30.6022 142.383 20.3882 148.754 17.3577C153.465 10.4979 168.762 6.1657 175.822 4.85709C176.483 1.88172 176.823 1.66116 181.162 2.28095C186.463 1.55781 185.636 3.58292 186.463 4.85709C198.034 6.67536 209.191 14.4306 213.324 18.0809C229.11 26.0979 228.993 40.8438 226.961 47.2147Z" fill="#FEE200" stroke="#353D4D" stroke-width="3"/>
<path d="M226.196 47.3308C191.169 58.0122 150.718 51.7814 134.87 47.3308C131.376 33.6559 143.031 25.248 149.295 22.7534C153.928 17.1065 168.969 13.5404 175.911 12.4632C176.561 10.014 176.896 9.8324 181.162 10.3426C186.374 9.74733 185.562 11.4143 186.374 12.4632C197.752 13.96 208.723 20.3439 212.787 23.3487C228.309 29.948 228.194 42.0865 226.196 47.3308Z" fill="#FEC900"/>
<path d="M175.383 5.91138V53.8281M187.281 6.53534V54.452" stroke="#353D4D" stroke-width="3"/>
<path d="M169.091 8.646C168.591 8.72616 164.9 9.69265 164.201 10.392V42.5577C164.929 43.4261 166.927 44.642 169.091 42.5577V8.646Z" fill="#FFA616"/>
<path d="M193.612 8.84595C194.108 8.92805 197.07 9.69369 198.469 11.0924L198.467 41.8935C197.744 42.7829 195.761 44.0281 193.612 41.8935V8.84595Z" fill="#FFA616"/>
<ellipse cx="153.264" cy="31.6438" rx="6.61192" ry="4.54569" transform="rotate(-35.3944 153.264 31.6438)" fill="#FFE200"/>
<ellipse cx="145.17" cy="38.4717" rx="2.71657" ry="1.86764" transform="rotate(-156.631 145.17 38.4717)" fill="#FEE200"/>
<path d="M227.205 50.9122C183.319 64.7804 147.357 56.3771 134.083 50.5986C133.77 50.9122 134.083 52.4799 134.452 53.4506C134.887 54.596 178.12 68.2065 226.578 53.4205C226.891 52.7934 227.518 51.5393 227.205 50.9122Z" fill="#FFA519"/>
<path d="M221.747 64.2493C221.747 72.0673 224.171 89.3052 227.161 89.3052C233.421 89.3052 236.298 81.9765 236.298 74.1584C236.298 66.3403 233.874 60.0025 230.884 60.0025C222.733 60.0025 221.747 56.4312 221.747 64.2493Z" fill="#4A4E62"/>
<path d="M236.129 113.331C236.129 118.47 231.24 122.467 224.793 122.467C218.345 122.467 210.242 118.47 210.242 113.331C210.242 108.191 216.502 102.333 223.27 102.502C229.717 102.502 236.129 108.191 236.129 113.331Z" fill="#444B5B"/>
<path d="M132.804 63.4242C130.732 64.0442 128.498 65.7437 128.221 69.9772" stroke="#686C81" stroke-width="5" stroke-linecap="round"/>
<path d="M228.177 63.3739C230.25 63.9939 232.483 65.6934 232.76 69.9269" stroke="#686C81" stroke-width="5" stroke-linecap="round"/>
<ellipse cx="135.289" cy="108.593" rx="3.55309" ry="2.70712" fill="#686C81"/>
<ellipse cx="227.11" cy="108.452" rx="3.55309" ry="2.70712" transform="rotate(24.0274 227.11 108.452)" fill="#686C81"/>
<circle cx="166.759" cy="72.2165" r="4.90665" fill="#303140"/>
<circle cx="166.083" cy="72.8934" r="1.86114" fill="white"/>
<circle cx="167.774" cy="70.1858" r="0.845975" fill="white"/>
<circle cx="194.845" cy="72.2165" r="4.90665" fill="#303140"/>
<path d="M172.681 85.2444C175.162 88.7411 181.817 92.689 188.923 85.2444" stroke="#303140" stroke-width="2" stroke-linecap="round"/>
<circle cx="194.845" cy="72.8934" r="1.86114" fill="white"/>
<circle cx="196.537" cy="70.1858" r="0.845975" fill="white"/>
<path d="M256.572 98.5073C258.249 96.8098 256.734 92.5955 253.189 89.0944C249.643 85.5934 245.411 84.1313 243.734 85.8289C242.058 87.5264 243.759 92.1053 247.304 95.6063C250.849 99.1074 254.896 100.205 256.572 98.5073Z" fill="#90E2EB"/>
<path d="M118.986 152.585C119.568 153.332 121.711 154.823 125.62 154.808" stroke="#D7FBFB" stroke-width="2" stroke-linecap="round"/>
<path d="M252.257 94.1313C251.954 93.2333 250.426 91.1175 246.732 89.8386" stroke="#D7FBFB" stroke-width="2" stroke-linecap="round"/>
<circle cx="165.913" cy="116.714" r="1.01517" fill="#9BE3E8"/>
<circle cx="163.882" cy="153.6" r="1.01517" fill="#9BE3E8"/>
<circle cx="195.354" cy="116.714" r="1.01517" fill="#9BE3E8"/>
<circle cx="197.721" cy="153.261" r="1.01517" fill="#9BE3E8"/>
<path d="M236.238 110.799C234.995 110.978 233.372 110.031 232.579 107.259M239.173 107.49C237.814 107.467 235.338 107.281 234.908 104.299M242.457 104.786C241.098 104.763 238.673 104.386 238.448 100.64M245.136 102.432C243.862 102.091 241.328 100.592 241.383 97.3305" stroke="#444B5B" stroke-width="0.5" stroke-linecap="round"/>
<path d="M151.022 129.284C150.09 131.383 148.365 137.257 148.924 143.971" stroke="#D7FBFB" stroke-width="2" stroke-linecap="round"/>
<path d="M127.833 129.284C128.766 129.284 130.351 129.704 132.029 131.383M126.434 132.781C127.6 132.548 130.211 132.641 131.33 134.879M125.036 136.977C126.201 136.744 128.253 136.838 129.931 139.075M123.637 141.873C125.036 141.407 128.113 141.034 129.232 143.272M122.938 146.069C124.336 145.37 127.414 145.09 128.533 146.768" stroke="#444B5B" stroke-width="0.5" stroke-linecap="round"/>
<path d="M180.985 186.632C182.228 186.632 184.093 186.865 186.58 188.031" stroke="#D8FFFD" stroke-width="0.75" stroke-linecap="round"/>
<path d="M175.391 188.031C172.324 188.963 166.363 193.066 167.053 202.018" stroke="#D8FFFD" stroke-width="0.75" stroke-linecap="round"/>
<path d="M177.082 187.178C177.582 187.052 178.694 186.815 179.149 186.876" stroke="#D8FFFD" stroke-width="0.75" stroke-linecap="round"/>
<circle cx="180.286" cy="199.92" r="2.09809" fill="#7BD5E0"/>
<rect x="246.448" y="59" width="118" height="49" rx="5" fill="#E57E25"/>
<path d="M258.251 80.602C258.251 80.3527 258.215 80.162 258.141 80.03C258.083 79.898 257.987 79.7733 257.855 79.656C257.723 79.5387 257.657 79.4213 257.657 79.304C257.657 79.0693 257.76 78.8273 257.965 78.578C258.185 78.3287 258.427 78.204 258.691 78.204C258.926 78.204 259.161 78.336 259.395 78.6H263.795C265.189 78.6 266.274 78.974 267.051 79.722C267.843 80.47 268.239 81.4307 268.239 82.604C268.239 83.5573 268.005 84.298 267.535 84.826C267.066 85.3393 266.435 85.706 265.643 85.926V85.97C266.567 86.2487 267.301 86.696 267.843 87.312C268.401 87.928 268.679 88.6907 268.679 89.6C268.679 90.9787 268.254 92.0567 267.403 92.834C266.553 93.6113 265.372 94 263.861 94H258.251V80.602ZM263.179 85.222C264.147 85.222 264.91 85.0093 265.467 84.584C266.025 84.1587 266.303 83.4987 266.303 82.604C266.303 81.856 266.076 81.2547 265.621 80.8C265.181 80.3453 264.521 80.118 263.641 80.118H260.099V85.222H263.179ZM263.773 92.482C265.753 92.482 266.743 91.5213 266.743 89.6C266.743 88.6907 266.443 87.994 265.841 87.51C265.255 87.0113 264.441 86.762 263.399 86.762H260.099V92.482H263.773ZM274.997 94.22C274.029 94.22 273.193 93.9853 272.489 93.516C271.785 93.032 271.25 92.3793 270.883 91.558C270.516 90.7367 270.333 89.8053 270.333 88.764C270.333 87.6933 270.516 86.7327 270.883 85.882C271.264 85.0167 271.814 84.342 272.533 83.858C273.252 83.3593 274.117 83.11 275.129 83.11C276.581 83.11 277.703 83.6967 278.495 84.87V83.33H280.299V91.25C280.299 92.2767 280.468 93.0613 280.805 93.604L279.287 94.22C278.935 93.7947 278.73 93.1787 278.671 92.372L278.605 92.35C277.71 93.5967 276.508 94.22 274.997 94.22ZM275.239 92.68C276.28 92.68 277.08 92.35 277.637 91.69C278.209 91.0153 278.495 90.1647 278.495 89.138V88.214C278.495 87.6273 278.37 87.0627 278.121 86.52C277.886 85.9773 277.527 85.53 277.043 85.178C276.559 84.826 275.972 84.65 275.283 84.65C274.286 84.65 273.523 85.0313 272.995 85.794C272.467 86.542 272.203 87.532 272.203 88.764C272.203 89.952 272.46 90.9053 272.973 91.624C273.501 92.328 274.256 92.68 275.239 92.68ZM287.502 94.22C286.505 94.22 285.61 94.066 284.818 93.758C284.026 93.45 283.351 93.0173 282.794 92.46L283.916 91.25C284.341 91.7047 284.869 92.064 285.5 92.328C286.145 92.5773 286.813 92.702 287.502 92.702C288.191 92.702 288.719 92.592 289.086 92.372C289.453 92.152 289.636 91.822 289.636 91.382C289.636 91.074 289.57 90.8247 289.438 90.634C289.306 90.4433 289.057 90.2527 288.69 90.062C288.323 89.8713 287.744 89.644 286.952 89.38C285.588 88.9107 284.62 88.434 284.048 87.95C283.476 87.466 283.19 86.806 283.19 85.97C283.19 85.09 283.535 84.3933 284.224 83.88C284.913 83.3667 285.889 83.11 287.15 83.11C287.883 83.11 288.558 83.22 289.174 83.44C289.805 83.6453 290.355 83.9167 290.824 84.254L290.12 85.574C289.621 85.2367 289.137 84.9947 288.668 84.848C288.199 84.7013 287.685 84.628 287.128 84.628C286.439 84.628 285.918 84.7527 285.566 85.002C285.214 85.2367 285.038 85.5593 285.038 85.97C285.038 86.2927 285.133 86.5567 285.324 86.762C285.515 86.9673 285.771 87.1433 286.094 87.29C286.417 87.4367 286.967 87.6493 287.744 87.928C288.712 88.28 289.453 88.6027 289.966 88.896C290.494 89.1893 290.875 89.534 291.11 89.93C291.359 90.3113 291.484 90.8027 291.484 91.404C291.484 92.284 291.132 92.9733 290.428 93.472C289.739 93.9707 288.763 94.22 287.502 94.22ZM293.802 77.852H295.65V87.07L299.654 83.33H302.008L296.728 88.214L302.712 94H300.314L295.65 89.446V94H293.802V77.852ZM307.538 94.22C306.453 94.22 305.514 93.9927 304.722 93.538C303.93 93.0833 303.322 92.4453 302.896 91.624C302.486 90.788 302.28 89.8273 302.28 88.742C302.28 87.1287 302.691 85.7867 303.512 84.716C304.334 83.6453 305.58 83.11 307.252 83.11C308.411 83.11 309.364 83.3813 310.112 83.924C310.86 84.4667 311.403 85.1413 311.74 85.948C312.078 86.74 312.246 87.5467 312.246 88.368C312.246 89.1013 311.828 89.468 310.992 89.468H304.15C304.15 90.436 304.451 91.2133 305.052 91.8C305.654 92.372 306.482 92.658 307.538 92.658C308.785 92.658 309.812 92.2913 310.618 91.558L311.586 92.636C311.117 93.1347 310.53 93.5233 309.826 93.802C309.122 94.0807 308.36 94.22 307.538 94.22ZM310.398 87.95C310.398 87.0113 310.12 86.2267 309.562 85.596C309.02 84.9653 308.25 84.65 307.252 84.65C306.578 84.65 306.006 84.8113 305.536 85.134C305.067 85.4567 304.715 85.8747 304.48 86.388C304.26 86.8867 304.15 87.4073 304.15 87.95H310.398ZM318.045 94.22C317.121 94.22 316.432 93.9707 315.977 93.472C315.537 92.9587 315.317 92.2327 315.317 91.294V84.87H313.447L313.843 83.33H315.339V80.624L317.121 79.81V83.33H319.871L319.497 84.87H317.165V91.316C317.165 91.8293 317.246 92.1887 317.407 92.394C317.583 92.5993 317.891 92.702 318.331 92.702C318.8 92.702 319.211 92.614 319.563 92.438L320.025 93.824C319.805 93.9267 319.504 94.0147 319.123 94.088C318.742 94.176 318.382 94.22 318.045 94.22ZM321.788 93.604C321.964 93.296 322.096 92.9733 322.184 92.636C322.272 92.284 322.316 91.8147 322.316 91.228V77.852H324.164V84.848C324.56 84.3347 325.059 83.9167 325.66 83.594C326.262 83.2713 326.929 83.11 327.662 83.11C329.202 83.11 330.368 83.616 331.16 84.628C331.952 85.6253 332.348 86.9747 332.348 88.676C332.348 89.7173 332.158 90.656 331.776 91.492C331.395 92.328 330.845 92.9953 330.126 93.494C329.408 93.978 328.564 94.22 327.596 94.22C326.819 94.22 326.122 94.0513 325.506 93.714C324.905 93.3767 324.406 92.9147 324.01 92.328C323.996 92.7387 323.922 93.1127 323.79 93.45C323.673 93.7873 323.526 94.044 323.35 94.22L321.788 93.604ZM327.42 92.68C328.432 92.68 329.195 92.2987 329.708 91.536C330.222 90.7587 330.478 89.8053 330.478 88.676C330.478 87.4587 330.229 86.4833 329.73 85.75C329.246 85.0167 328.462 84.65 327.376 84.65C326.716 84.65 326.137 84.8187 325.638 85.156C325.154 85.4933 324.78 85.9407 324.516 86.498C324.267 87.0407 324.142 87.6127 324.142 88.214V89.138C324.142 89.7687 324.274 90.3553 324.538 90.898C324.802 91.4407 325.176 91.8733 325.66 92.196C326.159 92.5187 326.746 92.68 327.42 92.68ZM338.44 94.22C337.472 94.22 336.636 93.9853 335.932 93.516C335.228 93.032 334.693 92.3793 334.326 91.558C333.96 90.7367 333.776 89.8053 333.776 88.764C333.776 87.6933 333.96 86.7327 334.326 85.882C334.708 85.0167 335.258 84.342 335.976 83.858C336.695 83.3593 337.56 83.11 338.572 83.11C340.024 83.11 341.146 83.6967 341.938 84.87V83.33H343.742V91.25C343.742 92.2767 343.911 93.0613 344.248 93.604L342.73 94.22C342.378 93.7947 342.173 93.1787 342.114 92.372L342.048 92.35C341.154 93.5967 339.951 94.22 338.44 94.22ZM338.682 92.68C339.724 92.68 340.523 92.35 341.08 91.69C341.652 91.0153 341.938 90.1647 341.938 89.138V88.214C341.938 87.6273 341.814 87.0627 341.564 86.52C341.33 85.9773 340.97 85.53 340.486 85.178C340.002 84.826 339.416 84.65 338.726 84.65C337.729 84.65 336.966 85.0313 336.438 85.794C335.91 86.542 335.646 87.532 335.646 88.764C335.646 89.952 335.903 90.9053 336.416 91.624C336.944 92.328 337.7 92.68 338.682 92.68ZM346.567 77.852H348.415V94H346.567V77.852ZM351.058 77.852H352.906V94H351.058V77.852Z" fill="black"/>
<defs>
<filter id="filter0_d_2037_1332" x="218.448" y="151" width="39.2239" height="20.6809" filterUnits="userSpaceOnUse" color-interpolation-filters="sRGB">
<feFlood flood-opacity="0" result="BackgroundImageFix"/>
<feColorMatrix in="SourceAlpha" type="matrix" values="0 0 0 0 0 0 0 0 0 0 0 0 0 0 0 0 0 0 127 0" result="hardAlpha"/>
<feOffset dy="4"/>
<feGaussianBlur stdDeviation="2"/>
<feComposite in2="hardAlpha" operator="out"/>
<feColorMatrix type="matrix" values="0 0 0 0 0 0 0 0 0 0 0 0 0 0 0 0 0 0 0.1 0"/>
<feBlend mode="normal" in2="BackgroundImageFix" result="effect1_dropShadow_2037_1332"/>
<feBlend mode="normal" in="SourceGraphic" in2="effect1_dropShadow_2037_1332" result="shape"/>
</filter>
<filter id="filter1_d_2037_1332" x="359.777" y="151" width="39.2239" height="20.6809" filterUnits="userSpaceOnUse" color-interpolation-filters="sRGB">
<feFlood flood-opacity="0" result="BackgroundImageFix"/>
<feColorMatrix in="SourceAlpha" type="matrix" values="0 0 0 0 0 0 0 0 0 0 0 0 0 0 0 0 0 0 127 0" result="hardAlpha"/>
<feOffset dy="4"/>
<feGaussianBlur stdDeviation="2"/>
<feComposite in2="hardAlpha" operator="out"/>
<feColorMatrix type="matrix" values="0 0 0 0 0 0 0 0 0 0 0 0 0 0 0 0 0 0 0.1 0"/>
<feBlend mode="normal" in2="BackgroundImageFix" result="effect1_dropShadow_2037_1332"/>
<feBlend mode="normal" in="SourceGraphic" in2="effect1_dropShadow_2037_1332" result="shape"/>
</filter>
</defs>
</svg>
