<svg width="907" height="173" viewBox="0 0 907 173" fill="none" xmlns="http://www.w3.org/2000/svg">
<rect x="189.104" y="92.9868" width="119.188" height="41.862" fill="#E6A352"/>
<path d="M199.103 83.9355H298.693L308.292 92.9868H189.104L199.103 83.9355Z" fill="#E6A352" fill-opacity="0.7"/>
<path d="M244.298 83.9351H253.497L254.297 92.9863H243.498L244.298 83.9351Z" fill="#C4C4C4" fill-opacity="0.7"/>
<rect x="243.498" y="92.9868" width="10.7989" height="9.42837" fill="#C4C4C4"/>
<rect x="377.958" y="78.4932" width="75.5417" height="56.3548" fill="#E6A352"/>
<path d="M384.296 66.3086H447.416L453.5 78.4934H377.958L384.296 66.3086Z" fill="#E6A352" fill-opacity="0.7"/>
<path d="M412.941 66.3086H418.771L419.278 78.4934H412.434L412.941 66.3086Z" fill="#C4C4C4" fill-opacity="0.7"/>
<rect x="412.434" y="78.4932" width="6.84439" height="12.6925" fill="#C4C4C4"/>
<rect x="529.042" y="23.9731" width="75.5417" height="110.875" fill="#E6A352"/>
<path d="M535.379 0H598.5L604.583 23.9731H529.042L535.379 0Z" fill="#E6A352" fill-opacity="0.7"/>
<path d="M564.024 0.000488281H569.855L570.362 23.9735H563.517L564.024 0.000488281Z" fill="#C4C4C4" fill-opacity="0.7"/>
<rect x="563.517" y="23.9731" width="6.84439" height="24.9719" fill="#C4C4C4"/>
<rect x="642.354" y="46.0576" width="75.5417" height="88.7911" fill="#E6A352"/>
<path d="M648.692 26.8594H711.812L717.896 46.0575H642.354L648.692 26.8594Z" fill="#E6A352" fill-opacity="0.7"/>
<path d="M677.337 26.8594H683.167L683.674 46.0575H676.83L677.337 26.8594Z" fill="#C4C4C4" fill-opacity="0.7"/>
<rect x="676.83" y="46.0576" width="6.84439" height="19.998" fill="#C4C4C4"/>
<rect x="793.438" y="92.9868" width="75.5417" height="41.862" fill="#E6A352"/>
<path d="M799.775 83.9355H862.896L868.98 92.9868H793.438L799.775 83.9355Z" fill="#E6A352" fill-opacity="0.7"/>
<path d="M828.421 83.9351H834.251L834.758 92.9863H827.914L828.421 83.9351Z" fill="#C4C4C4" fill-opacity="0.7"/>
<rect x="827.914" y="92.9868" width="6.84439" height="9.42838" fill="#C4C4C4"/>
<rect x="0.249512" y="135.136" width="835.985" height="34.8327" fill="#C4C4C4"/>
<rect x="0.749512" y="135.636" width="36.7709" height="36.7709" fill="#C4C4C4" stroke="#464646"/>
<rect x="227.375" y="135.636" width="36.7709" height="36.7709" fill="#C4C4C4" stroke="#464646"/>
<rect x="38.5205" y="135.636" width="36.7709" height="36.7709" fill="#C4C4C4" stroke="#464646"/>
<rect x="76.291" y="135.636" width="36.7709" height="36.7709" fill="#C4C4C4" stroke="#464646"/>
<rect x="114.062" y="135.636" width="36.7709" height="36.7709" fill="#C4C4C4" stroke="#464646"/>
<rect x="151.833" y="135.636" width="36.7709" height="36.7709" fill="#C4C4C4" stroke="#464646"/>
<rect x="189.604" y="135.636" width="36.7709" height="36.7709" fill="#C4C4C4" stroke="#464646"/>
<rect x="265.146" y="135.636" width="36.7709" height="36.7709" fill="#C4C4C4" stroke="#464646"/>
<rect x="302.916" y="135.636" width="36.7709" height="36.7709" fill="#C4C4C4" stroke="#464646"/>
<rect x="340.687" y="135.636" width="36.7709" height="36.7709" fill="#C4C4C4" stroke="#464646"/>
<rect x="378.458" y="135.636" width="36.7709" height="36.7709" fill="#C4C4C4" stroke="#464646"/>
<path d="M416.229 135.636H453V172.407H416.229V135.636Z" fill="#C4C4C4" stroke="#464646"/>
<rect x="454" y="135.636" width="36.7709" height="36.7709" fill="#C4C4C4" stroke="#464646"/>
<rect x="491.771" y="135.636" width="36.7709" height="36.7709" fill="#C4C4C4" stroke="#464646"/>
<rect x="529.542" y="135.636" width="36.7709" height="36.7709" fill="#C4C4C4" stroke="#464646"/>
<rect x="567.312" y="135.636" width="36.7709" height="36.7709" fill="#C4C4C4" stroke="#464646"/>
<rect x="756.167" y="135.636" width="36.7709" height="36.7709" fill="#C4C4C4" stroke="#464646"/>
<rect x="605.083" y="135.636" width="36.7709" height="36.7709" fill="#C4C4C4" stroke="#464646"/>
<rect x="642.854" y="135.636" width="36.7709" height="36.7709" fill="#C4C4C4" stroke="#464646"/>
<rect x="831.709" y="135.636" width="36.7709" height="36.7709" fill="#C4C4C4" stroke="#464646"/>
<rect x="680.625" y="135.636" width="36.7709" height="36.7709" fill="#C4C4C4" stroke="#464646"/>
<rect x="718.396" y="135.636" width="36.7709" height="36.7709" fill="#C4C4C4" stroke="#464646"/>
<rect x="793.938" y="135.636" width="36.7709" height="36.7709" fill="#C4C4C4" stroke="#464646"/>
<rect x="869.479" y="135.636" width="36.7709" height="36.7709" fill="#C4C4C4" stroke="#464646"/>
<path d="M21.1058 146.534V161.079H19.3445V148.38H19.2592L15.7081 150.738V148.948L19.3445 146.534H21.1058Z" fill="#464646"/>
<path d="M52.3569 161.079V159.801L57.1581 154.545C57.7215 153.929 58.1855 153.394 58.5501 152.94C58.9147 152.481 59.1846 152.05 59.3598 151.647C59.5397 151.24 59.6297 150.814 59.6297 150.369C59.6297 149.858 59.5066 149.415 59.2603 149.041C59.0189 148.667 58.6874 148.378 58.266 148.174C57.8446 147.971 57.3711 147.869 56.8456 147.869C56.2869 147.869 55.7992 147.985 55.3825 148.217C54.9706 148.444 54.651 148.764 54.4237 149.176C54.2012 149.588 54.0899 150.071 54.0899 150.625H52.4138C52.4138 149.772 52.6103 149.024 53.0032 148.38C53.3962 147.736 53.9313 147.234 54.6084 146.875C55.2902 146.515 56.0549 146.335 56.9024 146.335C57.7547 146.335 58.5099 146.515 59.168 146.875C59.8262 147.234 60.3423 147.72 60.7163 148.331C61.0904 148.941 61.2774 149.621 61.2774 150.369C61.2774 150.904 61.1803 151.427 60.9862 151.938C60.7968 152.445 60.4654 153.011 59.9919 153.636C59.5231 154.256 58.8721 155.014 58.0388 155.909L54.7717 159.403V159.517H61.5331V161.079H52.3569Z" fill="#464646"/>
<path d="M283.534 161.278C282.559 161.278 281.697 161.105 280.949 160.759C280.205 160.409 279.625 159.929 279.209 159.318C278.792 158.702 278.586 158.001 278.591 157.215C278.586 156.6 278.707 156.032 278.953 155.511C279.199 154.985 279.536 154.547 279.962 154.197C280.393 153.842 280.873 153.617 281.403 153.522V153.437C280.707 153.257 280.153 152.867 279.741 152.265C279.33 151.659 279.126 150.97 279.131 150.198C279.126 149.46 279.313 148.799 279.692 148.217C280.071 147.634 280.591 147.175 281.254 146.839C281.922 146.503 282.682 146.335 283.534 146.335C284.377 146.335 285.13 146.503 285.793 146.839C286.455 147.175 286.976 147.634 287.355 148.217C287.739 148.799 287.933 149.46 287.938 150.198C287.933 150.97 287.722 151.659 287.305 152.265C286.893 152.867 286.347 153.257 285.665 153.437V153.522C286.19 153.617 286.664 153.842 287.085 154.197C287.507 154.547 287.843 154.985 288.094 155.511C288.345 156.032 288.473 156.6 288.477 157.215C288.473 158.001 288.259 158.702 287.838 159.318C287.421 159.929 286.841 160.409 286.098 160.759C285.359 161.105 284.505 161.278 283.534 161.278ZM283.534 159.715C284.192 159.715 284.76 159.609 285.239 159.396C285.717 159.183 286.086 158.882 286.347 158.494C286.607 158.106 286.74 157.651 286.744 157.13C286.74 156.581 286.598 156.096 286.318 155.674C286.039 155.253 285.658 154.921 285.175 154.68C284.696 154.438 284.15 154.318 283.534 154.318C282.914 154.318 282.36 154.438 281.872 154.68C281.389 154.921 281.008 155.253 280.729 155.674C280.454 156.096 280.319 156.581 280.324 157.13C280.319 157.651 280.445 158.106 280.7 158.494C280.961 158.882 281.332 159.183 281.815 159.396C282.298 159.609 282.871 159.715 283.534 159.715ZM283.534 152.812C284.055 152.812 284.517 152.708 284.919 152.5C285.326 152.291 285.646 152 285.878 151.626C286.11 151.252 286.228 150.814 286.233 150.312C286.228 149.82 286.112 149.391 285.885 149.027C285.658 148.657 285.343 148.373 284.94 148.174C284.538 147.971 284.069 147.869 283.534 147.869C282.99 147.869 282.514 147.971 282.107 148.174C281.699 148.373 281.384 148.657 281.162 149.027C280.939 149.391 280.83 149.82 280.835 150.312C280.83 150.814 280.942 151.252 281.169 151.626C281.401 152 281.721 152.291 282.128 152.5C282.535 152.708 283.004 152.812 283.534 152.812Z" fill="#464646"/>
<path d="M543.814 146.534V161.079H542.052V148.38H541.967L538.416 150.738V148.948L542.052 146.534H543.814ZM552.543 161.278C551.709 161.278 550.959 161.112 550.291 160.781C549.623 160.449 549.088 159.995 548.686 159.417C548.284 158.84 548.063 158.181 548.025 157.443H549.73C549.796 158.101 550.095 158.645 550.625 159.076C551.16 159.502 551.799 159.715 552.543 159.715C553.139 159.715 553.669 159.576 554.133 159.296C554.602 159.017 554.969 158.634 555.234 158.146C555.504 157.653 555.639 157.097 555.639 156.477C555.639 155.842 555.499 155.277 555.22 154.779C554.945 154.277 554.567 153.882 554.084 153.593C553.601 153.304 553.049 153.158 552.429 153.153C551.984 153.148 551.527 153.217 551.058 153.359C550.589 153.496 550.204 153.674 549.9 153.892L548.253 153.693L549.133 146.534H556.69V148.096H550.611L550.099 152.386H550.185C550.483 152.149 550.857 151.953 551.307 151.796C551.757 151.64 552.225 151.562 552.713 151.562C553.603 151.562 554.396 151.775 555.092 152.201C555.793 152.623 556.342 153.2 556.74 153.934C557.142 154.668 557.344 155.506 557.344 156.448C557.344 157.376 557.135 158.205 556.719 158.934C556.307 159.659 555.739 160.232 555.014 160.653C554.29 161.07 553.466 161.278 552.543 161.278Z" fill="#464646"/>
<path d="M725.982 161.079V159.801L730.783 154.545C731.347 153.929 731.811 153.394 732.175 152.94C732.54 152.481 732.81 152.05 732.985 151.647C733.165 151.24 733.255 150.814 733.255 150.369C733.255 149.858 733.132 149.415 732.886 149.041C732.644 148.667 732.313 148.378 731.891 148.174C731.47 147.971 730.996 147.869 730.471 147.869C729.912 147.869 729.424 147.985 729.008 148.217C728.596 148.444 728.276 148.764 728.049 149.176C727.826 149.588 727.715 150.071 727.715 150.625H726.039C726.039 149.772 726.235 149.024 726.628 148.38C727.021 147.736 727.557 147.234 728.234 146.875C728.915 146.515 729.68 146.335 730.528 146.335C731.38 146.335 732.135 146.515 732.793 146.875C733.451 147.234 733.968 147.72 734.342 148.331C734.716 148.941 734.903 149.621 734.903 150.369C734.903 150.904 734.806 151.427 734.611 151.938C734.422 152.445 734.091 153.011 733.617 153.636C733.148 154.256 732.497 155.014 731.664 155.909L728.397 159.403V159.517H735.158V161.079H725.982ZM742.836 161.278C741.766 161.278 740.854 160.987 740.101 160.404C739.349 159.817 738.773 158.967 738.376 157.855C737.978 156.737 737.779 155.388 737.779 153.806C737.779 152.234 737.978 150.892 738.376 149.779C738.778 148.662 739.356 147.81 740.109 147.223C740.866 146.631 741.775 146.335 742.836 146.335C743.896 146.335 744.803 146.631 745.556 147.223C746.314 147.81 746.891 148.662 747.289 149.779C747.691 150.892 747.893 152.234 747.893 153.806C747.893 155.388 747.694 156.737 747.296 157.855C746.898 158.967 746.323 159.817 745.57 160.404C744.817 160.987 743.906 161.278 742.836 161.278ZM742.836 159.715C743.896 159.715 744.72 159.204 745.307 158.181C745.895 157.159 746.188 155.7 746.188 153.806C746.188 152.547 746.053 151.474 745.783 150.589C745.518 149.704 745.135 149.029 744.633 148.565C744.136 148.101 743.537 147.869 742.836 147.869C741.785 147.869 740.963 148.387 740.371 149.424C739.78 150.456 739.484 151.917 739.484 153.806C739.484 155.066 739.616 156.136 739.881 157.017C740.146 157.897 740.528 158.567 741.025 159.027C741.527 159.486 742.13 159.715 742.836 159.715Z" fill="#464646"/>
<path d="M765.355 161.079V159.801L770.156 154.545C770.719 153.929 771.183 153.394 771.548 152.94C771.913 152.481 772.182 152.05 772.358 151.647C772.538 151.24 772.627 150.814 772.627 150.369C772.627 149.858 772.504 149.415 772.258 149.041C772.017 148.667 771.685 148.378 771.264 148.174C770.842 147.971 770.369 147.869 769.843 147.869C769.285 147.869 768.797 147.985 768.38 148.217C767.968 148.444 767.649 148.764 767.422 149.176C767.199 149.588 767.088 150.071 767.088 150.625H765.412C765.412 149.772 765.608 149.024 766.001 148.38C766.394 147.736 766.929 147.234 767.606 146.875C768.288 146.515 769.053 146.335 769.9 146.335C770.752 146.335 771.508 146.515 772.166 146.875C772.824 147.234 773.34 147.72 773.714 148.331C774.088 148.941 774.275 149.621 774.275 150.369C774.275 150.904 774.178 151.427 773.984 151.938C773.795 152.445 773.463 153.011 772.99 153.636C772.521 154.256 771.87 155.014 771.037 155.909L767.77 159.403V159.517H774.531V161.079H765.355ZM782.578 146.534V161.079H780.816V148.38H780.731L777.18 150.738V148.948L780.816 146.534H782.578Z" fill="#464646"/>
<path d="M94.7297 161.278C93.7922 161.278 92.9565 161.117 92.2226 160.795C91.4934 160.473 90.9134 160.026 90.4826 159.453C90.0564 158.875 89.8244 158.205 89.7865 157.443H91.5763C91.6142 157.911 91.7752 158.316 92.0593 158.657C92.3434 158.993 92.715 159.254 93.1743 159.438C93.6336 159.623 94.1426 159.715 94.7013 159.715C95.3263 159.715 95.8803 159.607 96.3632 159.389C96.8462 159.171 97.225 158.868 97.4996 158.48C97.7742 158.091 97.9115 157.642 97.9115 157.13C97.9115 156.595 97.779 156.124 97.5138 155.717C97.2487 155.305 96.8604 154.983 96.349 154.751C95.8377 154.519 95.2127 154.403 94.474 154.403H93.3093V152.84H94.474C95.0517 152.84 95.5583 152.736 95.9939 152.528C96.4343 152.32 96.7775 152.026 97.0238 151.647C97.2747 151.268 97.4002 150.823 97.4002 150.312C97.4002 149.82 97.2913 149.391 97.0735 149.027C96.8557 148.662 96.5479 148.378 96.1502 148.174C95.7572 147.971 95.2932 147.869 94.7581 147.869C94.2562 147.869 93.7827 147.961 93.3377 148.146C92.8973 148.326 92.5375 148.589 92.2581 148.934C91.9788 149.275 91.8273 149.687 91.8036 150.17H90.099C90.1274 149.408 90.3571 148.74 90.788 148.167C91.2188 147.59 91.7823 147.14 92.4783 146.818C93.1791 146.496 93.9485 146.335 94.7865 146.335C95.6862 146.335 96.4579 146.517 97.1019 146.882C97.7458 147.242 98.2406 147.717 98.5863 148.309C98.9319 148.901 99.1047 149.54 99.1047 150.227C99.1047 151.046 98.8893 151.744 98.4584 152.322C98.0323 152.9 97.4523 153.3 96.7184 153.522V153.636C97.6369 153.787 98.3542 154.178 98.8703 154.808C99.3864 155.433 99.6445 156.207 99.6445 157.13C99.6445 157.921 99.4291 158.631 98.9982 159.261C98.572 159.886 97.9897 160.378 97.251 160.738C96.5124 161.098 95.672 161.278 94.7297 161.278Z" fill="#464646"/>
<path d="M321.198 146.335C321.794 146.34 322.391 146.453 322.988 146.676C323.584 146.898 324.129 147.268 324.621 147.784C325.114 148.295 325.509 148.993 325.807 149.879C326.105 150.764 326.255 151.875 326.255 153.21C326.255 154.502 326.132 155.651 325.885 156.654C325.644 157.653 325.293 158.496 324.834 159.183C324.38 159.869 323.826 160.39 323.172 160.745C322.524 161.1 321.79 161.278 320.971 161.278C320.156 161.278 319.429 161.117 318.79 160.795C318.156 160.468 317.635 160.016 317.228 159.438C316.825 158.856 316.567 158.181 316.454 157.414H318.186C318.343 158.082 318.653 158.634 319.117 159.069C319.586 159.5 320.204 159.715 320.971 159.715C322.093 159.715 322.978 159.225 323.627 158.245C324.28 157.265 324.607 155.88 324.607 154.09H324.493C324.228 154.488 323.913 154.831 323.549 155.12C323.184 155.409 322.779 155.632 322.334 155.788C321.889 155.944 321.416 156.022 320.914 156.022C320.08 156.022 319.316 155.816 318.62 155.404C317.928 154.988 317.374 154.417 316.958 153.693C316.546 152.964 316.34 152.13 316.34 151.193C316.34 150.303 316.539 149.488 316.936 148.75C317.339 148.006 317.902 147.414 318.627 146.974C319.356 146.534 320.213 146.321 321.198 146.335ZM321.198 147.897C320.601 147.897 320.064 148.046 319.586 148.345C319.112 148.638 318.736 149.036 318.456 149.538C318.182 150.035 318.044 150.587 318.044 151.193C318.044 151.799 318.177 152.35 318.442 152.848C318.712 153.34 319.079 153.733 319.543 154.027C320.012 154.315 320.544 154.46 321.141 154.46C321.591 154.46 322.01 154.372 322.398 154.197C322.786 154.017 323.125 153.773 323.414 153.465C323.707 153.153 323.937 152.8 324.103 152.407C324.268 152.009 324.351 151.595 324.351 151.164C324.351 150.596 324.214 150.063 323.939 149.566C323.669 149.069 323.295 148.667 322.817 148.359C322.344 148.051 321.804 147.897 321.198 147.897Z" fill="#464646"/>
<path d="M581.429 146.534V161.079H579.667V148.38H579.582L576.031 150.738V148.948L579.667 146.534H581.429ZM590.441 161.278C589.845 161.268 589.248 161.155 588.652 160.937C588.055 160.719 587.51 160.352 587.018 159.836C586.526 159.315 586.13 158.612 585.832 157.727C585.534 156.837 585.385 155.719 585.385 154.375C585.385 153.087 585.505 151.946 585.747 150.951C585.988 149.952 586.339 149.112 586.798 148.43C587.257 147.743 587.811 147.223 588.46 146.867C589.113 146.512 589.85 146.335 590.669 146.335C591.483 146.335 592.207 146.498 592.842 146.825C593.481 147.147 594.002 147.597 594.404 148.174C594.807 148.752 595.067 149.417 595.186 150.17H593.453C593.292 149.517 592.979 148.974 592.515 148.544C592.051 148.113 591.436 147.897 590.669 147.897C589.542 147.897 588.654 148.387 588.005 149.367C587.361 150.348 587.037 151.723 587.032 153.494H587.146C587.411 153.091 587.726 152.748 588.091 152.464C588.46 152.175 588.867 151.953 589.312 151.796C589.757 151.64 590.228 151.562 590.725 151.562C591.559 151.562 592.321 151.77 593.012 152.187C593.704 152.599 594.258 153.17 594.674 153.899C595.091 154.623 595.299 155.454 595.299 156.392C595.299 157.291 595.098 158.115 594.696 158.863C594.293 159.607 593.727 160.198 592.998 160.639C592.274 161.074 591.421 161.287 590.441 161.278ZM590.441 159.715C591.038 159.715 591.573 159.566 592.046 159.268C592.525 158.97 592.901 158.57 593.176 158.068C593.455 157.566 593.595 157.007 593.595 156.392C593.595 155.79 593.46 155.243 593.19 154.751C592.925 154.254 592.558 153.858 592.089 153.565C591.625 153.271 591.095 153.125 590.498 153.125C590.048 153.125 589.629 153.215 589.241 153.394C588.853 153.57 588.512 153.811 588.218 154.119C587.93 154.427 587.702 154.779 587.537 155.177C587.371 155.57 587.288 155.984 587.288 156.42C587.288 156.998 587.423 157.537 587.693 158.039C587.967 158.541 588.341 158.946 588.815 159.254C589.293 159.562 589.835 159.715 590.441 159.715Z" fill="#464646"/>
<path d="M127.196 158.096V156.647L133.588 146.534H134.64V148.778H133.929L129.1 156.42V156.534H137.708V158.096H127.196ZM134.043 161.079V157.656V156.981V146.534H135.719V161.079H134.043Z" fill="#464646"/>
<path d="M354.794 146.534V161.079H353.032V148.38H352.947L349.396 150.738V148.948L353.032 146.534H354.794ZM363.721 161.278C362.651 161.278 361.74 160.987 360.987 160.404C360.234 159.817 359.659 158.967 359.261 157.855C358.863 156.737 358.664 155.388 358.664 153.806C358.664 152.234 358.863 150.892 359.261 149.779C359.663 148.662 360.241 147.81 360.994 147.223C361.751 146.631 362.661 146.335 363.721 146.335C364.782 146.335 365.688 146.631 366.441 147.223C367.199 147.81 367.777 148.662 368.174 149.779C368.577 150.892 368.778 152.234 368.778 153.806C368.778 155.388 368.579 156.737 368.181 157.855C367.784 158.967 367.208 159.817 366.456 160.404C365.703 160.987 364.791 161.278 363.721 161.278ZM363.721 159.715C364.782 159.715 365.606 159.204 366.193 158.181C366.78 157.159 367.073 155.7 367.073 153.806C367.073 152.547 366.938 151.474 366.669 150.589C366.403 149.704 366.02 149.029 365.518 148.565C365.021 148.101 364.422 147.869 363.721 147.869C362.67 147.869 361.848 148.387 361.257 149.424C360.665 150.456 360.369 151.917 360.369 153.806C360.369 155.066 360.501 156.136 360.767 157.017C361.032 157.897 361.413 158.567 361.91 159.027C362.412 159.486 363.016 159.715 363.721 159.715Z" fill="#464646"/>
<path d="M619.727 146.534V161.079H617.965V148.38H617.88L614.329 150.738V148.948L617.965 146.534H619.727ZM624.364 161.079L630.87 148.21V148.096H623.37V146.534H632.688V148.181L626.211 161.079H624.364Z" fill="#464646"/>
<path d="M801.719 161.079V159.801L806.52 154.545C807.084 153.929 807.548 153.394 807.912 152.94C808.277 152.481 808.547 152.05 808.722 151.647C808.902 151.24 808.992 150.814 808.992 150.369C808.992 149.858 808.869 149.415 808.623 149.041C808.381 148.667 808.05 148.378 807.628 148.174C807.207 147.971 806.733 147.869 806.208 147.869C805.649 147.869 805.161 147.985 804.745 148.217C804.333 148.444 804.013 148.764 803.786 149.176C803.563 149.588 803.452 150.071 803.452 150.625H801.776C801.776 149.772 801.973 149.024 802.366 148.38C802.759 147.736 803.294 147.234 803.971 146.875C804.652 146.515 805.417 146.335 806.265 146.335C807.117 146.335 807.872 146.515 808.53 146.875C809.188 147.234 809.705 147.72 810.079 148.331C810.453 148.941 810.64 149.621 810.64 150.369C810.64 150.904 810.543 151.427 810.349 151.938C810.159 152.445 809.828 153.011 809.354 153.636C808.885 154.256 808.234 155.014 807.401 155.909L804.134 159.403V159.517H810.895V161.079H801.719ZM813.829 161.079V159.801L818.63 154.545C819.193 153.929 819.657 153.394 820.022 152.94C820.386 152.481 820.656 152.05 820.831 151.647C821.011 151.24 821.101 150.814 821.101 150.369C821.101 149.858 820.978 149.415 820.732 149.041C820.491 148.667 820.159 148.378 819.738 148.174C819.316 147.971 818.843 147.869 818.317 147.869C817.759 147.869 817.271 147.985 816.854 148.217C816.442 148.444 816.123 148.764 815.895 149.176C815.673 149.588 815.562 150.071 815.562 150.625H813.885C813.885 149.772 814.082 149.024 814.475 148.38C814.868 147.736 815.403 147.234 816.08 146.875C816.762 146.515 817.527 146.335 818.374 146.335C819.226 146.335 819.982 146.515 820.64 146.875C821.298 147.234 821.814 147.72 822.188 148.331C822.562 148.941 822.749 149.621 822.749 150.369C822.749 150.904 822.652 151.427 822.458 151.938C822.268 152.445 821.937 153.011 821.464 153.636C820.995 154.256 820.344 155.014 819.51 155.909L816.243 159.403V159.517H823.005V161.079H813.829Z" fill="#464646"/>
<path d="M839.178 161.079V159.801L843.979 154.545C844.543 153.929 845.007 153.394 845.371 152.94C845.736 152.481 846.006 152.05 846.181 151.647C846.361 151.24 846.451 150.814 846.451 150.369C846.451 149.858 846.328 149.415 846.081 149.041C845.84 148.667 845.508 148.378 845.087 148.174C844.666 147.971 844.192 147.869 843.667 147.869C843.108 147.869 842.62 147.985 842.204 148.217C841.792 148.444 841.472 148.764 841.245 149.176C841.022 149.588 840.911 150.071 840.911 150.625H839.235C839.235 149.772 839.431 149.024 839.824 148.38C840.217 147.736 840.752 147.234 841.429 146.875C842.111 146.515 842.876 146.335 843.723 146.335C844.576 146.335 845.331 146.515 845.989 146.875C846.647 147.234 847.163 147.72 847.537 148.331C847.911 148.941 848.098 149.621 848.098 150.369C848.098 150.904 848.001 151.427 847.807 151.938C847.618 152.445 847.286 153.011 846.813 153.636C846.344 154.256 845.693 155.014 844.86 155.909L841.593 159.403V159.517H848.354V161.079H839.178ZM856.202 161.278C855.265 161.278 854.429 161.117 853.695 160.795C852.966 160.473 852.386 160.026 851.955 159.453C851.529 158.875 851.297 158.205 851.259 157.443H853.049C853.087 157.911 853.248 158.316 853.532 158.657C853.816 158.993 854.187 159.254 854.647 159.438C855.106 159.623 855.615 159.715 856.174 159.715C856.799 159.715 857.353 159.607 857.836 159.389C858.319 159.171 858.697 158.868 858.972 158.48C859.247 158.091 859.384 157.642 859.384 157.13C859.384 156.595 859.251 156.124 858.986 155.717C858.721 155.305 858.333 154.983 857.821 154.751C857.31 154.519 856.685 154.403 855.946 154.403H854.782V152.84H855.946C856.524 152.84 857.031 152.736 857.466 152.528C857.907 152.32 858.25 152.026 858.496 151.647C858.747 151.268 858.873 150.823 858.873 150.312C858.873 149.82 858.764 149.391 858.546 149.027C858.328 148.662 858.02 148.378 857.623 148.174C857.23 147.971 856.766 147.869 856.231 147.869C855.729 147.869 855.255 147.961 854.81 148.146C854.37 148.326 854.01 148.589 853.731 148.934C853.451 149.275 853.3 149.687 853.276 150.17H851.571C851.6 149.408 851.829 148.74 852.26 148.167C852.691 147.59 853.255 147.14 853.951 146.818C854.651 146.496 855.421 146.335 856.259 146.335C857.159 146.335 857.93 146.517 858.574 146.882C859.218 147.242 859.713 147.717 860.059 148.309C860.404 148.901 860.577 149.54 860.577 150.227C860.577 151.046 860.362 151.744 859.931 152.322C859.505 152.9 858.925 153.3 858.191 153.522V153.636C859.109 153.787 859.827 154.178 860.343 154.808C860.859 155.433 861.117 156.207 861.117 157.13C861.117 157.921 860.901 158.631 860.471 159.261C860.044 159.886 859.462 160.378 858.723 160.738C857.985 161.098 857.144 161.278 856.202 161.278Z" fill="#464646"/>
<path d="M170.186 161.278C169.352 161.278 168.602 161.112 167.934 160.781C167.267 160.449 166.732 159.995 166.329 159.417C165.927 158.84 165.706 158.181 165.669 157.443H167.373C167.439 158.101 167.738 158.645 168.268 159.076C168.803 159.502 169.442 159.715 170.186 159.715C170.782 159.715 171.312 159.576 171.777 159.296C172.245 159.017 172.612 158.634 172.877 158.146C173.147 157.653 173.282 157.097 173.282 156.477C173.282 155.842 173.143 155.277 172.863 154.779C172.589 154.277 172.21 153.882 171.727 153.593C171.244 153.304 170.692 153.158 170.072 153.153C169.627 153.148 169.17 153.217 168.701 153.359C168.232 153.496 167.847 153.674 167.544 153.892L165.896 153.693L166.777 146.534H174.333V148.096H168.254L167.742 152.386H167.828C168.126 152.149 168.5 151.953 168.95 151.796C169.4 151.64 169.868 151.562 170.356 151.562C171.246 151.562 172.039 151.775 172.735 152.201C173.436 152.623 173.985 153.2 174.383 153.934C174.786 154.668 174.987 155.506 174.987 156.448C174.987 157.376 174.778 158.205 174.362 158.934C173.95 159.659 173.382 160.232 172.657 160.653C171.933 161.07 171.109 161.278 170.186 161.278Z" fill="#464646"/>
<path d="M394.166 146.534V161.079H392.405V148.38H392.32L388.769 150.738V148.948L392.405 146.534H394.166ZM403.463 146.534V161.079H401.702V148.38H401.617L398.066 150.738V148.948L401.702 146.534H403.463Z" fill="#464646"/>
<path d="M657.049 146.534V161.079H655.287V148.38H655.202L651.651 150.738V148.948L655.287 146.534H657.049ZM665.891 161.278C664.916 161.278 664.054 161.105 663.306 160.759C662.562 160.409 661.982 159.929 661.566 159.318C661.149 158.702 660.943 158.001 660.948 157.215C660.943 156.6 661.064 156.032 661.31 155.511C661.556 154.985 661.892 154.547 662.319 154.197C662.749 153.842 663.23 153.617 663.76 153.522V153.437C663.064 153.257 662.51 152.867 662.098 152.265C661.686 151.659 661.483 150.97 661.488 150.198C661.483 149.46 661.67 148.799 662.049 148.217C662.427 147.634 662.948 147.175 663.611 146.839C664.279 146.503 665.039 146.335 665.891 146.335C666.734 146.335 667.487 146.503 668.15 146.839C668.812 147.175 669.333 147.634 669.712 148.217C670.096 148.799 670.29 149.46 670.294 150.198C670.29 150.97 670.079 151.659 669.662 152.265C669.25 152.867 668.704 153.257 668.022 153.437V153.522C668.547 153.617 669.021 153.842 669.442 154.197C669.864 154.547 670.2 154.985 670.451 155.511C670.702 156.032 670.829 156.6 670.834 157.215C670.829 158.001 670.616 158.702 670.195 159.318C669.778 159.929 669.198 160.409 668.455 160.759C667.716 161.105 666.862 161.278 665.891 161.278ZM665.891 159.715C666.549 159.715 667.117 159.609 667.596 159.396C668.074 159.183 668.443 158.882 668.704 158.494C668.964 158.106 669.097 157.651 669.101 157.13C669.097 156.581 668.954 156.096 668.675 155.674C668.396 155.253 668.015 154.921 667.532 154.68C667.053 154.438 666.507 154.318 665.891 154.318C665.271 154.318 664.717 154.438 664.229 154.68C663.746 154.921 663.365 155.253 663.086 155.674C662.811 156.096 662.676 156.581 662.681 157.13C662.676 157.651 662.802 158.106 663.057 158.494C663.318 158.882 663.689 159.183 664.172 159.396C664.655 159.609 665.228 159.715 665.891 159.715ZM665.891 152.812C666.412 152.812 666.874 152.708 667.276 152.5C667.683 152.291 668.003 152 668.235 151.626C668.467 151.252 668.585 150.814 668.59 150.312C668.585 149.82 668.469 149.391 668.242 149.027C668.015 148.657 667.7 148.373 667.297 148.174C666.895 147.971 666.426 147.869 665.891 147.869C665.347 147.869 664.871 147.971 664.463 148.174C664.056 148.373 663.741 148.657 663.519 149.027C663.296 149.391 663.187 149.82 663.192 150.312C663.187 150.814 663.299 151.252 663.526 151.626C663.758 152 664.078 152.291 664.485 152.5C664.892 152.708 665.361 152.812 665.891 152.812Z" fill="#464646"/>
<path d="M208.084 161.278C207.488 161.268 206.891 161.155 206.294 160.937C205.698 160.719 205.153 160.352 204.661 159.836C204.168 159.315 203.773 158.612 203.475 157.727C203.177 156.837 203.027 155.719 203.027 154.375C203.027 153.087 203.148 151.946 203.39 150.951C203.631 149.952 203.981 149.112 204.441 148.43C204.9 147.743 205.454 147.223 206.103 146.867C206.756 146.512 207.492 146.335 208.311 146.335C209.126 146.335 209.85 146.498 210.485 146.825C211.124 147.147 211.645 147.597 212.047 148.174C212.45 148.752 212.71 149.417 212.829 150.17H211.096C210.935 149.517 210.622 148.974 210.158 148.544C209.694 148.113 209.079 147.897 208.311 147.897C207.185 147.897 206.297 148.387 205.648 149.367C205.004 150.348 204.68 151.723 204.675 153.494H204.789C205.054 153.091 205.369 152.748 205.733 152.464C206.103 152.175 206.51 151.953 206.955 151.796C207.4 151.64 207.871 151.562 208.368 151.562C209.202 151.562 209.964 151.77 210.655 152.187C211.346 152.599 211.9 153.17 212.317 153.899C212.734 154.623 212.942 155.454 212.942 156.392C212.942 157.291 212.741 158.115 212.338 158.863C211.936 159.607 211.37 160.198 210.641 160.639C209.917 161.074 209.064 161.287 208.084 161.278ZM208.084 159.715C208.681 159.715 209.216 159.566 209.689 159.268C210.168 158.97 210.544 158.57 210.819 158.068C211.098 157.566 211.238 157.007 211.238 156.392C211.238 155.79 211.103 155.243 210.833 154.751C210.568 154.254 210.201 153.858 209.732 153.565C209.268 153.271 208.738 153.125 208.141 153.125C207.691 153.125 207.272 153.215 206.884 153.394C206.496 153.57 206.155 153.811 205.861 154.119C205.572 154.427 205.345 154.779 205.179 155.177C205.014 155.57 204.931 155.984 204.931 156.42C204.931 156.998 205.066 157.537 205.336 158.039C205.61 158.541 205.984 158.946 206.458 159.254C206.936 159.562 207.478 159.715 208.084 159.715Z" fill="#464646"/>
<path d="M467.989 146.534V161.079H466.228V148.38H466.143L462.591 150.738V148.948L466.228 146.534H467.989ZM477.087 161.278C476.15 161.278 475.314 161.117 474.58 160.795C473.851 160.473 473.271 160.026 472.84 159.453C472.414 158.875 472.182 158.205 472.144 157.443H473.934C473.972 157.911 474.133 158.316 474.417 158.657C474.701 158.993 475.072 159.254 475.532 159.438C475.991 159.623 476.5 159.715 477.059 159.715C477.684 159.715 478.238 159.607 478.721 159.389C479.204 159.171 479.582 158.868 479.857 158.48C480.132 158.091 480.269 157.642 480.269 157.13C480.269 156.595 480.136 156.124 479.871 155.717C479.606 155.305 479.218 154.983 478.706 154.751C478.195 154.519 477.57 154.403 476.831 154.403H475.667V152.84H476.831C477.409 152.84 477.916 152.736 478.351 152.528C478.792 152.32 479.135 152.026 479.381 151.647C479.632 151.268 479.758 150.823 479.758 150.312C479.758 149.82 479.649 149.391 479.431 149.027C479.213 148.662 478.905 148.378 478.508 148.174C478.115 147.971 477.651 147.869 477.116 147.869C476.614 147.869 476.14 147.961 475.695 148.146C475.255 148.326 474.895 148.589 474.616 148.934C474.336 149.275 474.185 149.687 474.161 150.17H472.456C472.485 149.408 472.715 148.74 473.145 148.167C473.576 147.59 474.14 147.14 474.836 146.818C475.536 146.496 476.306 146.335 477.144 146.335C478.044 146.335 478.815 146.517 479.459 146.882C480.103 147.242 480.598 147.717 480.944 148.309C481.289 148.901 481.462 149.54 481.462 150.227C481.462 151.046 481.247 151.744 480.816 152.322C480.39 152.9 479.81 153.3 479.076 153.522V153.636C479.994 153.787 480.712 154.178 481.228 154.808C481.744 155.433 482.002 156.207 482.002 157.13C482.002 157.921 481.786 158.631 481.356 159.261C480.929 159.886 480.347 160.378 479.608 160.738C478.87 161.098 478.029 161.278 477.087 161.278Z" fill="#464646"/>
<path d="M242.008 161.079L248.513 148.21V148.096H241.013V146.534H250.331V148.181L243.854 161.079H242.008Z" fill="#464646"/>
<path d="M505.711 146.534V161.079H503.95V148.38H503.865L500.314 150.738V148.948L503.95 146.534H505.711ZM509.554 158.096V156.647L515.946 146.534H516.997V148.778H516.287L511.457 156.42V156.534H520.065V158.096H509.554ZM516.4 161.079V157.656V156.981V146.534H518.076V161.079H516.4Z" fill="#464646"/>
<path d="M430.531 146.534V161.079H428.769V148.38H428.684L425.133 150.738V148.948L428.769 146.534H430.531ZM434.714 161.079V159.801L439.515 154.545C440.078 153.929 440.542 153.394 440.907 152.94C441.272 152.481 441.542 152.05 441.717 151.647C441.897 151.24 441.987 150.814 441.987 150.369C441.987 149.858 441.863 149.415 441.617 149.041C441.376 148.667 441.044 148.378 440.623 148.174C440.202 147.971 439.728 147.869 439.203 147.869C438.644 147.869 438.156 147.985 437.739 148.217C437.328 148.444 437.008 148.764 436.781 149.176C436.558 149.588 436.447 150.071 436.447 150.625H434.771C434.771 149.772 434.967 149.024 435.36 148.38C435.753 147.736 436.288 147.234 436.965 146.875C437.647 146.515 438.412 146.335 439.259 146.335C440.112 146.335 440.867 146.515 441.525 146.875C442.183 147.234 442.699 147.72 443.073 148.331C443.447 148.941 443.634 149.621 443.634 150.369C443.634 150.904 443.537 151.427 443.343 151.938C443.154 152.445 442.822 153.011 442.349 153.636C441.88 154.256 441.229 155.014 440.396 155.909L437.129 159.403V159.517H443.89V161.079H434.714Z" fill="#464646"/>
<path d="M694.741 146.534V161.079H692.98V148.38H692.895L689.344 150.738V148.948L692.98 146.534H694.741ZM703.555 146.335C704.152 146.34 704.748 146.453 705.345 146.676C705.942 146.898 706.486 147.268 706.979 147.784C707.471 148.295 707.866 148.993 708.165 149.879C708.463 150.764 708.612 151.875 708.612 153.21C708.612 154.502 708.489 155.651 708.243 156.654C708.001 157.653 707.651 158.496 707.192 159.183C706.737 159.869 706.183 160.39 705.53 160.745C704.881 161.1 704.147 161.278 703.328 161.278C702.514 161.278 701.787 161.117 701.148 160.795C700.513 160.468 699.992 160.016 699.585 159.438C699.183 158.856 698.925 158.181 698.811 157.414H700.544C700.7 158.082 701.01 158.634 701.474 159.069C701.943 159.5 702.561 159.715 703.328 159.715C704.45 159.715 705.336 159.225 705.984 158.245C706.638 157.265 706.964 155.88 706.964 154.09H706.851C706.586 154.488 706.271 154.831 705.906 155.12C705.542 155.409 705.137 155.632 704.692 155.788C704.247 155.944 703.773 156.022 703.271 156.022C702.438 156.022 701.673 155.816 700.977 155.404C700.286 154.988 699.732 154.417 699.315 153.693C698.903 152.964 698.697 152.13 698.697 151.193C698.697 150.303 698.896 149.488 699.294 148.75C699.696 148.006 700.26 147.414 700.984 146.974C701.713 146.534 702.57 146.321 703.555 146.335ZM703.555 147.897C702.959 147.897 702.421 148.046 701.943 148.345C701.47 148.638 701.093 149.036 700.814 149.538C700.539 150.035 700.402 150.587 700.402 151.193C700.402 151.799 700.534 152.35 700.8 152.848C701.069 153.34 701.436 153.733 701.9 154.027C702.369 154.315 702.902 154.46 703.498 154.46C703.948 154.46 704.367 154.372 704.756 154.197C705.144 154.017 705.482 153.773 705.771 153.465C706.065 153.153 706.294 152.8 706.46 152.407C706.626 152.009 706.709 151.595 706.709 151.164C706.709 150.596 706.571 150.063 706.297 149.566C706.027 149.069 705.653 148.667 705.175 148.359C704.701 148.051 704.161 147.897 703.555 147.897Z" fill="#464646"/>
<path d="M877.056 161.079V159.801L881.857 154.545C882.421 153.929 882.885 153.394 883.249 152.94C883.614 152.481 883.884 152.05 884.059 151.647C884.239 151.24 884.329 150.814 884.329 150.369C884.329 149.858 884.206 149.415 883.96 149.041C883.718 148.667 883.387 148.378 882.965 148.174C882.544 147.971 882.07 147.869 881.545 147.869C880.986 147.869 880.498 147.985 880.082 148.217C879.67 148.444 879.35 148.764 879.123 149.176C878.9 149.588 878.789 150.071 878.789 150.625H877.113C877.113 149.772 877.309 149.024 877.702 148.38C878.095 147.736 878.63 147.234 879.308 146.875C879.989 146.515 880.754 146.335 881.602 146.335C882.454 146.335 883.209 146.515 883.867 146.875C884.525 147.234 885.041 147.72 885.416 148.331C885.79 148.941 885.977 149.621 885.977 150.369C885.977 150.904 885.88 151.427 885.685 151.938C885.496 152.445 885.165 153.011 884.691 153.636C884.222 154.256 883.571 155.014 882.738 155.909L879.471 159.403V159.517H886.232V161.079H877.056ZM888.512 158.096V156.647L894.904 146.534H895.955V148.778H895.245L890.416 156.42V156.534H899.023V158.096H888.512ZM895.359 161.079V157.656V156.981V146.534H897.035V161.079H895.359Z" fill="#464646"/>
</svg>
