<svg width="981" height="357" viewBox="0 0 981 357" fill="none" xmlns="http://www.w3.org/2000/svg">
<rect y="207.067" width="981" height="40.875" fill="#C4C4C4"/>
<rect x="0.5" y="207.567" width="39.875" height="39.875" fill="#C4C4C4" stroke="#464646"/>
<rect x="245.75" y="207.567" width="39.875" height="39.875" fill="#C4C4C4" stroke="#464646"/>
<rect x="41.375" y="207.567" width="39.875" height="39.875" fill="#C4C4C4" stroke="#464646"/>
<rect x="82.25" y="207.567" width="39.875" height="39.875" fill="#C4C4C4" stroke="#464646"/>
<rect x="123.125" y="207.567" width="39.875" height="39.875" fill="#C4C4C4" stroke="#464646"/>
<rect x="164" y="207.567" width="39.875" height="39.875" fill="#C4C4C4" stroke="#464646"/>
<rect x="204.875" y="207.567" width="39.875" height="39.875" fill="#C4C4C4" stroke="#464646"/>
<rect x="245.75" y="207.567" width="39.875" height="39.875" fill="#C4C4C4" stroke="#464646"/>
<rect x="286.625" y="207.567" width="39.875" height="39.875" fill="#C4C4C4" stroke="#464646"/>
<rect x="327.5" y="207.567" width="39.875" height="39.875" fill="#C4C4C4" stroke="#464646"/>
<rect x="368.375" y="207.567" width="39.875" height="39.875" fill="#C4C4C4" stroke="#464646"/>
<rect x="409.25" y="207.567" width="39.875" height="39.875" fill="#C4C4C4" stroke="#464646"/>
<rect x="450.125" y="207.567" width="39.875" height="39.875" fill="#C4C4C4" stroke="#464646"/>
<rect x="491" y="207.567" width="39.875" height="39.875" fill="#C4C4C4" stroke="#464646"/>
<rect x="531.875" y="207.567" width="39.875" height="39.875" fill="#C4C4C4" stroke="#464646"/>
<rect x="572.75" y="207.567" width="39.875" height="39.875" fill="#C4C4C4" stroke="#464646"/>
<rect x="613.625" y="207.567" width="39.875" height="39.875" fill="#C4C4C4" stroke="#464646"/>
<rect x="818" y="207.567" width="39.875" height="39.875" fill="#C4C4C4" stroke="#464646"/>
<rect x="654.5" y="207.567" width="39.875" height="39.875" fill="#C4C4C4" stroke="#464646"/>
<rect x="695.375" y="207.567" width="39.875" height="39.875" fill="#C4C4C4" stroke="#464646"/>
<rect x="899.75" y="207.567" width="39.875" height="39.875" fill="#C4C4C4" stroke="#464646"/>
<rect x="736.25" y="207.567" width="39.875" height="39.875" fill="#C4C4C4" stroke="#464646"/>
<rect x="777.125" y="207.567" width="39.875" height="39.875" fill="#C4C4C4" stroke="#464646"/>
<rect x="818" y="207.567" width="39.875" height="39.875" fill="#C4C4C4" stroke="#464646"/>
<rect x="858.875" y="207.567" width="39.875" height="39.875" fill="#C4C4C4" stroke="#464646"/>
<rect x="899.75" y="207.567" width="39.875" height="39.875" fill="#C4C4C4" stroke="#464646"/>
<rect x="940.625" y="207.567" width="39.875" height="39.875" fill="#C4C4C4" stroke="#464646"/>
<path d="M22.8026 221.877V239.331H20.6889V224.093H20.5866L16.3253 226.922V224.774L20.6889 221.877H22.8026Z" fill="#464646"/>
<path d="M55.8537 239.331V237.797L61.6151 231.49C62.2912 230.752 62.848 230.11 63.2855 229.564C63.723 229.013 64.0469 228.496 64.2571 228.013C64.473 227.524 64.581 227.013 64.581 226.479C64.581 225.865 64.4332 225.334 64.1378 224.885C63.848 224.436 63.4503 224.09 62.9446 223.846C62.4389 223.601 61.8707 223.479 61.2401 223.479C60.5696 223.479 59.9844 223.618 59.4844 223.897C58.9901 224.169 58.6065 224.553 58.3338 225.047C58.0668 225.542 57.9332 226.121 57.9332 226.786H55.9219C55.9219 225.763 56.1577 224.865 56.6293 224.093C57.1009 223.32 57.7429 222.718 58.5554 222.286C59.3736 221.854 60.2912 221.638 61.3082 221.638C62.331 221.638 63.2372 221.854 64.027 222.286C64.8168 222.718 65.4361 223.3 65.8849 224.033C66.3338 224.766 66.5582 225.581 66.5582 226.479C66.5582 227.121 66.4418 227.749 66.2088 228.363C65.9815 228.971 65.5838 229.649 65.0156 230.399C64.4531 231.144 63.6719 232.053 62.6719 233.127L58.7514 237.32V237.456H66.8651V239.331H55.8537Z" fill="#464646"/>
<path d="M306.566 239.57C305.395 239.57 304.361 239.363 303.463 238.948C302.571 238.527 301.875 237.951 301.375 237.218C300.875 236.479 300.628 235.638 300.634 234.695C300.628 233.956 300.773 233.274 301.069 232.649C301.364 232.019 301.767 231.493 302.279 231.073C302.796 230.647 303.373 230.377 304.009 230.263V230.161C303.174 229.945 302.509 229.476 302.015 228.755C301.52 228.027 301.276 227.201 301.282 226.274C301.276 225.388 301.5 224.596 301.955 223.897C302.409 223.198 303.034 222.647 303.83 222.243C304.631 221.84 305.543 221.638 306.566 221.638C307.577 221.638 308.48 221.84 309.276 222.243C310.071 222.647 310.696 223.198 311.151 223.897C311.611 224.596 311.844 225.388 311.85 226.274C311.844 227.201 311.591 228.027 311.091 228.755C310.597 229.476 309.941 229.945 309.123 230.161V230.263C309.753 230.377 310.321 230.647 310.827 231.073C311.333 231.493 311.736 232.019 312.037 232.649C312.338 233.274 312.492 233.956 312.498 234.695C312.492 235.638 312.236 236.479 311.73 237.218C311.23 237.951 310.534 238.527 309.642 238.948C308.756 239.363 307.73 239.57 306.566 239.57ZM306.566 237.695C307.355 237.695 308.037 237.567 308.611 237.311C309.185 237.056 309.628 236.695 309.941 236.229C310.253 235.763 310.412 235.218 310.418 234.593C310.412 233.934 310.242 233.351 309.907 232.846C309.571 232.34 309.114 231.942 308.534 231.652C307.961 231.363 307.304 231.218 306.566 231.218C305.821 231.218 305.157 231.363 304.571 231.652C303.992 231.942 303.534 232.34 303.199 232.846C302.87 233.351 302.708 233.934 302.713 234.593C302.708 235.218 302.858 235.763 303.165 236.229C303.478 236.695 303.924 237.056 304.503 237.311C305.083 237.567 305.77 237.695 306.566 237.695ZM306.566 229.411C307.191 229.411 307.745 229.286 308.228 229.036C308.716 228.786 309.1 228.436 309.378 227.988C309.657 227.539 309.799 227.013 309.804 226.411C309.799 225.82 309.659 225.306 309.387 224.868C309.114 224.425 308.736 224.084 308.253 223.846C307.77 223.601 307.208 223.479 306.566 223.479C305.912 223.479 305.341 223.601 304.853 223.846C304.364 224.084 303.986 224.425 303.719 224.868C303.452 225.306 303.321 225.82 303.327 226.411C303.321 227.013 303.455 227.539 303.728 227.988C304.006 228.436 304.39 228.786 304.878 229.036C305.367 229.286 305.929 229.411 306.566 229.411Z" fill="#464646"/>
<path d="M587.752 221.877V239.331H585.638V224.093H585.536L581.275 226.922V224.774L585.638 221.877H587.752ZM598.226 239.57C597.226 239.57 596.326 239.371 595.525 238.973C594.723 238.576 594.081 238.03 593.598 237.337C593.115 236.644 592.851 235.854 592.806 234.968H594.851C594.931 235.757 595.289 236.411 595.925 236.928C596.567 237.439 597.334 237.695 598.226 237.695C598.942 237.695 599.578 237.527 600.135 237.192C600.698 236.857 601.138 236.397 601.456 235.811C601.78 235.221 601.942 234.553 601.942 233.809C601.942 233.047 601.775 232.368 601.439 231.772C601.11 231.169 600.655 230.695 600.076 230.348C599.496 230.002 598.834 229.826 598.09 229.82C597.556 229.814 597.007 229.897 596.445 230.067C595.882 230.232 595.419 230.445 595.056 230.706L593.078 230.468L594.135 221.877H603.203V223.752H595.908L595.294 228.899H595.397C595.755 228.615 596.203 228.38 596.743 228.192C597.283 228.005 597.846 227.911 598.431 227.911C599.499 227.911 600.451 228.167 601.286 228.678C602.127 229.184 602.786 229.877 603.263 230.757C603.746 231.638 603.988 232.644 603.988 233.774C603.988 234.888 603.738 235.882 603.238 236.757C602.743 237.627 602.061 238.314 601.192 238.82C600.323 239.32 599.334 239.57 598.226 239.57Z" fill="#464646"/>
<path d="M784.104 239.331V237.797L789.865 231.49C790.541 230.752 791.098 230.11 791.536 229.564C791.973 229.013 792.297 228.496 792.507 228.013C792.723 227.524 792.831 227.013 792.831 226.479C792.831 225.865 792.683 225.334 792.388 224.885C792.098 224.436 791.7 224.09 791.195 223.846C790.689 223.601 790.121 223.479 789.49 223.479C788.82 223.479 788.234 223.618 787.734 223.897C787.24 224.169 786.857 224.553 786.584 225.047C786.317 225.542 786.183 226.121 786.183 226.786H784.172C784.172 225.763 784.408 224.865 784.879 224.093C785.351 223.32 785.993 222.718 786.805 222.286C787.624 221.854 788.541 221.638 789.558 221.638C790.581 221.638 791.487 221.854 792.277 222.286C793.067 222.718 793.686 223.3 794.135 224.033C794.584 224.766 794.808 225.581 794.808 226.479C794.808 227.121 794.692 227.749 794.459 228.363C794.232 228.971 793.834 229.649 793.266 230.399C792.703 231.144 791.922 232.053 790.922 233.127L787.001 237.32V237.456H795.115V239.331H784.104ZM804.328 239.57C803.044 239.57 801.95 239.221 801.047 238.522C800.143 237.817 799.453 236.797 798.976 235.462C798.499 234.121 798.26 232.502 798.26 230.604C798.26 228.718 798.499 227.107 798.976 225.772C799.459 224.431 800.152 223.408 801.055 222.703C801.964 221.993 803.055 221.638 804.328 221.638C805.601 221.638 806.689 221.993 807.592 222.703C808.501 223.408 809.195 224.431 809.672 225.772C810.155 227.107 810.396 228.718 810.396 230.604C810.396 232.502 810.158 234.121 809.68 235.462C809.203 236.797 808.513 237.817 807.609 238.522C806.706 239.221 805.612 239.57 804.328 239.57ZM804.328 237.695C805.601 237.695 806.589 237.081 807.294 235.854C807.999 234.627 808.351 232.877 808.351 230.604C808.351 229.093 808.189 227.806 807.865 226.743C807.547 225.681 807.087 224.871 806.484 224.314C805.888 223.757 805.169 223.479 804.328 223.479C803.067 223.479 802.081 224.101 801.371 225.346C800.661 226.584 800.305 228.337 800.305 230.604C800.305 232.115 800.464 233.399 800.783 234.456C801.101 235.513 801.558 236.317 802.155 236.868C802.757 237.419 803.482 237.695 804.328 237.695Z" fill="#464646"/>
<path d="M826.901 239.331V237.797L832.662 231.49C833.338 230.752 833.895 230.11 834.332 229.564C834.77 229.013 835.094 228.496 835.304 228.013C835.52 227.524 835.628 227.013 835.628 226.479C835.628 225.865 835.48 225.334 835.185 224.885C834.895 224.436 834.497 224.09 833.991 223.846C833.486 223.601 832.918 223.479 832.287 223.479C831.616 223.479 831.031 223.618 830.531 223.897C830.037 224.169 829.653 224.553 829.381 225.047C829.114 225.542 828.98 226.121 828.98 226.786H826.969C826.969 225.763 827.205 224.865 827.676 224.093C828.148 223.32 828.79 222.718 829.602 222.286C830.42 221.854 831.338 221.638 832.355 221.638C833.378 221.638 834.284 221.854 835.074 222.286C835.864 222.718 836.483 223.3 836.932 224.033C837.381 224.766 837.605 225.581 837.605 226.479C837.605 227.121 837.489 227.749 837.256 228.363C837.028 228.971 836.631 229.649 836.062 230.399C835.5 231.144 834.719 232.053 833.719 233.127L829.798 237.32V237.456H837.912V239.331H826.901ZM847.568 221.877V239.331H845.455V224.093H845.352L841.091 226.922V224.774L845.455 221.877H847.568Z" fill="#464646"/>
<path d="M102.251 239.57C101.126 239.57 100.124 239.377 99.2429 238.99C98.3679 238.604 97.6719 238.067 97.1548 237.38C96.6435 236.686 96.3651 235.882 96.3196 234.968H98.4673C98.5128 235.53 98.706 236.016 99.0469 236.425C99.3878 236.828 99.8338 237.141 100.385 237.363C100.936 237.584 101.547 237.695 102.217 237.695C102.967 237.695 103.632 237.564 104.212 237.303C104.791 237.042 105.246 236.678 105.575 236.212C105.905 235.746 106.07 235.206 106.07 234.593C106.07 233.951 105.911 233.385 105.592 232.897C105.274 232.402 104.808 232.016 104.195 231.738C103.581 231.459 102.831 231.32 101.945 231.32H100.547V229.445H101.945C102.638 229.445 103.246 229.32 103.768 229.07C104.297 228.82 104.709 228.468 105.004 228.013C105.305 227.559 105.456 227.024 105.456 226.411C105.456 225.82 105.325 225.306 105.064 224.868C104.803 224.431 104.433 224.09 103.956 223.846C103.484 223.601 102.928 223.479 102.286 223.479C101.683 223.479 101.115 223.59 100.581 223.811C100.053 224.027 99.6207 224.343 99.2855 224.757C98.9503 225.167 98.7685 225.661 98.7401 226.24H96.6946C96.7287 225.326 97.0043 224.524 97.5213 223.837C98.0384 223.144 98.7145 222.604 99.5497 222.218C100.391 221.831 101.314 221.638 102.32 221.638C103.399 221.638 104.325 221.857 105.098 222.294C105.871 222.726 106.464 223.297 106.879 224.007C107.294 224.718 107.501 225.485 107.501 226.309C107.501 227.292 107.243 228.13 106.726 228.823C106.214 229.516 105.518 229.996 104.638 230.263V230.399C105.74 230.581 106.601 231.05 107.22 231.806C107.839 232.556 108.149 233.485 108.149 234.593C108.149 235.542 107.891 236.394 107.374 237.149C106.862 237.899 106.163 238.49 105.277 238.922C104.391 239.354 103.382 239.57 102.251 239.57Z" fill="#464646"/>
<path d="M347.313 221.638C348.029 221.644 348.745 221.78 349.461 222.047C350.176 222.314 350.83 222.757 351.421 223.377C352.012 223.99 352.486 224.828 352.844 225.891C353.202 226.953 353.381 228.286 353.381 229.888C353.381 231.439 353.233 232.817 352.938 234.022C352.648 235.221 352.228 236.232 351.676 237.056C351.131 237.88 350.466 238.505 349.682 238.931C348.904 239.357 348.023 239.57 347.04 239.57C346.063 239.57 345.191 239.377 344.424 238.99C343.662 238.598 343.037 238.056 342.549 237.363C342.066 236.664 341.756 235.854 341.62 234.934H343.699C343.887 235.735 344.259 236.397 344.816 236.919C345.378 237.436 346.12 237.695 347.04 237.695C348.387 237.695 349.449 237.107 350.228 235.931C351.012 234.755 351.404 233.093 351.404 230.945H351.267C350.949 231.422 350.571 231.834 350.134 232.181C349.696 232.527 349.211 232.794 348.676 232.982C348.142 233.169 347.574 233.263 346.972 233.263C345.972 233.263 345.054 233.016 344.219 232.522C343.39 232.022 342.725 231.337 342.225 230.468C341.73 229.593 341.483 228.593 341.483 227.468C341.483 226.399 341.722 225.422 342.199 224.536C342.682 223.644 343.358 222.934 344.228 222.405C345.103 221.877 346.131 221.621 347.313 221.638ZM347.313 223.513C346.597 223.513 345.952 223.692 345.378 224.05C344.81 224.402 344.358 224.88 344.023 225.482C343.694 226.078 343.529 226.74 343.529 227.468C343.529 228.195 343.688 228.857 344.006 229.453C344.33 230.044 344.77 230.516 345.327 230.868C345.89 231.215 346.529 231.388 347.245 231.388C347.784 231.388 348.287 231.283 348.753 231.073C349.219 230.857 349.625 230.564 349.972 230.195C350.324 229.82 350.6 229.397 350.799 228.925C350.998 228.448 351.097 227.951 351.097 227.434C351.097 226.752 350.932 226.113 350.603 225.516C350.279 224.919 349.83 224.436 349.256 224.067C348.688 223.698 348.04 223.513 347.313 223.513Z" fill="#464646"/>
<path d="M628.439 221.877V239.331H626.326V224.093H626.223L621.962 226.922V224.774L626.326 221.877H628.439ZM639.255 239.57C638.539 239.559 637.823 239.422 637.107 239.161C636.391 238.899 635.738 238.459 635.147 237.84C634.556 237.215 634.081 236.371 633.723 235.309C633.365 234.24 633.186 232.899 633.186 231.286C633.186 229.74 633.331 228.371 633.621 227.178C633.911 225.979 634.331 224.971 634.882 224.152C635.434 223.328 636.098 222.703 636.877 222.277C637.661 221.851 638.544 221.638 639.527 221.638C640.505 221.638 641.374 221.834 642.135 222.226C642.902 222.613 643.527 223.152 644.01 223.846C644.493 224.539 644.806 225.337 644.948 226.24H642.868C642.675 225.456 642.3 224.806 641.743 224.289C641.186 223.772 640.448 223.513 639.527 223.513C638.175 223.513 637.11 224.101 636.331 225.277C635.559 226.453 635.169 228.104 635.164 230.229H635.3C635.618 229.746 635.996 229.334 636.434 228.993C636.877 228.647 637.365 228.38 637.9 228.192C638.434 228.005 638.999 227.911 639.596 227.911C640.596 227.911 641.51 228.161 642.34 228.661C643.169 229.155 643.834 229.84 644.334 230.715C644.834 231.584 645.084 232.581 645.084 233.706C645.084 234.786 644.843 235.774 644.36 236.672C643.877 237.564 643.198 238.274 642.323 238.803C641.453 239.326 640.431 239.581 639.255 239.57ZM639.255 237.695C639.971 237.695 640.613 237.516 641.181 237.158C641.755 236.8 642.206 236.32 642.536 235.718C642.871 235.115 643.039 234.445 643.039 233.706C643.039 232.985 642.877 232.328 642.553 231.738C642.235 231.141 641.794 230.667 641.232 230.314C640.675 229.962 640.039 229.786 639.323 229.786C638.783 229.786 638.28 229.894 637.814 230.11C637.348 230.32 636.939 230.61 636.587 230.979C636.24 231.348 635.968 231.772 635.769 232.249C635.57 232.721 635.471 233.218 635.471 233.74C635.471 234.434 635.632 235.081 635.956 235.684C636.286 236.286 636.735 236.772 637.303 237.141C637.877 237.51 638.527 237.695 639.255 237.695Z" fill="#464646"/>
<path d="M136.761 235.752V234.013L144.431 221.877H145.693V224.57H144.841L139.045 233.74V233.877H149.375V235.752H136.761ZM144.977 239.331V235.223V234.414V221.877H146.988V239.331H144.977Z" fill="#464646"/>
<path d="M383.178 221.877V239.331H381.064V224.093H380.962L376.7 226.922V224.774L381.064 221.877H383.178ZM393.891 239.57C392.607 239.57 391.513 239.221 390.609 238.522C389.706 237.817 389.016 236.797 388.538 235.462C388.061 234.121 387.822 232.502 387.822 230.604C387.822 228.718 388.061 227.107 388.538 225.772C389.021 224.431 389.714 223.408 390.618 222.703C391.527 221.993 392.618 221.638 393.891 221.638C395.163 221.638 396.251 221.993 397.155 222.703C398.064 223.408 398.757 224.431 399.234 225.772C399.717 227.107 399.959 228.718 399.959 230.604C399.959 232.502 399.72 234.121 399.243 235.462C398.766 236.797 398.075 237.817 397.172 238.522C396.268 239.221 395.175 239.57 393.891 239.57ZM393.891 237.695C395.163 237.695 396.152 237.081 396.857 235.854C397.561 234.627 397.913 232.877 397.913 230.604C397.913 229.093 397.751 227.806 397.428 226.743C397.109 225.681 396.649 224.871 396.047 224.314C395.45 223.757 394.732 223.479 393.891 223.479C392.629 223.479 391.643 224.101 390.933 225.346C390.223 226.584 389.868 228.337 389.868 230.604C389.868 232.115 390.027 233.399 390.345 234.456C390.663 235.513 391.121 236.317 391.717 236.868C392.32 237.419 393.044 237.695 393.891 237.695Z" fill="#464646"/>
<path d="M669.947 221.877V239.331H667.833V224.093H667.731L663.47 226.922V224.774L667.833 221.877H669.947ZM675.512 239.331L683.319 223.888V223.752H674.319V221.877H685.501V223.854L677.728 239.331H675.512Z" fill="#464646"/>
<path d="M866.088 239.331V237.797L871.849 231.49C872.526 230.752 873.082 230.11 873.52 229.564C873.957 229.013 874.281 228.496 874.491 228.013C874.707 227.524 874.815 227.013 874.815 226.479C874.815 225.865 874.668 225.334 874.372 224.885C874.082 224.436 873.685 224.09 873.179 223.846C872.673 223.601 872.105 223.479 871.474 223.479C870.804 223.479 870.219 223.618 869.719 223.897C869.224 224.169 868.841 224.553 868.568 225.047C868.301 225.542 868.168 226.121 868.168 226.786H866.156C866.156 225.763 866.392 224.865 866.864 224.093C867.335 223.32 867.977 222.718 868.79 222.286C869.608 221.854 870.526 221.638 871.543 221.638C872.565 221.638 873.472 221.854 874.261 222.286C875.051 222.718 875.67 223.3 876.119 224.033C876.568 224.766 876.793 225.581 876.793 226.479C876.793 227.121 876.676 227.749 876.443 228.363C876.216 228.971 875.818 229.649 875.25 230.399C874.687 231.144 873.906 232.053 872.906 233.127L868.986 237.32V237.456H877.099V239.331H866.088ZM880.619 239.331V237.797L886.381 231.49C887.057 230.752 887.614 230.11 888.051 229.564C888.489 229.013 888.812 228.496 889.023 228.013C889.239 227.524 889.347 227.013 889.347 226.479C889.347 225.865 889.199 225.334 888.903 224.885C888.614 224.436 888.216 224.09 887.71 223.846C887.205 223.601 886.636 223.479 886.006 223.479C885.335 223.479 884.75 223.618 884.25 223.897C883.756 224.169 883.372 224.553 883.099 225.047C882.832 225.542 882.699 226.121 882.699 226.786H880.687C880.687 225.763 880.923 224.865 881.395 224.093C881.866 223.32 882.509 222.718 883.321 222.286C884.139 221.854 885.057 221.638 886.074 221.638C887.097 221.638 888.003 221.854 888.793 222.286C889.582 222.718 890.202 223.3 890.651 224.033C891.099 224.766 891.324 225.581 891.324 226.479C891.324 227.121 891.207 227.749 890.974 228.363C890.747 228.971 890.349 229.649 889.781 230.399C889.219 231.144 888.437 232.053 887.437 233.127L883.517 237.32V237.456H891.631V239.331H880.619Z" fill="#464646"/>
<path d="M906.588 239.331V237.797L912.349 231.49C913.026 230.752 913.582 230.11 914.02 229.564C914.457 229.013 914.781 228.496 914.991 228.013C915.207 227.524 915.315 227.013 915.315 226.479C915.315 225.865 915.168 225.334 914.872 224.885C914.582 224.436 914.185 224.09 913.679 223.846C913.173 223.601 912.605 223.479 911.974 223.479C911.304 223.479 910.719 223.618 910.219 223.897C909.724 224.169 909.341 224.553 909.068 225.047C908.801 225.542 908.668 226.121 908.668 226.786H906.656C906.656 225.763 906.892 224.865 907.364 224.093C907.835 223.32 908.477 222.718 909.29 222.286C910.108 221.854 911.026 221.638 912.043 221.638C913.065 221.638 913.972 221.854 914.761 222.286C915.551 222.718 916.17 223.3 916.619 224.033C917.068 224.766 917.293 225.581 917.293 226.479C917.293 227.121 917.176 227.749 916.943 228.363C916.716 228.971 916.318 229.649 915.75 230.399C915.187 231.144 914.406 232.053 913.406 233.127L909.486 237.32V237.456H917.599V239.331H906.588ZM927.017 239.57C925.892 239.57 924.889 239.377 924.009 238.99C923.134 238.604 922.437 238.067 921.92 237.38C921.409 236.686 921.131 235.882 921.085 234.968H923.233C923.278 235.53 923.472 236.016 923.812 236.425C924.153 236.828 924.599 237.141 925.151 237.363C925.702 237.584 926.312 237.695 926.983 237.695C927.733 237.695 928.398 237.564 928.977 237.303C929.557 237.042 930.011 236.678 930.341 236.212C930.67 235.746 930.835 235.206 930.835 234.593C930.835 233.951 930.676 233.385 930.358 232.897C930.04 232.402 929.574 232.016 928.96 231.738C928.347 231.459 927.597 231.32 926.71 231.32H925.312V229.445H926.71C927.403 229.445 928.011 229.32 928.534 229.07C929.062 228.82 929.474 228.468 929.77 228.013C930.071 227.559 930.222 227.024 930.222 226.411C930.222 225.82 930.091 225.306 929.83 224.868C929.568 224.431 929.199 224.09 928.722 223.846C928.25 223.601 927.693 223.479 927.051 223.479C926.449 223.479 925.881 223.59 925.347 223.811C924.818 224.027 924.386 224.343 924.051 224.757C923.716 225.167 923.534 225.661 923.506 226.24H921.46C921.494 225.326 921.77 224.524 922.287 223.837C922.804 223.144 923.48 222.604 924.315 222.218C925.156 221.831 926.08 221.638 927.085 221.638C928.165 221.638 929.091 221.857 929.864 222.294C930.636 222.726 931.23 223.297 931.645 224.007C932.06 224.718 932.267 225.485 932.267 226.309C932.267 227.292 932.009 228.13 931.491 228.823C930.98 229.516 930.284 229.996 929.403 230.263V230.399C930.506 230.581 931.366 231.05 931.986 231.806C932.605 232.556 932.915 233.485 932.915 234.593C932.915 235.542 932.656 236.394 932.139 237.149C931.628 237.899 930.929 238.49 930.043 238.922C929.156 239.354 928.148 239.57 927.017 239.57Z" fill="#464646"/>
<path d="M183.898 239.57C182.898 239.57 181.998 239.371 181.196 238.973C180.395 238.576 179.753 238.03 179.27 237.337C178.787 236.644 178.523 235.854 178.478 234.968H180.523C180.603 235.757 180.961 236.411 181.597 236.928C182.239 237.439 183.006 237.695 183.898 237.695C184.614 237.695 185.25 237.527 185.807 237.192C186.37 236.857 186.81 236.397 187.128 235.811C187.452 235.221 187.614 234.553 187.614 233.809C187.614 233.047 187.446 232.368 187.111 231.772C186.782 231.169 186.327 230.695 185.748 230.348C185.168 230.002 184.506 229.826 183.762 229.82C183.228 229.814 182.679 229.897 182.117 230.067C181.554 230.232 181.091 230.445 180.728 230.706L178.75 230.468L179.807 221.877H188.875V223.752H181.58L180.966 228.899H181.069C181.426 228.615 181.875 228.38 182.415 228.192C182.955 228.005 183.517 227.911 184.103 227.911C185.171 227.911 186.123 228.167 186.958 228.678C187.799 229.184 188.458 229.877 188.935 230.757C189.418 231.638 189.659 232.644 189.659 233.774C189.659 234.888 189.409 235.882 188.909 236.757C188.415 237.627 187.733 238.314 186.864 238.82C185.995 239.32 185.006 239.57 183.898 239.57Z" fill="#464646"/>
<path d="M425.974 221.877V239.331H423.861V224.093H423.759L419.497 226.922V224.774L423.861 221.877H425.974ZM437.131 221.877V239.331H435.017V224.093H434.915L430.653 226.922V224.774L435.017 221.877H437.131Z" fill="#464646"/>
<path d="M710.283 221.877V239.331H708.169V224.093H708.067L703.806 226.922V224.774L708.169 221.877H710.283ZM720.894 239.57C719.723 239.57 718.689 239.363 717.792 238.948C716.9 238.527 716.203 237.951 715.703 237.218C715.203 236.479 714.956 235.638 714.962 234.695C714.956 233.956 715.101 233.274 715.397 232.649C715.692 232.019 716.096 231.493 716.607 231.073C717.124 230.647 717.701 230.377 718.337 230.263V230.161C717.502 229.945 716.837 229.476 716.343 228.755C715.848 228.027 715.604 227.201 715.61 226.274C715.604 225.388 715.828 224.596 716.283 223.897C716.738 223.198 717.363 222.647 718.158 222.243C718.959 221.84 719.871 221.638 720.894 221.638C721.905 221.638 722.809 221.84 723.604 222.243C724.4 222.647 725.025 223.198 725.479 223.897C725.939 224.596 726.172 225.388 726.178 226.274C726.172 227.201 725.919 228.027 725.419 228.755C724.925 229.476 724.269 229.945 723.451 230.161V230.263C724.081 230.377 724.65 230.647 725.155 231.073C725.661 231.493 726.064 232.019 726.365 232.649C726.667 233.274 726.82 233.956 726.826 234.695C726.82 235.638 726.564 236.479 726.059 237.218C725.559 237.951 724.863 238.527 723.971 238.948C723.084 239.363 722.059 239.57 720.894 239.57ZM720.894 237.695C721.684 237.695 722.365 237.567 722.939 237.311C723.513 237.056 723.956 236.695 724.269 236.229C724.581 235.763 724.74 235.218 724.746 234.593C724.74 233.934 724.57 233.351 724.235 232.846C723.9 232.34 723.442 231.942 722.863 231.652C722.289 231.363 721.632 231.218 720.894 231.218C720.15 231.218 719.485 231.363 718.9 231.652C718.32 231.942 717.863 232.34 717.527 232.846C717.198 233.351 717.036 233.934 717.042 234.593C717.036 235.218 717.186 235.763 717.493 236.229C717.806 236.695 718.252 237.056 718.831 237.311C719.411 237.567 720.098 237.695 720.894 237.695ZM720.894 229.411C721.519 229.411 722.073 229.286 722.556 229.036C723.044 228.786 723.428 228.436 723.706 227.988C723.985 227.539 724.127 227.013 724.132 226.411C724.127 225.82 723.988 225.306 723.715 224.868C723.442 224.425 723.064 224.084 722.581 223.846C722.098 223.601 721.536 223.479 720.894 223.479C720.24 223.479 719.669 223.601 719.181 223.846C718.692 224.084 718.314 224.425 718.047 224.868C717.78 225.306 717.65 225.82 717.655 226.411C717.65 227.013 717.783 227.539 718.056 227.988C718.334 228.436 718.718 228.786 719.206 229.036C719.695 229.286 720.257 229.411 720.894 229.411Z" fill="#464646"/>
<path d="M224.926 239.57C224.211 239.559 223.495 239.422 222.779 239.161C222.063 238.899 221.409 238.459 220.819 237.84C220.228 237.215 219.753 236.371 219.395 235.309C219.037 234.24 218.858 232.899 218.858 231.286C218.858 229.74 219.003 228.371 219.293 227.178C219.583 225.979 220.003 224.971 220.554 224.152C221.105 223.328 221.77 222.703 222.549 222.277C223.333 221.851 224.216 221.638 225.199 221.638C226.176 221.638 227.046 221.834 227.807 222.226C228.574 222.613 229.199 223.152 229.682 223.846C230.165 224.539 230.478 225.337 230.62 226.24H228.54C228.347 225.456 227.972 224.806 227.415 224.289C226.858 223.772 226.12 223.513 225.199 223.513C223.847 223.513 222.782 224.101 222.003 225.277C221.23 226.453 220.841 228.104 220.836 230.229H220.972C221.29 229.746 221.668 229.334 222.105 228.993C222.549 228.647 223.037 228.38 223.571 228.192C224.105 228.005 224.671 227.911 225.267 227.911C226.267 227.911 227.182 228.161 228.012 228.661C228.841 229.155 229.506 229.84 230.006 230.715C230.506 231.584 230.756 232.581 230.756 233.706C230.756 234.786 230.515 235.774 230.032 236.672C229.549 237.564 228.87 238.274 227.995 238.803C227.125 239.326 226.103 239.581 224.926 239.57ZM224.926 237.695C225.642 237.695 226.284 237.516 226.853 237.158C227.426 236.8 227.878 236.32 228.208 235.718C228.543 235.115 228.711 234.445 228.711 233.706C228.711 232.985 228.549 232.328 228.225 231.738C227.907 231.141 227.466 230.667 226.904 230.314C226.347 229.962 225.711 229.786 224.995 229.786C224.455 229.786 223.952 229.894 223.486 230.11C223.02 230.32 222.611 230.61 222.259 230.979C221.912 231.348 221.64 231.772 221.441 232.249C221.242 232.721 221.142 233.218 221.142 233.74C221.142 234.434 221.304 235.081 221.628 235.684C221.958 236.286 222.407 236.772 222.975 237.141C223.549 237.51 224.199 237.695 224.926 237.695Z" fill="#464646"/>
<path d="M505.662 221.877V239.331H503.548V224.093H503.446L499.185 226.922V224.774L503.548 221.877H505.662ZM516.58 239.57C515.455 239.57 514.452 239.377 513.571 238.99C512.696 238.604 512 238.067 511.483 237.38C510.972 236.686 510.693 235.882 510.648 234.968H512.795C512.841 235.53 513.034 236.016 513.375 236.425C513.716 236.828 514.162 237.141 514.713 237.363C515.264 237.584 515.875 237.695 516.545 237.695C517.295 237.695 517.96 237.564 518.54 237.303C519.119 237.042 519.574 236.678 519.903 236.212C520.233 235.746 520.398 235.206 520.398 234.593C520.398 233.951 520.239 233.385 519.92 232.897C519.602 232.402 519.136 232.016 518.523 231.738C517.909 231.459 517.159 231.32 516.273 231.32H514.875V229.445H516.273C516.966 229.445 517.574 229.32 518.097 229.07C518.625 228.82 519.037 228.468 519.332 228.013C519.634 227.559 519.784 227.024 519.784 226.411C519.784 225.82 519.653 225.306 519.392 224.868C519.131 224.431 518.761 224.09 518.284 223.846C517.812 223.601 517.256 223.479 516.614 223.479C516.011 223.479 515.443 223.59 514.909 223.811C514.381 224.027 513.949 224.343 513.614 224.757C513.278 225.167 513.097 225.661 513.068 226.24H511.023C511.057 225.326 511.332 224.524 511.849 223.837C512.366 223.144 513.043 222.604 513.878 222.218C514.719 221.831 515.642 221.638 516.648 221.638C517.727 221.638 518.653 221.857 519.426 222.294C520.199 222.726 520.793 223.297 521.207 224.007C521.622 224.718 521.83 225.485 521.83 226.309C521.83 227.292 521.571 228.13 521.054 228.823C520.543 229.516 519.847 229.996 518.966 230.263V230.399C520.068 230.581 520.929 231.05 521.548 231.806C522.168 232.556 522.477 233.485 522.477 234.593C522.477 235.542 522.219 236.394 521.702 237.149C521.19 237.899 520.491 238.49 519.605 238.922C518.719 239.354 517.71 239.57 516.58 239.57Z" fill="#464646"/>
<path d="M261.184 239.331L268.991 223.888V223.752H259.991V221.877H271.173V223.854L263.4 239.331H261.184Z" fill="#464646"/>
<path d="M546.478 221.877V239.331H544.365V224.093H544.262L540.001 226.922V224.774L544.365 221.877H546.478ZM551.089 235.752V234.013L558.76 221.877H560.021V224.57H559.169L553.373 233.74V233.877H563.703V235.752H551.089ZM559.305 239.331V235.223V234.414V221.877H561.316V239.331H559.305Z" fill="#464646"/>
<path d="M465.162 221.877V239.331H463.048V224.093H462.946L458.685 226.922V224.774L463.048 221.877H465.162ZM470.182 239.331V237.797L475.943 231.49C476.619 230.752 477.176 230.11 477.614 229.564C478.051 229.013 478.375 228.496 478.585 228.013C478.801 227.524 478.909 227.013 478.909 226.479C478.909 225.865 478.761 225.334 478.466 224.885C478.176 224.436 477.778 224.09 477.273 223.846C476.767 223.601 476.199 223.479 475.568 223.479C474.898 223.479 474.312 223.618 473.812 223.897C473.318 224.169 472.935 224.553 472.662 225.047C472.395 225.542 472.261 226.121 472.261 226.786H470.25C470.25 225.763 470.486 224.865 470.957 224.093C471.429 223.32 472.071 222.718 472.884 222.286C473.702 221.854 474.619 221.638 475.636 221.638C476.659 221.638 477.565 221.854 478.355 222.286C479.145 222.718 479.764 223.3 480.213 224.033C480.662 224.766 480.886 225.581 480.886 226.479C480.886 227.121 480.77 227.749 480.537 228.363C480.31 228.971 479.912 229.649 479.344 230.399C478.781 231.144 478 232.053 477 233.127L473.08 237.32V237.456H481.193V239.331H470.182Z" fill="#464646"/>
<path d="M751.064 221.877V239.331H748.951V224.093H748.848L744.587 226.922V224.774L748.951 221.877H751.064ZM761.641 221.638C762.357 221.644 763.073 221.78 763.789 222.047C764.505 222.314 765.158 222.757 765.749 223.377C766.34 223.99 766.814 224.828 767.172 225.891C767.53 226.953 767.709 228.286 767.709 229.888C767.709 231.439 767.561 232.817 767.266 234.022C766.976 235.221 766.556 236.232 766.005 237.056C765.459 237.88 764.794 238.505 764.01 238.931C763.232 239.357 762.351 239.57 761.368 239.57C760.391 239.57 759.519 239.377 758.752 238.99C757.99 238.598 757.365 238.056 756.877 237.363C756.394 236.664 756.084 235.854 755.948 234.934H758.027C758.215 235.735 758.587 236.397 759.144 236.919C759.706 237.436 760.448 237.695 761.368 237.695C762.715 237.695 763.777 237.107 764.556 235.931C765.34 234.755 765.732 233.093 765.732 230.945H765.596C765.277 231.422 764.9 231.834 764.462 232.181C764.025 232.527 763.539 232.794 763.005 232.982C762.471 233.169 761.902 233.263 761.3 233.263C760.3 233.263 759.382 233.016 758.547 232.522C757.718 232.022 757.053 231.337 756.553 230.468C756.059 229.593 755.811 228.593 755.811 227.468C755.811 226.399 756.05 225.422 756.527 224.536C757.01 223.644 757.686 222.934 758.556 222.405C759.431 221.877 760.459 221.621 761.641 221.638ZM761.641 223.513C760.925 223.513 760.28 223.692 759.706 224.05C759.138 224.402 758.686 224.88 758.351 225.482C758.022 226.078 757.857 226.74 757.857 227.468C757.857 228.195 758.016 228.857 758.334 229.453C758.658 230.044 759.098 230.516 759.655 230.868C760.218 231.215 760.857 231.388 761.573 231.388C762.113 231.388 762.615 231.283 763.081 231.073C763.547 230.857 763.953 230.564 764.3 230.195C764.652 229.82 764.928 229.397 765.127 228.925C765.326 228.448 765.425 227.951 765.425 227.434C765.425 226.752 765.26 226.113 764.931 225.516C764.607 224.919 764.158 224.436 763.584 224.067C763.016 223.698 762.368 223.513 761.641 223.513Z" fill="#464646"/>
<path d="M947.592 239.331V237.797L953.353 231.49C954.029 230.752 954.586 230.11 955.024 229.564C955.461 229.013 955.785 228.496 955.995 228.013C956.211 227.524 956.319 227.013 956.319 226.479C956.319 225.865 956.172 225.334 955.876 224.885C955.586 224.436 955.189 224.09 954.683 223.846C954.177 223.601 953.609 223.479 952.978 223.479C952.308 223.479 951.723 223.618 951.223 223.897C950.728 224.169 950.345 224.553 950.072 225.047C949.805 225.542 949.672 226.121 949.672 226.786H947.66C947.66 225.763 947.896 224.865 948.368 224.093C948.839 223.32 949.481 222.718 950.294 222.286C951.112 221.854 952.029 221.638 953.047 221.638C954.069 221.638 954.975 221.854 955.765 222.286C956.555 222.718 957.174 223.3 957.623 224.033C958.072 224.766 958.297 225.581 958.297 226.479C958.297 227.121 958.18 227.749 957.947 228.363C957.72 228.971 957.322 229.649 956.754 230.399C956.191 231.144 955.41 232.053 954.41 233.127L950.49 237.32V237.456H958.603V239.331H947.592ZM961.339 235.752V234.013L969.01 221.877H970.271V224.57H969.419L963.623 233.74V233.877H973.953V235.752H961.339ZM969.555 239.331V235.223V234.414V221.877H971.566V239.331H969.555Z" fill="#464646"/>
<g filter="url(#filter0_d_2351_1850)">
<path d="M123.058 116.461L136.116 102L123.058 108.674L108.55 122.764L123.058 116.461Z" fill="#EBC99C"/>
</g>
<g filter="url(#filter1_d_2351_1850)">
<path d="M246.38 116.461L233.323 102L246.38 108.674L260.889 122.764L246.38 116.461Z" fill="#EBC99C"/>
</g>
<rect x="123.059" y="115.349" width="124.047" height="91.2151" fill="#E6A352"/>
<rect x="136.115" y="102" width="97.2064" height="13.3486" fill="#BC8239"/>
<path d="M123.059 115.349L136.116 102V115.349H123.059Z" fill="#936122"/>
<path d="M247.051 115.349H123.112L112.177 130.922H257.986L247.051 115.349Z" fill="#ECC290"/>
<path d="M246.38 115.349L233.322 102V115.349H246.38Z" fill="#AE752E"/>
<g filter="url(#filter2_d_2351_1850)">
<path d="M402.508 116.461L415.566 102L402.508 108.674L388 122.764L402.508 116.461Z" fill="#EBC99C"/>
</g>
<g filter="url(#filter3_d_2351_1850)">
<path d="M525.83 116.461L512.773 102L525.83 108.674L540.339 122.764L525.83 116.461Z" fill="#EBC99C"/>
</g>
<rect x="402.509" y="115.349" width="124.047" height="91.2151" fill="#E6A352"/>
<rect x="415.565" y="102" width="97.2064" height="13.3486" fill="#BC8239"/>
<path d="M402.509 115.349L415.566 102V115.349H402.509Z" fill="#936122"/>
<path d="M526.501 115.349H402.563L391.627 130.922H537.437L526.501 115.349Z" fill="#ECC290"/>
<path d="M525.83 115.349L512.772 102V115.349H525.83Z" fill="#AE752E"/>
<g filter="url(#filter4_d_2351_1850)">
<path d="M735.591 116.461L748.649 102L735.591 108.674L721.083 122.764L735.591 116.461Z" fill="#EBC99C"/>
</g>
<g filter="url(#filter5_d_2351_1850)">
<path d="M858.913 116.461L845.856 102L858.913 108.674L873.422 122.764L858.913 116.461Z" fill="#EBC99C"/>
</g>
<rect x="735.592" y="115.349" width="124.047" height="91.2151" fill="#E6A352"/>
<rect x="748.648" y="102" width="97.2064" height="13.3486" fill="#BC8239"/>
<path d="M735.592 115.349L748.649 102V115.349H735.592Z" fill="#936122"/>
<path d="M859.584 115.349H735.646L724.71 130.922H870.52L859.584 115.349Z" fill="#ECC290"/>
<path d="M858.913 115.349L845.855 102V115.349H858.913Z" fill="#AE752E"/>
<path d="M339.259 8.40545L338.592 0.964266L339.259 8.40545ZM463 95.5469L455.209 9.62425L383.825 53.2796L463 95.5469ZM214.786 71.9978C221.959 74.9006 221.957 74.9049 221.956 74.909C221.956 74.9101 221.954 74.914 221.953 74.9161C221.952 74.9203 221.951 74.9235 221.95 74.9259C221.948 74.9306 221.948 74.9316 221.949 74.9289C221.951 74.9235 221.958 74.9035 221.971 74.8694C221.996 74.8011 222.044 74.6762 222.115 74.4985C222.258 74.1429 222.496 73.5764 222.843 72.8287C223.538 71.3327 224.666 69.1155 226.339 66.4128C229.685 61.007 235.198 53.6755 243.761 46.2803C260.784 31.5787 290.282 16.2542 339.926 15.8466L338.592 0.964266C285.58 1.39952 252.841 17.8712 233.291 34.7552C223.568 43.1526 217.211 51.5612 213.259 57.9473C211.282 61.1406 209.904 63.8322 209.004 65.7711C208.554 66.7408 208.223 67.5233 207.997 68.0874C207.883 68.3694 207.796 68.597 207.733 68.7662C207.701 68.8508 207.675 68.9209 207.655 68.9758C207.646 69.0033 207.637 69.027 207.63 69.0469C207.626 69.0569 207.623 69.0659 207.621 69.0739C207.619 69.0779 207.617 69.0832 207.617 69.0852C207.615 69.0903 207.613 69.0951 214.786 71.9978ZM339.926 15.8466C376.162 15.5491 401.556 28.1589 419.157 43.2918L428.57 32.4251C408.081 14.8095 378.876 0.633523 338.592 0.964266L339.926 15.8466Z" fill="#5D71A7"/>
<path d="M646.009 7.98639L646.849 15.4056L646.009 7.98639ZM777 89.427L762.243 3.93939L694.91 51.553L777 89.427ZM514.242 67.4185C521.354 70.6922 521.352 70.6967 521.35 70.701C521.35 70.7022 521.348 70.7063 521.347 70.7086C521.346 70.7132 521.344 70.7169 521.343 70.7197C521.341 70.7254 521.34 70.7276 521.34 70.7264C521.341 70.7239 521.348 70.7078 521.36 70.6784C521.385 70.6196 521.433 70.5079 521.507 70.3466C521.654 70.024 521.901 69.5036 522.264 68.8133C522.99 67.4323 524.177 65.3733 525.941 62.8569C529.468 57.8263 535.305 50.9651 544.404 44.0278C562.523 30.2128 593.976 15.7889 646.849 15.4056L645.169 0.567147C589.37 0.971602 554.94 16.2638 534.343 31.9679C524.084 39.7901 517.356 47.6392 513.157 53.6291C511.058 56.6229 509.591 59.1517 508.629 60.9809C508.148 61.8957 507.794 62.636 507.549 63.1729C507.427 63.4413 507.332 63.6589 507.263 63.8221C507.229 63.9037 507.2 63.9717 507.178 64.0256C507.167 64.0526 507.158 64.0761 507.15 64.0959C507.146 64.1059 507.142 64.1149 507.139 64.1231C507.137 64.1272 507.135 64.1326 507.134 64.1346C507.132 64.1399 507.13 64.1448 514.242 67.4185ZM646.849 15.4056C684.249 15.1345 710.777 26.2343 729.323 39.7092L737.515 28.1205C715.964 12.4621 685.934 0.271658 645.169 0.567147L646.849 15.4056Z" fill="#5D71A7"/>
<path d="M318.073 349.014L317.425 341.57L318.073 349.014ZM204 267.573L213.042 353.495L283.674 308.577L204 267.573ZM432.822 289.581C425.643 286.719 425.645 286.715 425.646 286.711C425.647 286.71 425.648 286.706 425.649 286.704C425.65 286.699 425.651 286.696 425.652 286.693C425.654 286.688 425.655 286.687 425.654 286.688C425.653 286.692 425.647 286.709 425.635 286.739C425.613 286.8 425.57 286.914 425.506 287.077C425.376 287.403 425.16 287.925 424.843 288.617C424.209 290.001 423.177 292.058 421.645 294.567C418.58 299.587 413.528 306.399 405.678 313.272C390.085 326.924 363.032 341.191 317.425 341.57L318.722 356.457C367.751 356.049 398.073 340.599 416.195 324.733C425.203 316.846 431.093 308.947 434.757 302.947C436.589 299.946 437.868 297.415 438.703 295.589C439.122 294.675 439.43 293.937 439.641 293.404C439.747 293.137 439.829 292.921 439.888 292.76C439.918 292.679 439.942 292.612 439.961 292.56C439.97 292.533 439.978 292.51 439.985 292.491C439.988 292.481 439.991 292.473 439.994 292.465C439.996 292.461 439.997 292.455 439.998 292.454C440 292.449 440.001 292.444 432.822 289.581ZM317.425 341.57C286.533 341.827 264.292 331.718 248.394 319.05L239.455 330.336C258.21 345.28 284.068 356.745 318.722 356.457L317.425 341.57Z" fill="#FEC900"/>
<path d="M640.608 349.014L639.804 341.589L640.608 349.014ZM513 267.573L526.65 353.158L594.645 306.059L513 267.573ZM768.971 289.581C761.846 286.386 761.847 286.381 761.849 286.377C761.849 286.376 761.851 286.372 761.852 286.37C761.854 286.365 761.855 286.361 761.856 286.359C761.858 286.353 761.859 286.351 761.859 286.352C761.858 286.355 761.851 286.371 761.839 286.401C761.814 286.46 761.767 286.572 761.696 286.733C761.552 287.056 761.311 287.577 760.958 288.267C760.25 289.649 759.095 291.707 757.378 294.221C753.944 299.249 748.264 306.1 739.417 313.025C721.805 326.809 691.231 341.207 639.804 341.589L641.411 356.438C695.85 356.033 729.457 340.714 749.56 324.98C759.57 317.145 766.132 309.286 770.225 303.293C772.271 300.297 773.7 297.767 774.637 295.938C775.105 295.024 775.451 294.284 775.689 293.747C775.808 293.479 775.9 293.262 775.967 293.099C776.001 293.017 776.028 292.95 776.049 292.896C776.06 292.869 776.069 292.846 776.077 292.826C776.081 292.816 776.084 292.807 776.088 292.799C776.089 292.795 776.091 292.789 776.092 292.787C776.094 292.782 776.096 292.777 768.971 289.581ZM639.804 341.589C603.725 341.858 578.062 330.951 560.047 317.633L551.711 329.167C572.706 344.688 601.893 356.732 641.411 356.438L639.804 341.589Z" fill="#FEC900"/>
<defs>
<filter id="filter0_d_2351_1850" x="104.55" y="102" width="35.5664" height="28.7644" filterUnits="userSpaceOnUse" color-interpolation-filters="sRGB">
<feFlood flood-opacity="0" result="BackgroundImageFix"/>
<feColorMatrix in="SourceAlpha" type="matrix" values="0 0 0 0 0 0 0 0 0 0 0 0 0 0 0 0 0 0 127 0" result="hardAlpha"/>
<feOffset dy="4"/>
<feGaussianBlur stdDeviation="2"/>
<feComposite in2="hardAlpha" operator="out"/>
<feColorMatrix type="matrix" values="0 0 0 0 0 0 0 0 0 0 0 0 0 0 0 0 0 0 0.1 0"/>
<feBlend mode="normal" in2="BackgroundImageFix" result="effect1_dropShadow_2351_1850"/>
<feBlend mode="normal" in="SourceGraphic" in2="effect1_dropShadow_2351_1850" result="shape"/>
</filter>
<filter id="filter1_d_2351_1850" x="229.322" y="102" width="35.5664" height="28.7644" filterUnits="userSpaceOnUse" color-interpolation-filters="sRGB">
<feFlood flood-opacity="0" result="BackgroundImageFix"/>
<feColorMatrix in="SourceAlpha" type="matrix" values="0 0 0 0 0 0 0 0 0 0 0 0 0 0 0 0 0 0 127 0" result="hardAlpha"/>
<feOffset dy="4"/>
<feGaussianBlur stdDeviation="2"/>
<feComposite in2="hardAlpha" operator="out"/>
<feColorMatrix type="matrix" values="0 0 0 0 0 0 0 0 0 0 0 0 0 0 0 0 0 0 0.1 0"/>
<feBlend mode="normal" in2="BackgroundImageFix" result="effect1_dropShadow_2351_1850"/>
<feBlend mode="normal" in="SourceGraphic" in2="effect1_dropShadow_2351_1850" result="shape"/>
</filter>
<filter id="filter2_d_2351_1850" x="384" y="102" width="35.5664" height="28.7644" filterUnits="userSpaceOnUse" color-interpolation-filters="sRGB">
<feFlood flood-opacity="0" result="BackgroundImageFix"/>
<feColorMatrix in="SourceAlpha" type="matrix" values="0 0 0 0 0 0 0 0 0 0 0 0 0 0 0 0 0 0 127 0" result="hardAlpha"/>
<feOffset dy="4"/>
<feGaussianBlur stdDeviation="2"/>
<feComposite in2="hardAlpha" operator="out"/>
<feColorMatrix type="matrix" values="0 0 0 0 0 0 0 0 0 0 0 0 0 0 0 0 0 0 0.1 0"/>
<feBlend mode="normal" in2="BackgroundImageFix" result="effect1_dropShadow_2351_1850"/>
<feBlend mode="normal" in="SourceGraphic" in2="effect1_dropShadow_2351_1850" result="shape"/>
</filter>
<filter id="filter3_d_2351_1850" x="508.772" y="102" width="35.5664" height="28.7644" filterUnits="userSpaceOnUse" color-interpolation-filters="sRGB">
<feFlood flood-opacity="0" result="BackgroundImageFix"/>
<feColorMatrix in="SourceAlpha" type="matrix" values="0 0 0 0 0 0 0 0 0 0 0 0 0 0 0 0 0 0 127 0" result="hardAlpha"/>
<feOffset dy="4"/>
<feGaussianBlur stdDeviation="2"/>
<feComposite in2="hardAlpha" operator="out"/>
<feColorMatrix type="matrix" values="0 0 0 0 0 0 0 0 0 0 0 0 0 0 0 0 0 0 0.1 0"/>
<feBlend mode="normal" in2="BackgroundImageFix" result="effect1_dropShadow_2351_1850"/>
<feBlend mode="normal" in="SourceGraphic" in2="effect1_dropShadow_2351_1850" result="shape"/>
</filter>
<filter id="filter4_d_2351_1850" x="717.083" y="102" width="35.5664" height="28.7644" filterUnits="userSpaceOnUse" color-interpolation-filters="sRGB">
<feFlood flood-opacity="0" result="BackgroundImageFix"/>
<feColorMatrix in="SourceAlpha" type="matrix" values="0 0 0 0 0 0 0 0 0 0 0 0 0 0 0 0 0 0 127 0" result="hardAlpha"/>
<feOffset dy="4"/>
<feGaussianBlur stdDeviation="2"/>
<feComposite in2="hardAlpha" operator="out"/>
<feColorMatrix type="matrix" values="0 0 0 0 0 0 0 0 0 0 0 0 0 0 0 0 0 0 0.1 0"/>
<feBlend mode="normal" in2="BackgroundImageFix" result="effect1_dropShadow_2351_1850"/>
<feBlend mode="normal" in="SourceGraphic" in2="effect1_dropShadow_2351_1850" result="shape"/>
</filter>
<filter id="filter5_d_2351_1850" x="841.855" y="102" width="35.5664" height="28.7644" filterUnits="userSpaceOnUse" color-interpolation-filters="sRGB">
<feFlood flood-opacity="0" result="BackgroundImageFix"/>
<feColorMatrix in="SourceAlpha" type="matrix" values="0 0 0 0 0 0 0 0 0 0 0 0 0 0 0 0 0 0 127 0" result="hardAlpha"/>
<feOffset dy="4"/>
<feGaussianBlur stdDeviation="2"/>
<feComposite in2="hardAlpha" operator="out"/>
<feColorMatrix type="matrix" values="0 0 0 0 0 0 0 0 0 0 0 0 0 0 0 0 0 0 0.1 0"/>
<feBlend mode="normal" in2="BackgroundImageFix" result="effect1_dropShadow_2351_1850"/>
<feBlend mode="normal" in="SourceGraphic" in2="effect1_dropShadow_2351_1850" result="shape"/>
</filter>
</defs>
</svg>
