<svg width="981" height="667" viewBox="0 0 981 667" fill="none" xmlns="http://www.w3.org/2000/svg">
<path fill-rule="evenodd" clip-rule="evenodd" d="M261.707 519.996L185.201 480.339L187.611 566.478L220.361 545.933C252.699 577.409 290.101 603.214 330.894 622.045C385.725 647.357 445.089 659.334 504.026 656.974C562.962 654.614 619.761 637.986 669.678 608.48C719.594 578.973 761.178 537.445 790.956 487.363L777.04 478.464C748.555 526.371 708.776 566.097 661.027 594.322C613.278 622.547 558.945 638.453 502.567 640.711C446.189 642.968 389.403 631.512 336.953 607.299C299.15 589.848 264.39 566.135 234.13 537.295L261.707 519.996Z" fill="#5D71A7"/>
<path fill-rule="evenodd" clip-rule="evenodd" d="M719.124 146.495L795.629 186.152L793.219 100.013L760.469 120.558C728.131 89.0822 690.729 63.2766 649.937 44.4454C595.105 19.1333 535.742 7.15696 476.805 9.51693C417.868 11.8769 361.069 28.5047 311.152 58.0112C261.236 87.5177 219.652 129.046 189.874 179.128L203.79 188.026C232.275 140.119 272.054 100.394 319.803 72.1686C367.552 43.9433 421.885 28.0375 478.263 25.7799C534.641 23.5224 591.427 34.9788 643.878 59.1919C681.681 76.6431 716.44 100.356 746.7 129.196L719.124 146.495Z" fill="#FEC900"/>
<rect y="365.067" width="981" height="40.875" fill="#C4C4C4"/>
<rect x="0.5" y="365.567" width="39.875" height="39.875" fill="#C4C4C4" stroke="#464646"/>
<rect x="245.75" y="365.567" width="39.875" height="39.875" fill="#C4C4C4" stroke="#464646"/>
<rect x="41.375" y="365.567" width="39.875" height="39.875" fill="#C4C4C4" stroke="#464646"/>
<rect x="82.25" y="365.567" width="39.875" height="39.875" fill="#C4C4C4" stroke="#464646"/>
<rect x="123.125" y="365.567" width="39.875" height="39.875" fill="#C4C4C4" stroke="#464646"/>
<rect x="164" y="365.567" width="39.875" height="39.875" fill="#C4C4C4" stroke="#464646"/>
<rect x="204.875" y="365.567" width="39.875" height="39.875" fill="#C4C4C4" stroke="#464646"/>
<rect x="245.75" y="365.567" width="39.875" height="39.875" fill="#C4C4C4" stroke="#464646"/>
<rect x="286.625" y="365.567" width="39.875" height="39.875" fill="#C4C4C4" stroke="#464646"/>
<rect x="327.5" y="365.567" width="39.875" height="39.875" fill="#C4C4C4" stroke="#464646"/>
<rect x="368.375" y="365.567" width="39.875" height="39.875" fill="#C4C4C4" stroke="#464646"/>
<rect x="409.25" y="365.567" width="39.875" height="39.875" fill="#C4C4C4" stroke="#464646"/>
<rect x="450.125" y="365.567" width="39.875" height="39.875" fill="#C4C4C4" stroke="#464646"/>
<rect x="491" y="365.567" width="39.875" height="39.875" fill="#C4C4C4" stroke="#464646"/>
<rect x="531.875" y="365.567" width="39.875" height="39.875" fill="#C4C4C4" stroke="#464646"/>
<rect x="572.75" y="365.567" width="39.875" height="39.875" fill="#C4C4C4" stroke="#464646"/>
<rect x="613.625" y="365.567" width="39.875" height="39.875" fill="#C4C4C4" stroke="#464646"/>
<rect x="818" y="365.567" width="39.875" height="39.875" fill="#C4C4C4" stroke="#464646"/>
<rect x="654.5" y="365.567" width="39.875" height="39.875" fill="#C4C4C4" stroke="#464646"/>
<rect x="695.375" y="365.567" width="39.875" height="39.875" fill="#C4C4C4" stroke="#464646"/>
<rect x="899.75" y="365.567" width="39.875" height="39.875" fill="#C4C4C4" stroke="#464646"/>
<rect x="736.25" y="365.567" width="39.875" height="39.875" fill="#C4C4C4" stroke="#464646"/>
<rect x="777.125" y="365.567" width="39.875" height="39.875" fill="#C4C4C4" stroke="#464646"/>
<rect x="818" y="365.567" width="39.875" height="39.875" fill="#C4C4C4" stroke="#464646"/>
<rect x="858.875" y="365.567" width="39.875" height="39.875" fill="#C4C4C4" stroke="#464646"/>
<rect x="899.75" y="365.567" width="39.875" height="39.875" fill="#C4C4C4" stroke="#464646"/>
<rect x="940.625" y="365.567" width="39.875" height="39.875" fill="#C4C4C4" stroke="#464646"/>
<path d="M22.8026 379.877V397.332H20.6889V382.093H20.5866L16.3253 384.922V382.775L20.6889 379.877H22.8026Z" fill="#464646"/>
<path d="M55.8537 397.332V395.797L61.6151 389.491C62.2912 388.752 62.848 388.11 63.2855 387.564C63.723 387.013 64.0469 386.496 64.2571 386.013C64.473 385.525 64.581 385.013 64.581 384.479C64.581 383.866 64.4332 383.334 64.1378 382.886C63.848 382.437 63.4503 382.09 62.9446 381.846C62.4389 381.601 61.8707 381.479 61.2401 381.479C60.5696 381.479 59.9844 381.618 59.4844 381.897C58.9901 382.17 58.6065 382.553 58.3338 383.047C58.0668 383.542 57.9332 384.121 57.9332 384.786H55.9219C55.9219 383.763 56.1577 382.866 56.6293 382.093C57.1009 381.32 57.7429 380.718 58.5554 380.286C59.3736 379.854 60.2912 379.638 61.3082 379.638C62.331 379.638 63.2372 379.854 64.027 380.286C64.8168 380.718 65.4361 381.3 65.8849 382.033C66.3338 382.766 66.5582 383.582 66.5582 384.479C66.5582 385.121 66.4418 385.749 66.2088 386.363C65.9815 386.971 65.5838 387.65 65.0156 388.4C64.4531 389.144 63.6719 390.053 62.6719 391.127L58.7514 395.32V395.457H66.8651V397.332H55.8537Z" fill="#464646"/>
<path d="M306.566 397.57C305.395 397.57 304.361 397.363 303.463 396.948C302.571 396.528 301.875 395.951 301.375 395.218C300.875 394.479 300.628 393.638 300.634 392.695C300.628 391.957 300.773 391.275 301.069 390.65C301.364 390.019 301.767 389.493 302.279 389.073C302.796 388.647 303.373 388.377 304.009 388.263V388.161C303.174 387.945 302.509 387.476 302.015 386.755C301.52 386.028 301.276 385.201 301.282 384.275C301.276 383.388 301.5 382.596 301.955 381.897C302.409 381.198 303.034 380.647 303.83 380.243C304.631 379.84 305.543 379.638 306.566 379.638C307.577 379.638 308.48 379.84 309.276 380.243C310.071 380.647 310.696 381.198 311.151 381.897C311.611 382.596 311.844 383.388 311.85 384.275C311.844 385.201 311.591 386.028 311.091 386.755C310.597 387.476 309.941 387.945 309.123 388.161V388.263C309.753 388.377 310.321 388.647 310.827 389.073C311.333 389.493 311.736 390.019 312.037 390.65C312.338 391.275 312.492 391.957 312.498 392.695C312.492 393.638 312.236 394.479 311.73 395.218C311.23 395.951 310.534 396.528 309.642 396.948C308.756 397.363 307.73 397.57 306.566 397.57ZM306.566 395.695C307.355 395.695 308.037 395.567 308.611 395.312C309.185 395.056 309.628 394.695 309.941 394.229C310.253 393.763 310.412 393.218 310.418 392.593C310.412 391.934 310.242 391.351 309.907 390.846C309.571 390.34 309.114 389.942 308.534 389.653C307.961 389.363 307.304 389.218 306.566 389.218C305.821 389.218 305.157 389.363 304.571 389.653C303.992 389.942 303.534 390.34 303.199 390.846C302.87 391.351 302.708 391.934 302.713 392.593C302.708 393.218 302.858 393.763 303.165 394.229C303.478 394.695 303.924 395.056 304.503 395.312C305.083 395.567 305.77 395.695 306.566 395.695ZM306.566 387.411C307.191 387.411 307.745 387.286 308.228 387.036C308.716 386.786 309.1 386.437 309.378 385.988C309.657 385.539 309.799 385.013 309.804 384.411C309.799 383.82 309.659 383.306 309.387 382.868C309.114 382.425 308.736 382.084 308.253 381.846C307.77 381.601 307.208 381.479 306.566 381.479C305.912 381.479 305.341 381.601 304.853 381.846C304.364 382.084 303.986 382.425 303.719 382.868C303.452 383.306 303.321 383.82 303.327 384.411C303.321 385.013 303.455 385.539 303.728 385.988C304.006 386.437 304.39 386.786 304.878 387.036C305.367 387.286 305.929 387.411 306.566 387.411Z" fill="#464646"/>
<path d="M587.752 379.877V397.332H585.638V382.093H585.536L581.275 384.922V382.775L585.638 379.877H587.752ZM598.226 397.57C597.226 397.57 596.326 397.371 595.525 396.974C594.723 396.576 594.081 396.03 593.598 395.337C593.115 394.644 592.851 393.854 592.806 392.968H594.851C594.931 393.758 595.289 394.411 595.925 394.928C596.567 395.439 597.334 395.695 598.226 395.695C598.942 395.695 599.578 395.528 600.135 395.192C600.698 394.857 601.138 394.397 601.456 393.812C601.78 393.221 601.942 392.553 601.942 391.809C601.942 391.047 601.775 390.368 601.439 389.772C601.11 389.17 600.655 388.695 600.076 388.349C599.496 388.002 598.834 387.826 598.09 387.82C597.556 387.814 597.007 387.897 596.445 388.067C595.882 388.232 595.419 388.445 595.056 388.707L593.078 388.468L594.135 379.877H603.203V381.752H595.908L595.294 386.9H595.397C595.755 386.616 596.203 386.38 596.743 386.192C597.283 386.005 597.846 385.911 598.431 385.911C599.499 385.911 600.451 386.167 601.286 386.678C602.127 387.184 602.786 387.877 603.263 388.758C603.746 389.638 603.988 390.644 603.988 391.775C603.988 392.888 603.738 393.883 603.238 394.758C602.743 395.627 602.061 396.314 601.192 396.82C600.323 397.32 599.334 397.57 598.226 397.57Z" fill="#464646"/>
<path d="M784.104 397.332V395.797L789.865 389.491C790.541 388.752 791.098 388.11 791.536 387.564C791.973 387.013 792.297 386.496 792.507 386.013C792.723 385.525 792.831 385.013 792.831 384.479C792.831 383.866 792.683 383.334 792.388 382.886C792.098 382.437 791.7 382.09 791.195 381.846C790.689 381.601 790.121 381.479 789.49 381.479C788.82 381.479 788.234 381.618 787.734 381.897C787.24 382.17 786.857 382.553 786.584 383.047C786.317 383.542 786.183 384.121 786.183 384.786H784.172C784.172 383.763 784.408 382.866 784.879 382.093C785.351 381.32 785.993 380.718 786.805 380.286C787.624 379.854 788.541 379.638 789.558 379.638C790.581 379.638 791.487 379.854 792.277 380.286C793.067 380.718 793.686 381.3 794.135 382.033C794.584 382.766 794.808 383.582 794.808 384.479C794.808 385.121 794.692 385.749 794.459 386.363C794.232 386.971 793.834 387.65 793.266 388.4C792.703 389.144 791.922 390.053 790.922 391.127L787.001 395.32V395.457H795.115V397.332H784.104ZM804.328 397.57C803.044 397.57 801.95 397.221 801.047 396.522C800.143 395.817 799.453 394.797 798.976 393.462C798.499 392.121 798.26 390.502 798.26 388.604C798.26 386.718 798.499 385.107 798.976 383.772C799.459 382.431 800.152 381.408 801.055 380.704C801.964 379.993 803.055 379.638 804.328 379.638C805.601 379.638 806.689 379.993 807.592 380.704C808.501 381.408 809.195 382.431 809.672 383.772C810.155 385.107 810.396 386.718 810.396 388.604C810.396 390.502 810.158 392.121 809.68 393.462C809.203 394.797 808.513 395.817 807.609 396.522C806.706 397.221 805.612 397.57 804.328 397.57ZM804.328 395.695C805.601 395.695 806.589 395.082 807.294 393.854C807.999 392.627 808.351 390.877 808.351 388.604C808.351 387.093 808.189 385.806 807.865 384.743C807.547 383.681 807.087 382.871 806.484 382.314C805.888 381.758 805.169 381.479 804.328 381.479C803.067 381.479 802.081 382.101 801.371 383.346C800.661 384.584 800.305 386.337 800.305 388.604C800.305 390.116 800.464 391.4 800.783 392.457C801.101 393.513 801.558 394.317 802.155 394.868C802.757 395.42 803.482 395.695 804.328 395.695Z" fill="#464646"/>
<path d="M826.901 397.332V395.797L832.662 389.491C833.338 388.752 833.895 388.11 834.332 387.564C834.77 387.013 835.094 386.496 835.304 386.013C835.52 385.525 835.628 385.013 835.628 384.479C835.628 383.866 835.48 383.334 835.185 382.886C834.895 382.437 834.497 382.09 833.991 381.846C833.486 381.601 832.918 381.479 832.287 381.479C831.616 381.479 831.031 381.618 830.531 381.897C830.037 382.17 829.653 382.553 829.381 383.047C829.114 383.542 828.98 384.121 828.98 384.786H826.969C826.969 383.763 827.205 382.866 827.676 382.093C828.148 381.32 828.79 380.718 829.602 380.286C830.42 379.854 831.338 379.638 832.355 379.638C833.378 379.638 834.284 379.854 835.074 380.286C835.864 380.718 836.483 381.3 836.932 382.033C837.381 382.766 837.605 383.582 837.605 384.479C837.605 385.121 837.489 385.749 837.256 386.363C837.028 386.971 836.631 387.65 836.062 388.4C835.5 389.144 834.719 390.053 833.719 391.127L829.798 395.32V395.457H837.912V397.332H826.901ZM847.568 379.877V397.332H845.455V382.093H845.352L841.091 384.922V382.775L845.455 379.877H847.568Z" fill="#464646"/>
<path d="M102.251 397.57C101.126 397.57 100.124 397.377 99.2429 396.991C98.3679 396.604 97.6719 396.067 97.1548 395.38C96.6435 394.687 96.3651 393.883 96.3196 392.968H98.4673C98.5128 393.53 98.706 394.016 99.0469 394.425C99.3878 394.829 99.8338 395.141 100.385 395.363C100.936 395.584 101.547 395.695 102.217 395.695C102.967 395.695 103.632 395.564 104.212 395.303C104.791 395.042 105.246 394.678 105.575 394.212C105.905 393.746 106.07 393.207 106.07 392.593C106.07 391.951 105.911 391.386 105.592 390.897C105.274 390.403 104.808 390.016 104.195 389.738C103.581 389.459 102.831 389.32 101.945 389.32H100.547V387.445H101.945C102.638 387.445 103.246 387.32 103.768 387.07C104.297 386.82 104.709 386.468 105.004 386.013C105.305 385.559 105.456 385.025 105.456 384.411C105.456 383.82 105.325 383.306 105.064 382.868C104.803 382.431 104.433 382.09 103.956 381.846C103.484 381.601 102.928 381.479 102.286 381.479C101.683 381.479 101.115 381.59 100.581 381.812C100.053 382.028 99.6207 382.343 99.2855 382.758C98.9503 383.167 98.7685 383.661 98.7401 384.241H96.6946C96.7287 383.326 97.0043 382.525 97.5213 381.837C98.0384 381.144 98.7145 380.604 99.5497 380.218C100.391 379.832 101.314 379.638 102.32 379.638C103.399 379.638 104.325 379.857 105.098 380.295C105.871 380.726 106.464 381.297 106.879 382.008C107.294 382.718 107.501 383.485 107.501 384.309C107.501 385.292 107.243 386.13 106.726 386.823C106.214 387.516 105.518 387.996 104.638 388.263V388.4C105.74 388.582 106.601 389.05 107.22 389.806C107.839 390.556 108.149 391.485 108.149 392.593C108.149 393.542 107.891 394.394 107.374 395.15C106.862 395.9 106.163 396.491 105.277 396.922C104.391 397.354 103.382 397.57 102.251 397.57Z" fill="#464646"/>
<path d="M347.313 379.638C348.029 379.644 348.745 379.78 349.461 380.047C350.176 380.314 350.83 380.758 351.421 381.377C352.012 381.991 352.486 382.829 352.844 383.891C353.202 384.954 353.381 386.286 353.381 387.888C353.381 389.439 353.233 390.817 352.938 392.022C352.648 393.221 352.228 394.232 351.676 395.056C351.131 395.88 350.466 396.505 349.682 396.931C348.904 397.357 348.023 397.57 347.04 397.57C346.063 397.57 345.191 397.377 344.424 396.991C343.662 396.599 343.037 396.056 342.549 395.363C342.066 394.664 341.756 393.854 341.62 392.934H343.699C343.887 393.735 344.259 394.397 344.816 394.92C345.378 395.437 346.12 395.695 347.04 395.695C348.387 395.695 349.449 395.107 350.228 393.931C351.012 392.755 351.404 391.093 351.404 388.945H351.267C350.949 389.422 350.571 389.834 350.134 390.181C349.696 390.528 349.211 390.795 348.676 390.982C348.142 391.17 347.574 391.263 346.972 391.263C345.972 391.263 345.054 391.016 344.219 390.522C343.39 390.022 342.725 389.337 342.225 388.468C341.73 387.593 341.483 386.593 341.483 385.468C341.483 384.4 341.722 383.422 342.199 382.536C342.682 381.644 343.358 380.934 344.228 380.405C345.103 379.877 346.131 379.621 347.313 379.638ZM347.313 381.513C346.597 381.513 345.952 381.692 345.378 382.05C344.81 382.403 344.358 382.88 344.023 383.482C343.694 384.079 343.529 384.741 343.529 385.468C343.529 386.195 343.688 386.857 344.006 387.454C344.33 388.045 344.77 388.516 345.327 388.868C345.89 389.215 346.529 389.388 347.245 389.388C347.784 389.388 348.287 389.283 348.753 389.073C349.219 388.857 349.625 388.564 349.972 388.195C350.324 387.82 350.6 387.397 350.799 386.925C350.998 386.448 351.097 385.951 351.097 385.434C351.097 384.752 350.932 384.113 350.603 383.516C350.279 382.92 349.83 382.437 349.256 382.067C348.688 381.698 348.04 381.513 347.313 381.513Z" fill="#464646"/>
<path d="M628.439 379.877V397.332H626.326V382.093H626.223L621.962 384.922V382.775L626.326 379.877H628.439ZM639.255 397.57C638.539 397.559 637.823 397.422 637.107 397.161C636.391 396.9 635.738 396.459 635.147 395.84C634.556 395.215 634.081 394.371 633.723 393.309C633.365 392.241 633.186 390.9 633.186 389.286C633.186 387.741 633.331 386.371 633.621 385.178C633.911 383.979 634.331 382.971 634.882 382.153C635.434 381.329 636.098 380.704 636.877 380.278C637.661 379.851 638.544 379.638 639.527 379.638C640.505 379.638 641.374 379.834 642.135 380.226C642.902 380.613 643.527 381.153 644.01 381.846C644.493 382.539 644.806 383.337 644.948 384.241H642.868C642.675 383.457 642.3 382.806 641.743 382.289C641.186 381.772 640.448 381.513 639.527 381.513C638.175 381.513 637.11 382.101 636.331 383.278C635.559 384.454 635.169 386.104 635.164 388.229H635.3C635.618 387.746 635.996 387.334 636.434 386.993C636.877 386.647 637.365 386.38 637.9 386.192C638.434 386.005 638.999 385.911 639.596 385.911C640.596 385.911 641.51 386.161 642.34 386.661C643.169 387.155 643.834 387.84 644.334 388.715C644.834 389.584 645.084 390.582 645.084 391.707C645.084 392.786 644.843 393.775 644.36 394.672C643.877 395.564 643.198 396.275 642.323 396.803C641.453 397.326 640.431 397.582 639.255 397.57ZM639.255 395.695C639.971 395.695 640.613 395.516 641.181 395.158C641.755 394.8 642.206 394.32 642.536 393.718C642.871 393.116 643.039 392.445 643.039 391.707C643.039 390.985 642.877 390.329 642.553 389.738C642.235 389.141 641.794 388.667 641.232 388.314C640.675 387.962 640.039 387.786 639.323 387.786C638.783 387.786 638.28 387.894 637.814 388.11C637.348 388.32 636.939 388.61 636.587 388.979C636.24 389.349 635.968 389.772 635.769 390.249C635.57 390.721 635.471 391.218 635.471 391.741C635.471 392.434 635.632 393.082 635.956 393.684C636.286 394.286 636.735 394.772 637.303 395.141C637.877 395.511 638.527 395.695 639.255 395.695Z" fill="#464646"/>
<path d="M136.761 393.752V392.013L144.431 379.877H145.693V382.57H144.841L139.045 391.741V391.877H149.375V393.752H136.761ZM144.977 397.332V393.224V392.414V379.877H146.988V397.332H144.977Z" fill="#464646"/>
<path d="M383.178 379.877V397.332H381.064V382.093H380.962L376.7 384.922V382.775L381.064 379.877H383.178ZM393.891 397.57C392.607 397.57 391.513 397.221 390.609 396.522C389.706 395.817 389.016 394.797 388.538 393.462C388.061 392.121 387.822 390.502 387.822 388.604C387.822 386.718 388.061 385.107 388.538 383.772C389.021 382.431 389.714 381.408 390.618 380.704C391.527 379.993 392.618 379.638 393.891 379.638C395.163 379.638 396.251 379.993 397.155 380.704C398.064 381.408 398.757 382.431 399.234 383.772C399.717 385.107 399.959 386.718 399.959 388.604C399.959 390.502 399.72 392.121 399.243 393.462C398.766 394.797 398.075 395.817 397.172 396.522C396.268 397.221 395.175 397.57 393.891 397.57ZM393.891 395.695C395.163 395.695 396.152 395.082 396.857 393.854C397.561 392.627 397.913 390.877 397.913 388.604C397.913 387.093 397.751 385.806 397.428 384.743C397.109 383.681 396.649 382.871 396.047 382.314C395.45 381.758 394.732 381.479 393.891 381.479C392.629 381.479 391.643 382.101 390.933 383.346C390.223 384.584 389.868 386.337 389.868 388.604C389.868 390.116 390.027 391.4 390.345 392.457C390.663 393.513 391.121 394.317 391.717 394.868C392.32 395.42 393.044 395.695 393.891 395.695Z" fill="#464646"/>
<path d="M669.947 379.877V397.332H667.833V382.093H667.731L663.47 384.922V382.775L667.833 379.877H669.947ZM675.512 397.332L683.319 381.888V381.752H674.319V379.877H685.501V381.854L677.728 397.332H675.512Z" fill="#464646"/>
<path d="M866.088 397.332V395.797L871.849 389.491C872.526 388.752 873.082 388.11 873.52 387.564C873.957 387.013 874.281 386.496 874.491 386.013C874.707 385.525 874.815 385.013 874.815 384.479C874.815 383.866 874.668 383.334 874.372 382.886C874.082 382.437 873.685 382.09 873.179 381.846C872.673 381.601 872.105 381.479 871.474 381.479C870.804 381.479 870.219 381.618 869.719 381.897C869.224 382.17 868.841 382.553 868.568 383.047C868.301 383.542 868.168 384.121 868.168 384.786H866.156C866.156 383.763 866.392 382.866 866.864 382.093C867.335 381.32 867.977 380.718 868.79 380.286C869.608 379.854 870.526 379.638 871.543 379.638C872.565 379.638 873.472 379.854 874.261 380.286C875.051 380.718 875.67 381.3 876.119 382.033C876.568 382.766 876.793 383.582 876.793 384.479C876.793 385.121 876.676 385.749 876.443 386.363C876.216 386.971 875.818 387.65 875.25 388.4C874.687 389.144 873.906 390.053 872.906 391.127L868.986 395.32V395.457H877.099V397.332H866.088ZM880.619 397.332V395.797L886.381 389.491C887.057 388.752 887.614 388.11 888.051 387.564C888.489 387.013 888.812 386.496 889.023 386.013C889.239 385.525 889.347 385.013 889.347 384.479C889.347 383.866 889.199 383.334 888.903 382.886C888.614 382.437 888.216 382.09 887.71 381.846C887.205 381.601 886.636 381.479 886.006 381.479C885.335 381.479 884.75 381.618 884.25 381.897C883.756 382.17 883.372 382.553 883.099 383.047C882.832 383.542 882.699 384.121 882.699 384.786H880.687C880.687 383.763 880.923 382.866 881.395 382.093C881.866 381.32 882.509 380.718 883.321 380.286C884.139 379.854 885.057 379.638 886.074 379.638C887.097 379.638 888.003 379.854 888.793 380.286C889.582 380.718 890.202 381.3 890.651 382.033C891.099 382.766 891.324 383.582 891.324 384.479C891.324 385.121 891.207 385.749 890.974 386.363C890.747 386.971 890.349 387.65 889.781 388.4C889.219 389.144 888.437 390.053 887.437 391.127L883.517 395.32V395.457H891.631V397.332H880.619Z" fill="#464646"/>
<path d="M906.588 397.332V395.797L912.349 389.491C913.026 388.752 913.582 388.11 914.02 387.564C914.457 387.013 914.781 386.496 914.991 386.013C915.207 385.525 915.315 385.013 915.315 384.479C915.315 383.866 915.168 383.334 914.872 382.886C914.582 382.437 914.185 382.09 913.679 381.846C913.173 381.601 912.605 381.479 911.974 381.479C911.304 381.479 910.719 381.618 910.219 381.897C909.724 382.17 909.341 382.553 909.068 383.047C908.801 383.542 908.668 384.121 908.668 384.786H906.656C906.656 383.763 906.892 382.866 907.364 382.093C907.835 381.32 908.477 380.718 909.29 380.286C910.108 379.854 911.026 379.638 912.043 379.638C913.065 379.638 913.972 379.854 914.761 380.286C915.551 380.718 916.17 381.3 916.619 382.033C917.068 382.766 917.293 383.582 917.293 384.479C917.293 385.121 917.176 385.749 916.943 386.363C916.716 386.971 916.318 387.65 915.75 388.4C915.187 389.144 914.406 390.053 913.406 391.127L909.486 395.32V395.457H917.599V397.332H906.588ZM927.017 397.57C925.892 397.57 924.889 397.377 924.009 396.991C923.134 396.604 922.437 396.067 921.92 395.38C921.409 394.687 921.131 393.883 921.085 392.968H923.233C923.278 393.53 923.472 394.016 923.812 394.425C924.153 394.829 924.599 395.141 925.151 395.363C925.702 395.584 926.312 395.695 926.983 395.695C927.733 395.695 928.398 395.564 928.977 395.303C929.557 395.042 930.011 394.678 930.341 394.212C930.67 393.746 930.835 393.207 930.835 392.593C930.835 391.951 930.676 391.386 930.358 390.897C930.04 390.403 929.574 390.016 928.96 389.738C928.347 389.459 927.597 389.32 926.71 389.32H925.312V387.445H926.71C927.403 387.445 928.011 387.32 928.534 387.07C929.062 386.82 929.474 386.468 929.77 386.013C930.071 385.559 930.222 385.025 930.222 384.411C930.222 383.82 930.091 383.306 929.83 382.868C929.568 382.431 929.199 382.09 928.722 381.846C928.25 381.601 927.693 381.479 927.051 381.479C926.449 381.479 925.881 381.59 925.347 381.812C924.818 382.028 924.386 382.343 924.051 382.758C923.716 383.167 923.534 383.661 923.506 384.241H921.46C921.494 383.326 921.77 382.525 922.287 381.837C922.804 381.144 923.48 380.604 924.315 380.218C925.156 379.832 926.08 379.638 927.085 379.638C928.165 379.638 929.091 379.857 929.864 380.295C930.636 380.726 931.23 381.297 931.645 382.008C932.06 382.718 932.267 383.485 932.267 384.309C932.267 385.292 932.009 386.13 931.491 386.823C930.98 387.516 930.284 387.996 929.403 388.263V388.4C930.506 388.582 931.366 389.05 931.986 389.806C932.605 390.556 932.915 391.485 932.915 392.593C932.915 393.542 932.656 394.394 932.139 395.15C931.628 395.9 930.929 396.491 930.043 396.922C929.156 397.354 928.148 397.57 927.017 397.57Z" fill="#464646"/>
<path d="M183.898 397.57C182.898 397.57 181.998 397.371 181.196 396.974C180.395 396.576 179.753 396.03 179.27 395.337C178.787 394.644 178.523 393.854 178.478 392.968H180.523C180.603 393.758 180.961 394.411 181.597 394.928C182.239 395.439 183.006 395.695 183.898 395.695C184.614 395.695 185.25 395.528 185.807 395.192C186.37 394.857 186.81 394.397 187.128 393.812C187.452 393.221 187.614 392.553 187.614 391.809C187.614 391.047 187.446 390.368 187.111 389.772C186.782 389.17 186.327 388.695 185.748 388.349C185.168 388.002 184.506 387.826 183.762 387.82C183.228 387.814 182.679 387.897 182.117 388.067C181.554 388.232 181.091 388.445 180.728 388.707L178.75 388.468L179.807 379.877H188.875V381.752H181.58L180.966 386.9H181.069C181.426 386.616 181.875 386.38 182.415 386.192C182.955 386.005 183.517 385.911 184.103 385.911C185.171 385.911 186.123 386.167 186.958 386.678C187.799 387.184 188.458 387.877 188.935 388.758C189.418 389.638 189.659 390.644 189.659 391.775C189.659 392.888 189.409 393.883 188.909 394.758C188.415 395.627 187.733 396.314 186.864 396.82C185.995 397.32 185.006 397.57 183.898 397.57Z" fill="#464646"/>
<path d="M425.974 379.877V397.332H423.861V382.093H423.759L419.497 384.922V382.775L423.861 379.877H425.974ZM437.131 379.877V397.332H435.017V382.093H434.915L430.653 384.922V382.775L435.017 379.877H437.131Z" fill="#464646"/>
<path d="M710.283 379.877V397.332H708.169V382.093H708.067L703.806 384.922V382.775L708.169 379.877H710.283ZM720.894 397.57C719.723 397.57 718.689 397.363 717.792 396.948C716.9 396.528 716.203 395.951 715.703 395.218C715.203 394.479 714.956 393.638 714.962 392.695C714.956 391.957 715.101 391.275 715.397 390.65C715.692 390.019 716.096 389.493 716.607 389.073C717.124 388.647 717.701 388.377 718.337 388.263V388.161C717.502 387.945 716.837 387.476 716.343 386.755C715.848 386.028 715.604 385.201 715.61 384.275C715.604 383.388 715.828 382.596 716.283 381.897C716.738 381.198 717.363 380.647 718.158 380.243C718.959 379.84 719.871 379.638 720.894 379.638C721.905 379.638 722.809 379.84 723.604 380.243C724.4 380.647 725.025 381.198 725.479 381.897C725.939 382.596 726.172 383.388 726.178 384.275C726.172 385.201 725.919 386.028 725.419 386.755C724.925 387.476 724.269 387.945 723.451 388.161V388.263C724.081 388.377 724.65 388.647 725.155 389.073C725.661 389.493 726.064 390.019 726.365 390.65C726.667 391.275 726.82 391.957 726.826 392.695C726.82 393.638 726.564 394.479 726.059 395.218C725.559 395.951 724.863 396.528 723.971 396.948C723.084 397.363 722.059 397.57 720.894 397.57ZM720.894 395.695C721.684 395.695 722.365 395.567 722.939 395.312C723.513 395.056 723.956 394.695 724.269 394.229C724.581 393.763 724.74 393.218 724.746 392.593C724.74 391.934 724.57 391.351 724.235 390.846C723.9 390.34 723.442 389.942 722.863 389.653C722.289 389.363 721.632 389.218 720.894 389.218C720.15 389.218 719.485 389.363 718.9 389.653C718.32 389.942 717.863 390.34 717.527 390.846C717.198 391.351 717.036 391.934 717.042 392.593C717.036 393.218 717.186 393.763 717.493 394.229C717.806 394.695 718.252 395.056 718.831 395.312C719.411 395.567 720.098 395.695 720.894 395.695ZM720.894 387.411C721.519 387.411 722.073 387.286 722.556 387.036C723.044 386.786 723.428 386.437 723.706 385.988C723.985 385.539 724.127 385.013 724.132 384.411C724.127 383.82 723.988 383.306 723.715 382.868C723.442 382.425 723.064 382.084 722.581 381.846C722.098 381.601 721.536 381.479 720.894 381.479C720.24 381.479 719.669 381.601 719.181 381.846C718.692 382.084 718.314 382.425 718.047 382.868C717.78 383.306 717.65 383.82 717.655 384.411C717.65 385.013 717.783 385.539 718.056 385.988C718.334 386.437 718.718 386.786 719.206 387.036C719.695 387.286 720.257 387.411 720.894 387.411Z" fill="#464646"/>
<path d="M224.926 397.57C224.211 397.559 223.495 397.422 222.779 397.161C222.063 396.9 221.409 396.459 220.819 395.84C220.228 395.215 219.753 394.371 219.395 393.309C219.037 392.241 218.858 390.9 218.858 389.286C218.858 387.741 219.003 386.371 219.293 385.178C219.583 383.979 220.003 382.971 220.554 382.153C221.105 381.329 221.77 380.704 222.549 380.278C223.333 379.851 224.216 379.638 225.199 379.638C226.176 379.638 227.046 379.834 227.807 380.226C228.574 380.613 229.199 381.153 229.682 381.846C230.165 382.539 230.478 383.337 230.62 384.241H228.54C228.347 383.457 227.972 382.806 227.415 382.289C226.858 381.772 226.12 381.513 225.199 381.513C223.847 381.513 222.782 382.101 222.003 383.278C221.23 384.454 220.841 386.104 220.836 388.229H220.972C221.29 387.746 221.668 387.334 222.105 386.993C222.549 386.647 223.037 386.38 223.571 386.192C224.105 386.005 224.671 385.911 225.267 385.911C226.267 385.911 227.182 386.161 228.012 386.661C228.841 387.155 229.506 387.84 230.006 388.715C230.506 389.584 230.756 390.582 230.756 391.707C230.756 392.786 230.515 393.775 230.032 394.672C229.549 395.564 228.87 396.275 227.995 396.803C227.125 397.326 226.103 397.582 224.926 397.57ZM224.926 395.695C225.642 395.695 226.284 395.516 226.853 395.158C227.426 394.8 227.878 394.32 228.208 393.718C228.543 393.116 228.711 392.445 228.711 391.707C228.711 390.985 228.549 390.329 228.225 389.738C227.907 389.141 227.466 388.667 226.904 388.314C226.347 387.962 225.711 387.786 224.995 387.786C224.455 387.786 223.952 387.894 223.486 388.11C223.02 388.32 222.611 388.61 222.259 388.979C221.912 389.349 221.64 389.772 221.441 390.249C221.242 390.721 221.142 391.218 221.142 391.741C221.142 392.434 221.304 393.082 221.628 393.684C221.958 394.286 222.407 394.772 222.975 395.141C223.549 395.511 224.199 395.695 224.926 395.695Z" fill="#464646"/>
<path d="M505.662 379.877V397.332H503.548V382.093H503.446L499.185 384.922V382.775L503.548 379.877H505.662ZM516.58 397.57C515.455 397.57 514.452 397.377 513.571 396.991C512.696 396.604 512 396.067 511.483 395.38C510.972 394.687 510.693 393.883 510.648 392.968H512.795C512.841 393.53 513.034 394.016 513.375 394.425C513.716 394.829 514.162 395.141 514.713 395.363C515.264 395.584 515.875 395.695 516.545 395.695C517.295 395.695 517.96 395.564 518.54 395.303C519.119 395.042 519.574 394.678 519.903 394.212C520.233 393.746 520.398 393.207 520.398 392.593C520.398 391.951 520.239 391.386 519.92 390.897C519.602 390.403 519.136 390.016 518.523 389.738C517.909 389.459 517.159 389.32 516.273 389.32H514.875V387.445H516.273C516.966 387.445 517.574 387.32 518.097 387.07C518.625 386.82 519.037 386.468 519.332 386.013C519.634 385.559 519.784 385.025 519.784 384.411C519.784 383.82 519.653 383.306 519.392 382.868C519.131 382.431 518.761 382.09 518.284 381.846C517.812 381.601 517.256 381.479 516.614 381.479C516.011 381.479 515.443 381.59 514.909 381.812C514.381 382.028 513.949 382.343 513.614 382.758C513.278 383.167 513.097 383.661 513.068 384.241H511.023C511.057 383.326 511.332 382.525 511.849 381.837C512.366 381.144 513.043 380.604 513.878 380.218C514.719 379.832 515.642 379.638 516.648 379.638C517.727 379.638 518.653 379.857 519.426 380.295C520.199 380.726 520.793 381.297 521.207 382.008C521.622 382.718 521.83 383.485 521.83 384.309C521.83 385.292 521.571 386.13 521.054 386.823C520.543 387.516 519.847 387.996 518.966 388.263V388.4C520.068 388.582 520.929 389.05 521.548 389.806C522.168 390.556 522.477 391.485 522.477 392.593C522.477 393.542 522.219 394.394 521.702 395.15C521.19 395.9 520.491 396.491 519.605 396.922C518.719 397.354 517.71 397.57 516.58 397.57Z" fill="#464646"/>
<path d="M261.184 397.332L268.991 381.888V381.752H259.991V379.877H271.173V381.854L263.4 397.332H261.184Z" fill="#464646"/>
<path d="M546.478 379.877V397.332H544.365V382.093H544.262L540.001 384.922V382.775L544.365 379.877H546.478ZM551.089 393.752V392.013L558.76 379.877H560.021V382.57H559.169L553.373 391.741V391.877H563.703V393.752H551.089ZM559.305 397.332V393.224V392.414V379.877H561.316V397.332H559.305Z" fill="#464646"/>
<path d="M465.162 379.877V397.332H463.048V382.093H462.946L458.685 384.922V382.775L463.048 379.877H465.162ZM470.182 397.332V395.797L475.943 389.491C476.619 388.752 477.176 388.11 477.614 387.564C478.051 387.013 478.375 386.496 478.585 386.013C478.801 385.525 478.909 385.013 478.909 384.479C478.909 383.866 478.761 383.334 478.466 382.886C478.176 382.437 477.778 382.09 477.273 381.846C476.767 381.601 476.199 381.479 475.568 381.479C474.898 381.479 474.312 381.618 473.812 381.897C473.318 382.17 472.935 382.553 472.662 383.047C472.395 383.542 472.261 384.121 472.261 384.786H470.25C470.25 383.763 470.486 382.866 470.957 382.093C471.429 381.32 472.071 380.718 472.884 380.286C473.702 379.854 474.619 379.638 475.636 379.638C476.659 379.638 477.565 379.854 478.355 380.286C479.145 380.718 479.764 381.3 480.213 382.033C480.662 382.766 480.886 383.582 480.886 384.479C480.886 385.121 480.77 385.749 480.537 386.363C480.31 386.971 479.912 387.65 479.344 388.4C478.781 389.144 478 390.053 477 391.127L473.08 395.32V395.457H481.193V397.332H470.182Z" fill="#464646"/>
<path d="M751.064 379.877V397.332H748.951V382.093H748.848L744.587 384.922V382.775L748.951 379.877H751.064ZM761.641 379.638C762.357 379.644 763.073 379.78 763.789 380.047C764.505 380.314 765.158 380.758 765.749 381.377C766.34 381.991 766.814 382.829 767.172 383.891C767.53 384.954 767.709 386.286 767.709 387.888C767.709 389.439 767.561 390.817 767.266 392.022C766.976 393.221 766.556 394.232 766.005 395.056C765.459 395.88 764.794 396.505 764.01 396.931C763.232 397.357 762.351 397.57 761.368 397.57C760.391 397.57 759.519 397.377 758.752 396.991C757.99 396.599 757.365 396.056 756.877 395.363C756.394 394.664 756.084 393.854 755.948 392.934H758.027C758.215 393.735 758.587 394.397 759.144 394.92C759.706 395.437 760.448 395.695 761.368 395.695C762.715 395.695 763.777 395.107 764.556 393.931C765.34 392.755 765.732 391.093 765.732 388.945H765.596C765.277 389.422 764.9 389.834 764.462 390.181C764.025 390.528 763.539 390.795 763.005 390.982C762.471 391.17 761.902 391.263 761.3 391.263C760.3 391.263 759.382 391.016 758.547 390.522C757.718 390.022 757.053 389.337 756.553 388.468C756.059 387.593 755.811 386.593 755.811 385.468C755.811 384.4 756.05 383.422 756.527 382.536C757.01 381.644 757.686 380.934 758.556 380.405C759.431 379.877 760.459 379.621 761.641 379.638ZM761.641 381.513C760.925 381.513 760.28 381.692 759.706 382.05C759.138 382.403 758.686 382.88 758.351 383.482C758.022 384.079 757.857 384.741 757.857 385.468C757.857 386.195 758.016 386.857 758.334 387.454C758.658 388.045 759.098 388.516 759.655 388.868C760.218 389.215 760.857 389.388 761.573 389.388C762.113 389.388 762.615 389.283 763.081 389.073C763.547 388.857 763.953 388.564 764.3 388.195C764.652 387.82 764.928 387.397 765.127 386.925C765.326 386.448 765.425 385.951 765.425 385.434C765.425 384.752 765.26 384.113 764.931 383.516C764.607 382.92 764.158 382.437 763.584 382.067C763.016 381.698 762.368 381.513 761.641 381.513Z" fill="#464646"/>
<path d="M947.592 397.332V395.797L953.353 389.491C954.029 388.752 954.586 388.11 955.024 387.564C955.461 387.013 955.785 386.496 955.995 386.013C956.211 385.525 956.319 385.013 956.319 384.479C956.319 383.866 956.172 383.334 955.876 382.886C955.586 382.437 955.189 382.09 954.683 381.846C954.177 381.601 953.609 381.479 952.978 381.479C952.308 381.479 951.723 381.618 951.223 381.897C950.728 382.17 950.345 382.553 950.072 383.047C949.805 383.542 949.672 384.121 949.672 384.786H947.66C947.66 383.763 947.896 382.866 948.368 382.093C948.839 381.32 949.481 380.718 950.294 380.286C951.112 379.854 952.029 379.638 953.047 379.638C954.069 379.638 954.975 379.854 955.765 380.286C956.555 380.718 957.174 381.3 957.623 382.033C958.072 382.766 958.297 383.582 958.297 384.479C958.297 385.121 958.18 385.749 957.947 386.363C957.72 386.971 957.322 387.65 956.754 388.4C956.191 389.144 955.41 390.053 954.41 391.127L950.49 395.32V395.457H958.603V397.332H947.592ZM961.339 393.752V392.013L969.01 379.877H970.271V382.57H969.419L963.623 391.741V391.877H973.953V393.752H961.339ZM969.555 397.332V393.224V392.414V379.877H971.566V397.332H969.555Z" fill="#464646"/>
<g filter="url(#filter0_d_2299_1804)">
<path d="M123.058 274.461L136.116 260L123.058 266.674L108.55 280.765L123.058 274.461Z" fill="#EBC99C"/>
</g>
<g filter="url(#filter1_d_2299_1804)">
<path d="M246.38 274.461L233.323 260L246.38 266.674L260.889 280.765L246.38 274.461Z" fill="#EBC99C"/>
</g>
<rect x="123.059" y="273.349" width="124.047" height="91.2151" fill="#E6A352"/>
<rect x="136.115" y="260" width="97.2064" height="13.3486" fill="#BC8239"/>
<path d="M123.059 273.349L136.116 260V273.349H123.059Z" fill="#936122"/>
<path d="M247.051 273.349H123.112L112.177 288.922H257.986L247.051 273.349Z" fill="#ECC290"/>
<path d="M246.38 273.349L233.322 260V273.349H246.38Z" fill="#AE752E"/>
<g filter="url(#filter2_d_2299_1804)">
<path d="M735.591 274.461L748.649 260L735.591 266.674L721.083 280.765L735.591 274.461Z" fill="#EBC99C"/>
</g>
<g filter="url(#filter3_d_2299_1804)">
<path d="M858.913 274.461L845.856 260L858.913 266.674L873.422 280.765L858.913 274.461Z" fill="#EBC99C"/>
</g>
<rect x="735.592" y="273.349" width="124.047" height="91.2151" fill="#E6A352"/>
<rect x="748.648" y="260" width="97.2064" height="13.3486" fill="#BC8239"/>
<path d="M735.592 273.349L748.649 260V273.349H735.592Z" fill="#936122"/>
<path d="M859.584 273.349H735.646L724.71 288.922H870.52L859.584 273.349Z" fill="#ECC290"/>
<path d="M858.913 273.349L845.855 260V273.349H858.913Z" fill="#AE752E"/>
<defs>
<filter id="filter0_d_2299_1804" x="104.55" y="260" width="35.5664" height="28.7644" filterUnits="userSpaceOnUse" color-interpolation-filters="sRGB">
<feFlood flood-opacity="0" result="BackgroundImageFix"/>
<feColorMatrix in="SourceAlpha" type="matrix" values="0 0 0 0 0 0 0 0 0 0 0 0 0 0 0 0 0 0 127 0" result="hardAlpha"/>
<feOffset dy="4"/>
<feGaussianBlur stdDeviation="2"/>
<feComposite in2="hardAlpha" operator="out"/>
<feColorMatrix type="matrix" values="0 0 0 0 0 0 0 0 0 0 0 0 0 0 0 0 0 0 0.1 0"/>
<feBlend mode="normal" in2="BackgroundImageFix" result="effect1_dropShadow_2299_1804"/>
<feBlend mode="normal" in="SourceGraphic" in2="effect1_dropShadow_2299_1804" result="shape"/>
</filter>
<filter id="filter1_d_2299_1804" x="229.322" y="260" width="35.5664" height="28.7644" filterUnits="userSpaceOnUse" color-interpolation-filters="sRGB">
<feFlood flood-opacity="0" result="BackgroundImageFix"/>
<feColorMatrix in="SourceAlpha" type="matrix" values="0 0 0 0 0 0 0 0 0 0 0 0 0 0 0 0 0 0 127 0" result="hardAlpha"/>
<feOffset dy="4"/>
<feGaussianBlur stdDeviation="2"/>
<feComposite in2="hardAlpha" operator="out"/>
<feColorMatrix type="matrix" values="0 0 0 0 0 0 0 0 0 0 0 0 0 0 0 0 0 0 0.1 0"/>
<feBlend mode="normal" in2="BackgroundImageFix" result="effect1_dropShadow_2299_1804"/>
<feBlend mode="normal" in="SourceGraphic" in2="effect1_dropShadow_2299_1804" result="shape"/>
</filter>
<filter id="filter2_d_2299_1804" x="717.083" y="260" width="35.5664" height="28.7644" filterUnits="userSpaceOnUse" color-interpolation-filters="sRGB">
<feFlood flood-opacity="0" result="BackgroundImageFix"/>
<feColorMatrix in="SourceAlpha" type="matrix" values="0 0 0 0 0 0 0 0 0 0 0 0 0 0 0 0 0 0 127 0" result="hardAlpha"/>
<feOffset dy="4"/>
<feGaussianBlur stdDeviation="2"/>
<feComposite in2="hardAlpha" operator="out"/>
<feColorMatrix type="matrix" values="0 0 0 0 0 0 0 0 0 0 0 0 0 0 0 0 0 0 0.1 0"/>
<feBlend mode="normal" in2="BackgroundImageFix" result="effect1_dropShadow_2299_1804"/>
<feBlend mode="normal" in="SourceGraphic" in2="effect1_dropShadow_2299_1804" result="shape"/>
</filter>
<filter id="filter3_d_2299_1804" x="841.855" y="260" width="35.5664" height="28.7644" filterUnits="userSpaceOnUse" color-interpolation-filters="sRGB">
<feFlood flood-opacity="0" result="BackgroundImageFix"/>
<feColorMatrix in="SourceAlpha" type="matrix" values="0 0 0 0 0 0 0 0 0 0 0 0 0 0 0 0 0 0 127 0" result="hardAlpha"/>
<feOffset dy="4"/>
<feGaussianBlur stdDeviation="2"/>
<feComposite in2="hardAlpha" operator="out"/>
<feColorMatrix type="matrix" values="0 0 0 0 0 0 0 0 0 0 0 0 0 0 0 0 0 0 0.1 0"/>
<feBlend mode="normal" in2="BackgroundImageFix" result="effect1_dropShadow_2299_1804"/>
<feBlend mode="normal" in="SourceGraphic" in2="effect1_dropShadow_2299_1804" result="shape"/>
</filter>
</defs>
</svg>
