<svg width="1200" height="229" viewBox="0 0 1200 229" fill="none" xmlns="http://www.w3.org/2000/svg">
<rect x="249.367" y="122.786" width="149.082" height="55.2772" fill="#E6A352"/>
<path d="M261.874 110.833H386.443L398.45 122.785H249.367L261.874 110.833Z" fill="#E6A352" fill-opacity="0.7"/>
<path d="M318.406 110.833H329.912L330.913 122.785H317.405L318.406 110.833Z" fill="#C4C4C4" fill-opacity="0.7"/>
<rect x="317.405" y="122.786" width="13.5075" height="12.4498" fill="#C4C4C4"/>
<rect x="498.75" y="103.647" width="99.75" height="74.4144" fill="#E6A352"/>
<path d="M507.118 87.558H590.466L598.5 103.648H498.75L507.118 87.558Z" fill="#E6A352" fill-opacity="0.7"/>
<path d="M544.943 87.5577H552.641L553.311 103.647H544.273L544.943 87.5577Z" fill="#C4C4C4" fill-opacity="0.7"/>
<rect x="544.273" y="103.647" width="9.03775" height="16.76" fill="#C4C4C4"/>
<rect x="698.25" y="31.6555" width="99.75" height="146.407" fill="#E6A352"/>
<path d="M706.618 0H789.966L798 31.6555H698.25L706.618 0Z" fill="#E6A352" fill-opacity="0.7"/>
<path d="M744.443 0.000244141H752.142L752.811 31.6558H743.774L744.443 0.000244141Z" fill="#C4C4C4" fill-opacity="0.7"/>
<rect x="743.774" y="31.6555" width="9.03775" height="32.9745" fill="#C4C4C4"/>
<rect x="847.875" y="60.8174" width="99.75" height="117.245" fill="#E6A352"/>
<path d="M856.243 35.4668H939.591L947.625 60.8171H847.875L856.243 35.4668Z" fill="#E6A352" fill-opacity="0.7"/>
<path d="M894.068 35.4669H901.767L902.436 60.8173H893.398L894.068 35.4669Z" fill="#C4C4C4" fill-opacity="0.7"/>
<rect x="893.398" y="60.8174" width="9.03775" height="26.4066" fill="#C4C4C4"/>
<rect x="1047.38" y="122.785" width="99.75" height="55.2772" fill="#E6A352"/>
<path d="M1055.74 110.833H1139.09L1147.13 122.785H1047.38L1055.74 110.833Z" fill="#E6A352" fill-opacity="0.7"/>
<path d="M1093.57 110.833H1101.27L1101.94 122.785H1092.9L1093.57 110.833Z" fill="#C4C4C4" fill-opacity="0.7"/>
<rect x="1092.9" y="122.785" width="9.03775" height="12.4498" fill="#C4C4C4"/>
<rect y="178.444" width="835.985" height="34.8327" fill="#C4C4C4"/>
<rect x="0.5" y="178.942" width="48.875" height="48.875" fill="#C4C4C4" stroke="#464646"/>
<rect x="299.75" y="178.942" width="48.875" height="48.875" fill="#C4C4C4" stroke="#464646"/>
<rect x="50.3752" y="178.942" width="48.875" height="48.875" fill="#C4C4C4" stroke="#464646"/>
<rect x="100.25" y="178.942" width="48.875" height="48.875" fill="#C4C4C4" stroke="#464646"/>
<rect x="150.125" y="178.942" width="48.875" height="48.875" fill="#C4C4C4" stroke="#464646"/>
<rect x="200" y="178.942" width="48.875" height="48.875" fill="#C4C4C4" stroke="#464646"/>
<rect x="249.875" y="178.942" width="48.875" height="48.875" fill="#C4C4C4" stroke="#464646"/>
<rect x="349.625" y="178.942" width="48.875" height="48.875" fill="#C4C4C4" stroke="#464646"/>
<rect x="399.5" y="178.942" width="48.875" height="48.875" fill="#C4C4C4" stroke="#464646"/>
<rect x="449.375" y="178.942" width="48.875" height="48.875" fill="#C4C4C4" stroke="#464646"/>
<rect x="499.25" y="178.942" width="48.875" height="48.875" fill="#C4C4C4" stroke="#464646"/>
<path d="M549.125 178.942H598V227.817H549.125V178.942Z" fill="#C4C4C4" stroke="#464646"/>
<rect x="599" y="178.942" width="48.875" height="48.875" fill="#C4C4C4" stroke="#464646"/>
<rect x="648.875" y="178.942" width="48.875" height="48.875" fill="#C4C4C4" stroke="#464646"/>
<rect x="698.75" y="178.942" width="48.875" height="48.875" fill="#C4C4C4" stroke="#464646"/>
<rect x="748.625" y="178.942" width="48.875" height="48.875" fill="#C4C4C4" stroke="#464646"/>
<rect x="997.999" y="178.942" width="48.875" height="48.875" fill="#C4C4C4" stroke="#464646"/>
<rect x="798.5" y="178.942" width="48.875" height="48.875" fill="#C4C4C4" stroke="#464646"/>
<rect x="848.375" y="178.942" width="48.875" height="48.875" fill="#C4C4C4" stroke="#464646"/>
<rect x="1097.75" y="178.942" width="48.875" height="48.875" fill="#C4C4C4" stroke="#464646"/>
<rect x="898.25" y="178.942" width="48.875" height="48.875" fill="#C4C4C4" stroke="#464646"/>
<rect x="948.125" y="178.942" width="48.875" height="48.875" fill="#C4C4C4" stroke="#464646"/>
<rect x="1047.87" y="178.942" width="48.875" height="48.875" fill="#C4C4C4" stroke="#464646"/>
<rect x="1147.62" y="178.942" width="48.875" height="48.875" fill="#C4C4C4" stroke="#464646"/>
<path d="M26.9084 190.142V204.687H25.147V191.988H25.0618L21.5107 194.346V192.556L25.147 190.142H26.9084Z" fill="#464646"/>
<path d="M70.2637 204.687V203.409L75.0649 198.153C75.6283 197.538 76.0923 197.002 76.4569 196.548C76.8215 196.089 77.0914 195.658 77.2666 195.255C77.4465 194.848 77.5365 194.422 77.5365 193.977C77.5365 193.466 77.4134 193.023 77.1671 192.649C76.9257 192.275 76.5942 191.986 76.1728 191.782C75.7514 191.579 75.2779 191.477 74.7524 191.477C74.1937 191.477 73.706 191.593 73.2893 191.825C72.8774 192.052 72.5578 192.372 72.3305 192.784C72.108 193.196 71.9967 193.679 71.9967 194.233H70.3206C70.3206 193.38 70.5171 192.632 70.91 191.988C71.303 191.344 71.8381 190.842 72.5152 190.483C73.197 190.123 73.9617 189.943 74.8092 189.943C75.6615 189.943 76.4167 190.123 77.0748 190.483C77.733 190.842 78.2491 191.328 78.6231 191.939C78.9972 192.549 79.1842 193.229 79.1842 193.977C79.1842 194.512 79.0871 195.035 78.893 195.547C78.7036 196.053 78.3722 196.619 77.8987 197.244C77.4299 197.864 76.7789 198.622 75.9456 199.517L72.6785 203.011V203.125H79.4399V204.687H70.2637Z" fill="#464646"/>
<path d="M374.066 204.886C373.09 204.886 372.229 204.713 371.48 204.368C370.737 204.017 370.157 203.537 369.74 202.926C369.324 202.31 369.118 201.609 369.122 200.823C369.118 200.208 369.238 199.64 369.485 199.119C369.731 198.593 370.067 198.155 370.493 197.805C370.924 197.45 371.405 197.225 371.935 197.13V197.045C371.239 196.865 370.685 196.475 370.273 195.873C369.861 195.267 369.658 194.578 369.662 193.806C369.658 193.068 369.845 192.407 370.223 191.825C370.602 191.243 371.123 190.783 371.786 190.447C372.453 190.111 373.213 189.943 374.066 189.943C374.908 189.943 375.661 190.111 376.324 190.447C376.987 190.783 377.508 191.243 377.887 191.825C378.27 192.407 378.464 193.068 378.469 193.806C378.464 194.578 378.254 195.267 377.837 195.873C377.425 196.475 376.878 196.865 376.196 197.045V197.13C376.722 197.225 377.195 197.45 377.617 197.805C378.038 198.155 378.374 198.593 378.625 199.119C378.876 199.64 379.004 200.208 379.009 200.823C379.004 201.609 378.791 202.31 378.37 202.926C377.953 203.537 377.373 204.017 376.63 204.368C375.891 204.713 375.036 204.886 374.066 204.886ZM374.066 203.323C374.724 203.323 375.292 203.217 375.77 203.004C376.248 202.791 376.618 202.49 376.878 202.102C377.139 201.714 377.271 201.259 377.276 200.738C377.271 200.189 377.129 199.704 376.85 199.282C376.57 198.861 376.189 198.529 375.706 198.288C375.228 198.047 374.681 197.926 374.066 197.926C373.445 197.926 372.891 198.047 372.404 198.288C371.921 198.529 371.54 198.861 371.26 199.282C370.986 199.704 370.851 200.189 370.855 200.738C370.851 201.259 370.976 201.714 371.232 202.102C371.492 202.49 371.864 202.791 372.347 203.004C372.83 203.217 373.403 203.323 374.066 203.323ZM374.066 196.42C374.586 196.42 375.048 196.316 375.451 196.108C375.858 195.899 376.177 195.608 376.409 195.234C376.641 194.86 376.76 194.422 376.765 193.92C376.76 193.428 376.644 192.999 376.417 192.635C376.189 192.265 375.874 191.981 375.472 191.782C375.069 191.579 374.601 191.477 374.066 191.477C373.521 191.477 373.045 191.579 372.638 191.782C372.231 191.981 371.916 192.265 371.693 192.635C371.471 192.999 371.362 193.428 371.367 193.92C371.362 194.422 371.473 194.86 371.701 195.234C371.933 195.608 372.252 195.899 372.659 196.108C373.067 196.316 373.535 196.42 374.066 196.42Z" fill="#464646"/>
<path d="M719.074 190.142V204.687H717.313V191.988H717.227L713.676 194.346V192.556L717.313 190.142H719.074ZM727.803 204.886C726.969 204.886 726.219 204.72 725.551 204.389C724.884 204.057 724.349 203.603 723.946 203.025C723.544 202.448 723.323 201.789 723.286 201.051H724.99C725.056 201.709 725.355 202.253 725.885 202.684C726.42 203.11 727.059 203.323 727.803 203.323C728.399 203.323 728.929 203.184 729.394 202.904C729.862 202.625 730.229 202.242 730.494 201.754C730.764 201.261 730.899 200.705 730.899 200.085C730.899 199.45 730.76 198.885 730.48 198.387C730.206 197.886 729.827 197.49 729.344 197.201C728.861 196.913 728.309 196.766 727.689 196.761C727.244 196.756 726.787 196.825 726.318 196.967C725.849 197.104 725.464 197.282 725.161 197.5L723.513 197.301L724.394 190.142H731.95V191.704H725.871L725.359 195.994H725.445C725.743 195.757 726.117 195.561 726.567 195.404C727.017 195.248 727.485 195.17 727.973 195.17C728.863 195.17 729.656 195.383 730.352 195.809C731.053 196.231 731.602 196.808 732 197.542C732.403 198.276 732.604 199.114 732.604 200.056C732.604 200.984 732.395 201.813 731.979 202.542C731.567 203.267 730.999 203.84 730.274 204.261C729.55 204.678 728.726 204.886 727.803 204.886Z" fill="#464646"/>
<path d="M961.763 204.687V203.409L966.565 198.153C967.128 197.538 967.592 197.002 967.957 196.548C968.321 196.089 968.591 195.658 968.766 195.255C968.946 194.848 969.036 194.422 969.036 193.977C969.036 193.466 968.913 193.023 968.667 192.649C968.425 192.275 968.094 191.986 967.673 191.782C967.251 191.579 966.778 191.477 966.252 191.477C965.693 191.477 965.206 191.593 964.789 191.825C964.377 192.052 964.058 192.372 963.83 192.784C963.608 193.196 963.496 193.679 963.496 194.233H961.82C961.82 193.38 962.017 192.632 962.41 191.988C962.803 191.344 963.338 190.842 964.015 190.483C964.697 190.123 965.461 189.943 966.309 189.943C967.161 189.943 967.916 190.123 968.575 190.483C969.233 190.842 969.749 191.328 970.123 191.939C970.497 192.549 970.684 193.229 970.684 193.977C970.684 194.512 970.587 195.035 970.393 195.547C970.203 196.053 969.872 196.619 969.398 197.244C968.93 197.864 968.279 198.622 967.445 199.517L964.178 203.011V203.125H970.94V204.687H961.763ZM978.617 204.886C977.547 204.886 976.636 204.595 975.883 204.012C975.13 203.425 974.555 202.575 974.157 201.463C973.759 200.345 973.56 198.996 973.56 197.414C973.56 195.842 973.759 194.5 974.157 193.387C974.559 192.27 975.137 191.418 975.89 190.831C976.647 190.239 977.557 189.943 978.617 189.943C979.678 189.943 980.585 190.239 981.337 190.831C982.095 191.418 982.673 192.27 983.07 193.387C983.473 194.5 983.674 195.842 983.674 197.414C983.674 198.996 983.475 200.345 983.077 201.463C982.68 202.575 982.104 203.425 981.352 204.012C980.599 204.595 979.687 204.886 978.617 204.886ZM978.617 203.323C979.678 203.323 980.502 202.812 981.089 201.789C981.676 200.767 981.969 199.308 981.969 197.414C981.969 196.155 981.835 195.082 981.565 194.197C981.299 193.312 980.916 192.637 980.414 192.173C979.917 191.709 979.318 191.477 978.617 191.477C977.566 191.477 976.745 191.995 976.153 193.032C975.561 194.065 975.265 195.525 975.265 197.414C975.265 198.674 975.397 199.744 975.663 200.625C975.928 201.505 976.309 202.175 976.806 202.635C977.308 203.094 977.912 203.323 978.617 203.323Z" fill="#464646"/>
<path d="M1013.24 204.687V203.409L1018.04 198.153C1018.6 197.538 1019.07 197.002 1019.43 196.548C1019.8 196.089 1020.07 195.658 1020.24 195.255C1020.42 194.848 1020.51 194.422 1020.51 193.977C1020.51 193.466 1020.39 193.023 1020.14 192.649C1019.9 192.275 1019.57 191.986 1019.15 191.782C1018.73 191.579 1018.25 191.477 1017.73 191.477C1017.17 191.477 1016.68 191.593 1016.26 191.825C1015.85 192.052 1015.53 192.372 1015.31 192.784C1015.08 193.196 1014.97 193.679 1014.97 194.233H1013.3C1013.3 193.38 1013.49 192.632 1013.89 191.988C1014.28 191.344 1014.81 190.842 1015.49 190.483C1016.17 190.123 1016.94 189.943 1017.78 189.943C1018.64 189.943 1019.39 190.123 1020.05 190.483C1020.71 190.842 1021.22 191.328 1021.6 191.939C1021.97 192.549 1022.16 193.229 1022.16 193.977C1022.16 194.512 1022.06 195.035 1021.87 195.547C1021.68 196.053 1021.35 196.619 1020.87 197.244C1020.41 197.864 1019.75 198.622 1018.92 199.517L1015.65 203.011V203.125H1022.42V204.687H1013.24ZM1030.46 190.142V204.687H1028.7V191.988H1028.62L1025.06 194.346V192.556L1028.7 190.142H1030.46Z" fill="#464646"/>
<path d="M124.74 204.886C123.803 204.886 122.967 204.725 122.233 204.403C121.504 204.081 120.924 203.634 120.493 203.061C120.067 202.483 119.835 201.813 119.797 201.051H121.587C121.625 201.52 121.786 201.924 122.07 202.265C122.354 202.601 122.726 202.862 123.185 203.047C123.644 203.231 124.153 203.323 124.712 203.323C125.337 203.323 125.891 203.215 126.374 202.997C126.857 202.779 127.236 202.476 127.51 202.088C127.785 201.699 127.922 201.25 127.922 200.738C127.922 200.203 127.79 199.732 127.524 199.325C127.259 198.913 126.871 198.591 126.36 198.359C125.848 198.127 125.223 198.011 124.485 198.011H123.32V196.448H124.485C125.062 196.448 125.569 196.344 126.004 196.136C126.445 195.928 126.788 195.634 127.034 195.255C127.285 194.877 127.411 194.431 127.411 193.92C127.411 193.428 127.302 192.999 127.084 192.635C126.866 192.27 126.558 191.986 126.161 191.782C125.768 191.579 125.304 191.477 124.769 191.477C124.267 191.477 123.793 191.569 123.348 191.754C122.908 191.934 122.548 192.197 122.269 192.542C121.989 192.883 121.838 193.295 121.814 193.778H120.11C120.138 193.016 120.368 192.348 120.799 191.775C121.229 191.198 121.793 190.748 122.489 190.426C123.19 190.104 123.959 189.943 124.797 189.943C125.697 189.943 126.468 190.125 127.112 190.49C127.756 190.85 128.251 191.325 128.597 191.917C128.942 192.509 129.115 193.148 129.115 193.835C129.115 194.654 128.9 195.352 128.469 195.93C128.043 196.508 127.463 196.908 126.729 197.13V197.244C127.647 197.395 128.365 197.786 128.881 198.416C129.397 199.041 129.655 199.815 129.655 200.738C129.655 201.529 129.44 202.239 129.009 202.869C128.583 203.494 128 203.986 127.262 204.346C126.523 204.706 125.683 204.886 124.74 204.886Z" fill="#464646"/>
<path d="M423.834 189.943C424.43 189.948 425.027 190.061 425.623 190.284C426.22 190.506 426.765 190.876 427.257 191.392C427.749 191.903 428.145 192.601 428.443 193.487C428.741 194.372 428.89 195.483 428.89 196.818C428.89 198.11 428.767 199.259 428.521 200.262C428.28 201.261 427.929 202.104 427.47 202.791C427.015 203.477 426.461 203.998 425.808 204.353C425.159 204.708 424.425 204.886 423.606 204.886C422.792 204.886 422.065 204.725 421.426 204.403C420.791 204.076 420.271 203.624 419.863 203.047C419.461 202.464 419.203 201.789 419.089 201.022H420.822C420.979 201.69 421.289 202.242 421.753 202.677C422.221 203.108 422.839 203.323 423.606 203.323C424.729 203.323 425.614 202.833 426.263 201.853C426.916 200.873 427.243 199.488 427.243 197.698H427.129C426.864 198.096 426.549 198.44 426.184 198.728C425.82 199.017 425.415 199.24 424.97 199.396C424.525 199.552 424.051 199.63 423.55 199.63C422.716 199.63 421.952 199.424 421.256 199.012C420.564 198.596 420.01 198.025 419.594 197.301C419.182 196.572 418.976 195.738 418.976 194.801C418.976 193.911 419.175 193.096 419.572 192.358C419.975 191.614 420.538 191.022 421.263 190.582C421.992 190.142 422.849 189.929 423.834 189.943ZM423.834 191.505C423.237 191.505 422.7 191.654 422.221 191.953C421.748 192.246 421.372 192.644 421.092 193.146C420.818 193.643 420.68 194.195 420.68 194.801C420.68 195.407 420.813 195.958 421.078 196.456C421.348 196.948 421.715 197.341 422.179 197.635C422.648 197.923 423.18 198.068 423.777 198.068C424.227 198.068 424.646 197.98 425.034 197.805C425.422 197.625 425.761 197.381 426.05 197.073C426.343 196.761 426.573 196.408 426.738 196.015C426.904 195.618 426.987 195.203 426.987 194.772C426.987 194.204 426.85 193.672 426.575 193.174C426.305 192.677 425.931 192.275 425.453 191.967C424.979 191.659 424.44 191.505 423.834 191.505Z" fill="#464646"/>
<path d="M768.793 190.142V204.687H767.032V191.988H766.947L763.395 194.346V192.556L767.032 190.142H768.793ZM777.806 204.886C777.209 204.877 776.613 204.763 776.016 204.545C775.42 204.327 774.875 203.96 774.383 203.444C773.89 202.923 773.495 202.22 773.197 201.335C772.898 200.445 772.749 199.327 772.749 197.983C772.749 196.695 772.87 195.554 773.111 194.559C773.353 193.56 773.703 192.72 774.162 192.038C774.622 191.351 775.176 190.831 775.824 190.475C776.478 190.12 777.214 189.943 778.033 189.943C778.848 189.943 779.572 190.106 780.206 190.433C780.846 190.755 781.367 191.205 781.769 191.782C782.171 192.36 782.432 193.025 782.55 193.778H780.817C780.656 193.125 780.344 192.582 779.88 192.152C779.416 191.721 778.8 191.505 778.033 191.505C776.906 191.505 776.019 191.995 775.37 192.975C774.726 193.956 774.402 195.331 774.397 197.102H774.51C774.776 196.699 775.09 196.356 775.455 196.072C775.824 195.783 776.232 195.561 776.677 195.404C777.122 195.248 777.593 195.17 778.09 195.17C778.923 195.17 779.686 195.378 780.377 195.795C781.068 196.207 781.622 196.778 782.039 197.507C782.456 198.231 782.664 199.062 782.664 200C782.664 200.899 782.463 201.723 782.06 202.471C781.658 203.215 781.092 203.806 780.363 204.247C779.638 204.682 778.786 204.895 777.806 204.886ZM777.806 203.323C778.403 203.323 778.938 203.174 779.411 202.876C779.889 202.578 780.266 202.178 780.54 201.676C780.82 201.174 780.959 200.615 780.959 200C780.959 199.398 780.824 198.851 780.555 198.359C780.289 197.862 779.922 197.466 779.454 197.173C778.99 196.879 778.459 196.733 777.863 196.733C777.413 196.733 776.994 196.823 776.606 197.002C776.217 197.178 775.876 197.419 775.583 197.727C775.294 198.035 775.067 198.387 774.901 198.785C774.735 199.178 774.653 199.592 774.653 200.028C774.653 200.606 774.787 201.145 775.057 201.647C775.332 202.149 775.706 202.554 776.18 202.862C776.658 203.17 777.2 203.323 777.806 203.323Z" fill="#464646"/>
<path d="M169.311 201.704V200.255L175.703 190.142H176.754V192.386H176.044L171.215 200.028V200.142H179.823V201.704H169.311ZM176.158 204.687V201.264V200.589V190.142H177.834V204.687H176.158Z" fill="#464646"/>
<path d="M469.533 190.142V204.687H467.772V191.988H467.686L464.135 194.346V192.556L467.772 190.142H469.533ZM478.46 204.886C477.39 204.886 476.479 204.595 475.726 204.012C474.973 203.425 474.398 202.575 474 201.463C473.602 200.345 473.404 198.996 473.404 197.414C473.404 195.842 473.602 194.5 474 193.387C474.403 192.27 474.98 191.418 475.733 190.831C476.491 190.239 477.4 189.943 478.46 189.943C479.521 189.943 480.428 190.239 481.181 190.831C481.938 191.418 482.516 192.27 482.914 193.387C483.316 194.5 483.517 195.842 483.517 197.414C483.517 198.996 483.318 200.345 482.921 201.463C482.523 202.575 481.948 203.425 481.195 204.012C480.442 204.595 479.531 204.886 478.46 204.886ZM478.46 203.323C479.521 203.323 480.345 202.812 480.932 201.789C481.519 200.767 481.813 199.308 481.813 197.414C481.813 196.155 481.678 195.082 481.408 194.197C481.143 193.312 480.759 192.637 480.257 192.173C479.76 191.709 479.161 191.477 478.46 191.477C477.409 191.477 476.588 191.995 475.996 193.032C475.404 194.065 475.108 195.525 475.108 197.414C475.108 198.674 475.241 199.744 475.506 200.625C475.771 201.505 476.152 202.175 476.649 202.635C477.151 203.094 477.755 203.323 478.46 203.323Z" fill="#464646"/>
<path d="M819.195 190.142V204.687H817.434V191.988H817.348L813.797 194.346V192.556L817.434 190.142H819.195ZM823.833 204.687L830.338 191.818V191.704H822.838V190.142H832.157V191.789L825.679 204.687H823.833Z" fill="#464646"/>
<path d="M1061.71 204.687V203.409L1066.51 198.153C1067.07 197.538 1067.54 197.002 1067.9 196.548C1068.27 196.089 1068.54 195.658 1068.71 195.255C1068.89 194.848 1068.98 194.422 1068.98 193.977C1068.98 193.466 1068.86 193.023 1068.61 192.649C1068.37 192.275 1068.04 191.986 1067.62 191.782C1067.2 191.579 1066.72 191.477 1066.2 191.477C1065.64 191.477 1065.15 191.593 1064.73 191.825C1064.32 192.052 1064 192.372 1063.78 192.784C1063.55 193.196 1063.44 193.679 1063.44 194.233H1061.77C1061.77 193.38 1061.96 192.632 1062.35 191.988C1062.75 191.344 1063.28 190.842 1063.96 190.483C1064.64 190.123 1065.41 189.943 1066.25 189.943C1067.11 189.943 1067.86 190.123 1068.52 190.483C1069.18 190.842 1069.69 191.328 1070.07 191.939C1070.44 192.549 1070.63 193.229 1070.63 193.977C1070.63 194.512 1070.53 195.035 1070.34 195.547C1070.15 196.053 1069.82 196.619 1069.34 197.244C1068.87 197.864 1068.22 198.622 1067.39 199.517L1064.12 203.011V203.125H1070.88V204.687H1061.71ZM1073.82 204.687V203.409L1078.62 198.153C1079.18 197.538 1079.65 197.002 1080.01 196.548C1080.38 196.089 1080.65 195.658 1080.82 195.255C1081 194.848 1081.09 194.422 1081.09 193.977C1081.09 193.466 1080.97 193.023 1080.72 192.649C1080.48 192.275 1080.15 191.986 1079.73 191.782C1079.31 191.579 1078.83 191.477 1078.31 191.477C1077.75 191.477 1077.26 191.593 1076.84 191.825C1076.43 192.052 1076.11 192.372 1075.88 192.784C1075.66 193.196 1075.55 193.679 1075.55 194.233H1073.87C1073.87 193.38 1074.07 192.632 1074.46 191.988C1074.86 191.344 1075.39 190.842 1076.07 190.483C1076.75 190.123 1077.52 189.943 1078.36 189.943C1079.22 189.943 1079.97 190.123 1080.63 190.483C1081.29 190.842 1081.8 191.328 1082.18 191.939C1082.55 192.549 1082.74 193.229 1082.74 193.977C1082.74 194.512 1082.64 195.035 1082.45 195.547C1082.26 196.053 1081.93 196.619 1081.45 197.244C1080.98 197.864 1080.33 198.622 1079.5 199.517L1076.23 203.011V203.125H1082.99V204.687H1073.82Z" fill="#464646"/>
<path d="M1111.27 204.687V203.409L1116.07 198.153C1116.64 197.538 1117.1 197.002 1117.46 196.548C1117.83 196.089 1118.1 195.658 1118.27 195.255C1118.45 194.848 1118.54 194.422 1118.54 193.977C1118.54 193.466 1118.42 193.023 1118.17 192.649C1117.93 192.275 1117.6 191.986 1117.18 191.782C1116.76 191.579 1116.29 191.477 1115.76 191.477C1115.2 191.477 1114.71 191.593 1114.3 191.825C1113.88 192.052 1113.57 192.372 1113.34 192.784C1113.12 193.196 1113 193.679 1113 194.233H1111.33C1111.33 193.38 1111.52 192.632 1111.92 191.988C1112.31 191.344 1112.85 190.842 1113.52 190.483C1114.2 190.123 1114.97 189.943 1115.82 189.943C1116.67 189.943 1117.42 190.123 1118.08 190.483C1118.74 190.842 1119.26 191.328 1119.63 191.939C1120 192.549 1120.19 193.229 1120.19 193.977C1120.19 194.512 1120.09 195.035 1119.9 195.547C1119.71 196.053 1119.38 196.619 1118.91 197.244C1118.44 197.864 1117.79 198.622 1116.95 199.517L1113.69 203.011V203.125H1120.45V204.687H1111.27ZM1128.3 204.886C1127.36 204.886 1126.52 204.725 1125.79 204.403C1125.06 204.081 1124.48 203.634 1124.05 203.061C1123.62 202.483 1123.39 201.813 1123.35 201.051H1125.14C1125.18 201.52 1125.34 201.924 1125.62 202.265C1125.91 202.601 1126.28 202.862 1126.74 203.047C1127.2 203.231 1127.71 203.323 1128.27 203.323C1128.89 203.323 1129.45 203.215 1129.93 202.997C1130.41 202.779 1130.79 202.476 1131.07 202.088C1131.34 201.699 1131.48 201.25 1131.48 200.738C1131.48 200.203 1131.34 199.732 1131.08 199.325C1130.81 198.913 1130.43 198.591 1129.91 198.359C1129.4 198.127 1128.78 198.011 1128.04 198.011H1126.88V196.448H1128.04C1128.62 196.448 1129.12 196.344 1129.56 196.136C1130 195.928 1130.34 195.634 1130.59 195.255C1130.84 194.877 1130.97 194.431 1130.97 193.92C1130.97 193.428 1130.86 192.999 1130.64 192.635C1130.42 192.27 1130.11 191.986 1129.72 191.782C1129.32 191.579 1128.86 191.477 1128.32 191.477C1127.82 191.477 1127.35 191.569 1126.9 191.754C1126.46 191.934 1126.1 192.197 1125.82 192.542C1125.54 192.883 1125.39 193.295 1125.37 193.778H1123.66C1123.69 193.016 1123.92 192.348 1124.35 191.775C1124.78 191.198 1125.35 190.748 1126.04 190.426C1126.74 190.104 1127.51 189.943 1128.35 189.943C1129.25 189.943 1130.02 190.125 1130.67 190.49C1131.31 190.85 1131.81 191.325 1132.15 191.917C1132.5 192.509 1132.67 193.148 1132.67 193.835C1132.67 194.654 1132.46 195.352 1132.02 195.93C1131.6 196.508 1131.02 196.908 1130.28 197.13V197.244C1131.2 197.395 1131.92 197.786 1132.44 198.416C1132.95 199.041 1133.21 199.815 1133.21 200.738C1133.21 201.529 1132.99 202.239 1132.56 202.869C1132.14 203.494 1131.56 203.986 1130.82 204.346C1130.08 204.706 1129.24 204.886 1128.3 204.886Z" fill="#464646"/>
<path d="M224.405 204.886C223.571 204.886 222.821 204.72 222.153 204.389C221.486 204.057 220.951 203.603 220.548 203.025C220.146 202.448 219.925 201.789 219.888 201.051H221.592C221.658 201.709 221.957 202.253 222.487 202.684C223.022 203.11 223.661 203.323 224.405 203.323C225.001 203.323 225.532 203.184 225.996 202.904C226.464 202.625 226.831 202.242 227.096 201.754C227.366 201.261 227.501 200.705 227.501 200.085C227.501 199.45 227.362 198.885 227.082 198.387C226.808 197.886 226.429 197.49 225.946 197.201C225.463 196.913 224.911 196.766 224.291 196.761C223.846 196.756 223.389 196.825 222.92 196.967C222.452 197.104 222.066 197.282 221.763 197.5L220.115 197.301L220.996 190.142H228.552V191.704H222.473L221.961 195.994H222.047C222.345 195.757 222.719 195.561 223.169 195.404C223.619 195.248 224.087 195.17 224.575 195.17C225.465 195.17 226.258 195.383 226.954 195.809C227.655 196.231 228.204 196.808 228.602 197.542C229.005 198.276 229.206 199.114 229.206 200.056C229.206 200.984 228.997 201.813 228.581 202.542C228.169 203.267 227.601 203.84 226.876 204.261C226.152 204.678 225.328 204.886 224.405 204.886Z" fill="#464646"/>
<path d="M521.01 190.142V204.687H519.249V191.988H519.164L515.613 194.346V192.556L519.249 190.142H521.01ZM530.307 190.142V204.687H528.546V191.988H528.461L524.91 194.346V192.556L528.546 190.142H530.307Z" fill="#464646"/>
<path d="M868.621 190.142V204.687H866.86V191.988H866.775L863.224 194.346V192.556L866.86 190.142H868.621ZM877.464 204.886C876.488 204.886 875.626 204.713 874.878 204.368C874.135 204.017 873.555 203.537 873.138 202.926C872.722 202.31 872.516 201.609 872.52 200.823C872.516 200.208 872.636 199.64 872.883 199.119C873.129 198.593 873.465 198.155 873.891 197.805C874.322 197.45 874.803 197.225 875.333 197.13V197.045C874.637 196.865 874.083 196.475 873.671 195.873C873.259 195.267 873.055 194.578 873.06 193.806C873.055 193.068 873.242 192.407 873.621 191.825C874 191.243 874.521 190.783 875.184 190.447C875.851 190.111 876.611 189.943 877.464 189.943C878.306 189.943 879.059 190.111 879.722 190.447C880.385 190.783 880.906 191.243 881.285 191.825C881.668 192.407 881.862 193.068 881.867 193.806C881.862 194.578 881.652 195.267 881.235 195.873C880.823 196.475 880.276 196.865 879.594 197.045V197.13C880.12 197.225 880.593 197.45 881.015 197.805C881.436 198.155 881.772 198.593 882.023 199.119C882.274 199.64 882.402 200.208 882.407 200.823C882.402 201.609 882.189 202.31 881.768 202.926C881.351 203.537 880.771 204.017 880.028 204.368C879.289 204.713 878.434 204.886 877.464 204.886ZM877.464 203.323C878.122 203.323 878.69 203.217 879.168 203.004C879.646 202.791 880.016 202.49 880.276 202.102C880.537 201.714 880.669 201.259 880.674 200.738C880.669 200.189 880.527 199.704 880.248 199.282C879.968 198.861 879.587 198.529 879.104 198.288C878.626 198.047 878.079 197.926 877.464 197.926C876.843 197.926 876.289 198.047 875.802 198.288C875.319 198.529 874.938 198.861 874.658 199.282C874.384 199.704 874.249 200.189 874.253 200.738C874.249 201.259 874.374 201.714 874.63 202.102C874.89 202.49 875.262 202.791 875.745 203.004C876.228 203.217 876.801 203.323 877.464 203.323ZM877.464 196.42C877.984 196.42 878.446 196.316 878.849 196.108C879.256 195.899 879.575 195.608 879.807 195.234C880.039 194.86 880.158 194.422 880.162 193.92C880.158 193.428 880.042 192.999 879.814 192.635C879.587 192.265 879.272 191.981 878.87 191.782C878.467 191.579 877.999 191.477 877.464 191.477C876.919 191.477 876.443 191.579 876.036 191.782C875.629 191.981 875.314 192.265 875.091 192.635C874.869 192.999 874.76 193.428 874.765 193.92C874.76 194.422 874.871 194.86 875.099 195.234C875.331 195.608 875.65 195.899 876.057 196.108C876.465 196.316 876.933 196.42 877.464 196.42Z" fill="#464646"/>
<path d="M274.407 204.886C273.811 204.877 273.214 204.763 272.618 204.545C272.021 204.327 271.477 203.96 270.984 203.444C270.492 202.923 270.096 202.22 269.798 201.335C269.5 200.445 269.351 199.327 269.351 197.983C269.351 196.695 269.471 195.554 269.713 194.559C269.954 193.56 270.305 192.72 270.764 192.038C271.223 191.351 271.777 190.831 272.426 190.475C273.079 190.12 273.816 189.943 274.635 189.943C275.449 189.943 276.174 190.106 276.808 190.433C277.447 190.755 277.968 191.205 278.371 191.782C278.773 192.36 279.033 193.025 279.152 193.778H277.419C277.258 193.125 276.945 192.582 276.481 192.152C276.017 191.721 275.402 191.505 274.635 191.505C273.508 191.505 272.62 191.995 271.971 192.975C271.327 193.956 271.003 195.331 270.998 197.102H271.112C271.377 196.699 271.692 196.356 272.057 196.072C272.426 195.783 272.833 195.561 273.278 195.404C273.723 195.248 274.194 195.17 274.692 195.17C275.525 195.17 276.287 195.378 276.979 195.795C277.67 196.207 278.224 196.778 278.64 197.507C279.057 198.231 279.265 199.062 279.265 200C279.265 200.899 279.064 201.723 278.662 202.471C278.259 203.215 277.693 203.806 276.964 204.247C276.24 204.682 275.388 204.895 274.407 204.886ZM274.407 203.323C275.004 203.323 275.539 203.174 276.013 202.876C276.491 202.578 276.867 202.178 277.142 201.676C277.421 201.174 277.561 200.615 277.561 200C277.561 199.398 277.426 198.851 277.156 198.359C276.891 197.862 276.524 197.466 276.055 197.173C275.591 196.879 275.061 196.733 274.464 196.733C274.015 196.733 273.595 196.823 273.207 197.002C272.819 197.178 272.478 197.419 272.184 197.727C271.896 198.035 271.668 198.387 271.503 198.785C271.337 199.178 271.254 199.592 271.254 200.028C271.254 200.606 271.389 201.145 271.659 201.647C271.934 202.149 272.308 202.554 272.781 202.862C273.259 203.17 273.801 203.323 274.407 203.323Z" fill="#464646"/>
<path d="M619.041 190.142V204.687H617.28V191.988H617.195L613.643 194.346V192.556L617.28 190.142H619.041ZM628.139 204.886C627.202 204.886 626.366 204.725 625.632 204.403C624.903 204.081 624.323 203.634 623.892 203.061C623.466 202.483 623.234 201.813 623.196 201.051H624.986C625.024 201.52 625.185 201.924 625.469 202.265C625.753 202.601 626.125 202.862 626.584 203.047C627.043 203.231 627.552 203.323 628.111 203.323C628.736 203.323 629.29 203.215 629.773 202.997C630.256 202.779 630.634 202.476 630.909 202.088C631.184 201.699 631.321 201.25 631.321 200.738C631.321 200.203 631.188 199.732 630.923 199.325C630.658 198.913 630.27 198.591 629.759 198.359C629.247 198.127 628.622 198.011 627.884 198.011H626.719V196.448H627.884C628.461 196.448 628.968 196.344 629.403 196.136C629.844 195.928 630.187 195.634 630.433 195.255C630.684 194.877 630.81 194.431 630.81 193.92C630.81 193.428 630.701 192.999 630.483 192.635C630.265 192.27 629.957 191.986 629.56 191.782C629.167 191.579 628.703 191.477 628.168 191.477C627.666 191.477 627.192 191.569 626.747 191.754C626.307 191.934 625.947 192.197 625.668 192.542C625.388 192.883 625.237 193.295 625.213 193.778H623.509C623.537 193.016 623.767 192.348 624.197 191.775C624.628 191.198 625.192 190.748 625.888 190.426C626.589 190.104 627.358 189.943 628.196 189.943C629.096 189.943 629.867 190.125 630.511 190.49C631.155 190.85 631.65 191.325 631.996 191.917C632.341 192.509 632.514 193.148 632.514 193.835C632.514 194.654 632.299 195.352 631.868 195.93C631.442 196.508 630.862 196.908 630.128 197.13V197.244C631.046 197.395 631.764 197.786 632.28 198.416C632.796 199.041 633.054 199.815 633.054 200.738C633.054 201.529 632.839 202.239 632.408 202.869C631.982 203.494 631.399 203.986 630.661 204.346C629.922 204.706 629.081 204.886 628.139 204.886Z" fill="#464646"/>
<path d="M320.435 204.687L326.941 191.818V191.704H319.441V190.142H328.759V191.789L322.281 204.687H320.435Z" fill="#464646"/>
<path d="M668.868 190.142V204.687H667.106V191.988H667.021L663.47 194.346V192.556L667.106 190.142H668.868ZM672.71 201.704V200.255L679.102 190.142H680.153V192.386H679.443L674.614 200.028V200.142H683.222V201.704H672.71ZM679.557 204.687V201.264V200.589V190.142H681.233V204.687H679.557Z" fill="#464646"/>
<path d="M569.479 190.142V204.687H567.717V191.988H567.632L564.081 194.346V192.556L567.717 190.142H569.479ZM573.662 204.687V203.409L578.463 198.153C579.027 197.538 579.491 197.002 579.855 196.548C580.22 196.089 580.49 195.658 580.665 195.255C580.845 194.848 580.935 194.422 580.935 193.977C580.935 193.466 580.812 193.023 580.565 192.649C580.324 192.275 579.992 191.986 579.571 191.782C579.15 191.579 578.676 191.477 578.151 191.477C577.592 191.477 577.104 191.593 576.688 191.825C576.276 192.052 575.956 192.372 575.729 192.784C575.506 193.196 575.395 193.679 575.395 194.233H573.719C573.719 193.38 573.915 192.632 574.308 191.988C574.701 191.344 575.236 190.842 575.913 190.483C576.595 190.123 577.36 189.943 578.207 189.943C579.06 189.943 579.815 190.123 580.473 190.483C581.131 190.842 581.647 191.328 582.021 191.939C582.395 192.549 582.582 193.229 582.582 193.977C582.582 194.512 582.485 195.035 582.291 195.547C582.102 196.053 581.77 196.619 581.297 197.244C580.828 197.864 580.177 198.622 579.344 199.517L576.077 203.011V203.125H582.838V204.687H573.662Z" fill="#464646"/>
<path d="M918.419 190.142V204.687H916.657V191.988H916.572L913.021 194.346V192.556L916.657 190.142H918.419ZM927.233 189.943C927.829 189.948 928.426 190.061 929.022 190.284C929.619 190.506 930.163 190.876 930.656 191.392C931.148 191.903 931.544 192.601 931.842 193.487C932.14 194.372 932.289 195.483 932.289 196.818C932.289 198.11 932.166 199.259 931.92 200.262C931.679 201.261 931.328 202.104 930.869 202.791C930.414 203.477 929.86 203.998 929.207 204.353C928.558 204.708 927.824 204.886 927.005 204.886C926.191 204.886 925.464 204.725 924.825 204.403C924.19 204.076 923.67 203.624 923.262 203.047C922.86 202.464 922.602 201.789 922.488 201.022H924.221C924.377 201.69 924.688 202.242 925.152 202.677C925.62 203.108 926.238 203.323 927.005 203.323C928.127 203.323 929.013 202.833 929.662 201.853C930.315 200.873 930.642 199.488 930.642 197.698H930.528C930.263 198.096 929.948 198.44 929.583 198.728C929.219 199.017 928.814 199.24 928.369 199.396C927.924 199.552 927.45 199.63 926.948 199.63C926.115 199.63 925.35 199.424 924.654 199.012C923.963 198.596 923.409 198.025 922.992 197.301C922.581 196.572 922.375 195.738 922.375 194.801C922.375 193.911 922.573 193.096 922.971 192.358C923.374 191.614 923.937 191.022 924.662 190.582C925.391 190.142 926.248 189.929 927.233 189.943ZM927.233 191.505C926.636 191.505 926.099 191.654 925.62 191.953C925.147 192.246 924.77 192.644 924.491 193.146C924.216 193.643 924.079 194.195 924.079 194.801C924.079 195.407 924.212 195.958 924.477 196.456C924.747 196.948 925.114 197.341 925.578 197.635C926.046 197.923 926.579 198.068 927.176 198.068C927.626 198.068 928.045 197.98 928.433 197.805C928.821 197.625 929.16 197.381 929.448 197.073C929.742 196.761 929.972 196.408 930.137 196.015C930.303 195.618 930.386 195.203 930.386 194.772C930.386 194.204 930.249 193.672 929.974 193.174C929.704 192.677 929.33 192.275 928.852 191.967C928.378 191.659 927.839 191.505 927.233 191.505Z" fill="#464646"/>
<path d="M1161.25 204.687V203.409L1166.05 198.153C1166.62 197.538 1167.08 197.002 1167.45 196.548C1167.81 196.089 1168.08 195.658 1168.26 195.255C1168.44 194.848 1168.53 194.422 1168.53 193.977C1168.53 193.466 1168.4 193.023 1168.16 192.649C1167.92 192.275 1167.58 191.986 1167.16 191.782C1166.74 191.579 1166.27 191.477 1165.74 191.477C1165.18 191.477 1164.7 191.593 1164.28 191.825C1163.87 192.052 1163.55 192.372 1163.32 192.784C1163.1 193.196 1162.99 193.679 1162.99 194.233H1161.31C1161.31 193.38 1161.51 192.632 1161.9 191.988C1162.29 191.344 1162.83 190.842 1163.51 190.483C1164.19 190.123 1164.95 189.943 1165.8 189.943C1166.65 189.943 1167.41 190.123 1168.06 190.483C1168.72 190.842 1169.24 191.328 1169.61 191.939C1169.99 192.549 1170.17 193.229 1170.17 193.977C1170.17 194.512 1170.08 195.035 1169.88 195.547C1169.69 196.053 1169.36 196.619 1168.89 197.244C1168.42 197.864 1167.77 198.622 1166.94 199.517L1163.67 203.011V203.125H1170.43V204.687H1161.25ZM1172.71 201.704V200.255L1179.1 190.142H1180.15V192.386H1179.44L1174.61 200.028V200.142H1183.22V201.704H1172.71ZM1179.56 204.687V201.264V200.589V190.142H1181.23V204.687H1179.56Z" fill="#464646"/>
<path d="M70.4516 158.659L71.1266 141.559H78.3911L79.0661 158.659H70.4516Z" fill="#C4C4C4" stroke="#444B5B" stroke-width="0.75"/>
<circle cx="74.7588" cy="164.905" r="11.4177" fill="#303140" stroke="#7BD5E0" stroke-width="3"/>
<path d="M71.0005 145.094C72.3314 144.624 75.6978 143.966 78.5162 145.094" stroke="#444B5B" stroke-width="0.5" stroke-linecap="round"/>
<path d="M70.7671 147.831C72.098 147.361 75.4644 146.703 78.2828 147.831" stroke="#444B5B" stroke-width="0.5" stroke-linecap="round"/>
<path d="M71.0005 150.649C72.3314 150.179 75.6978 149.521 78.5162 150.649" stroke="#444B5B" stroke-width="0.5" stroke-linecap="round"/>
<path d="M121.84 122.306C121.951 116.876 118.193 107.117 116.3 102.916C114.546 103.7 111.258 105.187 112.145 104.855C113.031 104.522 116.023 117.089 117.408 123.414C118.294 123.635 120.732 122.767 121.84 122.306Z" fill="#C4C4C4" stroke="#444B5B" stroke-width="0.5"/>
<path d="M27.51 122.998C27.3992 117.569 31.1572 107.81 33.05 103.608C34.8043 104.393 38.0914 105.88 37.205 105.547C36.3186 105.215 33.327 117.782 31.942 124.107C31.0555 124.328 28.618 123.46 27.51 122.998Z" fill="#C4C4C4" stroke="#444B5B" stroke-width="0.5"/>
<path d="M112.353 59.7041C112.353 76.2264 121.217 89.6203 75.235 89.6203C29.2527 89.6203 37.8398 76.2264 37.8398 59.7041C37.8398 43.1819 56.0355 29.788 75.235 29.788C94.4344 29.788 112.353 43.1819 112.353 59.7041Z" fill="#7BD5E0"/>
<path d="M112.694 57.8151C112.694 73.447 121.566 86.5733 75.5448 86.5733C29.5239 86.5733 38.1182 73.447 38.1182 57.8151C38.1182 42.1832 56.3292 29.511 75.5448 29.511C94.7604 29.511 112.694 42.1832 112.694 57.8151Z" fill="#9BE3E8"/>
<path d="M41.361 54.1634C41.361 61.8125 39.3767 78.678 36.929 78.678C31.8045 78.678 29.45 71.5076 29.45 63.8584C29.45 56.2093 31.4342 50.0084 33.882 50.0084C40.5536 50.0084 41.361 46.5142 41.361 54.1634Z" fill="#303140"/>
<path d="M41.361 53.5972C41.361 59.9969 39.3767 74.1076 36.929 74.1076C31.8045 74.1076 29.45 68.1084 29.45 61.7087C29.45 55.3089 31.4342 50.1208 33.882 50.1208C40.5536 50.1208 41.361 47.1974 41.361 53.5972Z" fill="#4A4E62"/>
<path d="M108.949 54.4059C108.949 62.0551 110.933 78.9205 113.381 78.9205C118.505 78.9205 120.86 71.7502 120.86 64.101C120.86 56.4518 118.876 50.2509 116.428 50.2509C109.756 50.2509 108.949 46.7567 108.949 54.4059Z" fill="#353D4D"/>
<path d="M48.7858 96.9205C49.6105 90.9885 54.6826 86.5728 60.6716 86.5728H89.1229C95.0344 86.5728 100.065 90.8781 100.979 96.7186L106.03 129.019C107.141 136.122 101.801 142.6 94.617 142.865L73.7694 143.635L55.6902 142.903C48.6063 142.616 43.3141 136.282 44.2903 129.26L48.7858 96.9205Z" fill="#7BD5E0"/>
<path d="M48.5554 97.3929L45.1852 123.934C44.884 126.305 46.2977 128.572 48.5986 129.221C58.6139 132.047 76.1448 135.156 97.932 130.124C100.255 129.587 101.803 127.407 101.618 125.03C100.519 110.85 99.045 101.598 97.4609 96.0345C96.7783 93.6374 94.226 92.5211 91.7857 93.0282C79.8909 95.5001 64.3872 94.4259 54.6398 92.9362C51.7291 92.4914 48.9264 94.4719 48.5554 97.3929Z" fill="#9BE3EC"/>
<path d="M54.9237 102.539C55.7464 96.605 60.8193 92.1869 66.81 92.1869H83.2207C89.1341 92.1869 94.166 96.4948 95.0773 102.338L98.0033 121.097C99.1108 128.197 93.7717 134.673 86.5905 134.938L74.1419 135.399L63.7167 134.976C56.635 134.688 51.3441 128.358 52.3174 121.338L54.9237 102.539Z" fill="#444B5B"/>
<circle cx="40.253" cy="95.7138" r="10.8031" fill="#353D4D"/>
<path d="M50.7786 93.7748C50.7786 97.9819 46.777 101.254 41.4991 101.254C36.2211 101.254 29.865 97.8434 29.865 93.6363C29.865 89.4293 34.9746 84.9108 40.2525 84.9108C45.5305 84.9108 50.7786 89.5678 50.7786 93.7748Z" fill="#444B5B"/>
<circle cx="110.057" cy="95.7138" r="10.8031" fill="#353D4D"/>
<ellipse cx="28.4832" cy="127.358" rx="8.11776" ry="4.44544" transform="rotate(15.3589 28.4832 127.358)" fill="#7BD5E0"/>
<ellipse cx="28.6437" cy="126.669" rx="7.38503" ry="3.53618" transform="rotate(15.3589 28.6437 126.669)" fill="#90E2EB"/>
<ellipse cx="8.11776" cy="4.44544" rx="8.11776" ry="4.44544" transform="matrix(-0.964286 0.264864 0.264864 0.964286 127.375 119.776)" fill="#7BD5E0"/>
<path d="M114.29 39.7665C78.703 50.3208 47.3673 43.7695 36.1478 39.1746C34.0505 41.6778 35.2739 44.9535 36.1478 46.2784C66.8633 56.7649 101.041 50.6478 114.29 46.2784C116.658 43.0309 115.276 40.584 114.29 39.7665Z" fill="#FECA00" stroke="#353D4D" stroke-width="3"/>
<path d="M113.216 39.6531C84.0569 50.275 50.3815 44.0789 37.1887 39.6531C34.2795 26.0544 43.9824 17.6933 49.1975 15.2126C53.0539 9.59724 65.5758 6.05097 71.3547 4.97976C71.8959 2.54417 72.1746 2.36362 75.7265 2.87097C80.0653 2.27902 79.3887 3.93674 80.0653 4.97976C89.537 6.46818 98.6705 12.8165 102.053 15.8046C114.975 22.3672 114.88 34.438 113.216 39.6531Z" fill="#FEE200" stroke="#353D4D" stroke-width="3"/>
<path d="M112.59 39.748C83.9175 48.4917 50.8044 43.3912 37.8319 39.748C34.9713 28.5539 44.5122 21.6713 49.6402 19.6293C53.4321 15.0068 65.7449 12.0876 71.4273 11.2059C71.9595 9.20094 72.2335 9.05232 75.7261 9.46995C79.9925 8.98267 79.3272 10.3473 79.9925 11.2059C89.306 12.4311 98.287 17.6568 101.613 20.1166C114.32 25.5187 114.225 35.4551 112.59 39.748Z" fill="#FEC900"/>
<path d="M70.9954 5.84265V45.0666M80.7347 6.35342V45.5774" stroke="#353D4D" stroke-width="3"/>
<path d="M65.8442 8.08142C65.4355 8.14704 62.4143 8.9382 61.8418 9.51069V35.8411C62.4379 36.552 64.0729 37.5472 65.8442 35.8411V8.08142Z" fill="#FFA616"/>
<path d="M85.9178 8.24487C86.3236 8.31208 88.7483 8.93882 89.8933 10.0838L89.8915 35.2972C89.2997 36.0252 87.6764 37.0445 85.9178 35.2972V8.24487Z" fill="#FFA616"/>
<ellipse cx="52.8889" cy="26.907" rx="5.41243" ry="3.72104" transform="rotate(-35.3944 52.8889 26.907)" fill="#FFE200"/>
<ellipse cx="46.2636" cy="32.496" rx="2.22374" ry="1.52882" transform="rotate(-156.631 46.2636 32.496)" fill="#FEE200"/>
<path d="M113.416 42.6799C77.4914 54.0322 48.0538 47.1534 37.1877 42.4232C36.9311 42.6799 37.1877 43.9632 37.4896 44.7578C37.8459 45.6954 73.236 56.8368 112.903 44.7332C113.159 44.2198 113.673 43.1932 113.416 42.6799Z" fill="#FFA519"/>
<path d="M108.949 53.5972C108.949 59.9969 110.933 74.1076 113.381 74.1076C118.505 74.1076 120.86 68.1084 120.86 61.7087C120.86 55.3089 118.876 50.1208 116.428 50.1208C109.756 50.1208 108.949 47.1974 108.949 53.5972Z" fill="#4A4E62"/>
<path d="M120.721 93.7747C120.721 97.9817 116.72 101.254 111.442 101.254C106.164 101.254 99.5305 97.9817 99.5305 93.7747C99.5305 89.5676 104.655 84.7722 110.195 84.9106C115.473 84.9106 120.721 89.5676 120.721 93.7747Z" fill="#444B5B"/>
<path d="M36.1413 52.9219C34.4447 53.4295 32.6165 54.8207 32.3895 58.2862" stroke="#686C81" stroke-width="5" stroke-linecap="round"/>
<path d="M114.212 52.8807C115.908 53.3882 117.737 54.7794 117.964 58.2449" stroke="#686C81" stroke-width="5" stroke-linecap="round"/>
<ellipse cx="38.1749" cy="89.8969" rx="2.90852" ry="2.21601" fill="#686C81"/>
<ellipse cx="113.338" cy="89.781" rx="2.90852" ry="2.21601" transform="rotate(24.0274 113.338 89.781)" fill="#686C81"/>
<circle cx="63.9355" cy="60.1192" r="4.01652" fill="#303140"/>
<circle cx="63.3824" cy="60.6734" r="1.52351" fill="white"/>
<circle cx="64.767" cy="58.4572" r="0.692504" fill="white"/>
<circle cx="86.9274" cy="60.1192" r="4.01652" fill="#303140"/>
<path d="M68.7832 70.7837C70.8145 73.646 76.2622 76.8777 82.0793 70.7837" stroke="#303140" stroke-width="2" stroke-linecap="round"/>
<circle cx="86.9266" cy="60.6734" r="1.52351" fill="white"/>
<circle cx="88.3121" cy="58.4572" r="0.692504" fill="white"/>
<path d="M114.329 127.998C114.847 129.881 118.454 130.532 122.387 129.451C126.32 128.371 129.089 125.969 128.572 124.086C128.055 122.202 124.112 121.534 120.179 122.615C116.246 123.695 113.812 126.114 114.329 127.998Z" fill="#90E2EB"/>
<path d="M24.8296 125.907C25.3065 126.519 27.0602 127.74 30.2603 127.727" stroke="#D7FBFB" stroke-width="2" stroke-linecap="round"/>
<path d="M119.198 126.729C119.958 126.883 122.084 126.665 124.502 124.57" stroke="#D7FBFB" stroke-width="2" stroke-linecap="round"/>
<circle cx="63.2436" cy="96.5446" r="0.831004" fill="#9BE3E8"/>
<circle cx="61.5812" cy="126.738" r="0.831004" fill="#9BE3E8"/>
<circle cx="87.343" cy="96.5446" r="0.831004" fill="#9BE3E8"/>
<circle cx="89.2814" cy="126.461" r="0.831004" fill="#9BE3E8"/>
<path d="M113.938 108.551C114.32 107.597 115.656 106.834 117.946 107.407M115.083 111.986C115.656 111.032 116.801 109.353 119.091 110.269M115.656 115.421C116.228 114.467 117.488 112.902 120.236 114.276M116.228 118.284C116.992 117.52 119.091 116.337 121.381 117.711" stroke="#444B5B" stroke-width="0.5" stroke-linecap="round"/>
<path d="M51.0542 106.834C50.2909 108.552 48.8788 113.361 49.3367 118.857" stroke="#D7FBFB" stroke-width="2" stroke-linecap="round"/>
<path d="M32.0716 106.834C32.8349 106.834 34.1326 107.178 35.5066 108.552M30.9267 109.697C31.8808 109.506 34.0181 109.582 34.9341 111.414M29.7817 113.132C30.7358 112.941 32.4151 113.017 33.7891 114.849M28.6367 117.139C29.7817 116.757 32.3006 116.452 33.2166 118.284M28.0642 120.574C29.2092 120.002 31.7281 119.773 32.6441 121.147" stroke="#444B5B" stroke-width="0.5" stroke-linecap="round"/>
<path d="M75.5811 153.779C76.5988 153.779 78.1254 153.969 80.161 154.924" stroke="#D8FFFD" stroke-width="0.75" stroke-linecap="round"/>
<path d="M71.0015 154.923C68.4912 155.687 63.6119 159.045 64.1767 166.373" stroke="#D8FFFD" stroke-width="0.75" stroke-linecap="round"/>
<path d="M72.3863 154.225C72.7951 154.122 73.7058 153.928 74.0782 153.978" stroke="#D8FFFD" stroke-width="0.75" stroke-linecap="round"/>
<circle cx="75.0095" cy="164.656" r="1.71747" fill="#7BD5E0"/>
<path d="M321.407 156.385C320.047 156.385 319.027 156.265 318.347 156.025C317.687 155.765 317.217 155.315 316.937 154.675C316.677 154.015 316.547 153.035 316.547 151.735C316.547 150.575 316.687 149.665 316.967 149.005C317.267 148.345 317.737 147.875 318.377 147.595C319.037 147.295 319.937 147.145 321.077 147.145H325.997V146.155C325.997 145.535 325.907 145.075 325.727 144.775C325.567 144.475 325.257 144.265 324.797 144.145C324.357 144.025 323.687 143.965 322.787 143.965C321.547 143.965 319.847 144.085 317.687 144.325V141.565C319.267 141.365 321.117 141.265 323.237 141.265C325.097 141.265 326.527 141.405 327.527 141.685C328.547 141.965 329.277 142.445 329.717 143.125C330.157 143.805 330.377 144.795 330.377 146.095V156.085H326.087V154.765C325.747 155.345 325.287 155.755 324.707 155.995C324.127 156.255 323.027 156.385 321.407 156.385ZM323.117 153.655C323.997 153.655 324.627 153.625 325.007 153.565C325.287 153.525 325.477 153.465 325.577 153.385C325.697 153.305 325.797 153.175 325.877 152.995C325.957 152.855 325.997 152.645 325.997 152.365V149.545H322.997C322.317 149.545 321.837 149.595 321.557 149.695C321.277 149.775 321.087 149.955 320.987 150.235C320.887 150.495 320.837 150.965 320.837 151.645C320.837 152.305 320.887 152.765 320.987 153.025C321.087 153.285 321.277 153.455 321.557 153.535C321.857 153.615 322.377 153.655 323.117 153.655Z" fill="#121538"/>
<path d="M549.097 152.424C547.257 152.424 545.797 152.234 544.717 151.854C543.657 151.474 542.897 150.894 542.437 150.114C541.977 149.314 541.747 148.264 541.747 146.964V131.124H546.127V139.044C546.387 138.384 546.867 137.934 547.567 137.694C548.267 137.434 549.357 137.304 550.837 137.304C552.097 137.304 553.107 137.404 553.867 137.604C554.647 137.804 555.237 138.124 555.637 138.564C556.017 139.004 556.277 139.494 556.417 140.034C556.557 140.554 556.627 141.274 556.627 142.194V146.964C556.627 148.924 556.037 150.324 554.857 151.164C553.677 152.004 551.757 152.424 549.097 152.424ZM549.157 149.694C550.017 149.694 550.667 149.634 551.107 149.514C551.547 149.394 551.847 149.184 552.007 148.884C552.167 148.584 552.247 148.134 552.247 147.534V142.164C552.247 141.504 552.177 141.034 552.037 140.754C551.897 140.454 551.617 140.254 551.197 140.154C550.777 140.054 550.087 140.004 549.127 140.004C548.307 140.004 547.677 140.074 547.237 140.214C546.817 140.354 546.527 140.574 546.367 140.874C546.207 141.174 546.127 141.604 546.127 142.164V147.534C546.127 148.134 546.197 148.584 546.337 148.884C546.497 149.184 546.787 149.394 547.207 149.514C547.647 149.634 548.297 149.694 549.157 149.694Z" fill="#121538"/>
<path d="M750.137 107.528C749.377 107.528 748.777 107.508 748.337 107.468C747.897 107.448 747.357 107.398 746.717 107.318C746.077 107.238 745.547 107.098 745.127 106.898C744.727 106.698 744.307 106.398 743.867 105.998C743.047 105.318 742.637 104.158 742.637 102.518V97.6878C742.637 96.3678 742.937 95.2678 743.537 94.3878C743.757 94.0678 744.077 93.7778 744.497 93.5178C744.937 93.2378 745.377 93.0178 745.817 92.8578C746.177 92.7378 746.657 92.6378 747.257 92.5578C747.857 92.4778 748.387 92.4278 748.847 92.4078H750.437C751.557 92.4078 753.027 92.5878 754.847 92.9478V95.8278C752.787 95.3478 751.207 95.1078 750.107 95.1078C748.087 95.1078 747.077 95.7878 747.077 97.1478V102.488C747.077 104.028 748.187 104.798 750.407 104.798C751.487 104.798 753.037 104.578 755.057 104.138V107.018C753.237 107.358 751.597 107.528 750.137 107.528Z" fill="#121538"/>
<path d="M897.279 124.694C895.559 124.694 894.289 124.574 893.469 124.334C892.649 124.074 892.079 123.594 891.759 122.894C891.439 122.194 891.279 121.104 891.279 119.624V113.954C891.279 112.354 891.729 111.224 892.629 110.564C893.549 109.904 895.029 109.574 897.069 109.574C898.029 109.574 898.779 109.634 899.319 109.754C899.879 109.854 900.329 110.044 900.669 110.324C901.009 110.584 901.359 110.974 901.719 111.494V103.394H906.099V124.394H901.869V122.744C901.509 123.324 901.179 123.734 900.879 123.974C900.599 124.194 900.199 124.364 899.679 124.484C899.139 124.624 898.339 124.694 897.279 124.694ZM898.389 121.964C899.369 121.964 900.089 121.914 900.549 121.814C901.009 121.714 901.319 121.534 901.479 121.274C901.639 120.994 901.719 120.584 901.719 120.044V114.194C901.719 113.694 901.629 113.314 901.449 113.054C901.289 112.774 900.989 112.574 900.549 112.454C900.129 112.334 899.489 112.274 898.629 112.274C897.709 112.274 897.049 112.334 896.649 112.454C896.249 112.554 895.979 112.744 895.839 113.024C895.719 113.284 895.659 113.724 895.659 114.344V119.894C895.659 120.454 895.719 120.884 895.839 121.184C895.979 121.464 896.239 121.664 896.619 121.784C896.999 121.904 897.589 121.964 898.389 121.964Z" fill="#121538"/>
<path d="M1097.81 157.705C1092.67 157.705 1090.1 156.135 1090.1 152.995V147.775C1090.1 145.955 1090.68 144.635 1091.84 143.815C1093.02 142.995 1094.83 142.585 1097.27 142.585C1099.57 142.585 1101.25 142.985 1102.31 143.785C1103.39 144.565 1103.93 145.895 1103.93 147.775V151.315H1094.51V152.635C1094.51 153.475 1094.81 154.075 1095.41 154.435C1096.01 154.795 1097.09 154.975 1098.65 154.975C1100.09 154.975 1101.71 154.765 1103.51 154.345V157.135C1101.73 157.515 1099.83 157.705 1097.81 157.705ZM1099.76 148.825V146.725C1099.76 146.245 1099.56 145.885 1099.16 145.645C1098.78 145.405 1098.13 145.285 1097.21 145.285C1096.15 145.285 1095.44 145.405 1095.08 145.645C1094.7 145.905 1094.51 146.265 1094.51 146.725V148.825H1099.76Z" fill="#121538"/>
</svg>
