<svg width="1163" height="263" viewBox="0 0 1163 263" fill="none" xmlns="http://www.w3.org/2000/svg">
<rect x="23.5524" y="214.959" width="1138.7" height="47.4458" fill="#C4C4C4"/>
<rect x="24.0524" y="215.459" width="46.4458" height="46.4458" fill="#C4C4C4" stroke="#464646"/>
<rect x="308.728" y="215.459" width="46.4458" height="46.4458" fill="#C4C4C4" stroke="#464646"/>
<rect x="71.4983" y="215.459" width="46.4458" height="46.4458" fill="#C4C4C4" stroke="#464646"/>
<rect x="118.944" y="215.459" width="46.4458" height="46.4458" fill="#C4C4C4" stroke="#464646"/>
<rect x="166.39" y="215.459" width="46.4458" height="46.4458" fill="#C4C4C4" stroke="#464646"/>
<rect x="213.836" y="215.459" width="46.4458" height="46.4458" fill="#C4C4C4" stroke="#464646"/>
<rect x="261.282" y="215.459" width="46.4458" height="46.4458" fill="#C4C4C4" stroke="#464646"/>
<rect x="308.728" y="215.459" width="46.4458" height="46.4458" fill="#C4C4C4" stroke="#464646"/>
<rect x="356.173" y="215.459" width="46.4458" height="46.4458" fill="#C4C4C4" stroke="#464646"/>
<rect x="403.619" y="215.459" width="46.4458" height="46.4458" fill="#C4C4C4" stroke="#464646"/>
<rect x="451.065" y="215.459" width="46.4458" height="46.4458" fill="#C4C4C4" stroke="#464646"/>
<rect x="498.511" y="215.459" width="46.4458" height="46.4458" fill="#C4C4C4" stroke="#464646"/>
<rect x="545.957" y="215.459" width="46.4458" height="46.4458" fill="#C4C4C4" stroke="#464646"/>
<rect x="593.403" y="215.459" width="46.4458" height="46.4458" fill="#C4C4C4" stroke="#464646"/>
<rect x="640.848" y="215.459" width="46.4458" height="46.4458" fill="#C4C4C4" stroke="#464646"/>
<rect x="688.294" y="215.459" width="46.4458" height="46.4458" fill="#C4C4C4" stroke="#464646"/>
<rect x="735.74" y="215.459" width="46.4458" height="46.4458" fill="#C4C4C4" stroke="#464646"/>
<rect x="972.969" y="215.459" width="46.4458" height="46.4458" fill="#C4C4C4" stroke="#464646"/>
<rect x="783.186" y="215.459" width="46.4458" height="46.4458" fill="#C4C4C4" stroke="#464646"/>
<rect x="830.632" y="215.459" width="46.4458" height="46.4458" fill="#C4C4C4" stroke="#464646"/>
<rect x="1067.86" y="215.459" width="46.4458" height="46.4458" fill="#C4C4C4" stroke="#464646"/>
<rect x="878.078" y="215.459" width="46.4458" height="46.4458" fill="#C4C4C4" stroke="#464646"/>
<rect x="925.523" y="215.459" width="46.4458" height="46.4458" fill="#C4C4C4" stroke="#464646"/>
<rect x="972.969" y="215.459" width="46.4458" height="46.4458" fill="#C4C4C4" stroke="#464646"/>
<rect x="1020.42" y="215.459" width="46.4458" height="46.4458" fill="#C4C4C4" stroke="#464646"/>
<rect x="1067.86" y="215.459" width="46.4458" height="46.4458" fill="#C4C4C4" stroke="#464646"/>
<rect x="1115.31" y="215.459" width="46.4458" height="46.4458" fill="#C4C4C4" stroke="#464646"/>
<path d="M49.6403 230.777V248.231H47.5267V232.993H47.4244L43.1631 235.822V233.675L47.5267 230.777H49.6403Z" fill="#464646"/>
<path d="M89.2623 248.231V246.697L95.0236 240.39C95.6998 239.652 96.2566 239.01 96.6941 238.464C97.1316 237.913 97.4555 237.396 97.6657 236.913C97.8816 236.425 97.9896 235.913 97.9896 235.379C97.9896 234.765 97.8418 234.234 97.5464 233.785C97.2566 233.336 96.8589 232.99 96.3532 232.746C95.8475 232.501 95.2793 232.379 94.6486 232.379C93.9782 232.379 93.393 232.518 92.893 232.797C92.3986 233.069 92.0151 233.453 91.7424 233.947C91.4754 234.442 91.3418 235.021 91.3418 235.686H89.3305C89.3305 234.663 89.5663 233.765 90.0379 232.993C90.5094 232.22 91.1515 231.618 91.964 231.186C92.7822 230.754 93.6998 230.538 94.7168 230.538C95.7396 230.538 96.6458 230.754 97.4356 231.186C98.2254 231.618 98.8447 232.2 99.2935 232.933C99.7424 233.666 99.9668 234.481 99.9668 235.379C99.9668 236.021 99.8504 236.649 99.6174 237.263C99.3901 237.871 98.9924 238.55 98.4242 239.3C97.8617 240.044 97.0805 240.953 96.0805 242.027L92.16 246.22V246.356H100.274V248.231H89.2623Z" fill="#464646"/>
<path d="M379.399 248.47C378.229 248.47 377.195 248.263 376.297 247.848C375.405 247.427 374.709 246.851 374.209 246.118C373.709 245.379 373.462 244.538 373.468 243.595C373.462 242.856 373.607 242.175 373.902 241.55C374.198 240.919 374.601 240.393 375.112 239.973C375.629 239.547 376.206 239.277 376.843 239.163V239.061C376.007 238.845 375.343 238.376 374.848 237.655C374.354 236.927 374.11 236.101 374.115 235.175C374.11 234.288 374.334 233.496 374.789 232.797C375.243 232.098 375.868 231.547 376.664 231.143C377.465 230.74 378.377 230.538 379.399 230.538C380.411 230.538 381.314 230.74 382.11 231.143C382.905 231.547 383.53 232.098 383.985 232.797C384.445 233.496 384.678 234.288 384.683 235.175C384.678 236.101 384.425 236.927 383.925 237.655C383.431 238.376 382.774 238.845 381.956 239.061V239.163C382.587 239.277 383.155 239.547 383.661 239.973C384.166 240.393 384.57 240.919 384.871 241.55C385.172 242.175 385.325 242.856 385.331 243.595C385.325 244.538 385.07 245.379 384.564 246.118C384.064 246.851 383.368 247.427 382.476 247.848C381.59 248.263 380.564 248.47 379.399 248.47ZM379.399 246.595C380.189 246.595 380.871 246.467 381.445 246.211C382.019 245.956 382.462 245.595 382.774 245.129C383.087 244.663 383.246 244.118 383.252 243.493C383.246 242.834 383.075 242.251 382.74 241.746C382.405 241.24 381.948 240.842 381.368 240.552C380.794 240.263 380.138 240.118 379.399 240.118C378.655 240.118 377.99 240.263 377.405 240.552C376.825 240.842 376.368 241.24 376.033 241.746C375.703 242.251 375.541 242.834 375.547 243.493C375.541 244.118 375.692 244.663 375.999 245.129C376.311 245.595 376.757 245.956 377.337 246.211C377.916 246.467 378.604 246.595 379.399 246.595ZM379.399 238.311C380.024 238.311 380.578 238.186 381.061 237.936C381.55 237.686 381.933 237.336 382.212 236.888C382.49 236.439 382.632 235.913 382.638 235.311C382.632 234.72 382.493 234.206 382.22 233.768C381.948 233.325 381.57 232.984 381.087 232.746C380.604 232.501 380.041 232.379 379.399 232.379C378.746 232.379 378.175 232.501 377.686 232.746C377.198 232.984 376.82 233.325 376.553 233.768C376.286 234.206 376.155 234.72 376.161 235.311C376.155 235.913 376.289 236.439 376.561 236.888C376.84 237.336 377.223 237.686 377.712 237.936C378.2 238.186 378.763 238.311 379.399 238.311Z" fill="#464646"/>
<path d="M706.581 230.777V248.231H704.468V232.993H704.365L700.104 235.822V233.675L704.468 230.777H706.581ZM717.056 248.47C716.056 248.47 715.155 248.271 714.354 247.873C713.553 247.476 712.911 246.93 712.428 246.237C711.945 245.544 711.681 244.754 711.635 243.868H713.681C713.76 244.657 714.118 245.311 714.755 245.828C715.397 246.339 716.164 246.595 717.056 246.595C717.772 246.595 718.408 246.427 718.965 246.092C719.527 245.757 719.968 245.297 720.286 244.711C720.61 244.121 720.772 243.453 720.772 242.709C720.772 241.947 720.604 241.268 720.269 240.672C719.939 240.069 719.485 239.595 718.905 239.248C718.326 238.902 717.664 238.726 716.919 238.72C716.385 238.714 715.837 238.797 715.275 238.967C714.712 239.132 714.249 239.345 713.885 239.606L711.908 239.368L712.965 230.777H722.033V232.652H714.738L714.124 237.8H714.226C714.584 237.515 715.033 237.28 715.573 237.092C716.113 236.905 716.675 236.811 717.26 236.811C718.329 236.811 719.28 237.067 720.115 237.578C720.956 238.084 721.615 238.777 722.093 239.657C722.576 240.538 722.817 241.544 722.817 242.675C722.817 243.788 722.567 244.782 722.067 245.657C721.573 246.527 720.891 247.214 720.022 247.72C719.152 248.22 718.164 248.47 717.056 248.47Z" fill="#464646"/>
<path d="M935.788 248.231V246.697L941.549 240.39C942.225 239.652 942.782 239.01 943.219 238.464C943.657 237.913 943.981 237.396 944.191 236.913C944.407 236.425 944.515 235.913 944.515 235.379C944.515 234.765 944.367 234.234 944.072 233.785C943.782 233.336 943.384 232.99 942.879 232.746C942.373 232.501 941.805 232.379 941.174 232.379C940.504 232.379 939.918 232.518 939.418 232.797C938.924 233.069 938.541 233.453 938.268 233.947C938.001 234.442 937.867 235.021 937.867 235.686H935.856C935.856 234.663 936.092 233.765 936.563 232.993C937.035 232.22 937.677 231.618 938.489 231.186C939.308 230.754 940.225 230.538 941.242 230.538C942.265 230.538 943.171 230.754 943.961 231.186C944.751 231.618 945.37 232.2 945.819 232.933C946.268 233.666 946.492 234.481 946.492 235.379C946.492 236.021 946.376 236.649 946.143 237.263C945.916 237.871 945.518 238.55 944.95 239.3C944.387 240.044 943.606 240.953 942.606 242.027L938.685 246.22V246.356H946.799V248.231H935.788ZM956.012 248.47C954.728 248.47 953.634 248.121 952.731 247.422C951.827 246.717 951.137 245.697 950.66 244.362C950.183 243.021 949.944 241.402 949.944 239.504C949.944 237.618 950.183 236.007 950.66 234.672C951.143 233.331 951.836 232.308 952.739 231.603C953.648 230.893 954.739 230.538 956.012 230.538C957.285 230.538 958.373 230.893 959.276 231.603C960.185 232.308 960.879 233.331 961.356 234.672C961.839 236.007 962.08 237.618 962.08 239.504C962.08 241.402 961.842 243.021 961.364 244.362C960.887 245.697 960.197 246.717 959.293 247.422C958.39 248.121 957.296 248.47 956.012 248.47ZM956.012 246.595C957.285 246.595 958.273 245.981 958.978 244.754C959.683 243.527 960.035 241.777 960.035 239.504C960.035 237.993 959.873 236.706 959.549 235.643C959.231 234.581 958.771 233.771 958.168 233.214C957.572 232.657 956.853 232.379 956.012 232.379C954.751 232.379 953.765 233.001 953.055 234.246C952.344 235.484 951.989 237.237 951.989 239.504C951.989 241.015 952.148 242.3 952.467 243.356C952.785 244.413 953.242 245.217 953.839 245.768C954.441 246.319 955.166 246.595 956.012 246.595Z" fill="#464646"/>
<path d="M985.155 248.231V246.697L990.917 240.39C991.593 239.652 992.15 239.01 992.587 238.464C993.025 237.913 993.349 237.396 993.559 236.913C993.775 236.425 993.883 235.913 993.883 235.379C993.883 234.765 993.735 234.234 993.44 233.785C993.15 233.336 992.752 232.99 992.246 232.746C991.741 232.501 991.173 232.379 990.542 232.379C989.871 232.379 989.286 232.518 988.786 232.797C988.292 233.069 987.908 233.453 987.636 233.947C987.369 234.442 987.235 235.021 987.235 235.686H985.224C985.224 234.663 985.459 233.765 985.931 232.993C986.403 232.22 987.045 231.618 987.857 231.186C988.675 230.754 989.593 230.538 990.61 230.538C991.633 230.538 992.539 230.754 993.329 231.186C994.119 231.618 994.738 232.2 995.187 232.933C995.636 233.666 995.86 234.481 995.86 235.379C995.86 236.021 995.744 236.649 995.511 237.263C995.283 237.871 994.886 238.55 994.317 239.3C993.755 240.044 992.974 240.953 991.974 242.027L988.053 246.22V246.356H996.167V248.231H985.155ZM1005.82 230.777V248.231H1003.71V232.993H1003.61L999.346 235.822V233.675L1003.71 230.777H1005.82Z" fill="#464646"/>
<path d="M142.231 248.47C141.106 248.47 140.103 248.277 139.222 247.89C138.347 247.504 137.651 246.967 137.134 246.28C136.623 245.586 136.344 244.782 136.299 243.868H138.447C138.492 244.43 138.685 244.916 139.026 245.325C139.367 245.728 139.813 246.041 140.364 246.263C140.915 246.484 141.526 246.595 142.197 246.595C142.947 246.595 143.611 246.464 144.191 246.203C144.771 245.942 145.225 245.578 145.555 245.112C145.884 244.646 146.049 244.106 146.049 243.493C146.049 242.851 145.89 242.285 145.572 241.797C145.254 241.302 144.788 240.916 144.174 240.638C143.56 240.359 142.81 240.22 141.924 240.22H140.526V238.345H141.924C142.617 238.345 143.225 238.22 143.748 237.97C144.276 237.72 144.688 237.368 144.984 236.913C145.285 236.459 145.435 235.925 145.435 235.311C145.435 234.72 145.305 234.206 145.043 233.768C144.782 233.331 144.413 232.99 143.935 232.746C143.464 232.501 142.907 232.379 142.265 232.379C141.663 232.379 141.094 232.49 140.56 232.711C140.032 232.927 139.6 233.243 139.265 233.657C138.93 234.067 138.748 234.561 138.719 235.14H136.674C136.708 234.226 136.984 233.425 137.501 232.737C138.018 232.044 138.694 231.504 139.529 231.118C140.37 230.731 141.293 230.538 142.299 230.538C143.379 230.538 144.305 230.757 145.077 231.194C145.85 231.626 146.444 232.197 146.859 232.907C147.273 233.618 147.481 234.385 147.481 235.209C147.481 236.192 147.222 237.03 146.705 237.723C146.194 238.416 145.498 238.896 144.617 239.163V239.3C145.719 239.481 146.58 239.95 147.2 240.706C147.819 241.456 148.129 242.385 148.129 243.493C148.129 244.442 147.87 245.294 147.353 246.05C146.842 246.8 146.143 247.39 145.256 247.822C144.37 248.254 143.361 248.47 142.231 248.47Z" fill="#464646"/>
<path d="M426.718 230.538C427.434 230.544 428.149 230.68 428.865 230.947C429.581 231.214 430.235 231.657 430.826 232.277C431.417 232.89 431.891 233.728 432.249 234.791C432.607 235.853 432.786 237.186 432.786 238.788C432.786 240.339 432.638 241.717 432.343 242.922C432.053 244.121 431.632 245.132 431.081 245.956C430.536 246.78 429.871 247.405 429.087 247.831C428.309 248.257 427.428 248.47 426.445 248.47C425.468 248.47 424.596 248.277 423.828 247.89C423.067 247.498 422.442 246.956 421.953 246.263C421.471 245.564 421.161 244.754 421.024 243.834H423.104C423.292 244.635 423.664 245.297 424.221 245.819C424.783 246.336 425.524 246.595 426.445 246.595C427.792 246.595 428.854 246.007 429.632 244.831C430.417 243.655 430.809 241.993 430.809 239.845H430.672C430.354 240.322 429.976 240.734 429.539 241.081C429.101 241.427 428.615 241.694 428.081 241.882C427.547 242.069 426.979 242.163 426.377 242.163C425.377 242.163 424.459 241.916 423.624 241.422C422.794 240.922 422.13 240.237 421.63 239.368C421.135 238.493 420.888 237.493 420.888 236.368C420.888 235.3 421.127 234.322 421.604 233.436C422.087 232.544 422.763 231.834 423.632 231.305C424.507 230.777 425.536 230.521 426.718 230.538ZM426.718 232.413C426.002 232.413 425.357 232.592 424.783 232.95C424.215 233.302 423.763 233.78 423.428 234.382C423.098 234.978 422.934 235.64 422.934 236.368C422.934 237.095 423.093 237.757 423.411 238.353C423.735 238.944 424.175 239.416 424.732 239.768C425.294 240.115 425.934 240.288 426.649 240.288C427.189 240.288 427.692 240.183 428.158 239.973C428.624 239.757 429.03 239.464 429.377 239.095C429.729 238.72 430.005 238.297 430.203 237.825C430.402 237.348 430.502 236.851 430.502 236.334C430.502 235.652 430.337 235.013 430.007 234.416C429.684 233.819 429.235 233.336 428.661 232.967C428.093 232.598 427.445 232.413 426.718 232.413Z" fill="#464646"/>
<path d="M753.84 230.777V248.231H751.726V232.993H751.624L747.363 235.822V233.675L751.726 230.777H753.84ZM764.655 248.47C763.939 248.459 763.223 248.322 762.507 248.061C761.792 247.8 761.138 247.359 760.547 246.74C759.956 246.115 759.482 245.271 759.124 244.209C758.766 243.14 758.587 241.8 758.587 240.186C758.587 238.64 758.732 237.271 759.022 236.078C759.311 234.879 759.732 233.871 760.283 233.052C760.834 232.228 761.499 231.603 762.277 231.177C763.061 230.751 763.945 230.538 764.928 230.538C765.905 230.538 766.774 230.734 767.536 231.126C768.303 231.513 768.928 232.052 769.411 232.746C769.894 233.439 770.206 234.237 770.348 235.14H768.269C768.076 234.356 767.701 233.706 767.144 233.189C766.587 232.672 765.848 232.413 764.928 232.413C763.576 232.413 762.51 233.001 761.732 234.177C760.959 235.353 760.57 237.004 760.564 239.129H760.701C761.019 238.646 761.397 238.234 761.834 237.893C762.277 237.547 762.766 237.28 763.3 237.092C763.834 236.905 764.399 236.811 764.996 236.811C765.996 236.811 766.911 237.061 767.74 237.561C768.57 238.055 769.235 238.74 769.735 239.615C770.235 240.484 770.485 241.481 770.485 242.606C770.485 243.686 770.243 244.675 769.76 245.572C769.277 246.464 768.598 247.175 767.723 247.703C766.854 248.226 765.831 248.481 764.655 248.47ZM764.655 246.595C765.371 246.595 766.013 246.416 766.581 246.058C767.155 245.7 767.607 245.22 767.936 244.618C768.272 244.015 768.439 243.345 768.439 242.606C768.439 241.885 768.277 241.228 767.953 240.638C767.635 240.041 767.195 239.567 766.632 239.214C766.076 238.862 765.439 238.686 764.723 238.686C764.184 238.686 763.681 238.794 763.215 239.01C762.749 239.22 762.34 239.51 761.988 239.879C761.641 240.248 761.368 240.672 761.169 241.149C760.97 241.621 760.871 242.118 760.871 242.64C760.871 243.334 761.033 243.981 761.357 244.584C761.686 245.186 762.135 245.672 762.703 246.041C763.277 246.41 763.928 246.595 764.655 246.595Z" fill="#464646"/>
<path d="M183.311 244.652V242.913L190.982 230.777H192.243V233.47H191.391L185.595 242.64V242.777H195.925V244.652H183.311ZM191.527 248.231V244.123V243.314V230.777H193.539V248.231H191.527Z" fill="#464646"/>
<path d="M469.153 230.777V248.231H467.039V232.993H466.937L462.676 235.822V233.675L467.039 230.777H469.153ZM479.866 248.47C478.582 248.47 477.488 248.121 476.585 247.422C475.681 246.717 474.991 245.697 474.514 244.362C474.036 243.021 473.798 241.402 473.798 239.504C473.798 237.618 474.036 236.007 474.514 234.672C474.997 233.331 475.69 232.308 476.593 231.603C477.502 230.893 478.593 230.538 479.866 230.538C481.139 230.538 482.227 230.893 483.13 231.603C484.039 232.308 484.732 233.331 485.21 234.672C485.693 236.007 485.934 237.618 485.934 239.504C485.934 241.402 485.696 243.021 485.218 244.362C484.741 245.697 484.051 246.717 483.147 247.422C482.244 248.121 481.15 248.47 479.866 248.47ZM479.866 246.595C481.139 246.595 482.127 245.981 482.832 244.754C483.536 243.527 483.889 241.777 483.889 239.504C483.889 237.993 483.727 236.706 483.403 235.643C483.085 234.581 482.625 233.771 482.022 233.214C481.426 232.657 480.707 232.379 479.866 232.379C478.605 232.379 477.619 233.001 476.909 234.246C476.198 235.484 475.843 237.237 475.843 239.504C475.843 241.015 476.002 242.3 476.321 243.356C476.639 244.413 477.096 245.217 477.693 245.768C478.295 246.319 479.019 246.595 479.866 246.595Z" fill="#464646"/>
<path d="M801.918 230.777V248.231H799.805V232.993H799.703L795.441 235.822V233.675L799.805 230.777H801.918ZM807.484 248.231L815.291 232.788V232.652H806.291V230.777H817.472V232.754L809.7 248.231H807.484Z" fill="#464646"/>
<path d="M1030.91 248.231V246.697L1036.68 240.39C1037.35 239.652 1037.91 239.01 1038.35 238.464C1038.78 237.913 1039.11 237.396 1039.32 236.913C1039.53 236.425 1039.64 235.913 1039.64 235.379C1039.64 234.765 1039.49 234.234 1039.2 233.785C1038.91 233.336 1038.51 232.99 1038 232.746C1037.5 232.501 1036.93 232.379 1036.3 232.379C1035.63 232.379 1035.04 232.518 1034.54 232.797C1034.05 233.069 1033.67 233.453 1033.39 233.947C1033.13 234.442 1032.99 235.021 1032.99 235.686H1030.98C1030.98 234.663 1031.22 233.765 1031.69 232.993C1032.16 232.22 1032.8 231.618 1033.62 231.186C1034.43 230.754 1035.35 230.538 1036.37 230.538C1037.39 230.538 1038.3 230.754 1039.09 231.186C1039.88 231.618 1040.5 232.2 1040.94 232.933C1041.39 233.666 1041.62 234.481 1041.62 235.379C1041.62 236.021 1041.5 236.649 1041.27 237.263C1041.04 237.871 1040.64 238.55 1040.08 239.3C1039.51 240.044 1038.73 240.953 1037.73 242.027L1033.81 246.22V246.356H1041.93V248.231H1030.91ZM1045.44 248.231V246.697L1051.21 240.39C1051.88 239.652 1052.44 239.01 1052.88 238.464C1053.31 237.913 1053.64 237.396 1053.85 236.913C1054.06 236.425 1054.17 235.913 1054.17 235.379C1054.17 234.765 1054.02 234.234 1053.73 233.785C1053.44 233.336 1053.04 232.99 1052.54 232.746C1052.03 232.501 1051.46 232.379 1050.83 232.379C1050.16 232.379 1049.58 232.518 1049.08 232.797C1048.58 233.069 1048.2 233.453 1047.93 233.947C1047.66 234.442 1047.52 235.021 1047.52 235.686H1045.51C1045.51 234.663 1045.75 233.765 1046.22 232.993C1046.69 232.22 1047.33 231.618 1048.15 231.186C1048.96 230.754 1049.88 230.538 1050.9 230.538C1051.92 230.538 1052.83 230.754 1053.62 231.186C1054.41 231.618 1055.03 232.2 1055.48 232.933C1055.93 233.666 1056.15 234.481 1056.15 235.379C1056.15 236.021 1056.03 236.649 1055.8 237.263C1055.57 237.871 1055.18 238.55 1054.61 239.3C1054.04 240.044 1053.26 240.953 1052.26 242.027L1048.34 246.22V246.356H1056.46V248.231H1045.44Z" fill="#464646"/>
<path d="M1077.98 248.231V246.697L1083.75 240.39C1084.42 239.652 1084.98 239.01 1085.42 238.464C1085.85 237.913 1086.18 237.396 1086.39 236.913C1086.6 236.425 1086.71 235.913 1086.71 235.379C1086.71 234.765 1086.56 234.234 1086.27 233.785C1085.98 233.336 1085.58 232.99 1085.08 232.746C1084.57 232.501 1084 232.379 1083.37 232.379C1082.7 232.379 1082.12 232.518 1081.62 232.797C1081.12 233.069 1080.74 233.453 1080.46 233.947C1080.2 234.442 1080.06 235.021 1080.06 235.686H1078.05C1078.05 234.663 1078.29 233.765 1078.76 232.993C1079.23 232.22 1079.87 231.618 1080.69 231.186C1081.5 230.754 1082.42 230.538 1083.44 230.538C1084.46 230.538 1085.37 230.754 1086.16 231.186C1086.95 231.618 1087.57 232.2 1088.02 232.933C1088.46 233.666 1088.69 234.481 1088.69 235.379C1088.69 236.021 1088.57 236.649 1088.34 237.263C1088.11 237.871 1087.71 238.55 1087.15 239.3C1086.58 240.044 1085.8 240.953 1084.8 242.027L1080.88 246.22V246.356H1089V248.231H1077.98ZM1098.41 248.47C1097.29 248.47 1096.29 248.277 1095.4 247.89C1094.53 247.504 1093.83 246.967 1093.32 246.28C1092.81 245.586 1092.53 244.782 1092.48 243.868H1094.63C1094.67 244.43 1094.87 244.916 1095.21 245.325C1095.55 245.728 1096 246.041 1096.55 246.263C1097.1 246.484 1097.71 246.595 1098.38 246.595C1099.13 246.595 1099.79 246.464 1100.37 246.203C1100.95 245.942 1101.41 245.578 1101.74 245.112C1102.07 244.646 1102.23 244.106 1102.23 243.493C1102.23 242.851 1102.07 242.285 1101.75 241.797C1101.44 241.302 1100.97 240.916 1100.36 240.638C1099.74 240.359 1098.99 240.22 1098.11 240.22H1096.71V238.345H1098.11C1098.8 238.345 1099.41 238.22 1099.93 237.97C1100.46 237.72 1100.87 237.368 1101.17 236.913C1101.47 236.459 1101.62 235.925 1101.62 235.311C1101.62 234.72 1101.49 234.206 1101.23 233.768C1100.96 233.331 1100.6 232.99 1100.12 232.746C1099.65 232.501 1099.09 232.379 1098.45 232.379C1097.85 232.379 1097.28 232.49 1096.74 232.711C1096.21 232.927 1095.78 233.243 1095.45 233.657C1095.11 234.067 1094.93 234.561 1094.9 235.14H1092.86C1092.89 234.226 1093.17 233.425 1093.68 232.737C1094.2 232.044 1094.88 231.504 1095.71 231.118C1096.55 230.731 1097.48 230.538 1098.48 230.538C1099.56 230.538 1100.49 230.757 1101.26 231.194C1102.03 231.626 1102.63 232.197 1103.04 232.907C1103.46 233.618 1103.66 234.385 1103.66 235.209C1103.66 236.192 1103.4 237.03 1102.89 237.723C1102.38 238.416 1101.68 238.896 1100.8 239.163V239.3C1101.9 239.481 1102.76 239.95 1103.38 240.706C1104 241.456 1104.31 242.385 1104.31 243.493C1104.31 244.442 1104.05 245.294 1103.54 246.05C1103.02 246.8 1102.33 247.39 1101.44 247.822C1100.55 248.254 1099.54 248.47 1098.41 248.47Z" fill="#464646"/>
<path d="M237.019 248.47C236.019 248.47 235.119 248.271 234.318 247.873C233.517 247.476 232.875 246.93 232.392 246.237C231.909 245.544 231.644 244.754 231.599 243.868H233.644C233.724 244.657 234.082 245.311 234.718 245.828C235.36 246.339 236.127 246.595 237.019 246.595C237.735 246.595 238.372 246.427 238.929 246.092C239.491 245.757 239.931 245.297 240.25 244.711C240.573 244.121 240.735 243.453 240.735 242.709C240.735 241.947 240.568 241.268 240.233 240.672C239.903 240.069 239.448 239.595 238.869 239.248C238.289 238.902 237.627 238.726 236.883 238.72C236.349 238.714 235.801 238.797 235.238 238.967C234.676 239.132 234.213 239.345 233.849 239.606L231.872 239.368L232.929 230.777H241.997V232.652H234.701L234.088 237.8H234.19C234.548 237.515 234.997 237.28 235.536 237.092C236.076 236.905 236.639 236.811 237.224 236.811C238.292 236.811 239.244 237.067 240.079 237.578C240.92 238.084 241.579 238.777 242.056 239.657C242.539 240.538 242.781 241.544 242.781 242.675C242.781 243.788 242.531 244.782 242.031 245.657C241.536 246.527 240.855 247.214 239.985 247.72C239.116 248.22 238.127 248.47 237.019 248.47Z" fill="#464646"/>
<path d="M518.521 230.777V248.231H516.407V232.993H516.305L512.043 235.822V233.675L516.407 230.777H518.521ZM529.677 230.777V248.231H527.563V232.993H527.461L523.2 235.822V233.675L527.563 230.777H529.677Z" fill="#464646"/>
<path d="M848.825 230.777V248.231H846.712V232.993H846.609L842.348 235.822V233.675L846.712 230.777H848.825ZM859.436 248.47C858.266 248.47 857.232 248.263 856.334 247.848C855.442 247.427 854.746 246.851 854.246 246.118C853.746 245.379 853.499 244.538 853.504 243.595C853.499 242.856 853.644 242.175 853.939 241.55C854.234 240.919 854.638 240.393 855.149 239.973C855.666 239.547 856.243 239.277 856.879 239.163V239.061C856.044 238.845 855.379 238.376 854.885 237.655C854.391 236.927 854.146 236.101 854.152 235.175C854.146 234.288 854.371 233.496 854.825 232.797C855.28 232.098 855.905 231.547 856.7 231.143C857.502 230.74 858.413 230.538 859.436 230.538C860.448 230.538 861.351 230.74 862.146 231.143C862.942 231.547 863.567 232.098 864.021 232.797C864.482 233.496 864.715 234.288 864.72 235.175C864.715 236.101 864.462 236.927 863.962 237.655C863.467 238.376 862.811 238.845 861.993 239.061V239.163C862.624 239.277 863.192 239.547 863.698 239.973C864.203 240.393 864.607 240.919 864.908 241.55C865.209 242.175 865.362 242.856 865.368 243.595C865.362 244.538 865.107 245.379 864.601 246.118C864.101 246.851 863.405 247.427 862.513 247.848C861.627 248.263 860.601 248.47 859.436 248.47ZM859.436 246.595C860.226 246.595 860.908 246.467 861.482 246.211C862.056 245.956 862.499 245.595 862.811 245.129C863.124 244.663 863.283 244.118 863.288 243.493C863.283 242.834 863.112 242.251 862.777 241.746C862.442 241.24 861.984 240.842 861.405 240.552C860.831 240.263 860.175 240.118 859.436 240.118C858.692 240.118 858.027 240.263 857.442 240.552C856.862 240.842 856.405 241.24 856.07 241.746C855.74 242.251 855.578 242.834 855.584 243.493C855.578 244.118 855.729 244.663 856.036 245.129C856.348 245.595 856.794 245.956 857.374 246.211C857.953 246.467 858.641 246.595 859.436 246.595ZM859.436 238.311C860.061 238.311 860.615 238.186 861.098 237.936C861.587 237.686 861.97 237.336 862.249 236.888C862.527 236.439 862.669 235.913 862.675 235.311C862.669 234.72 862.53 234.206 862.257 233.768C861.984 233.325 861.607 232.984 861.124 232.746C860.641 232.501 860.078 232.379 859.436 232.379C858.783 232.379 858.212 232.501 857.723 232.746C857.234 232.984 856.857 233.325 856.59 233.768C856.323 234.206 856.192 234.72 856.198 235.311C856.192 235.913 856.325 236.439 856.598 236.888C856.877 237.336 857.26 237.686 857.749 237.936C858.237 238.186 858.8 238.311 859.436 238.311Z" fill="#464646"/>
<path d="M284.619 248.47C283.903 248.459 283.187 248.322 282.471 248.061C281.755 247.8 281.101 247.359 280.511 246.74C279.92 246.115 279.445 245.271 279.087 244.209C278.729 243.14 278.55 241.8 278.55 240.186C278.55 238.64 278.695 237.271 278.985 236.078C279.275 234.879 279.695 233.871 280.246 233.052C280.798 232.228 281.462 231.603 282.241 231.177C283.025 230.751 283.908 230.538 284.891 230.538C285.869 230.538 286.738 230.734 287.499 231.126C288.266 231.513 288.891 232.052 289.374 232.746C289.857 233.439 290.17 234.237 290.312 235.14H288.232C288.039 234.356 287.664 233.706 287.107 233.189C286.55 232.672 285.812 232.413 284.891 232.413C283.539 232.413 282.474 233.001 281.695 234.177C280.923 235.353 280.533 237.004 280.528 239.129H280.664C280.982 238.646 281.36 238.234 281.798 237.893C282.241 237.547 282.729 237.28 283.263 237.092C283.798 236.905 284.363 236.811 284.959 236.811C285.959 236.811 286.874 237.061 287.704 237.561C288.533 238.055 289.198 238.74 289.698 239.615C290.198 240.484 290.448 241.481 290.448 242.606C290.448 243.686 290.207 244.675 289.724 245.572C289.241 246.464 288.562 247.175 287.687 247.703C286.817 248.226 285.795 248.481 284.619 248.47ZM284.619 246.595C285.334 246.595 285.976 246.416 286.545 246.058C287.119 245.7 287.57 245.22 287.9 244.618C288.235 244.015 288.403 243.345 288.403 242.606C288.403 241.885 288.241 241.228 287.917 240.638C287.599 240.041 287.158 239.567 286.596 239.214C286.039 238.862 285.403 238.686 284.687 238.686C284.147 238.686 283.644 238.794 283.178 239.01C282.712 239.22 282.303 239.51 281.951 239.879C281.604 240.248 281.332 240.672 281.133 241.149C280.934 241.621 280.834 242.118 280.834 242.64C280.834 243.334 280.996 243.981 281.32 244.584C281.65 245.186 282.099 245.672 282.667 246.041C283.241 246.41 283.891 246.595 284.619 246.595Z" fill="#464646"/>
<path d="M611.35 230.777V248.231H609.236V232.993H609.134L604.873 235.822V233.675L609.236 230.777H611.35ZM622.267 248.47C621.142 248.47 620.14 248.277 619.259 247.89C618.384 247.504 617.688 246.967 617.171 246.28C616.659 245.586 616.381 244.782 616.336 243.868H618.483C618.529 244.43 618.722 244.916 619.063 245.325C619.404 245.728 619.85 246.041 620.401 246.263C620.952 246.484 621.563 246.595 622.233 246.595C622.983 246.595 623.648 246.464 624.228 246.203C624.807 245.942 625.262 245.578 625.591 245.112C625.921 244.646 626.086 244.106 626.086 243.493C626.086 242.851 625.927 242.285 625.608 241.797C625.29 241.302 624.824 240.916 624.211 240.638C623.597 240.359 622.847 240.22 621.961 240.22H620.563V238.345H621.961C622.654 238.345 623.262 238.22 623.784 237.97C624.313 237.72 624.725 237.368 625.02 236.913C625.321 236.459 625.472 235.925 625.472 235.311C625.472 234.72 625.341 234.206 625.08 233.768C624.819 233.331 624.449 232.99 623.972 232.746C623.5 232.501 622.944 232.379 622.302 232.379C621.699 232.379 621.131 232.49 620.597 232.711C620.069 232.927 619.637 233.243 619.302 233.657C618.966 234.067 618.784 234.561 618.756 235.14H616.711C616.745 234.226 617.02 233.425 617.537 232.737C618.054 232.044 618.731 231.504 619.566 231.118C620.407 230.731 621.33 230.538 622.336 230.538C623.415 230.538 624.341 230.757 625.114 231.194C625.887 231.626 626.481 232.197 626.895 232.907C627.31 233.618 627.517 234.385 627.517 235.209C627.517 236.192 627.259 237.03 626.742 237.723C626.231 238.416 625.534 238.896 624.654 239.163V239.3C625.756 239.481 626.617 239.95 627.236 240.706C627.856 241.456 628.165 242.385 628.165 243.493C628.165 244.442 627.907 245.294 627.39 246.05C626.878 246.8 626.179 247.39 625.293 247.822C624.407 248.254 623.398 248.47 622.267 248.47Z" fill="#464646"/>
<path d="M327.447 248.231L335.254 232.788V232.652H326.254V230.777H337.436V232.754L329.663 248.231H327.447Z" fill="#464646"/>
<path d="M658.737 230.777V248.231H656.623V232.993H656.521L652.26 235.822V233.675L656.623 230.777H658.737ZM663.348 244.652V242.913L671.018 230.777H672.28V233.47H671.427L665.632 242.64V242.777H675.961V244.652H663.348ZM671.564 248.231V244.123V243.314V230.777H673.575V248.231H671.564Z" fill="#464646"/>
<path d="M564.279 230.777V248.231H562.166V232.993H562.063L557.802 235.822V233.675L562.166 230.777H564.279ZM569.299 248.231V246.697L575.061 240.39C575.737 239.652 576.293 239.01 576.731 238.464C577.168 237.913 577.492 237.396 577.703 236.913C577.918 236.425 578.026 235.913 578.026 235.379C578.026 234.765 577.879 234.234 577.583 233.785C577.293 233.336 576.896 232.99 576.39 232.746C575.884 232.501 575.316 232.379 574.686 232.379C574.015 232.379 573.43 232.518 572.93 232.797C572.436 233.069 572.052 233.453 571.779 233.947C571.512 234.442 571.379 235.021 571.379 235.686H569.367C569.367 234.663 569.603 233.765 570.075 232.993C570.546 232.22 571.188 231.618 572.001 231.186C572.819 230.754 573.737 230.538 574.754 230.538C575.776 230.538 576.683 230.754 577.472 231.186C578.262 231.618 578.882 232.2 579.33 232.933C579.779 233.666 580.004 234.481 580.004 235.379C580.004 236.021 579.887 236.649 579.654 237.263C579.427 237.871 579.029 238.55 578.461 239.3C577.899 240.044 577.117 240.953 576.117 242.027L572.197 246.22V246.356H580.311V248.231H569.299Z" fill="#464646"/>
<path d="M896.177 230.777V248.231H894.064V232.993H893.962L889.7 235.822V233.675L894.064 230.777H896.177ZM906.754 230.538C907.47 230.544 908.186 230.68 908.902 230.947C909.618 231.214 910.271 231.657 910.862 232.277C911.453 232.89 911.927 233.728 912.285 234.791C912.643 235.853 912.822 237.186 912.822 238.788C912.822 240.339 912.675 241.717 912.379 242.922C912.089 244.121 911.669 245.132 911.118 245.956C910.572 246.78 909.908 247.405 909.123 247.831C908.345 248.257 907.464 248.47 906.481 248.47C905.504 248.47 904.632 248.277 903.865 247.89C903.104 247.498 902.479 246.956 901.99 246.263C901.507 245.564 901.197 244.754 901.061 243.834H903.141C903.328 244.635 903.7 245.297 904.257 245.819C904.82 246.336 905.561 246.595 906.481 246.595C907.828 246.595 908.891 246.007 909.669 244.831C910.453 243.655 910.845 241.993 910.845 239.845H910.709C910.391 240.322 910.013 240.734 909.575 241.081C909.138 241.427 908.652 241.694 908.118 241.882C907.584 242.069 907.016 242.163 906.413 242.163C905.413 242.163 904.496 241.916 903.66 241.422C902.831 240.922 902.166 240.237 901.666 239.368C901.172 238.493 900.925 237.493 900.925 236.368C900.925 235.3 901.163 234.322 901.641 233.436C902.123 232.544 902.8 231.834 903.669 231.305C904.544 230.777 905.572 230.521 906.754 230.538ZM906.754 232.413C906.038 232.413 905.393 232.592 904.82 232.95C904.251 233.302 903.8 233.78 903.464 234.382C903.135 234.978 902.97 235.64 902.97 236.368C902.97 237.095 903.129 237.757 903.447 238.353C903.771 238.944 904.212 239.416 904.768 239.768C905.331 240.115 905.97 240.288 906.686 240.288C907.226 240.288 907.729 240.183 908.195 239.973C908.66 239.757 909.067 239.464 909.413 239.095C909.766 238.72 910.041 238.297 910.24 237.825C910.439 237.348 910.538 236.851 910.538 236.334C910.538 235.652 910.373 235.013 910.044 234.416C909.72 233.819 909.271 233.336 908.697 232.967C908.129 232.598 907.481 232.413 906.754 232.413Z" fill="#464646"/>
<path d="M1125.56 248.231V246.697L1131.32 240.39C1132 239.652 1132.55 239.01 1132.99 238.464C1133.43 237.913 1133.75 237.396 1133.96 236.913C1134.18 236.425 1134.29 235.913 1134.29 235.379C1134.29 234.765 1134.14 234.234 1133.84 233.785C1133.55 233.336 1133.16 232.99 1132.65 232.746C1132.14 232.501 1131.58 232.379 1130.95 232.379C1130.28 232.379 1129.69 232.518 1129.19 232.797C1128.7 233.069 1128.31 233.453 1128.04 233.947C1127.77 234.442 1127.64 235.021 1127.64 235.686H1125.63C1125.63 234.663 1125.86 233.765 1126.33 232.993C1126.81 232.22 1127.45 231.618 1128.26 231.186C1129.08 230.754 1130 230.538 1131.01 230.538C1132.04 230.538 1132.94 230.754 1133.73 231.186C1134.52 231.618 1135.14 232.2 1135.59 232.933C1136.04 233.666 1136.26 234.481 1136.26 235.379C1136.26 236.021 1136.15 236.649 1135.91 237.263C1135.69 237.871 1135.29 238.55 1134.72 239.3C1134.16 240.044 1133.38 240.953 1132.38 242.027L1128.46 246.22V246.356H1136.57V248.231H1125.56ZM1139.31 244.652V242.913L1146.98 230.777H1148.24V233.47H1147.39L1141.59 242.64V242.777H1151.92V244.652H1139.31ZM1147.52 248.231V244.123V243.314V230.777H1149.53V248.231H1147.52Z" fill="#464646"/>
<rect x="70.8175" y="103.116" width="143" height="111.535" fill="#E6A352"/>
<path d="M82.8141 79H202.301L213.818 103.116H70.8175L82.8141 79Z" fill="#E6A352" fill-opacity="0.7"/>
<path d="M137.039 79H148.076L149.036 103.116H136.079L137.039 79Z" fill="#C4C4C4" fill-opacity="0.7"/>
<rect x="136.079" y="103.116" width="12.9564" height="25.1205" fill="#C4C4C4"/>
<rect x="260.818" y="162.37" width="141" height="52.5849" fill="#E6A352"/>
<path d="M272.646 151H390.462L401.818 162.37H260.818L272.646 151Z" fill="#E6A352" fill-opacity="0.7"/>
<path d="M326.113 151H336.995L337.942 162.37H325.167L326.113 151Z" fill="#C4C4C4" fill-opacity="0.7"/>
<rect x="325.167" y="162.37" width="12.7752" height="11.8434" fill="#C4C4C4"/>
<rect x="501.754" y="75.3179" width="186.614" height="139.216" fill="#E6A352"/>
<path d="M517.409 45.2168H673.338L688.367 75.3175H501.754L517.409 45.2168Z" fill="#E6A352" fill-opacity="0.7"/>
<path d="M588.172 45.2168H602.575L603.828 75.3175H586.92L588.172 45.2168Z" fill="#C4C4C4" fill-opacity="0.7"/>
<rect x="586.92" y="75.3179" width="16.908" height="31.3549" fill="#C4C4C4"/>
<rect x="877.818" y="103" width="94.8917" height="111.535" fill="#E6A352"/>
<path d="M885.415 78.8652H964.704L972.346 102.981H877.454L885.415 78.8652Z" fill="#E6A352" fill-opacity="0.7"/>
<path d="M921.397 78.8652H928.721L929.358 102.981H920.76L921.397 78.8652Z" fill="#C4C4C4" fill-opacity="0.7"/>
<rect x="920.76" y="102.981" width="8.59757" height="25.1205" fill="#C4C4C4"/>
<rect x="782.818" y="157.34" width="47.5092" height="57.0705" fill="#E6A352"/>
<path d="M786.803 145H826.5L830.327 157.34H782.818L786.803 145Z" fill="#E6A352" fill-opacity="0.7"/>
<path d="M804.818 145H808.485L808.804 157.34H804.499L804.818 145Z" fill="#C4C4C4" fill-opacity="0.7"/>
<rect x="804.499" y="157.34" width="4.30452" height="12.8537" fill="#C4C4C4"/>
<rect x="1023.66" y="161.948" width="94.8917" height="52.5849" fill="#E6A352"/>
<path d="M1031.62 150.578H1110.91L1118.55 161.948H1023.66L1031.62 150.578Z" fill="#E6A352" fill-opacity="0.7"/>
<path d="M1067.6 150.578H1074.92L1075.56 161.948H1066.96L1067.6 150.578Z" fill="#C4C4C4" fill-opacity="0.7"/>
<rect x="1066.96" y="161.948" width="8.59757" height="11.8434" fill="#C4C4C4"/>
<path d="M50.002 192.677L50.8332 171.621H59.8674L60.6986 192.677H50.002Z" fill="#C4C4C4" stroke="#444B5B" stroke-width="0.75"/>
<circle cx="55.3501" cy="200.225" r="14.2805" fill="#303140" stroke="#7BD5E0" stroke-width="3"/>
<path d="M50.7589 176.023C52.3848 175.449 56.4973 174.646 59.9403 176.023" stroke="#444B5B" stroke-width="0.5" stroke-linecap="round"/>
<path d="M50.4732 179.366C52.0991 178.793 56.2116 177.989 59.6546 179.366" stroke="#444B5B" stroke-width="0.5" stroke-linecap="round"/>
<path d="M50.7589 182.809C52.3848 182.235 56.4973 181.432 59.9403 182.809" stroke="#444B5B" stroke-width="0.5" stroke-linecap="round"/>
<path d="M23.9398 114.88C24.7645 108.948 29.8366 104.532 35.8256 104.532H75.1733C81.0849 104.532 86.1158 108.838 87.0292 114.678L94.0144 159.344C95.1251 166.446 89.7849 172.925 82.6012 173.19L54.1414 174.241L29.1254 173.227C22.0414 172.94 16.7492 166.607 17.7254 159.585L23.9398 114.88Z" fill="#7BD5E0"/>
<path d="M23.4927 116.544L19.1075 151.078C18.8063 153.45 20.2158 155.713 22.5114 156.381C34.7135 159.931 56.865 164.122 84.5446 157.528C86.8641 156.975 88.4112 154.794 88.2312 152.416C86.8186 133.762 84.8826 121.953 82.8106 115.166C82.0828 112.782 79.5275 111.67 77.0954 112.215C61.9558 115.606 41.6188 114.071 29.5672 112.117C26.6607 111.645 23.8636 113.623 23.4927 116.544Z" fill="#9BE3EC"/>
<path d="M91.115 148.035C96.0155 143.564 101.494 132.023 103.621 126.811C101.45 125.918 97.3671 124.259 98.4075 124.764C99.4478 125.269 90.8385 138.494 86.4038 145.044C86.9536 146.015 89.7737 147.443 91.115 148.035Z" fill="#C4C4C4" stroke="#444B5B" stroke-width="0.5"/>
<path d="M21.5813 149.247C16.7924 144.656 11.5994 132.983 9.60153 127.721C11.7943 126.881 15.9167 125.323 14.8642 125.802C13.8117 126.282 22.0927 139.715 26.3647 146.372C25.7912 147.329 22.9368 148.687 21.5813 149.247Z" fill="#C4C4C4" stroke="#444B5B" stroke-width="0.5"/>
<path d="M101.276 71.7094C101.276 91.8933 112.105 108.256 55.9318 108.256C-0.240998 108.256 10.2492 91.8933 10.2492 71.7094C10.2492 51.5256 32.4774 35.1633 55.9318 35.1633C79.3862 35.1633 101.276 51.5256 101.276 71.7094Z" fill="#7BD5E0"/>
<path d="M101.693 69.4015C101.693 88.4978 112.53 104.533 56.3102 104.533C0.0902624 104.533 10.5892 88.4978 10.5892 69.4015C10.5892 50.3053 32.8361 34.8247 56.3102 34.8247C79.7843 34.8247 101.693 50.3053 101.693 69.4015Z" fill="#9BE3E8"/>
<path d="M14.5508 64.9406C14.5508 74.285 12.1267 94.8881 9.13653 94.8881C2.87631 94.8881 0 86.1287 0 76.7843C0 67.4399 2.42404 59.8648 5.41424 59.8648C13.5644 59.8648 14.5508 55.5963 14.5508 64.9406Z" fill="#303140"/>
<path d="M14.5508 64.2491C14.5508 72.0672 12.1267 89.3051 9.13653 89.3051C2.87631 89.3051 0 81.9764 0 74.1583C0 66.3402 2.42404 60.0024 5.41424 60.0024C13.5644 60.0024 14.5508 56.4311 14.5508 64.2491Z" fill="#4A4E62"/>
<path d="M97.1168 65.2371C97.1168 74.5815 99.5409 95.1846 102.531 95.1846C108.791 95.1846 111.668 86.4252 111.668 77.0808C111.668 67.7364 109.244 60.1613 106.253 60.1613C98.1032 60.1613 97.1168 55.8928 97.1168 65.2371Z" fill="#353D4D"/>
<path d="M31.4374 121.743C32.2601 115.809 37.3331 111.391 43.3237 111.391H67.9642C73.8776 111.391 78.9095 115.699 79.8209 121.542L84.2074 149.665C85.3148 156.765 79.9758 163.24 72.7946 163.506L54.5967 164.18L38.9322 163.543C31.8505 163.256 26.5596 156.926 27.5329 149.905L31.4374 121.743Z" fill="#444B5B"/>
<circle cx="13.1972" cy="115.7" r="13.1972" fill="#353D4D"/>
<path d="M26.0557 113.331C26.0557 118.47 21.1673 122.467 14.7196 122.467C8.27202 122.467 0.507263 118.301 0.507263 113.162C0.507263 108.022 6.74926 102.502 13.1969 102.502C19.6445 102.502 26.0557 108.191 26.0557 113.331Z" fill="#444B5B"/>
<circle cx="98.4712" cy="115.7" r="13.1972" fill="#353D4D"/>
<ellipse cx="24.8832" cy="151.573" rx="9.91681" ry="5.43063" transform="rotate(-40.5495 24.8832 151.573)" fill="#7BD5E0"/>
<ellipse cx="9.91681" cy="5.43063" rx="9.91681" ry="5.43063" transform="matrix(-0.759844 -0.650105 -0.650105 0.759844 95.9489 154.894)" fill="#7BD5E0"/>
<ellipse cx="24.7609" cy="150.428" rx="9.02168" ry="4.31986" transform="rotate(-31.8227 24.7609 150.428)" fill="#90E2EB"/>
<ellipse cx="9.02168" cy="4.31986" rx="9.02168" ry="4.31986" transform="matrix(-0.849684 -0.527292 -0.527292 0.849684 94.7043 151.514)" fill="#90E2EB"/>
<path d="M103.642 47.3534C60.1685 60.2467 21.8883 52.2435 8.18232 46.6302C5.6202 49.6883 7.11477 53.6898 8.18232 55.3084C45.705 68.119 87.4565 60.6461 103.642 55.3084C106.535 51.3412 104.847 48.3521 103.642 47.3534Z" fill="#FECA00" stroke="#353D4D" stroke-width="3"/>
<path d="M102.331 47.2147C66.7089 60.1906 25.5704 52.6213 9.45384 47.2147C5.89994 30.6022 17.7532 20.3882 24.124 17.3577C28.835 10.4979 44.132 6.1657 51.1916 4.85709C51.8528 1.88172 52.1932 1.66116 56.5323 2.28095C61.8326 1.55781 61.0061 3.58292 61.8326 4.85709C73.4035 6.67536 84.5611 14.4306 88.6936 18.0809C104.48 26.0979 104.362 40.8438 102.331 47.2147Z" fill="#FEE200" stroke="#353D4D" stroke-width="3"/>
<path d="M101.566 47.3308C66.5389 58.0122 26.0873 51.7814 10.2399 47.3308C6.74534 33.6559 18.4006 25.248 24.6651 22.7534C29.2974 17.1065 44.3389 13.5404 51.2806 12.4632C51.9308 10.014 52.2655 9.8324 56.5322 10.3426C61.744 9.74733 60.9313 11.4143 61.744 12.4632C73.1216 13.96 84.0929 20.3439 88.1564 23.3487C103.679 29.948 103.564 42.0865 101.566 47.3308Z" fill="#FEC900"/>
<path d="M50.753 5.91125V53.8279M62.6507 6.53522V54.4519" stroke="#353D4D" stroke-width="3"/>
<path d="M44.4604 8.64612C43.961 8.72628 40.2703 9.69277 39.5709 10.3921V42.5578C40.2991 43.4263 42.2965 44.6421 44.4604 42.5578V8.64612Z" fill="#FFA616"/>
<path d="M68.9823 8.84595C69.478 8.92805 72.4401 9.69369 73.8389 11.0924L73.8366 41.8935C73.1137 42.7829 71.1306 44.0281 68.9823 41.8935V8.84595Z" fill="#FFA616"/>
<ellipse cx="28.6339" cy="31.6438" rx="6.61192" ry="4.54569" transform="rotate(-35.3944 28.6339 31.6438)" fill="#FFE200"/>
<ellipse cx="20.5398" cy="38.4716" rx="2.71657" ry="1.86764" transform="rotate(-156.631 20.5398 38.4716)" fill="#FEE200"/>
<path d="M102.575 50.9122C58.6886 64.7804 22.7271 56.3771 9.45286 50.5986C9.13932 50.9122 9.45285 52.4799 9.82169 53.4506C10.2569 54.596 53.4901 68.2065 101.948 53.4205C102.261 52.7934 102.888 51.5393 102.575 50.9122Z" fill="#FFA519"/>
<path d="M97.1168 64.2491C97.1168 72.0672 99.5409 89.3051 102.531 89.3051C108.791 89.3051 111.668 81.9764 111.668 74.1583C111.668 66.3402 109.244 60.0024 106.253 60.0024C98.1032 60.0024 97.1168 56.4311 97.1168 64.2491Z" fill="#4A4E62"/>
<path d="M111.499 113.331C111.499 118.47 106.61 122.467 100.162 122.467C93.7148 122.467 85.6117 118.47 85.6117 113.331C85.6117 108.191 91.8719 102.333 98.6397 102.502C105.087 102.502 111.499 108.191 111.499 113.331Z" fill="#444B5B"/>
<path d="M8.17416 63.4242C6.10157 64.0442 3.86823 65.7437 3.59093 69.9772" stroke="#686C81" stroke-width="5" stroke-linecap="round"/>
<path d="M103.547 63.3737C105.619 63.9938 107.853 65.6933 108.13 69.9268" stroke="#686C81" stroke-width="5" stroke-linecap="round"/>
<ellipse cx="10.6586" cy="108.593" rx="3.55309" ry="2.70712" fill="#686C81"/>
<ellipse cx="102.479" cy="108.452" rx="3.55309" ry="2.70712" transform="rotate(24.0274 102.479 108.452)" fill="#686C81"/>
<circle cx="42.1285" cy="72.2165" r="4.90665" fill="#303140"/>
<circle cx="41.4526" cy="72.8935" r="1.86114" fill="white"/>
<circle cx="43.1436" cy="70.1859" r="0.845975" fill="white"/>
<circle cx="70.2149" cy="72.2165" r="4.90665" fill="#303140"/>
<path d="M48.0504 85.2443C50.5319 88.741 57.1869 92.6888 64.2931 85.2443" stroke="#303140" stroke-width="2" stroke-linecap="round"/>
<circle cx="70.2147" cy="72.8935" r="1.86114" fill="white"/>
<circle cx="71.9071" cy="70.1859" r="0.845975" fill="white"/>
<path d="M20.8175 153.171C21.7649 153.15 24.2404 152.322 26.5632 149.178" stroke="#D7FBFB" stroke-width="2" stroke-linecap="round"/>
<path d="M88.5853 152.171C87.6379 152.15 85.1624 151.322 82.8396 148.178" stroke="#D7FBFB" stroke-width="2" stroke-linecap="round"/>
<circle cx="41.2826" cy="116.715" r="1.01517" fill="#9BE3E8"/>
<circle cx="39.252" cy="153.6" r="1.01517" fill="#9BE3E8"/>
<circle cx="70.7235" cy="116.715" r="1.01517" fill="#9BE3E8"/>
<circle cx="73.0913" cy="153.261" r="1.01517" fill="#9BE3E8"/>
<path d="M95.5255 131.116C96.6967 130.664 98.4906 131.225 99.883 133.75M93.4044 134.998C94.7342 134.716 97.1891 134.344 98.2742 137.155M90.8072 138.367C92.137 138.086 94.5846 137.911 95.6408 141.512M88.7221 141.26C90.04 141.308 92.8445 142.202 93.5198 145.394" stroke="#444B5B" stroke-width="0.5" stroke-linecap="round"/>
<path d="M27.0248 127C26.0924 129.098 24.3673 134.973 24.9268 141.687" stroke="#D7FBFB" stroke-width="2" stroke-linecap="round"/>
<path d="M11.3229 130.929C11.9906 130.278 13.4186 129.472 15.7921 129.502M12.7623 134.409C13.4342 133.429 15.3689 131.673 17.7323 132.494M14.6899 138.39C15.3618 137.41 16.8958 136.045 19.6599 136.475M17.1056 142.872C17.7817 141.562 19.7248 139.147 22.0882 139.968M19.534 146.365C20.0473 144.888 22.0555 142.54 24.0284 142.96" stroke="#444B5B" stroke-width="0.5" stroke-linecap="round"/>
<path d="M56.3546 186.632C57.5979 186.632 59.4628 186.866 61.9495 188.031" stroke="#D8FFFD" stroke-width="0.75" stroke-linecap="round"/>
<path d="M50.7605 188.031C47.6939 188.963 41.7332 193.066 42.4232 202.018" stroke="#D8FFFD" stroke-width="0.75" stroke-linecap="round"/>
<path d="M52.4521 187.178C52.9514 187.051 54.0639 186.815 54.5189 186.876" stroke="#D8FFFD" stroke-width="0.75" stroke-linecap="round"/>
<circle cx="55.6561" cy="199.92" r="2.09809" fill="#7BD5E0"/>
<path d="M15.2262 153.303C16.4557 175.864 35.7418 193.157 58.3029 191.927C80.864 190.698 98.1567 171.412 96.9272 148.851C95.6977 126.289 76.4116 108.997 53.8505 110.226C31.2894 111.456 13.9967 130.742 15.2262 153.303Z" fill="#E57E25"/>
<path d="M16.4758 156.599C21.4986 151.246 30.1223 149.164 36.5435 151.748C31.3426 160.106 27.7856 169.382 26.0636 179.076C26.7983 179.872 27.569 180.63 28.3635 181.364C28.5689 181.157 28.706 180.892 28.7564 180.604C30.3535 170.861 33.8742 161.535 39.113 153.169C43.0101 155.869 45.1056 160.549 45.0244 166.704L45.0228 166.783L45.03 166.864C45.8812 175.721 51.4383 183.567 59.8936 187.847C62.4625 189.156 65.2178 190.06 68.0623 190.528C70.4318 189.814 72.7313 188.886 74.9325 187.754C70.4895 188.343 65.706 187.502 61.2157 185.23C53.6857 181.418 48.7343 174.481 47.9543 166.66C48.0485 157.749 44.2679 153.094 40.7375 150.685C42.7575 147.722 44.9868 144.907 47.4085 142.262C58.4145 151.429 68.7973 161.32 78.4876 171.869L85.2177 179.209L87.3772 177.224L80.647 169.885C70.9132 159.287 60.4868 149.348 49.4368 140.133C51.3726 138.177 53.4145 136.329 55.5533 134.597C59.2919 138.83 65.0337 140.69 72.0369 139.845C78.6661 139.784 85.0686 143.048 89.6136 148.806C93.1483 153.284 95.1197 158.731 95.2344 163.906C96.0253 161.47 96.585 158.964 96.9063 156.423C95.8263 153.002 94.1349 149.806 91.9143 146.989C86.7826 140.488 79.4951 136.815 71.9213 136.914L71.8406 136.915L71.7618 136.925C65.8278 137.651 61.0154 136.173 57.8935 132.776C65.2516 127.274 73.566 123.186 82.4147 120.718C82.693 120.633 82.9388 120.465 83.1193 120.236C82.3076 119.526 81.4681 118.848 80.603 118.204C71.7936 120.788 63.5155 124.922 56.1575 130.415C52.998 124.848 53.5563 116.751 57.5461 110.999L58.0999 110.2C56.7251 110.138 55.348 110.145 53.9738 110.219L54.0228 111.119C50.3138 117.77 50.1657 126.175 53.8145 132.236C51.4853 134.116 49.2658 136.128 47.1669 138.263C42.153 134.142 37.0163 130.174 31.7638 126.363L26.6987 122.697C26.0158 123.405 25.3586 124.138 24.7283 124.893L30.047 128.742C35.1948 132.476 40.2301 136.363 45.1463 140.398C42.6094 143.179 40.2765 146.139 38.1658 149.256C37.9943 149.18 37.8197 149.101 37.6561 149.035C30.5386 146.161 21.4843 148.022 15.5125 153.438L15.2344 153.453C15.3086 154.815 15.4521 156.155 15.6531 157.475L16.4757 156.598L16.4758 156.599Z" fill="#38454F"/>
</svg>
