<svg width="784" height="119" viewBox="0 0 784 119" fill="none" xmlns="http://www.w3.org/2000/svg">
<rect x="534.5" y="0.5" width="249" height="116" rx="4.5" stroke="black"/>
<path d="M587.116 51.448H591.204V53.1C591.466 51.812 592.8 51.168 595.208 51.168C596.478 51.168 597.439 51.336 598.092 51.672C598.746 51.9893 599.184 52.4933 599.408 53.184C599.632 52.4747 600.062 51.9613 600.696 51.644C601.35 51.3267 602.33 51.168 603.636 51.168C604.812 51.168 605.718 51.308 606.352 51.588C606.987 51.8493 607.426 52.26 607.668 52.82C607.93 53.38 608.06 54.1267 608.06 55.06V65H603.972V55.62C603.972 55.0227 603.935 54.6027 603.86 54.36C603.786 54.0987 603.618 53.9213 603.356 53.828C603.114 53.7347 602.684 53.688 602.068 53.688C601.303 53.688 600.752 53.7347 600.416 53.828C600.099 53.9213 599.884 54.0987 599.772 54.36C599.679 54.6027 599.632 55.0227 599.632 55.62V65H595.544V55.62C595.544 55.0227 595.507 54.6027 595.432 54.36C595.358 54.0987 595.19 53.9213 594.928 53.828C594.686 53.7347 594.256 53.688 593.64 53.688C592.875 53.688 592.324 53.7347 591.988 53.828C591.671 53.9213 591.456 54.0987 591.344 54.36C591.251 54.6027 591.204 55.0227 591.204 55.62V65H587.116V51.448ZM615.48 64.888L610.076 51.448H614.528L617.58 61.024L620.352 51.448H624.58L617.16 70.824H613.016L615.48 64.888ZM624.809 46.828H629.233L634.105 61.36H634.217L639.089 46.828H643.401L636.681 65H631.333L624.809 46.828ZM649.03 65.28C647.761 65.28 646.809 65.168 646.174 64.944C645.558 64.7013 645.12 64.2813 644.858 63.684C644.616 63.068 644.494 62.1533 644.494 60.94C644.494 59.8573 644.625 59.008 644.886 58.392C645.166 57.776 645.605 57.3373 646.202 57.076C646.818 56.796 647.658 56.656 648.722 56.656H653.314V55.732C653.314 55.1533 653.23 54.724 653.062 54.444C652.913 54.164 652.624 53.968 652.194 53.856C651.784 53.744 651.158 53.688 650.318 53.688C649.161 53.688 647.574 53.8 645.558 54.024V51.448C647.033 51.2613 648.76 51.168 650.738 51.168C652.474 51.168 653.809 51.2987 654.742 51.56C655.694 51.8213 656.376 52.2693 656.786 52.904C657.197 53.5387 657.402 54.4627 657.402 55.676V65H653.398V63.768C653.081 64.3093 652.652 64.692 652.11 64.916C651.569 65.1587 650.542 65.28 649.03 65.28ZM650.626 62.732C651.448 62.732 652.036 62.704 652.39 62.648C652.652 62.6107 652.829 62.5547 652.922 62.48C653.034 62.4053 653.128 62.284 653.202 62.116C653.277 61.9853 653.314 61.7893 653.314 61.528V58.896H650.514C649.88 58.896 649.432 58.9427 649.17 59.036C648.909 59.1107 648.732 59.2787 648.638 59.54C648.545 59.7827 648.498 60.2213 648.498 60.856C648.498 61.472 648.545 61.9013 648.638 62.144C648.732 62.3867 648.909 62.5453 649.17 62.62C649.45 62.6947 649.936 62.732 650.626 62.732ZM660.999 51.448H664.891V53.828C664.891 53.3987 665.068 52.9787 665.423 52.568C665.778 52.1573 666.226 51.8213 666.767 51.56C667.327 51.2987 667.878 51.168 668.419 51.168H669.875V54.556H668.475C667.318 54.556 666.459 54.7333 665.899 55.088C665.358 55.4427 665.087 56.0307 665.087 56.852V65H660.999V51.448ZM672.24 46.548H676.328V49.852H672.24V46.548ZM672.24 51.448H676.328V65H672.24V51.448ZM683.866 65.28C682.597 65.28 681.645 65.168 681.01 64.944C680.394 64.7013 679.956 64.2813 679.694 63.684C679.452 63.068 679.33 62.1533 679.33 60.94C679.33 59.8573 679.461 59.008 679.722 58.392C680.002 57.776 680.441 57.3373 681.038 57.076C681.654 56.796 682.494 56.656 683.558 56.656H688.15V55.732C688.15 55.1533 688.066 54.724 687.898 54.444C687.749 54.164 687.46 53.968 687.03 53.856C686.62 53.744 685.994 53.688 685.154 53.688C683.997 53.688 682.41 53.8 680.394 54.024V51.448C681.869 51.2613 683.596 51.168 685.574 51.168C687.31 51.168 688.645 51.2987 689.578 51.56C690.53 51.8213 691.212 52.2693 691.622 52.904C692.033 53.5387 692.238 54.4627 692.238 55.676V65H688.234V63.768C687.917 64.3093 687.488 64.692 686.946 64.916C686.405 65.1587 685.378 65.28 683.866 65.28ZM685.462 62.732C686.284 62.732 686.872 62.704 687.226 62.648C687.488 62.6107 687.665 62.5547 687.758 62.48C687.87 62.4053 687.964 62.284 688.038 62.116C688.113 61.9853 688.15 61.7893 688.15 61.528V58.896H685.35C684.716 58.896 684.268 58.9427 684.006 59.036C683.745 59.1107 683.568 59.2787 683.474 59.54C683.381 59.7827 683.334 60.2213 683.334 60.856C683.334 61.472 683.381 61.9013 683.474 62.144C683.568 62.3867 683.745 62.5453 684.006 62.62C684.286 62.6947 684.772 62.732 685.462 62.732ZM702.695 65.28C700.978 65.28 699.615 65.1027 698.607 64.748C697.618 64.3933 696.908 63.852 696.479 63.124C696.05 62.3773 695.835 61.3973 695.835 60.184V45.4H699.923V52.792C700.166 52.176 700.614 51.756 701.267 51.532C701.92 51.2893 702.938 51.168 704.319 51.168C705.495 51.168 706.438 51.2613 707.147 51.448C707.875 51.6347 708.426 51.9333 708.799 52.344C709.154 52.7547 709.396 53.212 709.527 53.716C709.658 54.2013 709.723 54.8733 709.723 55.732V60.184C709.723 62.0133 709.172 63.32 708.071 64.104C706.97 64.888 705.178 65.28 702.695 65.28ZM702.751 62.732C703.554 62.732 704.16 62.676 704.571 62.564C704.982 62.452 705.262 62.256 705.411 61.976C705.56 61.696 705.635 61.276 705.635 60.716V55.704C705.635 55.088 705.57 54.6493 705.439 54.388C705.308 54.108 705.047 53.9213 704.655 53.828C704.263 53.7347 703.619 53.688 702.723 53.688C701.958 53.688 701.37 53.7533 700.959 53.884C700.567 54.0147 700.296 54.22 700.147 54.5C699.998 54.78 699.923 55.1813 699.923 55.704V60.716C699.923 61.276 699.988 61.696 700.119 61.976C700.268 62.256 700.539 62.452 700.931 62.564C701.342 62.676 701.948 62.732 702.751 62.732ZM713.037 45.4H717.125V65H713.037V45.4ZM727.631 65.28C722.834 65.28 720.435 63.8147 720.435 60.884V56.012C720.435 54.3133 720.976 53.0813 722.059 52.316C723.16 51.5507 724.85 51.168 727.127 51.168C729.274 51.168 730.842 51.5413 731.831 52.288C732.839 53.016 733.343 54.2573 733.343 56.012V59.316H724.551V60.548C724.551 61.332 724.831 61.892 725.391 62.228C725.951 62.564 726.959 62.732 728.415 62.732C729.759 62.732 731.271 62.536 732.951 62.144V64.748C731.29 65.1027 729.516 65.28 727.631 65.28ZM729.451 56.992V55.032C729.451 54.584 729.264 54.248 728.891 54.024C728.536 53.8 727.93 53.688 727.071 53.688C726.082 53.688 725.419 53.8 725.083 54.024C724.728 54.2667 724.551 54.6027 724.551 55.032V56.992H729.451Z" fill="black"/>
<rect x="2" y="1" width="249" height="117" rx="5" fill="#FEC900"/>
<path d="M59.624 52.448H63.712V54.1C63.9734 52.812 65.308 52.168 67.716 52.168C68.9854 52.168 69.9467 52.336 70.6 52.672C71.2534 52.9893 71.692 53.4933 71.916 54.184C72.14 53.4747 72.5694 52.9613 73.204 52.644C73.8574 52.3267 74.8374 52.168 76.144 52.168C77.32 52.168 78.2254 52.308 78.86 52.588C79.4947 52.8493 79.9334 53.26 80.176 53.82C80.4374 54.38 80.568 55.1267 80.568 56.06V66H76.48V56.62C76.48 56.0227 76.4427 55.6027 76.368 55.36C76.2934 55.0987 76.1254 54.9213 75.864 54.828C75.6214 54.7347 75.192 54.688 74.576 54.688C73.8107 54.688 73.26 54.7347 72.924 54.828C72.6067 54.9213 72.392 55.0987 72.28 55.36C72.1867 55.6027 72.14 56.0227 72.14 56.62V66H68.052V56.62C68.052 56.0227 68.0147 55.6027 67.94 55.36C67.8654 55.0987 67.6974 54.9213 67.436 54.828C67.1934 54.7347 66.764 54.688 66.148 54.688C65.3827 54.688 64.832 54.7347 64.496 54.828C64.1787 54.9213 63.964 55.0987 63.852 55.36C63.7587 55.6027 63.712 56.0227 63.712 56.62V66H59.624V52.448ZM87.9874 65.888L82.5834 52.448H87.0354L90.0874 62.024L92.8594 52.448H97.0874L89.6674 71.824H85.5234L87.9874 65.888ZM99.2764 47.828H106.556C108.33 47.828 109.73 47.9493 110.756 48.192C111.802 48.4347 112.558 48.864 113.024 49.48C113.51 50.0773 113.752 50.9173 113.752 52V55.444C113.752 56.6387 113.491 57.572 112.968 58.244C112.464 58.916 111.652 59.392 110.532 59.672C109.431 59.952 107.938 60.092 106.052 60.092H103.644V66H99.2764V47.828ZM106.416 57.096C107.555 57.096 108.358 56.9653 108.824 56.704C109.291 56.424 109.524 55.9573 109.524 55.304V52.392C109.524 51.7947 109.3 51.4027 108.852 51.216C108.423 51.0293 107.592 50.936 106.36 50.936H103.644V57.096H106.416ZM123.159 66.28C122.319 66.28 121.628 66.252 121.087 66.196C120.546 66.14 119.967 66.028 119.351 65.86C118.679 65.6733 118.138 65.412 117.727 65.076C117.316 64.7213 116.971 64.2267 116.691 63.592C116.411 62.976 116.271 62.2293 116.271 61.352V57.348C116.271 56.452 116.411 55.668 116.691 54.996C116.971 54.324 117.335 53.8013 117.783 53.428C118.175 53.1107 118.688 52.8493 119.323 52.644C119.976 52.42 120.611 52.28 121.227 52.224C121.936 52.1867 122.58 52.168 123.159 52.168C124.018 52.168 124.699 52.196 125.203 52.252C125.726 52.2893 126.295 52.4013 126.911 52.588C127.583 52.7933 128.124 53.0733 128.535 53.428C128.964 53.7827 129.328 54.2867 129.627 54.94C129.907 55.612 130.047 56.4147 130.047 57.348V61.352C130.047 62.192 129.907 62.9293 129.627 63.564C129.366 64.1987 129.02 64.6933 128.591 65.048C128.218 65.3653 127.704 65.6267 127.051 65.832C126.416 66.0187 125.791 66.14 125.175 66.196C124.615 66.252 123.943 66.28 123.159 66.28ZM123.159 63.732C123.924 63.732 124.503 63.676 124.895 63.564C125.287 63.4333 125.558 63.2373 125.707 62.976C125.875 62.7147 125.959 62.332 125.959 61.828V56.704C125.959 55.9573 125.763 55.4347 125.371 55.136C124.979 54.8373 124.242 54.688 123.159 54.688C122.076 54.688 121.339 54.8373 120.947 55.136C120.555 55.4347 120.359 55.9573 120.359 56.704V61.828C120.359 62.332 120.434 62.7147 120.583 62.976C120.751 63.2373 121.031 63.4333 121.423 63.564C121.815 63.676 122.394 63.732 123.159 63.732ZM133.345 47.548H137.433V50.852H133.345V47.548ZM133.345 52.448H137.433V66H133.345V52.448ZM141.136 52.448H145.168V54.1C145.485 52.812 146.932 52.168 149.508 52.168C151.244 52.168 152.457 52.4853 153.148 53.12C153.857 53.736 154.212 54.716 154.212 56.06V66H150.124V56.592C150.124 56.0693 150.068 55.6773 149.956 55.416C149.862 55.1547 149.657 54.968 149.34 54.856C149.041 54.744 148.574 54.688 147.94 54.688C147.137 54.688 146.549 54.744 146.176 54.856C145.802 54.9493 145.55 55.1267 145.42 55.388C145.289 55.6493 145.224 56.0507 145.224 56.592V66H141.136V52.448ZM164.564 66.28C163.873 66.28 163.295 66.252 162.828 66.196C162.361 66.14 161.895 66.028 161.428 65.86C160.905 65.692 160.476 65.4587 160.14 65.16C159.823 64.8613 159.561 64.4507 159.356 63.928C159.132 63.3867 159.02 62.7613 159.02 62.052V54.968H156.276V52.448H159.02V48.528H163.108V52.448H166.832V54.968H163.108V61.352C163.108 62.0053 163.164 62.5 163.276 62.836C163.388 63.1533 163.603 63.3867 163.92 63.536C164.237 63.6667 164.723 63.732 165.376 63.732C165.637 63.732 166.123 63.6853 166.832 63.592V66.14C165.955 66.2333 165.199 66.28 164.564 66.28ZM175.994 66.28C171.197 66.28 168.798 64.8147 168.798 61.884V57.012C168.798 55.3133 169.34 54.0813 170.422 53.316C171.524 52.5507 173.213 52.168 175.49 52.168C177.637 52.168 179.205 52.5413 180.194 53.288C181.202 54.016 181.706 55.2573 181.706 57.012V60.316H172.914V61.548C172.914 62.332 173.194 62.892 173.754 63.228C174.314 63.564 175.322 63.732 176.778 63.732C178.122 63.732 179.634 63.536 181.314 63.144V65.748C179.653 66.1027 177.88 66.28 175.994 66.28ZM177.814 57.992V56.032C177.814 55.584 177.628 55.248 177.254 55.024C176.9 54.8 176.293 54.688 175.434 54.688C174.445 54.688 173.782 54.8 173.446 55.024C173.092 55.2667 172.914 55.6027 172.914 56.032V57.992H177.814ZM184.831 52.448H188.723V54.828C188.723 54.3987 188.9 53.9787 189.255 53.568C189.61 53.1573 190.058 52.8213 190.599 52.56C191.159 52.2987 191.71 52.168 192.251 52.168H193.707V55.556H192.307C191.15 55.556 190.291 55.7333 189.731 56.088C189.19 56.4427 188.919 57.0307 188.919 57.852V66H184.831V52.448Z" fill="black"/>
<path d="M251 74.5V74H250.5V74.5H251ZM468.885 74.5H469.385V74H468.885V74.5ZM468.885 97H468.385V97.8649L469.134 97.4333L468.885 97ZM534 59.5L534.25 59.9333L535.002 59.5L534.25 59.0667L534 59.5ZM468.885 22L469.134 21.5667L468.385 21.1351V22H468.885ZM468.885 43.5V44H469.385V43.5H468.885ZM251 43.5H250.5V44H251V43.5ZM1.5 6C1.5 3.51472 3.51472 1.5 6 1.5V0.5C2.96243 0.5 0.5 2.96243 0.5 6H1.5ZM1.5 113V6H0.5V113H1.5ZM6 117.5C3.51471 117.5 1.5 115.485 1.5 113H0.5C0.5 116.038 2.96243 118.5 6 118.5V117.5ZM246 117.5H6V118.5H246V117.5ZM250.5 113C250.5 115.485 248.485 117.5 246 117.5V118.5C249.038 118.5 251.5 116.038 251.5 113H250.5ZM250.5 74.5V113H251.5V74.5H250.5ZM251 75H468.885V74H251V75ZM468.385 74.5V97H469.385V74.5H468.385ZM469.134 97.4333L534.25 59.9333L533.75 59.0667L468.635 96.5667L469.134 97.4333ZM534.25 59.0667L469.134 21.5667L468.635 22.4333L533.75 59.9333L534.25 59.0667ZM468.385 22V43.5H469.385V22H468.385ZM468.885 43H251V44H468.885V43ZM250.5 6V43.5H251.5V6H250.5ZM246 1.5C248.485 1.5 250.5 3.51472 250.5 6H251.5C251.5 2.96243 249.038 0.5 246 0.5V1.5ZM6 1.5H246V0.5H6V1.5Z" fill="black"/>
</svg>
