<svg width="1044" height="377" viewBox="0 0 1044 377" fill="none" xmlns="http://www.w3.org/2000/svg">
<path d="M856.996 175.075L721.938 129.194V211.909L856.996 223.541V175.075Z" fill="#AE7530"/>
<path d="M856.996 174.429L757.48 214.739V369.583L856.996 327.993V174.429Z" fill="#E6A352"/>
<path d="M722.584 129.194L616.607 174.429L670.888 206.093H722.584V129.194Z" fill="#BC8239"/>
<path d="M757.48 214.875L616.607 174.429V330.437L757.48 372.168V214.875Z" fill="#CB8C3F"/>
<path d="M675.411 121.439L583.65 156.981L617.253 174.428L722.584 129.84L675.411 121.439Z" fill="#EAAF6B"/>
<g filter="url(#filter0_d_2179_2166)">
<path d="M856.996 174.429L756.834 214.494L793.021 266.19L845.041 243.25L897.061 220.309L856.996 174.429Z" fill="#EDB46F"/>
</g>
<g filter="url(#filter1_d_2179_2166)">
<path d="M758.023 214.602L616.606 174.427L586.771 214.602L694.151 246.802L748.433 262.311L758.023 214.602Z" fill="#EDB46F"/>
</g>
<path d="M899 164.735L774.073 126.048L721.292 129.194L855.703 175.075L899 164.735Z" fill="#EAAE70"/>
<path d="M185.004 175.075L320.062 129.194V211.909L185.004 223.541V175.075Z" fill="#AE7530"/>
<path d="M185.004 174.429L284.52 214.739V369.583L185.004 327.993V174.429Z" fill="#E6A352"/>
<path d="M319.416 129.194L425.393 174.429L371.112 206.093H319.416V129.194Z" fill="#BC8239"/>
<path d="M284.52 214.875L425.393 174.429V330.437L284.52 372.168V214.875Z" fill="#CB8C3F"/>
<path d="M366.589 121.439L458.35 156.981L424.747 174.428L319.416 129.84L366.589 121.439Z" fill="#EAAF6B"/>
<g filter="url(#filter2_d_2179_2166)">
<path d="M185.004 174.429L285.166 214.494L248.979 266.19L196.959 243.25L144.939 220.309L185.004 174.429Z" fill="#EDB46F"/>
</g>
<g filter="url(#filter3_d_2179_2166)">
<path d="M283.977 214.602L425.394 174.427L455.229 214.602L347.849 246.802L293.567 262.311L283.977 214.602Z" fill="#EDB46F"/>
</g>
<path d="M143 164.735L267.927 126.048L320.708 129.194L186.297 175.075L143 164.735Z" fill="#EAAE70"/>
<g filter="url(#filter4_d_2179_2166)">
<path d="M841.857 246.021L860.629 225L841.857 234.702L821 255.184L841.857 246.021Z" fill="#EBC99C"/>
</g>
<g filter="url(#filter5_d_2179_2166)">
<path d="M1019.14 246.021L1000.37 225L1019.14 234.702L1040 255.184L1019.14 246.021Z" fill="#EBC99C"/>
</g>
<rect x="841.857" y="244.405" width="178.329" height="132.596" fill="#E6A352"/>
<rect x="860.628" y="225" width="139.743" height="19.4043" fill="#BC8239"/>
<path d="M841.857 244.404L860.629 225V244.404H841.857Z" fill="#936122"/>
<path d="M1020.11 244.405H841.935L826.214 267.044H1035.83L1020.11 244.405Z" fill="#ECC290"/>
<path d="M1019.14 244.404L1000.37 225V244.404H1019.14Z" fill="#AE752E"/>
<g filter="url(#filter6_d_2179_2166)">
<path d="M202.143 246.021L183.371 225L202.143 234.702L223 255.184L202.143 246.021Z" fill="#EBC99C"/>
</g>
<g filter="url(#filter7_d_2179_2166)">
<path d="M24.8571 246.021L43.6286 225L24.8571 234.702L4 255.184L24.8571 246.021Z" fill="#EBC99C"/>
</g>
<rect width="178.329" height="132.596" transform="matrix(-1 0 0 1 202.143 244.405)" fill="#E6A352"/>
<rect width="139.743" height="19.4043" transform="matrix(-1 0 0 1 183.372 225)" fill="#BC8239"/>
<path d="M202.143 244.404L183.371 225V244.404H202.143Z" fill="#936122"/>
<path d="M23.8924 244.405H202.065L217.786 267.044H8.17137L23.8924 244.405Z" fill="#ECC290"/>
<path d="M24.857 244.404L43.6284 225V244.404H24.857Z" fill="#AE752E"/>
<path d="M516.327 318.014L517.367 291.671H528.124L529.164 318.014H516.327Z" fill="#C4C4C4" stroke="#444B5B" stroke-width="2"/>
<circle cx="522.746" cy="328.338" r="16.5115" fill="#303140" stroke="#7BD5E0" stroke-width="8"/>
<path d="M516.779 296.88C518.892 296.134 524.238 295.09 528.713 296.88" stroke="#444B5B" stroke-linecap="round"/>
<path d="M516.406 301.226C518.519 300.48 523.865 299.436 528.34 301.226" stroke="#444B5B" stroke-linecap="round"/>
<path d="M516.779 305.7C518.892 304.954 524.238 303.91 528.713 305.7" stroke="#444B5B" stroke-linecap="round"/>
<path d="M406.968 157.076C410.47 167.642 424.412 183.927 430.945 190.749C433.798 188.031 439.131 182.909 437.646 184.158C436.161 185.407 421.778 163.174 414.772 151.902C412.908 152.08 408.792 155.426 406.968 157.076Z" fill="#C4C4C4" stroke="#4A4E62" stroke-width="2"/>
<path d="M640.294 157.076C636.791 167.642 622.849 183.927 616.316 190.749C613.463 188.031 608.13 182.909 609.615 184.158C611.1 185.407 625.483 163.174 632.489 151.902C634.353 152.08 638.469 155.426 640.294 157.076Z" fill="#C4C4C4" stroke="#4A4E62" stroke-width="2"/>
<path d="M599.383 121.97C599.383 155.838 617.553 183.294 523.296 183.294C429.039 183.294 446.642 155.838 446.642 121.97C446.642 88.102 483.94 60.6465 523.296 60.6465C562.652 60.6465 599.383 88.102 599.383 121.97Z" fill="#7BD5E0"/>
<path d="M600.08 118.097C600.08 150.14 618.265 177.047 523.929 177.047C429.593 177.047 447.21 150.14 447.21 118.097C447.21 86.0542 484.54 60.0781 523.929 60.0781C563.318 60.0781 600.08 86.0542 600.08 118.097Z" fill="#9BE3E8"/>
<path d="M453.857 110.614C453.857 126.293 449.79 160.865 444.772 160.865C434.268 160.865 429.441 146.167 429.441 130.487C429.441 114.807 433.509 102.096 438.526 102.096C452.202 102.096 453.857 94.9339 453.857 110.614Z" fill="#303140"/>
<path d="M453.857 109.452C453.857 122.57 449.79 151.495 444.772 151.495C434.268 151.495 429.441 139.198 429.441 126.079C429.441 112.961 433.509 102.326 438.526 102.326C452.202 102.326 453.857 96.3333 453.857 109.452Z" fill="#4A4E62"/>
<path d="M467.832 207.228C470.237 189.926 485.03 177.047 502.498 177.047H542.862C560.104 177.047 574.777 189.604 577.441 206.639L584.611 252.486C587.851 273.201 572.275 292.097 551.323 292.87L520.291 294.016L494.693 292.979C474.031 292.142 458.595 273.67 461.443 253.189L467.832 207.228Z" fill="#7BD5E0"/>
<path d="M469.405 196.732L460.845 258.602C460.191 263.328 462.949 267.885 467.547 269.16C488.37 274.936 525.128 280.155 570.865 268.812C575.44 267.677 578.474 263.369 578.13 258.668C575.811 226.978 572.677 206.488 569.311 194.328C567.949 189.412 562.712 187.114 557.73 188.21C533.074 193.632 501.581 191.237 481.664 187.966C475.858 187.013 470.212 190.903 469.405 196.732Z" fill="#9BE3EC"/>
<circle cx="451.586" cy="195.785" r="22.1446" fill="#303140"/>
<path d="M473.163 191.811C473.163 200.434 464.96 207.141 454.141 207.141C443.322 207.141 430.293 200.15 430.293 191.527C430.293 182.903 440.767 173.641 451.586 173.641C462.405 173.641 473.163 183.187 473.163 191.811Z" fill="#444B5B"/>
<circle cx="594.674" cy="195.785" r="22.1446" fill="#303140"/>
<ellipse cx="16.6402" cy="9.11248" rx="16.6402" ry="9.11248" transform="matrix(0.820473 -0.571685 -0.571685 -0.820473 397.419 164.979)" fill="#7BD5E0"/>
<ellipse cx="641.399" cy="147.989" rx="16.6402" ry="9.11248" transform="rotate(-145.132 641.399 147.989)" fill="#7BD5E0"/>
<ellipse cx="15.1382" cy="7.24864" rx="15.1382" ry="7.24864" transform="matrix(0.820473 -0.571685 -0.571685 -0.820473 398.367 163.811)" fill="#90E2EB"/>
<ellipse cx="640.618" cy="149.209" rx="15.1382" ry="7.24864" transform="rotate(-145.132 640.618 149.209)" fill="#90E2EB"/>
<path d="M603.35 81.1021C530.403 102.737 466.17 89.3076 443.171 79.8887C438.872 85.0199 441.38 91.7345 443.171 94.4504C506.134 115.946 576.192 103.407 603.35 94.4504C608.204 87.7936 605.373 82.7779 603.35 81.1021Z" fill="#FECA00" stroke="#444B5B" stroke-width="10"/>
<path d="M601.15 80.8692C541.377 102.643 472.348 89.9414 445.305 80.8692C439.341 52.9939 459.231 35.855 469.921 30.77C477.826 19.2592 503.494 11.9899 515.34 9.79413C516.449 4.80154 517.02 4.43144 524.301 5.47142C533.195 4.25802 531.808 7.6561 533.195 9.79413C552.611 12.8452 571.333 25.8583 578.267 31.9834C604.756 45.4357 604.559 70.1791 601.15 80.8692Z" fill="#FEE200" stroke="#444B5B" stroke-width="10"/>
<path d="M599.866 81.0639C541.091 98.987 473.214 88.5318 446.623 81.0639C440.759 58.1177 460.316 44.0094 470.828 39.8235C478.601 30.3482 503.84 24.3643 515.488 22.5567C516.579 18.447 517.141 18.1423 524.3 18.9984C533.046 17.9996 531.682 20.7968 533.046 22.5567C552.137 25.0683 570.547 35.7803 577.365 40.8224C603.411 51.8959 603.218 72.264 599.866 81.0639Z" fill="#FEC900"/>
<path d="M515.34 9.50684V92.7167M533.195 9.50684V92.7167" stroke="#444B5B" stroke-width="10"/>
<path d="M505.112 16C504.28 16.1387 498.878 17.8647 496.964 18.6106V71.49C498.178 72.9924 501.506 75.0958 505.112 71.49V16Z" fill="#FFA616"/>
<path d="M542.512 16C543.63 16 549.086 18.4056 550.877 18.9835V71.49C549.664 72.9924 546.335 75.0957 542.73 71.49L542.512 16Z" fill="#FFA616"/>
<ellipse cx="477.489" cy="54.7411" rx="11.0947" ry="7.62757" transform="rotate(-35.3944 477.489 54.7411)" fill="#FFE200"/>
<ellipse cx="463.907" cy="66.1979" rx="4.55834" ry="3.13386" transform="rotate(-156.631 463.907 66.1979)" fill="#FEE200"/>
<path d="M602.182 86.1122C528.542 109.383 467.076 95.4353 444.802 85.7393C444.056 86.1122 444.694 90.2382 445.921 91.3333C447.455 92.7022 519.752 116.144 601.063 91.3333C601.958 89.9909 602.927 88.3498 602.182 86.1122Z" fill="#FFA519"/>
<path d="M592.403 109.452C592.403 122.57 596.471 151.495 601.488 151.495C611.993 151.495 616.819 139.198 616.819 126.079C616.819 112.961 612.752 102.326 607.734 102.326C594.058 102.326 592.403 96.3333 592.403 109.452Z" fill="#4A4E62"/>
<path d="M616.535 191.811C616.535 200.435 608.332 207.142 597.514 207.142C586.695 207.142 573.098 200.435 573.098 191.811C573.098 183.187 583.602 173.357 594.958 173.641C605.777 173.641 616.535 183.187 616.535 191.811Z" fill="#4A4E62"/>
<path d="M443.159 108.067C439.681 109.107 435.933 111.959 435.468 119.063" stroke="#686C81" stroke-width="5" stroke-linecap="round"/>
<path d="M603.192 107.984C606.669 109.024 610.417 111.876 610.882 118.98" stroke="#686C81" stroke-width="5" stroke-linecap="round"/>
<ellipse cx="447.327" cy="183.861" rx="5.96201" ry="4.54249" fill="#686C81"/>
<ellipse cx="601.401" cy="183.623" rx="5.96201" ry="4.54249" transform="rotate(24.0274 601.401 183.623)" fill="#686C81"/>
<circle cx="500.134" cy="122.821" r="8.23326" fill="#303140"/>
<circle cx="498.998" cy="123.957" r="3.12296" fill="white"/>
<circle cx="501.837" cy="119.414" r="1.41953" fill="white"/>
<circle cx="547.262" cy="122.821" r="8.23326" fill="#303140"/>
<circle cx="547.262" cy="123.957" r="3.12296" fill="white"/>
<circle cx="550.101" cy="119.414" r="1.41953" fill="white"/>
<path d="M399.797 153.292C400.299 151.783 402.852 148.225 409.044 146.059" stroke="#D7FBFB" stroke-width="4" stroke-linecap="round"/>
<path d="M647.465 153.292C646.962 151.783 644.409 148.225 638.217 146.059" stroke="#D7FBFB" stroke-width="4" stroke-linecap="round"/>
<path d="M478.877 223.738C481.62 203.959 498.53 189.231 518.498 189.231H525.538C545.249 189.231 562.023 203.591 565.06 223.067L566.355 231.369C570.047 255.037 552.25 276.62 528.313 277.506L520.114 277.81L515.706 277.631C492.1 276.672 474.464 255.572 477.708 232.171L478.877 223.738Z" fill="#444B5B"/>
<circle cx="498.717" cy="202.868" r="1.70343" fill="#9BE3E8"/>
<circle cx="495.307" cy="259.38" r="1.70343" fill="#9BE3E8"/>
<circle cx="548.69" cy="202.868" r="1.70343" fill="#9BE3E8"/>
<circle cx="552.088" cy="258.813" r="1.70343" fill="#9BE3E8"/>
<path d="M426.917 185.635C428.757 185.247 432.516 183.572 432.826 179.981" stroke="#444B5B" stroke-linecap="round"/>
<path d="M620.345 185.635C618.504 185.247 614.745 183.572 614.435 179.981" stroke="#444B5B" stroke-linecap="round"/>
<path d="M422.214 180.181C423.752 180.427 427.393 179.612 429.654 174.379" stroke="#444B5B" stroke-linecap="round"/>
<path d="M625.048 180.181C623.509 180.427 619.868 179.612 617.607 174.379" stroke="#444B5B" stroke-linecap="round"/>
<path d="M418.187 175.72C420.2 175.986 424.673 175.184 426.467 169.85M413.716 169.596C415.614 169.902 420.134 169.304 423.023 164.462" stroke="#444B5B" stroke-linecap="round"/>
<path d="M629.074 175.72C627.061 175.986 622.588 175.184 620.795 169.85M633.546 169.596C631.647 169.902 627.127 169.304 624.238 164.462" stroke="#444B5B" stroke-linecap="round"/>
<path d="M409.989 163.542C411.92 163.781 416.327 163.117 418.506 158.546" stroke="#444B5B" stroke-linecap="round"/>
<path d="M637.273 163.542C635.342 163.781 630.935 163.117 628.756 158.546" stroke="#444B5B" stroke-linecap="round"/>
<path d="M474.637 217.575C473.177 220.919 470.403 229.926 470.987 239.206" stroke="#D8FFFD" stroke-width="8" stroke-linecap="round"/>
<path d="M524.611 310.81C526.102 310.81 528.34 311.183 531.323 313.047" stroke="#D8FFFD" stroke-width="2" stroke-linecap="round"/>
<path d="M516.406 312.302C512.428 313.545 504.696 319.015 505.591 330.949" stroke="#D8FFFD" stroke-width="2" stroke-linecap="round"/>
<path d="M518.979 311.379C519.628 311.215 521.074 310.907 521.665 310.987" stroke="#D8FFFD" stroke-width="2" stroke-linecap="round"/>
<circle cx="523.119" cy="328.711" r="2.9835" fill="#7BD5E0"/>
<path d="M509 141.999C503 141.199 499.5 144 499.5 147C499.5 152 504.9 162 522.5 162C544.5 162 548 151.472 548 147C548 144 544 140.545 538 141.999C521.5 145.999 516.5 142.999 509 141.999Z" fill="#303140"/>
<path d="M96.9302 204.448L106.439 221.273L99.6312 223.78L96.9302 204.448Z" fill="#EAD300"/>
<path d="M45.4657 222.04L61.5063 220.662L61.0282 226.3L45.4657 222.04Z" fill="#EA0000"/>
<ellipse cx="80" cy="228.5" rx="2" ry="1.5" fill="#9F00EA"/>
<circle cx="83" cy="212" r="4" fill="#EAA900"/>
<rect width="11.3137" height="5.65765" transform="matrix(0.702261 -0.711919 0.716698 0.697384 64 244.055)" fill="#EAA900"/>
<rect x="116.278" y="205.207" width="3.26013" height="5.43355" transform="rotate(21.9912 116.278 205.207)" fill="#EA0000"/>
<rect width="14.1825" height="4.52689" transform="matrix(-0.424553 -0.905403 0.878924 -0.476961 79.0212 201)" fill="#EA0000"/>
<path d="M36.0001 214.506C36.0001 214.506 42.9488 211.045 44.5252 212.859C45.3912 213.855 46.0452 215.062 45.2696 216.043C44.6717 216.799 43.8085 216.896 42.7971 216.718C40.6554 216.342 40.6878 213.368 41.5476 211.526C42.7346 208.982 49.0358 210.483 49.0358 210.483" stroke="#05EA00" stroke-width="1.2"/>
<path d="M60.0821 236C60.0821 236 59.5953 233.108 60.9924 232.532C62.166 232.048 63.1835 234.189 64.1479 233.413C65.1247 232.626 62.6862 231.38 63.4804 230.44C64.3162 229.45 67 230.44 67 230.44" stroke="#005EEA" stroke-width="1.2"/>
<path d="M56.8076 196C56.8076 198.761 60.791 201 58.0191 201C55.2471 201 53 198.761 53 196C53 193.239 55.2471 191 58.0191 191C60.791 191 56.8076 193.239 56.8076 196Z" fill="#9F00EA"/>
<path d="M102.5 232L103.735 235.8H107.731L104.498 238.149L105.733 241.95L102.5 239.601L99.2672 241.95L100.502 238.149L97.2692 235.8H101.265L102.5 232Z" fill="#05EA00"/>
<path d="M64 214L64.6735 216.073H66.8532L65.0898 217.354L65.7634 219.427L64 218.146L62.2366 219.427L62.9102 217.354L61.1468 216.073H63.3265L64 214Z" fill="#EAD300"/>
<path d="M94.7323 200.552L95.2479 195.618L98.8422 198.146L99.2519 194.007L102.53 196.513L103.552 192.038" stroke="#005EEA"/>
<path d="M246.93 147.448L256.439 164.273L249.631 166.78L246.93 147.448Z" fill="#EAD300"/>
<path d="M195.466 165.04L211.506 163.662L211.028 169.3L195.466 165.04Z" fill="#EA0000"/>
<ellipse cx="230" cy="171.5" rx="2" ry="1.5" fill="#9F00EA"/>
<circle cx="233" cy="155" r="4" fill="#EAA900"/>
<rect width="11.3137" height="5.65765" transform="matrix(0.702261 -0.711919 0.716698 0.697384 214 187.055)" fill="#EAA900"/>
<rect x="266.278" y="148.207" width="3.26013" height="5.43355" transform="rotate(21.9912 266.278 148.207)" fill="#EA0000"/>
<rect width="14.1825" height="4.52689" transform="matrix(-0.424553 -0.905403 0.878924 -0.476961 229.021 144)" fill="#EA0000"/>
<path d="M186 157.506C186 157.506 192.949 154.045 194.525 155.859C195.391 156.855 196.045 158.062 195.27 159.043C194.672 159.799 193.809 159.896 192.797 159.718C190.655 159.342 190.688 156.368 191.548 154.526C192.735 151.982 199.036 153.483 199.036 153.483" stroke="#05EA00" stroke-width="1.2"/>
<path d="M210.082 179C210.082 179 209.595 176.108 210.992 175.532C212.166 175.048 213.184 177.189 214.148 176.413C215.125 175.626 212.686 174.38 213.48 173.44C214.316 172.45 217 173.44 217 173.44" stroke="#005EEA" stroke-width="1.2"/>
<path d="M206.808 139C206.808 141.761 210.791 144 208.019 144C205.247 144 203 141.761 203 139C203 136.239 205.247 134 208.019 134C210.791 134 206.808 136.239 206.808 139Z" fill="#9F00EA"/>
<path d="M252.5 175L253.735 178.8H257.731L254.498 181.149L255.733 184.95L252.5 182.601L249.267 184.95L250.502 181.149L247.269 178.8H251.265L252.5 175Z" fill="#05EA00"/>
<path d="M214 157L214.674 159.073H216.853L215.09 160.354L215.763 162.427L214 161.146L212.237 162.427L212.91 160.354L211.147 159.073H213.326L214 157Z" fill="#EAD300"/>
<path d="M244.732 143.552L245.248 138.618L248.842 141.146L249.252 137.007L252.53 139.513L253.552 135.038" stroke="#005EEA"/>
<path d="M705.93 154.448L715.439 171.273L708.631 173.78L705.93 154.448Z" fill="#EAD300"/>
<path d="M654.466 172.04L670.506 170.662L670.028 176.3L654.466 172.04Z" fill="#EA0000"/>
<ellipse cx="689" cy="178.5" rx="2" ry="1.5" fill="#9F00EA"/>
<circle cx="692" cy="162" r="4" fill="#EAA900"/>
<rect width="11.3137" height="5.65765" transform="matrix(0.702261 -0.711919 0.716698 0.697384 673 194.055)" fill="#EAA900"/>
<rect x="725.278" y="155.207" width="3.26013" height="5.43355" transform="rotate(21.9912 725.278 155.207)" fill="#EA0000"/>
<rect width="14.1825" height="4.52689" transform="matrix(-0.424553 -0.905403 0.878924 -0.476961 688.021 151)" fill="#EA0000"/>
<path d="M645 164.506C645 164.506 651.949 161.045 653.525 162.859C654.391 163.855 655.045 165.062 654.27 166.043C653.672 166.799 652.809 166.896 651.797 166.718C649.655 166.342 649.688 163.368 650.548 161.526C651.735 158.982 658.036 160.483 658.036 160.483" stroke="#05EA00" stroke-width="1.2"/>
<path d="M669.082 186C669.082 186 668.595 183.108 669.992 182.532C671.166 182.048 672.184 184.189 673.148 183.413C674.125 182.626 671.686 181.38 672.48 180.44C673.316 179.45 676 180.44 676 180.44" stroke="#005EEA" stroke-width="1.2"/>
<path d="M665.808 146C665.808 148.761 669.791 151 667.019 151C664.247 151 662 148.761 662 146C662 143.239 664.247 141 667.019 141C669.791 141 665.808 143.239 665.808 146Z" fill="#9F00EA"/>
<path d="M711.5 182L712.735 185.8H716.731L713.498 188.149L714.733 191.95L711.5 189.601L708.267 191.95L709.502 188.149L706.269 185.8H710.265L711.5 182Z" fill="#05EA00"/>
<path d="M673 164L673.674 166.073H675.853L674.09 167.354L674.763 169.427L673 168.146L671.237 169.427L671.91 167.354L670.147 166.073H672.326L673 164Z" fill="#EAD300"/>
<path d="M703.732 150.552L704.248 145.618L707.842 148.146L708.252 144.007L711.53 146.513L712.552 142.038" stroke="#005EEA"/>
<path d="M981.93 202.448L991.439 219.273L984.631 221.78L981.93 202.448Z" fill="#EAD300"/>
<path d="M930.466 220.04L946.506 218.662L946.028 224.3L930.466 220.04Z" fill="#EA0000"/>
<ellipse cx="965" cy="226.5" rx="2" ry="1.5" fill="#9F00EA"/>
<circle cx="968" cy="210" r="4" fill="#EAA900"/>
<rect width="11.3137" height="5.65765" transform="matrix(0.702261 -0.711919 0.716698 0.697384 949 242.055)" fill="#EAA900"/>
<rect x="1001.28" y="203.207" width="3.26013" height="5.43355" transform="rotate(21.9912 1001.28 203.207)" fill="#EA0000"/>
<rect width="14.1825" height="4.52689" transform="matrix(-0.424553 -0.905403 0.878924 -0.476961 964.021 199)" fill="#EA0000"/>
<path d="M921 212.506C921 212.506 927.949 209.045 929.525 210.859C930.391 211.855 931.045 213.062 930.27 214.043C929.672 214.799 928.809 214.896 927.797 214.718C925.655 214.342 925.688 211.368 926.548 209.526C927.735 206.982 934.036 208.483 934.036 208.483" stroke="#05EA00" stroke-width="1.2"/>
<path d="M945.082 234C945.082 234 944.595 231.108 945.992 230.532C947.166 230.048 948.184 232.189 949.148 231.413C950.125 230.626 947.686 229.38 948.48 228.44C949.316 227.45 952 228.44 952 228.44" stroke="#005EEA" stroke-width="1.2"/>
<path d="M941.808 194C941.808 196.761 945.791 199 943.019 199C940.247 199 938 196.761 938 194C938 191.239 940.247 189 943.019 189C945.791 189 941.808 191.239 941.808 194Z" fill="#9F00EA"/>
<path d="M987.5 230L988.735 233.8H992.731L989.498 236.149L990.733 239.95L987.5 237.601L984.267 239.95L985.502 236.149L982.269 233.8H986.265L987.5 230Z" fill="#05EA00"/>
<path d="M949 212L949.674 214.073H951.853L950.09 215.354L950.763 217.427L949 216.146L947.237 217.427L947.91 215.354L946.147 214.073H948.326L949 212Z" fill="#EAD300"/>
<path d="M979.732 198.552L980.248 193.618L983.842 196.146L984.252 192.007L987.53 194.513L988.552 190.038" stroke="#005EEA"/>
<path d="M904.93 198.448L914.439 215.273L907.631 217.78L904.93 198.448Z" fill="#EAD300"/>
<path d="M853.466 216.04L869.506 214.662L869.028 220.3L853.466 216.04Z" fill="#EA0000"/>
<ellipse cx="888" cy="222.5" rx="2" ry="1.5" fill="#9F00EA"/>
<circle cx="891" cy="206" r="4" fill="#EAA900"/>
<rect width="11.3137" height="5.65765" transform="matrix(0.702261 -0.711919 0.716698 0.697384 872 238.055)" fill="#EAA900"/>
<rect x="924.278" y="199.207" width="3.26013" height="5.43355" transform="rotate(21.9912 924.278 199.207)" fill="#EA0000"/>
<rect width="14.1825" height="4.52689" transform="matrix(-0.424553 -0.905403 0.878924 -0.476961 887.021 195)" fill="#EA0000"/>
<path d="M844 208.506C844 208.506 850.949 205.045 852.525 206.859C853.391 207.855 854.045 209.062 853.27 210.043C852.672 210.799 851.809 210.896 850.797 210.718C848.655 210.342 848.688 207.368 849.548 205.526C850.735 202.982 857.036 204.483 857.036 204.483" stroke="#05EA00" stroke-width="1.2"/>
<path d="M868.082 230C868.082 230 867.595 227.108 868.992 226.532C870.166 226.048 871.184 228.189 872.148 227.413C873.125 226.626 870.686 225.38 871.48 224.44C872.316 223.45 875 224.44 875 224.44" stroke="#005EEA" stroke-width="1.2"/>
<path d="M864.808 190C864.808 192.761 868.791 195 866.019 195C863.247 195 861 192.761 861 190C861 187.239 863.247 185 866.019 185C868.791 185 864.808 187.239 864.808 190Z" fill="#9F00EA"/>
<path d="M910.5 226L911.735 229.8H915.731L912.498 232.149L913.733 235.95L910.5 233.601L907.267 235.95L908.502 232.149L905.269 229.8H909.265L910.5 226Z" fill="#05EA00"/>
<path d="M872 208L872.674 210.073H874.853L873.09 211.354L873.763 213.427L872 212.146L870.237 213.427L870.91 211.354L869.147 210.073H871.326L872 208Z" fill="#EAD300"/>
<path d="M902.732 194.552L903.248 189.618L906.842 192.146L907.252 188.007L910.53 190.513L911.552 186.038" stroke="#005EEA"/>
<path d="M770.93 190.448L780.439 207.273L773.631 209.78L770.93 190.448Z" fill="#EAD300"/>
<path d="M719.466 208.04L735.506 206.662L735.028 212.3L719.466 208.04Z" fill="#EA0000"/>
<ellipse cx="754" cy="214.5" rx="2" ry="1.5" fill="#9F00EA"/>
<circle cx="757" cy="198" r="4" fill="#EAA900"/>
<rect width="11.3137" height="5.65765" transform="matrix(0.702261 -0.711919 0.716698 0.697384 738 230.055)" fill="#EAA900"/>
<rect x="790.278" y="191.207" width="3.26013" height="5.43355" transform="rotate(21.9912 790.278 191.207)" fill="#EA0000"/>
<rect width="14.1825" height="4.52689" transform="matrix(-0.424553 -0.905403 0.878924 -0.476961 753.021 187)" fill="#EA0000"/>
<path d="M710 200.506C710 200.506 716.949 197.045 718.525 198.859C719.391 199.855 720.045 201.062 719.27 202.043C718.672 202.799 717.809 202.896 716.797 202.718C714.655 202.342 714.688 199.368 715.548 197.526C716.735 194.982 723.036 196.483 723.036 196.483" stroke="#05EA00" stroke-width="1.2"/>
<path d="M734.082 222C734.082 222 733.595 219.108 734.992 218.532C736.166 218.048 737.184 220.189 738.148 219.413C739.125 218.626 736.686 217.38 737.48 216.44C738.316 215.45 741 216.44 741 216.44" stroke="#005EEA" stroke-width="1.2"/>
<path d="M730.808 182C730.808 184.761 734.791 187 732.019 187C729.247 187 727 184.761 727 182C727 179.239 729.247 177 732.019 177C734.791 177 730.808 179.239 730.808 182Z" fill="#9F00EA"/>
<path d="M776.5 218L777.735 221.8H781.731L778.498 224.149L779.733 227.95L776.5 225.601L773.267 227.95L774.502 224.149L771.269 221.8H775.265L776.5 218Z" fill="#05EA00"/>
<path d="M738 200L738.674 202.073H740.853L739.09 203.354L739.763 205.427L738 204.146L736.237 205.427L736.91 203.354L735.147 202.073H737.326L738 200Z" fill="#EAD300"/>
<path d="M768.732 186.552L769.248 181.618L772.842 184.146L773.252 180.007L776.53 182.513L777.552 178.038" stroke="#005EEA"/>
<path d="M774.93 116.448L784.439 133.273L777.631 135.78L774.93 116.448Z" fill="#EAD300"/>
<path d="M723.466 134.04L739.506 132.662L739.028 138.3L723.466 134.04Z" fill="#EA0000"/>
<ellipse cx="758" cy="140.5" rx="2" ry="1.5" fill="#9F00EA"/>
<circle cx="761" cy="124" r="4" fill="#EAA900"/>
<rect width="11.3137" height="5.65765" transform="matrix(0.702261 -0.711919 0.716698 0.697384 742 156.055)" fill="#EAA900"/>
<rect x="794.278" y="117.207" width="3.26013" height="5.43355" transform="rotate(21.9912 794.278 117.207)" fill="#EA0000"/>
<rect width="14.1825" height="4.52689" transform="matrix(-0.424553 -0.905403 0.878924 -0.476961 757.021 113)" fill="#EA0000"/>
<path d="M714 126.506C714 126.506 720.949 123.045 722.525 124.859C723.391 125.855 724.045 127.062 723.27 128.043C722.672 128.799 721.809 128.896 720.797 128.718C718.655 128.342 718.688 125.368 719.548 123.526C720.735 120.982 727.036 122.483 727.036 122.483" stroke="#05EA00" stroke-width="1.2"/>
<path d="M738.082 148C738.082 148 737.595 145.108 738.992 144.532C740.166 144.048 741.184 146.189 742.148 145.413C743.125 144.626 740.686 143.38 741.48 142.44C742.316 141.45 745 142.44 745 142.44" stroke="#005EEA" stroke-width="1.2"/>
<path d="M734.808 108C734.808 110.761 738.791 113 736.019 113C733.247 113 731 110.761 731 108C731 105.239 733.247 103 736.019 103C738.791 103 734.808 105.239 734.808 108Z" fill="#9F00EA"/>
<path d="M780.5 144L781.735 147.8H785.731L782.498 150.149L783.733 153.95L780.5 151.601L777.267 153.95L778.502 150.149L775.269 147.8H779.265L780.5 144Z" fill="#05EA00"/>
<path d="M742 126L742.674 128.073H744.853L743.09 129.354L743.763 131.427L742 130.146L740.237 131.427L740.91 129.354L739.147 128.073H741.326L742 126Z" fill="#EAD300"/>
<path d="M772.732 112.552L773.248 107.618L776.842 110.146L777.252 106.007L780.53 108.513L781.552 104.038" stroke="#005EEA"/>
<path d="M336.93 175.448L346.439 192.273L339.631 194.78L336.93 175.448Z" fill="#EAD300"/>
<path d="M285.466 193.04L301.506 191.662L301.028 197.3L285.466 193.04Z" fill="#EA0000"/>
<ellipse cx="320" cy="199.5" rx="2" ry="1.5" fill="#9F00EA"/>
<circle cx="323" cy="183" r="4" fill="#EAA900"/>
<rect width="11.3137" height="5.65765" transform="matrix(0.702261 -0.711919 0.716698 0.697384 304 215.055)" fill="#EAA900"/>
<rect x="356.278" y="176.207" width="3.26013" height="5.43355" transform="rotate(21.9912 356.278 176.207)" fill="#EA0000"/>
<rect width="14.1825" height="4.52689" transform="matrix(-0.424553 -0.905403 0.878924 -0.476961 319.021 172)" fill="#EA0000"/>
<path d="M276 185.506C276 185.506 282.949 182.045 284.525 183.859C285.391 184.855 286.045 186.062 285.27 187.043C284.672 187.799 283.809 187.896 282.797 187.718C280.655 187.342 280.688 184.368 281.548 182.526C282.735 179.982 289.036 181.483 289.036 181.483" stroke="#05EA00" stroke-width="1.2"/>
<path d="M300.082 207C300.082 207 299.595 204.108 300.992 203.532C302.166 203.048 303.184 205.189 304.148 204.413C305.125 203.626 302.686 202.38 303.48 201.44C304.316 200.45 307 201.44 307 201.44" stroke="#005EEA" stroke-width="1.2"/>
<path d="M296.808 167C296.808 169.761 300.791 172 298.019 172C295.247 172 293 169.761 293 167C293 164.239 295.247 162 298.019 162C300.791 162 296.808 164.239 296.808 167Z" fill="#9F00EA"/>
<path d="M342.5 203L343.735 206.8H347.731L344.498 209.149L345.733 212.95L342.5 210.601L339.267 212.95L340.502 209.149L337.269 206.8H341.265L342.5 203Z" fill="#05EA00"/>
<path d="M304 185L304.674 187.073H306.853L305.09 188.354L305.763 190.427L304 189.146L302.237 190.427L302.91 188.354L301.147 187.073H303.326L304 185Z" fill="#EAD300"/>
<path d="M334.732 171.552L335.248 166.618L338.842 169.146L339.252 165.007L342.53 167.513L343.552 163.038" stroke="#005EEA"/>
<path d="M329.93 110.448L339.439 127.273L332.631 129.78L329.93 110.448Z" fill="#EAD300"/>
<path d="M278.466 128.04L294.506 126.662L294.028 132.3L278.466 128.04Z" fill="#EA0000"/>
<ellipse cx="313" cy="134.5" rx="2" ry="1.5" fill="#9F00EA"/>
<circle cx="316" cy="118" r="4" fill="#EAA900"/>
<rect width="11.3137" height="5.65765" transform="matrix(0.702261 -0.711919 0.716698 0.697384 297 150.055)" fill="#EAA900"/>
<rect x="349.278" y="111.207" width="3.26013" height="5.43355" transform="rotate(21.9912 349.278 111.207)" fill="#EA0000"/>
<rect width="14.1825" height="4.52689" transform="matrix(-0.424553 -0.905403 0.878924 -0.476961 312.021 107)" fill="#EA0000"/>
<path d="M269 120.506C269 120.506 275.949 117.045 277.525 118.859C278.391 119.855 279.045 121.062 278.27 122.043C277.672 122.799 276.809 122.896 275.797 122.718C273.655 122.342 273.688 119.368 274.548 117.526C275.735 114.982 282.036 116.483 282.036 116.483" stroke="#05EA00" stroke-width="1.2"/>
<path d="M293.082 142C293.082 142 292.595 139.108 293.992 138.532C295.166 138.048 296.184 140.189 297.148 139.413C298.125 138.626 295.686 137.38 296.48 136.44C297.316 135.45 300 136.44 300 136.44" stroke="#005EEA" stroke-width="1.2"/>
<path d="M289.808 102C289.808 104.761 293.791 107 291.019 107C288.247 107 286 104.761 286 102C286 99.2386 288.247 97 291.019 97C293.791 97 289.808 99.2386 289.808 102Z" fill="#9F00EA"/>
<path d="M335.5 138L336.735 141.8H340.731L337.498 144.149L338.733 147.95L335.5 145.601L332.267 147.95L333.502 144.149L330.269 141.8H334.265L335.5 138Z" fill="#05EA00"/>
<path d="M297 120L297.674 122.073H299.853L298.09 123.354L298.763 125.427L297 124.146L295.237 125.427L295.91 123.354L294.147 122.073H296.326L297 120Z" fill="#EAD300"/>
<path d="M327.732 106.552L328.248 101.618L331.842 104.146L332.252 100.007L335.53 102.513L336.552 98.0383" stroke="#005EEA"/>
<path d="M408.93 144.448L418.439 161.273L411.631 163.78L408.93 144.448Z" fill="#EAD300"/>
<path d="M357.466 162.04L373.506 160.662L373.028 166.3L357.466 162.04Z" fill="#EA0000"/>
<ellipse cx="392" cy="168.5" rx="2" ry="1.5" fill="#9F00EA"/>
<circle cx="395" cy="152" r="4" fill="#EAA900"/>
<rect width="11.3137" height="5.65765" transform="matrix(0.702261 -0.711919 0.716698 0.697384 376 184.055)" fill="#EAA900"/>
<rect x="428.278" y="145.207" width="3.26013" height="5.43355" transform="rotate(21.9912 428.278 145.207)" fill="#EA0000"/>
<rect width="14.1825" height="4.52689" transform="matrix(-0.424553 -0.905403 0.878924 -0.476961 391.021 141)" fill="#EA0000"/>
<path d="M348 154.506C348 154.506 354.949 151.045 356.525 152.859C357.391 153.855 358.045 155.062 357.27 156.043C356.672 156.799 355.809 156.896 354.797 156.718C352.655 156.342 352.688 153.368 353.548 151.526C354.735 148.982 361.036 150.483 361.036 150.483" stroke="#05EA00" stroke-width="1.2"/>
<path d="M372.082 176C372.082 176 371.595 173.108 372.992 172.532C374.166 172.048 375.184 174.189 376.148 173.413C377.125 172.626 374.686 171.38 375.48 170.44C376.316 169.45 379 170.44 379 170.44" stroke="#005EEA" stroke-width="1.2"/>
<path d="M368.808 136C368.808 138.761 372.791 141 370.019 141C367.247 141 365 138.761 365 136C365 133.239 367.247 131 370.019 131C372.791 131 368.808 133.239 368.808 136Z" fill="#9F00EA"/>
<path d="M414.5 172L415.735 175.8H419.731L416.498 178.149L417.733 181.95L414.5 179.601L411.267 181.95L412.502 178.149L409.269 175.8H413.265L414.5 172Z" fill="#05EA00"/>
<path d="M376 154L376.674 156.073H378.853L377.09 157.354L377.763 159.427L376 158.146L374.237 159.427L374.91 157.354L373.147 156.073H375.326L376 154Z" fill="#EAD300"/>
<path d="M406.732 140.552L407.248 135.618L410.842 138.146L411.252 134.007L414.53 136.513L415.552 132.038" stroke="#005EEA"/>
<path d="M835.93 156.448L845.439 173.273L838.631 175.78L835.93 156.448Z" fill="#EAD300"/>
<path d="M784.466 174.04L800.506 172.662L800.028 178.3L784.466 174.04Z" fill="#EA0000"/>
<ellipse cx="819" cy="180.5" rx="2" ry="1.5" fill="#9F00EA"/>
<circle cx="822" cy="164" r="4" fill="#EAA900"/>
<rect width="11.3137" height="5.65765" transform="matrix(0.702261 -0.711919 0.716698 0.697384 803 196.055)" fill="#EAA900"/>
<rect x="855.278" y="157.207" width="3.26013" height="5.43355" transform="rotate(21.9912 855.278 157.207)" fill="#EA0000"/>
<rect width="14.1825" height="4.52689" transform="matrix(-0.424553 -0.905403 0.878924 -0.476961 818.021 153)" fill="#EA0000"/>
<path d="M775 166.506C775 166.506 781.949 163.045 783.525 164.859C784.391 165.855 785.045 167.062 784.27 168.043C783.672 168.799 782.809 168.896 781.797 168.718C779.655 168.342 779.688 165.368 780.548 163.526C781.735 160.982 788.036 162.483 788.036 162.483" stroke="#05EA00" stroke-width="1.2"/>
<path d="M799.082 188C799.082 188 798.595 185.108 799.992 184.532C801.166 184.048 802.184 186.189 803.148 185.413C804.125 184.626 801.686 183.38 802.48 182.44C803.316 181.45 806 182.44 806 182.44" stroke="#005EEA" stroke-width="1.2"/>
<path d="M795.808 148C795.808 150.761 799.791 153 797.019 153C794.247 153 792 150.761 792 148C792 145.239 794.247 143 797.019 143C799.791 143 795.808 145.239 795.808 148Z" fill="#9F00EA"/>
<path d="M841.5 184L842.735 187.8H846.731L843.498 190.149L844.733 193.95L841.5 191.601L838.267 193.95L839.502 190.149L836.269 187.8H840.265L841.5 184Z" fill="#05EA00"/>
<path d="M803 166L803.674 168.073H805.853L804.09 169.354L804.763 171.427L803 170.146L801.237 171.427L801.91 169.354L800.147 168.073H802.326L803 166Z" fill="#EAD300"/>
<path d="M833.732 152.552L834.248 147.618L837.842 150.146L838.252 146.007L841.53 148.513L842.552 144.038" stroke="#005EEA"/>
<path d="M174.93 207.448L184.439 224.273L177.631 226.78L174.93 207.448Z" fill="#EAD300"/>
<path d="M123.466 225.04L139.506 223.662L139.028 229.3L123.466 225.04Z" fill="#EA0000"/>
<ellipse cx="158" cy="231.5" rx="2" ry="1.5" fill="#9F00EA"/>
<circle cx="161" cy="215" r="4" fill="#EAA900"/>
<rect width="11.3137" height="5.65765" transform="matrix(0.702261 -0.711919 0.716698 0.697384 142 247.055)" fill="#EAA900"/>
<rect x="194.278" y="208.207" width="3.26013" height="5.43355" transform="rotate(21.9912 194.278 208.207)" fill="#EA0000"/>
<rect width="14.1825" height="4.52689" transform="matrix(-0.424553 -0.905403 0.878924 -0.476961 157.021 204)" fill="#EA0000"/>
<path d="M114 217.506C114 217.506 120.949 214.045 122.525 215.859C123.391 216.855 124.045 218.062 123.27 219.043C122.672 219.799 121.809 219.896 120.797 219.718C118.655 219.342 118.688 216.368 119.548 214.526C120.735 211.982 127.036 213.483 127.036 213.483" stroke="#05EA00" stroke-width="1.2"/>
<path d="M138.082 239C138.082 239 137.595 236.108 138.992 235.532C140.166 235.048 141.184 237.189 142.148 236.413C143.125 235.626 140.686 234.38 141.48 233.44C142.316 232.45 145 233.44 145 233.44" stroke="#005EEA" stroke-width="1.2"/>
<path d="M134.808 199C134.808 201.761 138.791 204 136.019 204C133.247 204 131 201.761 131 199C131 196.239 133.247 194 136.019 194C138.791 194 134.808 196.239 134.808 199Z" fill="#9F00EA"/>
<path d="M180.5 235L181.735 238.8H185.731L182.498 241.149L183.733 244.95L180.5 242.601L177.267 244.95L178.502 241.149L175.269 238.8H179.265L180.5 235Z" fill="#05EA00"/>
<path d="M142 217L142.674 219.073H144.853L143.09 220.354L143.763 222.427L142 221.146L140.237 222.427L140.91 220.354L139.147 219.073H141.326L142 217Z" fill="#EAD300"/>
<path d="M172.732 203.552L173.248 198.618L176.842 201.146L177.252 197.007L180.53 199.513L181.552 195.038" stroke="#005EEA"/>
<defs>
<filter id="filter0_d_2179_2166" x="752.833" y="174.429" width="148.227" height="99.7617" filterUnits="userSpaceOnUse" color-interpolation-filters="sRGB">
<feFlood flood-opacity="0" result="BackgroundImageFix"/>
<feColorMatrix in="SourceAlpha" type="matrix" values="0 0 0 0 0 0 0 0 0 0 0 0 0 0 0 0 0 0 127 0" result="hardAlpha"/>
<feOffset dy="4"/>
<feGaussianBlur stdDeviation="2"/>
<feComposite in2="hardAlpha" operator="out"/>
<feColorMatrix type="matrix" values="0 0 0 0 0 0 0 0 0 0 0 0 0 0 0 0 0 0 0.25 0"/>
<feBlend mode="normal" in2="BackgroundImageFix" result="effect1_dropShadow_2179_2166"/>
<feBlend mode="normal" in="SourceGraphic" in2="effect1_dropShadow_2179_2166" result="shape"/>
</filter>
<filter id="filter1_d_2179_2166" x="582.771" y="174.427" width="179.252" height="95.8848" filterUnits="userSpaceOnUse" color-interpolation-filters="sRGB">
<feFlood flood-opacity="0" result="BackgroundImageFix"/>
<feColorMatrix in="SourceAlpha" type="matrix" values="0 0 0 0 0 0 0 0 0 0 0 0 0 0 0 0 0 0 127 0" result="hardAlpha"/>
<feOffset dy="4"/>
<feGaussianBlur stdDeviation="2"/>
<feComposite in2="hardAlpha" operator="out"/>
<feColorMatrix type="matrix" values="0 0 0 0 0 0 0 0 0 0 0 0 0 0 0 0 0 0 0.25 0"/>
<feBlend mode="normal" in2="BackgroundImageFix" result="effect1_dropShadow_2179_2166"/>
<feBlend mode="normal" in="SourceGraphic" in2="effect1_dropShadow_2179_2166" result="shape"/>
</filter>
<filter id="filter2_d_2179_2166" x="140.939" y="174.429" width="148.227" height="99.7617" filterUnits="userSpaceOnUse" color-interpolation-filters="sRGB">
<feFlood flood-opacity="0" result="BackgroundImageFix"/>
<feColorMatrix in="SourceAlpha" type="matrix" values="0 0 0 0 0 0 0 0 0 0 0 0 0 0 0 0 0 0 127 0" result="hardAlpha"/>
<feOffset dy="4"/>
<feGaussianBlur stdDeviation="2"/>
<feComposite in2="hardAlpha" operator="out"/>
<feColorMatrix type="matrix" values="0 0 0 0 0 0 0 0 0 0 0 0 0 0 0 0 0 0 0.25 0"/>
<feBlend mode="normal" in2="BackgroundImageFix" result="effect1_dropShadow_2179_2166"/>
<feBlend mode="normal" in="SourceGraphic" in2="effect1_dropShadow_2179_2166" result="shape"/>
</filter>
<filter id="filter3_d_2179_2166" x="279.977" y="174.427" width="179.252" height="95.8848" filterUnits="userSpaceOnUse" color-interpolation-filters="sRGB">
<feFlood flood-opacity="0" result="BackgroundImageFix"/>
<feColorMatrix in="SourceAlpha" type="matrix" values="0 0 0 0 0 0 0 0 0 0 0 0 0 0 0 0 0 0 127 0" result="hardAlpha"/>
<feOffset dy="4"/>
<feGaussianBlur stdDeviation="2"/>
<feComposite in2="hardAlpha" operator="out"/>
<feColorMatrix type="matrix" values="0 0 0 0 0 0 0 0 0 0 0 0 0 0 0 0 0 0 0.25 0"/>
<feBlend mode="normal" in2="BackgroundImageFix" result="effect1_dropShadow_2179_2166"/>
<feBlend mode="normal" in="SourceGraphic" in2="effect1_dropShadow_2179_2166" result="shape"/>
</filter>
<filter id="filter4_d_2179_2166" x="817" y="225" width="47.6287" height="38.1846" filterUnits="userSpaceOnUse" color-interpolation-filters="sRGB">
<feFlood flood-opacity="0" result="BackgroundImageFix"/>
<feColorMatrix in="SourceAlpha" type="matrix" values="0 0 0 0 0 0 0 0 0 0 0 0 0 0 0 0 0 0 127 0" result="hardAlpha"/>
<feOffset dy="4"/>
<feGaussianBlur stdDeviation="2"/>
<feComposite in2="hardAlpha" operator="out"/>
<feColorMatrix type="matrix" values="0 0 0 0 0 0 0 0 0 0 0 0 0 0 0 0 0 0 0.1 0"/>
<feBlend mode="normal" in2="BackgroundImageFix" result="effect1_dropShadow_2179_2166"/>
<feBlend mode="normal" in="SourceGraphic" in2="effect1_dropShadow_2179_2166" result="shape"/>
</filter>
<filter id="filter5_d_2179_2166" x="996.371" y="225" width="47.6287" height="38.1846" filterUnits="userSpaceOnUse" color-interpolation-filters="sRGB">
<feFlood flood-opacity="0" result="BackgroundImageFix"/>
<feColorMatrix in="SourceAlpha" type="matrix" values="0 0 0 0 0 0 0 0 0 0 0 0 0 0 0 0 0 0 127 0" result="hardAlpha"/>
<feOffset dy="4"/>
<feGaussianBlur stdDeviation="2"/>
<feComposite in2="hardAlpha" operator="out"/>
<feColorMatrix type="matrix" values="0 0 0 0 0 0 0 0 0 0 0 0 0 0 0 0 0 0 0.1 0"/>
<feBlend mode="normal" in2="BackgroundImageFix" result="effect1_dropShadow_2179_2166"/>
<feBlend mode="normal" in="SourceGraphic" in2="effect1_dropShadow_2179_2166" result="shape"/>
</filter>
<filter id="filter6_d_2179_2166" x="179.371" y="225" width="47.6287" height="38.1846" filterUnits="userSpaceOnUse" color-interpolation-filters="sRGB">
<feFlood flood-opacity="0" result="BackgroundImageFix"/>
<feColorMatrix in="SourceAlpha" type="matrix" values="0 0 0 0 0 0 0 0 0 0 0 0 0 0 0 0 0 0 127 0" result="hardAlpha"/>
<feOffset dy="4"/>
<feGaussianBlur stdDeviation="2"/>
<feComposite in2="hardAlpha" operator="out"/>
<feColorMatrix type="matrix" values="0 0 0 0 0 0 0 0 0 0 0 0 0 0 0 0 0 0 0.1 0"/>
<feBlend mode="normal" in2="BackgroundImageFix" result="effect1_dropShadow_2179_2166"/>
<feBlend mode="normal" in="SourceGraphic" in2="effect1_dropShadow_2179_2166" result="shape"/>
</filter>
<filter id="filter7_d_2179_2166" x="0" y="225" width="47.6287" height="38.1846" filterUnits="userSpaceOnUse" color-interpolation-filters="sRGB">
<feFlood flood-opacity="0" result="BackgroundImageFix"/>
<feColorMatrix in="SourceAlpha" type="matrix" values="0 0 0 0 0 0 0 0 0 0 0 0 0 0 0 0 0 0 127 0" result="hardAlpha"/>
<feOffset dy="4"/>
<feGaussianBlur stdDeviation="2"/>
<feComposite in2="hardAlpha" operator="out"/>
<feColorMatrix type="matrix" values="0 0 0 0 0 0 0 0 0 0 0 0 0 0 0 0 0 0 0.1 0"/>
<feBlend mode="normal" in2="BackgroundImageFix" result="effect1_dropShadow_2179_2166"/>
<feBlend mode="normal" in="SourceGraphic" in2="effect1_dropShadow_2179_2166" result="shape"/>
</filter>
</defs>
</svg>
