<svg width="1140" height="112" viewBox="0 0 1140 112" fill="none" xmlns="http://www.w3.org/2000/svg">
<rect x="0.734863" y="63.959" width="1138.7" height="47.4458" fill="#C4C4C4"/>
<rect x="1.23486" y="64.459" width="46.4458" height="46.4458" fill="#C4C4C4" stroke="#464646"/>
<rect x="285.91" y="64.459" width="46.4458" height="46.4458" fill="#C4C4C4" stroke="#464646"/>
<rect x="48.6807" y="64.459" width="46.4458" height="46.4458" fill="#C4C4C4" stroke="#464646"/>
<rect x="96.1265" y="64.459" width="46.4458" height="46.4458" fill="#C4C4C4" stroke="#464646"/>
<rect x="143.573" y="64.459" width="46.4458" height="46.4458" fill="#C4C4C4" stroke="#464646"/>
<rect x="191.018" y="64.459" width="46.4458" height="46.4458" fill="#C4C4C4" stroke="#464646"/>
<rect x="238.464" y="64.459" width="46.4458" height="46.4458" fill="#C4C4C4" stroke="#464646"/>
<rect x="285.91" y="64.459" width="46.4458" height="46.4458" fill="#C4C4C4" stroke="#464646"/>
<rect x="333.356" y="64.459" width="46.4458" height="46.4458" fill="#C4C4C4" stroke="#464646"/>
<rect x="380.802" y="64.459" width="46.4458" height="46.4458" fill="#C4C4C4" stroke="#464646"/>
<rect x="428.248" y="64.459" width="46.4458" height="46.4458" fill="#C4C4C4" stroke="#464646"/>
<rect x="475.693" y="64.459" width="46.4458" height="46.4458" fill="#C4C4C4" stroke="#464646"/>
<rect x="523.139" y="64.459" width="46.4458" height="46.4458" fill="#C4C4C4" stroke="#464646"/>
<rect x="570.585" y="64.459" width="46.4458" height="46.4458" fill="#C4C4C4" stroke="#464646"/>
<rect x="618.031" y="64.459" width="46.4458" height="46.4458" fill="#C4C4C4" stroke="#464646"/>
<rect x="665.477" y="64.459" width="46.4458" height="46.4458" fill="#C4C4C4" stroke="#464646"/>
<rect x="712.923" y="64.459" width="46.4458" height="46.4458" fill="#C4C4C4" stroke="#464646"/>
<rect x="950.152" y="64.459" width="46.4458" height="46.4458" fill="#C4C4C4" stroke="#464646"/>
<rect x="760.368" y="64.459" width="46.4458" height="46.4458" fill="#C4C4C4" stroke="#464646"/>
<rect x="807.814" y="64.459" width="46.4458" height="46.4458" fill="#C4C4C4" stroke="#464646"/>
<rect x="1045.04" y="64.459" width="46.4458" height="46.4458" fill="#C4C4C4" stroke="#464646"/>
<rect x="855.26" y="64.459" width="46.4458" height="46.4458" fill="#C4C4C4" stroke="#464646"/>
<rect x="902.706" y="64.459" width="46.4458" height="46.4458" fill="#C4C4C4" stroke="#464646"/>
<rect x="950.152" y="64.459" width="46.4458" height="46.4458" fill="#C4C4C4" stroke="#464646"/>
<rect x="997.598" y="64.459" width="46.4458" height="46.4458" fill="#C4C4C4" stroke="#464646"/>
<rect x="1045.04" y="64.459" width="46.4458" height="46.4458" fill="#C4C4C4" stroke="#464646"/>
<rect x="1092.49" y="64.459" width="46.4458" height="46.4458" fill="#C4C4C4" stroke="#464646"/>
<path d="M26.8228 79.7759V97.2305H24.7092V81.9918H24.6069L20.3456 84.8214V82.6736L24.7092 79.7759H26.8228Z" fill="#464646"/>
<path d="M66.4448 97.2305V95.6964L72.2061 89.3896C72.8823 88.6509 73.4391 88.0089 73.8766 87.4634C74.3141 86.9123 74.638 86.3952 74.8482 85.9123C75.0641 85.4237 75.1721 84.9123 75.1721 84.3782C75.1721 83.7646 75.0243 83.2333 74.7289 82.7844C74.4391 82.3356 74.0414 81.989 73.5357 81.7447C73.03 81.5004 72.4618 81.3782 71.8311 81.3782C71.1607 81.3782 70.5755 81.5174 70.0755 81.7958C69.5811 82.0685 69.1976 82.4521 68.9249 82.9464C68.6578 83.4407 68.5243 84.0202 68.5243 84.685H66.513C66.513 83.6623 66.7488 82.7646 67.2203 81.9918C67.6919 81.2191 68.334 80.6168 69.1465 80.185C69.9647 79.7532 70.8823 79.5373 71.8993 79.5373C72.9221 79.5373 73.8283 79.7532 74.6181 80.185C75.4078 80.6168 76.0272 81.1992 76.476 81.9322C76.9249 82.6651 77.1493 83.4805 77.1493 84.3782C77.1493 85.0202 77.0328 85.6481 76.7999 86.2617C76.5726 86.8697 76.1749 87.5487 75.6067 88.2987C75.0442 89.043 74.263 89.9521 73.263 91.0259L69.3425 95.2191V95.3555H77.4561V97.2305H66.4448Z" fill="#464646"/>
<path d="M356.582 97.4691C355.411 97.4691 354.377 97.2617 353.48 96.8469C352.588 96.4265 351.891 95.8498 351.391 95.1168C350.891 94.3782 350.644 93.5373 350.65 92.5941C350.644 91.8555 350.789 91.1737 351.085 90.5487C351.38 89.918 351.784 89.3924 352.295 88.9719C352.812 88.5458 353.389 88.2759 354.025 88.1623V88.06C353.19 87.8441 352.525 87.3754 352.031 86.6538C351.536 85.9265 351.292 85.0998 351.298 84.1736C351.292 83.2873 351.516 82.4947 351.971 81.7958C352.426 81.0969 353.051 80.5458 353.846 80.1424C354.647 79.739 355.559 79.5373 356.582 79.5373C357.593 79.5373 358.497 79.739 359.292 80.1424C360.088 80.5458 360.713 81.0969 361.167 81.7958C361.627 82.4947 361.86 83.2873 361.866 84.1736C361.86 85.0998 361.607 85.9265 361.107 86.6538C360.613 87.3754 359.957 87.8441 359.139 88.06V88.1623C359.769 88.2759 360.338 88.5458 360.843 88.9719C361.349 89.3924 361.752 89.918 362.053 90.5487C362.355 91.1737 362.508 91.8555 362.514 92.5941C362.508 93.5373 362.252 94.3782 361.747 95.1168C361.247 95.8498 360.551 96.4265 359.659 96.8469C358.772 97.2617 357.747 97.4691 356.582 97.4691ZM356.582 95.5941C357.372 95.5941 358.053 95.4663 358.627 95.2106C359.201 94.9549 359.644 94.5941 359.957 94.1282C360.269 93.6623 360.428 93.1168 360.434 92.4918C360.428 91.8327 360.258 91.2504 359.923 90.7447C359.588 90.239 359.13 89.8413 358.551 89.5515C357.977 89.2617 357.32 89.1168 356.582 89.1168C355.838 89.1168 355.173 89.2617 354.588 89.5515C354.008 89.8413 353.551 90.239 353.215 90.7447C352.886 91.2504 352.724 91.8327 352.73 92.4918C352.724 93.1168 352.874 93.6623 353.181 94.1282C353.494 94.5941 353.94 94.9549 354.519 95.2106C355.099 95.4663 355.786 95.5941 356.582 95.5941ZM356.582 87.31C357.207 87.31 357.761 87.185 358.244 86.935C358.732 86.685 359.116 86.3356 359.394 85.8867C359.673 85.4379 359.815 84.9123 359.82 84.31C359.815 83.7191 359.676 83.2049 359.403 82.7674C359.13 82.3242 358.752 81.9833 358.269 81.7447C357.786 81.5004 357.224 81.3782 356.582 81.3782C355.928 81.3782 355.357 81.5004 354.869 81.7447C354.38 81.9833 354.002 82.3242 353.735 82.7674C353.468 83.2049 353.338 83.7191 353.343 84.31C353.338 84.9123 353.471 85.4379 353.744 85.8867C354.022 86.3356 354.406 86.685 354.894 86.935C355.383 87.185 355.945 87.31 356.582 87.31Z" fill="#464646"/>
<path d="M683.764 79.7759V97.2305H681.65V81.9918H681.548L677.286 84.8214V82.6736L681.65 79.7759H683.764ZM694.238 97.4691C693.238 97.4691 692.338 97.2702 691.536 96.8725C690.735 96.4748 690.093 95.9293 689.61 95.2362C689.127 94.543 688.863 93.7532 688.818 92.8668H690.863C690.943 93.6566 691.301 94.31 691.937 94.8271C692.579 95.3384 693.346 95.5941 694.238 95.5941C694.954 95.5941 695.59 95.4265 696.147 95.0913C696.71 94.756 697.15 94.2958 697.468 93.7106C697.792 93.1197 697.954 92.4521 697.954 91.7077C697.954 90.9464 697.786 90.2674 697.451 89.6708C697.122 89.0685 696.667 88.5941 696.088 88.2475C695.508 87.9009 694.846 87.7248 694.102 87.7191C693.568 87.7134 693.019 87.7958 692.457 87.9663C691.894 88.131 691.431 88.3441 691.068 88.6055L689.09 88.3668L690.147 79.7759H699.215V81.6509H691.92L691.306 86.7987H691.409C691.767 86.5146 692.215 86.2788 692.755 86.0913C693.295 85.9038 693.858 85.81 694.443 85.81C695.511 85.81 696.463 86.0657 697.298 86.5771C698.139 87.0827 698.798 87.7759 699.275 88.6566C699.758 89.5373 700 90.543 700 91.6737C700 92.7873 699.75 93.7816 699.25 94.6566C698.755 95.5259 698.073 96.2134 697.204 96.7191C696.335 97.2191 695.346 97.4691 694.238 97.4691Z" fill="#464646"/>
<path d="M912.97 97.2305V95.6964L918.732 89.3896C919.408 88.6509 919.964 88.0089 920.402 87.4634C920.839 86.9123 921.163 86.3952 921.374 85.9123C921.589 85.4237 921.697 84.9123 921.697 84.3782C921.697 83.7646 921.55 83.2333 921.254 82.7844C920.964 82.3356 920.567 81.989 920.061 81.7447C919.555 81.5004 918.987 81.3782 918.357 81.3782C917.686 81.3782 917.101 81.5174 916.601 81.7958C916.107 82.0685 915.723 82.4521 915.45 82.9464C915.183 83.4407 915.05 84.0202 915.05 84.685H913.038C913.038 83.6623 913.274 82.7646 913.746 81.9918C914.217 81.2191 914.859 80.6168 915.672 80.185C916.49 79.7532 917.408 79.5373 918.425 79.5373C919.447 79.5373 920.354 79.7532 921.143 80.185C921.933 80.6168 922.553 81.1992 923.001 81.9322C923.45 82.6651 923.675 83.4805 923.675 84.3782C923.675 85.0202 923.558 85.6481 923.325 86.2617C923.098 86.8697 922.7 87.5487 922.132 88.2987C921.57 89.043 920.788 89.9521 919.788 91.0259L915.868 95.2191V95.3555H923.982V97.2305H912.97ZM933.195 97.4691C931.911 97.4691 930.817 97.1197 929.913 96.4208C929.01 95.7163 928.32 94.6964 927.842 93.3612C927.365 92.0202 927.126 90.4009 927.126 88.5032C927.126 86.6168 927.365 85.006 927.842 83.6708C928.325 82.3299 929.018 81.3072 929.922 80.6026C930.831 79.8924 931.922 79.5373 933.195 79.5373C934.467 79.5373 935.555 79.8924 936.459 80.6026C937.368 81.3072 938.061 82.3299 938.538 83.6708C939.021 85.006 939.263 86.6168 939.263 88.5032C939.263 90.4009 939.024 92.0202 938.547 93.3612C938.07 94.6964 937.379 95.7163 936.476 96.4208C935.572 97.1197 934.479 97.4691 933.195 97.4691ZM933.195 95.5941C934.467 95.5941 935.456 94.9805 936.161 93.7532C936.865 92.5259 937.217 90.7759 937.217 88.5032C937.217 86.9918 937.055 85.7049 936.732 84.6424C936.413 83.5799 935.953 82.7702 935.351 82.2134C934.754 81.6566 934.036 81.3782 933.195 81.3782C931.933 81.3782 930.947 82.0004 930.237 83.2447C929.527 84.4833 929.172 86.2361 929.172 88.5032C929.172 90.0146 929.331 91.2987 929.649 92.3555C929.967 93.4123 930.425 94.2163 931.021 94.7674C931.624 95.3185 932.348 95.5941 933.195 95.5941Z" fill="#464646"/>
<path d="M962.338 97.2305V95.6964L968.099 89.3896C968.775 88.6509 969.332 88.0089 969.77 87.4634C970.207 86.9123 970.531 86.3952 970.741 85.9123C970.957 85.4237 971.065 84.9123 971.065 84.3782C971.065 83.7646 970.917 83.2333 970.622 82.7844C970.332 82.3356 969.934 81.989 969.429 81.7447C968.923 81.5004 968.355 81.3782 967.724 81.3782C967.054 81.3782 966.469 81.5174 965.969 81.7958C965.474 82.0685 965.091 82.4521 964.818 82.9464C964.551 83.4407 964.417 84.0202 964.417 84.685H962.406C962.406 83.6623 962.642 82.7646 963.113 81.9918C963.585 81.2191 964.227 80.6168 965.04 80.185C965.858 79.7532 966.775 79.5373 967.792 79.5373C968.815 79.5373 969.721 79.7532 970.511 80.185C971.301 80.6168 971.92 81.1992 972.369 81.9322C972.818 82.6651 973.042 83.4805 973.042 84.3782C973.042 85.0202 972.926 85.6481 972.693 86.2617C972.466 86.8697 972.068 87.5487 971.5 88.2987C970.937 89.043 970.156 89.9521 969.156 91.0259L965.236 95.2191V95.3555H973.349V97.2305H962.338ZM983.005 79.7759V97.2305H980.892V81.9918H980.79L976.528 84.8214V82.6736L980.892 79.7759H983.005Z" fill="#464646"/>
<path d="M119.413 97.4691C118.288 97.4691 117.285 97.2759 116.405 96.8896C115.53 96.5032 114.834 95.9663 114.317 95.2788C113.805 94.5856 113.527 93.7816 113.481 92.8668H115.629C115.675 93.4293 115.868 93.9151 116.209 94.3242C116.55 94.7276 116.996 95.0401 117.547 95.2617C118.098 95.4833 118.709 95.5941 119.379 95.5941C120.129 95.5941 120.794 95.4634 121.374 95.2021C121.953 94.9407 122.408 94.5771 122.737 94.1112C123.067 93.6452 123.231 93.1055 123.231 92.4918C123.231 91.8498 123.072 91.2844 122.754 90.7958C122.436 90.3015 121.97 89.9151 121.356 89.6367C120.743 89.3583 119.993 89.2191 119.106 89.2191H117.709V87.3441H119.106C119.8 87.3441 120.408 87.2191 120.93 86.9691C121.459 86.7191 121.871 86.3668 122.166 85.9123C122.467 85.4577 122.618 84.9237 122.618 84.31C122.618 83.7191 122.487 83.2049 122.226 82.7674C121.964 82.3299 121.595 81.989 121.118 81.7447C120.646 81.5004 120.089 81.3782 119.447 81.3782C118.845 81.3782 118.277 81.489 117.743 81.7106C117.214 81.9265 116.783 82.2418 116.447 82.6566C116.112 83.0657 115.93 83.56 115.902 84.1396H113.856C113.891 83.2248 114.166 82.4236 114.683 81.7361C115.2 81.043 115.876 80.5032 116.712 80.1168C117.553 79.7305 118.476 79.5373 119.481 79.5373C120.561 79.5373 121.487 79.756 122.26 80.1935C123.033 80.6254 123.626 81.1964 124.041 81.9066C124.456 82.6168 124.663 83.3839 124.663 84.2077C124.663 85.1907 124.405 86.0288 123.888 86.7219C123.376 87.4151 122.68 87.8952 121.8 88.1623V88.2987C122.902 88.4805 123.763 88.9492 124.382 89.7049C125.001 90.4549 125.311 91.3839 125.311 92.4918C125.311 93.4407 125.053 94.293 124.535 95.0487C124.024 95.7987 123.325 96.3896 122.439 96.8214C121.553 97.2532 120.544 97.4691 119.413 97.4691Z" fill="#464646"/>
<path d="M403.9 79.5373C404.616 79.543 405.332 79.6793 406.048 79.9464C406.764 80.2134 407.417 80.6566 408.008 81.2759C408.599 81.8896 409.073 82.7276 409.431 83.7901C409.789 84.8526 409.968 86.185 409.968 87.7873C409.968 89.3384 409.82 90.7163 409.525 91.9208C409.235 93.1197 408.815 94.131 408.264 94.9549C407.718 95.7788 407.053 96.4038 406.269 96.8299C405.491 97.256 404.61 97.4691 403.627 97.4691C402.65 97.4691 401.778 97.2759 401.011 96.8896C400.249 96.4975 399.624 95.9549 399.136 95.2617C398.653 94.5629 398.343 93.7532 398.207 92.8327H400.286C400.474 93.6339 400.846 94.2958 401.403 94.8185C401.965 95.3356 402.707 95.5941 403.627 95.5941C404.974 95.5941 406.036 95.006 406.815 93.8299C407.599 92.6538 407.991 90.9918 407.991 88.8441H407.855C407.536 89.3214 407.159 89.7333 406.721 90.0799C406.284 90.4265 405.798 90.6935 405.264 90.881C404.73 91.0685 404.161 91.1623 403.559 91.1623C402.559 91.1623 401.642 90.9151 400.806 90.4208C399.977 89.9208 399.312 89.2362 398.812 88.3668C398.318 87.4918 398.07 86.4918 398.07 85.3668C398.07 84.2987 398.309 83.3214 398.786 82.435C399.269 81.543 399.945 80.8327 400.815 80.3043C401.69 79.7759 402.718 79.5202 403.9 79.5373ZM403.9 81.4123C403.184 81.4123 402.539 81.5913 401.965 81.9492C401.397 82.3015 400.945 82.7788 400.61 83.381C400.281 83.9776 400.116 84.6396 400.116 85.3668C400.116 86.0941 400.275 86.756 400.593 87.3526C400.917 87.9435 401.357 88.4151 401.914 88.7674C402.477 89.114 403.116 89.2873 403.832 89.2873C404.372 89.2873 404.874 89.1822 405.34 88.9719C405.806 88.756 406.213 88.4634 406.559 88.0941C406.911 87.7191 407.187 87.2958 407.386 86.8242C407.585 86.3469 407.684 85.8498 407.684 85.3327C407.684 84.6509 407.519 84.0117 407.19 83.4151C406.866 82.8185 406.417 82.3356 405.843 81.9663C405.275 81.5969 404.627 81.4123 403.9 81.4123Z" fill="#464646"/>
<path d="M731.022 79.7759V97.2305H728.909V81.9918H728.806L724.545 84.8214V82.6736L728.909 79.7759H731.022ZM741.838 97.4691C741.122 97.4577 740.406 97.3214 739.69 97.06C738.974 96.7987 738.321 96.3583 737.73 95.739C737.139 95.114 736.664 94.2702 736.306 93.2077C735.948 92.1396 735.769 90.7987 735.769 89.185C735.769 87.6396 735.914 86.2702 736.204 85.0771C736.494 83.8782 736.914 82.8697 737.465 82.0515C738.017 81.2276 738.681 80.6026 739.46 80.1765C740.244 79.7504 741.127 79.5373 742.11 79.5373C743.088 79.5373 743.957 79.7333 744.718 80.1254C745.485 80.5117 746.11 81.0515 746.593 81.7447C747.076 82.4379 747.389 83.2362 747.531 84.1396H745.451C745.258 83.3555 744.883 82.7049 744.326 82.1879C743.769 81.6708 743.031 81.4123 742.11 81.4123C740.758 81.4123 739.693 82.0004 738.914 83.1765C738.142 84.3526 737.752 86.0032 737.747 88.1282H737.883C738.201 87.6452 738.579 87.2333 739.017 86.8924C739.46 86.5458 739.948 86.2788 740.483 86.0913C741.017 85.9038 741.582 85.81 742.179 85.81C743.179 85.81 744.093 86.06 744.923 86.56C745.752 87.0543 746.417 87.739 746.917 88.614C747.417 89.4833 747.667 90.4805 747.667 91.6055C747.667 92.685 747.426 93.6737 746.943 94.5714C746.46 95.4634 745.781 96.1737 744.906 96.7021C744.037 97.2248 743.014 97.4805 741.838 97.4691ZM741.838 95.5941C742.554 95.5941 743.196 95.4151 743.764 95.0572C744.338 94.6992 744.789 94.2191 745.119 93.6168C745.454 93.0146 745.622 92.3441 745.622 91.6055C745.622 90.8839 745.46 90.2276 745.136 89.6367C744.818 89.0401 744.377 88.5657 743.815 88.2134C743.258 87.8612 742.622 87.685 741.906 87.685C741.366 87.685 740.863 87.793 740.397 88.0089C739.931 88.2191 739.522 88.5089 739.17 88.8782C738.823 89.2475 738.551 89.6708 738.352 90.1481C738.153 90.6197 738.054 91.1168 738.054 91.6396C738.054 92.3327 738.215 92.9805 738.539 93.5827C738.869 94.185 739.318 94.6708 739.886 95.0401C740.46 95.4094 741.11 95.5941 741.838 95.5941Z" fill="#464646"/>
<path d="M160.494 93.6509V91.9123L168.164 79.7759H169.426V82.4691H168.573L162.778 91.6396V91.7759H173.107V93.6509H160.494ZM168.71 97.2305V93.1225V92.3129V79.7759H170.721V97.2305H168.71Z" fill="#464646"/>
<path d="M446.336 79.7759V97.2305H444.222V81.9918H444.12L439.858 84.8214V82.6736L444.222 79.7759H446.336ZM457.049 97.4691C455.765 97.4691 454.671 97.1197 453.767 96.4208C452.864 95.7163 452.174 94.6964 451.696 93.3612C451.219 92.0202 450.98 90.4009 450.98 88.5032C450.98 86.6168 451.219 85.006 451.696 83.6708C452.179 82.3299 452.872 81.3072 453.776 80.6026C454.685 79.8924 455.776 79.5373 457.049 79.5373C458.321 79.5373 459.409 79.8924 460.313 80.6026C461.222 81.3072 461.915 82.3299 462.392 83.6708C462.875 85.006 463.117 86.6168 463.117 88.5032C463.117 90.4009 462.878 92.0202 462.401 93.3612C461.924 94.6964 461.233 95.7163 460.33 96.4208C459.426 97.1197 458.333 97.4691 457.049 97.4691ZM457.049 95.5941C458.321 95.5941 459.31 94.9805 460.015 93.7532C460.719 92.5259 461.071 90.7759 461.071 88.5032C461.071 86.9918 460.909 85.7049 460.586 84.6424C460.267 83.5799 459.807 82.7702 459.205 82.2134C458.608 81.6566 457.89 81.3782 457.049 81.3782C455.787 81.3782 454.801 82.0004 454.091 83.2447C453.381 84.4833 453.026 86.2361 453.026 88.5032C453.026 90.0146 453.185 91.2987 453.503 92.3555C453.821 93.4123 454.279 94.2163 454.875 94.7674C455.478 95.3185 456.202 95.5941 457.049 95.5941Z" fill="#464646"/>
<path d="M779.101 79.7759V97.2305H776.987V81.9918H776.885L772.624 84.8214V82.6736L776.987 79.7759H779.101ZM784.666 97.2305L792.473 81.7873V81.6509H783.473V79.7759H794.655V81.7532L786.882 97.2305H784.666Z" fill="#464646"/>
<path d="M1008.1 97.2305V95.6964L1013.86 89.3896C1014.53 88.6509 1015.09 88.0089 1015.53 87.4634C1015.97 86.9123 1016.29 86.3952 1016.5 85.9123C1016.72 85.4237 1016.82 84.9123 1016.82 84.3782C1016.82 83.7646 1016.68 83.2333 1016.38 82.7844C1016.09 82.3356 1015.69 81.989 1015.19 81.7447C1014.68 81.5004 1014.11 81.3782 1013.48 81.3782C1012.81 81.3782 1012.23 81.5174 1011.73 81.7958C1011.23 82.0685 1010.85 82.4521 1010.58 82.9464C1010.31 83.4407 1010.18 84.0202 1010.18 84.685H1008.16C1008.16 83.6623 1008.4 82.7646 1008.87 81.9918C1009.34 81.2191 1009.99 80.6168 1010.8 80.185C1011.62 79.7532 1012.53 79.5373 1013.55 79.5373C1014.57 79.5373 1015.48 79.7532 1016.27 80.185C1017.06 80.6168 1017.68 81.1992 1018.13 81.9322C1018.58 82.6651 1018.8 83.4805 1018.8 84.3782C1018.8 85.0202 1018.68 85.6481 1018.45 86.2617C1018.22 86.8697 1017.83 87.5487 1017.26 88.2987C1016.7 89.043 1015.91 89.9521 1014.91 91.0259L1010.99 95.2191V95.3555H1019.11V97.2305H1008.1ZM1022.63 97.2305V95.6964L1028.39 89.3896C1029.06 88.6509 1029.62 88.0089 1030.06 87.4634C1030.5 86.9123 1030.82 86.3952 1031.03 85.9123C1031.25 85.4237 1031.35 84.9123 1031.35 84.3782C1031.35 83.7646 1031.21 83.2333 1030.91 82.7844C1030.62 82.3356 1030.22 81.989 1029.72 81.7447C1029.21 81.5004 1028.64 81.3782 1028.01 81.3782C1027.34 81.3782 1026.76 81.5174 1026.26 81.7958C1025.76 82.0685 1025.38 82.4521 1025.11 82.9464C1024.84 83.4407 1024.71 84.0202 1024.71 84.685H1022.7C1022.7 83.6623 1022.93 82.7646 1023.4 81.9918C1023.87 81.2191 1024.52 80.6168 1025.33 80.185C1026.15 79.7532 1027.06 79.5373 1028.08 79.5373C1029.1 79.5373 1030.01 79.7532 1030.8 80.185C1031.59 80.6168 1032.21 81.1992 1032.66 81.9322C1033.11 82.6651 1033.33 83.4805 1033.33 84.3782C1033.33 85.0202 1033.22 85.6481 1032.98 86.2617C1032.76 86.8697 1032.36 87.5487 1031.79 88.2987C1031.23 89.043 1030.45 89.9521 1029.45 91.0259L1025.53 95.2191V95.3555H1033.64V97.2305H1022.63Z" fill="#464646"/>
<path d="M1055.17 97.2305V95.6964L1060.93 89.3896C1061.6 88.6509 1062.16 88.0089 1062.6 87.4634C1063.04 86.9123 1063.36 86.3952 1063.57 85.9123C1063.79 85.4237 1063.89 84.9123 1063.89 84.3782C1063.89 83.7646 1063.75 83.2333 1063.45 82.7844C1063.16 82.3356 1062.76 81.989 1062.26 81.7447C1061.75 81.5004 1061.18 81.3782 1060.55 81.3782C1059.88 81.3782 1059.3 81.5174 1058.8 81.7958C1058.3 82.0685 1057.92 82.4521 1057.65 82.9464C1057.38 83.4407 1057.25 84.0202 1057.25 84.685H1055.24C1055.24 83.6623 1055.47 82.7646 1055.94 81.9918C1056.41 81.2191 1057.06 80.6168 1057.87 80.185C1058.69 79.7532 1059.6 79.5373 1060.62 79.5373C1061.64 79.5373 1062.55 79.7532 1063.34 80.185C1064.13 80.6168 1064.75 81.1992 1065.2 81.9322C1065.65 82.6651 1065.87 83.4805 1065.87 84.3782C1065.87 85.0202 1065.76 85.6481 1065.52 86.2617C1065.29 86.8697 1064.9 87.5487 1064.33 88.2987C1063.77 89.043 1062.99 89.9521 1061.99 91.0259L1058.06 95.2191V95.3555H1066.18V97.2305H1055.17ZM1075.6 97.4691C1074.47 97.4691 1073.47 97.2759 1072.59 96.8896C1071.71 96.5032 1071.02 95.9663 1070.5 95.2788C1069.99 94.5856 1069.71 93.7816 1069.66 92.8668H1071.81C1071.86 93.4293 1072.05 93.9151 1072.39 94.3242C1072.73 94.7276 1073.18 95.0401 1073.73 95.2617C1074.28 95.4833 1074.89 95.5941 1075.56 95.5941C1076.31 95.5941 1076.98 95.4634 1077.56 95.2021C1078.14 94.9407 1078.59 94.5771 1078.92 94.1112C1079.25 93.6452 1079.41 93.1055 1079.41 92.4918C1079.41 91.8498 1079.26 91.2844 1078.94 90.7958C1078.62 90.3015 1078.15 89.9151 1077.54 89.6367C1076.93 89.3583 1076.18 89.2191 1075.29 89.2191H1073.89V87.3441H1075.29C1075.98 87.3441 1076.59 87.2191 1077.11 86.9691C1077.64 86.7191 1078.05 86.3668 1078.35 85.9123C1078.65 85.4577 1078.8 84.9237 1078.8 84.31C1078.8 83.7191 1078.67 83.2049 1078.41 82.7674C1078.15 82.3299 1077.78 81.989 1077.3 81.7447C1076.83 81.5004 1076.27 81.3782 1075.63 81.3782C1075.03 81.3782 1074.46 81.489 1073.93 81.7106C1073.4 81.9265 1072.97 82.2418 1072.63 82.6566C1072.29 83.0657 1072.11 83.56 1072.08 84.1396H1070.04C1070.07 83.2248 1070.35 82.4236 1070.87 81.7361C1071.38 81.043 1072.06 80.5032 1072.89 80.1168C1073.74 79.7305 1074.66 79.5373 1075.66 79.5373C1076.74 79.5373 1077.67 79.756 1078.44 80.1935C1079.22 80.6254 1079.81 81.1964 1080.22 81.9066C1080.64 82.6168 1080.85 83.3839 1080.85 84.2077C1080.85 85.1907 1080.59 86.0288 1080.07 86.7219C1079.56 87.4151 1078.86 87.8952 1077.98 88.1623V88.2987C1079.08 88.4805 1079.95 88.9492 1080.56 89.7049C1081.18 90.4549 1081.49 91.3839 1081.49 92.4918C1081.49 93.4407 1081.24 94.293 1080.72 95.0487C1080.21 95.7987 1079.51 96.3896 1078.62 96.8214C1077.74 97.2532 1076.73 97.4691 1075.6 97.4691Z" fill="#464646"/>
<path d="M214.202 97.4691C213.202 97.4691 212.301 97.2702 211.5 96.8725C210.699 96.4748 210.057 95.9293 209.574 95.2362C209.091 94.543 208.827 93.7532 208.782 92.8668H210.827C210.907 93.6566 211.265 94.31 211.901 94.8271C212.543 95.3384 213.31 95.5941 214.202 95.5941C214.918 95.5941 215.554 95.4265 216.111 95.0913C216.674 94.756 217.114 94.2958 217.432 93.7106C217.756 93.1197 217.918 92.4521 217.918 91.7077C217.918 90.9464 217.75 90.2674 217.415 89.6708C217.086 89.0685 216.631 88.5941 216.051 88.2475C215.472 87.9009 214.81 87.7248 214.066 87.7191C213.532 87.7134 212.983 87.7958 212.421 87.9663C211.858 88.131 211.395 88.3441 211.032 88.6055L209.054 88.3668L210.111 79.7759H219.179V81.6509H211.884L211.27 86.7987H211.373C211.73 86.5146 212.179 86.2788 212.719 86.0913C213.259 85.9038 213.821 85.81 214.407 85.81C215.475 85.81 216.426 86.0657 217.262 86.5771C218.103 87.0827 218.762 87.7759 219.239 88.6566C219.722 89.5373 219.963 90.543 219.963 91.6737C219.963 92.7873 219.713 93.7816 219.213 94.6566C218.719 95.5259 218.037 96.2134 217.168 96.7191C216.299 97.2191 215.31 97.4691 214.202 97.4691Z" fill="#464646"/>
<path d="M495.703 79.7759V97.2305H493.59V81.9918H493.487L489.226 84.8214V82.6736L493.59 79.7759H495.703ZM506.859 79.7759V97.2305H504.746V81.9918H504.644L500.382 84.8214V82.6736L504.746 79.7759H506.859Z" fill="#464646"/>
<path d="M826.008 79.7759V97.2305H823.894V81.9918H823.792L819.531 84.8214V82.6736L823.894 79.7759H826.008ZM836.619 97.4691C835.448 97.4691 834.414 97.2617 833.516 96.8469C832.624 96.4265 831.928 95.8498 831.428 95.1168C830.928 94.3782 830.681 93.5373 830.687 92.5941C830.681 91.8555 830.826 91.1737 831.122 90.5487C831.417 89.918 831.82 89.3924 832.332 88.9719C832.849 88.5458 833.426 88.2759 834.062 88.1623V88.06C833.227 87.8441 832.562 87.3754 832.068 86.6538C831.573 85.9265 831.329 85.0998 831.335 84.1736C831.329 83.2873 831.553 82.4947 832.008 81.7958C832.462 81.0969 833.087 80.5458 833.883 80.1424C834.684 79.739 835.596 79.5373 836.619 79.5373C837.63 79.5373 838.533 79.739 839.329 80.1424C840.124 80.5458 840.749 81.0969 841.204 81.7958C841.664 82.4947 841.897 83.2873 841.903 84.1736C841.897 85.0998 841.644 85.9265 841.144 86.6538C840.65 87.3754 839.994 87.8441 839.176 88.06V88.1623C839.806 88.2759 840.374 88.5458 840.88 88.9719C841.386 89.3924 841.789 89.918 842.09 90.5487C842.391 91.1737 842.545 91.8555 842.551 92.5941C842.545 93.5373 842.289 94.3782 841.783 95.1168C841.283 95.8498 840.587 96.4265 839.695 96.8469C838.809 97.2617 837.783 97.4691 836.619 97.4691ZM836.619 95.5941C837.408 95.5941 838.09 95.4663 838.664 95.2106C839.238 94.9549 839.681 94.5941 839.994 94.1282C840.306 93.6623 840.465 93.1168 840.471 92.4918C840.465 91.8327 840.295 91.2504 839.96 90.7447C839.624 90.239 839.167 89.8413 838.587 89.5515C838.014 89.2617 837.357 89.1168 836.619 89.1168C835.874 89.1168 835.21 89.2617 834.624 89.5515C834.045 89.8413 833.587 90.239 833.252 90.7447C832.923 91.2504 832.761 91.8327 832.766 92.4918C832.761 93.1168 832.911 93.6623 833.218 94.1282C833.531 94.5941 833.977 94.9549 834.556 95.2106C835.136 95.4663 835.823 95.5941 836.619 95.5941ZM836.619 87.31C837.244 87.31 837.798 87.185 838.281 86.935C838.769 86.685 839.153 86.3356 839.431 85.8867C839.71 85.4379 839.852 84.9123 839.857 84.31C839.852 83.7191 839.712 83.2049 839.44 82.7674C839.167 82.3242 838.789 81.9833 838.306 81.7447C837.823 81.5004 837.261 81.3782 836.619 81.3782C835.965 81.3782 835.394 81.5004 834.906 81.7447C834.417 81.9833 834.039 82.3242 833.772 82.7674C833.505 83.2049 833.374 83.7191 833.38 84.31C833.374 84.9123 833.508 85.4379 833.781 85.8867C834.059 86.3356 834.443 86.685 834.931 86.935C835.42 87.185 835.982 87.31 836.619 87.31Z" fill="#464646"/>
<path d="M261.801 97.4691C261.085 97.4577 260.369 97.3214 259.653 97.06C258.937 96.7987 258.284 96.3583 257.693 95.739C257.102 95.114 256.628 94.2702 256.27 93.2077C255.912 92.1396 255.733 90.7987 255.733 89.185C255.733 87.6396 255.878 86.2702 256.168 85.0771C256.457 83.8782 256.878 82.8697 257.429 82.0515C257.98 81.2276 258.645 80.6026 259.423 80.1765C260.207 79.7504 261.091 79.5373 262.074 79.5373C263.051 79.5373 263.92 79.7333 264.682 80.1254C265.449 80.5117 266.074 81.0515 266.557 81.7447C267.04 82.4379 267.352 83.2362 267.494 84.1396H265.415C265.221 83.3555 264.846 82.7049 264.29 82.1879C263.733 81.6708 262.994 81.4123 262.074 81.4123C260.721 81.4123 259.656 82.0004 258.878 83.1765C258.105 84.3526 257.716 86.0032 257.71 88.1282H257.846C258.165 87.6452 258.543 87.2333 258.98 86.8924C259.423 86.5458 259.912 86.2788 260.446 86.0913C260.98 85.9038 261.545 85.81 262.142 85.81C263.142 85.81 264.057 86.06 264.886 86.56C265.716 87.0543 266.381 87.739 266.881 88.614C267.381 89.4833 267.631 90.4805 267.631 91.6055C267.631 92.685 267.389 93.6737 266.906 94.5714C266.423 95.4634 265.744 96.1737 264.869 96.7021C264 97.2248 262.977 97.4805 261.801 97.4691ZM261.801 95.5941C262.517 95.5941 263.159 95.4151 263.727 95.0572C264.301 94.6992 264.753 94.2191 265.082 93.6168C265.418 93.0146 265.585 92.3441 265.585 91.6055C265.585 90.8839 265.423 90.2276 265.099 89.6367C264.781 89.0401 264.341 88.5657 263.778 88.2134C263.221 87.8612 262.585 87.685 261.869 87.685C261.329 87.685 260.827 87.793 260.361 88.0089C259.895 88.2191 259.486 88.5089 259.133 88.8782C258.787 89.2475 258.514 89.6708 258.315 90.1481C258.116 90.6197 258.017 91.1168 258.017 91.6396C258.017 92.3327 258.179 92.9805 258.503 93.5827C258.832 94.185 259.281 94.6708 259.849 95.0401C260.423 95.4094 261.074 95.5941 261.801 95.5941Z" fill="#464646"/>
<path d="M588.532 79.7759V97.2305H586.419V81.9918H586.316L582.055 84.8214V82.6736L586.419 79.7759H588.532ZM599.45 97.4691C598.325 97.4691 597.322 97.2759 596.441 96.8896C595.566 96.5032 594.87 95.9663 594.353 95.2788C593.842 94.5856 593.564 93.7816 593.518 92.8668H595.666C595.711 93.4293 595.904 93.9151 596.245 94.3242C596.586 94.7276 597.032 95.0401 597.583 95.2617C598.135 95.4833 598.745 95.5941 599.416 95.5941C600.166 95.5941 600.831 95.4634 601.41 95.2021C601.99 94.9407 602.444 94.5771 602.774 94.1112C603.103 93.6452 603.268 93.1055 603.268 92.4918C603.268 91.8498 603.109 91.2844 602.791 90.7958C602.473 90.3015 602.007 89.9151 601.393 89.6367C600.779 89.3583 600.029 89.2191 599.143 89.2191H597.745V87.3441H599.143C599.836 87.3441 600.444 87.2191 600.967 86.9691C601.495 86.7191 601.907 86.3668 602.203 85.9123C602.504 85.4577 602.654 84.9237 602.654 84.31C602.654 83.7191 602.524 83.2049 602.262 82.7674C602.001 82.3299 601.632 81.989 601.154 81.7447C600.683 81.5004 600.126 81.3782 599.484 81.3782C598.882 81.3782 598.314 81.489 597.779 81.7106C597.251 81.9265 596.819 82.2418 596.484 82.6566C596.149 83.0657 595.967 83.56 595.939 84.1396H593.893C593.927 83.2248 594.203 82.4236 594.72 81.7361C595.237 81.043 595.913 80.5032 596.748 80.1168C597.589 79.7305 598.512 79.5373 599.518 79.5373C600.598 79.5373 601.524 79.756 602.297 80.1935C603.069 80.6254 603.663 81.1964 604.078 81.9066C604.493 82.6168 604.7 83.3839 604.7 84.2077C604.7 85.1907 604.441 86.0288 603.924 86.7219C603.413 87.4151 602.717 87.8952 601.836 88.1623V88.2987C602.939 88.4805 603.799 88.9492 604.419 89.7049C605.038 90.4549 605.348 91.3839 605.348 92.4918C605.348 93.4407 605.089 94.293 604.572 95.0487C604.061 95.7987 603.362 96.3896 602.475 96.8214C601.589 97.2532 600.581 97.4691 599.45 97.4691Z" fill="#464646"/>
<path d="M304.63 97.2305L312.437 81.7873V81.6509H303.437V79.7759H314.619V81.7532L306.846 97.2305H304.63Z" fill="#464646"/>
<path d="M635.92 79.7759V97.2305H633.806V81.9918H633.704L629.442 84.8214V82.6736L633.806 79.7759H635.92ZM640.53 93.6509V91.9123L648.201 79.7759H649.462V82.4691H648.61L642.814 91.6396V91.7759H653.144V93.6509H640.53ZM648.746 97.2305V93.1225V92.3129V79.7759H650.758V97.2305H648.746Z" fill="#464646"/>
<path d="M541.462 79.7759V97.2305H539.348V81.9918H539.246L534.984 84.8214V82.6736L539.348 79.7759H541.462ZM546.482 97.2305V95.6964L552.243 89.3896C552.919 88.6509 553.476 88.0089 553.913 87.4634C554.351 86.9123 554.675 86.3952 554.885 85.9123C555.101 85.4237 555.209 84.9123 555.209 84.3782C555.209 83.7646 555.061 83.2333 554.766 82.7844C554.476 82.3356 554.078 81.989 553.573 81.7447C553.067 81.5004 552.499 81.3782 551.868 81.3782C551.198 81.3782 550.612 81.5174 550.112 81.7958C549.618 82.0685 549.234 82.4521 548.962 82.9464C548.695 83.4407 548.561 84.0202 548.561 84.685H546.55C546.55 83.6623 546.786 82.7646 547.257 81.9918C547.729 81.2191 548.371 80.6168 549.183 80.185C550.002 79.7532 550.919 79.5373 551.936 79.5373C552.959 79.5373 553.865 79.7532 554.655 80.185C555.445 80.6168 556.064 81.1992 556.513 81.9322C556.962 82.6651 557.186 83.4805 557.186 84.3782C557.186 85.0202 557.07 85.6481 556.837 86.2617C556.609 86.8697 556.212 87.5487 555.644 88.2987C555.081 89.043 554.3 89.9521 553.3 91.0259L549.379 95.2191V95.3555H557.493V97.2305H546.482Z" fill="#464646"/>
<path d="M873.36 79.7759V97.2305H871.246V81.9918H871.144L866.883 84.8214V82.6736L871.246 79.7759H873.36ZM883.937 79.5373C884.653 79.543 885.368 79.6793 886.084 79.9464C886.8 80.2134 887.454 80.6566 888.045 81.2759C888.636 81.8896 889.11 82.7276 889.468 83.7901C889.826 84.8526 890.005 86.185 890.005 87.7873C890.005 89.3384 889.857 90.7163 889.562 91.9208C889.272 93.1197 888.851 94.131 888.3 94.9549C887.755 95.7788 887.09 96.4038 886.306 96.8299C885.528 97.256 884.647 97.4691 883.664 97.4691C882.687 97.4691 881.814 97.2759 881.047 96.8896C880.286 96.4975 879.661 95.9549 879.172 95.2617C878.689 94.5629 878.38 93.7532 878.243 92.8327H880.323C880.511 93.6339 880.883 94.2958 881.439 94.8185C882.002 95.3356 882.743 95.5941 883.664 95.5941C885.011 95.5941 886.073 95.006 886.851 93.8299C887.636 92.6538 888.028 90.9918 888.028 88.8441H887.891C887.573 89.3214 887.195 89.7333 886.758 90.0799C886.32 90.4265 885.834 90.6935 885.3 90.881C884.766 91.0685 884.198 91.1623 883.596 91.1623C882.596 91.1623 881.678 90.9151 880.843 90.4208C880.013 89.9208 879.349 89.2362 878.849 88.3668C878.354 87.4918 878.107 86.4918 878.107 85.3668C878.107 84.2987 878.346 83.3214 878.823 82.435C879.306 81.543 879.982 80.8327 880.851 80.3043C881.726 79.7759 882.755 79.5202 883.937 79.5373ZM883.937 81.4123C883.221 81.4123 882.576 81.5913 882.002 81.9492C881.434 82.3015 880.982 82.7788 880.647 83.381C880.317 83.9776 880.153 84.6396 880.153 85.3668C880.153 86.0941 880.312 86.756 880.63 87.3526C880.954 87.9435 881.394 88.4151 881.951 88.7674C882.513 89.114 883.153 89.2873 883.868 89.2873C884.408 89.2873 884.911 89.1822 885.377 88.9719C885.843 88.756 886.249 88.4634 886.596 88.0941C886.948 87.7191 887.224 87.2958 887.422 86.8242C887.621 86.3469 887.721 85.8498 887.721 85.3327C887.721 84.6509 887.556 84.0117 887.226 83.4151C886.903 82.8185 886.454 82.3356 885.88 81.9663C885.312 81.5969 884.664 81.4123 883.937 81.4123Z" fill="#464646"/>
<path d="M1102.74 97.2305V95.6964L1108.5 89.3896C1109.18 88.6509 1109.74 88.0089 1110.17 87.4634C1110.61 86.9123 1110.93 86.3952 1111.15 85.9123C1111.36 85.4237 1111.47 84.9123 1111.47 84.3782C1111.47 83.7646 1111.32 83.2333 1111.03 82.7844C1110.74 82.3356 1110.34 81.989 1109.83 81.7447C1109.33 81.5004 1108.76 81.3782 1108.13 81.3782C1107.46 81.3782 1106.87 81.5174 1106.37 81.7958C1105.88 82.0685 1105.49 82.4521 1105.22 82.9464C1104.95 83.4407 1104.82 84.0202 1104.82 84.685H1102.81C1102.81 83.6623 1103.05 82.7646 1103.52 81.9918C1103.99 81.2191 1104.63 80.6168 1105.44 80.185C1106.26 79.7532 1107.18 79.5373 1108.2 79.5373C1109.22 79.5373 1110.13 79.7532 1110.91 80.185C1111.7 80.6168 1112.32 81.1992 1112.77 81.9322C1113.22 82.6651 1113.45 83.4805 1113.45 84.3782C1113.45 85.0202 1113.33 85.6481 1113.1 86.2617C1112.87 86.8697 1112.47 87.5487 1111.9 88.2987C1111.34 89.043 1110.56 89.9521 1109.56 91.0259L1105.64 95.2191V95.3555H1113.75V97.2305H1102.74ZM1116.49 93.6509V91.9123L1124.16 79.7759H1125.42V82.4691H1124.57L1118.77 91.6396V91.7759H1129.1V93.6509H1116.49ZM1124.7 97.2305V93.1225V92.3129V79.7759H1126.72V97.2305H1124.7Z" fill="#464646"/>
<rect x="712" y="11.3701" width="143" height="52.5849" fill="#E6A352"/>
<path d="M723.997 0H843.483L855 11.3697H712L723.997 0Z" fill="#E6A352" fill-opacity="0.7"/>
<path d="M778.221 0H789.258L790.218 11.3697H777.262L778.221 0Z" fill="#C4C4C4" fill-opacity="0.7"/>
<rect x="777.262" y="11.3701" width="12.9564" height="11.8434" fill="#C4C4C4"/>
<rect x="477" y="11.3701" width="143" height="52.5849" fill="#E6A352"/>
<path d="M488.997 0H608.483L620 11.3697H477L488.997 0Z" fill="#E6A352" fill-opacity="0.7"/>
<path d="M543.221 0H554.258L555.218 11.3697H542.262L543.221 0Z" fill="#C4C4C4" fill-opacity="0.7"/>
<rect x="542.262" y="11.3701" width="12.9564" height="11.8434" fill="#C4C4C4"/>
<rect x="1" y="11.3701" width="143" height="52.5849" fill="#E6A352"/>
<path d="M12.9966 0H132.483L144 11.3697H1L12.9966 0Z" fill="#E6A352" fill-opacity="0.7"/>
<path d="M67.2215 0H78.2584L79.2181 11.3697H66.2617L67.2215 0Z" fill="#C4C4C4" fill-opacity="0.7"/>
<rect x="66.2617" y="11.3701" width="12.9564" height="11.8434" fill="#C4C4C4"/>
<rect x="236" y="12.3701" width="143" height="52.5849" fill="#E6A352"/>
<path d="M247.997 1H367.483L379 12.3697H236L247.997 1Z" fill="#E6A352" fill-opacity="0.7"/>
<path d="M302.221 1H313.258L314.218 12.3697H301.262L302.221 1Z" fill="#C4C4C4" fill-opacity="0.7"/>
<rect x="301.262" y="12.3701" width="12.9564" height="11.8434" fill="#C4C4C4"/>
<rect x="947" y="11.3701" width="143" height="52.5849" fill="#E6A352"/>
<path d="M958.997 0H1078.48L1090 11.3697H947L958.997 0Z" fill="#E6A352" fill-opacity="0.7"/>
<path d="M1013.22 0H1024.26L1025.22 11.3697H1012.26L1013.22 0Z" fill="#C4C4C4" fill-opacity="0.7"/>
<rect x="1012.26" y="11.3701" width="12.9564" height="11.8434" fill="#C4C4C4"/>
</svg>
