<?xml version="1.0" encoding="UTF-8"?>
<!DOCTYPE svg PUBLIC "-//W3C//DTD SVG 1.1//EN" "http://www.w3.org/Graphics/SVG/1.1/DTD/svg11.dtd">
<svg xmlns="http://www.w3.org/2000/svg" version="1.1" width="510px" height="320.424242px" viewBox="0 0 1980 1244" style="shape-rendering:geometricPrecision; text-rendering:geometricPrecision; image-rendering:optimizeQuality; fill-rule:evenodd; clip-rule:evenodd" xmlns:xlink="http://www.w3.org/1999/xlink">
<g><path style="opacity:1" fill="#fefefe" d="M -0.5,-0.5 C 659.5,-0.5 1319.5,-0.5 1979.5,-0.5C 1979.5,414.167 1979.5,828.833 1979.5,1243.5C 1319.5,1243.5 659.5,1243.5 -0.5,1243.5C -0.5,828.833 -0.5,414.167 -0.5,-0.5 Z"/></g>
<g><path style="opacity:1" fill="#050505" d="M 1671.5,5.5 C 1677.51,5.33385 1683.51,5.50051 1689.5,6C 1693.97,13.3016 1698.64,20.4682 1703.5,27.5C 1708.41,20.672 1713.08,13.672 1717.5,6.5C 1723.81,5.33608 1730.14,5.16941 1736.5,6C 1728.22,16.4417 1720.55,27.2751 1713.5,38.5C 1720.91,49.635 1728.57,60.635 1736.5,71.5C 1730.53,72.6636 1724.53,72.8303 1718.5,72C 1713.7,64.364 1708.7,56.864 1703.5,49.5C 1698.38,56.914 1693.38,64.414 1688.5,72C 1682.47,72.8303 1676.47,72.6636 1670.5,71.5C 1678.5,60.5 1686.5,49.5 1694.5,38.5C 1686.39,27.7401 1678.73,16.7401 1671.5,5.5 Z"/></g>
<g><path style="opacity:1" fill="#141414" d="M 1449.5,124.5 C 1620.83,124.333 1792.17,124.5 1963.5,125C 1969.97,127.474 1974.47,131.974 1977,138.5C 1977.67,235.5 1977.67,332.5 1977,429.5C 1975.49,435.365 1971.99,439.532 1966.5,442C 1793.89,443.663 1621.22,443.996 1448.5,443C 1441.9,440.737 1437.74,436.237 1436,429.5C 1435.67,382.5 1435.33,335.5 1435,288.5C 1383.25,361.01 1331.25,433.343 1279,505.5C 1266.75,488.006 1254.75,470.34 1243,452.5C 1010.67,586.833 778.333,721.167 546,855.5C 545.667,884.5 545.333,913.5 545,942.5C 542.833,950 538,954.833 530.5,957C 360.167,957.667 189.833,957.667 19.5,957C 11.6667,954.5 6.5,949.333 4,941.5C 3.33333,845.833 3.33333,750.167 4,654.5C 6.57302,646.261 12.073,641.095 20.5,639C 189.833,638.333 359.167,638.333 528.5,639C 536.464,640.556 541.964,645.056 545,652.5C 545.333,683.833 545.667,715.167 546,746.5C 760.582,622.793 975.082,498.96 1189.5,375C 1190.45,374.282 1190.62,373.449 1190,372.5C 1177.67,355.178 1165.84,337.511 1154.5,319.5C 1157.8,318.56 1161.14,317.727 1164.5,317C 1254.83,306.083 1345.17,295.25 1435.5,284.5C 1435.33,235.832 1435.5,187.166 1436,138.5C 1438.66,132.006 1443.16,127.339 1449.5,124.5 Z"/></g>
<g><path style="opacity:1" fill="#fefefe" d="M 1449.5,128.5 C 1621.89,128.004 1794.22,128.504 1966.5,130C 1969.43,132.264 1971.6,135.098 1973,138.5C 1973.99,236.556 1973.66,334.556 1972,432.5C 1969.91,436.302 1966.75,438.802 1962.5,440C 1791.83,440.667 1621.17,440.667 1450.5,440C 1445.31,438.141 1441.81,434.641 1440,429.5C 1439.33,332.5 1439.33,235.5 1440,138.5C 1442.02,133.98 1445.19,130.647 1449.5,128.5 Z"/></g>
<g><path style="opacity:1" fill="#fefefe" d="M 1418.5,289.5 C 1422.18,289.335 1425.85,289.501 1429.5,290C 1379.46,359.922 1329.29,429.755 1279,499.5C 1267.57,482.296 1255.9,465.296 1244,448.5C 1010.43,583.033 776.934,717.7 543.5,852.5C 542.667,882.161 542.167,911.828 542,941.5C 540.622,946.208 537.788,949.708 533.5,952C 361.876,953.661 190.209,953.995 18.5,953C 14.3882,951.221 11.2215,948.388 9,944.5C 7.34281,847.877 7.00948,751.21 8,654.5C 9.83333,648.667 13.6667,644.833 19.5,643C 189.167,642.333 358.833,642.333 528.5,643C 535.294,644.146 539.794,647.979 542,654.5C 542.333,687.167 542.667,719.833 543,752.5C 760.085,627.04 977.252,501.707 1194.5,376.5C 1195.58,375.635 1195.75,374.635 1195,373.5C 1183.67,356.833 1172.33,340.167 1161,323.5C 1160.31,322.668 1160.48,322.002 1161.5,321.5C 1247.31,310.899 1332.97,300.232 1418.5,289.5 Z"/></g>
<g><path style="opacity:1" fill="#b7b7b7" d="M 298.5,518.5 C 303.64,517.512 308.974,517.179 314.5,517.5C 314.818,522.032 314.485,526.366 313.5,530.5C 313.5,526.5 313.5,522.5 313.5,518.5C 308.5,518.5 303.5,518.5 298.5,518.5 Z"/></g>
<g><path style="opacity:1" fill="#070707" d="M 298.5,518.5 C 303.5,518.5 308.5,518.5 313.5,518.5C 313.5,522.5 313.5,526.5 313.5,530.5C 308.5,530.5 303.5,530.5 298.5,530.5C 298.5,526.5 298.5,522.5 298.5,518.5 Z"/></g>
<g><path style="opacity:1" fill="#070707" d="M 172.5,519.5 C 185.504,519.333 198.504,519.5 211.5,520C 218.463,520.056 223.296,523.223 226,529.5C 226.667,536.833 226.667,544.167 226,551.5C 225.384,554.787 223.884,557.621 221.5,560C 216.806,562.424 211.806,563.757 206.5,564C 200.509,564.499 194.509,564.666 188.5,564.5C 188.5,571.833 188.5,579.167 188.5,586.5C 183.167,586.5 177.833,586.5 172.5,586.5C 172.5,564.167 172.5,541.833 172.5,519.5 Z"/></g>
<g><path style="opacity:1" fill="#050505" d="M 393.5,521.5 C 398.5,521.5 403.5,521.5 408.5,521.5C 408.5,526.5 408.5,531.5 408.5,536.5C 413.167,536.5 417.833,536.5 422.5,536.5C 422.5,539.5 422.5,542.5 422.5,545.5C 417.833,545.5 413.167,545.5 408.5,545.5C 408.334,555.172 408.5,564.839 409,574.5C 409.833,575.333 410.667,576.167 411.5,577C 415.152,577.499 418.818,577.665 422.5,577.5C 422.5,580.833 422.5,584.167 422.5,587.5C 416.824,587.666 411.157,587.499 405.5,587C 399,585.833 395.167,582 394,575.5C 393.5,565.506 393.334,555.506 393.5,545.5C 390.167,545.5 386.833,545.5 383.5,545.5C 383.5,542.5 383.5,539.5 383.5,536.5C 386.833,536.5 390.167,536.5 393.5,536.5C 393.5,531.5 393.5,526.5 393.5,521.5 Z"/></g>
<g><path style="opacity:1" fill="#8e8e8e" d="M 205.5,531.5 C 200.167,531.5 194.833,531.5 189.5,531.5C 189.5,538.833 189.5,546.167 189.5,553.5C 188.508,546.018 188.175,538.352 188.5,530.5C 194.358,530.178 200.025,530.511 205.5,531.5 Z"/></g>
<g><path style="opacity:1" fill="#fdfdfd" d="M 205.5,531.5 C 207.39,531.297 208.89,531.963 210,533.5C 210.667,539.167 210.667,544.833 210,550.5C 209.097,551.701 207.931,552.535 206.5,553C 200.843,553.499 195.176,553.666 189.5,553.5C 189.5,546.167 189.5,538.833 189.5,531.5C 194.833,531.5 200.167,531.5 205.5,531.5 Z"/></g>
<g><path style="opacity:1" fill="#020202" d="M 48.5,535.5 C 55.3914,534.901 62.058,535.735 68.5,538C 69.7875,539.41 70.9542,540.91 72,542.5C 73.5,539.667 75.6667,537.5 78.5,536C 85.7149,534.887 92.7149,535.554 99.5,538C 101.049,539.214 102.215,540.714 103,542.5C 103.5,557.163 103.667,571.83 103.5,586.5C 98.5,586.5 93.5,586.5 88.5,586.5C 88.6666,573.163 88.4999,559.829 88,546.5C 87.5,546 87,545.5 86.5,545C 82.5,544.333 78.5,544.333 74.5,545C 74,545.5 73.5,546 73,546.5C 72.5001,559.829 72.3334,573.163 72.5,586.5C 67.5,586.5 62.5,586.5 57.5,586.5C 57.6666,573.163 57.4999,559.829 57,546.5C 52,543.833 47,543.833 42,546.5C 41.5001,559.829 41.3334,573.163 41.5,586.5C 36.5,586.5 31.5,586.5 26.5,586.5C 26.5,569.833 26.5,553.167 26.5,536.5C 31.5,536.5 36.5,536.5 41.5,536.5C 41.3433,537.873 41.51,539.207 42,540.5C 43.9651,538.45 46.1318,536.783 48.5,535.5 Z"/></g>
<g><path style="opacity:1" fill="#050505" d="M 249.5,535.5 C 284.053,531.582 295.553,546.249 284,579.5C 280.392,584.222 275.559,586.722 269.5,587C 263.167,587.667 256.833,587.667 250.5,587C 242.78,585.614 237.947,581.114 236,573.5C 235.333,565.5 235.333,557.5 236,549.5C 238.017,542.318 242.517,537.652 249.5,535.5 Z"/></g>
<g><path style="opacity:1" fill="#040404" d="M 349.5,535.5 C 354.844,535.334 360.177,535.501 365.5,536C 370.105,536.715 373.271,539.215 375,543.5C 375.5,557.829 375.667,572.163 375.5,586.5C 370.5,586.5 365.5,586.5 360.5,586.5C 360.667,573.163 360.5,559.829 360,546.5C 355.391,544.49 350.558,543.99 345.5,545C 344.667,545.833 343.833,546.667 343,547.5C 342.5,560.496 342.333,573.496 342.5,586.5C 337.5,586.5 332.5,586.5 327.5,586.5C 327.5,569.833 327.5,553.167 327.5,536.5C 332.5,536.5 337.5,536.5 342.5,536.5C 342.343,537.873 342.51,539.207 343,540.5C 344.965,538.45 347.132,536.783 349.5,535.5 Z"/></g>
<g><path style="opacity:1" fill="#080808" d="M 474.5,576.5 C 475.477,579.287 475.81,582.287 475.5,585.5C 464.529,587.76 453.529,587.927 442.5,586C 436.499,584.664 432.332,581.164 430,575.5C 423.596,540.235 437.429,528.069 471.5,539C 473.378,540.543 474.878,542.376 476,544.5C 477.339,551.426 477.839,558.426 477.5,565.5C 466.833,565.5 456.167,565.5 445.5,565.5C 445.335,568.518 445.502,571.518 446,574.5C 446.903,575.701 448.069,576.535 449.5,577C 457.861,577.705 466.194,577.538 474.5,576.5 Z"/></g>
<g><path style="opacity:1" fill="#070707" d="M 511.5,535.5 C 514.833,535.5 518.167,535.5 521.5,535.5C 521.5,539.5 521.5,543.5 521.5,547.5C 516.258,547.023 511.258,547.856 506.5,550C 505.874,550.75 505.374,551.584 505,552.5C 504.5,563.828 504.333,575.162 504.5,586.5C 499.5,586.5 494.5,586.5 489.5,586.5C 489.5,569.833 489.5,553.167 489.5,536.5C 494.167,536.5 498.833,536.5 503.5,536.5C 503.338,538.527 503.505,540.527 504,542.5C 506.015,539.588 508.515,537.255 511.5,535.5 Z"/></g>
<g><path style="opacity:1" fill="#050505" d="M 111.5,536.5 C 117.167,536.5 122.833,536.5 128.5,536.5C 131.49,547.971 134.99,559.304 139,570.5C 142.482,559.236 145.649,547.903 148.5,536.5C 153.844,536.334 159.177,536.501 164.5,537C 155.404,560.122 146.404,583.288 137.5,606.5C 132.5,607.833 127.5,607.833 122.5,606.5C 125.566,599.633 128.233,592.633 130.5,585.5C 124.444,569.055 118.11,552.721 111.5,536.5 Z"/></g>
<g><path style="opacity:1" fill="#070707" d="M 298.5,536.5 C 303.5,536.5 308.5,536.5 313.5,536.5C 313.5,553.167 313.5,569.833 313.5,586.5C 308.5,586.5 303.5,586.5 298.5,586.5C 298.5,569.833 298.5,553.167 298.5,536.5 Z"/></g>
<g><path style="opacity:1" fill="#f9f9f9" d="M 254.5,544.5 C 258.514,544.334 262.514,544.501 266.5,545C 268.492,545.574 269.992,546.741 271,548.5C 271.667,557.167 271.667,565.833 271,574.5C 270.5,575.667 269.667,576.5 268.5,577C 263.5,577.667 258.5,577.667 253.5,577C 252.667,576.167 251.833,575.333 251,574.5C 250.333,565.833 250.333,557.167 251,548.5C 252.376,547.295 253.542,545.962 254.5,544.5 Z"/></g>
<g><path style="opacity:1" fill="#f0f0f0" d="M 448.5,544.5 C 452.967,544.133 457.3,544.633 461.5,546C 462,546.5 462.5,547 463,547.5C 463.498,550.482 463.665,553.482 463.5,556.5C 457.167,556.5 450.833,556.5 444.5,556.5C 444.335,553.482 444.502,550.482 445,547.5C 446.145,546.364 447.312,545.364 448.5,544.5 Z"/></g>
<g><path style="opacity:1" fill="#858585" d="M 474.5,576.5 C 474.56,575.957 474.893,575.624 475.5,575.5C 476.806,578.98 476.806,582.313 475.5,585.5C 475.81,582.287 475.477,579.287 474.5,576.5 Z"/></g>
</svg>
