<svg version="1.1" id="Layer_1" xmlns="http://www.w3.org/2000/svg" xmlns:xlink="http://www.w3.org/1999/xlink" x="0px" y="0px"
	 width="100%" viewBox="0 0 1194 386" enable-background="new 0 0 1194 386" xml:space="preserve">
<path fill="#FEFEFE" opacity="1.000000" stroke="none" 
	d="
M948.000000,387.000000 
	C632.000000,387.000000 316.500000,387.000000 1.000000,387.000000 
	C1.000000,258.333344 1.000000,129.666672 1.000000,1.000000 
	C399.000000,1.000000 797.000000,1.000000 1195.000000,1.000000 
	C1195.000000,129.666672 1195.000000,258.333344 1195.000000,387.000000 
	C1112.833374,387.000000 1030.666626,387.000000 948.000000,387.000000 
M704.363342,227.172043 
	C659.401123,201.434723 614.438843,175.697388 568.666077,149.496109 
	C568.666077,166.083893 568.666077,181.501541 568.666077,196.790894 
	C542.314575,196.790894 516.373291,196.790894 490.055664,196.790894 
	C490.055664,194.963516 490.055634,193.331314 490.055634,191.699097 
	C490.055634,164.202026 490.057678,136.704971 490.054688,109.207909 
	C490.053375,97.140289 485.257019,92.389839 473.061157,92.389687 
	C323.243835,92.387802 173.426483,92.387909 23.609154,92.389496 
	C11.390898,92.389626 6.614708,97.072617 6.612779,109.189606 
	C6.599432,193.013992 6.600367,276.838379 6.611955,360.662750 
	C6.613562,372.289185 11.394965,377.127930 22.899994,377.128693 
	C173.217270,377.138763 323.534546,377.138000 473.851837,377.130035 
	C485.001740,377.129456 490.050995,372.102020 490.053406,361.078339 
	C490.059937,331.414856 490.055634,301.751343 490.055634,272.087860 
	C490.055634,270.353546 490.055664,268.619263 490.055664,267.039642 
	C516.743713,267.039642 542.673645,267.039642 568.938721,267.039642 
	C568.938721,283.370605 568.938721,299.454620 568.938721,316.244080 
	C616.551575,288.970306 663.605774,262.016541 711.388428,234.645523 
	C711.388428,237.126602 711.388428,238.880005 711.388428,240.633423 
	C711.388428,280.295837 711.383850,319.958282 711.391296,359.620697 
	C711.393494,371.097351 715.556946,375.242157 727.052124,375.242310 
	C876.869446,375.244141 1026.686768,375.243988 1176.504150,375.242676 
	C1188.546265,375.242554 1192.386963,371.435944 1192.387329,359.488586 
	C1192.389893,275.830841 1192.390137,192.173111 1192.386841,108.515381 
	C1192.386475,97.114769 1188.215332,93.008591 1176.666138,93.008530 
	C1027.015503,93.007790 877.364807,93.008018 727.714172,93.008080 
	C715.407227,93.008087 711.390747,97.067909 711.389648,109.536232 
	C711.386292,148.198776 711.391602,186.861313 711.377747,225.523849 
	C711.377136,227.236023 711.220886,228.948120 711.119995,231.010300 
	C708.705444,229.664505 706.841064,228.625336 704.363342,227.172043 
M798.674133,38.345757 
	C798.674133,40.960632 798.674133,43.575508 798.674133,46.198494 
	C801.804077,46.198494 804.372925,46.198494 807.185730,46.198494 
	C807.185730,40.554008 807.182068,35.235703 807.186584,29.917404 
	C807.193054,22.383268 807.850281,21.888796 816.304626,23.632130 
	C816.304626,31.034550 816.304626,38.585072 816.304626,46.266853 
	C819.519897,46.266853 822.105042,46.266853 825.015015,46.266853 
	C825.015015,39.711155 825.180603,33.404560 824.953674,27.112116 
	C824.814758,23.258497 826.843140,22.888683 829.913513,22.775389 
	C833.346558,22.648714 834.180359,24.146023 834.102600,27.245275 
	C833.945251,33.517960 834.055664,39.797359 834.055664,46.132713 
	C837.254578,46.132713 839.963928,46.132713 842.828064,46.132713 
	C842.828064,38.918495 843.196655,32.066746 842.635559,25.291964 
	C842.428894,22.796730 840.567383,19.207365 838.520508,18.342787 
	C833.723572,16.316582 828.522888,16.532522 824.482788,20.672777 
	C820.169128,16.416519 815.140991,16.908106 809.996643,18.270233 
	C809.076965,18.513754 808.162781,19.517300 807.375183,19.387312 
	C804.606567,18.930361 801.894287,18.132143 798.674194,17.344450 
	C798.674194,24.759624 798.674194,31.073212 798.674133,38.345757 
M116.949341,34.394196 
	C116.949425,30.399277 117.143036,26.392159 116.892258,22.413050 
	C116.665688,18.817953 118.240860,17.851143 121.556747,17.789957 
	C125.146790,17.723713 126.138016,19.238312 126.035988,22.587814 
	C125.845192,28.851095 125.981125,35.124329 125.981125,41.433769 
	C129.124405,41.433769 131.692810,41.433769 134.728119,41.433769 
	C134.728119,35.196346 134.880005,29.237936 134.671432,23.292166 
	C134.545334,19.697624 135.253983,17.754425 139.491608,17.749414 
	C143.851547,17.744261 143.815353,20.313713 143.809555,23.286488 
	C143.797729,29.361876 143.806030,35.437302 143.806030,41.438992 
	C147.014618,41.438992 149.433578,41.438992 152.192047,41.438992 
	C152.192047,34.685677 152.217010,28.216789 152.185471,21.748178 
	C152.149506,14.372402 150.024521,12.141975 142.640182,12.564098 
	C139.689987,12.732746 136.802368,13.996135 133.283722,14.919271 
	C129.530701,12.143959 124.654602,11.570267 119.117935,13.707451 
	C118.458626,13.961945 117.719109,14.378943 117.089371,14.276104 
	C114.255547,13.813324 111.447906,13.190176 108.458984,12.590365 
	C108.458984,22.861723 108.458984,32.087337 108.458984,41.474396 
	C111.355743,41.474396 113.932709,41.474396 116.949341,41.474396 
	C116.949341,39.270195 116.949341,37.313717 116.949341,34.394196 
M201.065781,29.779734 
	C202.646393,29.547987 204.225601,29.125696 205.807816,29.114145 
	C220.668808,29.005659 223.331421,26.060671 222.057724,11.314183 
	C221.703491,7.212993 219.531509,4.519841 215.703461,4.172972 
	C207.857117,3.461998 199.955887,3.356725 192.017410,2.999380 
	C192.017410,16.416838 192.017410,28.949829 192.017410,41.414822 
	C195.115952,41.414822 197.869415,41.414822 200.951309,41.414822 
	C200.951309,37.652428 200.951309,34.187874 201.065781,29.779734 
M1027.138672,11.644558 
	C1027.172607,20.130816 1026.998169,28.624733 1027.309570,37.100800 
	C1027.540039,43.378307 1030.515015,46.043873 1037.093262,46.891869 
	C1046.701782,48.130501 1053.942627,45.891167 1055.794556,41.064991 
	C1056.088257,40.299599 1056.285645,39.445152 1056.291992,38.630051 
	C1056.329590,33.815243 1056.439453,28.994089 1056.242554,24.186634 
	C1056.095093,20.582327 1054.038574,18.128925 1050.370972,17.913424 
	C1045.690430,17.638399 1040.981567,17.846739 1035.753784,17.846739 
	C1035.753784,14.385201 1035.753784,9.840013 1035.753784,5.138941 
	C1033.916626,5.138941 1032.593384,5.099632 1031.273682,5.150212 
	C1030.003174,5.198904 1028.736328,5.340529 1027.138672,5.467479 
	C1027.138672,7.411782 1027.138672,9.050376 1027.138672,11.644558 
M916.529297,8.425338 
	C908.224548,7.702806 908.238647,7.707569 905.600891,15.507913 
	C903.066406,23.002901 900.498535,30.486609 897.597290,38.996338 
	C894.377563,29.326233 891.384399,20.769596 888.723389,12.110857 
	C887.785339,9.058445 886.380493,7.636325 883.129395,8.111934 
	C881.584839,8.337884 879.979797,8.150742 877.943909,8.150742 
	C881.475220,18.093233 884.816284,27.442547 888.116211,36.806351 
	C891.682129,46.925304 891.665344,46.931225 902.984802,46.323608 
	C907.505493,34.063957 912.086792,21.640043 916.529297,8.425338 
M937.673889,17.702230 
	C932.424011,17.702230 927.174133,17.702230 921.593872,17.702230 
	C921.739014,19.988733 921.837280,21.536133 921.933655,23.054039 
	C938.114075,22.849678 938.114075,22.849678 937.325928,28.999952 
	C933.732605,28.999952 930.001404,28.527420 926.472473,29.168478 
	C924.175049,29.585829 921.105957,31.125521 920.220764,33.020885 
	C916.294983,41.427025 920.284058,47.308071 929.428772,47.002239 
	C932.230957,46.908524 934.996216,45.445759 937.788940,45.408554 
	C940.495605,45.372494 943.215881,46.362946 946.496155,47.015083 
	C946.496155,39.498421 946.641479,33.040668 946.454224,26.592581 
	C946.276306,20.468605 944.847534,19.070704 937.673889,17.702230 
M1017.316467,46.536926 
	C1018.163940,45.651505 1019.716125,44.788418 1019.745056,43.877079 
	C1019.939941,37.727085 1019.963806,31.561295 1019.737732,25.411839 
	C1019.576355,21.018744 1017.138062,18.136946 1012.611572,17.946703 
	C1006.847717,17.704454 1001.066040,17.888021 995.150757,17.888021 
	C995.150757,19.769026 995.150757,21.342827 995.150757,22.866411 
	C999.020569,22.866411 1002.644531,22.889629 1006.268127,22.860340 
	C1010.475647,22.826334 1011.877502,24.731178 1010.467590,28.998436 
	C1006.749023,28.998436 1003.085632,28.782839 999.457703,29.049824 
	C994.238281,29.433935 992.549805,31.979744 992.664062,38.570499 
	C992.773560,44.889156 994.315552,46.577942 999.866882,47.049294 
	C1005.437805,47.522320 1010.890686,44.871460 1017.316467,46.536926 
M247.833542,41.834789 
	C251.647537,41.107372 254.655350,39.389545 255.864227,35.396755 
	C260.846191,18.941744 252.337891,9.570699 235.572571,12.960824 
	C230.431534,14.000396 227.441925,17.149557 227.480255,22.162321 
	C227.529877,28.652191 224.843781,36.170902 232.257660,40.685917 
	C233.978912,41.734150 236.391815,41.845486 238.513367,41.988461 
	C241.317352,42.177422 244.147873,41.972874 247.833542,41.834789 
M1100.758545,18.488636 
	C1098.306641,18.082417 1095.863525,17.394899 1093.401367,17.318487 
	C1082.521118,16.980810 1078.984253,20.476654 1078.979980,31.275789 
	C1078.979248,33.273846 1079.011597,35.272392 1078.977905,37.269855 
	C1078.898804,41.953228 1081.317871,44.759266 1085.661377,45.971127 
	C1092.190918,47.792877 1098.691284,47.334778 1105.114868,45.902161 
	C1105.114868,43.977272 1105.114868,42.523247 1105.114868,41.069386 
	C1086.935791,41.240986 1086.935791,41.240986 1088.756226,34.290329 
	C1094.406494,34.290329 1100.161743,34.290329 1106.464966,34.290329 
	C1105.375000,28.605230 1108.302979,22.292194 1100.758545,18.488636 
M307.080200,33.430130 
	C307.079071,28.940271 307.608551,24.360725 306.870728,19.995382 
	C306.451660,17.516006 304.330353,13.934532 302.317139,13.418500 
	C298.695740,12.490258 294.576080,13.455212 290.671112,13.723825 
	C289.824921,13.782033 288.937592,14.594754 288.187286,14.449596 
	C285.537384,13.936950 282.938751,13.159294 280.028625,12.406588 
	C280.028625,22.735668 280.028625,32.107853 280.028625,41.484413 
	C282.813995,41.484413 285.252533,41.484413 288.177429,41.484413 
	C288.177429,35.490704 288.339020,29.709255 288.122314,23.942020 
	C287.970337,19.896790 289.005615,17.767988 293.607819,17.743601 
	C298.277588,17.718851 298.611847,20.239853 298.525055,23.806536 
	C298.381500,29.706171 298.486084,35.611843 298.486084,41.481667 
	C301.749207,41.481667 304.186829,41.481667 307.080200,41.481667 
	C307.080200,38.973423 307.080200,36.687263 307.080200,33.430130 
M857.845703,22.531328 
	C857.265686,21.025122 856.685669,19.518913 856.170166,18.180386 
	C853.032043,18.180386 850.253357,18.180386 847.093750,18.180386 
	C849.473267,24.168411 851.304565,30.082411 854.102966,35.496521 
	C857.798157,42.645496 858.650574,49.406605 854.113098,56.398685 
	C853.729187,56.990208 853.770386,57.857567 853.605103,58.639019 
	C861.682129,59.094311 861.687134,59.096249 864.416870,52.011791 
	C866.681274,46.135181 868.938599,40.255856 871.186768,34.373009 
	C873.217957,29.057825 875.232361,23.736227 877.307678,18.276773 
	C873.885498,18.276773 871.115662,18.276773 868.520813,18.276773 
	C866.627502,24.633942 864.828125,30.675936 862.702026,37.814846 
	C860.868896,32.137058 859.445374,27.727711 857.845703,22.531328 
M347.279816,34.743755 
	C347.037292,33.219017 346.794800,31.694279 346.455688,29.562374 
	C353.040405,29.562374 358.942139,29.562374 364.965424,29.562374 
	C364.965424,26.384859 365.081940,23.721939 364.938660,21.073065 
	C364.712860,16.898119 362.323700,13.855302 358.400116,13.331293 
	C353.873566,12.726754 349.109955,12.798364 344.596283,13.509424 
	C340.208649,14.200629 337.840607,17.445375 337.901611,22.129971 
	C337.947113,25.625376 337.983795,29.123831 337.890808,32.617374 
	C337.770233,37.145401 340.047668,40.306473 344.234741,40.883465 
	C350.667755,41.769947 357.227081,41.740131 363.791931,42.102386 
	C363.791931,39.110176 363.791931,37.545757 363.791931,36.913105 
	C358.244293,36.366241 353.086884,35.857845 347.279816,34.743755 
M179.900040,13.060952 
	C178.930893,14.359132 177.558777,15.521302 177.066299,16.980370 
	C175.430359,21.827190 174.110733,26.780785 172.312851,32.910442 
	C169.893723,25.525656 167.886200,19.397383 165.922531,13.402934 
	C162.826340,13.402934 159.960754,13.402934 156.677032,13.402934 
	C158.875214,18.899374 160.503510,24.152546 163.002258,28.952583 
	C167.149292,36.918873 168.571655,44.634113 163.240189,52.575180 
	C163.088791,52.800667 163.221054,53.216587 163.221054,53.712112 
	C165.998474,53.712112 168.748810,53.712112 171.503387,53.712112 
	C176.673187,40.157753 181.766464,26.804003 187.009476,13.057686 
	C184.407028,13.057686 182.578568,13.057686 179.900040,13.060952 
M317.149231,6.723500 
	C317.149231,8.689794 317.149231,10.656087 317.149231,12.733502 
	C315.109955,12.985826 313.393311,13.198235 311.433472,13.440729 
	C311.544434,15.164213 311.635895,16.584667 311.731476,18.069237 
	C313.642914,18.291630 315.246338,18.478184 317.190735,18.704412 
	C317.190735,23.845320 317.041016,28.826550 317.241547,33.793640 
	C317.383331,37.306084 318.669006,40.559975 322.571503,41.272301 
	C326.201385,41.934872 329.952240,41.934856 333.622559,42.224400 
	C333.622559,39.893585 333.622559,38.454254 333.622559,37.014919 
	C333.302765,37.357502 332.982971,37.700085 332.663177,38.042667 
	C330.439453,36.483562 326.673950,35.227081 326.296814,33.305550 
	C325.366791,28.567305 325.992065,23.523800 325.992065,18.504654 
	C328.834015,18.373993 331.138031,18.268061 333.839996,18.143835 
	C333.763397,16.425642 333.694550,14.880549 333.604034,12.850059 
	C330.812683,12.850059 328.425751,12.850059 325.688599,12.850059 
	C325.688599,9.920819 325.688599,7.499935 325.688599,4.477312 
	C322.578186,4.960242 319.894653,5.376892 317.149231,6.723500 
M1072.108521,31.495169 
	C1072.108521,22.741913 1072.108521,13.988658 1072.108521,5.329114 
	C1068.887085,5.329114 1066.431519,5.329114 1063.769775,5.329114 
	C1063.769775,19.092302 1063.769775,32.649258 1063.769775,46.262398 
	C1066.693604,46.262398 1069.279297,46.262398 1072.108521,46.262398 
	C1072.108521,41.472466 1072.108521,36.982571 1072.108521,31.495169 
M377.899933,13.038925 
	C375.917267,13.038925 373.934601,13.038925 371.797333,13.038925 
	C371.797333,22.726011 371.797333,32.110035 371.797333,41.404922 
	C374.741486,41.404922 377.317322,41.404922 380.108765,41.404922 
	C380.108765,36.408947 380.092468,31.756947 380.112793,27.105104 
	C380.140076,20.862558 380.913940,20.089273 387.342773,19.750076 
	C388.147339,19.707628 388.951080,19.649155 389.927063,19.587194 
	C389.927063,17.175425 389.927063,14.938022 389.927063,11.695665 
	C386.234253,12.919040 383.099457,13.957553 380.120758,14.944354 
	C379.795166,14.518476 379.248596,13.803510 377.899933,13.038925 
M953.974182,37.441200 
	C953.974182,40.371861 953.974182,43.302517 953.974182,46.261932 
	C957.133362,46.261932 959.713074,46.261932 962.740173,46.261932 
	C962.740173,42.864716 962.704468,39.749264 962.746460,36.634857 
	C962.916321,24.019793 961.532349,26.007687 972.577515,23.952585 
	C972.577515,21.866196 972.577515,19.779806 972.577515,16.328566 
	C966.365234,20.260328 960.179382,17.363459 953.974182,18.120611 
	C953.974182,24.531921 953.974182,30.495577 953.974182,37.441200 
M263.132935,16.750658 
	C263.132935,24.994339 263.132935,33.238022 263.132935,41.419064 
	C266.509186,41.419064 269.086609,41.419064 271.676331,41.419064 
	C271.676331,31.852144 271.676331,22.608988 271.676331,13.045820 
	C269.429932,13.045820 267.395996,12.750793 265.521545,13.169595 
	C264.576416,13.380758 263.920380,14.885932 263.132935,16.750658 
M977.836243,20.646042 
	C977.836243,29.217054 977.836243,37.788067 977.836243,46.200081 
	C981.000305,46.200081 983.421753,46.200081 985.880615,46.200081 
	C985.880615,36.691418 985.880615,27.473448 985.880615,17.153866 
	C982.843811,18.107534 980.343079,18.892839 977.836243,20.646042 
M982.415649,14.740080 
	C983.635315,14.612693 984.854919,14.485307 985.839661,14.382454 
	C985.839661,11.848378 985.839661,9.794920 985.839661,7.867315 
	C983.031311,7.867315 980.592041,7.867315 977.675293,7.867315 
	C978.747620,10.590415 975.122070,15.266984 982.415649,14.740080 
M263.125793,7.291892 
	C264.742157,12.809467 268.755127,8.545833 271.730743,9.954209 
	C271.730743,7.288133 271.730743,5.226624 271.730743,2.790283 
	C269.713348,2.790283 267.908508,2.947833 266.141846,2.755042 
	C263.150116,2.428564 262.887268,4.147244 263.125793,7.291892 
z"/>
<path fill="#1E1E1E" opacity="1.000000" stroke="none" 
	d="
M704.669983,227.379089 
	C706.841064,228.625336 708.705444,229.664505 711.119995,231.010300 
	C711.220886,228.948120 711.377136,227.236023 711.377747,225.523849 
	C711.391602,186.861313 711.386292,148.198776 711.389648,109.536232 
	C711.390747,97.067909 715.407227,93.008087 727.714172,93.008080 
	C877.364807,93.008018 1027.015503,93.007790 1176.666138,93.008530 
	C1188.215332,93.008591 1192.386475,97.114769 1192.386841,108.515381 
	C1192.390137,192.173111 1192.389893,275.830841 1192.387329,359.488586 
	C1192.386963,371.435944 1188.546265,375.242554 1176.504150,375.242676 
	C1026.686768,375.243988 876.869446,375.244141 727.052124,375.242310 
	C715.556946,375.242157 711.393494,371.097351 711.391296,359.620697 
	C711.383850,319.958282 711.388428,280.295837 711.388428,240.633423 
	C711.388428,238.880005 711.388428,237.126602 711.388428,234.645523 
	C663.605774,262.016541 616.551575,288.970306 568.938721,316.244080 
	C568.938721,299.454620 568.938721,283.370605 568.938721,267.039642 
	C542.673645,267.039642 516.743713,267.039642 490.055664,267.039642 
	C490.055664,268.619263 490.055634,270.353546 490.055634,272.087860 
	C490.055634,301.751343 490.059937,331.414856 490.053406,361.078339 
	C490.050995,372.102020 485.001740,377.129456 473.851837,377.130035 
	C323.534546,377.138000 173.217270,377.138763 22.899994,377.128693 
	C11.394965,377.127930 6.613562,372.289185 6.611955,360.662750 
	C6.600367,276.838379 6.599432,193.013992 6.612779,109.189606 
	C6.614708,97.072617 11.390898,92.389626 23.609154,92.389496 
	C173.426483,92.387909 323.243835,92.387802 473.061157,92.389687 
	C485.257019,92.389839 490.053375,97.140289 490.054688,109.207909 
	C490.057678,136.704971 490.055634,164.202026 490.055634,191.699097 
	C490.055634,193.331314 490.055664,194.963516 490.055664,196.790894 
	C516.373291,196.790894 542.314575,196.790894 568.666077,196.790894 
	C568.666077,181.501541 568.666077,166.083893 568.666077,149.496109 
	C614.438843,175.697388 659.401123,201.434723 704.669983,227.379089 
M637.414856,273.973877 
	C661.120728,260.407684 684.826599,246.841522 709.126953,232.935135 
	C662.943665,206.482651 617.570801,180.494339 571.303223,153.993591 
	C571.303223,169.938446 571.303223,184.541962 571.303223,199.256226 
	C543.172058,199.256226 515.463562,199.256226 487.388977,199.256226 
	C487.388977,197.096909 487.388947,195.289871 487.388947,193.482834 
	C487.388947,165.153198 487.399017,136.823563 487.383484,108.493935 
	C487.378113,98.727386 483.605774,94.996025 473.747070,94.995651 
	C323.433380,94.989952 173.119659,94.989792 22.805958,94.996101 
	C13.110382,94.996506 9.140260,98.943542 9.139415,108.574638 
	C9.132035,192.730316 9.132739,276.885986 9.138474,361.041656 
	C9.139125,370.597198 13.179179,374.600555 22.868599,374.601013 
	C173.015656,374.608307 323.162689,374.607941 473.309753,374.602234 
	C483.862396,374.601837 487.384521,371.052612 487.386749,360.474548 
	C487.393097,330.145172 487.388947,299.815796 487.388947,269.486420 
	C487.388947,267.732239 487.388977,265.978027 487.388977,264.223724 
	C515.749329,264.223724 543.360046,264.223724 571.615967,264.223724 
	C571.615967,279.923279 571.615967,295.418640 571.615967,311.742584 
	C593.905212,298.949188 615.342163,286.644958 637.414856,273.973877 
M1189.861694,144.500717 
	C1189.861694,132.503708 1189.864136,120.506691 1189.861084,108.509674 
	C1189.858643,98.794258 1186.775391,95.625320 1177.067017,95.624428 
	C1026.937866,95.610626 876.808655,95.610100 726.679443,95.625923 
	C717.199829,95.626923 714.059021,98.817703 714.058716,108.176926 
	C714.056213,192.155960 714.055969,276.134979 714.059021,360.114014 
	C714.059387,369.522278 717.264709,372.752533 726.598938,372.752686 
	C876.728088,372.755096 1026.857300,372.755096 1176.986450,372.752747 
	C1186.724854,372.752594 1189.860352,369.629852 1189.860596,359.947205 
	C1189.862671,288.465057 1189.861694,216.982910 1189.861694,144.500717 
z"/>
<path fill="#080808" opacity="1.000000" stroke="none" 
	d="
M798.674194,37.866280 
	C798.674194,31.073212 798.674194,24.759624 798.674194,17.344450 
	C801.894287,18.132143 804.606567,18.930361 807.375183,19.387312 
	C808.162781,19.517300 809.076965,18.513754 809.996643,18.270233 
	C815.140991,16.908106 820.169128,16.416519 824.482788,20.672777 
	C828.522888,16.532522 833.723572,16.316582 838.520508,18.342787 
	C840.567383,19.207365 842.428894,22.796730 842.635559,25.291964 
	C843.196655,32.066746 842.828064,38.918495 842.828064,46.132713 
	C839.963928,46.132713 837.254578,46.132713 834.055664,46.132713 
	C834.055664,39.797359 833.945251,33.517960 834.102600,27.245275 
	C834.180359,24.146023 833.346558,22.648714 829.913513,22.775389 
	C826.843140,22.888683 824.814758,23.258497 824.953674,27.112116 
	C825.180603,33.404560 825.015015,39.711155 825.015015,46.266853 
	C822.105042,46.266853 819.519897,46.266853 816.304626,46.266853 
	C816.304626,38.585072 816.304626,31.034550 816.304626,23.632130 
	C807.850281,21.888796 807.193054,22.383268 807.186584,29.917404 
	C807.182068,35.235703 807.185730,40.554008 807.185730,46.198494 
	C804.372925,46.198494 801.804077,46.198494 798.674133,46.198494 
	C798.674133,43.575508 798.674133,40.960632 798.674194,37.866280 
z"/>
<path fill="#0B0B0B" opacity="1.000000" stroke="none" 
	d="
M116.949341,34.875717 
	C116.949341,37.313717 116.949341,39.270195 116.949341,41.474396 
	C113.932709,41.474396 111.355743,41.474396 108.458984,41.474396 
	C108.458984,32.087337 108.458984,22.861723 108.458984,12.590365 
	C111.447906,13.190176 114.255547,13.813324 117.089371,14.276104 
	C117.719109,14.378943 118.458626,13.961945 119.117935,13.707451 
	C124.654602,11.570267 129.530701,12.143959 133.283722,14.919271 
	C136.802368,13.996135 139.689987,12.732746 142.640182,12.564098 
	C150.024521,12.141975 152.149506,14.372402 152.185471,21.748178 
	C152.217010,28.216789 152.192047,34.685677 152.192047,41.438992 
	C149.433578,41.438992 147.014618,41.438992 143.806030,41.438992 
	C143.806030,35.437302 143.797729,29.361876 143.809555,23.286488 
	C143.815353,20.313713 143.851547,17.744261 139.491608,17.749414 
	C135.253983,17.754425 134.545334,19.697624 134.671432,23.292166 
	C134.880005,29.237936 134.728119,35.196346 134.728119,41.433769 
	C131.692810,41.433769 129.124405,41.433769 125.981125,41.433769 
	C125.981125,35.124329 125.845192,28.851095 126.035988,22.587814 
	C126.138016,19.238312 125.146790,17.723713 121.556747,17.789957 
	C118.240860,17.851143 116.665688,18.817953 116.892258,22.413050 
	C117.143036,26.392159 116.949425,30.399277 116.949341,34.875717 
z"/>
<path fill="#070707" opacity="1.000000" stroke="none" 
	d="
M201.008545,30.251526 
	C200.951309,34.187874 200.951309,37.652428 200.951309,41.414822 
	C197.869415,41.414822 195.115952,41.414822 192.017410,41.414822 
	C192.017410,28.949829 192.017410,16.416838 192.017410,2.999380 
	C199.955887,3.356725 207.857117,3.461998 215.703461,4.172972 
	C219.531509,4.519841 221.703491,7.212993 222.057724,11.314183 
	C223.331421,26.060671 220.668808,29.005659 205.807816,29.114145 
	C204.225601,29.125696 202.646393,29.547987 201.008545,30.251526 
M208.046906,22.860334 
	C213.023178,21.657198 214.952042,18.847349 212.860321,12.846291 
	C210.796448,6.925107 205.223618,11.231342 201.319519,9.793986 
	C201.319519,14.528605 201.319519,18.691820 201.319519,22.911564 
	C203.515091,22.911564 205.332184,22.911564 208.046906,22.860334 
z"/>
<path fill="#0C0C0C" opacity="1.000000" stroke="none" 
	d="
M1027.138672,11.166764 
	C1027.138672,9.050376 1027.138672,7.411782 1027.138672,5.467479 
	C1028.736328,5.340529 1030.003174,5.198904 1031.273682,5.150212 
	C1032.593384,5.099632 1033.916626,5.138941 1035.753784,5.138941 
	C1035.753784,9.840013 1035.753784,14.385201 1035.753784,17.846739 
	C1040.981567,17.846739 1045.690430,17.638399 1050.370972,17.913424 
	C1054.038574,18.128925 1056.095093,20.582327 1056.242554,24.186634 
	C1056.439453,28.994089 1056.329590,33.815243 1056.291992,38.630051 
	C1056.285645,39.445152 1056.088257,40.299599 1055.794556,41.064991 
	C1053.942627,45.891167 1046.701782,48.130501 1037.093262,46.891869 
	C1030.515015,46.043873 1027.540039,43.378307 1027.309570,37.100800 
	C1026.998169,28.624733 1027.172607,20.130816 1027.138672,11.166764 
M1047.795288,25.048244 
	C1045.325562,21.147394 1041.494019,22.848904 1038.415161,23.377581 
	C1037.304932,23.568222 1036.377563,26.926781 1036.036865,28.952391 
	C1035.629761,31.373056 1036.148071,33.935753 1035.895996,36.399128 
	C1035.439941,40.856628 1038.028564,41.826389 1041.625488,41.803982 
	C1045.215454,41.781616 1048.340820,41.337261 1047.966187,36.411755 
	C1047.702637,32.946724 1047.909546,29.445917 1047.795288,25.048244 
z"/>
<path fill="#080808" opacity="1.000000" stroke="none" 
	d="
M916.598633,8.820733 
	C912.086792,21.640043 907.505493,34.063957 902.984802,46.323608 
	C891.665344,46.931225 891.682129,46.925304 888.116211,36.806351 
	C884.816284,27.442547 881.475220,18.093233 877.943909,8.150742 
	C879.979797,8.150742 881.584839,8.337884 883.129395,8.111934 
	C886.380493,7.636325 887.785339,9.058445 888.723389,12.110857 
	C891.384399,20.769596 894.377563,29.326233 897.597290,38.996338 
	C900.498535,30.486609 903.066406,23.002901 905.600891,15.507913 
	C908.238647,7.707569 908.224548,7.702806 916.598633,8.820733 
z"/>
<path fill="#080808" opacity="1.000000" stroke="none" 
	d="
M938.094727,17.760609 
	C944.847534,19.070704 946.276306,20.468605 946.454224,26.592581 
	C946.641479,33.040668 946.496155,39.498421 946.496155,47.015083 
	C943.215881,46.362946 940.495605,45.372494 937.788940,45.408554 
	C934.996216,45.445759 932.230957,46.908524 929.428772,47.002239 
	C920.284058,47.308071 916.294983,41.427025 920.220764,33.020885 
	C921.105957,31.125521 924.175049,29.585829 926.472473,29.168478 
	C930.001404,28.527420 933.732605,28.999952 937.325928,28.999952 
	C938.114075,22.849678 938.114075,22.849678 921.933655,23.054039 
	C921.837280,21.536133 921.739014,19.988733 921.593872,17.702230 
	C927.174133,17.702230 932.424011,17.702230 938.094727,17.760609 
M929.843994,33.890835 
	C929.271484,36.020164 928.698975,38.149494 928.126404,40.278805 
	C930.740967,40.700787 933.831055,42.147781 935.821472,41.224392 
	C937.449219,40.469227 937.765442,36.886940 938.972229,33.756012 
	C935.293396,33.756012 933.024414,33.756012 929.843994,33.890835 
z"/>
<path fill="#0C0C0C" opacity="1.000000" stroke="none" 
	d="
M1016.898438,46.538437 
	C1010.890686,44.871460 1005.437805,47.522320 999.866882,47.049294 
	C994.315552,46.577942 992.773560,44.889156 992.664062,38.570499 
	C992.549805,31.979744 994.238281,29.433935 999.457703,29.049824 
	C1003.085632,28.782839 1006.749023,28.998436 1010.467590,28.998436 
	C1011.877502,24.731178 1010.475647,22.826334 1006.268127,22.860340 
	C1002.644531,22.889629 999.020569,22.866411 995.150757,22.866411 
	C995.150757,21.342827 995.150757,19.769026 995.150757,17.888021 
	C1001.066040,17.888021 1006.847717,17.704454 1012.611572,17.946703 
	C1017.138062,18.136946 1019.576355,21.018744 1019.737732,25.411839 
	C1019.963806,31.561295 1019.939941,37.727085 1019.745056,43.877079 
	C1019.716125,44.788418 1018.163940,45.651505 1016.898438,46.538437 
M1007.562927,33.703087 
	C1007.233093,33.703072 1006.869995,33.611797 1006.578857,33.717911 
	C1004.752014,34.383759 1002.218933,34.617828 1001.349976,35.937008 
	C1000.635010,37.022400 1001.518921,40.729015 1002.361023,40.973095 
	C1004.727966,41.659142 1007.540283,41.537533 1009.954163,40.896046 
	C1010.694763,40.699242 1011.062866,37.766701 1010.927307,36.143177 
	C1010.854309,35.268684 1009.354126,34.513329 1007.562927,33.703087 
z"/>
<path fill="#060606" opacity="1.000000" stroke="none" 
	d="
M247.400269,41.886127 
	C244.147873,41.972874 241.317352,42.177422 238.513367,41.988461 
	C236.391815,41.845486 233.978912,41.734150 232.257660,40.685917 
	C224.843781,36.170902 227.529877,28.652191 227.480255,22.162321 
	C227.441925,17.149557 230.431534,14.000396 235.572571,12.960824 
	C252.337891,9.570699 260.846191,18.941744 255.864227,35.396755 
	C254.655350,39.389545 251.647537,41.107372 247.400269,41.886127 
M235.992218,32.091484 
	C235.670181,37.330570 239.450714,36.786812 242.742096,36.824917 
	C246.086380,36.863636 248.085388,35.511749 247.869827,31.782566 
	C247.726837,29.308929 247.674744,26.806353 247.879349,24.341419 
	C248.262115,19.730419 246.487732,17.691456 241.673782,17.744326 
	C236.997284,17.795681 235.541016,19.914368 235.953186,24.228268 
	C236.172501,26.523762 235.992065,28.857452 235.992218,32.091484 
z"/>
<path fill="#0C0C0C" opacity="1.000000" stroke="none" 
	d="
M1101.103760,18.682846 
	C1108.302979,22.292194 1105.375000,28.605230 1106.464966,34.290329 
	C1100.161743,34.290329 1094.406494,34.290329 1088.756226,34.290329 
	C1086.935791,41.240986 1086.935791,41.240986 1105.114868,41.069386 
	C1105.114868,42.523247 1105.114868,43.977272 1105.114868,45.902161 
	C1098.691284,47.334778 1092.190918,47.792877 1085.661377,45.971127 
	C1081.317871,44.759266 1078.898804,41.953228 1078.977905,37.269855 
	C1079.011597,35.272392 1078.979248,33.273846 1078.979980,31.275789 
	C1078.984253,20.476654 1082.521118,16.980810 1093.401367,17.318487 
	C1095.863525,17.394899 1098.306641,18.082417 1101.103760,18.682846 
M1092.526367,29.694510 
	C1094.276855,29.694510 1096.027344,29.694510 1097.732056,29.694510 
	C1098.104736,23.306637 1097.113403,22.430500 1091.476807,22.807249 
	C1088.723877,22.991253 1087.842529,24.150284 1087.760254,26.849201 
	C1087.662109,30.072830 1089.622314,29.746330 1092.526367,29.694510 
z"/>
<path fill="#050505" opacity="1.000000" stroke="none" 
	d="
M307.080200,33.915619 
	C307.080200,36.687263 307.080200,38.973423 307.080200,41.481667 
	C304.186829,41.481667 301.749207,41.481667 298.486084,41.481667 
	C298.486084,35.611843 298.381500,29.706171 298.525055,23.806536 
	C298.611847,20.239853 298.277588,17.718851 293.607819,17.743601 
	C289.005615,17.767988 287.970337,19.896790 288.122314,23.942020 
	C288.339020,29.709255 288.177429,35.490704 288.177429,41.484413 
	C285.252533,41.484413 282.813995,41.484413 280.028625,41.484413 
	C280.028625,32.107853 280.028625,22.735668 280.028625,12.406588 
	C282.938751,13.159294 285.537384,13.936950 288.187286,14.449596 
	C288.937592,14.594754 289.824921,13.782033 290.671112,13.723825 
	C294.576080,13.455212 298.695740,12.490258 302.317139,13.418500 
	C304.330353,13.934532 306.451660,17.516006 306.870728,19.995382 
	C307.608551,24.360725 307.079071,28.940271 307.080200,33.915619 
z"/>
<path fill="#080808" opacity="1.000000" stroke="none" 
	d="
M857.933716,22.924847 
	C859.445374,27.727711 860.868896,32.137058 862.702026,37.814846 
	C864.828125,30.675936 866.627502,24.633942 868.520813,18.276773 
	C871.115662,18.276773 873.885498,18.276773 877.307678,18.276773 
	C875.232361,23.736227 873.217957,29.057825 871.186768,34.373009 
	C868.938599,40.255856 866.681274,46.135181 864.416870,52.011791 
	C861.687134,59.096249 861.682129,59.094311 853.605103,58.639019 
	C853.770386,57.857567 853.729187,56.990208 854.113098,56.398685 
	C858.650574,49.406605 857.798157,42.645496 854.102966,35.496521 
	C851.304565,30.082411 849.473267,24.168411 847.093750,18.180386 
	C850.253357,18.180386 853.032043,18.180386 856.170166,18.180386 
	C856.685669,19.518913 857.265686,21.025122 857.933716,22.924847 
z"/>
<path fill="#0A0A0A" opacity="1.000000" stroke="none" 
	d="
M347.604675,35.046600 
	C353.086884,35.857845 358.244293,36.366241 363.791931,36.913105 
	C363.791931,37.545757 363.791931,39.110176 363.791931,42.102386 
	C357.227081,41.740131 350.667755,41.769947 344.234741,40.883465 
	C340.047668,40.306473 337.770233,37.145401 337.890808,32.617374 
	C337.983795,29.123831 337.947113,25.625376 337.901611,22.129971 
	C337.840607,17.445375 340.208649,14.200629 344.596283,13.509424 
	C349.109955,12.798364 353.873566,12.726754 358.400116,13.331293 
	C362.323700,13.855302 364.712860,16.898119 364.938660,21.073065 
	C365.081940,23.721939 364.965424,26.384859 364.965424,29.562374 
	C358.942139,29.562374 353.040405,29.562374 346.455688,29.562374 
	C346.794800,31.694279 347.037292,33.219017 347.604675,35.046600 
M351.533325,17.805191 
	C346.290771,17.455032 345.988892,20.487009 346.778320,24.541977 
	C350.219666,24.541977 353.426666,24.541977 356.597565,24.541977 
	C357.254028,20.730415 357.105896,17.756952 351.533325,17.805191 
z"/>
<path fill="#080808" opacity="1.000000" stroke="none" 
	d="
M180.325073,13.059319 
	C182.578568,13.057686 184.407028,13.057686 187.009476,13.057686 
	C181.766464,26.804003 176.673187,40.157753 171.503387,53.712112 
	C168.748810,53.712112 165.998474,53.712112 163.221054,53.712112 
	C163.221054,53.216587 163.088791,52.800667 163.240189,52.575180 
	C168.571655,44.634113 167.149292,36.918873 163.002258,28.952583 
	C160.503510,24.152546 158.875214,18.899374 156.677032,13.402934 
	C159.960754,13.402934 162.826340,13.402934 165.922531,13.402934 
	C167.886200,19.397383 169.893723,25.525656 172.312851,32.910442 
	C174.110733,26.780785 175.430359,21.827190 177.066299,16.980370 
	C177.558777,15.521302 178.930893,14.359132 180.325073,13.059319 
z"/>
<path fill="#0B0B0B" opacity="1.000000" stroke="none" 
	d="
M317.180176,6.258521 
	C319.894653,5.376892 322.578186,4.960242 325.688599,4.477312 
	C325.688599,7.499935 325.688599,9.920819 325.688599,12.850059 
	C328.425751,12.850059 330.812683,12.850059 333.604034,12.850059 
	C333.694550,14.880549 333.763397,16.425642 333.839996,18.143835 
	C331.138031,18.268061 328.834015,18.373993 325.992065,18.504654 
	C325.992065,23.523800 325.366791,28.567305 326.296814,33.305550 
	C326.673950,35.227081 330.439453,36.483562 332.663177,38.042667 
	C332.982971,37.700085 333.302765,37.357502 333.622559,37.014919 
	C333.622559,38.454254 333.622559,39.893585 333.622559,42.224400 
	C329.952240,41.934856 326.201385,41.934872 322.571503,41.272301 
	C318.669006,40.559975 317.383331,37.306084 317.241547,33.793640 
	C317.041016,28.826550 317.190735,23.845320 317.190735,18.704412 
	C315.246338,18.478184 313.642914,18.291630 311.731476,18.069237 
	C311.635895,16.584667 311.544434,15.164213 311.433472,13.440729 
	C313.393311,13.198235 315.109955,12.985826 317.149231,12.733502 
	C317.149231,10.656087 317.149231,8.689794 317.180176,6.258521 
z"/>
<path fill="#121212" opacity="1.000000" stroke="none" 
	d="
M1072.108521,31.993923 
	C1072.108521,36.982571 1072.108521,41.472466 1072.108521,46.262398 
	C1069.279297,46.262398 1066.693604,46.262398 1063.769775,46.262398 
	C1063.769775,32.649258 1063.769775,19.092302 1063.769775,5.329114 
	C1066.431519,5.329114 1068.887085,5.329114 1072.108521,5.329114 
	C1072.108521,13.988658 1072.108521,22.741913 1072.108521,31.993923 
z"/>
<path fill="#121212" opacity="1.000000" stroke="none" 
	d="
M378.300964,13.063734 
	C379.248596,13.803510 379.795166,14.518476 380.120758,14.944354 
	C383.099457,13.957553 386.234253,12.919040 389.927063,11.695665 
	C389.927063,14.938022 389.927063,17.175425 389.927063,19.587194 
	C388.951080,19.649155 388.147339,19.707628 387.342773,19.750076 
	C380.913940,20.089273 380.140076,20.862558 380.112793,27.105104 
	C380.092468,31.756947 380.108765,36.408947 380.108765,41.404922 
	C377.317322,41.404922 374.741486,41.404922 371.797333,41.404922 
	C371.797333,32.110035 371.797333,22.726011 371.797333,13.038925 
	C373.934601,13.038925 375.917267,13.038925 378.300964,13.063734 
z"/>
<path fill="#0E0E0E" opacity="1.000000" stroke="none" 
	d="
M953.974182,36.950218 
	C953.974182,30.495577 953.974182,24.531921 953.974182,18.120611 
	C960.179382,17.363459 966.365234,20.260328 972.577515,16.328566 
	C972.577515,19.779806 972.577515,21.866196 972.574463,23.954376 
	C961.532349,26.007687 962.916321,24.019793 962.746460,36.634857 
	C962.704468,39.749264 962.740173,42.864716 962.740173,46.261932 
	C959.713074,46.261932 957.133362,46.261932 953.974182,46.261932 
	C953.974182,43.302517 953.974182,40.371861 953.974182,36.950218 
z"/>
<path fill="#0E0E0E" opacity="1.000000" stroke="none" 
	d="
M263.133301,16.278322 
	C263.920380,14.885932 264.576416,13.380758 265.521545,13.169595 
	C267.395996,12.750793 269.429932,13.045820 271.676331,13.045820 
	C271.676331,22.608988 271.676331,31.852144 271.676331,41.419064 
	C269.086609,41.419064 266.509186,41.419064 263.132935,41.419064 
	C263.132935,33.238022 263.132935,24.994339 263.133301,16.278322 
z"/>
<path fill="#000000" opacity="1.000000" stroke="none" 
	d="
M977.839355,20.162094 
	C980.343079,18.892839 982.843811,18.107534 985.880615,17.153866 
	C985.880615,27.473448 985.880615,36.691418 985.880615,46.200081 
	C983.421753,46.200081 981.000305,46.200081 977.836243,46.200081 
	C977.836243,37.788067 977.836243,29.217054 977.839355,20.162094 
z"/>
<path fill="#0E0E0E" opacity="1.000000" stroke="none" 
	d="
M982.006775,14.740076 
	C975.122070,15.266984 978.747620,10.590415 977.675293,7.867315 
	C980.592041,7.867315 983.031311,7.867315 985.839661,7.867315 
	C985.839661,9.794920 985.839661,11.848378 985.839661,14.382454 
	C984.854919,14.485307 983.635315,14.612693 982.006775,14.740076 
z"/>
<path fill="#121212" opacity="1.000000" stroke="none" 
	d="
M263.125122,6.839198 
	C262.887268,4.147244 263.150116,2.428564 266.141846,2.755042 
	C267.908508,2.947833 269.713348,2.790283 271.730743,2.790283 
	C271.730743,5.226624 271.730743,7.288133 271.730743,9.954209 
	C268.755127,8.545833 264.742157,12.809467 263.125122,6.839198 
z"/>
<path fill="#FEFEFE" opacity="1.000000" stroke="none" 
	d="
M637.097046,274.157318 
	C615.342163,286.644958 593.905212,298.949188 571.615967,311.742584 
	C571.615967,295.418640 571.615967,279.923279 571.615967,264.223724 
	C543.360046,264.223724 515.749329,264.223724 487.388977,264.223724 
	C487.388977,265.978027 487.388947,267.732239 487.388947,269.486420 
	C487.388947,299.815796 487.393097,330.145172 487.386749,360.474548 
	C487.384521,371.052612 483.862396,374.601837 473.309753,374.602234 
	C323.162689,374.607941 173.015656,374.608307 22.868599,374.601013 
	C13.179179,374.600555 9.139125,370.597198 9.138474,361.041656 
	C9.132739,276.885986 9.132035,192.730316 9.139415,108.574638 
	C9.140260,98.943542 13.110382,94.996506 22.805958,94.996101 
	C173.119659,94.989792 323.433380,94.989952 473.747070,94.995651 
	C483.605774,94.996025 487.378113,98.727386 487.383484,108.493935 
	C487.399017,136.823563 487.388947,165.153198 487.388947,193.482834 
	C487.388947,195.289871 487.388977,197.096909 487.388977,199.256226 
	C515.463562,199.256226 543.172058,199.256226 571.303223,199.256226 
	C571.303223,184.541962 571.303223,169.938446 571.303223,153.993591 
	C617.570801,180.494339 662.943665,206.482651 709.126953,232.935135 
	C684.826599,246.841522 661.120728,260.407684 637.097046,274.157318 
M156.004349,155.417740 
	C154.585541,151.370377 153.166733,147.323029 151.793350,143.405228 
	C147.437195,143.405228 143.332840,143.405228 139.029678,143.405228 
	C139.029678,156.070862 139.029678,168.486374 139.029678,181.013748 
	C141.755905,181.013748 144.317917,181.013748 147.381805,181.013748 
	C147.381805,172.292404 147.381805,163.868530 147.381805,155.444672 
	C147.612061,155.432388 147.842316,155.420090 148.072571,155.407806 
	C151.172318,164.068665 154.272064,172.729523 157.264938,181.091797 
	C160.149490,181.091797 162.426880,181.091797 164.743500,181.091797 
	C167.674301,172.637070 170.539871,164.370529 173.405441,156.103989 
	C173.818527,156.193283 174.231598,156.282593 174.644684,156.371887 
	C174.644684,164.602356 174.644684,172.832809 174.644684,181.076843 
	C177.595032,181.076843 180.037354,181.076843 182.598572,181.076843 
	C182.598572,168.438873 182.598572,156.044891 182.598572,143.403549 
	C178.435989,143.403549 174.517578,143.403549 170.469315,143.403549 
	C167.497772,152.031143 164.564529,160.547562 161.224030,170.246445 
	C159.284485,164.804581 157.746658,160.489807 156.004349,155.417740 
M241.351868,180.718384 
	C244.087906,180.972290 246.823959,181.226196 249.945160,181.515823 
	C249.945160,174.740570 250.147675,168.607391 249.871613,162.495834 
	C249.697189,158.634171 251.315903,157.677353 254.833954,157.643860 
	C258.683380,157.607208 259.099884,159.622971 259.027954,162.702423 
	C258.885529,168.799149 258.985870,174.901550 258.985870,180.913116 
	C262.181000,180.913116 264.880524,180.913116 267.718109,180.913116 
	C267.718109,173.849380 267.975647,167.183228 267.581787,160.555786 
	C267.439301,158.157730 266.359863,155.092422 264.616394,153.663132 
	C261.002258,150.700302 253.302017,152.150864 250.435730,154.889008 
	C246.733704,153.908325 243.666168,152.455948 240.581818,152.419250 
	C235.098541,152.354004 229.605072,153.146347 223.907440,153.596420 
	C223.907440,162.470551 223.907440,171.703156 223.907440,181.060547 
	C226.719086,181.060547 229.293976,181.060547 232.120972,181.060547 
	C232.120972,174.315765 232.137009,167.834869 232.114822,161.354111 
	C232.102051,157.622559 234.703476,157.790619 237.288925,157.703766 
	C239.924118,157.615250 241.263031,158.444824 241.192459,161.386841 
	C241.044861,167.539062 241.159546,173.697586 241.351868,180.718384 
M118.048950,291.038818 
	C113.851875,290.980774 109.654457,290.877167 105.458046,290.908417 
	C104.737724,290.913788 103.938560,291.877167 103.318016,291.742554 
	C100.579102,291.148346 97.892189,290.314423 94.714203,289.436920 
	C94.714203,299.878479 94.714203,309.133057 94.714203,318.620087 
	C97.518578,318.620087 100.079338,318.620087 103.089439,318.620087 
	C103.089439,312.281403 103.214401,306.157349 103.042007,300.041687 
	C102.940506,296.440735 104.248085,294.997498 107.951042,294.927643 
	C111.822128,294.854614 112.250191,296.835419 112.185883,299.917328 
	C112.055420,306.169373 112.146927,312.426117 112.146927,318.516754 
	C115.491158,318.516754 118.075470,318.516754 120.945915,318.516754 
	C120.945915,312.046387 121.082642,305.904999 120.891983,299.773773 
	C120.786407,296.378357 121.950668,295.000061 125.440033,294.940002 
	C128.962433,294.879395 130.139160,296.219238 130.037399,299.648407 
	C129.851227,305.922455 129.984390,312.205963 129.984390,318.604004 
	C133.054184,318.604004 135.624329,318.604004 138.523880,318.604004 
	C138.523880,310.920197 138.890503,303.447571 138.291656,296.053131 
	C138.120773,293.943024 135.440491,290.816406 133.398346,290.336334 
	C129.387650,289.393524 124.793213,288.592621 121.158913,292.242096 
	C120.878662,292.523499 119.556496,291.767334 118.048950,291.038818 
M189.153229,250.745346 
	C194.136337,248.390884 199.432205,250.648499 204.665527,249.927078 
	C204.665527,236.186600 204.665527,222.670578 204.665527,209.123627 
	C201.790298,209.123627 199.196136,209.123627 196.146988,209.123627 
	C196.146988,214.010529 196.146988,218.711075 196.146988,222.147858 
	C191.300720,221.861389 186.827698,221.137436 182.434021,221.467957 
	C178.134735,221.791351 175.701508,224.627365 175.800491,229.253189 
	C175.899902,233.900528 175.854996,238.550873 175.885040,243.199814 
	C175.912811,247.495377 177.797241,250.130188 182.337646,250.393997 
	C184.321045,250.509216 186.302048,250.665955 189.153229,250.745346 
M169.013474,221.508820 
	C169.013474,217.398666 169.013474,213.288498 169.013474,209.120819 
	C165.944458,209.120819 163.356567,209.120819 160.286987,209.120819 
	C160.286987,213.854416 160.286987,218.404907 160.286987,221.921616 
	C155.323593,221.748215 150.788681,221.167999 146.338852,221.558212 
	C142.251999,221.916565 139.898483,224.669830 139.944397,229.057068 
	C139.994827,233.874847 139.585495,238.743393 140.178680,243.489563 
	C140.461472,245.752304 142.379425,249.401749 143.942123,249.616333 
	C148.704224,250.270233 153.655426,249.592621 158.528488,249.343948 
	C159.264465,249.306396 160.059845,248.421692 160.684357,248.562927 
	C163.267593,249.147079 165.795700,249.974976 169.013474,250.907303 
	C169.013474,240.707581 169.013474,231.607300 169.013474,221.508820 
M99.915550,244.425827 
	C99.260643,246.185989 98.605743,247.946152 97.891724,249.865189 
	C101.292732,249.865189 104.073967,249.865189 106.811699,249.865189 
	C108.050331,246.439789 109.215393,243.217834 110.277763,240.279877 
	C115.187180,240.279877 119.618416,240.279877 123.921036,240.279877 
	C128.454681,251.139526 128.454681,251.139526 136.564285,249.316772 
	C132.059464,236.830887 127.569794,224.386978 123.173462,212.201782 
	C119.053215,212.201782 115.450058,212.201782 111.796326,212.201782 
	C107.837852,222.836990 103.963303,233.246735 99.915550,244.425827 
M324.931946,315.380005 
	C328.377411,316.678009 331.755493,318.848450 335.280151,319.120575 
	C349.345093,320.206390 352.323212,317.194946 352.323090,303.189331 
	C352.323029,291.012024 348.064667,287.571075 336.031952,290.110016 
	C334.689636,290.393280 333.426880,291.053497 331.690857,291.701843 
	C331.690857,286.911163 331.690857,282.485596 331.690857,277.908905 
	C328.728943,277.908905 326.131592,277.908905 323.147125,277.908905 
	C323.147125,286.581055 323.014771,295.024536 323.207397,303.460602 
	C323.293335,307.224579 324.032715,310.973663 324.931946,315.380005 
M186.848358,291.561035 
	C186.347366,290.155212 185.825729,288.756317 185.348816,287.342377 
	C182.729630,279.577332 182.491791,279.446838 174.090042,281.408752 
	C178.249908,292.934113 182.533890,304.403687 186.468460,315.991913 
	C187.424591,318.807953 189.082825,319.250000 191.309784,318.791321 
	C194.201385,318.195740 198.103790,320.953125 199.820099,316.225922 
	C204.040970,304.600372 208.337936,293.002441 212.619568,281.351898 
	C204.290329,279.704926 204.276474,279.700165 201.772446,286.997559 
	C199.099091,294.788239 196.455460,302.589172 193.480270,311.320648 
	C191.079010,304.262970 189.049683,298.298462 186.848358,291.561035 
M288.994171,315.290405 
	C291.567444,319.294891 298.548706,320.758209 304.558838,318.558990 
	C305.367035,318.263245 306.226379,317.681244 306.993958,317.777039 
	C309.730469,318.118530 312.437622,318.695374 315.601990,319.263153 
	C315.601990,311.330292 315.704315,304.384979 315.562927,297.444580 
	C315.480438,293.394409 313.018768,290.660675 309.165619,290.379181 
	C303.144775,289.939301 297.068146,290.262665 290.728546,290.262665 
	C290.874115,292.352661 290.984314,293.934540 291.094238,295.512451 
	C306.761200,294.499573 307.094604,294.617645 306.516785,301.143188 
	C304.913788,301.143188 303.277710,301.140411 301.641632,301.143951 
	C299.980194,301.147552 298.313721,301.076202 296.658234,301.179016 
	C290.740753,301.546509 288.701447,303.611359 288.498016,309.546112 
	C288.441559,311.192841 288.731079,312.851440 288.994171,315.290405 
M229.103912,295.033936 
	C232.950150,295.157349 234.324890,297.104370 233.524918,300.873871 
	C229.071106,301.128784 224.729767,301.023285 220.520081,301.716919 
	C216.236923,302.422638 214.744064,305.821930 215.179016,311.978790 
	C215.466400,316.046570 216.770752,319.245453 221.581757,319.153442 
	C228.389343,319.023224 235.194168,318.749390 242.218323,318.530090 
	C242.218323,311.317200 242.268417,304.358124 242.198532,297.400238 
	C242.159912,293.553101 240.053101,290.760223 236.351212,290.495178 
	C230.172379,290.052826 223.938843,290.374451 217.399185,290.374451 
	C217.556763,292.412018 217.676804,293.964081 217.757904,295.012573 
	C221.618698,295.012573 224.924332,295.012573 229.103912,295.033936 
M297.166473,181.040863 
	C299.019257,179.276505 302.235962,177.679031 302.476013,175.717346 
	C303.284180,169.112457 305.563019,161.680496 300.794250,156.038864 
	C296.102234,150.488098 288.980957,152.099258 282.549805,152.855820 
	C282.220551,152.894577 281.891846,152.954681 281.569397,153.032028 
	C276.595367,154.225143 274.190277,157.787537 274.416138,162.489212 
	C274.723633,168.890930 271.575012,176.537521 279.687073,180.705383 
	C280.841644,181.298599 282.223053,181.773529 283.493408,181.759277 
	C287.784424,181.711121 292.072754,181.417999 297.166473,181.040863 
M372.186371,234.586060 
	C372.122803,224.397217 369.435272,221.392685 360.055969,221.024887 
	C346.059753,220.476028 343.094513,223.369919 343.148560,237.525543 
	C343.186005,247.333771 345.838654,250.385895 355.775330,250.704666 
	C371.514618,251.209534 372.845367,246.639755 372.186371,234.586060 
M217.018631,161.858459 
	C216.770325,156.634369 214.169312,153.439224 208.896973,152.805466 
	C202.424973,152.027512 195.778885,151.070709 191.122681,157.247543 
	C190.218033,158.447678 190.036041,160.369644 189.958466,161.979767 
	C189.790421,165.467300 189.991898,168.971176 189.883698,172.463455 
	C189.742462,177.021759 192.116348,180.151810 196.237061,180.743423 
	C202.660980,181.665710 209.224838,181.613388 216.154602,181.997620 
	C216.014755,179.029404 215.940933,177.462433 215.866913,175.891251 
	C199.101700,176.940140 197.911316,176.493347 199.384552,169.480362 
	C205.072464,169.480362 210.845840,169.480362 217.020996,169.480362 
	C217.020996,166.992508 217.020996,164.867157 217.018631,161.858459 
M161.023712,322.590332 
	C165.082947,311.928406 169.142181,301.266449 173.270996,290.421753 
	C169.972687,290.421753 167.200699,290.421753 164.494827,290.421753 
	C162.578949,296.758850 160.743912,302.828491 158.575012,310.002502 
	C156.952255,304.998260 155.686340,301.228546 154.507553,297.431793 
	C151.933945,289.142426 151.952042,289.136810 143.039001,290.790131 
	C145.071274,295.893921 146.614273,301.212036 149.206192,305.957153 
	C153.660202,314.111237 154.832687,321.965240 149.486954,330.083069 
	C149.398621,330.217194 149.669556,330.587891 149.767700,330.835297 
	C157.639984,331.239166 157.638855,331.238739 160.337341,324.229034 
	C160.456406,323.919739 160.630737,323.631744 161.023712,322.590332 
M249.632294,250.846039 
	C253.386673,250.511429 257.141052,250.176819 260.774811,249.852951 
	C260.774811,247.649734 260.774811,245.954483 260.774811,244.179535 
	C247.595215,246.995850 243.074646,245.317368 244.458389,237.854614 
	C250.254059,237.854614 256.147369,237.854614 262.009308,237.854614 
	C262.009308,234.722794 262.687897,231.818344 261.830902,229.475616 
	C260.845398,226.781509 258.799561,222.874588 256.688873,222.506393 
	C251.323257,221.570450 245.023621,220.759018 240.261154,222.721207 
	C231.288666,226.417938 235.716644,235.426559 235.138809,242.234711 
	C234.761200,246.683716 238.386932,248.849823 242.335510,249.862198 
	C244.409805,250.394028 246.598755,250.478638 249.632294,250.846039 
M348.673157,184.229919 
	C352.570129,173.948929 356.467133,163.667953 360.425018,153.226334 
	C351.884644,152.550735 351.914795,152.559662 349.760925,159.837311 
	C348.615173,163.708786 347.343933,167.543091 345.790314,172.469055 
	C343.394135,165.146408 341.405121,159.068039 339.429871,153.031799 
	C336.222443,153.031799 333.415588,153.031799 330.135406,153.031799 
	C332.458160,158.779190 334.310730,164.448959 336.979126,169.704514 
	C340.729889,177.091904 342.047455,184.193192 337.147705,191.529175 
	C336.844574,191.983047 337.033295,192.765411 336.993530,193.389084 
	C344.776642,194.153687 344.779327,194.154724 347.476135,187.259323 
	C347.777863,186.487854 348.028137,185.696243 348.673157,184.229919 
M398.333252,306.939392 
	C399.544830,306.664917 401.407745,306.790558 401.862152,306.050934 
	C404.784210,301.294525 400.874237,291.499054 395.308746,290.534454 
	C390.986389,289.785278 386.337067,289.952759 381.979675,290.641083 
	C377.385223,291.366913 374.896240,294.680603 374.928864,299.556091 
	C374.951141,302.886932 374.984589,306.219635 374.903412,309.548798 
	C374.794617,314.009094 376.897430,317.341766 381.109833,317.974182 
	C387.562317,318.942841 394.155640,318.973145 400.791260,319.408417 
	C400.791260,316.409973 400.791260,314.726868 400.791260,312.976440 
	C387.042694,315.367493 383.669830,314.201263 383.984619,306.939392 
	C388.430359,306.939392 392.899872,306.939392 398.333252,306.939392 
M324.095886,241.409668 
	C324.023376,234.633957 322.153290,232.629242 315.344849,232.125641 
	C313.856506,232.015533 312.254303,232.390503 310.889374,231.958313 
	C309.468079,231.508316 308.270508,230.351913 306.975098,229.504395 
	C308.274506,228.451309 309.522797,226.584869 310.882996,226.499405 
	C314.783936,226.254333 318.730225,226.730713 322.960571,226.938324 
	C322.800476,224.864502 322.680054,223.304688 322.548950,221.606934 
	C316.563934,221.606934 310.903809,221.098541 305.379150,221.746094 
	C299.540924,222.430389 297.951202,224.984787 298.285675,230.520721 
	C298.600311,235.728073 300.938019,237.927811 306.653198,238.296631 
	C308.308746,238.403458 310.135590,237.923141 311.592285,238.477814 
	C313.126526,239.062042 314.311768,240.562759 315.649506,241.663025 
	C314.255341,242.856232 312.916992,244.977036 311.456329,245.064911 
	C307.427795,245.307251 303.348114,244.699219 299.286682,244.427368 
	C299.286682,246.373947 299.286682,248.114426 299.286682,250.168274 
	C305.370087,250.168274 311.164307,250.443207 316.918274,250.080414 
	C321.439240,249.795364 324.239349,247.205032 324.095886,241.409668 
M269.872192,223.247849 
	C266.230194,226.454224 266.575531,230.848892 268.399597,234.165176 
	C269.581940,236.314774 273.398224,237.165573 276.177612,238.221085 
	C277.488831,238.719009 279.356110,237.871948 280.577789,238.456726 
	C282.186310,239.226685 283.407318,240.806229 284.794922,242.037689 
	C283.432800,243.096359 282.109039,244.990829 280.701294,245.055435 
	C276.641235,245.241776 272.547333,244.690231 268.358521,244.421555 
	C268.358521,246.331253 268.358521,248.057709 268.358521,250.249512 
	C274.275146,250.249512 279.927094,250.686020 285.481049,250.134888 
	C291.883667,249.499557 293.473877,246.913834 293.192352,239.809525 
	C292.988678,234.670074 290.881744,232.723801 284.796295,232.146652 
	C283.476868,232.021515 282.029938,232.390472 280.838196,231.972168 
	C279.139374,231.375854 277.621948,230.262756 276.027039,229.370392 
	C277.737030,228.360107 279.385803,226.643829 281.169952,226.489182 
	C284.687195,226.184326 288.279510,226.745331 292.014923,226.958145 
	C291.922241,224.859711 291.857269,223.388916 291.726044,220.417419 
	C284.497253,221.259232 277.535675,222.069931 269.872192,223.247849 
M381.047485,245.367889 
	C381.047485,246.820496 381.047485,248.273117 381.047485,249.751068 
	C384.216797,249.751068 386.919220,249.751068 389.860809,249.751068 
	C389.860809,245.768799 389.860840,242.128860 389.860840,238.488937 
	C389.860840,234.713898 389.860809,230.938858 389.860809,226.869232 
	C392.683502,226.869232 394.960449,226.869232 397.401154,226.869232 
	C397.401154,225.025909 397.401154,223.502121 397.401154,221.831665 
	C394.808868,221.698486 392.528442,221.581314 390.295105,221.466568 
	C389.371582,214.203781 389.371582,214.203781 398.622406,213.556351 
	C398.656860,212.813385 398.756012,212.026642 398.711670,211.248093 
	C398.668091,210.482437 398.478760,209.725113 398.373413,209.085663 
	C385.677734,206.517136 383.070953,208.350128 380.424042,221.450684 
	C378.999329,221.606628 377.558563,221.764343 375.976990,221.937469 
	C375.976990,223.601944 375.976990,225.045959 375.976990,226.740143 
	C377.687134,226.883148 379.249298,227.013779 381.047485,227.164139 
	C381.047485,233.121719 381.047485,238.757065 381.047485,245.367889 
M361.047089,277.679596 
	C360.453918,278.960999 359.377045,280.231415 359.347595,281.525665 
	C359.181702,288.818604 359.267548,296.117310 359.267517,303.414032 
	C359.267517,308.495972 359.267487,313.577942 359.267487,318.580566 
	C362.551117,318.580566 365.130188,318.580566 367.679657,318.580566 
	C367.679657,304.823273 367.679657,291.348969 367.679657,277.663605 
	C365.529999,277.663605 363.720306,277.663605 361.047089,277.679596 
M318.733002,165.779968 
	C318.109802,158.084824 324.522430,160.298935 328.427429,159.107681 
	C328.427429,156.837631 328.427429,154.754089 328.427429,151.555832 
	C324.682709,152.770493 321.535706,153.791260 318.365967,154.819412 
	C316.635132,150.745209 313.073639,153.690796 310.136505,153.075027 
	C310.136505,162.663132 310.136505,171.782944 310.136505,181.013672 
	C313.042572,181.013672 315.784882,181.013672 318.732544,181.013672 
	C318.732544,176.033417 318.732544,171.376266 318.733002,165.779968 
M262.027557,297.245667 
	C264.134552,297.069733 266.241547,296.893829 268.531250,296.702667 
	C268.531250,294.387512 268.531250,292.317596 268.531250,289.102264 
	C264.767761,290.236542 261.477997,291.228058 258.288239,292.189423 
	C256.847351,287.642273 253.061081,291.191254 250.200714,290.002655 
	C250.200714,299.885559 250.200714,309.231934 250.200714,318.556274 
	C253.062408,318.556274 255.612991,318.556274 258.551636,318.556274 
	C258.551636,313.299866 258.301971,308.327545 258.673584,303.402100 
	C258.823669,301.413300 260.332123,299.526978 262.027557,297.245667 
M222.606842,223.020187 
	C222.224991,223.341522 221.843155,223.662857 221.461319,223.984222 
	C219.108810,219.927658 215.628708,222.011276 212.503998,222.043457 
	C212.503998,231.440033 212.503998,240.544708 212.503998,249.771790 
	C215.441666,249.771790 218.138733,249.771790 221.020401,249.771790 
	C221.020401,244.471130 221.214310,239.482422 220.962006,234.516388 
	C220.740875,230.163651 222.954193,228.480408 226.820236,228.158737 
	C228.096710,228.052536 229.389465,228.142014 230.721756,228.142014 
	C230.721756,225.512619 230.721756,223.280823 230.721756,220.313675 
	C227.916092,221.163864 225.591461,221.868271 222.606842,223.020187 
M273.687012,294.639099 
	C273.687012,302.552124 273.687012,310.465118 273.687012,318.549103 
	C276.693359,318.549103 279.228821,318.549103 281.683228,318.549103 
	C281.683228,308.920593 281.683228,299.590363 281.683228,289.534790 
	C278.941345,291.827606 273.657715,286.820557 273.687012,294.639099 
M274.587189,286.949860 
	C277.004547,286.949860 279.421875,286.949860 281.829773,286.949860 
	C281.829773,284.417572 281.829773,282.361938 281.829773,280.260742 
	C279.029358,280.260742 276.474701,280.260742 273.807251,280.260742 
	C273.807251,282.473969 273.807251,284.429932 274.587189,286.949860 
z"/>
<path fill="#FFFFFF" opacity="1.000000" stroke="none" 
	d="
M1189.861694,145.000732 
	C1189.861694,216.982910 1189.862671,288.465057 1189.860596,359.947205 
	C1189.860352,369.629852 1186.724854,372.752594 1176.986450,372.752747 
	C1026.857300,372.755096 876.728088,372.755096 726.598938,372.752686 
	C717.264709,372.752533 714.059387,369.522278 714.059021,360.114014 
	C714.055969,276.134979 714.056213,192.155960 714.058716,108.176926 
	C714.059021,98.817703 717.199829,95.626923 726.679443,95.625923 
	C876.808655,95.610100 1026.937866,95.610626 1177.067017,95.624428 
	C1186.775391,95.625320 1189.858643,98.794258 1189.861084,108.509674 
	C1189.864136,120.506691 1189.861694,132.503708 1189.861694,145.000732 
M937.909058,237.442322 
	C938.361755,238.328629 938.802124,239.978714 939.268982,239.986252 
	C945.876343,240.092758 952.514526,240.286530 959.079346,239.709488 
	C960.860779,239.552887 963.416748,237.170425 963.901306,235.352280 
	C965.389954,229.766205 966.752991,223.812210 960.798828,219.771011 
	C964.784851,215.469391 963.835510,210.292389 962.331482,206.080017 
	C961.568481,203.943130 957.128357,202.324921 954.161926,201.944839 
	C948.994507,201.282776 943.681091,201.760605 938.425171,201.760605 
	C938.425171,204.272217 938.425171,206.002243 938.425171,207.998550 
	C941.845398,207.834534 944.974609,207.616028 948.106873,207.553146 
	C951.349548,207.488068 954.395630,207.276703 954.396301,212.253769 
	C954.396851,217.011703 952.044250,217.921997 948.149292,217.685059 
	C946.519165,217.585907 944.877991,217.668579 943.156738,217.668579 
	C943.156738,219.815155 943.156738,221.573151 943.156738,223.732132 
	C945.699524,223.732132 948.000610,223.765762 950.300293,223.724274 
	C953.751160,223.662003 955.968079,224.516800 955.907532,228.761383 
	C955.850830,232.736969 954.354126,234.862091 950.419067,234.697266 
	C946.361816,234.527298 942.321045,233.964478 937.908875,233.538376 
	C937.908875,234.622177 937.908875,235.592621 937.909058,237.442322 
z"/>
<path fill="#FEFEFE" opacity="1.000000" stroke="none" 
	d="
M207.598083,22.885948 
	C205.332184,22.911564 203.515091,22.911564 201.319519,22.911564 
	C201.319519,18.691820 201.319519,14.528605 201.319519,9.793986 
	C205.223618,11.231342 210.796448,6.925107 212.860321,12.846291 
	C214.952042,18.847349 213.023178,21.657198 207.598083,22.885948 
z"/>
<path fill="#F8F8F8" opacity="1.000000" stroke="none" 
	d="
M1047.850830,25.504665 
	C1047.909546,29.445917 1047.702637,32.946724 1047.966187,36.411755 
	C1048.340820,41.337261 1045.215454,41.781616 1041.625488,41.803982 
	C1038.028564,41.826389 1035.439941,40.856628 1035.895996,36.399128 
	C1036.148071,33.935753 1035.629761,31.373056 1036.036865,28.952391 
	C1036.377563,26.926781 1037.304932,23.568222 1038.415161,23.377581 
	C1041.494019,22.848904 1045.325562,21.147394 1047.850830,25.504665 
z"/>
<path fill="#F5F5F5" opacity="1.000000" stroke="none" 
	d="
M930.299744,33.823425 
	C933.024414,33.756012 935.293396,33.756012 938.972229,33.756012 
	C937.765442,36.886940 937.449219,40.469227 935.821472,41.224392 
	C933.831055,42.147781 930.740967,40.700787 928.126465,40.278816 
	C928.698975,38.149494 929.271484,36.020164 930.299744,33.823425 
z"/>
<path fill="#F5F5F5" opacity="1.000000" stroke="none" 
	d="
M1008.030396,33.703651 
	C1009.354126,34.513329 1010.854309,35.268684 1010.927307,36.143177 
	C1011.062866,37.766701 1010.694763,40.699242 1009.954163,40.896046 
	C1007.540283,41.537533 1004.727966,41.659142 1002.361023,40.973095 
	C1001.518921,40.729015 1000.635010,37.022400 1001.349976,35.937008 
	C1002.218933,34.617828 1004.752014,34.383759 1006.578857,33.717911 
	C1006.869995,33.611797 1007.233093,33.703072 1008.030396,33.703651 
z"/>
<path fill="#F5F5F5" opacity="1.000000" stroke="none" 
	d="
M235.992142,31.632692 
	C235.992065,28.857452 236.172501,26.523762 235.953186,24.228268 
	C235.541016,19.914368 236.997284,17.795681 241.673782,17.744326 
	C246.487732,17.691456 248.262115,19.730419 247.879349,24.341419 
	C247.674744,26.806353 247.726837,29.308929 247.869827,31.782566 
	C248.085388,35.511749 246.086380,36.863636 242.742096,36.824917 
	C239.450714,36.786812 235.670181,37.330570 235.992142,31.632692 
z"/>
<path fill="#F5F5F5" opacity="1.000000" stroke="none" 
	d="
M1092.081421,29.694473 
	C1089.622314,29.746330 1087.662109,30.072830 1087.760254,26.849201 
	C1087.842529,24.150284 1088.723877,22.991253 1091.476807,22.807249 
	C1097.113403,22.430500 1098.104736,23.306637 1097.732056,29.694510 
	C1096.027344,29.694510 1094.276855,29.694510 1092.081421,29.694473 
z"/>
<path fill="#E7E7E7" opacity="1.000000" stroke="none" 
	d="
M351.961365,17.805363 
	C357.105896,17.756952 357.254028,20.730415 356.597565,24.541977 
	C353.426666,24.541977 350.219666,24.541977 346.778320,24.541977 
	C345.988892,20.487009 346.290771,17.455032 351.961365,17.805363 
z"/>
<path fill="#060606" opacity="1.000000" stroke="none" 
	d="
M156.106598,155.796387 
	C157.746658,160.489807 159.284485,164.804581 161.224030,170.246445 
	C164.564529,160.547562 167.497772,152.031143 170.469315,143.403549 
	C174.517578,143.403549 178.435989,143.403549 182.598572,143.403549 
	C182.598572,156.044891 182.598572,168.438873 182.598572,181.076843 
	C180.037354,181.076843 177.595032,181.076843 174.644684,181.076843 
	C174.644684,172.832809 174.644684,164.602356 174.644684,156.371887 
	C174.231598,156.282593 173.818527,156.193283 173.405441,156.103989 
	C170.539871,164.370529 167.674301,172.637070 164.743500,181.091797 
	C162.426880,181.091797 160.149490,181.091797 157.264938,181.091797 
	C154.272064,172.729523 151.172318,164.068665 148.072571,155.407806 
	C147.842316,155.420090 147.612061,155.432388 147.381805,155.444672 
	C147.381805,163.868530 147.381805,172.292404 147.381805,181.013748 
	C144.317917,181.013748 141.755905,181.013748 139.029678,181.013748 
	C139.029678,168.486374 139.029678,156.070862 139.029678,143.405228 
	C143.332840,143.405228 147.437195,143.405228 151.793350,143.405228 
	C153.166733,147.323029 154.585541,151.370377 156.106598,155.796387 
z"/>
<path fill="#090909" opacity="1.000000" stroke="none" 
	d="
M241.259186,180.285950 
	C241.159546,173.697586 241.044861,167.539062 241.192459,161.386841 
	C241.263031,158.444824 239.924118,157.615250 237.288925,157.703766 
	C234.703476,157.790619 232.102051,157.622559 232.114822,161.354111 
	C232.137009,167.834869 232.120972,174.315765 232.120972,181.060547 
	C229.293976,181.060547 226.719086,181.060547 223.907440,181.060547 
	C223.907440,171.703156 223.907440,162.470551 223.907440,153.596420 
	C229.605072,153.146347 235.098541,152.354004 240.581818,152.419250 
	C243.666168,152.455948 246.733704,153.908325 250.435730,154.889008 
	C253.302017,152.150864 261.002258,150.700302 264.616394,153.663132 
	C266.359863,155.092422 267.439301,158.157730 267.581787,160.555786 
	C267.975647,167.183228 267.718109,173.849380 267.718109,180.913116 
	C264.880524,180.913116 262.181000,180.913116 258.985870,180.913116 
	C258.985870,174.901550 258.885529,168.799149 259.027954,162.702423 
	C259.099884,159.622971 258.683380,157.607208 254.833954,157.643860 
	C251.315903,157.677353 249.697189,158.634171 249.871613,162.495834 
	C250.147675,168.607391 249.945160,174.740570 249.945160,181.515823 
	C246.823959,181.226196 244.087906,180.972290 241.259186,180.285950 
z"/>
<path fill="#090909" opacity="1.000000" stroke="none" 
	d="
M118.383789,291.266113 
	C119.556496,291.767334 120.878662,292.523499 121.158913,292.242096 
	C124.793213,288.592621 129.387650,289.393524 133.398346,290.336334 
	C135.440491,290.816406 138.120773,293.943024 138.291656,296.053131 
	C138.890503,303.447571 138.523880,310.920197 138.523880,318.604004 
	C135.624329,318.604004 133.054184,318.604004 129.984390,318.604004 
	C129.984390,312.205963 129.851227,305.922455 130.037399,299.648407 
	C130.139160,296.219238 128.962433,294.879395 125.440033,294.940002 
	C121.950668,295.000061 120.786407,296.378357 120.891983,299.773773 
	C121.082642,305.904999 120.945915,312.046387 120.945915,318.516754 
	C118.075470,318.516754 115.491158,318.516754 112.146927,318.516754 
	C112.146927,312.426117 112.055420,306.169373 112.185883,299.917328 
	C112.250191,296.835419 111.822128,294.854614 107.951042,294.927643 
	C104.248085,294.997498 102.940506,296.440735 103.042007,300.041687 
	C103.214401,306.157349 103.089439,312.281403 103.089439,318.620087 
	C100.079338,318.620087 97.518578,318.620087 94.714203,318.620087 
	C94.714203,309.133057 94.714203,299.878479 94.714203,289.436920 
	C97.892189,290.314423 100.579102,291.148346 103.318016,291.742554 
	C103.938560,291.877167 104.737724,290.913788 105.458046,290.908417 
	C109.654457,290.877167 113.851875,290.980774 118.383789,291.266113 
z"/>
<path fill="#090909" opacity="1.000000" stroke="none" 
	d="
M188.718689,250.774597 
	C186.302048,250.665955 184.321045,250.509216 182.337646,250.393997 
	C177.797241,250.130188 175.912811,247.495377 175.885040,243.199814 
	C175.854996,238.550873 175.899902,233.900528 175.800491,229.253189 
	C175.701508,224.627365 178.134735,221.791351 182.434021,221.467957 
	C186.827698,221.137436 191.300720,221.861389 196.146988,222.147858 
	C196.146988,218.711075 196.146988,214.010529 196.146988,209.123627 
	C199.196136,209.123627 201.790298,209.123627 204.665527,209.123627 
	C204.665527,222.670578 204.665527,236.186600 204.665527,249.927078 
	C199.432205,250.648499 194.136337,248.390884 188.718689,250.774597 
M188.834930,226.302139 
	C187.383987,227.133499 184.776245,227.848511 184.678925,228.815994 
	C184.215530,233.423325 184.379715,238.100388 184.472672,242.749603 
	C184.486053,243.418915 185.289749,244.610001 185.789307,244.643616 
	C188.731308,244.841461 191.792358,245.195267 194.586792,244.536179 
	C195.472473,244.327301 195.891113,241.199707 196.112457,239.358383 
	C196.368820,237.225525 195.949585,235.010315 196.216522,232.880096 
	C196.857971,227.761139 194.546432,225.815094 188.834930,226.302139 
z"/>
<path fill="#080808" opacity="1.000000" stroke="none" 
	d="
M169.013474,222.007919 
	C169.013474,231.607300 169.013474,240.707581 169.013474,250.907303 
	C165.795700,249.974976 163.267593,249.147079 160.684357,248.562927 
	C160.059845,248.421692 159.264465,249.306396 158.528488,249.343948 
	C153.655426,249.592621 148.704224,250.270233 143.942123,249.616333 
	C142.379425,249.401749 140.461472,245.752304 140.178680,243.489563 
	C139.585495,238.743393 139.994827,233.874847 139.944397,229.057068 
	C139.898483,224.669830 142.251999,221.916565 146.338852,221.558212 
	C150.788681,221.167999 155.323593,221.748215 160.286987,221.921616 
	C160.286987,218.404907 160.286987,213.854416 160.286987,209.120819 
	C163.356567,209.120819 165.944458,209.120819 169.013474,209.120819 
	C169.013474,213.288498 169.013474,217.398666 169.013474,222.007919 
M148.484222,234.645935 
	C148.499176,236.970230 148.267700,239.333649 148.627914,241.603149 
	C148.822433,242.828674 149.782883,244.522415 150.818787,244.927094 
	C156.705200,247.226532 160.291290,244.684509 160.307053,238.487488 
	C160.312958,236.162827 160.147812,233.824509 160.344254,231.516556 
	C160.657379,227.837646 158.896652,226.465958 155.449783,226.267792 
	C149.273392,225.912659 148.523087,226.641296 148.484222,234.645935 
z"/>
<path fill="#050505" opacity="1.000000" stroke="none" 
	d="
M100.002151,244.041153 
	C103.963303,233.246735 107.837852,222.836990 111.796326,212.201782 
	C115.450058,212.201782 119.053215,212.201782 123.173462,212.201782 
	C127.569794,224.386978 132.059464,236.830887 136.564285,249.316772 
	C128.454681,251.139526 128.454681,251.139526 123.921036,240.279877 
	C119.618416,240.279877 115.187180,240.279877 110.277763,240.279877 
	C109.215393,243.217834 108.050331,246.439789 106.811699,249.865189 
	C104.073967,249.865189 101.292732,249.865189 97.891724,249.865189 
	C98.605743,247.946152 99.260643,246.185989 100.002151,244.041153 
M117.519341,220.675568 
	C115.717857,224.905701 113.916367,229.135834 111.944824,233.765259 
	C115.881630,233.765259 118.781021,233.765259 122.040001,233.765259 
	C120.613060,229.443588 119.282074,225.412537 117.519341,220.675568 
z"/>
<path fill="#090909" opacity="1.000000" stroke="none" 
	d="
M324.703735,315.054749 
	C324.032715,310.973663 323.293335,307.224579 323.207397,303.460602 
	C323.014771,295.024536 323.147125,286.581055 323.147125,277.908905 
	C326.131592,277.908905 328.728943,277.908905 331.690857,277.908905 
	C331.690857,282.485596 331.690857,286.911163 331.690857,291.701843 
	C333.426880,291.053497 334.689636,290.393280 336.031952,290.110016 
	C348.064667,287.571075 352.323029,291.012024 352.323090,303.189331 
	C352.323212,317.194946 349.345093,320.206390 335.280151,319.120575 
	C331.755493,318.848450 328.377411,316.678009 324.703735,315.054749 
M335.722412,313.965668 
	C337.704376,313.845917 340.177887,314.401123 341.529999,313.416473 
	C342.879883,312.433380 343.787262,309.871460 343.689697,308.066589 
	C343.459564,303.810211 343.984985,298.053284 341.527802,295.708160 
	C337.519501,291.882629 331.871613,295.765259 331.843475,301.577148 
	C331.829773,304.406311 331.545349,307.288666 332.005585,310.042969 
	C332.240265,311.447296 333.849518,312.621948 335.722412,313.965668 
z"/>
<path fill="#060606" opacity="1.000000" stroke="none" 
	d="
M186.934357,291.947479 
	C189.049683,298.298462 191.079010,304.262970 193.480270,311.320648 
	C196.455460,302.589172 199.099091,294.788239 201.772446,286.997559 
	C204.276474,279.700165 204.290329,279.704926 212.619568,281.351898 
	C208.337936,293.002441 204.040970,304.600372 199.820099,316.225922 
	C198.103790,320.953125 194.201385,318.195740 191.309784,318.791321 
	C189.082825,319.250000 187.424591,318.807953 186.468460,315.991913 
	C182.533890,304.403687 178.249908,292.934113 174.090042,281.408752 
	C182.491791,279.446838 182.729630,279.577332 185.348816,287.342377 
	C185.825729,288.756317 186.347366,290.155212 186.934357,291.947479 
z"/>
<path fill="#0B0B0B" opacity="1.000000" stroke="none" 
	d="
M288.928009,314.897491 
	C288.731079,312.851440 288.441559,311.192841 288.498016,309.546112 
	C288.701447,303.611359 290.740753,301.546509 296.658234,301.179016 
	C298.313721,301.076202 299.980194,301.147552 301.641632,301.143951 
	C303.277710,301.140411 304.913788,301.143188 306.516785,301.143188 
	C307.094604,294.617645 306.761200,294.499573 291.094238,295.512451 
	C290.984314,293.934540 290.874115,292.352661 290.728546,290.262665 
	C297.068146,290.262665 303.144775,289.939301 309.165619,290.379181 
	C313.018768,290.660675 315.480438,293.394409 315.562927,297.444580 
	C315.704315,304.384979 315.601990,311.330292 315.601990,319.263153 
	C312.437622,318.695374 309.730469,318.118530 306.993958,317.777039 
	C306.226379,317.681244 305.367035,318.263245 304.558838,318.558990 
	C298.548706,320.758209 291.567444,319.294891 288.928009,314.897491 
M306.919281,306.668335 
	C304.847229,306.453003 302.778198,306.201080 300.702454,306.030792 
	C297.493042,305.767578 296.925293,307.668640 296.900146,310.386200 
	C296.873260,313.295685 298.261780,313.972321 300.870789,314.029877 
	C306.656158,314.157562 306.966797,313.936249 306.919281,306.668335 
z"/>
<path fill="#070707" opacity="1.000000" stroke="none" 
	d="
M228.666931,295.023254 
	C224.924332,295.012573 221.618698,295.012573 217.757904,295.012573 
	C217.676804,293.964081 217.556763,292.412018 217.399185,290.374451 
	C223.938843,290.374451 230.172379,290.052826 236.351212,290.495178 
	C240.053101,290.760223 242.159912,293.553101 242.198532,297.400238 
	C242.268417,304.358124 242.218323,311.317200 242.218323,318.530090 
	C235.194168,318.749390 228.389343,319.023224 221.581757,319.153442 
	C216.770752,319.245453 215.466400,316.046570 215.179016,311.978790 
	C214.744064,305.821930 216.236923,302.422638 220.520081,301.716919 
	C224.729767,301.023285 229.071106,301.128784 233.524918,300.873871 
	C234.324890,297.104370 232.950150,295.157349 228.666931,295.023254 
M223.762451,311.358948 
	C225.387695,316.152130 229.512650,314.211548 232.026031,313.455292 
	C233.373688,313.049774 233.619629,308.982758 234.362717,306.568024 
	C233.933578,306.324188 233.504456,306.080322 233.075317,305.836456 
	C230.006302,307.507965 224.001083,302.422638 223.762451,311.358948 
z"/>
<path fill="#0A0A0A" opacity="1.000000" stroke="none" 
	d="
M296.764282,181.129700 
	C292.072754,181.417999 287.784424,181.711121 283.493408,181.759277 
	C282.223053,181.773529 280.841644,181.298599 279.687073,180.705383 
	C271.575012,176.537521 274.723633,168.890930 274.416138,162.489212 
	C274.190277,157.787537 276.595367,154.225143 281.569397,153.032028 
	C281.891846,152.954681 282.220551,152.894577 282.549805,152.855820 
	C288.980957,152.099258 296.102234,150.488098 300.794250,156.038864 
	C305.563019,161.680496 303.284180,169.112457 302.476013,175.717346 
	C302.235962,177.679031 299.019257,179.276505 296.764282,181.129700 
M282.952301,172.981842 
	C283.859039,177.993668 287.828857,176.569336 290.884857,176.534103 
	C294.080841,176.497269 294.889343,174.136932 294.841431,171.322433 
	C294.790375,168.327148 294.827850,165.330460 294.807861,162.334518 
	C294.776733,157.669266 291.439301,157.721405 288.165131,157.708054 
	C284.894012,157.694717 282.685333,158.706360 282.899414,162.597382 
	C283.072906,165.750320 282.931396,168.920578 282.952301,172.981842 
z"/>
<path fill="#090909" opacity="1.000000" stroke="none" 
	d="
M372.186371,235.058136 
	C372.845367,246.639755 371.514618,251.209534 355.775330,250.704666 
	C345.838654,250.385895 343.186005,247.333771 343.148560,237.525543 
	C343.094513,223.369919 346.059753,220.476028 360.055969,221.024887 
	C369.435272,221.392685 372.122803,224.397217 372.186371,235.058136 
M361.510437,226.856552 
	C353.230988,225.322205 351.927856,226.342880 351.924866,234.370132 
	C351.923981,236.702347 351.418915,239.200073 352.102570,241.311951 
	C352.606659,242.869110 354.663971,244.967880 356.034393,244.971695 
	C358.499084,244.978607 363.029083,243.726852 363.090698,242.769104 
	C363.420868,237.634338 362.638062,232.428024 361.510437,226.856552 
z"/>
<path fill="#0C0C0C" opacity="1.000000" stroke="none" 
	d="
M217.019806,162.300125 
	C217.020996,164.867157 217.020996,166.992508 217.020996,169.480362 
	C210.845840,169.480362 205.072464,169.480362 199.384552,169.480362 
	C197.911316,176.493347 199.101700,176.940140 215.866913,175.891251 
	C215.940933,177.462433 216.014755,179.029404 216.154602,181.997620 
	C209.224838,181.613388 202.660980,181.665710 196.237061,180.743423 
	C192.116348,180.151810 189.742462,177.021759 189.883698,172.463455 
	C189.991898,168.971176 189.790421,165.467300 189.958466,161.979767 
	C190.036041,160.369644 190.218033,158.447678 191.122681,157.247543 
	C195.778885,151.070709 202.424973,152.027512 208.896973,152.805466 
	C214.169312,153.439224 216.770325,156.634369 217.019806,162.300125 
M207.031952,164.721817 
	C207.454346,162.832642 207.876724,160.943481 208.299118,159.054306 
	C205.630066,158.723221 202.765015,157.688995 200.374039,158.355499 
	C199.165039,158.692520 198.813354,162.105087 197.851959,164.734482 
	C201.569763,164.734482 203.871582,164.734482 207.031952,164.721817 
z"/>
<path fill="#090909" opacity="1.000000" stroke="none" 
	d="
M160.901520,322.962097 
	C160.630737,323.631744 160.456406,323.919739 160.337341,324.229034 
	C157.638855,331.238739 157.639984,331.239166 149.767700,330.835297 
	C149.669556,330.587891 149.398621,330.217194 149.486954,330.083069 
	C154.832687,321.965240 153.660202,314.111237 149.206192,305.957153 
	C146.614273,301.212036 145.071274,295.893921 143.039001,290.790131 
	C151.952042,289.136810 151.933945,289.142426 154.507553,297.431793 
	C155.686340,301.228546 156.952255,304.998260 158.575012,310.002502 
	C160.743912,302.828491 162.578949,296.758850 164.494827,290.421753 
	C167.200699,290.421753 169.972687,290.421753 173.270996,290.421753 
	C169.142181,301.266449 165.082947,311.928406 160.901520,322.962097 
z"/>
<path fill="#0A0A0A" opacity="1.000000" stroke="none" 
	d="
M249.184113,250.805603 
	C246.598755,250.478638 244.409805,250.394028 242.335510,249.862198 
	C238.386932,248.849823 234.761200,246.683716 235.138809,242.234711 
	C235.716644,235.426559 231.288666,226.417938 240.261154,222.721207 
	C245.023621,220.759018 251.323257,221.570450 256.688873,222.506393 
	C258.799561,222.874588 260.845398,226.781509 261.830902,229.475616 
	C262.687897,231.818344 262.009308,234.722794 262.009308,237.854614 
	C256.147369,237.854614 250.254059,237.854614 244.458389,237.854614 
	C243.074646,245.317368 247.595215,246.995850 260.774811,244.179535 
	C260.774811,245.954483 260.774811,247.649734 260.774811,249.852951 
	C257.141052,250.176819 253.386673,250.511429 249.184113,250.805603 
M248.439362,233.168121 
	C250.210678,233.168121 251.981979,233.168121 253.722092,233.168121 
	C253.991989,227.164398 251.930115,225.094437 246.977036,226.548386 
	C245.578125,226.959045 244.778656,229.411804 243.704269,230.927994 
	C244.969086,231.674683 246.233902,232.421387 248.439362,233.168121 
z"/>
<path fill="#090909" opacity="1.000000" stroke="none" 
	d="
M348.487732,184.571945 
	C348.028137,185.696243 347.777863,186.487854 347.476135,187.259323 
	C344.779327,194.154724 344.776642,194.153687 336.993530,193.389084 
	C337.033295,192.765411 336.844574,191.983047 337.147705,191.529175 
	C342.047455,184.193192 340.729889,177.091904 336.979126,169.704514 
	C334.310730,164.448959 332.458160,158.779190 330.135406,153.031799 
	C333.415588,153.031799 336.222443,153.031799 339.429871,153.031799 
	C341.405121,159.068039 343.394135,165.146408 345.790314,172.469055 
	C347.343933,167.543091 348.615173,163.708786 349.760925,159.837311 
	C351.914795,152.559662 351.884644,152.550735 360.425018,153.226334 
	C356.467133,163.667953 352.570129,173.948929 348.487732,184.571945 
z"/>
<path fill="#060606" opacity="1.000000" stroke="none" 
	d="
M397.851318,306.939392 
	C392.899872,306.939392 388.430359,306.939392 383.984619,306.939392 
	C383.669830,314.201263 387.042694,315.367493 400.791260,312.976440 
	C400.791260,314.726868 400.791260,316.409973 400.791260,319.408417 
	C394.155640,318.973145 387.562317,318.942841 381.109833,317.974182 
	C376.897430,317.341766 374.794617,314.009094 374.903412,309.548798 
	C374.984589,306.219635 374.951141,302.886932 374.928864,299.556091 
	C374.896240,294.680603 377.385223,291.366913 381.979675,290.641083 
	C386.337067,289.952759 390.986389,289.785278 395.308746,290.534454 
	C400.874237,291.499054 404.784210,301.294525 401.862152,306.050934 
	C401.407745,306.790558 399.544830,306.664917 397.851318,306.939392 
M387.509705,302.000610 
	C389.610718,302.000610 391.711731,302.000610 393.793365,302.000610 
	C393.968994,295.733429 391.152069,293.302368 386.166351,295.328491 
	C384.984192,295.808929 384.087982,297.957733 383.881104,299.452728 
	C383.782623,300.164551 385.610199,301.142853 387.509705,302.000610 
z"/>
<path fill="#0C0C0C" opacity="1.000000" stroke="none" 
	d="
M324.095764,241.840378 
	C324.239349,247.205032 321.439240,249.795364 316.918274,250.080414 
	C311.164307,250.443207 305.370087,250.168274 299.286682,250.168274 
	C299.286682,248.114426 299.286682,246.373947 299.286682,244.427368 
	C303.348114,244.699219 307.427795,245.307251 311.456329,245.064911 
	C312.916992,244.977036 314.255341,242.856232 315.649506,241.663025 
	C314.311768,240.562759 313.126526,239.062042 311.592285,238.477814 
	C310.135590,237.923141 308.308746,238.403458 306.653198,238.296631 
	C300.938019,237.927811 298.600311,235.728073 298.285675,230.520721 
	C297.951202,224.984787 299.540924,222.430389 305.379150,221.746094 
	C310.903809,221.098541 316.563934,221.606934 322.548950,221.606934 
	C322.680054,223.304688 322.800476,224.864502 322.960571,226.938324 
	C318.730225,226.730713 314.783936,226.254333 310.882996,226.499405 
	C309.522797,226.584869 308.274506,228.451309 306.975098,229.504395 
	C308.270508,230.351913 309.468079,231.508316 310.889374,231.958313 
	C312.254303,232.390503 313.856506,232.015533 315.344849,232.125641 
	C322.153290,232.629242 324.023376,234.633957 324.095764,241.840378 
z"/>
<path fill="#0C0C0C" opacity="1.000000" stroke="none" 
	d="
M270.223145,223.064240 
	C277.535675,222.069931 284.497253,221.259232 291.726044,220.417419 
	C291.857269,223.388916 291.922241,224.859711 292.014923,226.958145 
	C288.279510,226.745331 284.687195,226.184326 281.169952,226.489182 
	C279.385803,226.643829 277.737030,228.360107 276.027039,229.370392 
	C277.621948,230.262756 279.139374,231.375854 280.838196,231.972168 
	C282.029938,232.390472 283.476868,232.021515 284.796295,232.146652 
	C290.881744,232.723801 292.988678,234.670074 293.192352,239.809525 
	C293.473877,246.913834 291.883667,249.499557 285.481049,250.134888 
	C279.927094,250.686020 274.275146,250.249512 268.358521,250.249512 
	C268.358521,248.057709 268.358521,246.331253 268.358521,244.421555 
	C272.547333,244.690231 276.641235,245.241776 280.701294,245.055435 
	C282.109039,244.990829 283.432800,243.096359 284.794922,242.037689 
	C283.407318,240.806229 282.186310,239.226685 280.577789,238.456726 
	C279.356110,237.871948 277.488831,238.719009 276.177612,238.221085 
	C273.398224,237.165573 269.581940,236.314774 268.399597,234.165176 
	C266.575531,230.848892 266.230194,226.454224 270.223145,223.064240 
z"/>
<path fill="#0C0C0C" opacity="1.000000" stroke="none" 
	d="
M381.047485,244.880157 
	C381.047485,238.757065 381.047485,233.121719 381.047485,227.164139 
	C379.249298,227.013779 377.687134,226.883148 375.976990,226.740143 
	C375.976990,225.045959 375.976990,223.601944 375.976990,221.937469 
	C377.558563,221.764343 378.999329,221.606628 380.424042,221.450684 
	C383.070953,208.350128 385.677734,206.517136 398.373413,209.085663 
	C398.478760,209.725113 398.668091,210.482437 398.711670,211.248093 
	C398.756012,212.026642 398.656860,212.813385 398.622406,213.556351 
	C389.371582,214.203781 389.371582,214.203781 390.295105,221.466568 
	C392.528442,221.581314 394.808868,221.698486 397.401154,221.831665 
	C397.401154,223.502121 397.401154,225.025909 397.401154,226.869232 
	C394.960449,226.869232 392.683502,226.869232 389.860809,226.869232 
	C389.860809,230.938858 389.860840,234.713898 389.860840,238.488937 
	C389.860840,242.128860 389.860809,245.768799 389.860809,249.751068 
	C386.919220,249.751068 384.216797,249.751068 381.047485,249.751068 
	C381.047485,248.273117 381.047485,246.820496 381.047485,244.880157 
z"/>
<path fill="#0C0C0C" opacity="1.000000" stroke="none" 
	d="
M361.478821,277.671600 
	C363.720306,277.663605 365.529999,277.663605 367.679657,277.663605 
	C367.679657,291.348969 367.679657,304.823273 367.679657,318.580566 
	C365.130188,318.580566 362.551117,318.580566 359.267487,318.580566 
	C359.267487,313.577942 359.267517,308.495972 359.267517,303.414032 
	C359.267548,296.117310 359.181702,288.818604 359.347595,281.525665 
	C359.377045,280.231415 360.453918,278.960999 361.478821,277.671600 
z"/>
<path fill="#0C0C0C" opacity="1.000000" stroke="none" 
	d="
M318.732788,166.249542 
	C318.732544,171.376266 318.732544,176.033417 318.732544,181.013672 
	C315.784882,181.013672 313.042572,181.013672 310.136505,181.013672 
	C310.136505,171.782944 310.136505,162.663132 310.136505,153.075027 
	C313.073639,153.690796 316.635132,150.745209 318.365967,154.819412 
	C321.535706,153.791260 324.682709,152.770493 328.427429,151.555832 
	C328.427429,154.754089 328.427429,156.837631 328.427429,159.107681 
	C324.522430,160.298935 318.109802,158.084824 318.732788,166.249542 
z"/>
<path fill="#0E0E0E" opacity="1.000000" stroke="none" 
	d="
M261.624969,297.419861 
	C260.332123,299.526978 258.823669,301.413300 258.673584,303.402100 
	C258.301971,308.327545 258.551636,313.299866 258.551636,318.556274 
	C255.612991,318.556274 253.062408,318.556274 250.200714,318.556274 
	C250.200714,309.231934 250.200714,299.885559 250.200714,290.002655 
	C253.061081,291.191254 256.847351,287.642273 258.288239,292.189423 
	C261.477997,291.228058 264.767761,290.236542 268.531250,289.102264 
	C268.531250,292.317596 268.531250,294.387512 268.531250,296.702667 
	C266.241547,296.893829 264.134552,297.069733 261.624969,297.419861 
z"/>
<path fill="#0C0C0C" opacity="1.000000" stroke="none" 
	d="
M222.936844,222.796448 
	C225.591461,221.868271 227.916092,221.163864 230.721756,220.313675 
	C230.721756,223.280823 230.721756,225.512619 230.721756,228.142014 
	C229.389465,228.142014 228.096710,228.052536 226.820236,228.158737 
	C222.954193,228.480408 220.740875,230.163651 220.962006,234.516388 
	C221.214310,239.482422 221.020401,244.471130 221.020401,249.771790 
	C218.138733,249.771790 215.441666,249.771790 212.503998,249.771790 
	C212.503998,240.544708 212.503998,231.440033 212.503998,222.043457 
	C215.628708,222.011276 219.108810,219.927658 221.461304,223.984222 
	C221.843155,223.662857 222.224991,223.341522 222.936844,222.796448 
z"/>
<path fill="#050505" opacity="1.000000" stroke="none" 
	d="
M273.687134,294.158020 
	C273.657715,286.820557 278.941345,291.827606 281.683228,289.534790 
	C281.683228,299.590363 281.683228,308.920593 281.683228,318.549103 
	C279.228821,318.549103 276.693359,318.549103 273.687012,318.549103 
	C273.687012,310.465118 273.687012,302.552124 273.687134,294.158020 
z"/>
<path fill="#000000" opacity="1.000000" stroke="none" 
	d="
M274.197205,286.667847 
	C273.807251,284.429932 273.807251,282.473969 273.807251,280.260742 
	C276.474701,280.260742 279.029358,280.260742 281.829773,280.260742 
	C281.829773,282.361938 281.829773,284.417572 281.829773,286.949860 
	C279.421875,286.949860 277.004547,286.949860 274.197205,286.667847 
z"/>
<path fill="#090909" opacity="1.000000" stroke="none" 
	d="
M937.908936,237.002686 
	C937.908875,235.592621 937.908875,234.622177 937.908875,233.538376 
	C942.321045,233.964478 946.361816,234.527298 950.419067,234.697266 
	C954.354126,234.862091 955.850830,232.736969 955.907532,228.761383 
	C955.968079,224.516800 953.751160,223.662003 950.300293,223.724274 
	C948.000610,223.765762 945.699524,223.732132 943.156738,223.732132 
	C943.156738,221.573151 943.156738,219.815155 943.156738,217.668579 
	C944.877991,217.668579 946.519165,217.585907 948.149292,217.685059 
	C952.044250,217.921997 954.396851,217.011703 954.396301,212.253769 
	C954.395630,207.276703 951.349548,207.488068 948.106873,207.553146 
	C944.974609,207.616028 941.845398,207.834534 938.425171,207.998550 
	C938.425171,206.002243 938.425171,204.272217 938.425171,201.760605 
	C943.681091,201.760605 948.994507,201.282776 954.161926,201.944839 
	C957.128357,202.324921 961.568481,203.943130 962.331482,206.080017 
	C963.835510,210.292389 964.784851,215.469391 960.798828,219.771011 
	C966.752991,223.812210 965.389954,229.766205 963.901306,235.352280 
	C963.416748,237.170425 960.860779,239.552887 959.079346,239.709488 
	C952.514526,240.286530 945.876343,240.092758 939.268982,239.986252 
	C938.802124,239.978714 938.361755,238.328629 937.908936,237.002686 
z"/>
<path fill="#F5F5F5" opacity="1.000000" stroke="none" 
	d="
M189.254211,226.299286 
	C194.546432,225.815094 196.857971,227.761139 196.216522,232.880096 
	C195.949585,235.010315 196.368820,237.225525 196.112457,239.358383 
	C195.891113,241.199707 195.472473,244.327301 194.586792,244.536179 
	C191.792358,245.195267 188.731308,244.841461 185.789307,244.643616 
	C185.289749,244.610001 184.486053,243.418915 184.472672,242.749603 
	C184.379715,238.100388 184.215530,233.423325 184.678925,228.815994 
	C184.776245,227.848511 187.383987,227.133499 189.254211,226.299286 
z"/>
<path fill="#F5F5F5" opacity="1.000000" stroke="none" 
	d="
M148.484253,234.195709 
	C148.523087,226.641296 149.273392,225.912659 155.449783,226.267792 
	C158.896652,226.465958 160.657379,227.837646 160.344254,231.516556 
	C160.147812,233.824509 160.312958,236.162827 160.307053,238.487488 
	C160.291290,244.684509 156.705200,247.226532 150.818787,244.927094 
	C149.782883,244.522415 148.822433,242.828674 148.627914,241.603149 
	C148.267700,239.333649 148.499176,236.970230 148.484253,234.195709 
z"/>
<path fill="#E7E7E7" opacity="1.000000" stroke="none" 
	d="
M117.735214,221.028519 
	C119.282074,225.412537 120.613060,229.443588 122.040001,233.765259 
	C118.781021,233.765259 115.881630,233.765259 111.944824,233.765259 
	C113.916367,229.135834 115.717857,224.905701 117.735214,221.028519 
z"/>
<path fill="#F8F8F8" opacity="1.000000" stroke="none" 
	d="
M335.279907,313.933044 
	C333.849518,312.621948 332.240265,311.447296 332.005585,310.042969 
	C331.545349,307.288666 331.829773,304.406311 331.843475,301.577148 
	C331.871613,295.765259 337.519501,291.882629 341.527802,295.708160 
	C343.984985,298.053284 343.459564,303.810211 343.689697,308.066589 
	C343.787262,309.871460 342.879883,312.433380 341.529999,313.416473 
	C340.177887,314.401123 337.704376,313.845917 335.279907,313.933044 
z"/>
<path fill="#FEFEFE" opacity="1.000000" stroke="none" 
	d="
M306.948059,307.120483 
	C306.966797,313.936249 306.656158,314.157562 300.870789,314.029877 
	C298.261780,313.972321 296.873260,313.295685 296.900146,310.386200 
	C296.925293,307.668640 297.493042,305.767578 300.702454,306.030792 
	C302.778198,306.201080 304.847229,306.453003 306.948059,307.120483 
z"/>
<path fill="#F5F5F5" opacity="1.000000" stroke="none" 
	d="
M223.729950,310.908417 
	C224.001083,302.422638 230.006302,307.507965 233.075317,305.836456 
	C233.504456,306.080322 233.933578,306.324188 234.362717,306.568024 
	C233.619629,308.982758 233.373688,313.049774 232.026031,313.455292 
	C229.512650,314.211548 225.387695,316.152130 223.729950,310.908417 
z"/>
<path fill="#F5F5F5" opacity="1.000000" stroke="none" 
	d="
M282.940948,172.532501 
	C282.931396,168.920578 283.072906,165.750320 282.899414,162.597382 
	C282.685333,158.706360 284.894012,157.694717 288.165131,157.708054 
	C291.439301,157.721405 294.776733,157.669266 294.807861,162.334518 
	C294.827850,165.330460 294.790375,168.327148 294.841431,171.322433 
	C294.889343,174.136932 294.080841,176.497269 290.884857,176.534103 
	C287.828857,176.569336 283.859039,177.993668 282.940948,172.532501 
z"/>
<path fill="#F5F5F5" opacity="1.000000" stroke="none" 
	d="
M361.875122,227.051483 
	C362.638062,232.428024 363.420868,237.634338 363.090698,242.769104 
	C363.029083,243.726852 358.499084,244.978607 356.034393,244.971695 
	C354.663971,244.967880 352.606659,242.869110 352.102570,241.311951 
	C351.418915,239.200073 351.923981,236.702347 351.924866,234.370132 
	C351.927856,226.342880 353.230988,225.322205 361.875122,227.051483 
z"/>
<path fill="#E7E7E7" opacity="1.000000" stroke="none" 
	d="
M206.602676,164.728149 
	C203.871582,164.734482 201.569763,164.734482 197.851959,164.734482 
	C198.813354,162.105087 199.165039,158.692520 200.374039,158.355499 
	C202.765015,157.688995 205.630066,158.723221 208.299118,159.054306 
	C207.876724,160.943481 207.454346,162.832642 206.602676,164.728149 
z"/>
<path fill="#F5F5F5" opacity="1.000000" stroke="none" 
	d="
M247.969040,233.168106 
	C246.233902,232.421387 244.969086,231.674683 243.704254,230.927979 
	C244.778656,229.411804 245.578125,226.959045 246.977036,226.548386 
	C251.930115,225.094437 253.991989,227.164398 253.722092,233.168121 
	C251.981979,233.168121 250.210678,233.168121 247.969040,233.168106 
z"/>
<path fill="#F8F8F8" opacity="1.000000" stroke="none" 
	d="
M387.037506,302.000519 
	C385.610199,301.142853 383.782623,300.164551 383.881104,299.452728 
	C384.087982,297.957733 384.984192,295.808929 386.166351,295.328491 
	C391.152069,293.302368 393.968994,295.733429 393.793365,302.000610 
	C391.711731,302.000610 389.610718,302.000610 387.037506,302.000519 
z"/>
</svg>