<?xml version="1.0" encoding="UTF-8"?>
<!DOCTYPE svg PUBLIC "-//W3C//DTD SVG 1.1//EN" "http://www.w3.org/Graphics/SVG/1.1/DTD/svg11.dtd">
<svg xmlns="http://www.w3.org/2000/svg" version="1.1" width="510px" height="378px" viewBox="0 0 1530 1134" style="shape-rendering:geometricPrecision; text-rendering:geometricPrecision; image-rendering:optimizeQuality; fill-rule:evenodd; clip-rule:evenodd" xmlns:xlink="http://www.w3.org/1999/xlink">
<g><path style="opacity:1" fill="#fefefe" d="M -0.5,-0.5 C 509.5,-0.5 1019.5,-0.5 1529.5,-0.5C 1529.5,377.5 1529.5,755.5 1529.5,1133.5C 1019.5,1133.5 509.5,1133.5 -0.5,1133.5C -0.5,755.5 -0.5,377.5 -0.5,-0.5 Z"/></g>
<g><path style="opacity:1" fill="#070707" d="M 1290.5,5.5 C 1294.98,4.35159 1299.65,4.18492 1304.5,5C 1308.46,10.4127 1312.29,15.9127 1316,21.5C 1319.5,16 1323,10.5 1326.5,5C 1331.17,4.33333 1335.83,4.33333 1340.5,5C 1334.82,13.3438 1329.15,21.6771 1323.5,30C 1329.25,38.824 1335.25,47.4906 1341.5,56C 1336.83,56.6667 1332.17,56.6667 1327.5,56C 1323.66,50.0063 1319.66,44.1729 1315.5,38.5C 1311.58,43.9964 1307.92,49.6631 1304.5,55.5C 1299.53,56.6623 1294.53,56.8289 1289.5,56C 1296.08,47.5107 1302.41,38.8441 1308.5,30C 1302.6,21.6769 1296.6,13.5102 1290.5,5.5 Z"/></g>
<g><path style="opacity:1" fill="#1f1f1f" d="M 1118.5,96.5 C 1251.17,96.3333 1383.83,96.5 1516.5,97C 1522,98.5 1525.5,102 1527,107.5C 1527.67,181.833 1527.67,256.167 1527,330.5C 1525.54,337.298 1521.37,341.464 1514.5,343C 1382.11,343.995 1249.78,343.661 1117.5,342C 1113.18,339.685 1110.35,336.185 1109,331.5C 1108.33,256.833 1108.33,182.167 1109,107.5C 1110.63,102.382 1113.79,98.7151 1118.5,96.5 Z"/></g>
<g><path style="opacity:1" fill="#fefefe" d="M 1118.5,99.5 C 1252.25,99.0034 1385.91,99.5034 1519.5,101C 1521.36,102.558 1522.86,104.391 1524,106.5C 1524.67,181.5 1524.67,256.5 1524,331.5C 1522.5,335.667 1519.67,338.5 1515.5,340C 1383.83,340.667 1252.17,340.667 1120.5,340C 1115.9,338.402 1113.07,335.235 1112,330.5C 1111.33,256.167 1111.33,181.833 1112,107.5C 1113.3,104.039 1115.47,101.372 1118.5,99.5 Z"/></g>
<g><path style="opacity:1" fill="#000000" d="M 225.5,397.5 C 229.167,397.5 232.833,397.5 236.5,397.5C 236.5,400.5 236.5,403.5 236.5,406.5C 232.833,406.5 229.167,406.5 225.5,406.5C 225.5,403.5 225.5,400.5 225.5,397.5 Z"/></g>
<g><path style="opacity:1" fill="#616161" d="M 128.5,398.5 C 128.5,415.5 128.5,432.5 128.5,449.5C 132.5,449.5 136.5,449.5 140.5,449.5C 136.366,450.485 132.032,450.818 127.5,450.5C 127.17,432.992 127.503,415.659 128.5,398.5 Z"/></g>
<g><path style="opacity:1" fill="#060606" d="M 128.5,398.5 C 138.839,398.334 149.172,398.5 159.5,399C 164.155,399.73 167.321,402.23 169,406.5C 169.667,412.167 169.667,417.833 169,423.5C 166.885,429.163 162.719,432.329 156.5,433C 151.177,433.499 145.844,433.666 140.5,433.5C 140.5,438.833 140.5,444.167 140.5,449.5C 136.5,449.5 132.5,449.5 128.5,449.5C 128.5,432.5 128.5,415.5 128.5,398.5 Z"/></g>
<g><path style="opacity:1" fill="#080808" d="M 298.5,400.5 C 302.5,400.5 306.5,400.5 310.5,400.5C 310.5,404.167 310.5,407.833 310.5,411.5C 313.833,411.5 317.167,411.5 320.5,411.5C 320.5,413.833 320.5,416.167 320.5,418.5C 317.167,418.5 313.833,418.5 310.5,418.5C 310.334,426.174 310.5,433.841 311,441.5C 313.826,443.34 316.993,444.006 320.5,443.5C 320.5,445.833 320.5,448.167 320.5,450.5C 315.489,450.666 310.489,450.499 305.5,450C 301.594,449.027 299.427,446.527 299,442.5C 298.5,434.507 298.334,426.507 298.5,418.5C 295.833,418.5 293.167,418.5 290.5,418.5C 290.5,416.167 290.5,413.833 290.5,411.5C 293.167,411.5 295.833,411.5 298.5,411.5C 298.5,407.833 298.5,404.167 298.5,400.5 Z"/></g>
<g><path style="opacity:1" fill="#f9f9f9" d="M 140.5,407.5 C 145.511,407.334 150.511,407.501 155.5,408C 156,408.5 156.5,409 157,409.5C 157.167,411.5 157.333,413.5 157.5,415.5C 157.709,418.454 157.042,421.121 155.5,423.5C 150.565,424.448 145.565,424.781 140.5,424.5C 140.5,418.833 140.5,413.167 140.5,407.5 Z"/></g>
<g><path style="opacity:1" fill="#464646" d="M 15.5,411.5 C 15.5,424.167 15.5,436.833 15.5,449.5C 19.1667,449.5 22.8333,449.5 26.5,449.5C 22.7016,450.483 18.7016,450.817 14.5,450.5C 14.1712,437.323 14.5045,424.323 15.5,411.5 Z"/></g>
<g><path style="opacity:1" fill="#030303" d="M 74.5,449.5 C 70.8333,449.5 67.1667,449.5 63.5,449.5C 63.8271,439.652 63.4938,429.986 62.5,420.5C 61.3932,418.069 59.3932,417.069 56.5,417.5C 54.3066,417.326 52.4733,417.993 51,419.5C 50.5002,429.494 50.3335,439.494 50.5,449.5C 46.8333,449.5 43.1667,449.5 39.5,449.5C 39.8271,439.652 39.4938,429.986 38.5,420.5C 38.5858,419.504 38.2524,418.671 37.5,418C 33.6831,416.977 30.1831,417.477 27,419.5C 26.5002,429.494 26.3335,439.494 26.5,449.5C 22.8333,449.5 19.1667,449.5 15.5,449.5C 15.5,436.833 15.5,424.167 15.5,411.5C 19.1667,411.5 22.8333,411.5 26.5,411.5C 26.3505,412.552 26.5172,413.552 27,414.5C 31.4794,410.757 36.6461,409.591 42.5,411C 45.5478,411.606 48.0478,413.106 50,415.5C 54.4908,410.741 59.9908,409.241 66.5,411C 70.0202,411.504 72.5202,413.337 74,416.5C 74.4998,427.495 74.6665,438.495 74.5,449.5 Z"/></g>
<g><path style="opacity:1" fill="#070707" d="M 80.5,412.5 C 84.6344,411.515 88.9677,411.182 93.5,411.5C 96.0449,420.633 98.8782,429.633 102,438.5C 103.994,429.686 106.494,421.019 109.5,412.5C 113.459,411.34 117.459,411.173 121.5,412C 114.276,429.671 107.442,447.505 101,465.5C 97.27,466.46 93.4367,466.793 89.5,466.5C 91.2036,460.753 93.2036,455.086 95.5,449.5C 90.7262,436.969 85.7262,424.636 80.5,412.5 Z"/></g>
<g><path style="opacity:1" fill="#080808" d="M 187.5,410.5 C 212.194,407.488 221.361,418.155 215,442.5C 213.108,446.058 210.275,448.558 206.5,450C 180.849,455.347 171.015,445.18 177,419.5C 179.505,415.189 183.005,412.189 187.5,410.5 Z"/></g>
<g><path style="opacity:1" fill="#afafaf" d="M 225.5,411.5 C 225.5,424.167 225.5,436.833 225.5,449.5C 229.167,449.5 232.833,449.5 236.5,449.5C 236.5,436.833 236.5,424.167 236.5,411.5C 237.495,424.323 237.829,437.323 237.5,450.5C 233.167,450.5 228.833,450.5 224.5,450.5C 224.171,437.323 224.505,424.323 225.5,411.5 Z"/></g>
<g><path style="opacity:1" fill="#000000" d="M 225.5,411.5 C 229.167,411.5 232.833,411.5 236.5,411.5C 236.5,424.167 236.5,436.833 236.5,449.5C 232.833,449.5 229.167,449.5 225.5,449.5C 225.5,436.833 225.5,424.167 225.5,411.5 Z"/></g>
<g><path style="opacity:1" fill="#030303" d="M 284.5,449.5 C 280.833,449.5 277.167,449.5 273.5,449.5C 273.827,439.652 273.494,429.986 272.5,420.5C 269.796,417.697 266.463,416.863 262.5,418C 261.058,418.377 260.058,419.21 259.5,420.5C 258.506,429.986 258.173,439.652 258.5,449.5C 254.833,449.5 251.167,449.5 247.5,449.5C 247.5,436.833 247.5,424.167 247.5,411.5C 251.167,411.5 254.833,411.5 258.5,411.5C 258.343,412.873 258.51,414.207 259,415.5C 264.269,410.755 270.436,409.255 277.5,411C 280.583,411.786 282.749,413.619 284,416.5C 284.5,427.495 284.667,438.495 284.5,449.5 Z"/></g>
<g><path style="opacity:1" fill="#050505" d="M 362.5,420.5 C 362.5,424.833 362.5,429.167 362.5,433.5C 354.167,433.5 345.833,433.5 337.5,433.5C 337.205,435.735 337.539,437.735 338.5,439.5C 338.944,441.113 339.944,442.28 341.5,443C 348.195,443.665 354.862,443.498 361.5,442.5C 361.5,444.833 361.5,447.167 361.5,449.5C 353.194,450.538 344.861,450.705 336.5,450C 327.432,446.871 324.099,440.538 326.5,431C 326.667,427.167 326.833,423.333 327,419.5C 328.167,415.667 330.667,413.167 334.5,412C 342.287,409.779 349.954,410.112 357.5,413C 360.2,414.857 361.866,417.357 362.5,420.5 Z"/></g>
<g><path style="opacity:1" fill="#9e9e9e" d="M 372.5,411.5 C 372.5,424.167 372.5,436.833 372.5,449.5C 376.167,449.5 379.833,449.5 383.5,449.5C 383.174,440.983 383.507,432.65 384.5,424.5C 384.5,433.167 384.5,441.833 384.5,450.5C 380.167,450.5 375.833,450.5 371.5,450.5C 371.171,437.323 371.505,424.323 372.5,411.5 Z"/></g>
<g><path style="opacity:1" fill="#040404" d="M 384.5,424.5 C 383.507,432.65 383.174,440.983 383.5,449.5C 379.833,449.5 376.167,449.5 372.5,449.5C 372.5,436.833 372.5,424.167 372.5,411.5C 376.167,411.5 379.833,411.5 383.5,411.5C 383.343,412.873 383.51,414.207 384,415.5C 387.6,411.452 392.1,409.785 397.5,410.5C 397.5,413.833 397.5,417.167 397.5,420.5C 394.15,420.335 390.817,420.502 387.5,421C 385.574,421.422 384.574,422.589 384.5,424.5 Z"/></g>
<g><path style="opacity:1" fill="#f5f5f5" d="M 191.5,417.5 C 194.518,417.335 197.518,417.502 200.5,418C 202.333,418.5 203.5,419.667 204,421.5C 204.667,427.833 204.667,434.167 204,440.5C 203.5,441.667 202.667,442.5 201.5,443C 197.833,443.667 194.167,443.667 190.5,443C 190,442.5 189.5,442 189,441.5C 188.169,434.144 188.335,426.811 189.5,419.5C 190.522,419.145 191.189,418.478 191.5,417.5 Z"/></g>
<g><path style="opacity:1" fill="#f5f5f5" d="M 351.5,420.5 C 351.5,422.5 351.5,424.5 351.5,426.5C 347.167,426.5 342.833,426.5 338.5,426.5C 338.5,424.5 338.5,422.5 338.5,420.5C 340.166,418.172 342.499,417.172 345.5,417.5C 348.308,417.078 350.308,418.078 351.5,420.5 Z"/></g>
<g><path style="opacity:1" fill="#606060" d="M 62.5,420.5 C 63.4938,429.986 63.8271,439.652 63.5,449.5C 67.1667,449.5 70.8333,449.5 74.5,449.5C 70.7016,450.483 66.7016,450.817 62.5,450.5C 62.5,440.5 62.5,430.5 62.5,420.5 Z"/></g>
<g><path style="opacity:1" fill="#797979" d="M 272.5,420.5 C 273.494,429.986 273.827,439.652 273.5,449.5C 277.167,449.5 280.833,449.5 284.5,449.5C 280.702,450.483 276.702,450.817 272.5,450.5C 272.5,440.5 272.5,430.5 272.5,420.5 Z"/></g>
<g><path style="opacity:1" fill="#606060" d="M 38.5,420.5 C 39.4938,429.986 39.8271,439.652 39.5,449.5C 43.1667,449.5 46.8333,449.5 50.5,449.5C 46.7016,450.483 42.7016,450.817 38.5,450.5C 38.5,440.5 38.5,430.5 38.5,420.5 Z"/></g>
<g><path style="opacity:1" fill="#787878" d="M 259.5,420.5 C 259.5,430.5 259.5,440.5 259.5,450.5C 255.298,450.817 251.298,450.483 247.5,449.5C 251.167,449.5 254.833,449.5 258.5,449.5C 258.173,439.652 258.506,429.986 259.5,420.5 Z"/></g>
<g><path style="opacity:1" fill="#b4b4b4" d="M 338.5,420.5 C 338.5,422.5 338.5,424.5 338.5,426.5C 342.833,426.5 347.167,426.5 351.5,426.5C 351.5,424.5 351.5,422.5 351.5,420.5C 352.468,422.607 352.802,424.941 352.5,427.5C 347.5,427.5 342.5,427.5 337.5,427.5C 337.198,424.941 337.532,422.607 338.5,420.5 Z"/></g>
<g><path style="opacity:1" fill="#777777" d="M 362.5,420.5 C 363.486,424.97 363.819,429.637 363.5,434.5C 355.167,434.5 346.833,434.5 338.5,434.5C 338.5,436.167 338.5,437.833 338.5,439.5C 337.539,437.735 337.205,435.735 337.5,433.5C 345.833,433.5 354.167,433.5 362.5,433.5C 362.5,429.167 362.5,424.833 362.5,420.5 Z"/></g>
<g><path style="opacity:1" fill="#161616" d="M 1107.5,1004.5 C 1107.56,1005.04 1107.89,1005.38 1108.5,1005.5C 1109.5,968.173 1109.83,930.839 1109.5,893.5C 1111.26,888.575 1114.59,885.075 1119.5,883C 1251.5,882.333 1383.5,882.333 1515.5,883C 1520.91,884.743 1524.74,888.243 1527,893.5C 1527.67,968.167 1527.67,1042.83 1527,1117.5C 1525.26,1122.91 1521.76,1126.74 1516.5,1129C 1384.5,1129.67 1252.5,1129.67 1120.5,1129C 1114.22,1127.06 1110.39,1122.89 1109,1116.5C 1108.5,1080.5 1108.33,1044.5 1108.5,1008.5C 1036.16,999.61 963.824,990.61 891.5,981.5C 900.667,967.833 909.833,954.167 919,940.5C 919.617,939.551 919.451,938.718 918.5,938C 758.242,846.066 598.242,753.733 438.5,661C 433.048,657.607 427.381,654.774 421.5,652.5C 421.667,676.169 421.5,699.836 421,723.5C 419.594,728.573 416.428,732.073 411.5,734C 278.111,734.995 144.778,734.661 11.5,733C 7.5095,731.01 5.0095,727.843 4,723.5C 3.33333,648.5 3.33333,573.5 4,498.5C 6.552,494.281 10.052,491.114 14.5,489C 146.167,488.333 277.833,488.333 409.5,489C 414.91,490.743 418.744,494.243 421,499.5C 421.333,522.167 421.667,544.833 422,567.5C 601.17,671.419 780.503,775.086 960,878.5C 969.086,864.66 978.419,850.993 988,837.5C 1027.84,893.196 1067.68,948.863 1107.5,1004.5 Z"/></g>
<g><path style="opacity:1" fill="#fefefe" d="M 14.5,491.5 C 146.5,491.333 278.5,491.5 410.5,492C 414.388,494.222 417.221,497.388 419,501.5C 419.333,524.167 419.667,546.833 420,569.5C 600.333,673.833 780.667,778.167 961,882.5C 969.608,868.894 978.608,855.56 988,842.5C 1026.5,896.167 1065,949.833 1103.5,1003.5C 1102.17,1003.83 1100.83,1004.17 1099.5,1004.5C 1031.84,996.085 964.177,987.751 896.5,979.5C 905.085,965.995 913.918,952.662 923,939.5C 923.089,937.887 922.255,936.72 920.5,936C 753.67,840.086 587.003,743.919 420.5,647.5C 419.667,672.16 419.167,696.827 419,721.5C 417.885,726.245 415.052,729.412 410.5,731C 278.167,731.667 145.833,731.667 13.5,731C 9.5095,729.01 7.0095,725.843 6,721.5C 5.33333,648.167 5.33333,574.833 6,501.5C 7,499.5 8,497.5 9,495.5C 11.0153,494.303 12.8487,492.97 14.5,491.5 Z"/></g>
<g><path style="opacity:1" fill="#070707" d="M 1295.5,805.5 C 1299.77,805.203 1303.93,805.536 1308,806.5C 1310.66,814.489 1313.33,822.489 1316,830.5C 1319.05,822.681 1321.72,814.681 1324,806.5C 1327.73,805.54 1331.56,805.207 1335.5,805.5C 1328.84,823.822 1322.17,842.156 1315.5,860.5C 1311.45,860.824 1307.45,860.491 1303.5,859.5C 1305.74,854.257 1308.08,849.09 1310.5,844C 1305.59,831.103 1300.59,818.27 1295.5,805.5 Z"/></g>
<g><path style="opacity:1" fill="#fefefe" d="M 1119.5,885.5 C 1251.5,885.333 1383.5,885.5 1515.5,886C 1519.9,886.73 1522.73,889.23 1524,893.5C 1524.99,969.224 1524.66,1044.89 1523,1120.5C 1521.34,1122.92 1519.17,1124.75 1516.5,1126C 1384.17,1126.67 1251.83,1126.67 1119.5,1126C 1115.5,1124.51 1113,1121.68 1112,1117.5C 1111.33,1042.83 1111.33,968.167 1112,893.5C 1113.69,889.979 1116.19,887.312 1119.5,885.5 Z"/></g>
<g><path style="opacity:1" fill="#616161" d="M 1109.5,893.5 C 1109.83,930.839 1109.5,968.173 1108.5,1005.5C 1107.89,1005.38 1107.56,1005.04 1107.5,1004.5C 1108.17,967.5 1108.83,930.5 1109.5,893.5 Z"/></g>
</svg>
