<svg width="981" height="248" viewBox="0 0 981 248" fill="none" xmlns="http://www.w3.org/2000/svg">
<rect y="207.067" width="981" height="40.875" fill="#C4C4C4"/>
<rect x="0.5" y="207.567" width="39.875" height="39.875" fill="#C4C4C4" stroke="#464646"/>
<rect x="245.75" y="207.567" width="39.875" height="39.875" fill="#C4C4C4" stroke="#464646"/>
<rect x="41.3751" y="207.567" width="39.875" height="39.875" fill="#C4C4C4" stroke="#464646"/>
<rect x="82.25" y="207.567" width="39.875" height="39.875" fill="#C4C4C4" stroke="#464646"/>
<rect x="123.125" y="207.567" width="39.875" height="39.875" fill="#C4C4C4" stroke="#464646"/>
<rect x="164" y="207.567" width="39.875" height="39.875" fill="#C4C4C4" stroke="#464646"/>
<rect x="204.875" y="207.567" width="39.875" height="39.875" fill="#C4C4C4" stroke="#464646"/>
<rect x="245.75" y="207.567" width="39.875" height="39.875" fill="#C4C4C4" stroke="#464646"/>
<rect x="286.625" y="207.567" width="39.875" height="39.875" fill="#C4C4C4" stroke="#464646"/>
<rect x="327.5" y="207.567" width="39.875" height="39.875" fill="#C4C4C4" stroke="#464646"/>
<rect x="368.375" y="207.567" width="39.875" height="39.875" fill="#C4C4C4" stroke="#464646"/>
<rect x="409.25" y="207.567" width="39.875" height="39.875" fill="#C4C4C4" stroke="#464646"/>
<rect x="450.125" y="207.567" width="39.875" height="39.875" fill="#C4C4C4" stroke="#464646"/>
<rect x="491" y="207.567" width="39.875" height="39.875" fill="#C4C4C4" stroke="#464646"/>
<rect x="531.875" y="207.567" width="39.875" height="39.875" fill="#C4C4C4" stroke="#464646"/>
<rect x="572.75" y="207.567" width="39.875" height="39.875" fill="#C4C4C4" stroke="#464646"/>
<rect x="613.625" y="207.567" width="39.875" height="39.875" fill="#C4C4C4" stroke="#464646"/>
<rect x="818" y="207.567" width="39.875" height="39.875" fill="#C4C4C4" stroke="#464646"/>
<rect x="654.5" y="207.567" width="39.875" height="39.875" fill="#C4C4C4" stroke="#464646"/>
<rect x="695.375" y="207.567" width="39.875" height="39.875" fill="#C4C4C4" stroke="#464646"/>
<rect x="899.75" y="207.567" width="39.875" height="39.875" fill="#C4C4C4" stroke="#464646"/>
<rect x="736.25" y="207.567" width="39.875" height="39.875" fill="#C4C4C4" stroke="#464646"/>
<rect x="777.125" y="207.567" width="39.875" height="39.875" fill="#C4C4C4" stroke="#464646"/>
<rect x="818" y="207.567" width="39.875" height="39.875" fill="#C4C4C4" stroke="#464646"/>
<rect x="858.875" y="207.567" width="39.875" height="39.875" fill="#C4C4C4" stroke="#464646"/>
<rect x="899.75" y="207.567" width="39.875" height="39.875" fill="#C4C4C4" stroke="#464646"/>
<rect x="940.625" y="207.567" width="39.875" height="39.875" fill="#C4C4C4" stroke="#464646"/>
<path d="M22.8026 221.877V239.332H20.6889V224.093H20.5866L16.3253 226.923V224.775L20.6889 221.877H22.8026Z" fill="#464646"/>
<path d="M55.8536 239.332V237.798L61.615 231.491C62.2911 230.752 62.8479 230.11 63.2854 229.565C63.7229 229.014 64.0468 228.497 64.257 228.014C64.4729 227.525 64.5809 227.014 64.5809 226.48C64.5809 225.866 64.4332 225.335 64.1377 224.886C63.8479 224.437 63.4502 224.091 62.9445 223.846C62.4389 223.602 61.8707 223.48 61.24 223.48C60.5695 223.48 59.9843 223.619 59.4843 223.897C58.99 224.17 58.6065 224.554 58.3337 225.048C58.0667 225.542 57.9332 226.122 57.9332 226.787H55.9218C55.9218 225.764 56.1576 224.866 56.6292 224.093C57.1008 223.321 57.7428 222.718 58.5553 222.287C59.3735 221.855 60.2911 221.639 61.3082 221.639C62.3309 221.639 63.2372 221.855 64.0269 222.287C64.8167 222.718 65.436 223.301 65.8849 224.034C66.3337 224.767 66.5582 225.582 66.5582 226.48C66.5582 227.122 66.4417 227.75 66.2087 228.363C65.9815 228.971 65.5837 229.65 65.0156 230.4C64.4531 231.145 63.6718 232.054 62.6718 233.127L58.7514 237.321V237.457H66.865V239.332H55.8536Z" fill="#464646"/>
<path d="M306.566 239.571C305.395 239.571 304.361 239.363 303.463 238.949C302.571 238.528 301.875 237.951 301.375 237.218C300.875 236.48 300.628 235.639 300.634 234.696C300.628 233.957 300.773 233.275 301.068 232.65C301.364 232.02 301.767 231.494 302.279 231.074C302.796 230.647 303.372 230.377 304.009 230.264V230.162C303.174 229.946 302.509 229.477 302.014 228.755C301.52 228.028 301.276 227.201 301.282 226.275C301.276 225.389 301.5 224.596 301.955 223.897C302.409 223.199 303.034 222.647 303.83 222.244C304.631 221.841 305.543 221.639 306.566 221.639C307.577 221.639 308.48 221.841 309.276 222.244C310.071 222.647 310.696 223.199 311.151 223.897C311.611 224.596 311.844 225.389 311.85 226.275C311.844 227.201 311.591 228.028 311.091 228.755C310.597 229.477 309.941 229.946 309.122 230.162V230.264C309.753 230.377 310.321 230.647 310.827 231.074C311.333 231.494 311.736 232.02 312.037 232.65C312.338 233.275 312.492 233.957 312.497 234.696C312.492 235.639 312.236 236.48 311.73 237.218C311.23 237.951 310.534 238.528 309.642 238.949C308.756 239.363 307.73 239.571 306.566 239.571ZM306.566 237.696C307.355 237.696 308.037 237.568 308.611 237.312C309.185 237.056 309.628 236.696 309.941 236.23C310.253 235.764 310.412 235.218 310.418 234.593C310.412 233.934 310.242 233.352 309.907 232.846C309.571 232.341 309.114 231.943 308.534 231.653C307.961 231.363 307.304 231.218 306.566 231.218C305.821 231.218 305.157 231.363 304.571 231.653C303.992 231.943 303.534 232.341 303.199 232.846C302.87 233.352 302.708 233.934 302.713 234.593C302.708 235.218 302.858 235.764 303.165 236.23C303.478 236.696 303.924 237.056 304.503 237.312C305.083 237.568 305.77 237.696 306.566 237.696ZM306.566 229.412C307.191 229.412 307.745 229.287 308.228 229.037C308.716 228.787 309.1 228.437 309.378 227.988C309.657 227.539 309.799 227.014 309.804 226.412C309.799 225.821 309.659 225.306 309.387 224.869C309.114 224.426 308.736 224.085 308.253 223.846C307.77 223.602 307.208 223.48 306.566 223.48C305.912 223.48 305.341 223.602 304.853 223.846C304.364 224.085 303.986 224.426 303.719 224.869C303.452 225.306 303.321 225.821 303.327 226.412C303.321 227.014 303.455 227.539 303.728 227.988C304.006 228.437 304.389 228.787 304.878 229.037C305.367 229.287 305.929 229.412 306.566 229.412Z" fill="#464646"/>
<path d="M587.752 221.877V239.332H585.638V224.093H585.536L581.275 226.923V224.775L585.638 221.877H587.752ZM598.226 239.571C597.226 239.571 596.326 239.372 595.525 238.974C594.723 238.576 594.081 238.031 593.598 237.338C593.115 236.645 592.851 235.855 592.806 234.968H594.851C594.931 235.758 595.289 236.412 595.925 236.929C596.567 237.44 597.334 237.696 598.226 237.696C598.942 237.696 599.578 237.528 600.135 237.193C600.698 236.858 601.138 236.397 601.456 235.812C601.78 235.221 601.942 234.554 601.942 233.809C601.942 233.048 601.775 232.369 601.439 231.772C601.11 231.17 600.655 230.696 600.076 230.349C599.496 230.002 598.834 229.826 598.09 229.821C597.556 229.815 597.007 229.897 596.445 230.068C595.882 230.233 595.419 230.446 595.056 230.707L593.078 230.468L594.135 221.877H603.203V223.752H595.908L595.294 228.9H595.397C595.755 228.616 596.203 228.38 596.743 228.193C597.283 228.005 597.846 227.912 598.431 227.912C599.499 227.912 600.451 228.167 601.286 228.679C602.127 229.184 602.786 229.877 603.263 230.758C603.746 231.639 603.988 232.645 603.988 233.775C603.988 234.889 603.738 235.883 603.238 236.758C602.743 237.627 602.061 238.315 601.192 238.821C600.323 239.321 599.334 239.571 598.226 239.571Z" fill="#464646"/>
<path d="M784.104 239.332V237.798L789.865 231.491C790.541 230.752 791.098 230.11 791.536 229.565C791.973 229.014 792.297 228.497 792.507 228.014C792.723 227.525 792.831 227.014 792.831 226.48C792.831 225.866 792.683 225.335 792.388 224.886C792.098 224.437 791.7 224.091 791.195 223.846C790.689 223.602 790.121 223.48 789.49 223.48C788.82 223.48 788.234 223.619 787.734 223.897C787.24 224.17 786.857 224.554 786.584 225.048C786.317 225.542 786.183 226.122 786.183 226.787H784.172C784.172 225.764 784.408 224.866 784.879 224.093C785.351 223.321 785.993 222.718 786.805 222.287C787.624 221.855 788.541 221.639 789.558 221.639C790.581 221.639 791.487 221.855 792.277 222.287C793.067 222.718 793.686 223.301 794.135 224.034C794.584 224.767 794.808 225.582 794.808 226.48C794.808 227.122 794.692 227.75 794.459 228.363C794.232 228.971 793.834 229.65 793.266 230.4C792.703 231.145 791.922 232.054 790.922 233.127L787.001 237.321V237.457H795.115V239.332H784.104ZM804.328 239.571C803.044 239.571 801.95 239.221 801.047 238.522C800.143 237.818 799.453 236.798 798.976 235.463C798.499 234.122 798.26 232.502 798.26 230.605C798.26 228.718 798.499 227.108 798.976 225.772C799.459 224.431 800.152 223.409 801.055 222.704C801.964 221.994 803.055 221.639 804.328 221.639C805.601 221.639 806.689 221.994 807.592 222.704C808.501 223.409 809.195 224.431 809.672 225.772C810.155 227.108 810.396 228.718 810.396 230.605C810.396 232.502 810.158 234.122 809.68 235.463C809.203 236.798 808.513 237.818 807.609 238.522C806.706 239.221 805.612 239.571 804.328 239.571ZM804.328 237.696C805.601 237.696 806.589 237.082 807.294 235.855C807.999 234.627 808.351 232.877 808.351 230.605C808.351 229.093 808.189 227.806 807.865 226.744C807.547 225.681 807.087 224.872 806.484 224.315C805.888 223.758 805.169 223.48 804.328 223.48C803.067 223.48 802.081 224.102 801.371 225.346C800.661 226.585 800.305 228.338 800.305 230.605C800.305 232.116 800.464 233.4 800.783 234.457C801.101 235.514 801.558 236.318 802.155 236.869C802.757 237.42 803.482 237.696 804.328 237.696Z" fill="#464646"/>
<path d="M826.901 239.332V237.798L832.662 231.491C833.338 230.752 833.895 230.11 834.333 229.565C834.77 229.014 835.094 228.497 835.304 228.014C835.52 227.525 835.628 227.014 835.628 226.48C835.628 225.866 835.48 225.335 835.185 224.886C834.895 224.437 834.497 224.091 833.992 223.846C833.486 223.602 832.918 223.48 832.287 223.48C831.617 223.48 831.031 223.619 830.531 223.897C830.037 224.17 829.654 224.554 829.381 225.048C829.114 225.542 828.98 226.122 828.98 226.787H826.969C826.969 225.764 827.205 224.866 827.676 224.093C828.148 223.321 828.79 222.718 829.602 222.287C830.421 221.855 831.338 221.639 832.355 221.639C833.378 221.639 834.284 221.855 835.074 222.287C835.864 222.718 836.483 223.301 836.932 224.034C837.381 224.767 837.605 225.582 837.605 226.48C837.605 227.122 837.489 227.75 837.256 228.363C837.029 228.971 836.631 229.65 836.063 230.4C835.5 231.145 834.719 232.054 833.719 233.127L829.798 237.321V237.457H837.912V239.332H826.901ZM847.568 221.877V239.332H845.455V224.093H845.352L841.091 226.923V224.775L845.455 221.877H847.568Z" fill="#464646"/>
<path d="M102.251 239.571C101.126 239.571 100.124 239.377 99.2428 238.991C98.3678 238.605 97.6718 238.068 97.1548 237.38C96.6434 236.687 96.365 235.883 96.3195 234.968H98.4673C98.5127 235.531 98.7059 236.017 99.0468 236.426C99.3877 236.829 99.8337 237.142 100.385 237.363C100.936 237.585 101.547 237.696 102.217 237.696C102.967 237.696 103.632 237.565 104.212 237.304C104.791 237.042 105.246 236.679 105.575 236.213C105.905 235.747 106.07 235.207 106.07 234.593C106.07 233.951 105.91 233.386 105.592 232.897C105.274 232.403 104.808 232.017 104.195 231.738C103.581 231.46 102.831 231.321 101.945 231.321H100.547V229.446H101.945C102.638 229.446 103.246 229.321 103.768 229.071C104.297 228.821 104.709 228.468 105.004 228.014C105.305 227.559 105.456 227.025 105.456 226.412C105.456 225.821 105.325 225.306 105.064 224.869C104.802 224.431 104.433 224.091 103.956 223.846C103.484 223.602 102.927 223.48 102.285 223.48C101.683 223.48 101.115 223.591 100.581 223.812C100.052 224.028 99.6207 224.343 99.2854 224.758C98.9502 225.167 98.7684 225.662 98.74 226.241H96.6945C96.7286 225.326 97.0042 224.525 97.5212 223.838C98.0383 223.145 98.7144 222.605 99.5497 222.218C100.391 221.832 101.314 221.639 102.32 221.639C103.399 221.639 104.325 221.858 105.098 222.295C105.871 222.727 106.464 223.298 106.879 224.008C107.294 224.718 107.501 225.485 107.501 226.309C107.501 227.292 107.243 228.13 106.726 228.824C106.214 229.517 105.518 229.997 104.638 230.264V230.4C105.74 230.582 106.601 231.051 107.22 231.806C107.839 232.556 108.149 233.485 108.149 234.593C108.149 235.542 107.891 236.395 107.374 237.15C106.862 237.9 106.163 238.491 105.277 238.923C104.391 239.355 103.382 239.571 102.251 239.571Z" fill="#464646"/>
<path d="M347.313 221.639C348.029 221.645 348.745 221.781 349.461 222.048C350.177 222.315 350.83 222.758 351.421 223.377C352.012 223.991 352.486 224.829 352.844 225.892C353.202 226.954 353.381 228.287 353.381 229.889C353.381 231.44 353.234 232.818 352.938 234.022C352.648 235.221 352.228 236.233 351.677 237.056C351.131 237.88 350.466 238.505 349.682 238.931C348.904 239.358 348.023 239.571 347.04 239.571C346.063 239.571 345.191 239.377 344.424 238.991C343.662 238.599 343.037 238.056 342.549 237.363C342.066 236.664 341.756 235.855 341.62 234.934H343.699C343.887 235.735 344.259 236.397 344.816 236.92C345.378 237.437 346.12 237.696 347.04 237.696C348.387 237.696 349.449 237.108 350.228 235.931C351.012 234.755 351.404 233.093 351.404 230.946H351.268C350.949 231.423 350.572 231.835 350.134 232.181C349.697 232.528 349.211 232.795 348.677 232.983C348.143 233.17 347.574 233.264 346.972 233.264C345.972 233.264 345.055 233.017 344.219 232.522C343.39 232.022 342.725 231.338 342.225 230.468C341.731 229.593 341.484 228.593 341.484 227.468C341.484 226.4 341.722 225.423 342.199 224.537C342.682 223.645 343.359 222.934 344.228 222.406C345.103 221.877 346.131 221.622 347.313 221.639ZM347.313 223.514C346.597 223.514 345.952 223.693 345.378 224.051C344.81 224.403 344.359 224.88 344.023 225.483C343.694 226.079 343.529 226.741 343.529 227.468C343.529 228.196 343.688 228.858 344.006 229.454C344.33 230.045 344.77 230.517 345.327 230.869C345.89 231.216 346.529 231.389 347.245 231.389C347.785 231.389 348.287 231.284 348.753 231.074C349.219 230.858 349.626 230.565 349.972 230.196C350.324 229.821 350.6 229.397 350.799 228.926C350.998 228.449 351.097 227.951 351.097 227.434C351.097 226.752 350.932 226.113 350.603 225.517C350.279 224.92 349.83 224.437 349.256 224.068C348.688 223.699 348.04 223.514 347.313 223.514Z" fill="#464646"/>
<path d="M628.439 221.877V239.332H626.326V224.093H626.223L621.962 226.923V224.775L626.326 221.877H628.439ZM639.255 239.571C638.539 239.559 637.823 239.423 637.107 239.162C636.391 238.9 635.738 238.46 635.147 237.841C634.556 237.216 634.081 236.372 633.723 235.309C633.365 234.241 633.186 232.9 633.186 231.287C633.186 229.741 633.331 228.372 633.621 227.179C633.911 225.98 634.331 224.971 634.883 224.153C635.434 223.329 636.098 222.704 636.877 222.278C637.661 221.852 638.544 221.639 639.527 221.639C640.505 221.639 641.374 221.835 642.135 222.227C642.902 222.613 643.527 223.153 644.01 223.846C644.493 224.539 644.806 225.338 644.948 226.241H642.868C642.675 225.457 642.3 224.806 641.743 224.289C641.186 223.772 640.448 223.514 639.527 223.514C638.175 223.514 637.11 224.102 636.331 225.278C635.559 226.454 635.169 228.105 635.164 230.23H635.3C635.618 229.747 635.996 229.335 636.434 228.994C636.877 228.647 637.365 228.38 637.9 228.193C638.434 228.005 638.999 227.912 639.596 227.912C640.596 227.912 641.51 228.162 642.34 228.662C643.169 229.156 643.834 229.841 644.334 230.716C644.834 231.585 645.084 232.582 645.084 233.707C645.084 234.787 644.843 235.775 644.36 236.673C643.877 237.565 643.198 238.275 642.323 238.804C641.454 239.326 640.431 239.582 639.255 239.571ZM639.255 237.696C639.971 237.696 640.613 237.517 641.181 237.159C641.755 236.801 642.206 236.321 642.536 235.718C642.871 235.116 643.039 234.446 643.039 233.707C643.039 232.985 642.877 232.329 642.553 231.738C642.235 231.142 641.794 230.667 641.232 230.315C640.675 229.963 640.039 229.787 639.323 229.787C638.783 229.787 638.28 229.895 637.814 230.11C637.348 230.321 636.939 230.61 636.587 230.98C636.24 231.349 635.968 231.772 635.769 232.25C635.57 232.721 635.471 233.218 635.471 233.741C635.471 234.434 635.633 235.082 635.956 235.684C636.286 236.287 636.735 236.772 637.303 237.142C637.877 237.511 638.527 237.696 639.255 237.696Z" fill="#464646"/>
<path d="M136.761 235.752V234.014L144.431 221.877H145.693V224.571H144.841L139.045 233.741V233.877H149.375V235.752H136.761ZM144.977 239.332V235.224V234.414V221.877H146.988V239.332H144.977Z" fill="#464646"/>
<path d="M383.177 221.877V239.332H381.064V224.093H380.962L376.7 226.923V224.775L381.064 221.877H383.177ZM393.891 239.571C392.606 239.571 391.513 239.221 390.609 238.522C389.706 237.818 389.016 236.798 388.538 235.463C388.061 234.122 387.822 232.502 387.822 230.605C387.822 228.718 388.061 227.108 388.538 225.772C389.021 224.431 389.714 223.409 390.618 222.704C391.527 221.994 392.618 221.639 393.891 221.639C395.163 221.639 396.251 221.994 397.155 222.704C398.064 223.409 398.757 224.431 399.234 225.772C399.717 227.108 399.959 228.718 399.959 230.605C399.959 232.502 399.72 234.122 399.243 235.463C398.766 236.798 398.075 237.818 397.172 238.522C396.268 239.221 395.175 239.571 393.891 239.571ZM393.891 237.696C395.163 237.696 396.152 237.082 396.856 235.855C397.561 234.627 397.913 232.877 397.913 230.605C397.913 229.093 397.751 227.806 397.427 226.744C397.109 225.681 396.649 224.872 396.047 224.315C395.45 223.758 394.731 223.48 393.891 223.48C392.629 223.48 391.643 224.102 390.933 225.346C390.223 226.585 389.868 228.338 389.868 230.605C389.868 232.116 390.027 233.4 390.345 234.457C390.663 235.514 391.121 236.318 391.717 236.869C392.32 237.42 393.044 237.696 393.891 237.696Z" fill="#464646"/>
<path d="M669.947 221.877V239.332H667.833V224.093H667.731L663.47 226.923V224.775L667.833 221.877H669.947ZM675.512 239.332L683.319 223.889V223.752H674.319V221.877H685.501V223.855L677.728 239.332H675.512Z" fill="#464646"/>
<path d="M866.088 239.332V237.798L871.849 231.491C872.526 230.752 873.082 230.11 873.52 229.565C873.957 229.014 874.281 228.497 874.491 228.014C874.707 227.525 874.815 227.014 874.815 226.48C874.815 225.866 874.668 225.335 874.372 224.886C874.082 224.437 873.685 224.091 873.179 223.846C872.673 223.602 872.105 223.48 871.474 223.48C870.804 223.48 870.219 223.619 869.719 223.897C869.224 224.17 868.841 224.554 868.568 225.048C868.301 225.542 868.168 226.122 868.168 226.787H866.156C866.156 225.764 866.392 224.866 866.864 224.093C867.335 223.321 867.977 222.718 868.79 222.287C869.608 221.855 870.526 221.639 871.543 221.639C872.565 221.639 873.472 221.855 874.261 222.287C875.051 222.718 875.67 223.301 876.119 224.034C876.568 224.767 876.793 225.582 876.793 226.48C876.793 227.122 876.676 227.75 876.443 228.363C876.216 228.971 875.818 229.65 875.25 230.4C874.687 231.145 873.906 232.054 872.906 233.127L868.986 237.321V237.457H877.099V239.332H866.088ZM880.619 239.332V237.798L886.381 231.491C887.057 230.752 887.614 230.11 888.051 229.565C888.489 229.014 888.812 228.497 889.023 228.014C889.239 227.525 889.347 227.014 889.347 226.48C889.347 225.866 889.199 225.335 888.903 224.886C888.614 224.437 888.216 224.091 887.71 223.846C887.204 223.602 886.636 223.48 886.006 223.48C885.335 223.48 884.75 223.619 884.25 223.897C883.756 224.17 883.372 224.554 883.099 225.048C882.832 225.542 882.699 226.122 882.699 226.787H880.687C880.687 225.764 880.923 224.866 881.395 224.093C881.866 223.321 882.508 222.718 883.321 222.287C884.139 221.855 885.057 221.639 886.074 221.639C887.097 221.639 888.003 221.855 888.793 222.287C889.582 222.718 890.202 223.301 890.651 224.034C891.099 224.767 891.324 225.582 891.324 226.48C891.324 227.122 891.207 227.75 890.974 228.363C890.747 228.971 890.349 229.65 889.781 230.4C889.219 231.145 888.437 232.054 887.437 233.127L883.517 237.321V237.457H891.631V239.332H880.619Z" fill="#464646"/>
<path d="M906.588 239.332V237.798L912.349 231.491C913.025 230.752 913.582 230.11 914.02 229.565C914.457 229.014 914.781 228.497 914.991 228.014C915.207 227.525 915.315 227.014 915.315 226.48C915.315 225.866 915.167 225.335 914.872 224.886C914.582 224.437 914.185 224.091 913.679 223.846C913.173 223.602 912.605 223.48 911.974 223.48C911.304 223.48 910.719 223.619 910.219 223.897C909.724 224.17 909.341 224.554 909.068 225.048C908.801 225.542 908.667 226.122 908.667 226.787H906.656C906.656 225.764 906.892 224.866 907.364 224.093C907.835 223.321 908.477 222.718 909.29 222.287C910.108 221.855 911.025 221.639 912.042 221.639C913.065 221.639 913.971 221.855 914.761 222.287C915.551 222.718 916.17 223.301 916.619 224.034C917.068 224.767 917.292 225.582 917.292 226.48C917.292 227.122 917.176 227.75 916.943 228.363C916.716 228.971 916.318 229.65 915.75 230.4C915.187 231.145 914.406 232.054 913.406 233.127L909.486 237.321V237.457H917.599V239.332H906.588ZM927.017 239.571C925.892 239.571 924.889 239.377 924.008 238.991C923.133 238.605 922.437 238.068 921.92 237.38C921.409 236.687 921.131 235.883 921.085 234.968H923.233C923.278 235.531 923.471 236.017 923.812 236.426C924.153 236.829 924.599 237.142 925.15 237.363C925.702 237.585 926.312 237.696 926.983 237.696C927.733 237.696 928.398 237.565 928.977 237.304C929.557 237.042 930.011 236.679 930.341 236.213C930.67 235.747 930.835 235.207 930.835 234.593C930.835 233.951 930.676 233.386 930.358 232.897C930.04 232.403 929.574 232.017 928.96 231.738C928.346 231.46 927.596 231.321 926.71 231.321H925.312V229.446H926.71C927.403 229.446 928.011 229.321 928.534 229.071C929.062 228.821 929.474 228.468 929.77 228.014C930.071 227.559 930.221 227.025 930.221 226.412C930.221 225.821 930.091 225.306 929.829 224.869C929.568 224.431 929.199 224.091 928.721 223.846C928.25 223.602 927.693 223.48 927.051 223.48C926.449 223.48 925.881 223.591 925.346 223.812C924.818 224.028 924.386 224.343 924.051 224.758C923.716 225.167 923.534 225.662 923.506 226.241H921.46C921.494 225.326 921.77 224.525 922.287 223.838C922.804 223.145 923.48 222.605 924.315 222.218C925.156 221.832 926.079 221.639 927.085 221.639C928.165 221.639 929.091 221.858 929.864 222.295C930.636 222.727 931.23 223.298 931.645 224.008C932.06 224.718 932.267 225.485 932.267 226.309C932.267 227.292 932.008 228.13 931.491 228.824C930.98 229.517 930.284 229.997 929.403 230.264V230.4C930.506 230.582 931.366 231.051 931.986 231.806C932.605 232.556 932.915 233.485 932.915 234.593C932.915 235.542 932.656 236.395 932.139 237.15C931.628 237.9 930.929 238.491 930.042 238.923C929.156 239.355 928.148 239.571 927.017 239.571Z" fill="#464646"/>
<path d="M183.898 239.571C182.898 239.571 181.998 239.372 181.196 238.974C180.395 238.576 179.753 238.031 179.27 237.338C178.787 236.645 178.523 235.855 178.478 234.968H180.523C180.603 235.758 180.961 236.412 181.597 236.929C182.239 237.44 183.006 237.696 183.898 237.696C184.614 237.696 185.25 237.528 185.807 237.193C186.37 236.858 186.81 236.397 187.128 235.812C187.452 235.221 187.614 234.554 187.614 233.809C187.614 233.048 187.446 232.369 187.111 231.772C186.782 231.17 186.327 230.696 185.748 230.349C185.168 230.002 184.506 229.826 183.762 229.821C183.228 229.815 182.679 229.897 182.117 230.068C181.554 230.233 181.091 230.446 180.728 230.707L178.75 230.468L179.807 221.877H188.875V223.752H181.58L180.966 228.9H181.069C181.427 228.616 181.875 228.38 182.415 228.193C182.955 228.005 183.518 227.912 184.103 227.912C185.171 227.912 186.123 228.167 186.958 228.679C187.799 229.184 188.458 229.877 188.935 230.758C189.418 231.639 189.66 232.645 189.66 233.775C189.66 234.889 189.41 235.883 188.91 236.758C188.415 237.627 187.733 238.315 186.864 238.821C185.995 239.321 185.006 239.571 183.898 239.571Z" fill="#464646"/>
<path d="M425.974 221.877V239.332H423.861V224.093H423.759L419.497 226.923V224.775L423.861 221.877H425.974ZM437.131 221.877V239.332H435.017V224.093H434.915L430.653 226.923V224.775L435.017 221.877H437.131Z" fill="#464646"/>
<path d="M710.283 221.877V239.332H708.17V224.093H708.067L703.806 226.923V224.775L708.17 221.877H710.283ZM720.894 239.571C719.724 239.571 718.689 239.363 717.792 238.949C716.9 238.528 716.204 237.951 715.704 237.218C715.204 236.48 714.957 235.639 714.962 234.696C714.957 233.957 715.101 233.275 715.397 232.65C715.692 232.02 716.096 231.494 716.607 231.074C717.124 230.647 717.701 230.377 718.337 230.264V230.162C717.502 229.946 716.837 229.477 716.343 228.755C715.849 228.028 715.604 227.201 715.61 226.275C715.604 225.389 715.829 224.596 716.283 223.897C716.738 223.199 717.363 222.647 718.158 222.244C718.959 221.841 719.871 221.639 720.894 221.639C721.905 221.639 722.809 221.841 723.604 222.244C724.4 222.647 725.025 223.199 725.479 223.897C725.939 224.596 726.172 225.389 726.178 226.275C726.172 227.201 725.92 228.028 725.42 228.755C724.925 229.477 724.269 229.946 723.451 230.162V230.264C724.082 230.377 724.65 230.647 725.155 231.074C725.661 231.494 726.064 232.02 726.366 232.65C726.667 233.275 726.82 233.957 726.826 234.696C726.82 235.639 726.564 236.48 726.059 237.218C725.559 237.951 724.863 238.528 723.971 238.949C723.084 239.363 722.059 239.571 720.894 239.571ZM720.894 237.696C721.684 237.696 722.366 237.568 722.939 237.312C723.513 237.056 723.957 236.696 724.269 236.23C724.582 235.764 724.741 235.218 724.746 234.593C724.741 233.934 724.57 233.352 724.235 232.846C723.9 232.341 723.442 231.943 722.863 231.653C722.289 231.363 721.633 231.218 720.894 231.218C720.15 231.218 719.485 231.363 718.9 231.653C718.32 231.943 717.863 232.341 717.528 232.846C717.198 233.352 717.036 233.934 717.042 234.593C717.036 235.218 717.187 235.764 717.493 236.23C717.806 236.696 718.252 237.056 718.832 237.312C719.411 237.568 720.099 237.696 720.894 237.696ZM720.894 229.412C721.519 229.412 722.073 229.287 722.556 229.037C723.045 228.787 723.428 228.437 723.707 227.988C723.985 227.539 724.127 227.014 724.133 226.412C724.127 225.821 723.988 225.306 723.715 224.869C723.442 224.426 723.064 224.085 722.582 223.846C722.099 223.602 721.536 223.48 720.894 223.48C720.241 223.48 719.67 223.602 719.181 223.846C718.692 224.085 718.314 224.426 718.047 224.869C717.78 225.306 717.65 225.821 717.655 226.412C717.65 227.014 717.783 227.539 718.056 227.988C718.334 228.437 718.718 228.787 719.207 229.037C719.695 229.287 720.258 229.412 720.894 229.412Z" fill="#464646"/>
<path d="M224.926 239.571C224.211 239.559 223.495 239.423 222.779 239.162C222.063 238.9 221.409 238.46 220.819 237.841C220.228 237.216 219.753 236.372 219.395 235.309C219.037 234.241 218.858 232.9 218.858 231.287C218.858 229.741 219.003 228.372 219.293 227.179C219.583 225.98 220.003 224.971 220.554 224.153C221.105 223.329 221.77 222.704 222.549 222.278C223.333 221.852 224.216 221.639 225.199 221.639C226.176 221.639 227.046 221.835 227.807 222.227C228.574 222.613 229.199 223.153 229.682 223.846C230.165 224.539 230.478 225.338 230.62 226.241H228.54C228.347 225.457 227.972 224.806 227.415 224.289C226.858 223.772 226.12 223.514 225.199 223.514C223.847 223.514 222.782 224.102 222.003 225.278C221.23 226.454 220.841 228.105 220.836 230.23H220.972C221.29 229.747 221.668 229.335 222.105 228.994C222.549 228.647 223.037 228.38 223.571 228.193C224.105 228.005 224.671 227.912 225.267 227.912C226.267 227.912 227.182 228.162 228.012 228.662C228.841 229.156 229.506 229.841 230.006 230.716C230.506 231.585 230.756 232.582 230.756 233.707C230.756 234.787 230.515 235.775 230.032 236.673C229.549 237.565 228.87 238.275 227.995 238.804C227.125 239.326 226.103 239.582 224.926 239.571ZM224.926 237.696C225.642 237.696 226.284 237.517 226.853 237.159C227.426 236.801 227.878 236.321 228.208 235.718C228.543 235.116 228.711 234.446 228.711 233.707C228.711 232.985 228.549 232.329 228.225 231.738C227.907 231.142 227.466 230.667 226.904 230.315C226.347 229.963 225.711 229.787 224.995 229.787C224.455 229.787 223.952 229.895 223.486 230.11C223.02 230.321 222.611 230.61 222.259 230.98C221.912 231.349 221.64 231.772 221.441 232.25C221.242 232.721 221.142 233.218 221.142 233.741C221.142 234.434 221.304 235.082 221.628 235.684C221.958 236.287 222.407 236.772 222.975 237.142C223.549 237.511 224.199 237.696 224.926 237.696Z" fill="#464646"/>
<path d="M505.662 221.877V239.332H503.548V224.093H503.446L499.185 226.923V224.775L503.548 221.877H505.662ZM516.579 239.571C515.454 239.571 514.452 239.377 513.571 238.991C512.696 238.605 512 238.068 511.483 237.38C510.971 236.687 510.693 235.883 510.648 234.968H512.795C512.841 235.531 513.034 236.017 513.375 236.426C513.716 236.829 514.162 237.142 514.713 237.363C515.264 237.585 515.875 237.696 516.545 237.696C517.295 237.696 517.96 237.565 518.54 237.304C519.119 237.042 519.574 236.679 519.903 236.213C520.233 235.747 520.398 235.207 520.398 234.593C520.398 233.951 520.239 233.386 519.92 232.897C519.602 232.403 519.136 232.017 518.523 231.738C517.909 231.46 517.159 231.321 516.273 231.321H514.875V229.446H516.273C516.966 229.446 517.574 229.321 518.096 229.071C518.625 228.821 519.037 228.468 519.332 228.014C519.633 227.559 519.784 227.025 519.784 226.412C519.784 225.821 519.653 225.306 519.392 224.869C519.131 224.431 518.761 224.091 518.284 223.846C517.812 223.602 517.256 223.48 516.614 223.48C516.011 223.48 515.443 223.591 514.909 223.812C514.381 224.028 513.949 224.343 513.614 224.758C513.278 225.167 513.096 225.662 513.068 226.241H511.023C511.057 225.326 511.332 224.525 511.849 223.838C512.366 223.145 513.042 222.605 513.878 222.218C514.719 221.832 515.642 221.639 516.648 221.639C517.727 221.639 518.653 221.858 519.426 222.295C520.199 222.727 520.792 223.298 521.207 224.008C521.622 224.718 521.829 225.485 521.829 226.309C521.829 227.292 521.571 228.13 521.054 228.824C520.542 229.517 519.846 229.997 518.966 230.264V230.4C520.068 230.582 520.929 231.051 521.548 231.806C522.167 232.556 522.477 233.485 522.477 234.593C522.477 235.542 522.219 236.395 521.702 237.15C521.19 237.9 520.491 238.491 519.605 238.923C518.719 239.355 517.71 239.571 516.579 239.571Z" fill="#464646"/>
<path d="M261.184 239.332L268.991 223.889V223.752H259.991V221.877H271.173V223.855L263.4 239.332H261.184Z" fill="#464646"/>
<path d="M546.478 221.877V239.332H544.365V224.093H544.262L540.001 226.923V224.775L544.365 221.877H546.478ZM551.089 235.752V234.014L558.759 221.877H560.021V224.571H559.168L553.373 233.741V233.877H563.703V235.752H551.089ZM559.305 239.332V235.224V234.414V221.877H561.316V239.332H559.305Z" fill="#464646"/>
<path d="M465.162 221.877V239.332H463.048V224.093H462.946L458.685 226.923V224.775L463.048 221.877H465.162ZM470.182 239.332V237.798L475.943 231.491C476.619 230.752 477.176 230.11 477.614 229.565C478.051 229.014 478.375 228.497 478.585 228.014C478.801 227.525 478.909 227.014 478.909 226.48C478.909 225.866 478.762 225.335 478.466 224.886C478.176 224.437 477.779 224.091 477.273 223.846C476.767 223.602 476.199 223.48 475.568 223.48C474.898 223.48 474.313 223.619 473.813 223.897C473.318 224.17 472.935 224.554 472.662 225.048C472.395 225.542 472.262 226.122 472.262 226.787H470.25C470.25 225.764 470.486 224.866 470.958 224.093C471.429 223.321 472.071 222.718 472.884 222.287C473.702 221.855 474.619 221.639 475.637 221.639C476.659 221.639 477.566 221.855 478.355 222.287C479.145 222.718 479.764 223.301 480.213 224.034C480.662 224.767 480.887 225.582 480.887 226.48C480.887 227.122 480.77 227.75 480.537 228.363C480.31 228.971 479.912 229.65 479.344 230.4C478.781 231.145 478 232.054 477 233.127L473.08 237.321V237.457H481.193V239.332H470.182Z" fill="#464646"/>
<path d="M751.064 221.877V239.332H748.951V224.093H748.848L744.587 226.923V224.775L748.951 221.877H751.064ZM761.641 221.639C762.357 221.645 763.073 221.781 763.789 222.048C764.505 222.315 765.158 222.758 765.749 223.377C766.34 223.991 766.814 224.829 767.172 225.892C767.53 226.954 767.709 228.287 767.709 229.889C767.709 231.44 767.561 232.818 767.266 234.022C766.976 235.221 766.556 236.233 766.005 237.056C765.459 237.88 764.794 238.505 764.01 238.931C763.232 239.358 762.351 239.571 761.368 239.571C760.391 239.571 759.519 239.377 758.752 238.991C757.99 238.599 757.365 238.056 756.877 237.363C756.394 236.664 756.084 235.855 755.948 234.934H758.027C758.215 235.735 758.587 236.397 759.144 236.92C759.706 237.437 760.448 237.696 761.368 237.696C762.715 237.696 763.777 237.108 764.556 235.931C765.34 234.755 765.732 233.093 765.732 230.946H765.596C765.277 231.423 764.9 231.835 764.462 232.181C764.025 232.528 763.539 232.795 763.005 232.983C762.471 233.17 761.902 233.264 761.3 233.264C760.3 233.264 759.383 233.017 758.547 232.522C757.718 232.022 757.053 231.338 756.553 230.468C756.059 229.593 755.811 228.593 755.811 227.468C755.811 226.4 756.05 225.423 756.527 224.537C757.01 223.645 757.686 222.934 758.556 222.406C759.431 221.877 760.459 221.622 761.641 221.639ZM761.641 223.514C760.925 223.514 760.28 223.693 759.706 224.051C759.138 224.403 758.686 224.88 758.351 225.483C758.022 226.079 757.857 226.741 757.857 227.468C757.857 228.196 758.016 228.858 758.334 229.454C758.658 230.045 759.098 230.517 759.655 230.869C760.218 231.216 760.857 231.389 761.573 231.389C762.113 231.389 762.615 231.284 763.081 231.074C763.547 230.858 763.954 230.565 764.3 230.196C764.652 229.821 764.928 229.397 765.127 228.926C765.326 228.449 765.425 227.951 765.425 227.434C765.425 226.752 765.26 226.113 764.931 225.517C764.607 224.92 764.158 224.437 763.584 224.068C763.016 223.699 762.368 223.514 761.641 223.514Z" fill="#464646"/>
<path d="M947.592 239.332V237.798L953.353 231.491C954.029 230.752 954.586 230.11 955.024 229.565C955.461 229.014 955.785 228.497 955.995 228.014C956.211 227.525 956.319 227.014 956.319 226.48C956.319 225.866 956.172 225.335 955.876 224.886C955.586 224.437 955.189 224.091 954.683 223.846C954.177 223.602 953.609 223.48 952.978 223.48C952.308 223.48 951.723 223.619 951.223 223.897C950.728 224.17 950.345 224.554 950.072 225.048C949.805 225.542 949.672 226.122 949.672 226.787H947.66C947.66 225.764 947.896 224.866 948.368 224.093C948.839 223.321 949.481 222.718 950.294 222.287C951.112 221.855 952.029 221.639 953.047 221.639C954.069 221.639 954.975 221.855 955.765 222.287C956.555 222.718 957.174 223.301 957.623 224.034C958.072 224.767 958.297 225.582 958.297 226.48C958.297 227.122 958.18 227.75 957.947 228.363C957.72 228.971 957.322 229.65 956.754 230.4C956.191 231.145 955.41 232.054 954.41 233.127L950.49 237.321V237.457H958.603V239.332H947.592ZM961.339 235.752V234.014L969.01 221.877H970.271V224.571H969.419L963.623 233.741V233.877H973.953V235.752H961.339ZM969.555 239.332V235.224V234.414V221.877H971.566V239.332H969.555Z" fill="#464646"/>
<g filter="url(#filter0_d_1646_6396)">
<path d="M123.058 116.461L136.116 102L123.058 108.674L108.55 122.764L123.058 116.461Z" fill="#EBC99C"/>
</g>
<g filter="url(#filter1_d_1646_6396)">
<path d="M246.38 116.461L233.322 102L246.38 108.674L260.888 122.764L246.38 116.461Z" fill="#EBC99C"/>
</g>
<rect x="123.058" y="115.349" width="124.047" height="91.2151" fill="#E6A352"/>
<rect x="136.116" y="102" width="97.2064" height="13.3486" fill="#BC8239"/>
<path d="M123.058 115.349L136.116 102V115.349H123.058Z" fill="#936122"/>
<path d="M247.051 115.349H123.113L112.177 130.922H257.987L247.051 115.349Z" fill="#ECC290"/>
<path d="M246.38 115.349L233.323 102V115.349H246.38Z" fill="#AE752E"/>
<g filter="url(#filter2_d_1646_6396)">
<path d="M327.236 116.461L340.294 102L327.236 108.674L312.728 122.764L327.236 116.461Z" fill="#EBC99C"/>
</g>
<g filter="url(#filter3_d_1646_6396)">
<path d="M450.558 116.461L437.5 102L450.558 108.674L465.066 122.764L450.558 116.461Z" fill="#EBC99C"/>
</g>
<rect x="327.236" y="115.349" width="124.047" height="91.2151" fill="#E6A352"/>
<rect x="340.293" y="102" width="97.2064" height="13.3486" fill="#BC8239"/>
<path d="M327.236 115.349L340.293 102V115.349H327.236Z" fill="#936122"/>
<path d="M451.229 115.349H327.29L316.355 130.922H462.164L451.229 115.349Z" fill="#ECC290"/>
<path d="M450.558 115.349L437.5 102V115.349H450.558Z" fill="#AE752E"/>
<g filter="url(#filter4_d_1646_6396)">
<path d="M531.414 116.461L544.471 102L531.414 108.674L516.905 122.764L531.414 116.461Z" fill="#EBC99C"/>
</g>
<g filter="url(#filter5_d_1646_6396)">
<path d="M654.735 116.461L641.677 102L654.735 108.674L669.243 122.764L654.735 116.461Z" fill="#EBC99C"/>
</g>
<rect x="531.413" y="115.349" width="124.047" height="91.2151" fill="#E6A352"/>
<rect x="544.471" y="102" width="97.2064" height="13.3486" fill="#BC8239"/>
<path d="M531.413 115.349L544.471 102V115.349H531.413Z" fill="#936122"/>
<path d="M655.406 115.349H531.468L520.532 130.922H666.342L655.406 115.349Z" fill="#ECC290"/>
<path d="M654.735 115.349L641.678 102V115.349H654.735Z" fill="#AE752E"/>
<g filter="url(#filter6_d_1646_6396)">
<path d="M735.591 116.461L748.649 102L735.591 108.674L721.083 122.764L735.591 116.461Z" fill="#EBC99C"/>
</g>
<g filter="url(#filter7_d_1646_6396)">
<path d="M858.913 116.461L845.855 102L858.913 108.674L873.421 122.764L858.913 116.461Z" fill="#EBC99C"/>
</g>
<rect x="735.591" y="115.349" width="124.047" height="91.2151" fill="#E6A352"/>
<rect x="748.648" y="102" width="97.2064" height="13.3486" fill="#BC8239"/>
<path d="M735.591 115.349L748.649 102V115.349H735.591Z" fill="#936122"/>
<path d="M859.584 115.349H735.645L724.71 130.922H870.519L859.584 115.349Z" fill="#ECC290"/>
<path d="M858.913 115.349L845.855 102V115.349H858.913Z" fill="#AE752E"/>
<path d="M285.705 8.01319L285.802 15.5126L285.802 15.5126L285.705 8.01319ZM359.34 89.8136L366.397 3.4991L288.118 40.5449L359.34 89.8136ZM211.633 67.7079C218.957 69.3222 218.957 69.3255 218.956 69.3286C218.956 69.3293 218.955 69.3322 218.955 69.3337C218.954 69.3366 218.954 69.3387 218.954 69.3399C218.953 69.3423 218.953 69.3412 218.954 69.3367C218.956 69.3277 218.962 69.305 218.97 69.2691C218.987 69.1972 219.017 69.0725 219.062 68.8985C219.15 68.5502 219.296 68.0055 219.505 67.2922C219.926 65.8639 220.602 63.77 221.598 61.2314C223.598 56.1346 226.843 49.3575 231.807 42.5952C241.614 29.2335 258.102 15.8713 285.802 15.5126L285.607 0.51382C252.218 0.946254 231.67 17.4314 219.715 33.7193C213.796 41.7818 209.978 49.78 207.634 55.7524C206.459 58.7484 205.644 61.2625 205.115 63.0586C204.851 63.9575 204.658 64.679 204.526 65.194C204.461 65.4516 204.41 65.6577 204.375 65.8088C204.357 65.8844 204.342 65.9462 204.332 65.9938C204.326 66.0176 204.321 66.0379 204.318 66.0545C204.316 66.0629 204.314 66.0703 204.313 66.0768C204.312 66.0801 204.311 66.0843 204.311 66.0859C204.31 66.0899 204.309 66.0937 211.633 67.7079ZM285.802 15.5126C302.365 15.298 315.032 22.8975 324.899 33.8293L336.034 23.7785C324.1 10.5572 307.575 0.229305 285.607 0.51382L285.802 15.5126Z" fill="#5D71A7"/>
<path d="M703.705 8.01319L703.802 15.5126L703.802 15.5126L703.705 8.01319ZM777.34 89.8136L784.397 3.4991L706.118 40.5449L777.34 89.8136ZM629.633 67.7079C636.957 69.3222 636.957 69.3255 636.956 69.3286C636.956 69.3293 636.955 69.3322 636.955 69.3337C636.954 69.3366 636.954 69.3387 636.954 69.3399C636.953 69.3423 636.953 69.3412 636.954 69.3367C636.956 69.3277 636.962 69.305 636.97 69.2691C636.987 69.1972 637.017 69.0725 637.062 68.8985C637.15 68.5502 637.296 68.0055 637.505 67.2922C637.926 65.8639 638.602 63.77 639.598 61.2314C641.598 56.1346 644.843 49.3575 649.807 42.5952C659.614 29.2335 676.102 15.8713 703.802 15.5126L703.607 0.51382C670.218 0.946254 649.67 17.4314 637.715 33.7193C631.796 41.7818 627.978 49.78 625.634 55.7524C624.459 58.7484 623.644 61.2625 623.115 63.0586C622.851 63.9575 622.658 64.679 622.526 65.194C622.461 65.4516 622.41 65.6577 622.375 65.8088C622.357 65.8844 622.342 65.9462 622.332 65.9938C622.326 66.0176 622.321 66.0379 622.318 66.0545C622.316 66.0629 622.314 66.0703 622.313 66.0768C622.312 66.0801 622.311 66.0843 622.311 66.0859C622.31 66.0899 622.309 66.0937 629.633 67.7079ZM703.802 15.5126C720.365 15.298 733.032 22.8975 742.899 33.8293L754.034 23.7785C742.1 10.5572 725.575 0.229305 703.607 0.51382L703.802 15.5126Z" fill="#5D71A7"/>
<path d="M494.705 8.01319L494.802 15.5126L494.802 15.5126L494.705 8.01319ZM568.34 89.8136L575.397 3.4991L497.118 40.5449L568.34 89.8136ZM420.633 67.7079C427.957 69.3222 427.957 69.3255 427.956 69.3286C427.956 69.3293 427.955 69.3322 427.955 69.3337C427.954 69.3366 427.954 69.3387 427.954 69.3399C427.953 69.3423 427.953 69.3412 427.954 69.3367C427.956 69.3277 427.962 69.305 427.97 69.2691C427.987 69.1972 428.017 69.0725 428.062 68.8985C428.15 68.5502 428.296 68.0055 428.505 67.2922C428.926 65.8639 429.602 63.77 430.598 61.2314C432.598 56.1346 435.843 49.3575 440.807 42.5952C450.614 29.2335 467.102 15.8713 494.802 15.5126L494.607 0.51382C461.218 0.946254 440.67 17.4314 428.715 33.7193C422.796 41.7818 418.978 49.78 416.634 55.7524C415.459 58.7484 414.644 61.2625 414.115 63.0586C413.851 63.9575 413.658 64.679 413.526 65.194C413.461 65.4516 413.41 65.6577 413.375 65.8088C413.357 65.8844 413.342 65.9462 413.332 65.9938C413.326 66.0176 413.321 66.0379 413.318 66.0545C413.316 66.0629 413.314 66.0703 413.313 66.0768C413.312 66.0801 413.311 66.0843 413.311 66.0859C413.31 66.0899 413.309 66.0937 420.633 67.7079ZM494.802 15.5126C511.365 15.298 524.032 22.8975 533.899 33.8293L545.034 23.7785C533.1 10.5572 516.575 0.229305 494.607 0.51382L494.802 15.5126Z" fill="#5D71A7"/>
<defs>
<filter id="filter0_d_1646_6396" x="104.55" y="102" width="35.566" height="28.7646" filterUnits="userSpaceOnUse" color-interpolation-filters="sRGB">
<feFlood flood-opacity="0" result="BackgroundImageFix"/>
<feColorMatrix in="SourceAlpha" type="matrix" values="0 0 0 0 0 0 0 0 0 0 0 0 0 0 0 0 0 0 127 0" result="hardAlpha"/>
<feOffset dy="4"/>
<feGaussianBlur stdDeviation="2"/>
<feComposite in2="hardAlpha" operator="out"/>
<feColorMatrix type="matrix" values="0 0 0 0 0 0 0 0 0 0 0 0 0 0 0 0 0 0 0.1 0"/>
<feBlend mode="normal" in2="BackgroundImageFix" result="effect1_dropShadow_1646_6396"/>
<feBlend mode="normal" in="SourceGraphic" in2="effect1_dropShadow_1646_6396" result="shape"/>
</filter>
<filter id="filter1_d_1646_6396" x="229.322" y="102" width="35.566" height="28.7646" filterUnits="userSpaceOnUse" color-interpolation-filters="sRGB">
<feFlood flood-opacity="0" result="BackgroundImageFix"/>
<feColorMatrix in="SourceAlpha" type="matrix" values="0 0 0 0 0 0 0 0 0 0 0 0 0 0 0 0 0 0 127 0" result="hardAlpha"/>
<feOffset dy="4"/>
<feGaussianBlur stdDeviation="2"/>
<feComposite in2="hardAlpha" operator="out"/>
<feColorMatrix type="matrix" values="0 0 0 0 0 0 0 0 0 0 0 0 0 0 0 0 0 0 0.1 0"/>
<feBlend mode="normal" in2="BackgroundImageFix" result="effect1_dropShadow_1646_6396"/>
<feBlend mode="normal" in="SourceGraphic" in2="effect1_dropShadow_1646_6396" result="shape"/>
</filter>
<filter id="filter2_d_1646_6396" x="308.728" y="102" width="35.566" height="28.7646" filterUnits="userSpaceOnUse" color-interpolation-filters="sRGB">
<feFlood flood-opacity="0" result="BackgroundImageFix"/>
<feColorMatrix in="SourceAlpha" type="matrix" values="0 0 0 0 0 0 0 0 0 0 0 0 0 0 0 0 0 0 127 0" result="hardAlpha"/>
<feOffset dy="4"/>
<feGaussianBlur stdDeviation="2"/>
<feComposite in2="hardAlpha" operator="out"/>
<feColorMatrix type="matrix" values="0 0 0 0 0 0 0 0 0 0 0 0 0 0 0 0 0 0 0.1 0"/>
<feBlend mode="normal" in2="BackgroundImageFix" result="effect1_dropShadow_1646_6396"/>
<feBlend mode="normal" in="SourceGraphic" in2="effect1_dropShadow_1646_6396" result="shape"/>
</filter>
<filter id="filter3_d_1646_6396" x="433.5" y="102" width="35.566" height="28.7646" filterUnits="userSpaceOnUse" color-interpolation-filters="sRGB">
<feFlood flood-opacity="0" result="BackgroundImageFix"/>
<feColorMatrix in="SourceAlpha" type="matrix" values="0 0 0 0 0 0 0 0 0 0 0 0 0 0 0 0 0 0 127 0" result="hardAlpha"/>
<feOffset dy="4"/>
<feGaussianBlur stdDeviation="2"/>
<feComposite in2="hardAlpha" operator="out"/>
<feColorMatrix type="matrix" values="0 0 0 0 0 0 0 0 0 0 0 0 0 0 0 0 0 0 0.1 0"/>
<feBlend mode="normal" in2="BackgroundImageFix" result="effect1_dropShadow_1646_6396"/>
<feBlend mode="normal" in="SourceGraphic" in2="effect1_dropShadow_1646_6396" result="shape"/>
</filter>
<filter id="filter4_d_1646_6396" x="512.905" y="102" width="35.566" height="28.7646" filterUnits="userSpaceOnUse" color-interpolation-filters="sRGB">
<feFlood flood-opacity="0" result="BackgroundImageFix"/>
<feColorMatrix in="SourceAlpha" type="matrix" values="0 0 0 0 0 0 0 0 0 0 0 0 0 0 0 0 0 0 127 0" result="hardAlpha"/>
<feOffset dy="4"/>
<feGaussianBlur stdDeviation="2"/>
<feComposite in2="hardAlpha" operator="out"/>
<feColorMatrix type="matrix" values="0 0 0 0 0 0 0 0 0 0 0 0 0 0 0 0 0 0 0.1 0"/>
<feBlend mode="normal" in2="BackgroundImageFix" result="effect1_dropShadow_1646_6396"/>
<feBlend mode="normal" in="SourceGraphic" in2="effect1_dropShadow_1646_6396" result="shape"/>
</filter>
<filter id="filter5_d_1646_6396" x="637.677" y="102" width="35.566" height="28.7646" filterUnits="userSpaceOnUse" color-interpolation-filters="sRGB">
<feFlood flood-opacity="0" result="BackgroundImageFix"/>
<feColorMatrix in="SourceAlpha" type="matrix" values="0 0 0 0 0 0 0 0 0 0 0 0 0 0 0 0 0 0 127 0" result="hardAlpha"/>
<feOffset dy="4"/>
<feGaussianBlur stdDeviation="2"/>
<feComposite in2="hardAlpha" operator="out"/>
<feColorMatrix type="matrix" values="0 0 0 0 0 0 0 0 0 0 0 0 0 0 0 0 0 0 0.1 0"/>
<feBlend mode="normal" in2="BackgroundImageFix" result="effect1_dropShadow_1646_6396"/>
<feBlend mode="normal" in="SourceGraphic" in2="effect1_dropShadow_1646_6396" result="shape"/>
</filter>
<filter id="filter6_d_1646_6396" x="717.083" y="102" width="35.566" height="28.7646" filterUnits="userSpaceOnUse" color-interpolation-filters="sRGB">
<feFlood flood-opacity="0" result="BackgroundImageFix"/>
<feColorMatrix in="SourceAlpha" type="matrix" values="0 0 0 0 0 0 0 0 0 0 0 0 0 0 0 0 0 0 127 0" result="hardAlpha"/>
<feOffset dy="4"/>
<feGaussianBlur stdDeviation="2"/>
<feComposite in2="hardAlpha" operator="out"/>
<feColorMatrix type="matrix" values="0 0 0 0 0 0 0 0 0 0 0 0 0 0 0 0 0 0 0.1 0"/>
<feBlend mode="normal" in2="BackgroundImageFix" result="effect1_dropShadow_1646_6396"/>
<feBlend mode="normal" in="SourceGraphic" in2="effect1_dropShadow_1646_6396" result="shape"/>
</filter>
<filter id="filter7_d_1646_6396" x="841.855" y="102" width="35.566" height="28.7646" filterUnits="userSpaceOnUse" color-interpolation-filters="sRGB">
<feFlood flood-opacity="0" result="BackgroundImageFix"/>
<feColorMatrix in="SourceAlpha" type="matrix" values="0 0 0 0 0 0 0 0 0 0 0 0 0 0 0 0 0 0 127 0" result="hardAlpha"/>
<feOffset dy="4"/>
<feGaussianBlur stdDeviation="2"/>
<feComposite in2="hardAlpha" operator="out"/>
<feColorMatrix type="matrix" values="0 0 0 0 0 0 0 0 0 0 0 0 0 0 0 0 0 0 0.1 0"/>
<feBlend mode="normal" in2="BackgroundImageFix" result="effect1_dropShadow_1646_6396"/>
<feBlend mode="normal" in="SourceGraphic" in2="effect1_dropShadow_1646_6396" result="shape"/>
</filter>
</defs>
</svg>
