<svg version="1.1" id="Layer_1" xmlns="http://www.w3.org/2000/svg" xmlns:xlink="http://www.w3.org/1999/xlink" x="0px" y="0px"
	 width="510px" height="398.6006826px" viewBox="0 0 1172 916" enable-background="new 0 0 1172 916" xml:space="preserve">
<path fill="#FFFFFF" opacity="1.000000" stroke="none" 
	d="
M1172.000000,917.000000 
	C781.716553,917.000000 391.433044,917.000000 1.074788,917.000000 
	C1.074788,611.755554 1.074788,306.511047 1.074788,1.000000 
	C391.027985,1.000000 781.056030,1.000000 1171.644531,1.225479 
	C1172.387695,1.753026 1172.652710,1.936041 1173.000000,2.000000 
	C1173.000000,29.361364 1173.000000,56.722729 1172.549805,84.568970 
	C1171.509644,85.167656 1170.919678,85.281448 1170.168945,85.107925 
	C1167.586914,80.319901 1163.667358,79.003212 1158.772827,79.006058 
	C1065.955444,79.059990 973.138123,79.041473 880.320801,79.053001 
	C871.661560,79.054077 867.981995,82.829834 867.980774,91.625931 
	C867.973816,142.783783 867.973450,193.941650 867.981323,245.099503 
	C867.982727,254.147079 871.693298,257.945679 880.616699,257.946838 
	C973.267395,257.958832 1065.918091,257.941925 1158.568848,257.988953 
	C1163.419678,257.991425 1167.320435,256.667816 1170.055420,252.409058 
	C1170.404053,251.866226 1171.988159,252.116913 1173.000000,252.000000 
	C1173.000000,473.028046 1173.000000,694.056091 1172.770386,915.634705 
	C1172.273560,916.399170 1172.093384,916.670715 1172.000000,917.000000 
M1005.512329,40.898483 
	C1003.431396,43.768784 1001.350464,46.639080 999.168701,49.648472 
	C1005.831909,51.094986 1010.960388,50.293800 1013.656860,43.488285 
	C1014.513733,41.325684 1016.269409,39.519192 1017.855469,37.195793 
	C1022.941650,43.450806 1024.834961,53.934414 1036.413452,49.455887 
	C1031.961304,43.261116 1027.528442,37.093056 1023.121765,30.961393 
	C1027.513062,24.792217 1031.676514,18.942965 1035.740112,13.234162 
	C1024.042358,8.436110 1022.816895,19.498159 1017.729553,24.620867 
	C1008.509155,10.992796 1008.509155,10.992796 999.922241,13.280794 
	C1001.883301,16.022110 1003.805115,18.706072 1005.724304,21.391830 
	C1012.515869,30.895964 1012.515564,30.896189 1005.512329,40.898483 
z"/>
<path fill="#0C0C0C" opacity="1.000000" stroke="none" 
	d="
M1173.000000,251.666672 
	C1171.988159,252.116913 1170.404053,251.866226 1170.055420,252.409058 
	C1167.320435,256.667816 1163.419678,257.991425 1158.568848,257.988953 
	C1065.918091,257.941925 973.267395,257.958832 880.616699,257.946838 
	C871.693298,257.945679 867.982727,254.147079 867.981323,245.099503 
	C867.973450,193.941650 867.973816,142.783783 867.980774,91.625931 
	C867.981995,82.829834 871.661560,79.054077 880.320801,79.053001 
	C973.138123,79.041473 1065.955444,79.059990 1158.772827,79.006058 
	C1163.667358,79.003212 1167.586914,80.319901 1170.296631,85.537445 
	C1170.737793,88.565308 1171.021118,90.876167 1171.024048,93.187363 
	C1171.089478,145.223480 1171.123901,197.259613 1171.294434,249.729462 
	C1171.949829,250.108795 1172.474976,250.054398 1173.000000,250.000000 
	C1173.000000,250.444443 1173.000000,250.888901 1173.000000,251.666672 
M1168.978760,192.500000 
	C1168.978760,158.839630 1168.988159,125.179245 1168.971436,91.518875 
	C1168.967773,84.112000 1166.088745,81.112694 1158.796753,81.110954 
	C1065.980835,81.088829 973.164856,81.090370 880.348938,81.107849 
	C873.064819,81.109222 870.102173,84.144737 870.100891,91.440750 
	C870.091980,142.764481 870.091919,194.088196 870.100891,245.411926 
	C870.102234,252.848480 872.945557,255.790756 880.271118,255.792007 
	C973.087097,255.807861 1065.903076,255.807800 1158.718994,255.792206 
	C1166.060425,255.790970 1168.964844,252.834290 1168.972778,245.490265 
	C1168.991577,228.160187 1168.978760,210.830093 1168.978760,192.500000 
z"/>
<path fill="#E4E4E4" opacity="1.000000" stroke="none" 
	d="
M1171.164307,249.295746 
	C1171.123901,197.259613 1171.089478,145.223480 1171.024048,93.187363 
	C1171.021118,90.876167 1170.737793,88.565308 1170.457520,85.824768 
	C1170.919678,85.281448 1171.509644,85.167656 1172.549805,85.026932 
	C1173.000000,139.354233 1173.000000,193.708450 1172.538086,248.587219 
	C1171.772339,249.173065 1171.468384,249.234406 1171.164307,249.295746 
z"/>
<path fill="#E4E4E4" opacity="1.000000" stroke="none" 
	d="
M1173.000000,1.500000 
	C1172.652710,1.936041 1172.387695,1.753026 1172.102417,1.225479 
	C1172.333374,1.000000 1172.666626,1.000000 1173.000000,1.500000 
z"/>
<path fill="#FFFFFF" opacity="1.000000" stroke="none" 
	d="
M1171.294556,249.729462 
	C1171.468384,249.234406 1171.772339,249.173065 1172.538086,249.055878 
	C1173.000000,249.000000 1173.000000,249.500000 1173.000000,249.750000 
	C1172.474976,250.054398 1171.949829,250.108795 1171.294556,249.729462 
z"/>
<path fill="#E4E4E4" opacity="1.000000" stroke="none" 
	d="
M1172.500000,917.000000 
	C1172.093384,916.670715 1172.273560,916.399170 1172.770386,916.092651 
	C1173.000000,916.333313 1173.000000,916.666687 1172.500000,917.000000 
z"/>
<path fill="#0C0C0C" opacity="1.000000" stroke="none" 
	d="
M1005.719238,40.604080 
	C1012.515564,30.896189 1012.515869,30.895964 1005.724304,21.391830 
	C1003.805115,18.706072 1001.883301,16.022110 999.922241,13.280794 
	C1008.509155,10.992796 1008.509155,10.992796 1017.729553,24.620867 
	C1022.816895,19.498159 1024.042358,8.436110 1035.740112,13.234162 
	C1031.676514,18.942965 1027.513062,24.792217 1023.121765,30.961393 
	C1027.528442,37.093056 1031.961304,43.261116 1036.413452,49.455887 
	C1024.834961,53.934414 1022.941650,43.450806 1017.855469,37.195793 
	C1016.269409,39.519192 1014.513733,41.325684 1013.656860,43.488285 
	C1010.960388,50.293800 1005.831909,51.094986 999.168701,49.648472 
	C1001.350464,46.639080 1003.431396,43.768784 1005.719238,40.604080 
z"/>
<path fill="#FEFEFE" opacity="1.000000" stroke="none" 
	d="
M1168.978760,193.000000 
	C1168.978760,210.830093 1168.991577,228.160187 1168.972778,245.490265 
	C1168.964844,252.834290 1166.060425,255.790970 1158.718994,255.792206 
	C1065.903076,255.807800 973.087097,255.807861 880.271118,255.792007 
	C872.945557,255.790756 870.102234,252.848480 870.100891,245.411926 
	C870.091919,194.088196 870.091980,142.764481 870.100891,91.440750 
	C870.102173,84.144737 873.064819,81.109222 880.348938,81.107849 
	C973.164856,81.090370 1065.980835,81.088829 1158.796753,81.110954 
	C1166.088745,81.112694 1168.967773,84.112000 1168.971436,91.518875 
	C1168.988159,125.179245 1168.978760,158.839630 1168.978760,193.000000 
z"/>
</svg>
