<svg width="981" height="762" viewBox="0 0 981 762" fill="none" xmlns="http://www.w3.org/2000/svg">
<path fill-rule="evenodd" clip-rule="evenodd" d="M261.707 614.996L185.201 575.339L187.611 661.478L220.361 640.933C252.699 672.408 290.101 698.214 330.894 717.045C385.725 742.357 445.089 754.334 504.026 751.974C562.962 749.614 619.761 732.986 669.678 703.479C719.594 673.973 761.178 632.444 790.956 582.363L777.04 573.464C748.555 621.371 708.776 661.096 661.027 689.322C613.278 717.547 558.945 733.453 502.567 735.711C446.189 737.968 389.403 726.512 336.953 702.299C299.15 684.847 264.39 661.135 234.13 632.295L261.707 614.996Z" fill="#5D71A7"/>
<path fill-rule="evenodd" clip-rule="evenodd" d="M719.123 146.495L795.629 186.152L793.219 100.013L760.469 120.558C728.131 89.0819 690.729 63.2764 649.936 44.4452C595.105 19.133 535.741 7.15672 476.804 9.51669C417.867 11.8767 361.068 28.5044 311.152 58.0109C261.236 87.5174 219.652 129.046 189.874 179.127L203.79 188.026C232.275 140.119 272.054 100.394 319.803 72.1684C367.552 43.943 421.885 28.0372 478.263 25.7797C534.641 23.5222 591.427 34.9785 643.877 59.1917C681.68 76.6429 716.44 100.356 746.699 129.195L719.123 146.495Z" fill="#FEC900"/>
<rect y="402.067" width="981" height="40.875" fill="#C4C4C4"/>
<rect x="0.5" y="402.567" width="39.875" height="39.875" fill="#C4C4C4" stroke="#464646"/>
<rect x="245.75" y="402.567" width="39.875" height="39.875" fill="#C4C4C4" stroke="#464646"/>
<rect x="41.3751" y="402.567" width="39.875" height="39.875" fill="#C4C4C4" stroke="#464646"/>
<rect x="82.25" y="402.567" width="39.875" height="39.875" fill="#C4C4C4" stroke="#464646"/>
<rect x="123.125" y="402.567" width="39.875" height="39.875" fill="#C4C4C4" stroke="#464646"/>
<rect x="164" y="402.567" width="39.875" height="39.875" fill="#C4C4C4" stroke="#464646"/>
<rect x="204.875" y="402.567" width="39.875" height="39.875" fill="#C4C4C4" stroke="#464646"/>
<rect x="245.75" y="402.567" width="39.875" height="39.875" fill="#C4C4C4" stroke="#464646"/>
<rect x="286.625" y="402.567" width="39.875" height="39.875" fill="#C4C4C4" stroke="#464646"/>
<rect x="327.5" y="402.567" width="39.875" height="39.875" fill="#C4C4C4" stroke="#464646"/>
<rect x="368.375" y="402.567" width="39.875" height="39.875" fill="#C4C4C4" stroke="#464646"/>
<rect x="409.25" y="402.567" width="39.875" height="39.875" fill="#C4C4C4" stroke="#464646"/>
<rect x="450.125" y="402.567" width="39.875" height="39.875" fill="#C4C4C4" stroke="#464646"/>
<rect x="491" y="402.567" width="39.875" height="39.875" fill="#C4C4C4" stroke="#464646"/>
<rect x="531.875" y="402.567" width="39.875" height="39.875" fill="#C4C4C4" stroke="#464646"/>
<rect x="572.75" y="402.567" width="39.875" height="39.875" fill="#C4C4C4" stroke="#464646"/>
<rect x="613.625" y="402.567" width="39.875" height="39.875" fill="#C4C4C4" stroke="#464646"/>
<rect x="818" y="402.567" width="39.875" height="39.875" fill="#C4C4C4" stroke="#464646"/>
<rect x="654.5" y="402.567" width="39.875" height="39.875" fill="#C4C4C4" stroke="#464646"/>
<rect x="695.375" y="402.567" width="39.875" height="39.875" fill="#C4C4C4" stroke="#464646"/>
<rect x="899.75" y="402.567" width="39.875" height="39.875" fill="#C4C4C4" stroke="#464646"/>
<rect x="736.25" y="402.567" width="39.875" height="39.875" fill="#C4C4C4" stroke="#464646"/>
<rect x="777.125" y="402.567" width="39.875" height="39.875" fill="#C4C4C4" stroke="#464646"/>
<rect x="818" y="402.567" width="39.875" height="39.875" fill="#C4C4C4" stroke="#464646"/>
<rect x="858.875" y="402.567" width="39.875" height="39.875" fill="#C4C4C4" stroke="#464646"/>
<rect x="899.75" y="402.567" width="39.875" height="39.875" fill="#C4C4C4" stroke="#464646"/>
<rect x="940.625" y="402.567" width="39.875" height="39.875" fill="#C4C4C4" stroke="#464646"/>
<path d="M22.8026 416.877V434.332H20.6889V419.093H20.5866L16.3253 421.923V419.775L20.6889 416.877H22.8026Z" fill="#464646"/>
<path d="M55.8536 434.332V432.798L61.615 426.491C62.2911 425.752 62.8479 425.11 63.2854 424.565C63.7229 424.014 64.0468 423.497 64.257 423.014C64.4729 422.525 64.5809 422.014 64.5809 421.48C64.5809 420.866 64.4332 420.335 64.1377 419.886C63.8479 419.437 63.4502 419.091 62.9445 418.846C62.4389 418.602 61.8707 418.48 61.24 418.48C60.5695 418.48 59.9843 418.619 59.4843 418.897C58.99 419.17 58.6065 419.554 58.3337 420.048C58.0667 420.542 57.9332 421.122 57.9332 421.787H55.9218C55.9218 420.764 56.1576 419.866 56.6292 419.093C57.1008 418.321 57.7428 417.718 58.5553 417.287C59.3735 416.855 60.2911 416.639 61.3082 416.639C62.3309 416.639 63.2372 416.855 64.0269 417.287C64.8167 417.718 65.436 418.301 65.8849 419.034C66.3337 419.767 66.5582 420.582 66.5582 421.48C66.5582 422.122 66.4417 422.75 66.2087 423.363C65.9815 423.971 65.5837 424.65 65.0156 425.4C64.4531 426.145 63.6718 427.054 62.6718 428.127L58.7514 432.321V432.457H66.865V434.332H55.8536Z" fill="#464646"/>
<path d="M306.566 434.571C305.395 434.571 304.361 434.363 303.463 433.949C302.571 433.528 301.875 432.951 301.375 432.218C300.875 431.48 300.628 430.639 300.634 429.696C300.628 428.957 300.773 428.275 301.068 427.65C301.364 427.02 301.767 426.494 302.279 426.074C302.796 425.647 303.372 425.377 304.009 425.264V425.162C303.174 424.946 302.509 424.477 302.014 423.755C301.52 423.028 301.276 422.201 301.282 421.275C301.276 420.389 301.5 419.596 301.955 418.897C302.409 418.199 303.034 417.647 303.83 417.244C304.631 416.841 305.543 416.639 306.566 416.639C307.577 416.639 308.48 416.841 309.276 417.244C310.071 417.647 310.696 418.199 311.151 418.897C311.611 419.596 311.844 420.389 311.85 421.275C311.844 422.201 311.591 423.028 311.091 423.755C310.597 424.477 309.941 424.946 309.122 425.162V425.264C309.753 425.377 310.321 425.647 310.827 426.074C311.333 426.494 311.736 427.02 312.037 427.65C312.338 428.275 312.492 428.957 312.497 429.696C312.492 430.639 312.236 431.48 311.73 432.218C311.23 432.951 310.534 433.528 309.642 433.949C308.756 434.363 307.73 434.571 306.566 434.571ZM306.566 432.696C307.355 432.696 308.037 432.568 308.611 432.312C309.185 432.056 309.628 431.696 309.941 431.23C310.253 430.764 310.412 430.218 310.418 429.593C310.412 428.934 310.242 428.352 309.907 427.846C309.571 427.341 309.114 426.943 308.534 426.653C307.961 426.363 307.304 426.218 306.566 426.218C305.821 426.218 305.157 426.363 304.571 426.653C303.992 426.943 303.534 427.341 303.199 427.846C302.87 428.352 302.708 428.934 302.713 429.593C302.708 430.218 302.858 430.764 303.165 431.23C303.478 431.696 303.924 432.056 304.503 432.312C305.083 432.568 305.77 432.696 306.566 432.696ZM306.566 424.412C307.191 424.412 307.745 424.287 308.228 424.037C308.716 423.787 309.1 423.437 309.378 422.988C309.657 422.539 309.799 422.014 309.804 421.412C309.799 420.821 309.659 420.306 309.387 419.869C309.114 419.426 308.736 419.085 308.253 418.846C307.77 418.602 307.208 418.48 306.566 418.48C305.912 418.48 305.341 418.602 304.853 418.846C304.364 419.085 303.986 419.426 303.719 419.869C303.452 420.306 303.321 420.821 303.327 421.412C303.321 422.014 303.455 422.539 303.728 422.988C304.006 423.437 304.389 423.787 304.878 424.037C305.367 424.287 305.929 424.412 306.566 424.412Z" fill="#464646"/>
<path d="M587.752 416.877V434.332H585.638V419.093H585.536L581.275 421.923V419.775L585.638 416.877H587.752ZM598.226 434.571C597.226 434.571 596.326 434.372 595.525 433.974C594.723 433.576 594.081 433.031 593.598 432.338C593.115 431.645 592.851 430.855 592.806 429.968H594.851C594.931 430.758 595.289 431.412 595.925 431.929C596.567 432.44 597.334 432.696 598.226 432.696C598.942 432.696 599.578 432.528 600.135 432.193C600.698 431.858 601.138 431.397 601.456 430.812C601.78 430.221 601.942 429.554 601.942 428.809C601.942 428.048 601.775 427.369 601.439 426.772C601.11 426.17 600.655 425.696 600.076 425.349C599.496 425.002 598.834 424.826 598.09 424.821C597.556 424.815 597.007 424.897 596.445 425.068C595.882 425.233 595.419 425.446 595.056 425.707L593.078 425.468L594.135 416.877H603.203V418.752H595.908L595.294 423.9H595.397C595.755 423.616 596.203 423.38 596.743 423.193C597.283 423.005 597.846 422.912 598.431 422.912C599.499 422.912 600.451 423.167 601.286 423.679C602.127 424.184 602.786 424.877 603.263 425.758C603.746 426.639 603.988 427.645 603.988 428.775C603.988 429.889 603.738 430.883 603.238 431.758C602.743 432.627 602.061 433.315 601.192 433.821C600.323 434.321 599.334 434.571 598.226 434.571Z" fill="#464646"/>
<path d="M784.104 434.332V432.798L789.865 426.491C790.541 425.752 791.098 425.11 791.536 424.565C791.973 424.014 792.297 423.497 792.507 423.014C792.723 422.525 792.831 422.014 792.831 421.48C792.831 420.866 792.683 420.335 792.388 419.886C792.098 419.437 791.7 419.091 791.195 418.846C790.689 418.602 790.121 418.48 789.49 418.48C788.82 418.48 788.234 418.619 787.734 418.897C787.24 419.17 786.857 419.554 786.584 420.048C786.317 420.542 786.183 421.122 786.183 421.787H784.172C784.172 420.764 784.408 419.866 784.879 419.093C785.351 418.321 785.993 417.718 786.805 417.287C787.624 416.855 788.541 416.639 789.558 416.639C790.581 416.639 791.487 416.855 792.277 417.287C793.067 417.718 793.686 418.301 794.135 419.034C794.584 419.767 794.808 420.582 794.808 421.48C794.808 422.122 794.692 422.75 794.459 423.363C794.232 423.971 793.834 424.65 793.266 425.4C792.703 426.145 791.922 427.054 790.922 428.127L787.001 432.321V432.457H795.115V434.332H784.104ZM804.328 434.571C803.044 434.571 801.95 434.221 801.047 433.522C800.143 432.818 799.453 431.798 798.976 430.463C798.499 429.122 798.26 427.502 798.26 425.605C798.26 423.718 798.499 422.108 798.976 420.772C799.459 419.431 800.152 418.409 801.055 417.704C801.964 416.994 803.055 416.639 804.328 416.639C805.601 416.639 806.689 416.994 807.592 417.704C808.501 418.409 809.195 419.431 809.672 420.772C810.155 422.108 810.396 423.718 810.396 425.605C810.396 427.502 810.158 429.122 809.68 430.463C809.203 431.798 808.513 432.818 807.609 433.522C806.706 434.221 805.612 434.571 804.328 434.571ZM804.328 432.696C805.601 432.696 806.589 432.082 807.294 430.855C807.999 429.627 808.351 427.877 808.351 425.605C808.351 424.093 808.189 422.806 807.865 421.744C807.547 420.681 807.087 419.872 806.484 419.315C805.888 418.758 805.169 418.48 804.328 418.48C803.067 418.48 802.081 419.102 801.371 420.346C800.661 421.585 800.305 423.338 800.305 425.605C800.305 427.116 800.464 428.4 800.783 429.457C801.101 430.514 801.558 431.318 802.155 431.869C802.757 432.42 803.482 432.696 804.328 432.696Z" fill="#464646"/>
<path d="M826.901 434.332V432.798L832.662 426.491C833.338 425.752 833.895 425.11 834.333 424.565C834.77 424.014 835.094 423.497 835.304 423.014C835.52 422.525 835.628 422.014 835.628 421.48C835.628 420.866 835.48 420.335 835.185 419.886C834.895 419.437 834.497 419.091 833.992 418.846C833.486 418.602 832.918 418.48 832.287 418.48C831.617 418.48 831.031 418.619 830.531 418.897C830.037 419.17 829.654 419.554 829.381 420.048C829.114 420.542 828.98 421.122 828.98 421.787H826.969C826.969 420.764 827.205 419.866 827.676 419.093C828.148 418.321 828.79 417.718 829.602 417.287C830.421 416.855 831.338 416.639 832.355 416.639C833.378 416.639 834.284 416.855 835.074 417.287C835.864 417.718 836.483 418.301 836.932 419.034C837.381 419.767 837.605 420.582 837.605 421.48C837.605 422.122 837.489 422.75 837.256 423.363C837.029 423.971 836.631 424.65 836.063 425.4C835.5 426.145 834.719 427.054 833.719 428.127L829.798 432.321V432.457H837.912V434.332H826.901ZM847.568 416.877V434.332H845.455V419.093H845.352L841.091 421.923V419.775L845.455 416.877H847.568Z" fill="#464646"/>
<path d="M102.251 434.571C101.126 434.571 100.124 434.377 99.2428 433.991C98.3678 433.605 97.6718 433.068 97.1548 432.38C96.6434 431.687 96.365 430.883 96.3195 429.968H98.4673C98.5127 430.531 98.7059 431.017 99.0468 431.426C99.3877 431.829 99.8337 432.142 100.385 432.363C100.936 432.585 101.547 432.696 102.217 432.696C102.967 432.696 103.632 432.565 104.212 432.304C104.791 432.042 105.246 431.679 105.575 431.213C105.905 430.747 106.07 430.207 106.07 429.593C106.07 428.951 105.91 428.386 105.592 427.897C105.274 427.403 104.808 427.017 104.195 426.738C103.581 426.46 102.831 426.321 101.945 426.321H100.547V424.446H101.945C102.638 424.446 103.246 424.321 103.768 424.071C104.297 423.821 104.709 423.468 105.004 423.014C105.305 422.559 105.456 422.025 105.456 421.412C105.456 420.821 105.325 420.306 105.064 419.869C104.802 419.431 104.433 419.091 103.956 418.846C103.484 418.602 102.927 418.48 102.285 418.48C101.683 418.48 101.115 418.591 100.581 418.812C100.052 419.028 99.6207 419.343 99.2854 419.758C98.9502 420.167 98.7684 420.662 98.74 421.241H96.6945C96.7286 420.326 97.0042 419.525 97.5212 418.838C98.0383 418.145 98.7144 417.605 99.5497 417.218C100.391 416.832 101.314 416.639 102.32 416.639C103.399 416.639 104.325 416.858 105.098 417.295C105.871 417.727 106.464 418.298 106.879 419.008C107.294 419.718 107.501 420.485 107.501 421.309C107.501 422.292 107.243 423.13 106.726 423.824C106.214 424.517 105.518 424.997 104.638 425.264V425.4C105.74 425.582 106.601 426.051 107.22 426.806C107.839 427.556 108.149 428.485 108.149 429.593C108.149 430.542 107.891 431.395 107.374 432.15C106.862 432.9 106.163 433.491 105.277 433.923C104.391 434.355 103.382 434.571 102.251 434.571Z" fill="#464646"/>
<path d="M347.313 416.639C348.029 416.645 348.745 416.781 349.461 417.048C350.177 417.315 350.83 417.758 351.421 418.377C352.012 418.991 352.486 419.829 352.844 420.892C353.202 421.954 353.381 423.287 353.381 424.889C353.381 426.44 353.234 427.818 352.938 429.022C352.648 430.221 352.228 431.233 351.677 432.056C351.131 432.88 350.466 433.505 349.682 433.931C348.904 434.358 348.023 434.571 347.04 434.571C346.063 434.571 345.191 434.377 344.424 433.991C343.662 433.599 343.037 433.056 342.549 432.363C342.066 431.664 341.756 430.855 341.62 429.934H343.699C343.887 430.735 344.259 431.397 344.816 431.92C345.378 432.437 346.12 432.696 347.04 432.696C348.387 432.696 349.449 432.108 350.228 430.931C351.012 429.755 351.404 428.093 351.404 425.946H351.268C350.949 426.423 350.572 426.835 350.134 427.181C349.697 427.528 349.211 427.795 348.677 427.983C348.143 428.17 347.574 428.264 346.972 428.264C345.972 428.264 345.055 428.017 344.219 427.522C343.39 427.022 342.725 426.338 342.225 425.468C341.731 424.593 341.484 423.593 341.484 422.468C341.484 421.4 341.722 420.423 342.199 419.537C342.682 418.645 343.359 417.934 344.228 417.406C345.103 416.877 346.131 416.622 347.313 416.639ZM347.313 418.514C346.597 418.514 345.952 418.693 345.378 419.051C344.81 419.403 344.359 419.88 344.023 420.483C343.694 421.079 343.529 421.741 343.529 422.468C343.529 423.196 343.688 423.858 344.006 424.454C344.33 425.045 344.77 425.517 345.327 425.869C345.89 426.216 346.529 426.389 347.245 426.389C347.785 426.389 348.287 426.284 348.753 426.074C349.219 425.858 349.626 425.565 349.972 425.196C350.324 424.821 350.6 424.397 350.799 423.926C350.998 423.449 351.097 422.951 351.097 422.434C351.097 421.752 350.932 421.113 350.603 420.517C350.279 419.92 349.83 419.437 349.256 419.068C348.688 418.699 348.04 418.514 347.313 418.514Z" fill="#464646"/>
<path d="M628.439 416.877V434.332H626.326V419.093H626.223L621.962 421.923V419.775L626.326 416.877H628.439ZM639.255 434.571C638.539 434.559 637.823 434.423 637.107 434.162C636.391 433.9 635.738 433.46 635.147 432.841C634.556 432.216 634.081 431.372 633.723 430.309C633.365 429.241 633.186 427.9 633.186 426.287C633.186 424.741 633.331 423.372 633.621 422.179C633.911 420.98 634.331 419.971 634.883 419.153C635.434 418.329 636.098 417.704 636.877 417.278C637.661 416.852 638.544 416.639 639.527 416.639C640.505 416.639 641.374 416.835 642.135 417.227C642.902 417.613 643.527 418.153 644.01 418.846C644.493 419.539 644.806 420.338 644.948 421.241H642.868C642.675 420.457 642.3 419.806 641.743 419.289C641.186 418.772 640.448 418.514 639.527 418.514C638.175 418.514 637.11 419.102 636.331 420.278C635.559 421.454 635.169 423.105 635.164 425.23H635.3C635.618 424.747 635.996 424.335 636.434 423.994C636.877 423.647 637.365 423.38 637.9 423.193C638.434 423.005 638.999 422.912 639.596 422.912C640.596 422.912 641.51 423.162 642.34 423.662C643.169 424.156 643.834 424.841 644.334 425.716C644.834 426.585 645.084 427.582 645.084 428.707C645.084 429.787 644.843 430.775 644.36 431.673C643.877 432.565 643.198 433.275 642.323 433.804C641.454 434.326 640.431 434.582 639.255 434.571ZM639.255 432.696C639.971 432.696 640.613 432.517 641.181 432.159C641.755 431.801 642.206 431.321 642.536 430.718C642.871 430.116 643.039 429.446 643.039 428.707C643.039 427.985 642.877 427.329 642.553 426.738C642.235 426.142 641.794 425.667 641.232 425.315C640.675 424.963 640.039 424.787 639.323 424.787C638.783 424.787 638.28 424.895 637.814 425.11C637.348 425.321 636.939 425.61 636.587 425.98C636.24 426.349 635.968 426.772 635.769 427.25C635.57 427.721 635.471 428.218 635.471 428.741C635.471 429.434 635.633 430.082 635.956 430.684C636.286 431.287 636.735 431.772 637.303 432.142C637.877 432.511 638.527 432.696 639.255 432.696Z" fill="#464646"/>
<path d="M136.761 430.752V429.014L144.431 416.877H145.693V419.571H144.841L139.045 428.741V428.877H149.375V430.752H136.761ZM144.977 434.332V430.224V429.414V416.877H146.988V434.332H144.977Z" fill="#464646"/>
<path d="M383.177 416.877V434.332H381.064V419.093H380.962L376.7 421.923V419.775L381.064 416.877H383.177ZM393.891 434.571C392.606 434.571 391.513 434.221 390.609 433.522C389.706 432.818 389.016 431.798 388.538 430.463C388.061 429.122 387.822 427.502 387.822 425.605C387.822 423.718 388.061 422.108 388.538 420.772C389.021 419.431 389.714 418.409 390.618 417.704C391.527 416.994 392.618 416.639 393.891 416.639C395.163 416.639 396.251 416.994 397.155 417.704C398.064 418.409 398.757 419.431 399.234 420.772C399.717 422.108 399.959 423.718 399.959 425.605C399.959 427.502 399.72 429.122 399.243 430.463C398.766 431.798 398.075 432.818 397.172 433.522C396.268 434.221 395.175 434.571 393.891 434.571ZM393.891 432.696C395.163 432.696 396.152 432.082 396.856 430.855C397.561 429.627 397.913 427.877 397.913 425.605C397.913 424.093 397.751 422.806 397.427 421.744C397.109 420.681 396.649 419.872 396.047 419.315C395.45 418.758 394.731 418.48 393.891 418.48C392.629 418.48 391.643 419.102 390.933 420.346C390.223 421.585 389.868 423.338 389.868 425.605C389.868 427.116 390.027 428.4 390.345 429.457C390.663 430.514 391.121 431.318 391.717 431.869C392.32 432.42 393.044 432.696 393.891 432.696Z" fill="#464646"/>
<path d="M669.947 416.877V434.332H667.833V419.093H667.731L663.47 421.923V419.775L667.833 416.877H669.947ZM675.512 434.332L683.319 418.889V418.752H674.319V416.877H685.501V418.855L677.728 434.332H675.512Z" fill="#464646"/>
<path d="M866.088 434.332V432.798L871.849 426.491C872.526 425.752 873.082 425.11 873.52 424.565C873.957 424.014 874.281 423.497 874.491 423.014C874.707 422.525 874.815 422.014 874.815 421.48C874.815 420.866 874.668 420.335 874.372 419.886C874.082 419.437 873.685 419.091 873.179 418.846C872.673 418.602 872.105 418.48 871.474 418.48C870.804 418.48 870.219 418.619 869.719 418.897C869.224 419.17 868.841 419.554 868.568 420.048C868.301 420.542 868.168 421.122 868.168 421.787H866.156C866.156 420.764 866.392 419.866 866.864 419.093C867.335 418.321 867.977 417.718 868.79 417.287C869.608 416.855 870.526 416.639 871.543 416.639C872.565 416.639 873.472 416.855 874.261 417.287C875.051 417.718 875.67 418.301 876.119 419.034C876.568 419.767 876.793 420.582 876.793 421.48C876.793 422.122 876.676 422.75 876.443 423.363C876.216 423.971 875.818 424.65 875.25 425.4C874.687 426.145 873.906 427.054 872.906 428.127L868.986 432.321V432.457H877.099V434.332H866.088ZM880.619 434.332V432.798L886.381 426.491C887.057 425.752 887.614 425.11 888.051 424.565C888.489 424.014 888.812 423.497 889.023 423.014C889.239 422.525 889.347 422.014 889.347 421.48C889.347 420.866 889.199 420.335 888.903 419.886C888.614 419.437 888.216 419.091 887.71 418.846C887.204 418.602 886.636 418.48 886.006 418.48C885.335 418.48 884.75 418.619 884.25 418.897C883.756 419.17 883.372 419.554 883.099 420.048C882.832 420.542 882.699 421.122 882.699 421.787H880.687C880.687 420.764 880.923 419.866 881.395 419.093C881.866 418.321 882.508 417.718 883.321 417.287C884.139 416.855 885.057 416.639 886.074 416.639C887.097 416.639 888.003 416.855 888.793 417.287C889.582 417.718 890.202 418.301 890.651 419.034C891.099 419.767 891.324 420.582 891.324 421.48C891.324 422.122 891.207 422.75 890.974 423.363C890.747 423.971 890.349 424.65 889.781 425.4C889.219 426.145 888.437 427.054 887.437 428.127L883.517 432.321V432.457H891.631V434.332H880.619Z" fill="#464646"/>
<path d="M906.588 434.332V432.798L912.349 426.491C913.025 425.752 913.582 425.11 914.02 424.565C914.457 424.014 914.781 423.497 914.991 423.014C915.207 422.525 915.315 422.014 915.315 421.48C915.315 420.866 915.167 420.335 914.872 419.886C914.582 419.437 914.185 419.091 913.679 418.846C913.173 418.602 912.605 418.48 911.974 418.48C911.304 418.48 910.719 418.619 910.219 418.897C909.724 419.17 909.341 419.554 909.068 420.048C908.801 420.542 908.667 421.122 908.667 421.787H906.656C906.656 420.764 906.892 419.866 907.364 419.093C907.835 418.321 908.477 417.718 909.29 417.287C910.108 416.855 911.025 416.639 912.042 416.639C913.065 416.639 913.971 416.855 914.761 417.287C915.551 417.718 916.17 418.301 916.619 419.034C917.068 419.767 917.292 420.582 917.292 421.48C917.292 422.122 917.176 422.75 916.943 423.363C916.716 423.971 916.318 424.65 915.75 425.4C915.187 426.145 914.406 427.054 913.406 428.127L909.486 432.321V432.457H917.599V434.332H906.588ZM927.017 434.571C925.892 434.571 924.889 434.377 924.008 433.991C923.133 433.605 922.437 433.068 921.92 432.38C921.409 431.687 921.131 430.883 921.085 429.968H923.233C923.278 430.531 923.471 431.017 923.812 431.426C924.153 431.829 924.599 432.142 925.15 432.363C925.702 432.585 926.312 432.696 926.983 432.696C927.733 432.696 928.398 432.565 928.977 432.304C929.557 432.042 930.011 431.679 930.341 431.213C930.67 430.747 930.835 430.207 930.835 429.593C930.835 428.951 930.676 428.386 930.358 427.897C930.04 427.403 929.574 427.017 928.96 426.738C928.346 426.46 927.596 426.321 926.71 426.321H925.312V424.446H926.71C927.403 424.446 928.011 424.321 928.534 424.071C929.062 423.821 929.474 423.468 929.77 423.014C930.071 422.559 930.221 422.025 930.221 421.412C930.221 420.821 930.091 420.306 929.829 419.869C929.568 419.431 929.199 419.091 928.721 418.846C928.25 418.602 927.693 418.48 927.051 418.48C926.449 418.48 925.881 418.591 925.346 418.812C924.818 419.028 924.386 419.343 924.051 419.758C923.716 420.167 923.534 420.662 923.506 421.241H921.46C921.494 420.326 921.77 419.525 922.287 418.838C922.804 418.145 923.48 417.605 924.315 417.218C925.156 416.832 926.079 416.639 927.085 416.639C928.165 416.639 929.091 416.858 929.864 417.295C930.636 417.727 931.23 418.298 931.645 419.008C932.06 419.718 932.267 420.485 932.267 421.309C932.267 422.292 932.008 423.13 931.491 423.824C930.98 424.517 930.284 424.997 929.403 425.264V425.4C930.506 425.582 931.366 426.051 931.986 426.806C932.605 427.556 932.915 428.485 932.915 429.593C932.915 430.542 932.656 431.395 932.139 432.15C931.628 432.9 930.929 433.491 930.042 433.923C929.156 434.355 928.148 434.571 927.017 434.571Z" fill="#464646"/>
<path d="M183.898 434.571C182.898 434.571 181.998 434.372 181.196 433.974C180.395 433.576 179.753 433.031 179.27 432.338C178.787 431.645 178.523 430.855 178.478 429.968H180.523C180.603 430.758 180.961 431.412 181.597 431.929C182.239 432.44 183.006 432.696 183.898 432.696C184.614 432.696 185.25 432.528 185.807 432.193C186.37 431.858 186.81 431.397 187.128 430.812C187.452 430.221 187.614 429.554 187.614 428.809C187.614 428.048 187.446 427.369 187.111 426.772C186.782 426.17 186.327 425.696 185.748 425.349C185.168 425.002 184.506 424.826 183.762 424.821C183.228 424.815 182.679 424.897 182.117 425.068C181.554 425.233 181.091 425.446 180.728 425.707L178.75 425.468L179.807 416.877H188.875V418.752H181.58L180.966 423.9H181.069C181.427 423.616 181.875 423.38 182.415 423.193C182.955 423.005 183.518 422.912 184.103 422.912C185.171 422.912 186.123 423.167 186.958 423.679C187.799 424.184 188.458 424.877 188.935 425.758C189.418 426.639 189.66 427.645 189.66 428.775C189.66 429.889 189.41 430.883 188.91 431.758C188.415 432.627 187.733 433.315 186.864 433.821C185.995 434.321 185.006 434.571 183.898 434.571Z" fill="#464646"/>
<path d="M425.974 416.877V434.332H423.861V419.093H423.759L419.497 421.923V419.775L423.861 416.877H425.974ZM437.131 416.877V434.332H435.017V419.093H434.915L430.653 421.923V419.775L435.017 416.877H437.131Z" fill="#464646"/>
<path d="M710.283 416.877V434.332H708.17V419.093H708.067L703.806 421.923V419.775L708.17 416.877H710.283ZM720.894 434.571C719.724 434.571 718.689 434.363 717.792 433.949C716.9 433.528 716.204 432.951 715.704 432.218C715.204 431.48 714.957 430.639 714.962 429.696C714.957 428.957 715.101 428.275 715.397 427.65C715.692 427.02 716.096 426.494 716.607 426.074C717.124 425.647 717.701 425.377 718.337 425.264V425.162C717.502 424.946 716.837 424.477 716.343 423.755C715.849 423.028 715.604 422.201 715.61 421.275C715.604 420.389 715.829 419.596 716.283 418.897C716.738 418.199 717.363 417.647 718.158 417.244C718.959 416.841 719.871 416.639 720.894 416.639C721.905 416.639 722.809 416.841 723.604 417.244C724.4 417.647 725.025 418.199 725.479 418.897C725.939 419.596 726.172 420.389 726.178 421.275C726.172 422.201 725.92 423.028 725.42 423.755C724.925 424.477 724.269 424.946 723.451 425.162V425.264C724.082 425.377 724.65 425.647 725.155 426.074C725.661 426.494 726.064 427.02 726.366 427.65C726.667 428.275 726.82 428.957 726.826 429.696C726.82 430.639 726.564 431.48 726.059 432.218C725.559 432.951 724.863 433.528 723.971 433.949C723.084 434.363 722.059 434.571 720.894 434.571ZM720.894 432.696C721.684 432.696 722.366 432.568 722.939 432.312C723.513 432.056 723.957 431.696 724.269 431.23C724.582 430.764 724.741 430.218 724.746 429.593C724.741 428.934 724.57 428.352 724.235 427.846C723.9 427.341 723.442 426.943 722.863 426.653C722.289 426.363 721.633 426.218 720.894 426.218C720.15 426.218 719.485 426.363 718.9 426.653C718.32 426.943 717.863 427.341 717.528 427.846C717.198 428.352 717.036 428.934 717.042 429.593C717.036 430.218 717.187 430.764 717.493 431.23C717.806 431.696 718.252 432.056 718.832 432.312C719.411 432.568 720.099 432.696 720.894 432.696ZM720.894 424.412C721.519 424.412 722.073 424.287 722.556 424.037C723.045 423.787 723.428 423.437 723.707 422.988C723.985 422.539 724.127 422.014 724.133 421.412C724.127 420.821 723.988 420.306 723.715 419.869C723.442 419.426 723.064 419.085 722.582 418.846C722.099 418.602 721.536 418.48 720.894 418.48C720.241 418.48 719.67 418.602 719.181 418.846C718.692 419.085 718.314 419.426 718.047 419.869C717.78 420.306 717.65 420.821 717.655 421.412C717.65 422.014 717.783 422.539 718.056 422.988C718.334 423.437 718.718 423.787 719.207 424.037C719.695 424.287 720.258 424.412 720.894 424.412Z" fill="#464646"/>
<path d="M224.926 434.571C224.211 434.559 223.495 434.423 222.779 434.162C222.063 433.9 221.409 433.46 220.819 432.841C220.228 432.216 219.753 431.372 219.395 430.309C219.037 429.241 218.858 427.9 218.858 426.287C218.858 424.741 219.003 423.372 219.293 422.179C219.583 420.98 220.003 419.971 220.554 419.153C221.105 418.329 221.77 417.704 222.549 417.278C223.333 416.852 224.216 416.639 225.199 416.639C226.176 416.639 227.046 416.835 227.807 417.227C228.574 417.613 229.199 418.153 229.682 418.846C230.165 419.539 230.478 420.338 230.62 421.241H228.54C228.347 420.457 227.972 419.806 227.415 419.289C226.858 418.772 226.12 418.514 225.199 418.514C223.847 418.514 222.782 419.102 222.003 420.278C221.23 421.454 220.841 423.105 220.836 425.23H220.972C221.29 424.747 221.668 424.335 222.105 423.994C222.549 423.647 223.037 423.38 223.571 423.193C224.105 423.005 224.671 422.912 225.267 422.912C226.267 422.912 227.182 423.162 228.012 423.662C228.841 424.156 229.506 424.841 230.006 425.716C230.506 426.585 230.756 427.582 230.756 428.707C230.756 429.787 230.515 430.775 230.032 431.673C229.549 432.565 228.87 433.275 227.995 433.804C227.125 434.326 226.103 434.582 224.926 434.571ZM224.926 432.696C225.642 432.696 226.284 432.517 226.853 432.159C227.426 431.801 227.878 431.321 228.208 430.718C228.543 430.116 228.711 429.446 228.711 428.707C228.711 427.985 228.549 427.329 228.225 426.738C227.907 426.142 227.466 425.667 226.904 425.315C226.347 424.963 225.711 424.787 224.995 424.787C224.455 424.787 223.952 424.895 223.486 425.11C223.02 425.321 222.611 425.61 222.259 425.98C221.912 426.349 221.64 426.772 221.441 427.25C221.242 427.721 221.142 428.218 221.142 428.741C221.142 429.434 221.304 430.082 221.628 430.684C221.958 431.287 222.407 431.772 222.975 432.142C223.549 432.511 224.199 432.696 224.926 432.696Z" fill="#464646"/>
<path d="M505.662 416.877V434.332H503.548V419.093H503.446L499.185 421.923V419.775L503.548 416.877H505.662ZM516.579 434.571C515.454 434.571 514.452 434.377 513.571 433.991C512.696 433.605 512 433.068 511.483 432.38C510.971 431.687 510.693 430.883 510.648 429.968H512.795C512.841 430.531 513.034 431.017 513.375 431.426C513.716 431.829 514.162 432.142 514.713 432.363C515.264 432.585 515.875 432.696 516.545 432.696C517.295 432.696 517.96 432.565 518.54 432.304C519.119 432.042 519.574 431.679 519.903 431.213C520.233 430.747 520.398 430.207 520.398 429.593C520.398 428.951 520.239 428.386 519.92 427.897C519.602 427.403 519.136 427.017 518.523 426.738C517.909 426.46 517.159 426.321 516.273 426.321H514.875V424.446H516.273C516.966 424.446 517.574 424.321 518.096 424.071C518.625 423.821 519.037 423.468 519.332 423.014C519.633 422.559 519.784 422.025 519.784 421.412C519.784 420.821 519.653 420.306 519.392 419.869C519.131 419.431 518.761 419.091 518.284 418.846C517.812 418.602 517.256 418.48 516.614 418.48C516.011 418.48 515.443 418.591 514.909 418.812C514.381 419.028 513.949 419.343 513.614 419.758C513.278 420.167 513.096 420.662 513.068 421.241H511.023C511.057 420.326 511.332 419.525 511.849 418.838C512.366 418.145 513.042 417.605 513.878 417.218C514.719 416.832 515.642 416.639 516.648 416.639C517.727 416.639 518.653 416.858 519.426 417.295C520.199 417.727 520.792 418.298 521.207 419.008C521.622 419.718 521.829 420.485 521.829 421.309C521.829 422.292 521.571 423.13 521.054 423.824C520.542 424.517 519.846 424.997 518.966 425.264V425.4C520.068 425.582 520.929 426.051 521.548 426.806C522.167 427.556 522.477 428.485 522.477 429.593C522.477 430.542 522.219 431.395 521.702 432.15C521.19 432.9 520.491 433.491 519.605 433.923C518.719 434.355 517.71 434.571 516.579 434.571Z" fill="#464646"/>
<path d="M261.184 434.332L268.991 418.889V418.752H259.991V416.877H271.173V418.855L263.4 434.332H261.184Z" fill="#464646"/>
<path d="M546.478 416.877V434.332H544.365V419.093H544.262L540.001 421.923V419.775L544.365 416.877H546.478ZM551.089 430.752V429.014L558.759 416.877H560.021V419.571H559.168L553.373 428.741V428.877H563.703V430.752H551.089ZM559.305 434.332V430.224V429.414V416.877H561.316V434.332H559.305Z" fill="#464646"/>
<path d="M465.162 416.877V434.332H463.048V419.093H462.946L458.685 421.923V419.775L463.048 416.877H465.162ZM470.182 434.332V432.798L475.943 426.491C476.619 425.752 477.176 425.11 477.614 424.565C478.051 424.014 478.375 423.497 478.585 423.014C478.801 422.525 478.909 422.014 478.909 421.48C478.909 420.866 478.762 420.335 478.466 419.886C478.176 419.437 477.779 419.091 477.273 418.846C476.767 418.602 476.199 418.48 475.568 418.48C474.898 418.48 474.313 418.619 473.813 418.897C473.318 419.17 472.935 419.554 472.662 420.048C472.395 420.542 472.262 421.122 472.262 421.787H470.25C470.25 420.764 470.486 419.866 470.958 419.093C471.429 418.321 472.071 417.718 472.884 417.287C473.702 416.855 474.619 416.639 475.637 416.639C476.659 416.639 477.566 416.855 478.355 417.287C479.145 417.718 479.764 418.301 480.213 419.034C480.662 419.767 480.887 420.582 480.887 421.48C480.887 422.122 480.77 422.75 480.537 423.363C480.31 423.971 479.912 424.65 479.344 425.4C478.781 426.145 478 427.054 477 428.127L473.08 432.321V432.457H481.193V434.332H470.182Z" fill="#464646"/>
<path d="M751.064 416.877V434.332H748.951V419.093H748.848L744.587 421.923V419.775L748.951 416.877H751.064ZM761.641 416.639C762.357 416.645 763.073 416.781 763.789 417.048C764.505 417.315 765.158 417.758 765.749 418.377C766.34 418.991 766.814 419.829 767.172 420.892C767.53 421.954 767.709 423.287 767.709 424.889C767.709 426.44 767.561 427.818 767.266 429.022C766.976 430.221 766.556 431.233 766.005 432.056C765.459 432.88 764.794 433.505 764.01 433.931C763.232 434.358 762.351 434.571 761.368 434.571C760.391 434.571 759.519 434.377 758.752 433.991C757.99 433.599 757.365 433.056 756.877 432.363C756.394 431.664 756.084 430.855 755.948 429.934H758.027C758.215 430.735 758.587 431.397 759.144 431.92C759.706 432.437 760.448 432.696 761.368 432.696C762.715 432.696 763.777 432.108 764.556 430.931C765.34 429.755 765.732 428.093 765.732 425.946H765.596C765.277 426.423 764.9 426.835 764.462 427.181C764.025 427.528 763.539 427.795 763.005 427.983C762.471 428.17 761.902 428.264 761.3 428.264C760.3 428.264 759.383 428.017 758.547 427.522C757.718 427.022 757.053 426.338 756.553 425.468C756.059 424.593 755.811 423.593 755.811 422.468C755.811 421.4 756.05 420.423 756.527 419.537C757.01 418.645 757.686 417.934 758.556 417.406C759.431 416.877 760.459 416.622 761.641 416.639ZM761.641 418.514C760.925 418.514 760.28 418.693 759.706 419.051C759.138 419.403 758.686 419.88 758.351 420.483C758.022 421.079 757.857 421.741 757.857 422.468C757.857 423.196 758.016 423.858 758.334 424.454C758.658 425.045 759.098 425.517 759.655 425.869C760.218 426.216 760.857 426.389 761.573 426.389C762.113 426.389 762.615 426.284 763.081 426.074C763.547 425.858 763.954 425.565 764.3 425.196C764.652 424.821 764.928 424.397 765.127 423.926C765.326 423.449 765.425 422.951 765.425 422.434C765.425 421.752 765.26 421.113 764.931 420.517C764.607 419.92 764.158 419.437 763.584 419.068C763.016 418.699 762.368 418.514 761.641 418.514Z" fill="#464646"/>
<path d="M947.592 434.332V432.798L953.353 426.491C954.029 425.752 954.586 425.11 955.024 424.565C955.461 424.014 955.785 423.497 955.995 423.014C956.211 422.525 956.319 422.014 956.319 421.48C956.319 420.866 956.172 420.335 955.876 419.886C955.586 419.437 955.189 419.091 954.683 418.846C954.177 418.602 953.609 418.48 952.978 418.48C952.308 418.48 951.723 418.619 951.223 418.897C950.728 419.17 950.345 419.554 950.072 420.048C949.805 420.542 949.672 421.122 949.672 421.787H947.66C947.66 420.764 947.896 419.866 948.368 419.093C948.839 418.321 949.481 417.718 950.294 417.287C951.112 416.855 952.029 416.639 953.047 416.639C954.069 416.639 954.975 416.855 955.765 417.287C956.555 417.718 957.174 418.301 957.623 419.034C958.072 419.767 958.297 420.582 958.297 421.48C958.297 422.122 958.18 422.75 957.947 423.363C957.72 423.971 957.322 424.65 956.754 425.4C956.191 426.145 955.41 427.054 954.41 428.127L950.49 432.321V432.457H958.603V434.332H947.592ZM961.339 430.752V429.014L969.01 416.877H970.271V419.571H969.419L963.623 428.741V428.877H973.953V430.752H961.339ZM969.555 434.332V430.224V429.414V416.877H971.566V434.332H969.555Z" fill="#464646"/>
<g filter="url(#filter0_d_1646_6404)">
<path d="M123.058 311.461L136.116 297L123.058 303.674L108.55 317.764L123.058 311.461Z" fill="#EBC99C"/>
</g>
<g filter="url(#filter1_d_1646_6404)">
<path d="M246.38 311.461L233.322 297L246.38 303.674L260.888 317.764L246.38 311.461Z" fill="#EBC99C"/>
</g>
<rect x="123.058" y="310.349" width="124.047" height="91.2151" fill="#E6A352"/>
<rect x="136.116" y="297" width="97.2064" height="13.3486" fill="#BC8239"/>
<path d="M123.058 310.349L136.116 297V310.349H123.058Z" fill="#936122"/>
<path d="M247.051 310.349H123.113L112.177 325.922H257.987L247.051 310.349Z" fill="#ECC290"/>
<path d="M246.38 310.349L233.323 297V310.349H246.38Z" fill="#AE752E"/>
<g filter="url(#filter2_d_1646_6404)">
<path d="M327.236 311.461L340.294 297L327.236 303.674L312.728 317.764L327.236 311.461Z" fill="#EBC99C"/>
</g>
<g filter="url(#filter3_d_1646_6404)">
<path d="M450.558 311.461L437.5 297L450.558 303.674L465.066 317.764L450.558 311.461Z" fill="#EBC99C"/>
</g>
<rect x="327.236" y="310.349" width="124.047" height="91.2151" fill="#E6A352"/>
<rect x="340.293" y="297" width="97.2064" height="13.3486" fill="#BC8239"/>
<path d="M327.236 310.349L340.293 297V310.349H327.236Z" fill="#936122"/>
<path d="M451.229 310.349H327.29L316.355 325.922H462.164L451.229 310.349Z" fill="#ECC290"/>
<path d="M450.558 310.349L437.5 297V310.349H450.558Z" fill="#AE752E"/>
<g filter="url(#filter4_d_1646_6404)">
<path d="M531.414 311.461L544.471 297L531.414 303.674L516.905 317.764L531.414 311.461Z" fill="#EBC99C"/>
</g>
<g filter="url(#filter5_d_1646_6404)">
<path d="M654.735 311.461L641.677 297L654.735 303.674L669.243 317.764L654.735 311.461Z" fill="#EBC99C"/>
</g>
<rect x="531.413" y="310.349" width="124.047" height="91.2151" fill="#E6A352"/>
<rect x="544.471" y="297" width="97.2064" height="13.3486" fill="#BC8239"/>
<path d="M531.413 310.349L544.471 297V310.349H531.413Z" fill="#936122"/>
<path d="M655.406 310.349H531.468L520.532 325.922H666.342L655.406 310.349Z" fill="#ECC290"/>
<path d="M654.735 310.349L641.678 297V310.349H654.735Z" fill="#AE752E"/>
<g filter="url(#filter6_d_1646_6404)">
<path d="M735.591 311.461L748.649 297L735.591 303.674L721.083 317.764L735.591 311.461Z" fill="#EBC99C"/>
</g>
<g filter="url(#filter7_d_1646_6404)">
<path d="M858.913 311.461L845.855 297L858.913 303.674L873.421 317.764L858.913 311.461Z" fill="#EBC99C"/>
</g>
<rect x="735.591" y="310.349" width="124.047" height="91.2151" fill="#E6A352"/>
<rect x="748.648" y="297" width="97.2064" height="13.3486" fill="#BC8239"/>
<path d="M735.591 310.349L748.649 297V310.349H735.591Z" fill="#936122"/>
<path d="M859.584 310.349H735.645L724.71 325.922H870.519L859.584 310.349Z" fill="#ECC290"/>
<path d="M858.913 310.349L845.855 297V310.349H858.913Z" fill="#AE752E"/>
<path d="M285.705 203.013L285.802 210.513L285.802 210.513L285.705 203.013ZM359.34 284.814L366.397 198.499L288.118 235.545L359.34 284.814ZM211.633 262.708C218.957 264.322 218.957 264.326 218.956 264.329C218.956 264.329 218.955 264.332 218.955 264.334C218.954 264.337 218.954 264.339 218.954 264.34C218.953 264.342 218.953 264.341 218.954 264.337C218.956 264.328 218.962 264.305 218.97 264.269C218.987 264.197 219.017 264.073 219.062 263.898C219.15 263.55 219.296 263.005 219.505 262.292C219.926 260.864 220.602 258.77 221.598 256.231C223.598 251.135 226.843 244.357 231.807 237.595C241.614 224.234 258.102 210.871 285.802 210.513L285.607 195.514C252.218 195.946 231.67 212.431 219.715 228.719C213.796 236.782 209.978 244.78 207.634 250.752C206.459 253.748 205.644 256.262 205.115 258.059C204.851 258.957 204.658 259.679 204.526 260.194C204.461 260.452 204.41 260.658 204.375 260.809C204.357 260.884 204.342 260.946 204.332 260.994C204.326 261.018 204.321 261.038 204.318 261.055C204.316 261.063 204.314 261.07 204.313 261.077C204.312 261.08 204.311 261.084 204.311 261.086C204.31 261.09 204.309 261.094 211.633 262.708ZM285.802 210.513C302.365 210.298 315.032 217.898 324.899 228.829L336.034 218.778C324.1 205.557 307.575 195.229 285.607 195.514L285.802 210.513Z" fill="#5D71A7"/>
<path d="M703.705 203.013L703.802 210.513L703.802 210.513L703.705 203.013ZM777.34 284.814L784.397 198.499L706.118 235.545L777.34 284.814ZM629.633 262.708C636.957 264.322 636.957 264.326 636.956 264.329C636.956 264.329 636.955 264.332 636.955 264.334C636.954 264.337 636.954 264.339 636.954 264.34C636.953 264.342 636.953 264.341 636.954 264.337C636.956 264.328 636.962 264.305 636.97 264.269C636.987 264.197 637.017 264.073 637.062 263.898C637.15 263.55 637.296 263.005 637.505 262.292C637.926 260.864 638.602 258.77 639.598 256.231C641.598 251.135 644.843 244.357 649.807 237.595C659.614 224.234 676.102 210.871 703.802 210.513L703.607 195.514C670.218 195.946 649.67 212.431 637.715 228.719C631.796 236.782 627.978 244.78 625.634 250.752C624.459 253.748 623.644 256.262 623.115 258.059C622.851 258.957 622.658 259.679 622.526 260.194C622.461 260.452 622.41 260.658 622.375 260.809C622.357 260.884 622.342 260.946 622.332 260.994C622.326 261.018 622.321 261.038 622.318 261.055C622.316 261.063 622.314 261.07 622.313 261.077C622.312 261.08 622.311 261.084 622.311 261.086C622.31 261.09 622.309 261.094 629.633 262.708ZM703.802 210.513C720.365 210.298 733.032 217.898 742.899 228.829L754.034 218.778C742.1 205.557 725.575 195.229 703.607 195.514L703.802 210.513Z" fill="#5D71A7"/>
<path d="M494.705 203.013L494.802 210.513L494.802 210.513L494.705 203.013ZM568.34 284.814L575.397 198.499L497.118 235.545L568.34 284.814ZM420.633 262.708C427.957 264.322 427.957 264.326 427.956 264.329C427.956 264.329 427.955 264.332 427.955 264.334C427.954 264.337 427.954 264.339 427.954 264.34C427.953 264.342 427.953 264.341 427.954 264.337C427.956 264.328 427.962 264.305 427.97 264.269C427.987 264.197 428.017 264.073 428.062 263.898C428.15 263.55 428.296 263.005 428.505 262.292C428.926 260.864 429.602 258.77 430.598 256.231C432.598 251.135 435.843 244.357 440.807 237.595C450.614 224.234 467.102 210.871 494.802 210.513L494.607 195.514C461.218 195.946 440.67 212.431 428.715 228.719C422.796 236.782 418.978 244.78 416.634 250.752C415.459 253.748 414.644 256.262 414.115 258.059C413.851 258.957 413.658 259.679 413.526 260.194C413.461 260.452 413.41 260.658 413.375 260.809C413.357 260.884 413.342 260.946 413.332 260.994C413.326 261.018 413.321 261.038 413.318 261.055C413.316 261.063 413.314 261.07 413.313 261.077C413.312 261.08 413.311 261.084 413.311 261.086C413.31 261.09 413.309 261.094 420.633 262.708ZM494.802 210.513C511.365 210.298 524.032 217.898 533.899 228.829L545.034 218.778C533.1 205.557 516.575 195.229 494.607 195.514L494.802 210.513Z" fill="#5D71A7"/>
<path d="M489.635 544.428L489.538 536.929L489.538 536.929L489.635 544.428ZM416 462.628L408.943 548.942L487.222 511.896L416 462.628ZM563.706 484.733C556.382 483.119 556.383 483.116 556.384 483.113C556.384 483.112 556.384 483.109 556.385 483.108C556.385 483.105 556.386 483.103 556.386 483.102C556.387 483.099 556.386 483.1 556.385 483.105C556.383 483.114 556.378 483.136 556.37 483.172C556.353 483.244 556.322 483.369 556.278 483.543C556.189 483.891 556.044 484.436 555.834 485.149C555.414 486.578 554.738 488.671 553.742 491.21C551.742 496.307 548.497 503.084 543.533 509.846C533.725 523.208 517.238 536.57 489.538 536.929L489.732 551.928C523.121 551.495 543.67 535.01 555.625 518.722C561.543 510.66 565.362 502.661 567.705 496.689C568.881 493.693 569.696 491.179 570.224 489.383C570.489 488.484 570.682 487.762 570.813 487.247C570.879 486.99 570.929 486.784 570.965 486.633C570.983 486.557 570.997 486.495 571.008 486.448C571.014 486.424 571.018 486.404 571.022 486.387C571.024 486.379 571.026 486.371 571.027 486.365C571.028 486.361 571.029 486.357 571.029 486.355C571.03 486.352 571.031 486.348 563.706 484.733ZM489.538 536.929C472.975 537.143 460.308 529.544 450.44 518.612L439.306 528.663C451.24 541.884 467.765 552.212 489.732 551.928L489.538 536.929Z" fill="#FEC900"/>
<path d="M277.635 544.428L277.538 536.929L277.538 536.929L277.635 544.428ZM204 462.628L196.943 548.942L275.222 511.896L204 462.628ZM351.706 484.733C344.382 483.119 344.383 483.116 344.384 483.113C344.384 483.112 344.384 483.109 344.385 483.108C344.385 483.105 344.386 483.103 344.386 483.102C344.387 483.099 344.386 483.1 344.385 483.105C344.383 483.114 344.378 483.136 344.37 483.172C344.353 483.244 344.322 483.369 344.278 483.543C344.189 483.891 344.044 484.436 343.834 485.149C343.414 486.578 342.738 488.671 341.742 491.21C339.742 496.307 336.497 503.084 331.533 509.846C321.725 523.208 305.238 536.57 277.538 536.929L277.732 551.928C311.121 551.495 331.67 535.01 343.625 518.722C349.543 510.66 353.362 502.661 355.705 496.689C356.881 493.693 357.696 491.179 358.224 489.383C358.489 488.484 358.682 487.762 358.813 487.247C358.879 486.99 358.929 486.784 358.965 486.633C358.983 486.557 358.997 486.495 359.008 486.448C359.014 486.424 359.018 486.404 359.022 486.387C359.024 486.379 359.026 486.371 359.027 486.365C359.028 486.361 359.029 486.357 359.029 486.355C359.03 486.352 359.031 486.348 351.706 484.733ZM277.538 536.929C260.975 537.143 248.308 529.544 238.44 518.612L227.306 528.663C239.24 541.884 255.765 552.212 277.732 551.928L277.538 536.929Z" fill="#FEC900"/>
<path d="M698.635 544.428L698.538 536.929L698.538 536.929L698.635 544.428ZM625 462.628L617.943 548.942L696.222 511.896L625 462.628ZM772.706 484.733C765.382 483.119 765.383 483.116 765.384 483.113C765.384 483.112 765.384 483.109 765.385 483.108C765.385 483.105 765.386 483.103 765.386 483.102C765.387 483.099 765.386 483.1 765.385 483.105C765.383 483.114 765.378 483.136 765.37 483.172C765.353 483.244 765.322 483.369 765.278 483.543C765.189 483.891 765.044 484.436 764.834 485.149C764.414 486.578 763.738 488.671 762.742 491.21C760.742 496.307 757.497 503.084 752.533 509.846C742.725 523.208 726.238 536.57 698.538 536.929L698.732 551.928C732.121 551.495 752.67 535.01 764.625 518.722C770.543 510.66 774.362 502.661 776.705 496.689C777.881 493.693 778.696 491.179 779.224 489.383C779.489 488.484 779.682 487.762 779.813 487.247C779.879 486.99 779.929 486.784 779.965 486.633C779.983 486.557 779.997 486.495 780.008 486.448C780.014 486.424 780.018 486.404 780.022 486.387C780.024 486.379 780.026 486.371 780.027 486.365C780.028 486.361 780.029 486.357 780.029 486.355C780.03 486.352 780.031 486.348 772.706 484.733ZM698.538 536.929C681.975 537.143 669.308 529.544 659.44 518.612L648.306 528.663C660.24 541.884 676.765 552.212 698.732 551.928L698.538 536.929Z" fill="#FEC900"/>
<defs>
<filter id="filter0_d_1646_6404" x="104.55" y="297" width="35.566" height="28.7646" filterUnits="userSpaceOnUse" color-interpolation-filters="sRGB">
<feFlood flood-opacity="0" result="BackgroundImageFix"/>
<feColorMatrix in="SourceAlpha" type="matrix" values="0 0 0 0 0 0 0 0 0 0 0 0 0 0 0 0 0 0 127 0" result="hardAlpha"/>
<feOffset dy="4"/>
<feGaussianBlur stdDeviation="2"/>
<feComposite in2="hardAlpha" operator="out"/>
<feColorMatrix type="matrix" values="0 0 0 0 0 0 0 0 0 0 0 0 0 0 0 0 0 0 0.1 0"/>
<feBlend mode="normal" in2="BackgroundImageFix" result="effect1_dropShadow_1646_6404"/>
<feBlend mode="normal" in="SourceGraphic" in2="effect1_dropShadow_1646_6404" result="shape"/>
</filter>
<filter id="filter1_d_1646_6404" x="229.322" y="297" width="35.566" height="28.7646" filterUnits="userSpaceOnUse" color-interpolation-filters="sRGB">
<feFlood flood-opacity="0" result="BackgroundImageFix"/>
<feColorMatrix in="SourceAlpha" type="matrix" values="0 0 0 0 0 0 0 0 0 0 0 0 0 0 0 0 0 0 127 0" result="hardAlpha"/>
<feOffset dy="4"/>
<feGaussianBlur stdDeviation="2"/>
<feComposite in2="hardAlpha" operator="out"/>
<feColorMatrix type="matrix" values="0 0 0 0 0 0 0 0 0 0 0 0 0 0 0 0 0 0 0.1 0"/>
<feBlend mode="normal" in2="BackgroundImageFix" result="effect1_dropShadow_1646_6404"/>
<feBlend mode="normal" in="SourceGraphic" in2="effect1_dropShadow_1646_6404" result="shape"/>
</filter>
<filter id="filter2_d_1646_6404" x="308.728" y="297" width="35.566" height="28.7646" filterUnits="userSpaceOnUse" color-interpolation-filters="sRGB">
<feFlood flood-opacity="0" result="BackgroundImageFix"/>
<feColorMatrix in="SourceAlpha" type="matrix" values="0 0 0 0 0 0 0 0 0 0 0 0 0 0 0 0 0 0 127 0" result="hardAlpha"/>
<feOffset dy="4"/>
<feGaussianBlur stdDeviation="2"/>
<feComposite in2="hardAlpha" operator="out"/>
<feColorMatrix type="matrix" values="0 0 0 0 0 0 0 0 0 0 0 0 0 0 0 0 0 0 0.1 0"/>
<feBlend mode="normal" in2="BackgroundImageFix" result="effect1_dropShadow_1646_6404"/>
<feBlend mode="normal" in="SourceGraphic" in2="effect1_dropShadow_1646_6404" result="shape"/>
</filter>
<filter id="filter3_d_1646_6404" x="433.5" y="297" width="35.566" height="28.7646" filterUnits="userSpaceOnUse" color-interpolation-filters="sRGB">
<feFlood flood-opacity="0" result="BackgroundImageFix"/>
<feColorMatrix in="SourceAlpha" type="matrix" values="0 0 0 0 0 0 0 0 0 0 0 0 0 0 0 0 0 0 127 0" result="hardAlpha"/>
<feOffset dy="4"/>
<feGaussianBlur stdDeviation="2"/>
<feComposite in2="hardAlpha" operator="out"/>
<feColorMatrix type="matrix" values="0 0 0 0 0 0 0 0 0 0 0 0 0 0 0 0 0 0 0.1 0"/>
<feBlend mode="normal" in2="BackgroundImageFix" result="effect1_dropShadow_1646_6404"/>
<feBlend mode="normal" in="SourceGraphic" in2="effect1_dropShadow_1646_6404" result="shape"/>
</filter>
<filter id="filter4_d_1646_6404" x="512.905" y="297" width="35.566" height="28.7646" filterUnits="userSpaceOnUse" color-interpolation-filters="sRGB">
<feFlood flood-opacity="0" result="BackgroundImageFix"/>
<feColorMatrix in="SourceAlpha" type="matrix" values="0 0 0 0 0 0 0 0 0 0 0 0 0 0 0 0 0 0 127 0" result="hardAlpha"/>
<feOffset dy="4"/>
<feGaussianBlur stdDeviation="2"/>
<feComposite in2="hardAlpha" operator="out"/>
<feColorMatrix type="matrix" values="0 0 0 0 0 0 0 0 0 0 0 0 0 0 0 0 0 0 0.1 0"/>
<feBlend mode="normal" in2="BackgroundImageFix" result="effect1_dropShadow_1646_6404"/>
<feBlend mode="normal" in="SourceGraphic" in2="effect1_dropShadow_1646_6404" result="shape"/>
</filter>
<filter id="filter5_d_1646_6404" x="637.677" y="297" width="35.566" height="28.7646" filterUnits="userSpaceOnUse" color-interpolation-filters="sRGB">
<feFlood flood-opacity="0" result="BackgroundImageFix"/>
<feColorMatrix in="SourceAlpha" type="matrix" values="0 0 0 0 0 0 0 0 0 0 0 0 0 0 0 0 0 0 127 0" result="hardAlpha"/>
<feOffset dy="4"/>
<feGaussianBlur stdDeviation="2"/>
<feComposite in2="hardAlpha" operator="out"/>
<feColorMatrix type="matrix" values="0 0 0 0 0 0 0 0 0 0 0 0 0 0 0 0 0 0 0.1 0"/>
<feBlend mode="normal" in2="BackgroundImageFix" result="effect1_dropShadow_1646_6404"/>
<feBlend mode="normal" in="SourceGraphic" in2="effect1_dropShadow_1646_6404" result="shape"/>
</filter>
<filter id="filter6_d_1646_6404" x="717.083" y="297" width="35.566" height="28.7646" filterUnits="userSpaceOnUse" color-interpolation-filters="sRGB">
<feFlood flood-opacity="0" result="BackgroundImageFix"/>
<feColorMatrix in="SourceAlpha" type="matrix" values="0 0 0 0 0 0 0 0 0 0 0 0 0 0 0 0 0 0 127 0" result="hardAlpha"/>
<feOffset dy="4"/>
<feGaussianBlur stdDeviation="2"/>
<feComposite in2="hardAlpha" operator="out"/>
<feColorMatrix type="matrix" values="0 0 0 0 0 0 0 0 0 0 0 0 0 0 0 0 0 0 0.1 0"/>
<feBlend mode="normal" in2="BackgroundImageFix" result="effect1_dropShadow_1646_6404"/>
<feBlend mode="normal" in="SourceGraphic" in2="effect1_dropShadow_1646_6404" result="shape"/>
</filter>
<filter id="filter7_d_1646_6404" x="841.855" y="297" width="35.566" height="28.7646" filterUnits="userSpaceOnUse" color-interpolation-filters="sRGB">
<feFlood flood-opacity="0" result="BackgroundImageFix"/>
<feColorMatrix in="SourceAlpha" type="matrix" values="0 0 0 0 0 0 0 0 0 0 0 0 0 0 0 0 0 0 127 0" result="hardAlpha"/>
<feOffset dy="4"/>
<feGaussianBlur stdDeviation="2"/>
<feComposite in2="hardAlpha" operator="out"/>
<feColorMatrix type="matrix" values="0 0 0 0 0 0 0 0 0 0 0 0 0 0 0 0 0 0 0.1 0"/>
<feBlend mode="normal" in2="BackgroundImageFix" result="effect1_dropShadow_1646_6404"/>
<feBlend mode="normal" in="SourceGraphic" in2="effect1_dropShadow_1646_6404" result="shape"/>
</filter>
</defs>
</svg>
