<?xml version="1.0" encoding="UTF-8"?>
<!DOCTYPE svg PUBLIC "-//W3C//DTD SVG 1.1//EN" "http://www.w3.org/Graphics/SVG/1.1/DTD/svg11.dtd">
<svg xmlns="http://www.w3.org/2000/svg" version="1.1" width="510px" height="378.666667px" viewBox="0 0 1530 1134" style="shape-rendering:geometricPrecision; text-rendering:geometricPrecision; image-rendering:optimizeQuality; fill-rule:evenodd; clip-rule:evenodd" xmlns:xlink="http://www.w3.org/1999/xlink">
<g><path style="opacity:1" fill="#fefefe" d="M -0.5,-0.5 C 509.5,-0.5 1019.5,-0.5 1529.5,-0.5C 1529.5,378.167 1529.5,756.833 1529.5,1135.5C 1019.5,1135.5 509.5,1135.5 -0.5,1135.5C -0.5,756.833 -0.5,378.167 -0.5,-0.5 Z"/></g>
<g><path style="opacity:1" fill="#060606" d="M 1340.5,57.5 C 1336.37,58.4849 1332.03,58.8182 1327.5,58.5C 1323.76,52.6871 1319.76,47.0204 1315.5,41.5C 1311.44,47.2081 1307.44,52.8747 1303.5,58.5C 1298.97,58.8182 1294.63,58.4849 1290.5,57.5C 1296.48,49.1849 1302.48,40.8515 1308.5,32.5C 1302.69,24.1928 1296.69,16.0262 1290.5,8C 1295.53,7.17105 1300.53,7.33772 1305.5,8.5C 1308.59,13.672 1311.92,18.672 1315.5,23.5C 1319.52,18.6345 1323.19,13.4679 1326.5,8C 1331.17,7.33333 1335.83,7.33333 1340.5,8C 1334.45,15.9447 1328.78,24.1113 1323.5,32.5C 1328.92,40.996 1334.58,49.3293 1340.5,57.5 Z"/></g>
<g><path style="opacity:1" fill="#646464" d="M 1290.5,57.5 C 1294.63,58.4849 1298.97,58.8182 1303.5,58.5C 1298.98,59.8124 1294.32,59.8124 1289.5,58.5C 1289.62,57.8933 1289.96,57.56 1290.5,57.5 Z"/></g>
<g><path style="opacity:1" fill="#5d5d5d" d="M 1340.5,57.5 C 1341.04,57.56 1341.38,57.8933 1341.5,58.5C 1336.68,59.8124 1332.02,59.8124 1327.5,58.5C 1332.03,58.8182 1336.37,58.4849 1340.5,57.5 Z"/></g>
<g><path style="opacity:1" fill="#171717" d="M 1109.5,334.5 C 1109.83,298.161 1109.5,261.827 1108.5,225.5C 1107.89,225.624 1107.56,225.957 1107.5,226.5C 1067.5,282.009 1027.66,337.676 988,393.5C 978.914,379.66 969.581,365.993 960,352.5C 780.503,455.914 601.17,559.581 422,663.5C 421.667,686.167 421.333,708.833 421,731.5C 418.643,737.193 414.477,740.693 408.5,742C 277.5,742.667 146.5,742.667 15.5,742C 10.0648,740.231 6.2315,736.731 4,731.5C 3.33333,656.167 3.33333,580.833 4,505.5C 6.22151,501.612 9.38817,498.779 13.5,497C 145.833,496.333 278.167,496.333 410.5,497C 415.573,498.406 419.073,501.572 421,506.5C 421.5,530.498 421.667,554.498 421.5,578.5C 586.728,484.214 751.728,389.381 916.5,294C 918.255,293.28 919.089,292.113 919,290.5C 909.833,276.833 900.667,263.167 891.5,249.5C 963.794,240.346 1036.13,231.346 1108.5,222.5C 1108.33,185.165 1108.5,147.832 1109,110.5C 1110.35,105.815 1113.18,102.315 1117.5,100C 1250.83,99.3333 1384.17,99.3333 1517.5,100C 1522,101.833 1525.17,105 1527,109.5C 1527.67,184.167 1527.67,258.833 1527,333.5C 1525.91,339.588 1522.41,343.421 1516.5,345C 1383.83,345.667 1251.17,345.667 1118.5,345C 1113.51,343.18 1110.51,339.68 1109.5,334.5 Z"/></g>
<g><path style="opacity:1" fill="#fefefe" d="M 1120.5,101.5 C 1252.17,101.333 1383.83,101.5 1515.5,102C 1519.69,103.526 1522.53,106.359 1524,110.5C 1524.67,184.833 1524.67,259.167 1524,333.5C 1523.33,337.499 1521.17,340.332 1517.5,342C 1383.75,342.996 1250.09,342.663 1116.5,341C 1114.38,339.269 1112.88,337.102 1112,334.5C 1111.33,259.5 1111.33,184.5 1112,109.5C 1114.1,105.897 1116.93,103.23 1120.5,101.5 Z"/></g>
<g><path style="opacity:1" fill="#606060" d="M 1107.5,226.5 C 1107.56,225.957 1107.89,225.624 1108.5,225.5C 1109.5,261.827 1109.83,298.161 1109.5,334.5C 1108.83,298.5 1108.17,262.5 1107.5,226.5 Z"/></g>
<g><path style="opacity:1" fill="#fefefe" d="M 1093.5,226.5 C 1096.9,226.18 1100.23,226.513 1103.5,227.5C 1065,281.167 1026.5,334.833 988,388.5C 979,375.167 970,361.833 961,348.5C 780.582,452.96 600.082,557.293 419.5,661.5C 418.667,684.826 418.167,708.16 418,731.5C 416.542,733.96 414.709,736.127 412.5,738C 279.889,739.661 147.222,739.995 14.5,739C 10.4067,736.993 7.57334,733.827 6,729.5C 5.33333,656.167 5.33333,582.833 6,509.5C 7.0095,505.157 9.5095,501.99 13.5,500C 145.833,499.333 278.167,499.333 410.5,500C 413.937,501.105 416.437,503.272 418,506.5C 418.167,532.173 418.667,557.84 419.5,583.5C 587.33,487.086 754.997,390.419 922.5,293.5C 923.521,292.998 923.688,292.332 923,291.5C 913.918,278.338 905.085,265.005 896.5,251.5C 962.286,243.069 1027.95,234.735 1093.5,226.5 Z"/></g>
<g><path style="opacity:1" fill="#0b0b0b" d="M 230.5,400.5 C 234.5,400.5 238.5,400.5 242.5,400.5C 242.5,403.5 242.5,406.5 242.5,409.5C 238.5,409.5 234.5,409.5 230.5,409.5C 230.5,406.5 230.5,403.5 230.5,400.5 Z"/></g>
<g><path style="opacity:1" fill="#040404" d="M 146.5,436.5 C 145.512,441.64 145.179,446.974 145.5,452.5C 141.5,452.5 137.5,452.5 133.5,452.5C 133.5,435.5 133.5,418.5 133.5,401.5C 144.505,401.333 155.505,401.5 166.5,402C 169.664,402.992 172.164,404.825 174,407.5C 174.896,415.246 174.563,422.913 173,430.5C 170.424,433.142 167.257,434.642 163.5,435C 157.652,435.173 151.985,435.673 146.5,436.5 Z"/></g>
<g><path style="opacity:1" fill="#a4a4a4" d="M 304.5,403.5 C 304.5,407.167 304.5,410.833 304.5,414.5C 301.833,414.5 299.167,414.5 296.5,414.5C 298.607,413.532 300.941,413.198 303.5,413.5C 303.187,409.958 303.521,406.625 304.5,403.5 Z"/></g>
<g><path style="opacity:1" fill="#030303" d="M 304.5,403.5 C 308.167,403.5 311.833,403.5 315.5,403.5C 315.5,407.167 315.5,410.833 315.5,414.5C 319.167,414.5 322.833,414.5 326.5,414.5C 326.5,416.833 326.5,419.167 326.5,421.5C 322.833,421.5 319.167,421.5 315.5,421.5C 315.334,428.841 315.5,436.174 316,443.5C 316.374,444.416 316.874,445.25 317.5,446C 320.482,446.498 323.482,446.665 326.5,446.5C 326.5,448.833 326.5,451.167 326.5,453.5C 321.489,453.666 316.489,453.499 311.5,453C 308.333,451.833 306.167,449.667 305,446.5C 304.5,438.173 304.334,429.84 304.5,421.5C 301.833,421.5 299.167,421.5 296.5,421.5C 296.5,419.167 296.5,416.833 296.5,414.5C 299.167,414.5 301.833,414.5 304.5,414.5C 304.5,410.833 304.5,407.167 304.5,403.5 Z"/></g>
<g><path style="opacity:1" fill="#6d6d6d" d="M 159.5,410.5 C 155.167,410.5 150.833,410.5 146.5,410.5C 146.5,416.167 146.5,421.833 146.5,427.5C 145.51,421.69 145.177,415.69 145.5,409.5C 150.363,409.181 155.03,409.514 159.5,410.5 Z"/></g>
<g><path style="opacity:1" fill="#fdfdfd" d="M 159.5,410.5 C 160.496,410.414 161.329,410.748 162,411.5C 162.667,416.167 162.667,420.833 162,425.5C 161.25,426.126 160.416,426.626 159.5,427C 155.179,427.499 150.846,427.666 146.5,427.5C 146.5,421.833 146.5,416.167 146.5,410.5C 150.833,410.5 155.167,410.5 159.5,410.5 Z"/></g>
<g><path style="opacity:1" fill="#a8a8a8" d="M 20.5,414.5 C 24.2984,413.517 28.2984,413.183 32.5,413.5C 32.2627,414.791 32.596,415.791 33.5,416.5C 33.2172,417.289 32.7172,417.956 32,418.5C 31.51,417.207 31.3433,415.873 31.5,414.5C 27.8333,414.5 24.1667,414.5 20.5,414.5 Z"/></g>
<g><path style="opacity:1" fill="#060606" d="M 32.5,423.5 C 31.5062,432.986 31.1729,442.652 31.5,452.5C 27.8333,452.5 24.1667,452.5 20.5,452.5C 20.5,439.833 20.5,427.167 20.5,414.5C 24.1667,414.5 27.8333,414.5 31.5,414.5C 31.3433,415.873 31.51,417.207 32,418.5C 32.7172,417.956 33.2172,417.289 33.5,416.5C 34.6002,415.442 35.9336,414.608 37.5,414C 41.5,413.333 45.5,413.333 49.5,414C 52.209,414.541 54.209,416.041 55.5,418.5C 56.6933,416.473 58.36,414.973 60.5,414C 65.9212,413.161 71.2545,413.494 76.5,415C 77.7875,416.41 78.9542,417.91 80,419.5C 80.4998,430.495 80.6665,441.495 80.5,452.5C 76.5,452.5 72.5,452.5 68.5,452.5C 68.8319,442.145 68.4986,431.812 67.5,421.5C 63.9684,420.197 60.4684,420.197 57,421.5C 56.5002,431.828 56.3335,442.161 56.5,452.5C 52.5,452.5 48.5,452.5 44.5,452.5C 44.8319,442.145 44.4986,431.812 43.5,421.5C 40.227,420.415 36.8936,420.248 33.5,421C 32.7476,421.671 32.4142,422.504 32.5,423.5 Z"/></g>
<g><path style="opacity:1" fill="#060606" d="M 192.5,413.5 C 198.509,413.334 204.509,413.501 210.5,414C 219.785,416.887 223.452,423.22 221.5,433C 221.333,436.5 221.167,440 221,443.5C 219.735,449.062 216.235,452.228 210.5,453C 203.111,453.801 195.777,453.467 188.5,452C 187,450.5 185.5,449 184,447.5C 182.424,438.911 182.09,430.244 183,421.5C 185.362,417.755 188.528,415.089 192.5,413.5 Z"/></g>
<g><path style="opacity:1" fill="#050505" d="M 270.5,413.5 C 276.68,412.829 282.514,413.829 288,416.5C 288.667,417.833 289.333,419.167 290,420.5C 290.5,431.161 290.667,441.828 290.5,452.5C 286.5,452.5 282.5,452.5 278.5,452.5C 278.832,442.145 278.499,431.812 277.5,421.5C 273.152,419.965 268.986,420.299 265,422.5C 264.5,432.494 264.334,442.494 264.5,452.5C 260.833,452.5 257.167,452.5 253.5,452.5C 253.5,439.833 253.5,427.167 253.5,414.5C 257.167,414.5 260.833,414.5 264.5,414.5C 264.351,415.552 264.517,416.552 265,417.5C 266.812,416.023 268.645,414.69 270.5,413.5 Z"/></g>
<g><path style="opacity:1" fill="#030303" d="M 342.5,413.5 C 347.844,413.334 353.177,413.501 358.5,414C 362.843,415.01 366.01,417.51 368,421.5C 368.499,426.489 368.666,431.489 368.5,436.5C 360.167,436.5 351.833,436.5 343.5,436.5C 342.704,440.639 344.037,443.805 347.5,446C 354.189,446.609 360.856,446.443 367.5,445.5C 367.5,447.833 367.5,450.167 367.5,452.5C 357.358,454.324 347.358,453.824 337.5,451C 336.333,449.833 335.167,448.667 334,447.5C 332.393,438.936 332.06,430.27 333,421.5C 335.161,417.495 338.328,414.829 342.5,413.5 Z"/></g>
<g><path style="opacity:1" fill="#b6b6b6" d="M 377.5,414.5 C 381.298,413.517 385.298,413.183 389.5,413.5C 389.232,415.099 389.566,416.432 390.5,417.5C 390.217,418.289 389.717,418.956 389,419.5C 388.506,417.866 388.34,416.199 388.5,414.5C 384.833,414.5 381.167,414.5 377.5,414.5 Z"/></g>
<g><path style="opacity:1" fill="#090909" d="M 402.5,413.5 C 402.5,416.5 402.5,419.5 402.5,422.5C 399.941,422.198 397.607,422.532 395.5,423.5C 393.097,423.393 391.264,424.393 390,426.5C 389.5,435.16 389.334,443.827 389.5,452.5C 385.5,452.5 381.5,452.5 377.5,452.5C 377.5,439.833 377.5,427.167 377.5,414.5C 381.167,414.5 384.833,414.5 388.5,414.5C 388.34,416.199 388.506,417.866 389,419.5C 389.717,418.956 390.217,418.289 390.5,417.5C 393.687,414.075 397.687,412.741 402.5,413.5 Z"/></g>
<g><path style="opacity:1" fill="#626262" d="M 402.5,413.5 C 403.479,416.625 403.813,419.958 403.5,423.5C 400.833,423.5 398.167,423.5 395.5,423.5C 397.607,422.532 399.941,422.198 402.5,422.5C 402.5,419.5 402.5,416.5 402.5,413.5 Z"/></g>
<g><path style="opacity:1" fill="#060606" d="M 86.5,414.5 C 90.8333,414.5 95.1667,414.5 99.5,414.5C 101.487,422.964 103.987,431.298 107,439.5C 110.399,431.466 112.899,423.132 114.5,414.5C 118.5,414.5 122.5,414.5 126.5,414.5C 119.83,432.844 113.163,451.178 106.5,469.5C 102.486,469.666 98.4862,469.499 94.5,469C 96.643,463.567 98.9763,458.233 101.5,453C 96.5914,440.103 91.5914,427.27 86.5,414.5 Z"/></g>
<g><path style="opacity:1" fill="#6c6c6c" d="M 231.5,414.5 C 231.5,427.167 231.5,439.833 231.5,452.5C 235.167,452.5 238.833,452.5 242.5,452.5C 238.702,453.483 234.702,453.817 230.5,453.5C 230.171,440.323 230.505,427.323 231.5,414.5 Z"/></g>
<g><path style="opacity:1" fill="#000000" d="M 231.5,414.5 C 235.167,414.5 238.833,414.5 242.5,414.5C 242.5,427.167 242.5,439.833 242.5,452.5C 238.833,452.5 235.167,452.5 231.5,452.5C 231.5,439.833 231.5,427.167 231.5,414.5 Z"/></g>
<g><path style="opacity:1" fill="#f7f7f7" d="M 196.5,420.5 C 200.911,420.021 205.078,420.688 209,422.5C 209.667,429.833 209.667,437.167 209,444.5C 205.067,446.478 200.9,446.978 196.5,446C 195.333,445.5 194.5,444.667 194,443.5C 193.333,436.833 193.333,430.167 194,423.5C 195.045,422.627 195.878,421.627 196.5,420.5 Z"/></g>
<g><path style="opacity:1" fill="#fafafa" d="M 357.5,429.5 C 353.167,429.5 348.833,429.5 344.5,429.5C 344.5,427.167 344.5,424.833 344.5,422.5C 348.278,420.036 352.278,419.87 356.5,422C 357.435,424.381 357.768,426.881 357.5,429.5 Z"/></g>
<g><path style="opacity:1" fill="#6d6d6d" d="M 32.5,423.5 C 32.5,433.5 32.5,443.5 32.5,453.5C 28.2984,453.817 24.2984,453.483 20.5,452.5C 24.1667,452.5 27.8333,452.5 31.5,452.5C 31.1729,442.652 31.5062,432.986 32.5,423.5 Z"/></g>
<g><path style="opacity:1" fill="#8a8a8a" d="M 344.5,422.5 C 344.5,424.833 344.5,427.167 344.5,429.5C 348.833,429.5 353.167,429.5 357.5,429.5C 353.03,430.486 348.363,430.819 343.5,430.5C 343.194,427.615 343.527,424.948 344.5,422.5 Z"/></g>
<g><path style="opacity:1" fill="#737373" d="M 146.5,436.5 C 146.5,442.167 146.5,447.833 146.5,453.5C 141.968,453.818 137.634,453.485 133.5,452.5C 137.5,452.5 141.5,452.5 145.5,452.5C 145.179,446.974 145.512,441.64 146.5,436.5 Z"/></g>
<g><path style="opacity:1" fill="#848484" d="M 1324.5,808.5 C 1328.35,807.191 1332.35,807.191 1336.5,808.5C 1336.38,809.107 1336.04,809.44 1335.5,809.5C 1332.04,808.518 1328.37,808.185 1324.5,808.5 Z"/></g>
<g><path style="opacity:1" fill="#080808" d="M 1324.5,808.5 C 1328.37,808.185 1332.04,808.518 1335.5,809.5C 1328.91,826.76 1322.41,844.093 1316,861.5C 1314.13,862.743 1311.96,863.41 1309.5,863.5C 1307.5,863.167 1305.5,862.833 1303.5,862.5C 1305.83,857.167 1308.17,851.833 1310.5,846.5C 1305.7,834.087 1300.7,821.753 1295.5,809.5C 1299.78,808.508 1304.12,808.174 1308.5,808.5C 1310.53,816.952 1313.03,825.285 1316,833.5C 1319,825.153 1321.83,816.82 1324.5,808.5 Z"/></g>
<g><path style="opacity:1" fill="#202020" d="M 1118.5,885.5 C 1252.25,885.003 1385.91,885.503 1519.5,887C 1523.31,889.124 1525.81,892.291 1527,896.5C 1527.67,970.833 1527.67,1045.17 1527,1119.5C 1525.61,1125.89 1521.78,1130.06 1515.5,1132C 1383.5,1132.67 1251.5,1132.67 1119.5,1132C 1114.24,1129.74 1110.74,1125.91 1109,1120.5C 1108.33,1045.83 1108.33,971.167 1109,896.5C 1110.63,891.382 1113.79,887.715 1118.5,885.5 Z"/></g>
<g><path style="opacity:1" fill="#fefefe" d="M 1118.5,888.5 C 1252.22,888.005 1385.89,888.505 1519.5,890C 1521.62,891.731 1523.12,893.898 1524,896.5C 1524.99,972.224 1524.66,1047.89 1523,1123.5C 1521.04,1126.14 1518.54,1127.97 1515.5,1129C 1383.5,1129.67 1251.5,1129.67 1119.5,1129C 1115.92,1127.08 1113.42,1124.25 1112,1120.5C 1111.33,1045.83 1111.33,971.167 1112,896.5C 1113.3,893.039 1115.47,890.372 1118.5,888.5 Z"/></g>
</svg>
