<svg version="1.1" id="Layer_1" xmlns="http://www.w3.org/2000/svg" xmlns:xlink="http://www.w3.org/1999/xlink" x="0px" y="0px"
	 width="100%" viewBox="0 0 486 390" enable-background="new 0 0 486 390" xml:space="preserve">
<path fill="#FEFEFE" opacity="1.000000" stroke="none" 
	d="
M1.000000,131.000000 
	C1.000000,87.333351 1.000000,44.166702 1.000000,1.000041 
	C162.999924,1.000027 324.999847,1.000027 486.999817,1.000013 
	C486.999878,130.999863 486.999878,260.999725 486.999939,390.999695 
	C325.000214,390.999786 163.000412,390.999786 1.000311,390.999878 
	C1.000000,304.500000 1.000000,218.000000 1.000000,131.000000 
M424.500000,103.081024 
	C364.518707,103.081024 304.537384,103.081032 244.556091,103.081032 
	C169.246262,103.081039 93.936432,103.074226 18.626604,103.089226 
	C8.581772,103.091232 3.757440,107.580605 3.755321,116.978325 
	C3.736234,201.618576 3.735448,286.258820 3.756522,370.899078 
	C3.758866,380.310486 8.465556,384.914581 17.919525,384.914917 
	C168.539169,384.920624 319.158813,384.920959 469.778473,384.914551 
	C479.587036,384.914124 484.140839,380.376862 484.141663,370.616486 
	C484.148743,286.309479 484.147888,202.002457 484.142914,117.695435 
	C484.142334,107.697166 479.536743,103.100845 469.486267,103.086426 
	C454.824219,103.065399 440.162079,103.081024 424.500000,103.081024 
M97.803528,28.062515 
	C95.529625,28.062515 93.255714,28.062515 90.928406,28.062515 
	C90.928406,37.835979 90.928406,47.107159 90.928406,56.409210 
	C93.763664,56.409210 96.334915,56.409210 99.190300,56.409210 
	C99.190300,49.951740 99.298981,43.803547 99.150208,37.661594 
	C99.058624,33.880863 100.819382,32.897614 104.328743,32.853825 
	C108.008026,32.807922 108.339645,34.746441 108.301491,37.576962 
	C108.217056,43.841164 108.275208,50.107281 108.275208,56.446320 
	C111.531059,56.446320 114.106812,56.446320 117.016342,56.446320 
	C117.016342,50.037834 117.181282,43.897747 116.955551,37.772049 
	C116.816353,33.994591 118.347229,32.908318 121.944679,32.852242 
	C125.884148,32.790836 126.156769,34.856441 126.092789,37.889587 
	C125.961189,44.128204 126.053230,50.371540 126.053230,56.353676 
	C129.463730,56.353676 132.046402,56.353676 134.822235,56.353676 
	C134.822235,49.004230 135.164642,41.997746 134.632095,35.058407 
	C134.451508,32.705132 132.510559,29.161171 130.592621,28.527895 
	C125.790329,26.942244 120.498970,26.472343 116.513687,30.761789 
	C111.847923,26.638239 106.781715,27.102272 101.476158,28.735140 
	C100.654892,28.987898 99.569214,28.381544 97.803528,28.062515 
M347.009277,30.633783 
	C341.031281,25.647734 334.530884,27.595045 327.754974,29.280020 
	C327.754974,24.776215 327.754974,20.346388 327.754974,15.870993 
	C324.737732,15.870993 322.033630,15.870993 319.251648,15.870993 
	C319.251648,26.552382 319.056763,36.847157 319.321930,47.130070 
	C319.491516,53.707268 322.557098,56.398148 329.378540,57.030804 
	C340.736023,58.084160 347.264038,55.979988 347.887787,50.022362 
	C348.531067,43.878216 347.622528,37.571602 347.009277,30.633783 
M203.625046,33.211220 
	C205.360336,28.434053 207.095612,23.656887 208.883102,18.736013 
	C205.598816,18.736013 202.835800,18.736013 199.888199,18.736013 
	C196.554565,28.609846 193.278687,38.312542 189.619675,49.150108 
	C186.585449,40.252010 183.919006,32.489380 181.292465,24.713264 
	C178.868805,17.537840 177.993454,17.089830 170.257050,19.321732 
	C173.608459,28.674419 176.935547,38.031197 180.314575,47.369175 
	C183.825256,57.070965 183.847244,57.063011 194.973312,56.547955 
	C197.695786,49.112331 200.480347,41.507175 203.625046,33.211220 
M214.172775,40.429043 
	C213.356812,41.823322 212.178818,43.122723 211.784424,44.627495 
	C209.466675,53.470802 212.473312,57.381653 221.461670,57.145554 
	C227.008820,56.999847 232.546829,56.505577 238.353088,56.151695 
	C238.353088,49.149426 238.457809,42.186954 238.316330,35.229488 
	C238.221619,30.571653 235.231827,28.266554 230.928635,28.051085 
	C225.331940,27.770847 219.710587,27.982582 213.931091,27.982582 
	C213.931091,29.989286 213.931091,31.574366 213.931091,33.159370 
	C229.737762,33.087494 229.737762,33.087494 229.654053,38.573116 
	C224.727249,39.061028 219.809753,39.548016 214.172775,40.429043 
M300.252014,39.053841 
	C297.096375,39.115074 293.895294,38.861618 290.795380,39.309032 
	C285.758972,40.035957 284.398773,42.877010 284.675690,49.954914 
	C284.857117,54.591328 286.871704,57.226227 291.630524,57.105579 
	C298.229858,56.938271 304.824158,56.570541 311.755188,56.274319 
	C311.755188,49.246906 311.911102,42.297497 311.696991,35.359501 
	C311.567535,31.164867 309.048187,28.380701 304.851532,28.148403 
	C298.949493,27.821705 293.015839,28.065800 286.811218,28.065800 
	C286.967773,30.168869 287.084473,31.736483 287.181152,33.035500 
	C291.589600,33.035500 295.583832,32.808758 299.524200,33.169697 
	C300.752319,33.282185 302.164703,34.805454 302.832581,36.040020 
	C303.127319,36.584801 301.775787,38.020195 300.252014,39.053841 
M377.382690,28.649286 
	C372.904236,29.980188 371.068024,33.203773 371.009247,37.645775 
	C370.965271,40.973518 371.004578,44.302311 370.998505,47.630619 
	C370.990448,52.046669 373.124573,55.338734 377.375366,55.916859 
	C383.829071,56.794586 390.400360,56.807533 397.017151,57.193398 
	C397.017151,54.246750 397.017151,52.678833 397.017151,51.092506 
	C380.351227,52.364571 379.379395,52.007286 380.478821,44.763184 
	C386.183716,44.763184 391.953369,44.763184 397.652618,44.763184 
	C399.668274,31.283545 396.008270,27.096350 383.047943,27.702465 
	C381.393555,27.779835 379.750427,28.098238 377.382690,28.649286 
M147.146774,63.841801 
	C146.646439,65.384949 146.146088,66.928093 145.554062,68.754021 
	C148.531082,68.754021 151.129623,68.754021 153.940918,68.754021 
	C159.067764,55.342308 164.196991,41.924328 169.391174,28.336452 
	C166.073700,28.336452 163.305450,28.336452 160.582092,28.336452 
	C158.675186,34.689991 156.848602,40.775890 154.678299,48.007050 
	C153.139664,43.101585 151.989044,39.475224 150.864914,35.840672 
	C148.406433,27.891775 148.411835,27.886866 140.195343,28.101889 
	C139.925415,28.108953 139.660980,28.325718 139.117676,28.567888 
	C141.948105,35.604729 144.508835,42.762417 147.698486,49.627911 
	C149.891342,54.347847 150.157684,58.654839 147.146774,63.841801 
M359.615417,15.434216 
	C358.226105,16.119127 355.638641,16.781456 355.625244,17.492292 
	C355.381622,30.419603 355.447479,43.352749 355.447479,56.503815 
	C358.541718,56.503815 361.103638,56.503815 364.108307,56.503815 
	C364.108307,43.492764 364.178223,30.723272 363.952881,17.958992 
	C363.937653,17.097347 361.695862,16.275017 359.615417,15.434216 
M264.841705,33.291092 
	C264.841705,31.536730 264.841705,29.782370 264.841705,26.929758 
	C260.884583,28.075474 257.722992,28.990852 254.480530,29.929647 
	C252.844421,25.831558 249.182861,28.881420 246.365799,28.146212 
	C246.365799,37.925426 246.365799,47.260773 246.365799,56.346855 
	C249.323959,56.346855 251.885193,56.346855 254.733521,56.346855 
	C254.733521,53.164291 254.733521,50.365593 254.733521,47.566898 
	C254.733521,36.662815 254.733521,36.662815 264.841705,33.291092 
M269.826782,54.195621 
	C271.342041,59.372341 275.129486,55.486820 277.812012,56.675152 
	C277.812012,46.867565 277.812012,37.553158 277.812012,28.301636 
	C275.029602,28.301636 272.613678,28.301636 269.824982,28.301636 
	C269.824982,36.771515 269.824982,45.008858 269.826782,54.195621 
M278.187103,21.394894 
	C277.691223,13.855021 272.542969,19.863810 270.038574,17.815882 
	C270.038574,20.499294 270.038574,22.444252 270.038574,24.992338 
	C272.864960,23.548000 276.726196,27.575176 278.187103,21.394894 
z"/>
<path fill="#232323" opacity="1.000000" stroke="none" 
	d="
M425.000000,103.081024 
	C440.162079,103.081024 454.824219,103.065399 469.486267,103.086426 
	C479.536743,103.100845 484.142334,107.697166 484.142914,117.695435 
	C484.147888,202.002457 484.148743,286.309479 484.141663,370.616486 
	C484.140839,380.376862 479.587036,384.914124 469.778473,384.914551 
	C319.158813,384.920959 168.539169,384.920624 17.919525,384.914917 
	C8.465556,384.914581 3.758866,380.310486 3.756522,370.899078 
	C3.735448,286.258820 3.736234,201.618576 3.755321,116.978325 
	C3.757440,107.580605 8.581772,103.091232 18.626604,103.089226 
	C93.936432,103.074226 169.246262,103.081039 244.556091,103.081032 
	C304.537384,103.081032 364.518707,103.081024 425.000000,103.081024 
M204.499924,382.193604 
	C292.495789,382.193604 380.491638,382.194580 468.487488,382.192291 
	C478.769379,382.192017 481.740021,379.179230 481.740234,368.762238 
	C481.741882,285.432800 481.743988,202.103363 481.737396,118.773933 
	C481.736603,109.021088 478.623413,105.923233 468.899567,105.923141 
	C319.073242,105.921806 169.246902,105.921844 19.420582,105.922966 
	C9.118151,105.923042 6.152095,108.914551 6.151441,119.368156 
	C6.146240,202.530945 6.145555,285.693726 6.152342,368.856506 
	C6.153189,379.228607 9.139908,382.192230 19.508507,382.192566 
	C80.838974,382.194550 142.169434,382.193604 204.499924,382.193604 
z"/>
<path fill="#0A0A0A" opacity="1.000000" stroke="none" 
	d="
M98.204666,28.117500 
	C99.569214,28.381544 100.654892,28.987898 101.476158,28.735140 
	C106.781715,27.102272 111.847923,26.638239 116.513687,30.761789 
	C120.498970,26.472343 125.790329,26.942244 130.592621,28.527895 
	C132.510559,29.161171 134.451508,32.705132 134.632095,35.058407 
	C135.164642,41.997746 134.822235,49.004230 134.822235,56.353676 
	C132.046402,56.353676 129.463730,56.353676 126.053230,56.353676 
	C126.053230,50.371540 125.961189,44.128204 126.092789,37.889587 
	C126.156769,34.856441 125.884148,32.790836 121.944679,32.852242 
	C118.347229,32.908318 116.816353,33.994591 116.955551,37.772049 
	C117.181282,43.897747 117.016342,50.037834 117.016342,56.446320 
	C114.106812,56.446320 111.531059,56.446320 108.275208,56.446320 
	C108.275208,50.107281 108.217056,43.841164 108.301491,37.576962 
	C108.339645,34.746441 108.008026,32.807922 104.328743,32.853825 
	C100.819382,32.897614 99.058624,33.880863 99.150208,37.661594 
	C99.298981,43.803547 99.190300,49.951740 99.190300,56.409210 
	C96.334915,56.409210 93.763664,56.409210 90.928406,56.409210 
	C90.928406,47.107159 90.928406,37.835979 90.928406,28.062515 
	C93.255714,28.062515 95.529625,28.062515 98.204666,28.117500 
z"/>
<path fill="#070707" opacity="1.000000" stroke="none" 
	d="
M347.201111,30.984926 
	C347.622528,37.571602 348.531067,43.878216 347.887787,50.022362 
	C347.264038,55.979988 340.736023,58.084160 329.378540,57.030804 
	C322.557098,56.398148 319.491516,53.707268 319.321930,47.130070 
	C319.056763,36.847157 319.251648,26.552382 319.251648,15.870993 
	C322.033630,15.870993 324.737732,15.870993 327.754974,15.870993 
	C327.754974,20.346388 327.754974,24.776215 327.754974,29.280020 
	C334.530884,27.595045 341.031281,25.647734 347.201111,30.984926 
M338.589142,51.086666 
	C339.034821,46.571056 339.483856,42.055775 339.925110,37.539734 
	C340.271332,33.996181 338.426727,32.937008 335.144989,32.885567 
	C328.723053,32.784893 327.953979,33.398788 327.931732,39.783424 
	C327.923004,42.281471 328.022766,44.783516 327.912994,47.276688 
	C327.773132,50.454258 329.277069,51.951180 332.357513,51.878933 
	C334.171234,51.836399 335.980225,51.591187 338.589142,51.086666 
z"/>
<path fill="#080808" opacity="1.000000" stroke="none" 
	d="
M203.444977,33.556618 
	C200.480347,41.507175 197.695786,49.112331 194.973312,56.547955 
	C183.847244,57.063011 183.825256,57.070965 180.314575,47.369175 
	C176.935547,38.031197 173.608459,28.674419 170.257050,19.321732 
	C177.993454,17.089830 178.868805,17.537840 181.292465,24.713264 
	C183.919006,32.489380 186.585449,40.252010 189.619675,49.150108 
	C193.278687,38.312542 196.554565,28.609846 199.888199,18.736013 
	C202.835800,18.736013 205.598816,18.736013 208.883102,18.736013 
	C207.095612,23.656887 205.360336,28.434053 203.444977,33.556618 
z"/>
<path fill="#070707" opacity="1.000000" stroke="none" 
	d="
M214.532516,40.232021 
	C219.809753,39.548016 224.727249,39.061028 229.654053,38.573116 
	C229.737762,33.087494 229.737762,33.087494 213.931091,33.159370 
	C213.931091,31.574366 213.931091,29.989286 213.931091,27.982582 
	C219.710587,27.982582 225.331940,27.770847 230.928635,28.051085 
	C235.231827,28.266554 238.221619,30.571653 238.316330,35.229488 
	C238.457809,42.186954 238.353088,49.149426 238.353088,56.151695 
	C232.546829,56.505577 227.008820,56.999847 221.461670,57.145554 
	C212.473312,57.381653 209.466675,53.470802 211.784424,44.627495 
	C212.178818,43.122723 213.356812,41.823322 214.532516,40.232021 
M226.445312,43.923386 
	C226.114227,43.923370 225.754364,43.837570 225.456741,43.937359 
	C223.616608,44.554329 221.020340,44.715595 220.187469,46.005028 
	C219.432312,47.174141 220.199783,50.958405 221.001694,51.194717 
	C223.377029,51.894684 226.270615,51.918884 228.604736,51.139198 
	C229.529846,50.830177 229.766190,47.711716 229.791031,45.865334 
	C229.799591,45.229279 228.214310,44.571770 226.445312,43.923386 
z"/>
<path fill="#090909" opacity="1.000000" stroke="none" 
	d="
M300.711853,39.052544 
	C301.775787,38.020195 303.127319,36.584801 302.832581,36.040020 
	C302.164703,34.805454 300.752319,33.282185 299.524200,33.169697 
	C295.583832,32.808758 291.589600,33.035500 287.181152,33.035500 
	C287.084473,31.736483 286.967773,30.168869 286.811218,28.065800 
	C293.015839,28.065800 298.949493,27.821705 304.851532,28.148403 
	C309.048187,28.380701 311.567535,31.164867 311.696991,35.359501 
	C311.911102,42.297497 311.755188,49.246906 311.755188,56.274319 
	C304.824158,56.570541 298.229858,56.938271 291.630524,57.105579 
	C286.871704,57.226227 284.857117,54.591328 284.675690,49.954914 
	C284.398773,42.877010 285.758972,40.035957 290.795380,39.309032 
	C293.895294,38.861618 297.096375,39.115074 300.711853,39.052544 
M299.525757,43.931129 
	C299.195770,43.931118 298.833252,43.840721 298.541107,43.945858 
	C296.730438,44.597469 294.161163,44.817795 293.365204,46.114918 
	C292.647583,47.284389 293.500122,51.001816 294.320160,51.230663 
	C296.697174,51.894012 299.576874,51.861767 301.898193,51.058659 
	C302.789368,50.750336 302.952026,47.616642 302.926727,45.777500 
	C302.918121,45.150925 301.317413,44.546227 299.525757,43.931129 
z"/>
<path fill="#070707" opacity="1.000000" stroke="none" 
	d="
M377.742371,28.477133 
	C379.750427,28.098238 381.393555,27.779835 383.047943,27.702465 
	C396.008270,27.096350 399.668274,31.283545 397.652618,44.763184 
	C391.953369,44.763184 386.183716,44.763184 380.478821,44.763184 
	C379.379395,52.007286 380.351227,52.364571 397.017151,51.092506 
	C397.017151,52.678833 397.017151,54.246750 397.017151,57.193398 
	C390.400360,56.807533 383.829071,56.794586 377.375366,55.916859 
	C373.124573,55.338734 370.990448,52.046669 370.998505,47.630619 
	C371.004578,44.302311 370.965271,40.973518 371.009247,37.645775 
	C371.068024,33.203773 372.904236,29.980188 377.742371,28.477133 
M383.631226,32.960003 
	C378.455322,33.189499 379.996918,36.686401 379.981079,39.739780 
	C383.470367,39.739780 386.548401,39.739780 389.655731,39.739780 
	C390.802704,35.120083 389.719818,32.436424 383.631226,32.960003 
z"/>
<path fill="#080808" opacity="1.000000" stroke="none" 
	d="
M147.358353,63.489136 
	C150.157684,58.654839 149.891342,54.347847 147.698486,49.627911 
	C144.508835,42.762417 141.948105,35.604729 139.117676,28.567888 
	C139.660980,28.325718 139.925415,28.108953 140.195343,28.101889 
	C148.411835,27.886866 148.406433,27.891775 150.864914,35.840672 
	C151.989044,39.475224 153.139664,43.101585 154.678299,48.007050 
	C156.848602,40.775890 158.675186,34.689991 160.582092,28.336452 
	C163.305450,28.336452 166.073700,28.336452 169.391174,28.336452 
	C164.196991,41.924328 159.067764,55.342308 153.940918,68.754021 
	C151.129623,68.754021 148.531082,68.754021 145.554062,68.754021 
	C146.146088,66.928093 146.646439,65.384949 147.358353,63.489136 
z"/>
<path fill="#121212" opacity="1.000000" stroke="none" 
	d="
M360.052521,15.434309 
	C361.695862,16.275017 363.937653,17.097347 363.952881,17.958992 
	C364.178223,30.723272 364.108307,43.492764 364.108307,56.503815 
	C361.103638,56.503815 358.541718,56.503815 355.447479,56.503815 
	C355.447479,43.352749 355.381622,30.419603 355.625244,17.492292 
	C355.638641,16.781456 358.226105,16.119127 360.052521,15.434309 
z"/>
<path fill="#0D0D0D" opacity="1.000000" stroke="none" 
	d="
M264.753784,33.708450 
	C254.733521,36.662815 254.733521,36.662815 254.733521,47.566898 
	C254.733521,50.365593 254.733521,53.164291 254.733521,56.346855 
	C251.885193,56.346855 249.323959,56.346855 246.365799,56.346855 
	C246.365799,47.260773 246.365799,37.925426 246.365799,28.146212 
	C249.182861,28.881420 252.844421,25.831558 254.480530,29.929647 
	C257.722992,28.990852 260.884583,28.075474 264.841705,26.929758 
	C264.841705,29.782370 264.841705,31.536730 264.753784,33.708450 
z"/>
<path fill="#040404" opacity="1.000000" stroke="none" 
	d="
M269.825867,53.720913 
	C269.824982,45.008858 269.824982,36.771515 269.824982,28.301636 
	C272.613678,28.301636 275.029602,28.301636 277.812012,28.301636 
	C277.812012,37.553158 277.812012,46.867565 277.812012,56.675152 
	C275.129486,55.486820 271.342041,59.372341 269.825867,53.720913 
z"/>
<path fill="#090909" opacity="1.000000" stroke="none" 
	d="
M278.186340,21.863602 
	C276.726196,27.575176 272.864960,23.548000 270.038574,24.992338 
	C270.038574,22.444252 270.038574,20.499294 270.038574,17.815882 
	C272.542969,19.863810 277.691223,13.855021 278.186340,21.863602 
z"/>
<path fill="#FFFFFF" opacity="1.000000" stroke="none" 
	d="
M203.999908,382.193604 
	C142.169434,382.193604 80.838974,382.194550 19.508507,382.192566 
	C9.139908,382.192230 6.153189,379.228607 6.152342,368.856506 
	C6.145555,285.693726 6.146240,202.530945 6.151441,119.368156 
	C6.152095,108.914551 9.118151,105.923042 19.420582,105.922966 
	C169.246902,105.921844 319.073242,105.921806 468.899567,105.923141 
	C478.623413,105.923233 481.736603,109.021088 481.737396,118.773933 
	C481.743988,202.103363 481.741882,285.432800 481.740234,368.762238 
	C481.740021,379.179230 478.769379,382.192017 468.487488,382.192291 
	C380.491638,382.194580 292.495789,382.193604 203.999908,382.193604 
M239.570007,233.855637 
	C240.234818,233.855942 240.902267,233.895020 241.564026,233.850266 
	C245.742706,233.567612 248.086639,234.792572 247.918488,239.700058 
	C247.751282,244.579987 244.839508,245.074738 241.271591,244.866272 
	C237.564499,244.649658 233.876511,244.106293 230.108536,243.698044 
	C230.108536,246.000488 230.108536,247.949356 230.108536,251.016312 
	C235.236877,251.016312 240.184189,251.191223 245.113037,250.964767 
	C249.611572,250.758057 254.704819,250.537994 256.060059,245.121521 
	C257.397491,239.776215 258.839355,233.923523 252.707932,230.086014 
	C256.654022,225.740417 255.725388,220.744308 254.485107,216.300797 
	C253.340591,212.200333 248.954544,212.003799 245.269089,211.893829 
	C240.347000,211.746933 235.417221,211.857498 230.426910,211.857498 
	C230.426910,214.363068 230.426910,216.087723 230.426910,218.138885 
	C233.678085,217.993271 236.639099,217.725815 239.596039,217.764999 
	C242.748886,217.806763 246.364349,216.823318 246.403778,222.350647 
	C246.440247,227.463013 243.798370,228.150070 239.815674,227.923264 
	C238.230865,227.833023 236.636642,227.908432 235.024994,227.908432 
	C234.969971,231.167267 233.692627,234.604492 239.570007,233.855637 
z"/>
<path fill="#F9F9F9" opacity="1.000000" stroke="none" 
	d="
M338.190247,51.261898 
	C335.980225,51.591187 334.171234,51.836399 332.357513,51.878933 
	C329.277069,51.951180 327.773132,50.454258 327.912994,47.276688 
	C328.022766,44.783516 327.923004,42.281471 327.931732,39.783424 
	C327.953979,33.398788 328.723053,32.784893 335.144989,32.885567 
	C338.426727,32.937008 340.271332,33.996181 339.925110,37.539734 
	C339.483856,42.055775 339.034821,46.571056 338.190247,51.261898 
z"/>
<path fill="#F6F6F6" opacity="1.000000" stroke="none" 
	d="
M226.901215,43.923725 
	C228.214310,44.571770 229.799591,45.229279 229.791031,45.865334 
	C229.766190,47.711716 229.529846,50.830177 228.604736,51.139198 
	C226.270615,51.918884 223.377029,51.894684 221.001694,51.194717 
	C220.199783,50.958405 219.432312,47.174141 220.187469,46.005028 
	C221.020340,44.715595 223.616608,44.554329 225.456741,43.937359 
	C225.754364,43.837570 226.114227,43.923370 226.901215,43.923725 
z"/>
<path fill="#F7F7F7" opacity="1.000000" stroke="none" 
	d="
M299.984955,43.931332 
	C301.317413,44.546227 302.918121,45.150925 302.926727,45.777500 
	C302.952026,47.616642 302.789368,50.750336 301.898193,51.058659 
	C299.576874,51.861767 296.697174,51.894012 294.320160,51.230663 
	C293.500122,51.001816 292.647583,47.284389 293.365204,46.114918 
	C294.161163,44.817795 296.730438,44.597469 298.541107,43.945858 
	C298.833252,43.840721 299.195770,43.931118 299.984955,43.931332 
z"/>
<path fill="#F6F6F6" opacity="1.000000" stroke="none" 
	d="
M384.075989,32.943459 
	C389.719818,32.436424 390.802704,35.120083 389.655731,39.739780 
	C386.548401,39.739780 383.470367,39.739780 379.981079,39.739780 
	C379.996918,36.686401 378.455322,33.189499 384.075989,32.943459 
z"/>
<path fill="#090909" opacity="1.000000" stroke="none" 
	d="
M239.103256,233.855621 
	C233.692627,234.604492 234.969971,231.167267 235.024994,227.908432 
	C236.636642,227.908432 238.230865,227.833023 239.815674,227.923264 
	C243.798370,228.150070 246.440247,227.463013 246.403778,222.350647 
	C246.364349,216.823318 242.748886,217.806763 239.596039,217.764999 
	C236.639099,217.725815 233.678085,217.993271 230.426910,218.138885 
	C230.426910,216.087723 230.426910,214.363068 230.426910,211.857498 
	C235.417221,211.857498 240.347000,211.746933 245.269089,211.893829 
	C248.954544,212.003799 253.340591,212.200333 254.485107,216.300797 
	C255.725388,220.744308 256.654022,225.740417 252.707932,230.086014 
	C258.839355,233.923523 257.397491,239.776215 256.060059,245.121521 
	C254.704819,250.537994 249.611572,250.758057 245.113037,250.964767 
	C240.184189,251.191223 235.236877,251.016312 230.108536,251.016312 
	C230.108536,247.949356 230.108536,246.000488 230.108536,243.698044 
	C233.876511,244.106293 237.564499,244.649658 241.271591,244.866272 
	C244.839508,245.074738 247.751282,244.579987 247.918488,239.700058 
	C248.086639,234.792572 245.742706,233.567612 241.564026,233.850266 
	C240.902267,233.895020 240.234818,233.855942 239.103256,233.855621 
z"/>
</svg>