<svg width="517" height="299" viewBox="0 0 517 299" fill="none" xmlns="http://www.w3.org/2000/svg">
<rect x="297.844" y="119" width="168.714" height="22.6631" fill="#BC8239"/>
<g filter="url(#filter0_d_767_1192)">
<path d="M275.254 143.473L295.99 121.009C296.367 120.601 295.896 119.974 295.399 120.223L275.248 130.298C275.204 130.32 275.163 130.349 275.127 130.383L252.004 152.35C251.6 152.733 252.031 153.39 252.544 153.172L275.082 143.594C275.147 143.566 275.206 143.525 275.254 143.473Z" fill="#EBC99C"/>
</g>
<g filter="url(#filter1_d_767_1192)">
<path d="M489.149 143.473L468.413 121.009C468.036 120.601 468.507 119.974 469.004 120.223L489.155 130.298C489.199 130.32 489.24 130.349 489.276 130.383L512.399 152.35C512.803 152.733 512.371 153.39 511.859 153.172L489.321 143.594C489.255 143.566 489.197 143.525 489.149 143.473Z" fill="#EBC99C"/>
</g>
<path d="M96.0507 155.829C96.7461 157.289 98.9026 160.091 101.965 159.626" stroke="#444B5B" stroke-width="6" stroke-linecap="round"/>
<path d="M99.6598 150.802C99.764 152.136 101.179 155.013 106.005 155.847" stroke="#444B5B" stroke-width="6" stroke-linecap="round"/>
<path d="M102.573 146.54C102.757 148.275 104.328 151.85 109.145 152.272M106.787 141.57C106.914 143.218 108.325 146.873 112.951 148.31" stroke="#444B5B" stroke-width="6" stroke-linecap="round"/>
<path d="M111.093 137.237C111.282 138.898 112.726 142.445 116.983 143.344" stroke="#444B5B" stroke-width="6" stroke-linecap="round"/>
<path d="M94.4481 269.816L95.1726 251.462H100.3L101.025 269.816H94.4481Z" fill="#C4C4C4" stroke="#444B5B" stroke-width="6"/>
<circle cx="97.7364" cy="280.827" r="14.6246" fill="#303140" stroke="#7BD5E0" stroke-width="6"/>
<path d="M92.6091 253.798C94.425 253.157 99.0181 252.26 102.863 253.798" stroke="#444B5B" stroke-width="6" stroke-linecap="round"/>
<path d="M92.2888 257.531C94.1047 256.89 98.6978 255.993 102.543 257.531" stroke="#444B5B" stroke-width="6" stroke-linecap="round"/>
<path d="M92.6091 261.376C94.425 260.736 99.0181 259.838 102.863 261.376" stroke="#444B5B" stroke-width="6" stroke-linecap="round"/>
<path d="M193.431 134.282C185.284 139.293 174.411 154.162 169.993 160.97C172.828 162.82 178.163 166.272 176.825 165.276C175.488 164.28 191.249 147.87 199.297 139.79C198.78 138.266 195.171 135.483 193.431 134.282Z" fill="#C4C4C4" stroke="#4A4E62" stroke-width="1.5"/>
<path d="M14.149 214.989C13.9538 205.427 20.5729 188.236 23.9068 180.837C26.9968 182.219 32.7864 184.837 31.2252 184.252C29.6639 183.667 24.3947 205.801 21.9552 216.941C20.3939 217.331 16.1005 215.802 14.149 214.989Z" fill="#C4C4C4" stroke="#4A4E62" stroke-width="2"/>
<path d="M163.587 103.506C163.587 132.607 179.199 156.198 98.2089 156.198C17.2188 156.198 32.3435 132.607 32.3435 103.506C32.3435 74.4046 64.3923 50.8135 98.2089 50.8135C132.026 50.8135 163.587 74.4046 163.587 103.506Z" fill="#7BD5E0"/>
<path d="M164.186 100.179C164.186 127.712 179.811 150.831 98.7532 150.831C17.695 150.831 32.8325 127.712 32.8325 100.179C32.8325 72.6455 64.9082 50.3256 98.7532 50.3256C132.598 50.3256 164.186 72.6455 164.186 100.179Z" fill="#9BE3E8"/>
<path d="M38.5436 93.7479C38.5436 107.221 35.0486 136.926 30.7373 136.926C21.7113 136.926 17.5642 124.297 17.5642 110.824C17.5642 97.3514 21.0592 86.4296 25.3705 86.4296C37.1214 86.4295 38.5436 80.2751 38.5436 93.7479Z" fill="#303140"/>
<path d="M38.5436 92.7504C38.5436 104.023 35.0486 128.876 30.7373 128.876C21.7113 128.876 17.5642 118.31 17.5642 107.037C17.5642 95.7653 21.0592 86.6274 25.3705 86.6274C37.1214 86.6274 38.5436 81.4783 38.5436 92.7504Z" fill="#4A4E62"/>
<path d="M49.9606 181.012C52.3657 163.711 67.1593 150.831 84.6273 150.831H110.805C128.047 150.831 142.721 163.388 145.385 180.423L150.037 210.173C153.277 230.888 137.701 249.784 116.749 250.557L95.6269 251.337L79.0592 250.666C58.3977 249.829 42.9621 231.357 45.8093 210.876L49.9606 181.012Z" fill="#7BD5E0"/>
<path d="M51.692 169.273L44.7058 219.763C44.0519 224.489 46.8106 229.049 51.4197 230.283C69.3194 235.073 99.9928 239.149 137.982 229.95C142.562 228.841 145.592 224.524 145.241 219.824C143.333 194.263 140.802 177.32 138.075 166.897C136.783 161.962 131.562 159.657 126.565 160.684C106.192 164.874 80.7741 163.085 63.9501 160.456C58.1368 159.548 52.4985 163.445 51.692 169.273Z" fill="#9BE3EC"/>
<circle cx="36.592" cy="166.932" r="19.0278" fill="#303140"/>
<path d="M55.132 163.517C55.132 170.927 48.0838 176.69 38.7876 176.69C29.4914 176.69 18.2961 170.683 18.2961 163.273C18.2961 155.863 27.2959 147.904 36.5921 147.904C45.8883 147.904 55.132 156.107 55.132 163.517Z" fill="#444B5B"/>
<circle cx="159.541" cy="166.932" r="19.0278" fill="#303140"/>
<ellipse cx="15.8613" cy="222.667" rx="14.2981" ry="7.82991" transform="rotate(15.3589 15.8613 222.667)" fill="#7BD5E0"/>
<ellipse cx="16.1443" cy="221.454" rx="13.0075" ry="6.2284" transform="rotate(15.3589 16.1443 221.454)" fill="#90E2EB"/>
<ellipse cx="14.2981" cy="7.82991" rx="14.2981" ry="7.82991" transform="matrix(0.744586 0.667527 0.667527 -0.744586 185.026 128.098)" fill="#7BD5E0"/>
<path d="M166.996 68.3911C104.316 86.9806 49.123 75.4416 29.3617 67.3484C25.6676 71.7574 27.8225 77.527 29.3617 79.8606C83.462 98.3309 143.66 87.5566 166.996 79.8606C171.166 74.1407 168.734 69.831 166.996 68.3911Z" fill="#FECA00" stroke="#444B5B" stroke-width="6"/>
<path d="M165.105 68.1908C113.745 86.8995 54.4317 75.986 31.1947 68.1908C26.0707 44.2388 43.1608 29.5122 52.3463 25.1429C59.1386 15.2523 81.1938 9.00612 91.3724 7.11936C92.3257 2.82947 92.8166 2.51146 99.0727 3.40507C106.715 2.36245 105.523 5.28226 106.715 7.11936C123.398 9.74096 139.485 20.9225 145.443 26.1855C168.203 37.7444 168.034 59.0052 165.105 68.1908Z" fill="#FEE200" stroke="#444B5B" stroke-width="6"/>
<path d="M164.001 68.3582C113.499 83.7587 55.1761 74.7751 32.3272 68.3582C27.2888 48.6416 44.0934 36.5191 53.1256 32.9223C59.8045 24.7807 81.4914 19.639 91.5 18.0859C92.4374 14.5546 92.92 14.2928 99.0716 15.0284C106.586 14.1701 105.414 16.5736 106.586 18.0859C122.99 20.2439 138.809 29.4482 144.668 33.7807C167.048 43.2956 166.882 60.7969 164.001 68.3582Z" fill="#FEC900"/>
<path d="M91.3726 6.8728V78.371M106.715 6.8728V78.371" stroke="#444B5B" stroke-width="6"/>
<path d="M82.5844 12.4519C81.8694 12.5711 77.2278 14.0541 75.5835 14.695V60.1318C76.6262 61.4227 79.4861 63.23 82.5844 60.1318V12.4519Z" fill="#FFA616"/>
<path d="M114.72 12.4519C115.681 12.4519 120.369 14.519 121.908 15.0155V60.1317C120.866 61.4227 118.006 63.23 114.907 60.1317L114.72 12.4519Z" fill="#FFA616"/>
<ellipse cx="58.8493" cy="45.7406" rx="9.5331" ry="6.554" transform="rotate(-35.3944 58.8493 45.7406)" fill="#FFE200"/>
<ellipse cx="47.1792" cy="55.5846" rx="3.91676" ry="2.69277" transform="rotate(-156.631 47.1792 55.5846)" fill="#FEE200"/>
<path d="M165.991 72.6958C102.716 92.6911 49.9016 80.7067 30.7628 72.3754C30.1221 72.6958 30.6697 76.2411 31.7243 77.1821C33.0425 78.3583 95.1638 98.5006 165.03 77.1821C165.799 76.0286 166.632 74.6185 165.991 72.6958Z" fill="#FFA519"/>
<path d="M157.589 92.7504C157.589 104.023 161.084 128.876 165.396 128.876C174.422 128.876 178.569 118.31 178.569 107.037C178.569 95.7653 175.074 86.6274 170.763 86.6274C159.012 86.6274 157.589 81.4783 157.589 92.7504Z" fill="#4A4E62"/>
<path d="M178.325 163.517C178.325 170.927 171.277 176.69 161.98 176.69C152.684 176.69 141.001 170.927 141.001 163.517C141.001 156.106 150.027 147.66 159.785 147.904C169.081 147.904 178.325 156.106 178.325 163.517Z" fill="#4A4E62"/>
<path d="M29.3509 91.5601C26.3627 92.454 23.1426 94.9044 22.7428 101.008" stroke="#686C81" stroke-width="6" stroke-linecap="round"/>
<path d="M166.86 91.4884C169.848 92.3824 173.068 94.8327 173.468 100.937" stroke="#686C81" stroke-width="6" stroke-linecap="round"/>
<ellipse cx="32.9329" cy="156.686" rx="5.12287" ry="3.90314" fill="#686C81"/>
<ellipse cx="165.321" cy="156.482" rx="5.12287" ry="3.90314" transform="rotate(24.0274 165.321 156.482)" fill="#686C81"/>
<circle cx="78.3069" cy="104.238" r="7.07444" fill="#303140"/>
<circle cx="77.3311" cy="105.213" r="2.68341" fill="white"/>
<circle cx="79.7705" cy="101.31" r="1.21973" fill="white"/>
<circle cx="118.802" cy="104.238" r="7.07444" fill="#303140"/>
<path d="M86.845 123.021C90.4228 128.063 100.018 133.755 110.264 123.021" stroke="#303140" stroke-width="3" stroke-linecap="round"/>
<circle cx="118.802" cy="105.213" r="2.68341" fill="white"/>
<circle cx="121.241" cy="101.31" r="1.21973" fill="white"/>
<path d="M209.379 140.876C211.675 138.315 209.2 132.351 203.851 127.556C198.502 122.761 192.304 120.949 190.008 123.511C187.712 126.072 190.481 132.548 195.83 137.343C201.179 142.138 207.082 143.438 209.379 140.876Z" fill="#90E2EB"/>
<path d="M9.427 220.112C10.2669 221.19 13.3559 223.339 18.9924 223.317" stroke="#D7FBFB" stroke-width="3" stroke-linecap="round"/>
<path d="M203.118 133.581C202.62 132.309 200.272 129.368 194.862 127.783" stroke="#D7FBFB" stroke-width="3" stroke-linecap="round"/>
<path d="M59.5946 194.179C62.191 175.452 78.2303 161.301 97.1371 161.301C115.8 161.301 131.689 174.948 134.565 193.388C138.073 215.881 121.171 236.461 98.4221 237.303L95.4748 237.412C73.1621 236.506 56.5279 216.299 59.5946 194.179Z" fill="#444B5B"/>
<circle cx="77.0892" cy="173.019" r="1.46368" fill="#9BE3E8"/>
<circle cx="74.1597" cy="221.576" r="1.46368" fill="#9BE3E8"/>
<circle cx="120.029" cy="173.019" r="1.46368" fill="#9BE3E8"/>
<circle cx="122.949" cy="221.088" r="1.46368" fill="#9BE3E8"/>
<path d="M22.1108 186.134C23.7131 185.92 27.238 186.198 28.5198 189.018" stroke="#444B5B" stroke-width="2" stroke-linecap="round"/>
<path d="M175.512 154.44C176.2 155.902 178.341 158.716 181.406 158.268" stroke="#444B5B" stroke-width="1.5" stroke-linecap="round"/>
<path d="M19.8679 191.902C21.0429 191.261 24.226 190.877 27.5586 194.466" stroke="#444B5B" stroke-width="2" stroke-linecap="round"/>
<path d="M179.149 149.432C179.246 150.767 180.645 153.651 185.467 154.511" stroke="#444B5B" stroke-width="1.5" stroke-linecap="round"/>
<path d="M17.8869 196.669C19.4406 195.876 23.2937 195.242 26.2768 199.048M16.0225 202.913C17.4726 202.12 21.305 201.307 25.0338 204.399" stroke="#444B5B" stroke-width="2" stroke-linecap="round"/>
<path d="M182.086 145.186C182.26 146.921 183.812 150.505 188.626 150.954M186.327 140.239C186.445 141.888 187.836 145.55 192.454 147.012" stroke="#444B5B" stroke-width="1.5" stroke-linecap="round"/>
<path d="M14.7407 208.886C16.2361 208.138 19.996 207.412 23.0723 210.488" stroke="#444B5B" stroke-width="2" stroke-linecap="round"/>
<path d="M190.656 135.929C190.836 137.591 192.26 141.146 196.512 142.068" stroke="#444B5B" stroke-width="1.5" stroke-linecap="round"/>
<path d="M56.3988 185.655C55.1444 188.528 52.7609 196.267 53.2627 204.241" stroke="#D8FFFD" stroke-width="6" stroke-linecap="round"/>
<path d="M99.3386 265.766C100.62 265.766 102.543 266.087 105.107 267.689" stroke="#D8FFFD" stroke-width="1.5" stroke-linecap="round"/>
<path d="M92.2887 267.048C88.8706 268.116 82.2267 272.816 82.9957 283.07" stroke="#D8FFFD" stroke-width="1.5" stroke-linecap="round"/>
<path d="M94.4993 266.255C95.057 266.115 96.2995 265.85 96.8077 265.918" stroke="#D8FFFD" stroke-width="1.3" stroke-linecap="round"/>
<circle cx="98.0567" cy="281.148" r="2.56357" fill="#7BD5E0"/>
<rect x="275.181" y="141.663" width="215.299" height="154.864" rx="5" fill="#E6A352"/>
<path d="M275.181 141.663L297.844 119V141.663H275.181Z" fill="#936122"/>
<path d="M489.873 141.663H275.789C275.467 141.663 275.164 141.818 274.977 142.08L257.432 166.52C256.957 167.182 257.43 168.103 258.244 168.103H507.418C508.232 168.103 508.705 167.182 508.23 166.52L490.685 142.08C490.498 141.818 490.195 141.663 489.873 141.663Z" fill="#ECC290"/>
<path d="M489.221 141.663L466.558 119V141.663H489.221Z" fill="#AE752E"/>
<defs>
<filter id="filter0_d_767_1192" x="247.845" y="120.166" width="52.2815" height="41.0495" filterUnits="userSpaceOnUse" color-interpolation-filters="sRGB">
<feFlood flood-opacity="0" result="BackgroundImageFix"/>
<feColorMatrix in="SourceAlpha" type="matrix" values="0 0 0 0 0 0 0 0 0 0 0 0 0 0 0 0 0 0 127 0" result="hardAlpha"/>
<feOffset dy="4"/>
<feGaussianBlur stdDeviation="2"/>
<feComposite in2="hardAlpha" operator="out"/>
<feColorMatrix type="matrix" values="0 0 0 0 0 0 0 0 0 0 0 0 0 0 0 0 0 0 0.1 0"/>
<feBlend mode="normal" in2="BackgroundImageFix" result="effect1_dropShadow_767_1192"/>
<feBlend mode="normal" in="SourceGraphic" in2="effect1_dropShadow_767_1192" result="shape"/>
</filter>
<filter id="filter1_d_767_1192" x="464.277" y="120.166" width="52.2815" height="41.0495" filterUnits="userSpaceOnUse" color-interpolation-filters="sRGB">
<feFlood flood-opacity="0" result="BackgroundImageFix"/>
<feColorMatrix in="SourceAlpha" type="matrix" values="0 0 0 0 0 0 0 0 0 0 0 0 0 0 0 0 0 0 127 0" result="hardAlpha"/>
<feOffset dy="4"/>
<feGaussianBlur stdDeviation="2"/>
<feComposite in2="hardAlpha" operator="out"/>
<feColorMatrix type="matrix" values="0 0 0 0 0 0 0 0 0 0 0 0 0 0 0 0 0 0 0.1 0"/>
<feBlend mode="normal" in2="BackgroundImageFix" result="effect1_dropShadow_767_1192"/>
<feBlend mode="normal" in="SourceGraphic" in2="effect1_dropShadow_767_1192" result="shape"/>
</filter>
</defs>
</svg>
