<svg width="84" height="135" viewBox="0 0 84 135" fill="none" xmlns="http://www.w3.org/2000/svg">
<path d="M39.0122 120.335L39.5162 107.567H44.8427L45.3467 120.335H39.0122Z" fill="#C4C4C4" stroke="#444B5B" stroke-width="0.75"/>
<circle cx="42.1793" cy="125.157" r="8.28271" fill="#303140" stroke="#7BD5E0" stroke-width="3"/>
<path d="M39.3331 110.154C40.341 109.798 42.8905 109.3 45.0249 110.154" stroke="#444B5B" stroke-width="0.5" stroke-linecap="round"/>
<path d="M39.156 112.226C40.1639 111.87 42.7134 111.372 44.8478 112.226" stroke="#444B5B" stroke-width="0.5" stroke-linecap="round"/>
<path d="M39.3331 114.361C40.341 114.005 42.8905 113.507 45.0249 114.361" stroke="#444B5B" stroke-width="0.5" stroke-linecap="round"/>
<path d="M77.8344 92.8958C77.9183 88.7841 75.0723 81.393 73.6388 78.2114C72.3103 78.8058 69.8209 79.9316 70.4922 79.6799C71.1635 79.4281 73.4291 88.945 74.478 93.7349C75.1493 93.9027 76.9953 93.2454 77.8344 92.8958Z" fill="#C4C4C4" stroke="#444B5B" stroke-width="0.5"/>
<path d="M6.39732 93.4204C6.31341 89.3088 9.15938 81.9177 10.5928 78.7361C11.9214 79.3304 14.4107 80.4562 13.7395 80.2045C13.0682 79.9528 10.8026 89.4696 9.75372 94.2595C9.08242 94.4273 7.23641 93.77 6.39732 93.4204Z" fill="#C4C4C4" stroke="#444B5B" stroke-width="0.5"/>
<path d="M70.6499 45.4871C70.6499 57.9996 77.3628 68.1429 42.5399 68.1429C7.71703 68.1429 14.2201 57.9996 14.2201 45.4871C14.2201 32.9747 28 22.8313 42.5399 22.8313C57.0799 22.8313 70.6499 32.9747 70.6499 45.4871Z" fill="#7BD5E0"/>
<path d="M70.9082 44.0563C70.9082 55.8946 77.6267 65.8352 42.7745 65.8352C7.92243 65.8352 14.431 55.8946 14.431 44.0563C14.431 32.2181 28.2224 22.6213 42.7745 22.6213C57.3267 22.6213 70.9082 32.2181 70.9082 44.0563Z" fill="#9BE3E8"/>
<path d="M16.8868 41.291C16.8868 47.0839 15.3841 59.8562 13.5304 59.8562C9.64955 59.8562 7.86646 54.426 7.86646 48.6332C7.86646 42.8404 9.36917 38.1444 11.2229 38.1444C16.2753 38.1444 16.8868 35.4982 16.8868 41.291Z" fill="#303140"/>
<path d="M16.8868 40.8622C16.8868 45.7088 15.3841 56.3949 13.5304 56.3949C9.64955 56.3949 7.86646 51.8517 7.86646 47.0051C7.86646 42.1585 9.36917 38.2295 11.2229 38.2295C16.2753 38.2295 16.8868 36.0155 16.8868 40.8622Z" fill="#4A4E62"/>
<path d="M68.0715 41.4746C68.0715 47.2674 69.5743 60.0398 71.428 60.0398C75.3088 60.0398 77.0919 54.6096 77.0919 48.8168C77.0919 43.024 75.5892 38.328 73.7355 38.328C68.683 38.328 68.0715 35.6818 68.0715 41.4746Z" fill="#353D4D"/>
<path d="M22.1606 76.1827C22.9852 70.2508 28.0573 65.835 34.0463 65.835H50.5651C56.4767 65.835 61.5076 70.1403 62.421 75.9808L65.3549 94.741C66.4656 101.843 61.1253 108.322 53.9417 108.587L41.43 109.049L30.9473 108.624C23.8634 108.337 18.5712 102.004 19.5473 94.9818L22.1606 76.1827Z" fill="#7BD5E0"/>
<path d="M22.1674 75.3502L19.9087 93.138C19.6075 95.5097 21.0229 97.7819 23.3329 98.3981C30.8925 100.414 43.3833 102.388 58.7601 99.0341C61.0897 98.5259 62.6339 96.3433 62.4415 93.9666C61.6828 84.5903 60.7036 78.1624 59.6454 74.0163C59.0291 71.6013 56.4916 70.4795 54.0393 70.9249C45.7124 72.4375 35.3686 71.8258 28.2584 70.8451C25.3416 70.4428 22.5384 72.4291 22.1674 75.3502Z" fill="#9BE3EC"/>
<path d="M26.8098 80.4385C27.6324 74.5046 32.7054 70.0864 38.6961 70.0864H46.0944C52.0078 70.0864 57.0398 74.3943 57.9511 80.2371L59.2777 88.7426C60.3852 95.8429 55.0461 102.318 47.8649 102.584L41.7123 102.812L37.0244 102.621C29.9427 102.333 24.6518 96.0034 25.6251 88.983L26.8098 80.4385Z" fill="#444B5B"/>
<circle cx="16.0477" cy="72.7577" r="8.18127" fill="#353D4D"/>
<path d="M24.019 71.2893C24.019 74.4753 20.9885 76.9532 16.9915 76.9532C12.9945 76.9532 8.18091 74.3704 8.18091 71.1844C8.18091 67.9983 12.0505 64.5764 16.0475 64.5764C20.0446 64.5764 24.019 68.1032 24.019 71.2893Z" fill="#444B5B"/>
<circle cx="68.9111" cy="72.7577" r="8.18127" fill="#353D4D"/>
<ellipse cx="7.13396" cy="96.7221" rx="6.14767" ry="3.36658" transform="rotate(15.3589 7.13396 96.7221)" fill="#7BD5E0"/>
<ellipse cx="7.25574" cy="96.2001" rx="5.59276" ry="2.67799" transform="rotate(15.3589 7.25574 96.2001)" fill="#90E2EB"/>
<ellipse cx="6.14767" cy="3.36658" rx="6.14767" ry="3.36658" transform="matrix(-0.964286 0.264864 0.264864 0.964286 82.0259 90.98)" fill="#7BD5E0"/>
<path d="M72.1166 30.388C45.1664 38.3808 21.4355 33.4195 12.9389 29.9397C11.3506 31.8354 12.2771 34.3161 12.9389 35.3195C36.2001 43.2611 62.0829 38.6285 72.1166 35.3195C73.9099 32.8602 72.8638 31.0071 72.1166 30.388Z" fill="#FECA00" stroke="#353D4D" stroke-width="3"/>
<path d="M71.3037 30.3021C49.221 38.3462 23.7182 33.6538 13.7272 30.3021C11.524 20.0037 18.8721 13.6718 22.8216 11.7931C25.742 7.5405 35.225 4.85488 39.6014 4.04364C40.0113 2.19914 40.2223 2.06241 42.9122 2.44663C46.198 1.99834 45.6857 3.25375 46.198 4.04364C53.3711 5.17083 60.288 9.97849 62.8498 12.2414C72.6359 17.2113 72.5633 26.3527 71.3037 30.3021Z" fill="#FEE200" stroke="#353D4D" stroke-width="3"/>
<path d="M70.8295 30.3741C49.1155 36.9957 24.0386 33.1331 14.2144 30.3741C12.0481 21.8966 19.2735 16.6844 23.157 15.1379C26.0287 11.6373 35.3532 9.42656 39.6566 8.75877C40.0596 7.24042 40.2671 7.12787 42.9121 7.44415C46.1431 7.07513 45.6393 8.10855 46.1431 8.75877C53.1963 9.68664 59.9977 13.6442 62.5167 15.507C72.1394 19.598 72.068 27.123 70.8295 30.3741Z" fill="#FEC900"/>
<path d="M39.3295 4.69727V34.402M46.7051 5.08408V34.7888" stroke="#353D4D" stroke-width="3"/>
<path d="M35.4286 6.39258C35.119 6.44228 32.831 7.04142 32.3975 7.47498V27.4152C32.8489 27.9536 34.0871 28.7074 35.4286 27.4152V6.39258Z" fill="#FFA616"/>
<path d="M50.6303 6.51636C50.9376 6.56725 52.7739 7.04189 53.641 7.90899L53.6396 27.0034C53.1914 27.5547 51.9621 28.3266 50.6303 27.0034V6.51636Z" fill="#FFA616"/>
<ellipse cx="25.6173" cy="20.6494" rx="4.09889" ry="2.81799" transform="rotate(-35.3944 25.6173 20.6494)" fill="#FFE200"/>
<ellipse cx="20.5996" cy="24.882" rx="1.68406" ry="1.15779" transform="rotate(-156.631 20.5996 24.882)" fill="#FEE200"/>
<path d="M71.455 32.5943C44.249 41.1915 21.9555 35.9821 13.7265 32.3999C13.5322 32.5943 13.7265 33.5662 13.9552 34.1679C14.225 34.878 41.0263 43.3154 71.0663 34.1493C71.2606 33.7605 71.6494 32.983 71.455 32.5943Z" fill="#FFA519"/>
<path d="M68.0715 40.8622C68.0715 45.7088 69.5743 56.3949 71.428 56.3949C75.3088 56.3949 77.0919 51.8517 77.0919 47.0051C77.0919 42.1585 75.5892 38.2295 73.7355 38.2295C68.683 38.2295 68.0715 36.0155 68.0715 40.8622Z" fill="#4A4E62"/>
<path d="M76.9871 71.289C76.9871 74.4751 73.9566 76.953 69.9596 76.953C65.9625 76.953 60.9392 74.4751 60.9392 71.289C60.9392 68.103 64.8201 64.4713 69.0156 64.5762C73.0126 64.5762 76.9871 68.103 76.9871 71.289Z" fill="#444B5B"/>
<path d="M12.9338 40.3509C11.649 40.7353 10.2645 41.7889 10.0926 44.4133" stroke="#686C81" stroke-width="5" stroke-linecap="round"/>
<path d="M72.0576 40.3197C73.3425 40.7041 74.727 41.7576 74.8989 44.3821" stroke="#686C81" stroke-width="5" stroke-linecap="round"/>
<ellipse cx="14.474" cy="68.3523" rx="2.20265" ry="1.67821" fill="#686C81"/>
<ellipse cx="71.396" cy="68.2646" rx="2.20265" ry="1.67821" transform="rotate(24.0274 71.396 68.2646)" fill="#686C81"/>
<circle cx="33.9829" cy="45.8013" r="3.04175" fill="#303140"/>
<circle cx="33.5639" cy="46.2212" r="1.15377" fill="white"/>
<circle cx="34.6122" cy="44.5425" r="0.52444" fill="white"/>
<circle cx="51.3944" cy="45.8013" r="3.04175" fill="#303140"/>
<path d="M37.6541 53.8777C39.1924 56.0454 43.318 58.4928 47.7233 53.8777" stroke="#303140" stroke-width="2" stroke-linecap="round"/>
<circle cx="51.3942" cy="46.2212" r="1.15377" fill="white"/>
<circle cx="52.4434" cy="44.5425" r="0.52444" fill="white"/>
<path d="M72.1465 97.2064C72.5382 98.6326 75.2703 99.1256 78.2488 98.3075C81.2273 97.4893 83.3243 95.67 82.9325 94.2438C82.5408 92.8176 79.5552 92.3118 76.5767 93.1299C73.5982 93.948 71.7547 95.7802 72.1465 97.2064Z" fill="#90E2EB"/>
<path d="M4.36743 95.6235C4.72857 96.0869 6.05672 97.0112 8.48019 97.0016" stroke="#D7FBFB" stroke-width="2" stroke-linecap="round"/>
<path d="M75.8334 96.2458C76.4093 96.3618 78.019 96.1971 79.8506 94.6101" stroke="#D7FBFB" stroke-width="2" stroke-linecap="round"/>
<circle cx="33.4586" cy="73.3867" r="0.629328" fill="#9BE3E8"/>
<circle cx="32.1998" cy="96.2529" r="0.629328" fill="#9BE3E8"/>
<circle cx="51.7097" cy="73.3867" r="0.629328" fill="#9BE3E8"/>
<circle cx="53.1775" cy="96.0429" r="0.629328" fill="#9BE3E8"/>
<path d="M71.8502 82.4795C72.1393 81.757 73.1509 81.1789 74.8851 81.6125M72.7173 85.0809C73.1509 84.3583 74.018 83.0865 75.7522 83.7802M73.1509 87.6822C73.5844 86.9596 74.5382 85.7746 76.6193 86.8151M73.5844 89.8499C74.1625 89.2719 75.7522 88.3759 77.4864 89.4164" stroke="#444B5B" stroke-width="0.5" stroke-linecap="round"/>
<path d="M24.2275 81.1792C23.6494 82.4799 22.58 86.1217 22.9269 90.2838" stroke="#D7FBFB" stroke-width="2" stroke-linecap="round"/>
<path d="M9.85212 81.1792C10.4302 81.1792 11.4129 81.4393 12.4534 82.4799M8.98502 83.347C9.70761 83.2024 11.3262 83.2602 12.0199 84.6476M8.11792 85.9483C8.8405 85.8038 10.1123 85.8616 11.1528 87.2489M7.25081 88.9831C8.11792 88.6941 10.0255 88.4629 10.7192 89.8502M6.81726 91.5844C7.68436 91.1509 9.59199 90.9775 10.2857 92.018" stroke="#444B5B" stroke-width="0.5" stroke-linecap="round"/>
<path d="M42.802 116.73C43.5728 116.73 44.7289 116.875 46.2704 117.598" stroke="#D8FFFD" stroke-width="0.75" stroke-linecap="round"/>
<path d="M39.3341 117.598C37.433 118.176 33.7379 120.719 34.1656 126.269" stroke="#D8FFFD" stroke-width="0.75" stroke-linecap="round"/>
<path d="M40.3828 117.069C40.6924 116.991 41.382 116.844 41.6641 116.882" stroke="#D8FFFD" stroke-width="0.75" stroke-linecap="round"/>
<circle cx="42.369" cy="124.968" r="1.30066" fill="#7BD5E0"/>
</svg>
