<svg width="95" height="135" viewBox="0 0 95 135" fill="none" xmlns="http://www.w3.org/2000/svg">
<path d="M44.8946 120.32L44.3894 107.522H39.0497L38.5446 120.32H44.8946Z" fill="#C4C4C4" stroke="#444B5B" stroke-width="0.75"/>
<circle cx="9.80399" cy="9.80399" r="8.30399" transform="matrix(-1 0 0 1 51.5234 115.348)" fill="#303140" stroke="#7BD5E0" stroke-width="3"/>
<path d="M44.5713 110.115C43.5612 109.759 41.0062 109.259 38.8672 110.115" stroke="#444B5B" stroke-width="0.5" stroke-linecap="round"/>
<path d="M44.7495 112.192C43.7394 111.835 41.1844 111.336 39.0454 112.192" stroke="#444B5B" stroke-width="0.5" stroke-linecap="round"/>
<path d="M44.5713 114.331C43.5612 113.975 41.0062 113.476 38.8672 114.331" stroke="#444B5B" stroke-width="0.5" stroke-linecap="round"/>
<path d="M5.98717 92.8198C5.90308 88.6992 8.75523 81.292 10.1918 78.1035C11.5233 78.6992 14.018 79.8274 13.3453 79.5751C12.6725 79.3229 10.402 88.8604 9.35087 93.6607C8.6781 93.8289 6.82809 93.1702 5.98717 92.8198Z" fill="#C4C4C4" stroke="#444B5B" stroke-width="0.5"/>
<path d="M84.7384 59.5296C80.9143 61.0665 75.2165 66.5925 72.8457 69.1634C73.9153 70.1551 75.9308 72.0085 75.4351 71.4883C74.9394 70.9682 82.8251 65.1427 86.8299 62.295C86.7211 61.6101 85.3902 60.1661 84.7384 59.5296Z" fill="#C4C4C4" stroke="#444B5B" stroke-width="0.5"/>
<path d="M13.1877 45.3079C13.1877 57.8476 6.46026 68.013 41.3589 68.013C76.2575 68.013 69.7402 57.8476 69.7402 45.3079C69.7402 32.7682 55.9304 22.6028 41.3589 22.6028C26.7873 22.6028 13.1877 32.7682 13.1877 45.3079Z" fill="#7BD5E0"/>
<path d="M12.9284 43.8744C12.9284 55.7384 6.19528 65.7007 41.1232 65.7007C76.0511 65.7007 69.5284 55.7384 69.5284 43.8744C69.5284 32.0105 55.707 22.3928 41.1232 22.3928C26.5394 22.3928 12.9284 32.0105 12.9284 43.8744Z" fill="#9BE3E8"/>
<path d="M67.0679 41.1027C67.0679 46.9081 68.5739 59.7082 70.4316 59.7082C74.3209 59.7082 76.1079 54.2662 76.1079 48.4608C76.1079 42.6554 74.6019 37.9492 72.7442 37.9492C67.6807 37.9492 67.0679 35.2973 67.0679 41.1027Z" fill="#303140"/>
<path d="M67.0679 40.6732C67.0679 45.5303 68.5739 56.2397 70.4316 56.2397C74.3209 56.2397 76.1079 51.6866 76.1079 46.8295C76.1079 41.9723 74.6019 38.0348 72.7442 38.0348C67.6807 38.0348 67.0679 35.816 67.0679 40.6732Z" fill="#4A4E62"/>
<path d="M15.7714 41.287C15.7714 47.0924 14.2655 59.8926 12.4077 59.8926C8.51842 59.8926 6.73145 54.4506 6.73145 48.6452C6.73145 42.8397 8.23743 38.1335 10.0952 38.1335C15.1586 38.1335 15.7714 35.4816 15.7714 41.287Z" fill="#353D4D"/>
<path d="M61.78 76.0477C60.9554 70.1157 55.8833 65.7 49.8943 65.7H33.2945C27.3829 65.7 22.352 70.0053 21.4386 75.8458L18.4903 94.6979C17.3796 101.8 22.7199 108.279 29.9035 108.544L42.4718 109.008L53.0061 108.581C60.09 108.294 65.3822 101.961 64.406 94.9387L61.78 76.0477Z" fill="#7BD5E0"/>
<path d="M60.665 76.4434L62.9313 94.2907C63.2325 96.6623 61.8173 98.9345 59.5074 99.5509C51.9308 101.573 39.4058 103.554 23.9855 100.189C21.6559 99.6804 20.1118 97.4977 20.3041 95.121C21.0651 85.7125 22.0477 79.2653 23.1093 75.1092C23.7262 72.6944 26.2637 71.5727 28.7159 72.0187C37.0672 73.5375 47.4454 72.9229 54.5741 71.9388C57.4909 71.5361 60.2941 73.5224 60.665 76.4434Z" fill="#9BE3EC"/>
<path d="M57.1207 80.3127C56.298 74.3788 51.225 69.9607 45.2344 69.9607H37.7748C31.8614 69.9607 26.8295 74.2686 25.9182 80.1114L24.5807 88.6865C23.4732 95.7867 28.8123 102.262 35.9934 102.528L42.1889 102.757L46.9157 102.565C53.9973 102.277 59.2883 95.9472 58.3149 88.9269L57.1207 80.3127Z" fill="#444B5B"/>
<circle cx="8.19906" cy="8.19906" r="8.19906" transform="matrix(-1 0 0 1 76.1079 64.439)" fill="#353D4D"/>
<path d="M59.9204 71.1664C59.9204 74.3594 62.9575 76.8427 66.9632 76.8427C70.9689 76.8427 75.793 74.2543 75.793 71.0613C75.793 67.8683 71.915 64.439 67.9093 64.439C63.9035 64.439 59.9204 67.9734 59.9204 71.1664Z" fill="#444B5B"/>
<circle cx="8.19906" cy="8.19906" r="8.19906" transform="matrix(-1 0 0 1 23.1299 64.439)" fill="#353D4D"/>
<ellipse cx="6.16104" cy="3.3739" rx="6.16104" ry="3.3739" transform="matrix(0.621462 0.783444 0.783444 -0.621462 81.5996 56.1826)" fill="#7BD5E0"/>
<ellipse cx="5.60493" cy="2.68381" rx="5.60493" ry="2.68381" transform="matrix(0.621462 0.783444 0.783444 -0.621462 82.0522 56.5063)" fill="#90E2EB"/>
<ellipse cx="6.83449" cy="95.7854" rx="6.16104" ry="3.3739" transform="rotate(15.3589 6.83449 95.7854)" fill="#7BD5E0"/>
<path d="M11.7175 30.1763C38.7263 38.1866 62.5088 33.2144 71.0239 29.7271C72.6157 31.6269 71.6872 34.113 71.0239 35.1185C47.7121 43.0774 21.7731 38.4347 11.7175 35.1185C9.92035 32.6539 10.9687 30.7968 11.7175 30.1763Z" fill="#FECA00" stroke="#353D4D" stroke-width="3"/>
<path d="M12.5327 30.0906C34.6635 38.1522 60.2217 33.4496 70.2345 30.0906C72.4424 19.7698 65.0783 13.4241 61.1203 11.5413C58.1935 7.2795 48.6899 4.58803 44.304 3.77503C43.8932 1.92652 43.6817 1.78949 40.986 2.17454C37.693 1.72528 38.2065 2.98342 37.693 3.77503C30.5043 4.90468 23.5724 9.72278 21.005 11.9906C11.1977 16.9713 11.2704 26.1326 12.5327 30.0906Z" fill="#FEE200" stroke="#353D4D" stroke-width="3"/>
<path d="M13.0069 30.162C34.7681 36.7981 59.8996 32.9271 69.7452 30.162C71.9162 21.6662 64.6751 16.4426 60.7832 14.8927C57.9052 11.3845 48.5604 9.16897 44.2477 8.49973C43.8437 6.97808 43.6358 6.86529 40.985 7.18225C37.7471 6.81243 38.252 7.8481 37.7471 8.49973C30.6785 9.42962 23.8623 13.3958 21.3378 15.2626C11.6942 19.3626 11.7657 26.9039 13.0069 30.162Z" fill="#FEC900"/>
<path d="M44.5757 4.4292V34.1985M37.184 4.81685V34.5862" stroke="#353D4D" stroke-width="3"/>
<path d="M48.4848 6.12915C48.795 6.17896 51.088 6.77941 51.5225 7.2139V27.1975C51.07 27.7371 49.8291 28.4925 48.4848 27.1975V6.12915Z" fill="#FFA616"/>
<path d="M33.2502 6.25244C32.9422 6.30345 31.1019 6.77912 30.2329 7.64811L30.2343 26.784C30.6835 27.3366 31.9155 28.1102 33.2502 26.784V6.25244Z" fill="#FFA616"/>
<ellipse cx="4.1078" cy="2.82412" rx="4.1078" ry="2.82412" transform="matrix(-0.815185 -0.579201 -0.579201 0.815185 63.3027 20.4929)" fill="#FFE200"/>
<ellipse cx="1.68773" cy="1.16031" rx="1.68773" ry="1.16031" transform="matrix(0.917968 -0.396655 -0.396655 -0.917968 62.2573 26.3923)" fill="#FEE200"/>
<path d="M12.3801 32.3882C39.6453 41.0041 61.9872 35.7833 70.2341 32.1934C70.4289 32.3882 70.2341 33.3621 70.005 33.9652C69.7346 34.6768 42.875 43.1326 12.7697 33.9465C12.5749 33.5569 12.1853 32.7777 12.3801 32.3882Z" fill="#FFA519"/>
<path d="M15.7714 40.6732C15.7714 45.5303 14.2655 56.2397 12.4077 56.2397C8.51842 56.2397 6.73145 51.6866 6.73145 46.8295C6.73145 41.9723 8.23743 38.0348 10.0952 38.0348C15.1586 38.0348 15.7714 35.816 15.7714 40.6732Z" fill="#4A4E62"/>
<path d="M6.83714 71.1667C6.83714 74.3596 9.8742 76.8429 13.8799 76.8429C17.8857 76.8429 22.9199 74.3596 22.9199 71.1667C22.9199 67.9737 19.0306 64.3341 14.826 64.4392C10.8202 64.4392 6.83714 67.9737 6.83714 71.1667Z" fill="#444B5B"/>
<path d="M71.0294 40.1604C72.317 40.5456 73.7046 41.6014 73.8768 44.2316" stroke="#686C81" stroke-width="5" stroke-linecap="round"/>
<path d="M11.7768 40.1296C10.4891 40.5148 9.1016 41.5707 8.92932 44.2008" stroke="#686C81" stroke-width="5" stroke-linecap="round"/>
<ellipse cx="2.20744" cy="1.68186" rx="2.20744" ry="1.68186" transform="matrix(-1 0 0 1 71.6929 66.5415)" fill="#686C81"/>
<ellipse cx="2.20744" cy="1.68186" rx="2.20744" ry="1.68186" transform="matrix(-0.913351 0.407174 0.407174 0.913351 13.772 65.7)" fill="#686C81"/>
<circle cx="3.04837" cy="3.04837" r="3.04837" transform="matrix(-1 0 0 1 52.9824 42.5742)" fill="#303140"/>
<circle cx="1.15628" cy="1.15628" r="1.15628" transform="matrix(-1 0 0 1 51.5103 44.8879)" fill="white"/>
<circle cx="0.525581" cy="0.525581" r="0.525581" transform="matrix(-1 0 0 1 49.8296 43.8362)" fill="white"/>
<circle cx="3.04837" cy="3.04837" r="3.04837" transform="matrix(-1 0 0 1 35.5332 42.5742)" fill="#303140"/>
<path d="M46.2549 53.7175C44.7132 55.8899 40.5786 58.3426 36.1637 53.7175" stroke="#303140" stroke-width="2" stroke-linecap="round"/>
<circle cx="1.15628" cy="1.15628" r="1.15628" transform="matrix(-1 0 0 1 33.6411 44.8879)" fill="white"/>
<circle cx="0.525581" cy="0.525581" r="0.525581" transform="matrix(-1 0 0 1 31.9595 43.8362)" fill="white"/>
<path d="M11.6874 97.14C11.2948 98.5693 8.55676 99.0634 5.5718 98.2435C2.58684 97.4236 0.485308 95.6003 0.877897 94.171C1.27049 92.7417 4.26258 92.2347 7.24754 93.0546C10.2325 93.8745 12.08 95.7108 11.6874 97.14Z" fill="#90E2EB"/>
<path d="M85.9731 56.793C86.5422 56.944 87.9159 57.8058 88.8585 60.0442" stroke="#D7FBFB" stroke-width="2" stroke-linecap="round"/>
<path d="M7.99316 96.1777C7.41602 96.294 5.80282 96.1288 3.9672 94.5384" stroke="#D7FBFB" stroke-width="2" stroke-linecap="round"/>
<circle cx="0.630697" cy="0.630697" r="0.630697" transform="matrix(-1 0 0 1 51.0908 72.6382)" fill="#9BE3E8"/>
<circle cx="0.630697" cy="0.630697" r="0.630697" transform="matrix(-1 0 0 1 52.3516 95.5535)" fill="#9BE3E8"/>
<circle cx="0.630697" cy="0.630697" r="0.630697" transform="matrix(-1 0 0 1 32.7998 72.6382)" fill="#9BE3E8"/>
<circle cx="0.630697" cy="0.630697" r="0.630697" transform="matrix(-1 0 0 1 31.3286 95.3435)" fill="#9BE3E8"/>
<path d="M11.9844 82.3814C11.6947 81.6573 10.6809 81.078 8.94291 81.5124M11.1154 84.9884C10.6809 84.2643 9.8119 82.9897 8.07392 83.6849M10.6809 87.5954C10.2464 86.8712 9.29051 85.6836 7.20493 86.7264M10.2464 89.7678C9.66707 89.1885 8.07392 88.2906 6.33594 89.3334" stroke="#444B5B" stroke-width="0.5" stroke-linecap="round"/>
<path d="M59.7116 81.0784C60.291 82.3819 61.3627 86.0316 61.0151 90.2028" stroke="#D7FBFB" stroke-width="2" stroke-linecap="round"/>
<path d="M74.8072 67.5208C75.0342 68.0538 75.6599 68.8578 77.0279 69.4087M76.4656 65.8701C76.6161 66.5932 77.3049 68.0629 78.8565 68.1578M78.5238 64.0493C78.6742 64.7723 79.2268 65.9223 80.9146 66.337M80.9817 62.0582C81.0556 62.9713 81.5914 64.821 83.143 64.9159M83.2101 60.6372C83.1507 61.6069 83.7398 63.434 84.9716 63.6651" stroke="#444B5B" stroke-width="0.5" stroke-linecap="round"/>
<path d="M41.0952 116.706C40.3228 116.706 39.1641 116.851 37.6193 117.575" stroke="#D8FFFD" stroke-width="0.75" stroke-linecap="round"/>
<path d="M44.5712 117.575C46.4764 118.155 50.1796 120.704 49.7509 126.265" stroke="#D8FFFD" stroke-width="0.75" stroke-linecap="round"/>
<path d="M43.52 117.046C43.2098 116.968 42.5186 116.821 42.2359 116.858" stroke="#D8FFFD" stroke-width="0.75" stroke-linecap="round"/>
<circle cx="1.30348" cy="1.30348" r="1.30348" transform="matrix(-1 0 0 1 42.8325 123.658)" fill="#7BD5E0"/>
</svg>
