<svg width="36" height="490" viewBox="0 0 36 490" fill="none" xmlns="http://www.w3.org/2000/svg">
<rect width="9.58783" height="453.504" rx="2" transform="matrix(-1 0 0 1 10.1129 36.3733)" fill="#C4C4C4"/>
<rect width="9.58783" height="471.721" rx="2" transform="matrix(-1 0 0 1 36 0.898438)" fill="#C4C4C4"/>
<path d="M29.7678 38.291L8.19514 62.2606" stroke="#C4C4C4" stroke-width="5"/>
<path d="M29.7678 150.469L8.19514 174.438" stroke="#C4C4C4" stroke-width="5"/>
<path d="M29.7678 258.811L8.19514 282.781" stroke="#C4C4C4" stroke-width="5"/>
<path d="M29.7678 370.989L8.19514 394.958" stroke="#C4C4C4" stroke-width="5"/>
<path d="M29.7678 75.6836L8.19514 99.6532" stroke="#C4C4C4" stroke-width="5"/>
<path d="M29.7678 187.861L8.19514 211.831" stroke="#C4C4C4" stroke-width="5"/>
<path d="M29.7678 296.204L8.19514 320.174" stroke="#C4C4C4" stroke-width="5"/>
<path d="M29.7678 408.381L8.19514 432.351" stroke="#C4C4C4" stroke-width="5"/>
<path d="M29.7678 113.076L8.19514 137.045" stroke="#C4C4C4" stroke-width="5"/>
<path d="M29.7678 225.254L8.19514 249.223" stroke="#C4C4C4" stroke-width="5"/>
<path d="M29.7678 333.596L8.19514 357.566" stroke="#C4C4C4" stroke-width="5"/>
<path d="M29.7678 445.774L8.19514 469.744" stroke="#C4C4C4" stroke-width="5"/>
</svg>
