<svg width="898" height="429" viewBox="0 0 898 429" fill="none" xmlns="http://www.w3.org/2000/svg">
<path d="M3.092 423.132C2.62267 423.015 2.388 422.765 2.388 422.384C2.388 422.267 2.41 422.157 2.454 422.054L2.564 421.79L-0.00999996 407.6H1.882L3.884 419.458L7.316 407.952C7.43333 407.571 7.70467 407.38 8.13 407.38C8.51133 407.38 8.80467 407.446 9.01 407.578C9.21533 407.71 9.318 407.879 9.318 408.084C9.318 408.143 9.30333 408.216 9.274 408.304L9.208 408.524L12.42 419.458L14.4 407.6H16.314L13.696 421.79L13.806 422.054C13.85 422.157 13.872 422.267 13.872 422.384C13.872 422.765 13.6373 423.015 13.168 423.132C12.904 423.191 12.7353 423.22 12.662 423.22C12.398 423.22 12.178 423.132 12.002 422.956C11.8407 422.78 11.7013 422.501 11.584 422.12L8.152 410.57L4.676 422.12C4.55867 422.501 4.412 422.78 4.236 422.956C4.07467 423.132 3.862 423.22 3.598 423.22C3.52467 423.22 3.356 423.191 3.092 423.132ZM22.2421 423.22C21.1568 423.22 20.2181 422.993 19.4261 422.538C18.6341 422.083 18.0255 421.445 17.6001 420.624C17.1895 419.788 16.9841 418.827 16.9841 417.742C16.9841 416.129 17.3948 414.787 18.2161 413.716C19.0375 412.645 20.2841 412.11 21.9561 412.11C23.1148 412.11 24.0681 412.381 24.8161 412.924C25.5641 413.467 26.1068 414.141 26.4441 414.948C26.7815 415.74 26.9501 416.547 26.9501 417.368C26.9501 418.101 26.5321 418.468 25.6961 418.468H18.8541C18.8541 419.436 19.1548 420.213 19.7561 420.8C20.3575 421.372 21.1861 421.658 22.2421 421.658C23.4888 421.658 24.5155 421.291 25.3221 420.558L26.2901 421.636C25.8208 422.135 25.2341 422.523 24.5301 422.802C23.8261 423.081 23.0635 423.22 22.2421 423.22ZM25.1021 416.95C25.1021 416.011 24.8235 415.227 24.2661 414.596C23.7235 413.965 22.9535 413.65 21.9561 413.65C21.2815 413.65 20.7095 413.811 20.2401 414.134C19.7708 414.457 19.4188 414.875 19.1841 415.388C18.9641 415.887 18.8541 416.407 18.8541 416.95H25.1021ZM40.1013 423.22C38.4 423.22 37.058 422.729 36.0753 421.746C35.0927 420.749 34.6013 419.392 34.6013 417.676C34.6013 416.547 34.8213 415.564 35.2613 414.728C35.7013 413.892 36.3247 413.247 37.1313 412.792C37.9527 412.337 38.8987 412.11 39.9693 412.11C40.6733 412.11 41.3553 412.227 42.0153 412.462C42.69 412.697 43.2327 413.012 43.6433 413.408L42.9393 414.728C42.6167 414.42 42.1913 414.171 41.6633 413.98C41.15 413.775 40.6073 413.672 40.0353 413.672C38.9353 413.672 38.07 414.017 37.4393 414.706C36.8087 415.395 36.4933 416.385 36.4933 417.676C36.4933 418.937 36.816 419.92 37.4613 420.624C38.1213 421.313 39.0307 421.658 40.1893 421.658C40.7027 421.658 41.2013 421.57 41.6853 421.394C42.1693 421.218 42.5727 420.961 42.8953 420.624L43.9513 421.724C43.5113 422.179 42.9393 422.545 42.2353 422.824C41.546 423.088 40.8347 423.22 40.1013 423.22ZM50.029 423.22C49.061 423.22 48.225 422.985 47.521 422.516C46.817 422.032 46.2817 421.379 45.915 420.558C45.5483 419.737 45.365 418.805 45.365 417.764C45.365 416.693 45.5483 415.733 45.915 414.882C46.2963 414.017 46.8463 413.342 47.565 412.858C48.2837 412.359 49.149 412.11 50.161 412.11C51.613 412.11 52.735 412.697 53.527 413.87V412.33H55.331V420.25C55.331 421.277 55.4997 422.061 55.837 422.604L54.319 423.22C53.967 422.795 53.7617 422.179 53.703 421.372L53.637 421.35C52.7423 422.597 51.5397 423.22 50.029 423.22ZM50.271 421.68C51.3123 421.68 52.1117 421.35 52.669 420.69C53.241 420.015 53.527 419.165 53.527 418.138V417.214C53.527 416.627 53.4023 416.063 53.153 415.52C52.9183 414.977 52.559 414.53 52.075 414.178C51.591 413.826 51.0043 413.65 50.315 413.65C49.3177 413.65 48.555 414.031 48.027 414.794C47.499 415.542 47.235 416.532 47.235 417.764C47.235 418.952 47.4917 419.905 48.005 420.624C48.533 421.328 49.2883 421.68 50.271 421.68ZM66.2079 423.22C65.7386 422.413 65.5039 421.541 65.5039 420.602V416.422C65.5039 415.483 65.3133 414.794 64.9319 414.354C64.5653 413.899 63.9713 413.672 63.1499 413.672C62.5633 413.672 62.0426 413.833 61.5879 414.156C61.1333 414.479 60.7813 414.911 60.5319 415.454C60.2826 415.997 60.1579 416.576 60.1579 417.192V423H58.3099V415.014C58.3099 414.515 58.2659 414.09 58.1779 413.738C58.1046 413.386 57.9873 413.056 57.8259 412.748L59.4759 412.11C59.5933 412.33 59.7033 412.616 59.8059 412.968C59.9233 413.305 59.9966 413.65 60.0259 414.002C60.4073 413.415 60.9133 412.953 61.5439 412.616C62.1893 412.279 62.8786 412.11 63.6119 412.11C64.8733 412.11 65.8119 412.484 66.4279 413.232C67.0439 413.965 67.3519 415.036 67.3519 416.444V420.602C67.3519 421.335 67.5206 421.988 67.8579 422.56L66.2079 423.22ZM80.2156 423.22C79.2182 423.22 78.3236 423.066 77.5316 422.758C76.7396 422.45 76.0649 422.017 75.5076 421.46L76.6296 420.25C77.0549 420.705 77.5829 421.064 78.2136 421.328C78.8589 421.577 79.5262 421.702 80.2156 421.702C80.9049 421.702 81.4329 421.592 81.7996 421.372C82.1662 421.152 82.3496 420.822 82.3496 420.382C82.3496 420.074 82.2836 419.825 82.1516 419.634C82.0196 419.443 81.7702 419.253 81.4036 419.062C81.0369 418.871 80.4576 418.644 79.6656 418.38C78.3016 417.911 77.3336 417.434 76.7616 416.95C76.1896 416.466 75.9036 415.806 75.9036 414.97C75.9036 414.09 76.2482 413.393 76.9376 412.88C77.6269 412.367 78.6022 412.11 79.8636 412.11C80.5969 412.11 81.2716 412.22 81.8876 412.44C82.5182 412.645 83.0682 412.917 83.5376 413.254L82.8336 414.574C82.3349 414.237 81.8509 413.995 81.3816 413.848C80.9122 413.701 80.3989 413.628 79.8416 413.628C79.1522 413.628 78.6316 413.753 78.2796 414.002C77.9276 414.237 77.7516 414.559 77.7516 414.97C77.7516 415.293 77.8469 415.557 78.0376 415.762C78.2282 415.967 78.4849 416.143 78.8076 416.29C79.1302 416.437 79.6802 416.649 80.4576 416.928C81.4256 417.28 82.1662 417.603 82.6796 417.896C83.2076 418.189 83.5889 418.534 83.8236 418.93C84.0729 419.311 84.1976 419.803 84.1976 420.404C84.1976 421.284 83.8456 421.973 83.1416 422.472C82.4522 422.971 81.4769 423.22 80.2156 423.22ZM86.5153 406.852H88.3633V416.07L92.3673 412.33H94.7213L89.4413 417.214L95.4253 423H93.0273L88.3633 418.446V423H86.5153V406.852ZM97.7836 410.02C97.4023 410.02 97.0796 409.895 96.8156 409.646C96.5516 409.382 96.4196 409.067 96.4196 408.7C96.4196 408.333 96.5516 408.025 96.8156 407.776C97.0796 407.512 97.4023 407.38 97.7836 407.38C98.1649 407.38 98.4876 407.512 98.7516 407.776C99.0156 408.025 99.1476 408.333 99.1476 408.7C99.1476 409.067 99.0156 409.382 98.7516 409.646C98.4876 409.895 98.1649 410.02 97.7836 410.02ZM96.8376 412.33H98.6856V423H96.8376V412.33ZM101.989 415.124C101.989 414.508 101.945 414.039 101.857 413.716C101.783 413.379 101.651 413.056 101.461 412.748L103.045 412.132C103.221 412.323 103.367 412.587 103.485 412.924C103.617 413.247 103.69 413.606 103.705 414.002C104.13 413.415 104.643 412.953 105.245 412.616C105.861 412.279 106.557 412.11 107.335 412.11C108.801 412.11 109.945 412.623 110.767 413.65C111.603 414.662 112.021 415.997 112.021 417.654C112.021 419.341 111.603 420.69 110.767 421.702C109.945 422.714 108.757 423.22 107.203 423.22C106.484 423.22 105.839 423.066 105.267 422.758C104.695 422.45 104.218 422.025 103.837 421.482V427.84H101.989V415.124ZM107.005 421.68C108.09 421.68 108.882 421.313 109.381 420.58C109.894 419.847 110.151 418.871 110.151 417.654C110.151 416.495 109.894 415.542 109.381 414.794C108.882 414.031 108.119 413.65 107.093 413.65C106.418 413.65 105.831 413.811 105.333 414.134C104.849 414.457 104.475 414.889 104.211 415.432C103.947 415.975 103.815 416.561 103.815 417.192V418.116C103.815 418.717 103.939 419.297 104.189 419.854C104.438 420.397 104.805 420.837 105.289 421.174C105.773 421.511 106.345 421.68 107.005 421.68ZM124.937 423.22C123.852 423.22 122.913 422.993 122.121 422.538C121.329 422.083 120.721 421.445 120.295 420.624C119.885 419.788 119.679 418.827 119.679 417.742C119.679 416.129 120.09 414.787 120.911 413.716C121.733 412.645 122.979 412.11 124.651 412.11C125.81 412.11 126.763 412.381 127.511 412.924C128.259 413.467 128.802 414.141 129.139 414.948C129.477 415.74 129.645 416.547 129.645 417.368C129.645 418.101 129.227 418.468 128.391 418.468H121.549C121.549 419.436 121.85 420.213 122.451 420.8C123.053 421.372 123.881 421.658 124.937 421.658C126.184 421.658 127.211 421.291 128.017 420.558L128.985 421.636C128.516 422.135 127.929 422.523 127.225 422.802C126.521 423.081 125.759 423.22 124.937 423.22ZM127.797 416.95C127.797 416.011 127.519 415.227 126.961 414.596C126.419 413.965 125.649 413.65 124.651 413.65C123.977 413.65 123.405 413.811 122.935 414.134C122.466 414.457 122.114 414.875 121.879 415.388C121.659 415.887 121.549 416.407 121.549 416.95H127.797ZM131.955 406.852H133.803V423H131.955V406.852ZM141.373 423.22C140.288 423.22 139.349 422.993 138.557 422.538C137.765 422.083 137.156 421.445 136.731 420.624C136.32 419.788 136.115 418.827 136.115 417.742C136.115 416.129 136.526 414.787 137.347 413.716C138.168 412.645 139.415 412.11 141.087 412.11C142.246 412.11 143.199 412.381 143.947 412.924C144.695 413.467 145.238 414.141 145.575 414.948C145.912 415.74 146.081 416.547 146.081 417.368C146.081 418.101 145.663 418.468 144.827 418.468H137.985C137.985 419.436 138.286 420.213 138.887 420.8C139.488 421.372 140.317 421.658 141.373 421.658C142.62 421.658 143.646 421.291 144.453 420.558L145.421 421.636C144.952 422.135 144.365 422.523 143.661 422.802C142.957 423.081 142.194 423.22 141.373 423.22ZM144.233 416.95C144.233 416.011 143.954 415.227 143.397 414.596C142.854 413.965 142.084 413.65 141.087 413.65C140.412 413.65 139.84 413.811 139.371 414.134C138.902 414.457 138.55 414.875 138.315 415.388C138.095 415.887 137.985 416.407 137.985 416.95H144.233ZM161.876 423.22C161.407 422.413 161.172 421.541 161.172 420.602V416.378C161.172 415.439 161.026 414.757 160.732 414.332C160.439 413.892 159.918 413.672 159.17 413.672C158.393 413.672 157.792 413.943 157.366 414.486C156.956 415.014 156.75 415.696 156.75 416.532V423H154.946V416.378C154.946 415.513 154.778 414.845 154.44 414.376C154.118 413.907 153.612 413.672 152.922 413.672C152.116 413.672 151.492 413.987 151.052 414.618C150.612 415.249 150.392 416.055 150.392 417.038V423H148.544V415.014C148.544 414.486 148.508 414.053 148.434 413.716C148.361 413.379 148.236 413.056 148.06 412.748L149.71 412.11C149.857 412.374 149.974 412.645 150.062 412.924C150.165 413.203 150.231 413.54 150.26 413.936C150.554 413.364 150.964 412.917 151.492 412.594C152.035 412.271 152.614 412.11 153.23 412.11C154.58 412.11 155.518 412.777 156.046 414.112C156.384 413.467 156.846 412.975 157.432 412.638C158.019 412.286 158.686 412.11 159.434 412.11C160.652 412.11 161.554 412.462 162.14 413.166C162.727 413.87 163.02 414.823 163.02 416.026V420.602C163.02 421.335 163.189 421.988 163.526 422.56L161.876 423.22ZM170.764 423.22C169.678 423.22 168.74 422.993 167.948 422.538C167.156 422.083 166.547 421.445 166.122 420.624C165.711 419.788 165.506 418.827 165.506 417.742C165.506 416.129 165.916 414.787 166.738 413.716C167.559 412.645 168.806 412.11 170.478 412.11C171.636 412.11 172.59 412.381 173.338 412.924C174.086 413.467 174.628 414.141 174.966 414.948C175.303 415.74 175.472 416.547 175.472 417.368C175.472 418.101 175.054 418.468 174.218 418.468H167.376C167.376 419.436 167.676 420.213 168.278 420.8C168.879 421.372 169.708 421.658 170.764 421.658C172.01 421.658 173.037 421.291 173.844 420.558L174.812 421.636C174.342 422.135 173.756 422.523 173.052 422.802C172.348 423.081 171.585 423.22 170.764 423.22ZM173.624 416.95C173.624 416.011 173.345 415.227 172.788 414.596C172.245 413.965 171.475 413.65 170.478 413.65C169.803 413.65 169.231 413.811 168.762 414.134C168.292 414.457 167.94 414.875 167.706 415.388C167.486 415.887 167.376 416.407 167.376 416.95H173.624ZM185.833 423.22C185.364 422.413 185.129 421.541 185.129 420.602V416.422C185.129 415.483 184.938 414.794 184.557 414.354C184.19 413.899 183.596 413.672 182.775 413.672C182.188 413.672 181.668 413.833 181.213 414.156C180.758 414.479 180.406 414.911 180.157 415.454C179.908 415.997 179.783 416.576 179.783 417.192V423H177.935V415.014C177.935 414.515 177.891 414.09 177.803 413.738C177.73 413.386 177.612 413.056 177.451 412.748L179.101 412.11C179.218 412.33 179.328 412.616 179.431 412.968C179.548 413.305 179.622 413.65 179.651 414.002C180.032 413.415 180.538 412.953 181.169 412.616C181.814 412.279 182.504 412.11 183.237 412.11C184.498 412.11 185.437 412.484 186.053 413.232C186.669 413.965 186.977 415.036 186.977 416.444V420.602C186.977 421.335 187.146 421.988 187.483 422.56L185.833 423.22ZM193.839 423.22C192.915 423.22 192.225 422.971 191.771 422.472C191.331 421.959 191.111 421.233 191.111 420.294V413.87H189.241L189.637 412.33H191.133V409.624L192.915 408.81V412.33H195.665L195.291 413.87H192.959V420.316C192.959 420.829 193.039 421.189 193.201 421.394C193.377 421.599 193.685 421.702 194.125 421.702C194.594 421.702 195.005 421.614 195.357 421.438L195.819 422.824C195.599 422.927 195.298 423.015 194.917 423.088C194.535 423.176 194.176 423.22 193.839 423.22ZM208.754 423.22C207.052 423.22 205.71 422.729 204.728 421.746C203.745 420.749 203.254 419.392 203.254 417.676C203.254 416.547 203.474 415.564 203.914 414.728C204.354 413.892 204.977 413.247 205.784 412.792C206.605 412.337 207.551 412.11 208.622 412.11C209.326 412.11 210.008 412.227 210.668 412.462C211.342 412.697 211.885 413.012 212.296 413.408L211.592 414.728C211.269 414.42 210.844 414.171 210.316 413.98C209.802 413.775 209.26 413.672 208.688 413.672C207.588 413.672 206.722 414.017 206.092 414.706C205.461 415.395 205.146 416.385 205.146 417.676C205.146 418.937 205.468 419.92 206.114 420.624C206.774 421.313 207.683 421.658 208.842 421.658C209.355 421.658 209.854 421.57 210.338 421.394C210.822 421.218 211.225 420.961 211.548 420.624L212.604 421.724C212.164 422.179 211.592 422.545 210.888 422.824C210.198 423.088 209.487 423.22 208.754 423.22ZM220.248 422.604C220.424 422.296 220.556 421.973 220.644 421.636C220.732 421.284 220.776 420.815 220.776 420.228V406.852H222.624V413.848C223.02 413.335 223.518 412.917 224.12 412.594C224.721 412.271 225.388 412.11 226.122 412.11C227.662 412.11 228.828 412.616 229.62 413.628C230.412 414.625 230.808 415.975 230.808 417.676C230.808 418.717 230.617 419.656 230.236 420.492C229.854 421.328 229.304 421.995 228.586 422.494C227.867 422.978 227.024 423.22 226.056 423.22C225.278 423.22 224.582 423.051 223.966 422.714C223.364 422.377 222.866 421.915 222.47 421.328C222.455 421.739 222.382 422.113 222.25 422.45C222.132 422.787 221.986 423.044 221.81 423.22L220.248 422.604ZM225.88 421.68C226.892 421.68 227.654 421.299 228.168 420.536C228.681 419.759 228.938 418.805 228.938 417.676C228.938 416.459 228.688 415.483 228.19 414.75C227.706 414.017 226.921 413.65 225.836 413.65C225.176 413.65 224.596 413.819 224.098 414.156C223.614 414.493 223.24 414.941 222.976 415.498C222.726 416.041 222.602 416.613 222.602 417.214V418.138C222.602 418.769 222.734 419.355 222.998 419.898C223.262 420.441 223.636 420.873 224.12 421.196C224.618 421.519 225.205 421.68 225.88 421.68ZM232.664 426.52C234.586 425.816 235.774 424.452 236.228 422.428L231.806 412.33H233.94L237.196 420.492L240.21 412.33H242.322L237.944 423.286C237.431 424.547 236.815 425.545 236.096 426.278C235.378 427.026 234.417 427.62 233.214 428.06L232.664 426.52ZM254.646 423.22C253.678 423.22 252.842 422.985 252.138 422.516C251.434 422.032 250.899 421.379 250.532 420.558C250.166 419.737 249.982 418.805 249.982 417.764C249.982 416.693 250.166 415.733 250.532 414.882C250.914 414.017 251.464 413.342 252.182 412.858C252.901 412.359 253.766 412.11 254.778 412.11C256.23 412.11 257.352 412.697 258.144 413.87V412.33H259.948V420.25C259.948 421.277 260.117 422.061 260.454 422.604L258.936 423.22C258.584 422.795 258.379 422.179 258.32 421.372L258.254 421.35C257.36 422.597 256.157 423.22 254.646 423.22ZM254.888 421.68C255.93 421.68 256.729 421.35 257.286 420.69C257.858 420.015 258.144 419.165 258.144 418.138V417.214C258.144 416.627 258.02 416.063 257.77 415.52C257.536 414.977 257.176 414.53 256.692 414.178C256.208 413.826 255.622 413.65 254.932 413.65C253.935 413.65 253.172 414.031 252.644 414.794C252.116 415.542 251.852 416.532 251.852 417.764C251.852 418.952 252.109 419.905 252.622 420.624C253.15 421.328 253.906 421.68 254.888 421.68ZM271.441 423.22C271.265 423.044 271.118 422.787 271.001 422.45C270.884 422.113 270.818 421.739 270.803 421.328C269.923 422.589 268.72 423.22 267.195 423.22C265.714 423.22 264.548 422.729 263.697 421.746C262.861 420.749 262.443 419.436 262.443 417.808C262.443 416.107 262.861 414.735 263.697 413.694C264.548 412.638 265.75 412.11 267.305 412.11C268.698 412.11 269.813 412.689 270.649 413.848V406.852H272.497V420.228C272.497 420.829 272.534 421.306 272.607 421.658C272.695 421.995 272.827 422.311 273.003 422.604L271.441 423.22ZM267.393 421.68C268.068 421.68 268.647 421.519 269.131 421.196C269.63 420.873 270.004 420.441 270.253 419.898C270.517 419.355 270.649 418.769 270.649 418.138V417.214C270.649 416.613 270.524 416.041 270.275 415.498C270.026 414.941 269.659 414.493 269.175 414.156C268.706 413.819 268.141 413.65 267.481 413.65C266.381 413.65 265.574 414.039 265.061 414.816C264.562 415.593 264.313 416.591 264.313 417.808C264.313 418.952 264.57 419.883 265.083 420.602C265.596 421.321 266.366 421.68 267.393 421.68ZM283.429 423.22C283.253 423.044 283.107 422.787 282.989 422.45C282.872 422.113 282.806 421.739 282.791 421.328C281.911 422.589 280.709 423.22 279.183 423.22C277.702 423.22 276.536 422.729 275.685 421.746C274.849 420.749 274.431 419.436 274.431 417.808C274.431 416.107 274.849 414.735 275.685 413.694C276.536 412.638 277.739 412.11 279.293 412.11C280.687 412.11 281.801 412.689 282.637 413.848V406.852H284.485V420.228C284.485 420.829 284.522 421.306 284.595 421.658C284.683 421.995 284.815 422.311 284.991 422.604L283.429 423.22ZM279.381 421.68C280.056 421.68 280.635 421.519 281.119 421.196C281.618 420.873 281.992 420.441 282.241 419.898C282.505 419.355 282.637 418.769 282.637 418.138V417.214C282.637 416.613 282.513 416.041 282.263 415.498C282.014 414.941 281.647 414.493 281.163 414.156C280.694 413.819 280.129 413.65 279.469 413.65C278.369 413.65 277.563 414.039 277.049 414.816C276.551 415.593 276.301 416.591 276.301 417.808C276.301 418.952 276.558 419.883 277.071 420.602C277.585 421.321 278.355 421.68 279.381 421.68ZM288.672 410.02C288.291 410.02 287.968 409.895 287.704 409.646C287.44 409.382 287.308 409.067 287.308 408.7C287.308 408.333 287.44 408.025 287.704 407.776C287.968 407.512 288.291 407.38 288.672 407.38C289.054 407.38 289.376 407.512 289.64 407.776C289.904 408.025 290.036 408.333 290.036 408.7C290.036 409.067 289.904 409.382 289.64 409.646C289.376 409.895 289.054 410.02 288.672 410.02ZM287.726 412.33H289.574V423H287.726V412.33ZM300.731 423.22C300.262 422.413 300.027 421.541 300.027 420.602V416.422C300.027 415.483 299.837 414.794 299.455 414.354C299.089 413.899 298.495 413.672 297.673 413.672C297.087 413.672 296.566 413.833 296.111 414.156C295.657 414.479 295.305 414.911 295.055 415.454C294.806 415.997 294.681 416.576 294.681 417.192V423H292.833V415.014C292.833 414.515 292.789 414.09 292.701 413.738C292.628 413.386 292.511 413.056 292.349 412.748L293.999 412.11C294.117 412.33 294.227 412.616 294.329 412.968C294.447 413.305 294.52 413.65 294.549 414.002C294.931 413.415 295.437 412.953 296.067 412.616C296.713 412.279 297.402 412.11 298.135 412.11C299.397 412.11 300.335 412.484 300.951 413.232C301.567 413.965 301.875 415.036 301.875 416.444V420.602C301.875 421.335 302.044 421.988 302.381 422.56L300.731 423.22ZM308.957 427.796C308.356 427.796 307.762 427.723 307.175 427.576C306.588 427.444 306.068 427.268 305.613 427.048L306.185 425.618C306.552 425.809 306.977 425.955 307.461 426.058C307.945 426.175 308.444 426.234 308.957 426.234C310.233 426.234 311.142 425.911 311.685 425.266C312.228 424.635 312.499 423.667 312.499 422.362V421.262C312.118 421.805 311.641 422.23 311.069 422.538C310.497 422.846 309.844 423 309.111 423C307.556 423 306.376 422.501 305.569 421.504C304.762 420.492 304.359 419.135 304.359 417.434C304.359 415.821 304.77 414.53 305.591 413.562C306.412 412.594 307.564 412.11 309.045 412.11C309.852 412.11 310.541 412.271 311.113 412.594C311.7 412.917 312.213 413.379 312.653 413.98C312.668 413.584 312.734 413.225 312.851 412.902C312.983 412.565 313.137 412.301 313.313 412.11L314.875 412.726C314.699 413.049 314.567 413.379 314.479 413.716C314.391 414.039 314.347 414.501 314.347 415.102V422.428C314.347 424.173 313.863 425.501 312.895 426.41C311.942 427.334 310.629 427.796 308.957 427.796ZM309.309 421.46C309.969 421.46 310.541 421.291 311.025 420.954C311.509 420.617 311.876 420.177 312.125 419.634C312.389 419.077 312.521 418.497 312.521 417.896V417.17C312.521 416.539 312.389 415.96 312.125 415.432C311.876 414.889 311.502 414.457 311.003 414.134C310.519 413.811 309.94 413.65 309.265 413.65C308.238 413.65 307.476 414.002 306.977 414.706C306.478 415.41 306.229 416.319 306.229 417.434C306.229 418.666 306.471 419.649 306.955 420.382C307.439 421.101 308.224 421.46 309.309 421.46ZM330.191 419.634H323.173C322.909 419.634 322.696 419.568 322.535 419.436C322.388 419.289 322.315 419.113 322.315 418.908C322.315 418.703 322.388 418.505 322.535 418.314L330.917 407.776C331.122 407.527 331.35 407.402 331.599 407.402C331.804 407.402 332.002 407.475 332.193 407.622C332.457 407.842 332.589 408.055 332.589 408.26C332.589 408.392 332.53 408.539 332.413 408.7L332.083 409.14V418.094H334.129V419.634H332.083V423H330.191V419.634ZM330.257 418.094V411.208L324.757 418.094H330.257ZM343.264 410.02C342.883 410.02 342.56 409.895 342.296 409.646C342.032 409.382 341.9 409.067 341.9 408.7C341.9 408.333 342.032 408.025 342.296 407.776C342.56 407.512 342.883 407.38 343.264 407.38C343.645 407.38 343.968 407.512 344.232 407.776C344.496 408.025 344.628 408.333 344.628 408.7C344.628 409.067 344.496 409.382 344.232 409.646C343.968 409.895 343.645 410.02 343.264 410.02ZM342.318 412.33H344.166V423H342.318V412.33ZM355.323 423.22C354.854 422.413 354.619 421.541 354.619 420.602V416.422C354.619 415.483 354.429 414.794 354.047 414.354C353.681 413.899 353.087 413.672 352.265 413.672C351.679 413.672 351.158 413.833 350.703 414.156C350.249 414.479 349.897 414.911 349.647 415.454C349.398 415.997 349.273 416.576 349.273 417.192V423H347.425V415.014C347.425 414.515 347.381 414.09 347.293 413.738C347.22 413.386 347.103 413.056 346.941 412.748L348.591 412.11C348.709 412.33 348.819 412.616 348.921 412.968C349.039 413.305 349.112 413.65 349.141 414.002C349.523 413.415 350.029 412.953 350.659 412.616C351.305 412.279 351.994 412.11 352.727 412.11C353.989 412.11 354.927 412.484 355.543 413.232C356.159 413.965 356.467 415.036 356.467 416.444V420.602C356.467 421.335 356.636 421.988 356.973 422.56L355.323 423.22ZM363.659 423.22C362.662 423.22 361.767 423.066 360.975 422.758C360.183 422.45 359.508 422.017 358.951 421.46L360.073 420.25C360.498 420.705 361.026 421.064 361.657 421.328C362.302 421.577 362.97 421.702 363.659 421.702C364.348 421.702 364.876 421.592 365.243 421.372C365.61 421.152 365.793 420.822 365.793 420.382C365.793 420.074 365.727 419.825 365.595 419.634C365.463 419.443 365.214 419.253 364.847 419.062C364.48 418.871 363.901 418.644 363.109 418.38C361.745 417.911 360.777 417.434 360.205 416.95C359.633 416.466 359.347 415.806 359.347 414.97C359.347 414.09 359.692 413.393 360.381 412.88C361.07 412.367 362.046 412.11 363.307 412.11C364.04 412.11 364.715 412.22 365.331 412.44C365.962 412.645 366.512 412.917 366.981 413.254L366.277 414.574C365.778 414.237 365.294 413.995 364.825 413.848C364.356 413.701 363.842 413.628 363.285 413.628C362.596 413.628 362.075 413.753 361.723 414.002C361.371 414.237 361.195 414.559 361.195 414.97C361.195 415.293 361.29 415.557 361.481 415.762C361.672 415.967 361.928 416.143 362.251 416.29C362.574 416.437 363.124 416.649 363.901 416.928C364.869 417.28 365.61 417.603 366.123 417.896C366.651 418.189 367.032 418.534 367.267 418.93C367.516 419.311 367.641 419.803 367.641 420.404C367.641 421.284 367.289 421.973 366.585 422.472C365.896 422.971 364.92 423.22 363.659 423.22ZM373.448 423.22C372.524 423.22 371.835 422.971 371.38 422.472C370.94 421.959 370.72 421.233 370.72 420.294V413.87H368.85L369.246 412.33H370.742V409.624L372.524 408.81V412.33H375.274L374.9 413.87H372.568V420.316C372.568 420.829 372.649 421.189 372.81 421.394C372.986 421.599 373.294 421.702 373.734 421.702C374.203 421.702 374.614 421.614 374.966 421.438L375.428 422.824C375.208 422.927 374.907 423.015 374.526 423.088C374.145 423.176 373.785 423.22 373.448 423.22ZM381.891 423.22C380.805 423.22 379.867 422.993 379.075 422.538C378.283 422.083 377.674 421.445 377.249 420.624C376.838 419.788 376.633 418.827 376.633 417.742C376.633 416.129 377.043 414.787 377.865 413.716C378.686 412.645 379.933 412.11 381.605 412.11C382.763 412.11 383.717 412.381 384.465 412.924C385.213 413.467 385.755 414.141 386.093 414.948C386.43 415.74 386.599 416.547 386.599 417.368C386.599 418.101 386.181 418.468 385.345 418.468H378.503C378.503 419.436 378.803 420.213 379.405 420.8C380.006 421.372 380.835 421.658 381.891 421.658C383.137 421.658 384.164 421.291 384.971 420.558L385.939 421.636C385.469 422.135 384.883 422.523 384.179 422.802C383.475 423.081 382.712 423.22 381.891 423.22ZM384.751 416.95C384.751 416.011 384.472 415.227 383.915 414.596C383.372 413.965 382.602 413.65 381.605 413.65C380.93 413.65 380.358 413.811 379.889 414.134C379.419 414.457 379.067 414.875 378.833 415.388C378.613 415.887 378.503 416.407 378.503 416.95H384.751ZM392.683 423.22C391.715 423.22 390.879 422.985 390.175 422.516C389.471 422.032 388.936 421.379 388.569 420.558C388.203 419.737 388.019 418.805 388.019 417.764C388.019 416.693 388.203 415.733 388.569 414.882C388.951 414.017 389.501 413.342 390.219 412.858C390.938 412.359 391.803 412.11 392.815 412.11C394.267 412.11 395.389 412.697 396.181 413.87V412.33H397.985V420.25C397.985 421.277 398.154 422.061 398.491 422.604L396.973 423.22C396.621 422.795 396.416 422.179 396.357 421.372L396.291 421.35C395.397 422.597 394.194 423.22 392.683 423.22ZM392.925 421.68C393.967 421.68 394.766 421.35 395.323 420.69C395.895 420.015 396.181 419.165 396.181 418.138V417.214C396.181 416.627 396.057 416.063 395.807 415.52C395.573 414.977 395.213 414.53 394.729 414.178C394.245 413.826 393.659 413.65 392.969 413.65C391.972 413.65 391.209 414.031 390.681 414.794C390.153 415.542 389.889 416.532 389.889 417.764C389.889 418.952 390.146 419.905 390.659 420.624C391.187 421.328 391.943 421.68 392.925 421.68ZM409.478 423.22C409.302 423.044 409.156 422.787 409.038 422.45C408.921 422.113 408.855 421.739 408.84 421.328C407.96 422.589 406.758 423.22 405.232 423.22C403.751 423.22 402.585 422.729 401.734 421.746C400.898 420.749 400.48 419.436 400.48 417.808C400.48 416.107 400.898 414.735 401.734 413.694C402.585 412.638 403.788 412.11 405.342 412.11C406.736 412.11 407.85 412.689 408.686 413.848V406.852H410.534V420.228C410.534 420.829 410.571 421.306 410.644 421.658C410.732 421.995 410.864 422.311 411.04 422.604L409.478 423.22ZM405.43 421.68C406.105 421.68 406.684 421.519 407.168 421.196C407.667 420.873 408.041 420.441 408.29 419.898C408.554 419.355 408.686 418.769 408.686 418.138V417.214C408.686 416.613 408.562 416.041 408.312 415.498C408.063 414.941 407.696 414.493 407.212 414.156C406.743 413.819 406.178 413.65 405.518 413.65C404.418 413.65 403.612 414.039 403.098 414.816C402.6 415.593 402.35 416.591 402.35 417.808C402.35 418.952 402.607 419.883 403.12 420.602C403.634 421.321 404.404 421.68 405.43 421.68ZM414.391 414.596C414.01 414.596 413.687 414.471 413.423 414.222C413.159 413.958 413.027 413.635 413.027 413.254C413.027 412.887 413.159 412.572 413.423 412.308C413.687 412.044 414.01 411.912 414.391 411.912C414.758 411.912 415.066 412.044 415.315 412.308C415.579 412.572 415.711 412.887 415.711 413.254C415.711 413.621 415.579 413.936 415.315 414.2C415.066 414.464 414.758 414.596 414.391 414.596ZM414.391 422.934C414.024 422.934 413.709 422.809 413.445 422.56C413.181 422.296 413.049 421.981 413.049 421.614C413.049 421.233 413.181 420.91 413.445 420.646C413.709 420.382 414.024 420.25 414.391 420.25C414.772 420.25 415.095 420.382 415.359 420.646C415.623 420.91 415.755 421.233 415.755 421.614C415.755 421.981 415.623 422.296 415.359 422.56C415.095 422.809 414.772 422.934 414.391 422.934Z" fill="#121538"/>
<g filter="url(#filter0_d_628_438)">
<rect x="356" width="188.858" height="58.7863" rx="20" fill="white" shape-rendering="crispEdges"/>
<path d="M380.915 36.6136C379.477 36.6136 378.231 36.2836 377.175 35.6236C376.133 34.9636 375.327 34.0396 374.755 32.8516C374.197 31.6489 373.919 30.2556 373.919 28.6716C373.919 27.0876 374.19 25.7016 374.733 24.5136C375.29 23.3256 376.082 22.4089 377.109 21.7636C378.135 21.1036 379.345 20.7736 380.739 20.7736C381.619 20.7736 382.44 20.9276 383.203 21.2356C383.98 21.5289 384.633 21.9469 385.161 22.4896L384.369 23.8756C383.885 23.3916 383.357 23.0249 382.785 22.7756C382.213 22.5116 381.531 22.3796 380.739 22.3796C379.199 22.3796 377.996 22.9442 377.131 24.0736C376.28 25.2029 375.855 26.7356 375.855 28.6716C375.855 30.6369 376.302 32.1842 377.197 33.3136C378.091 34.4429 379.345 35.0076 380.959 35.0076C382.411 35.0076 383.562 34.5309 384.413 33.5776L385.601 34.6776C385.029 35.2936 384.325 35.7702 383.489 36.1076C382.667 36.4449 381.809 36.6136 380.915 36.6136ZM391.785 36.6136C390.538 36.6136 389.563 36.2396 388.859 35.4916C388.155 34.7289 387.803 33.6729 387.803 32.3236L387.825 25.7236H389.673V32.3016C389.673 33.2402 389.871 33.9369 390.267 34.3916C390.677 34.8316 391.315 35.0516 392.181 35.0516C393.061 35.0516 393.743 34.7289 394.227 34.0836C394.725 33.4236 394.975 32.6169 394.975 31.6636V25.7236H396.823V33.7096C396.823 34.2082 396.859 34.6336 396.933 34.9856C397.021 35.3376 397.145 35.6676 397.307 35.9756L395.657 36.6136C395.539 36.3936 395.429 36.1149 395.327 35.7776C395.224 35.4402 395.151 35.0882 395.107 34.7216C394.329 35.9829 393.222 36.6136 391.785 36.6136ZM399.776 28.4076C399.776 27.9089 399.732 27.4836 399.644 27.1316C399.57 26.7796 399.453 26.4496 399.292 26.1416L400.942 25.5036C401.059 25.7236 401.169 26.0096 401.272 26.3616C401.389 26.6989 401.462 27.0436 401.492 27.3956C401.858 26.7649 402.276 26.2956 402.746 25.9876C403.215 25.6649 403.772 25.5036 404.418 25.5036C404.77 25.5036 405.078 25.5476 405.342 25.6356C405.62 25.7089 405.921 25.8482 406.244 26.0536L405.518 27.3956C405.151 27.1756 404.733 27.0656 404.264 27.0656C403.413 27.0656 402.76 27.3882 402.306 28.0336C401.851 28.6789 401.624 29.5076 401.624 30.5196V36.3936H399.776V28.4076ZM408.498 28.4076C408.498 27.9089 408.454 27.4836 408.366 27.1316C408.293 26.7796 408.176 26.4496 408.014 26.1416L409.664 25.5036C409.782 25.7236 409.892 26.0096 409.994 26.3616C410.112 26.6989 410.185 27.0436 410.214 27.3956C410.581 26.7649 410.999 26.2956 411.468 25.9876C411.938 25.6649 412.495 25.5036 413.14 25.5036C413.492 25.5036 413.8 25.5476 414.064 25.6356C414.343 25.7089 414.644 25.8482 414.966 26.0536L414.24 27.3956C413.874 27.1756 413.456 27.0656 412.986 27.0656C412.136 27.0656 411.483 27.3882 411.028 28.0336C410.574 28.6789 410.346 29.5076 410.346 30.5196V36.3936H408.498V28.4076ZM421.007 36.6136C419.921 36.6136 418.983 36.3862 418.191 35.9316C417.399 35.4769 416.79 34.8389 416.365 34.0176C415.954 33.1816 415.749 32.2209 415.749 31.1356C415.749 29.5222 416.159 28.1802 416.981 27.1096C417.802 26.0389 419.049 25.5036 420.721 25.5036C421.879 25.5036 422.833 25.7749 423.581 26.3176C424.329 26.8602 424.871 27.5349 425.209 28.3416C425.546 29.1336 425.715 29.9402 425.715 30.7616C425.715 31.4949 425.297 31.8616 424.461 31.8616H417.619C417.619 32.8296 417.919 33.6069 418.521 34.1936C419.122 34.7656 419.951 35.0516 421.007 35.0516C422.253 35.0516 423.28 34.6849 424.087 33.9516L425.055 35.0296C424.585 35.5282 423.999 35.9169 423.295 36.1956C422.591 36.4742 421.828 36.6136 421.007 36.6136ZM423.867 30.3436C423.867 29.4049 423.588 28.6202 423.031 27.9896C422.488 27.3589 421.718 27.0436 420.721 27.0436C420.046 27.0436 419.474 27.2049 419.005 27.5276C418.535 27.8502 418.183 28.2682 417.949 28.7816C417.729 29.2802 417.619 29.8009 417.619 30.3436H423.867ZM436.076 36.6136C435.607 35.8069 435.372 34.9342 435.372 33.9956V29.8156C435.372 28.8769 435.181 28.1876 434.8 27.7476C434.433 27.2929 433.839 27.0656 433.018 27.0656C432.431 27.0656 431.911 27.2269 431.456 27.5496C431.001 27.8722 430.649 28.3049 430.4 28.8476C430.151 29.3902 430.026 29.9696 430.026 30.5856V36.3936H428.178V28.4076C428.178 27.9089 428.134 27.4836 428.046 27.1316C427.973 26.7796 427.855 26.4496 427.694 26.1416L429.344 25.5036C429.461 25.7236 429.571 26.0096 429.674 26.3616C429.791 26.6989 429.865 27.0436 429.894 27.3956C430.275 26.8089 430.781 26.3469 431.412 26.0096C432.057 25.6722 432.747 25.5036 433.48 25.5036C434.741 25.5036 435.68 25.8776 436.296 26.6256C436.912 27.3589 437.22 28.4296 437.22 29.8376V33.9956C437.22 34.7289 437.389 35.3816 437.726 35.9536L436.076 36.6136ZM444.082 36.6136C443.158 36.6136 442.469 36.3642 442.014 35.8656C441.574 35.3522 441.354 34.6262 441.354 33.6876V27.2636H439.484L439.88 25.7236H441.376V23.0176L443.158 22.2036V25.7236H445.908L445.534 27.2636H443.202V33.7096C443.202 34.2229 443.283 34.5822 443.444 34.7876C443.62 34.9929 443.928 35.0956 444.368 35.0956C444.837 35.0956 445.248 35.0076 445.6 34.8316L446.062 36.2176C445.842 36.3202 445.541 36.4082 445.16 36.4816C444.779 36.5696 444.419 36.6136 444.082 36.6136ZM458.293 36.6136C458.014 36.6136 457.787 36.5476 457.611 36.4156C457.435 36.2836 457.347 36.1149 457.347 35.9096C457.347 35.8656 457.362 35.7849 457.391 35.6676L457.435 35.5136L453.497 25.7236H455.433L458.469 33.8636L461.483 25.7236H463.419L459.305 36.0416C459.217 36.2469 459.1 36.3936 458.953 36.4816C458.806 36.5696 458.586 36.6136 458.293 36.6136ZM468.624 36.6136C467.656 36.6136 466.82 36.3789 466.116 35.9096C465.412 35.4256 464.876 34.7729 464.51 33.9516C464.143 33.1302 463.96 32.1989 463.96 31.1576C463.96 30.0869 464.143 29.1262 464.51 28.2756C464.891 27.4102 465.441 26.7356 466.16 26.2516C466.878 25.7529 467.744 25.5036 468.756 25.5036C470.208 25.5036 471.33 26.0902 472.122 27.2636V25.7236H473.926V33.6436C473.926 34.6702 474.094 35.4549 474.432 35.9976L472.914 36.6136C472.562 36.1882 472.356 35.5722 472.298 34.7656L472.232 34.7436C471.337 35.9902 470.134 36.6136 468.624 36.6136ZM468.866 35.0736C469.907 35.0736 470.706 34.7436 471.264 34.0836C471.836 33.4089 472.122 32.5582 472.122 31.5316V30.6076C472.122 30.0209 471.997 29.4562 471.748 28.9136C471.513 28.3709 471.154 27.9236 470.67 27.5716C470.186 27.2196 469.599 27.0436 468.91 27.0436C467.912 27.0436 467.15 27.4249 466.622 28.1876C466.094 28.9356 465.83 29.9256 465.83 31.1576C465.83 32.3456 466.086 33.2989 466.6 34.0176C467.128 34.7216 467.883 35.0736 468.866 35.0736ZM476.751 20.2456H478.599V36.3936H476.751V20.2456ZM485.113 36.6136C483.866 36.6136 482.891 36.2396 482.187 35.4916C481.483 34.7289 481.131 33.6729 481.131 32.3236L481.153 25.7236H483.001V32.3016C483.001 33.2402 483.199 33.9369 483.595 34.3916C484.006 34.8316 484.644 35.0516 485.509 35.0516C486.389 35.0516 487.071 34.7289 487.555 34.0836C488.054 33.4236 488.303 32.6169 488.303 31.6636V25.7236H490.151V33.7096C490.151 34.2082 490.188 34.6336 490.261 34.9856C490.349 35.3376 490.474 35.6676 490.635 35.9756L488.985 36.6136C488.868 36.3936 488.758 36.1149 488.655 35.7776C488.552 35.4402 488.479 35.0882 488.435 34.7216C487.658 35.9829 486.55 36.6136 485.113 36.6136ZM497.878 36.6136C496.793 36.6136 495.854 36.3862 495.062 35.9316C494.27 35.4769 493.661 34.8389 493.236 34.0176C492.825 33.1816 492.62 32.2209 492.62 31.1356C492.62 29.5222 493.031 28.1802 493.852 27.1096C494.673 26.0389 495.92 25.5036 497.592 25.5036C498.751 25.5036 499.704 25.7749 500.452 26.3176C501.2 26.8602 501.743 27.5349 502.08 28.3416C502.417 29.1336 502.586 29.9402 502.586 30.7616C502.586 31.4949 502.168 31.8616 501.332 31.8616H494.49C494.49 32.8296 494.791 33.6069 495.392 34.1936C495.993 34.7656 496.822 35.0516 497.878 35.0516C499.125 35.0516 500.151 34.6849 500.958 33.9516L501.926 35.0296C501.457 35.5282 500.87 35.9169 500.166 36.1956C499.462 36.4742 498.699 36.6136 497.878 36.6136ZM500.738 30.3436C500.738 29.4049 500.459 28.6202 499.902 27.9896C499.359 27.3589 498.589 27.0436 497.592 27.0436C496.917 27.0436 496.345 27.2049 495.876 27.5276C495.407 27.8502 495.055 28.2682 494.82 28.7816C494.6 29.2802 494.49 29.8009 494.49 30.3436H500.738ZM505.929 27.9896C505.548 27.9896 505.225 27.8649 504.961 27.6156C504.697 27.3516 504.565 27.0289 504.565 26.6476C504.565 26.2809 504.697 25.9656 504.961 25.7016C505.225 25.4376 505.548 25.3056 505.929 25.3056C506.296 25.3056 506.604 25.4376 506.853 25.7016C507.117 25.9656 507.249 26.2809 507.249 26.6476C507.249 27.0142 507.117 27.3296 506.853 27.5936C506.604 27.8576 506.296 27.9896 505.929 27.9896ZM505.929 36.3276C505.563 36.3276 505.247 36.2029 504.983 35.9536C504.719 35.6896 504.587 35.3742 504.587 35.0076C504.587 34.6262 504.719 34.3036 504.983 34.0396C505.247 33.7756 505.563 33.6436 505.929 33.6436C506.311 33.6436 506.633 33.7756 506.897 34.0396C507.161 34.3036 507.293 34.6262 507.293 35.0076C507.293 35.3742 507.161 35.6896 506.897 35.9536C506.633 36.2029 506.311 36.3276 505.929 36.3276Z" fill="black"/>
<path d="M514.722 35.7116C514.913 35.3742 515.052 35.0369 515.14 34.6996C515.228 34.3476 515.272 33.9149 515.272 33.4016V20.2456H518.176V26.7796C518.572 26.3982 519.049 26.0902 519.606 25.8556C520.163 25.6209 520.757 25.5036 521.388 25.5036C522.84 25.5036 523.999 25.9876 524.864 26.9556C525.729 27.9236 526.162 29.2876 526.162 31.0476C526.162 32.1476 525.942 33.1229 525.502 33.9736C525.077 34.8096 524.483 35.4622 523.72 35.9316C522.972 36.3862 522.143 36.6136 521.234 36.6136C519.811 36.6136 518.675 36.0636 517.824 34.9636C517.751 35.6089 517.501 36.1662 517.076 36.6356L514.722 35.7116ZM520.772 34.3036C521.579 34.3036 522.195 34.0249 522.62 33.4676C523.045 32.8956 523.258 32.0889 523.258 31.0476C523.258 28.8916 522.4 27.8136 520.684 27.8136C519.863 27.8136 519.232 28.1142 518.792 28.7156C518.352 29.3022 518.132 30.0209 518.132 30.8716V31.2676C518.132 32.1916 518.352 32.9322 518.792 33.4896C519.247 34.0322 519.907 34.3036 520.772 34.3036Z" fill="#5D71A7"/>
</g>
<rect x="5" y="226.491" width="892.333" height="37.1889" fill="#C4C4C4"/>
<rect x="5.5" y="226.991" width="36.1805" height="36.1889" fill="#C4C4C4" stroke="#464646"/>
<rect x="228.583" y="226.991" width="36.1805" height="36.1889" fill="#C4C4C4" stroke="#464646"/>
<rect x="42.6807" y="226.991" width="36.1805" height="36.1889" fill="#C4C4C4" stroke="#464646"/>
<rect x="79.8608" y="226.991" width="36.1805" height="36.1889" fill="#C4C4C4" stroke="#464646"/>
<rect x="117.042" y="226.991" width="36.1805" height="36.1889" fill="#C4C4C4" stroke="#464646"/>
<rect x="154.222" y="226.991" width="36.1805" height="36.1889" fill="#C4C4C4" stroke="#464646"/>
<rect x="191.402" y="226.991" width="36.1805" height="36.1889" fill="#C4C4C4" stroke="#464646"/>
<rect x="228.583" y="226.991" width="36.1805" height="36.1889" fill="#C4C4C4" stroke="#464646"/>
<rect x="265.764" y="226.991" width="36.1805" height="36.1889" fill="#C4C4C4" stroke="#464646"/>
<rect x="302.944" y="226.991" width="36.1805" height="36.1889" fill="#FEC900" stroke="#464646"/>
<rect x="340.125" y="226.991" width="36.1805" height="36.1889" fill="#C4C4C4" stroke="#464646"/>
<rect x="377.305" y="226.991" width="36.1805" height="36.1889" fill="#C4C4C4" stroke="#464646"/>
<rect x="414.486" y="226.991" width="36.1805" height="36.1889" fill="#C4C4C4" stroke="#464646"/>
<rect x="451.666" y="226.991" width="36.1805" height="36.1889" fill="#C4C4C4" stroke="#464646"/>
<rect x="488.847" y="226.991" width="36.1805" height="36.1889" fill="#C4C4C4" stroke="#464646"/>
<rect x="526.027" y="226.991" width="36.1805" height="36.1889" fill="#C4C4C4" stroke="#464646"/>
<rect x="563.208" y="226.991" width="36.1805" height="36.1889" fill="#C4C4C4" stroke="#464646"/>
<rect x="749.11" y="226.991" width="36.1805" height="36.1889" fill="#C4C4C4" stroke="#464646"/>
<rect x="600.388" y="226.991" width="36.1805" height="36.1889" fill="#C4C4C4" stroke="#464646"/>
<rect x="637.569" y="226.991" width="36.1805" height="36.1889" fill="#C4C4C4" stroke="#464646"/>
<rect x="823.471" y="226.991" width="36.1805" height="36.1889" fill="#C4C4C4" stroke="#464646"/>
<rect x="674.75" y="226.991" width="36.1805" height="36.1889" fill="#C4C4C4" stroke="#464646"/>
<rect x="711.93" y="226.991" width="36.1805" height="36.1889" fill="#C4C4C4" stroke="#464646"/>
<rect x="749.11" y="226.991" width="36.1805" height="36.1889" fill="#C4C4C4" stroke="#464646"/>
<rect x="786.291" y="226.991" width="36.1805" height="36.1889" fill="#C4C4C4" stroke="#464646"/>
<rect x="823.471" y="226.991" width="36.1805" height="36.1889" fill="#C4C4C4" stroke="#464646"/>
<rect x="860.652" y="226.991" width="36.1805" height="36.1889" fill="#C4C4C4" stroke="#464646"/>
<path d="M25.9553 240.737V258.191H23.8417V242.953H23.7394L19.478 245.782V243.635L23.8417 240.737H25.9553Z" fill="#464646"/>
<path d="M55.3121 258.191V256.657L61.0735 250.35C61.7496 249.612 62.3064 248.97 62.7439 248.424C63.1814 247.873 63.5053 247.356 63.7155 246.873C63.9314 246.385 64.0394 245.873 64.0394 245.339C64.0394 244.725 63.8917 244.194 63.5962 243.745C63.3064 243.297 62.9087 242.95 62.403 242.706C61.8973 242.461 61.3292 242.339 60.6985 242.339C60.028 242.339 59.4428 242.478 58.9428 242.757C58.4485 243.029 58.065 243.413 57.7922 243.907C57.5252 244.402 57.3917 244.981 57.3917 245.646H55.3803C55.3803 244.623 55.6161 243.725 56.0877 242.953C56.5593 242.18 57.2013 241.578 58.0138 241.146C58.832 240.714 59.7496 240.498 60.7667 240.498C61.7894 240.498 62.6956 240.714 63.4854 241.146C64.2752 241.578 64.8945 242.16 65.3434 242.893C65.7922 243.626 66.0167 244.441 66.0167 245.339C66.0167 245.981 65.9002 246.609 65.6672 247.223C65.44 247.831 65.0422 248.51 64.474 249.26C63.9115 250.004 63.1303 250.913 62.1303 251.987L58.2098 256.18V256.316H66.3235V258.191H55.3121Z" fill="#464646"/>
<path d="M283.857 258.43C282.687 258.43 281.653 258.223 280.755 257.808C279.863 257.387 279.167 256.811 278.667 256.078C278.167 255.339 277.92 254.498 277.925 253.555C277.92 252.816 278.065 252.135 278.36 251.51C278.655 250.879 279.059 250.353 279.57 249.933C280.087 249.507 280.664 249.237 281.3 249.123V249.021C280.465 248.805 279.8 248.336 279.306 247.615C278.812 246.887 278.567 246.061 278.573 245.135C278.567 244.248 278.792 243.456 279.246 242.757C279.701 242.058 280.326 241.507 281.121 241.103C281.922 240.7 282.834 240.498 283.857 240.498C284.868 240.498 285.772 240.7 286.567 241.103C287.363 241.507 287.988 242.058 288.442 242.757C288.903 243.456 289.136 244.248 289.141 245.135C289.136 246.061 288.883 246.887 288.383 247.615C287.888 248.336 287.232 248.805 286.414 249.021V249.123C287.045 249.237 287.613 249.507 288.118 249.933C288.624 250.353 289.028 250.879 289.329 251.51C289.63 252.135 289.783 252.816 289.789 253.555C289.783 254.498 289.528 255.339 289.022 256.078C288.522 256.811 287.826 257.387 286.934 257.808C286.047 258.223 285.022 258.43 283.857 258.43ZM283.857 256.555C284.647 256.555 285.329 256.427 285.903 256.172C286.476 255.916 286.92 255.555 287.232 255.089C287.545 254.623 287.704 254.078 287.709 253.453C287.704 252.794 287.533 252.211 287.198 251.706C286.863 251.2 286.405 250.802 285.826 250.512C285.252 250.223 284.596 250.078 283.857 250.078C283.113 250.078 282.448 250.223 281.863 250.512C281.283 250.802 280.826 251.2 280.491 251.706C280.161 252.211 279.999 252.794 280.005 253.453C279.999 254.078 280.15 254.623 280.457 255.089C280.769 255.555 281.215 255.916 281.795 256.172C282.374 256.427 283.062 256.555 283.857 256.555ZM283.857 248.271C284.482 248.271 285.036 248.146 285.519 247.896C286.008 247.646 286.391 247.297 286.67 246.848C286.948 246.399 287.09 245.873 287.096 245.271C287.09 244.68 286.951 244.166 286.678 243.728C286.405 243.285 286.028 242.944 285.545 242.706C285.062 242.461 284.499 242.339 283.857 242.339C283.204 242.339 282.633 242.461 282.144 242.706C281.655 242.944 281.278 243.285 281.011 243.728C280.743 244.166 280.613 244.68 280.618 245.271C280.613 245.873 280.746 246.399 281.019 246.848C281.297 247.297 281.681 247.646 282.17 247.896C282.658 248.146 283.221 248.271 283.857 248.271Z" fill="#464646"/>
<path d="M539.182 240.737V258.191H537.068V242.953H536.966L532.705 245.782V243.635L537.068 240.737H539.182ZM549.656 258.43C548.656 258.43 547.756 258.231 546.955 257.833C546.153 257.436 545.511 256.89 545.028 256.197C544.546 255.504 544.281 254.714 544.236 253.828H546.281C546.361 254.618 546.719 255.271 547.355 255.788C547.997 256.299 548.764 256.555 549.656 256.555C550.372 256.555 551.009 256.387 551.565 256.052C552.128 255.717 552.568 255.257 552.886 254.672C553.21 254.081 553.372 253.413 553.372 252.669C553.372 251.907 553.205 251.228 552.869 250.632C552.54 250.029 552.085 249.555 551.506 249.208C550.926 248.862 550.264 248.686 549.52 248.68C548.986 248.674 548.438 248.757 547.875 248.927C547.313 249.092 546.849 249.305 546.486 249.566L544.509 249.328L545.565 240.737H554.634V242.612H547.338L546.724 247.76H546.827C547.185 247.475 547.634 247.24 548.173 247.052C548.713 246.865 549.276 246.771 549.861 246.771C550.929 246.771 551.881 247.027 552.716 247.538C553.557 248.044 554.216 248.737 554.693 249.618C555.176 250.498 555.418 251.504 555.418 252.635C555.418 253.748 555.168 254.743 554.668 255.618C554.173 256.487 553.492 257.174 552.622 257.68C551.753 258.18 550.764 258.43 549.656 258.43Z" fill="#464646"/>
<path d="M717.061 258.191V256.657L722.823 250.35C723.499 249.612 724.055 248.97 724.493 248.424C724.93 247.873 725.254 247.356 725.465 246.873C725.68 246.385 725.788 245.873 725.788 245.339C725.788 244.725 725.641 244.194 725.345 243.745C725.055 243.297 724.658 242.95 724.152 242.706C723.646 242.461 723.078 242.339 722.448 242.339C721.777 242.339 721.192 242.478 720.692 242.757C720.198 243.029 719.814 243.413 719.541 243.907C719.274 244.402 719.141 244.981 719.141 245.646H717.129C717.129 244.623 717.365 243.725 717.837 242.953C718.308 242.18 718.95 241.578 719.763 241.146C720.581 240.714 721.499 240.498 722.516 240.498C723.538 240.498 724.445 240.714 725.234 241.146C726.024 241.578 726.644 242.16 727.092 242.893C727.541 243.626 727.766 244.441 727.766 245.339C727.766 245.981 727.649 246.609 727.416 247.223C727.189 247.831 726.791 248.51 726.223 249.26C725.661 250.004 724.879 250.913 723.879 251.987L719.959 256.18V256.316H728.073V258.191H717.061ZM737.286 258.43C736.001 258.43 734.908 258.081 734.004 257.382C733.101 256.677 732.411 255.657 731.933 254.322C731.456 252.981 731.217 251.362 731.217 249.464C731.217 247.578 731.456 245.967 731.933 244.632C732.416 243.291 733.109 242.268 734.013 241.564C734.922 240.853 736.013 240.498 737.286 240.498C738.558 240.498 739.646 240.853 740.55 241.564C741.459 242.268 742.152 243.291 742.629 244.632C743.112 245.967 743.354 247.578 743.354 249.464C743.354 251.362 743.115 252.981 742.638 254.322C742.161 255.657 741.47 256.677 740.567 257.382C739.663 258.081 738.57 258.43 737.286 258.43ZM737.286 256.555C738.558 256.555 739.547 255.941 740.251 254.714C740.956 253.487 741.308 251.737 741.308 249.464C741.308 247.953 741.146 246.666 740.823 245.603C740.504 244.541 740.044 243.731 739.442 243.174C738.845 242.618 738.126 242.339 737.286 242.339C736.024 242.339 735.038 242.961 734.328 244.206C733.618 245.444 733.263 247.197 733.263 249.464C733.263 250.975 733.422 252.26 733.74 253.316C734.058 254.373 734.516 255.177 735.112 255.728C735.715 256.279 736.439 256.555 737.286 256.555Z" fill="#464646"/>
<path d="M756.164 258.191V256.657L761.925 250.35C762.601 249.612 763.158 248.97 763.595 248.424C764.033 247.873 764.357 247.356 764.567 246.873C764.783 246.385 764.891 245.873 764.891 245.339C764.891 244.725 764.743 244.194 764.448 243.745C764.158 243.297 763.76 242.95 763.255 242.706C762.749 242.461 762.181 242.339 761.55 242.339C760.88 242.339 760.294 242.478 759.794 242.757C759.3 243.029 758.917 243.413 758.644 243.907C758.377 244.402 758.243 244.981 758.243 245.646H756.232C756.232 244.623 756.468 243.725 756.939 242.953C757.411 242.18 758.053 241.578 758.865 241.146C759.684 240.714 760.601 240.498 761.618 240.498C762.641 240.498 763.547 240.714 764.337 241.146C765.127 241.578 765.746 242.16 766.195 242.893C766.644 243.626 766.868 244.441 766.868 245.339C766.868 245.981 766.752 246.609 766.519 247.223C766.292 247.831 765.894 248.51 765.326 249.26C764.763 250.004 763.982 250.913 762.982 251.987L759.061 256.18V256.316H767.175V258.191H756.164ZM776.831 240.737V258.191H774.718V242.953H774.615L770.354 245.782V243.635L774.718 240.737H776.831Z" fill="#464646"/>
<path d="M98.015 258.43C96.89 258.43 95.8872 258.237 95.0065 257.85C94.1315 257.464 93.4355 256.927 92.9184 256.24C92.4071 255.547 92.1287 254.743 92.0832 253.828H94.2309C94.2764 254.39 94.4696 254.876 94.8105 255.285C95.1514 255.689 95.5974 256.001 96.1485 256.223C96.6997 256.444 97.3105 256.555 97.9809 256.555C98.7309 256.555 99.3957 256.424 99.9752 256.163C100.555 255.902 101.009 255.538 101.339 255.072C101.668 254.606 101.833 254.066 101.833 253.453C101.833 252.811 101.674 252.245 101.356 251.757C101.038 251.262 100.572 250.876 99.9582 250.598C99.3446 250.319 98.5946 250.18 97.7082 250.18H96.3105V248.305H97.7082C98.4014 248.305 99.0093 248.18 99.5321 247.93C100.06 247.68 100.472 247.328 100.768 246.873C101.069 246.419 101.22 245.885 101.22 245.271C101.22 244.68 101.089 244.166 100.828 243.728C100.566 243.291 100.197 242.95 99.7196 242.706C99.248 242.461 98.6912 242.339 98.0491 242.339C97.4468 242.339 96.8787 242.45 96.3446 242.672C95.8162 242.887 95.3843 243.203 95.0491 243.618C94.7139 244.027 94.5321 244.521 94.5037 245.1H92.4582C92.4923 244.186 92.7679 243.385 93.2849 242.697C93.802 242.004 94.4781 241.464 95.3133 241.078C96.1542 240.691 97.0775 240.498 98.0832 240.498C99.1627 240.498 100.089 240.717 100.862 241.154C101.634 241.586 102.228 242.157 102.643 242.868C103.058 243.578 103.265 244.345 103.265 245.169C103.265 246.152 103.006 246.99 102.489 247.683C101.978 248.376 101.282 248.856 100.401 249.123V249.26C101.504 249.441 102.364 249.91 102.984 250.666C103.603 251.416 103.913 252.345 103.913 253.453C103.913 254.402 103.654 255.254 103.137 256.01C102.626 256.76 101.927 257.35 101.041 257.782C100.154 258.214 99.1457 258.43 98.015 258.43Z" fill="#464646"/>
<path d="M320.91 240.498C321.626 240.504 322.342 240.64 323.058 240.907C323.774 241.174 324.427 241.618 325.018 242.237C325.609 242.85 326.083 243.689 326.441 244.751C326.799 245.814 326.978 247.146 326.978 248.748C326.978 250.299 326.83 251.677 326.535 252.882C326.245 254.081 325.825 255.092 325.274 255.916C324.728 256.74 324.063 257.365 323.279 257.791C322.501 258.217 321.62 258.43 320.637 258.43C319.66 258.43 318.788 258.237 318.021 257.85C317.259 257.458 316.634 256.916 316.146 256.223C315.663 255.524 315.353 254.714 315.217 253.794H317.296C317.484 254.595 317.856 255.257 318.413 255.779C318.975 256.297 319.717 256.555 320.637 256.555C321.984 256.555 323.046 255.967 323.825 254.791C324.609 253.615 325.001 251.953 325.001 249.805H324.864C324.546 250.282 324.168 250.694 323.731 251.041C323.293 251.387 322.808 251.654 322.274 251.842C321.739 252.029 321.171 252.123 320.569 252.123C319.569 252.123 318.651 251.876 317.816 251.382C316.987 250.882 316.322 250.197 315.822 249.328C315.328 248.453 315.08 247.453 315.08 246.328C315.08 245.26 315.319 244.282 315.796 243.396C316.279 242.504 316.955 241.794 317.825 241.265C318.7 240.737 319.728 240.481 320.91 240.498ZM320.91 242.373C320.194 242.373 319.549 242.552 318.975 242.91C318.407 243.262 317.955 243.74 317.62 244.342C317.291 244.939 317.126 245.6 317.126 246.328C317.126 247.055 317.285 247.717 317.603 248.314C317.927 248.904 318.367 249.376 318.924 249.728C319.487 250.075 320.126 250.248 320.842 250.248C321.382 250.248 321.884 250.143 322.35 249.933C322.816 249.717 323.222 249.424 323.569 249.055C323.921 248.68 324.197 248.257 324.396 247.785C324.595 247.308 324.694 246.811 324.694 246.294C324.694 245.612 324.529 244.973 324.2 244.376C323.876 243.779 323.427 243.297 322.853 242.927C322.285 242.558 321.637 242.373 320.91 242.373Z" fill="#464646"/>
<path d="M576.175 240.737V258.191H574.061V242.953H573.959L569.698 245.782V243.635L574.061 240.737H576.175ZM586.99 258.43C586.274 258.419 585.559 258.282 584.843 258.021C584.127 257.76 583.473 257.319 582.882 256.7C582.292 256.075 581.817 255.231 581.459 254.169C581.101 253.1 580.922 251.76 580.922 250.146C580.922 248.6 581.067 247.231 581.357 246.038C581.647 244.839 582.067 243.831 582.618 243.012C583.169 242.189 583.834 241.564 584.613 241.137C585.397 240.711 586.28 240.498 587.263 240.498C588.24 240.498 589.11 240.694 589.871 241.086C590.638 241.473 591.263 242.012 591.746 242.706C592.229 243.399 592.542 244.197 592.684 245.1H590.604C590.411 244.316 590.036 243.666 589.479 243.149C588.922 242.632 588.184 242.373 587.263 242.373C585.911 242.373 584.845 242.961 584.067 244.137C583.294 245.314 582.905 246.964 582.899 249.089H583.036C583.354 248.606 583.732 248.194 584.169 247.853C584.613 247.507 585.101 247.24 585.635 247.052C586.169 246.865 586.735 246.771 587.331 246.771C588.331 246.771 589.246 247.021 590.076 247.521C590.905 248.015 591.57 248.7 592.07 249.575C592.57 250.444 592.82 251.441 592.82 252.566C592.82 253.646 592.578 254.635 592.095 255.532C591.613 256.424 590.934 257.135 590.059 257.663C589.189 258.186 588.167 258.441 586.99 258.43ZM586.99 256.555C587.706 256.555 588.348 256.376 588.917 256.018C589.49 255.66 589.942 255.18 590.272 254.578C590.607 253.975 590.774 253.305 590.774 252.566C590.774 251.845 590.613 251.189 590.289 250.598C589.97 250.001 589.53 249.527 588.968 249.174C588.411 248.822 587.774 248.646 587.059 248.646C586.519 248.646 586.016 248.754 585.55 248.97C585.084 249.18 584.675 249.47 584.323 249.839C583.976 250.208 583.703 250.632 583.505 251.109C583.306 251.581 583.206 252.078 583.206 252.6C583.206 253.294 583.368 253.941 583.692 254.544C584.022 255.146 584.47 255.632 585.039 256.001C585.613 256.37 586.263 256.555 586.99 256.555Z" fill="#464646"/>
<path d="M128.83 254.612V252.873L136.501 240.737H137.762V243.43H136.91L131.114 252.6V252.737H141.444V254.612H128.83ZM137.046 258.191V254.083V253.274V240.737H139.058V258.191H137.046Z" fill="#464646"/>
<path d="M353.08 240.737V258.191H350.966V242.953H350.864L346.603 245.782V243.635L350.966 240.737H353.08ZM363.793 258.43C362.509 258.43 361.415 258.081 360.512 257.382C359.608 256.677 358.918 255.657 358.441 254.322C357.963 252.981 357.725 251.362 357.725 249.464C357.725 247.578 357.963 245.967 358.441 244.632C358.924 243.291 359.617 242.268 360.52 241.564C361.429 240.853 362.52 240.498 363.793 240.498C365.066 240.498 366.154 240.853 367.057 241.564C367.966 242.268 368.659 243.291 369.137 244.632C369.62 245.967 369.861 247.578 369.861 249.464C369.861 251.362 369.622 252.981 369.145 254.322C368.668 255.657 367.978 256.677 367.074 257.382C366.171 258.081 365.077 258.43 363.793 258.43ZM363.793 256.555C365.066 256.555 366.054 255.941 366.759 254.714C367.463 253.487 367.816 251.737 367.816 249.464C367.816 247.953 367.654 246.666 367.33 245.603C367.012 244.541 366.551 243.731 365.949 243.174C365.353 242.618 364.634 242.339 363.793 242.339C362.532 242.339 361.546 242.961 360.836 244.206C360.125 245.444 359.77 247.197 359.77 249.464C359.77 250.975 359.929 252.26 360.247 253.316C360.566 254.373 361.023 255.177 361.62 255.728C362.222 256.279 362.946 256.555 363.793 256.555Z" fill="#464646"/>
<path d="M613.988 240.737V258.191H611.874V242.953H611.772L607.511 245.782V243.635L611.874 240.737H613.988ZM619.553 258.191L627.36 242.748V242.612H618.36V240.737H629.542V242.714L621.769 258.191H619.553Z" fill="#464646"/>
<path d="M791.657 258.191V256.657L797.418 250.35C798.094 249.612 798.651 248.97 799.089 248.424C799.526 247.873 799.85 247.356 800.06 246.873C800.276 246.385 800.384 245.873 800.384 245.339C800.384 244.725 800.236 244.194 799.941 243.745C799.651 243.297 799.253 242.95 798.748 242.706C798.242 242.461 797.674 242.339 797.043 242.339C796.373 242.339 795.788 242.478 795.288 242.757C794.793 243.029 794.41 243.413 794.137 243.907C793.87 244.402 793.736 244.981 793.736 245.646H791.725C791.725 244.623 791.961 243.725 792.432 242.953C792.904 242.18 793.546 241.578 794.359 241.146C795.177 240.714 796.094 240.498 797.111 240.498C798.134 240.498 799.04 240.714 799.83 241.146C800.62 241.578 801.239 242.16 801.688 242.893C802.137 243.626 802.361 244.441 802.361 245.339C802.361 245.981 802.245 246.609 802.012 247.223C801.785 247.831 801.387 248.51 800.819 249.26C800.256 250.004 799.475 250.913 798.475 251.987L794.555 256.18V256.316H802.668V258.191H791.657ZM806.188 258.191V256.657L811.949 250.35C812.626 249.612 813.182 248.97 813.62 248.424C814.057 247.873 814.381 247.356 814.592 246.873C814.807 246.385 814.915 245.873 814.915 245.339C814.915 244.725 814.768 244.194 814.472 243.745C814.182 243.297 813.785 242.95 813.279 242.706C812.773 242.461 812.205 242.339 811.574 242.339C810.904 242.339 810.319 242.478 809.819 242.757C809.324 243.029 808.941 243.413 808.668 243.907C808.401 244.402 808.268 244.981 808.268 245.646H806.256C806.256 244.623 806.492 243.725 806.964 242.953C807.435 242.18 808.077 241.578 808.89 241.146C809.708 240.714 810.626 240.498 811.643 240.498C812.665 240.498 813.572 240.714 814.361 241.146C815.151 241.578 815.77 242.16 816.219 242.893C816.668 243.626 816.893 244.441 816.893 245.339C816.893 245.981 816.776 246.609 816.543 247.223C816.316 247.831 815.918 248.51 815.35 249.26C814.788 250.004 814.006 250.913 813.006 251.987L809.086 256.18V256.316H817.199V258.191H806.188Z" fill="#464646"/>
<path d="M828.462 258.191V256.657L834.223 250.35C834.9 249.612 835.456 248.97 835.894 248.424C836.331 247.873 836.655 247.356 836.865 246.873C837.081 246.385 837.189 245.873 837.189 245.339C837.189 244.725 837.042 244.194 836.746 243.745C836.456 243.297 836.059 242.95 835.553 242.706C835.047 242.461 834.479 242.339 833.848 242.339C833.178 242.339 832.593 242.478 832.093 242.757C831.598 243.029 831.215 243.413 830.942 243.907C830.675 244.402 830.542 244.981 830.542 245.646H828.53C828.53 244.623 828.766 243.725 829.238 242.953C829.709 242.18 830.351 241.578 831.164 241.146C831.982 240.714 832.9 240.498 833.917 240.498C834.939 240.498 835.846 240.714 836.635 241.146C837.425 241.578 838.044 242.16 838.493 242.893C838.942 243.626 839.167 244.441 839.167 245.339C839.167 245.981 839.05 246.609 838.817 247.223C838.59 247.831 838.192 248.51 837.624 249.26C837.061 250.004 836.28 250.913 835.28 251.987L831.36 256.18V256.316H839.473V258.191H828.462ZM848.891 258.43C847.766 258.43 846.763 258.237 845.882 257.85C845.007 257.464 844.311 256.927 843.794 256.24C843.283 255.547 843.005 254.743 842.959 253.828H845.107C845.152 254.39 845.346 254.876 845.686 255.285C846.027 255.689 846.473 256.001 847.025 256.223C847.576 256.444 848.186 256.555 848.857 256.555C849.607 256.555 850.272 256.424 850.851 256.163C851.431 255.902 851.885 255.538 852.215 255.072C852.544 254.606 852.709 254.066 852.709 253.453C852.709 252.811 852.55 252.245 852.232 251.757C851.914 251.262 851.448 250.876 850.834 250.598C850.221 250.319 849.471 250.18 848.584 250.18H847.186V248.305H848.584C849.277 248.305 849.885 248.18 850.408 247.93C850.936 247.68 851.348 247.328 851.644 246.873C851.945 246.419 852.096 245.885 852.096 245.271C852.096 244.68 851.965 244.166 851.703 243.728C851.442 243.291 851.073 242.95 850.596 242.706C850.124 242.461 849.567 242.339 848.925 242.339C848.323 242.339 847.755 242.45 847.221 242.672C846.692 242.887 846.26 243.203 845.925 243.618C845.59 244.027 845.408 244.521 845.38 245.1H843.334C843.368 244.186 843.644 243.385 844.161 242.697C844.678 242.004 845.354 241.464 846.189 241.078C847.03 240.691 847.953 240.498 848.959 240.498C850.039 240.498 850.965 240.717 851.738 241.154C852.51 241.586 853.104 242.157 853.519 242.868C853.934 243.578 854.141 244.345 854.141 245.169C854.141 246.152 853.882 246.99 853.365 247.683C852.854 248.376 852.158 248.856 851.277 249.123V249.26C852.38 249.441 853.24 249.91 853.86 250.666C854.479 251.416 854.789 252.345 854.789 253.453C854.789 254.402 854.53 255.254 854.013 256.01C853.502 256.76 852.803 257.35 851.917 257.782C851.03 258.214 850.022 258.43 848.891 258.43Z" fill="#464646"/>
<path d="M172.273 258.43C171.273 258.43 170.372 258.231 169.571 257.833C168.77 257.436 168.128 256.89 167.645 256.197C167.162 255.504 166.898 254.714 166.853 253.828H168.898C168.978 254.618 169.336 255.271 169.972 255.788C170.614 256.299 171.381 256.555 172.273 256.555C172.989 256.555 173.625 256.387 174.182 256.052C174.745 255.717 175.185 255.257 175.503 254.672C175.827 254.081 175.989 253.413 175.989 252.669C175.989 251.907 175.821 251.228 175.486 250.632C175.157 250.029 174.702 249.555 174.122 249.208C173.543 248.862 172.881 248.686 172.137 248.68C171.603 248.674 171.054 248.757 170.492 248.927C169.929 249.092 169.466 249.305 169.103 249.566L167.125 249.328L168.182 240.737H177.25V242.612H169.955L169.341 247.76H169.443C169.801 247.475 170.25 247.24 170.79 247.052C171.33 246.865 171.892 246.771 172.478 246.771C173.546 246.771 174.497 247.027 175.333 247.538C176.174 248.044 176.833 248.737 177.31 249.618C177.793 250.498 178.034 251.504 178.034 252.635C178.034 253.748 177.784 254.743 177.284 255.618C176.79 256.487 176.108 257.174 175.239 257.68C174.37 258.18 173.381 258.43 172.273 258.43Z" fill="#464646"/>
<path d="M392.182 240.737V258.191H390.069V242.953H389.966L385.705 245.782V243.635L390.069 240.737H392.182ZM403.339 240.737V258.191H401.225V242.953H401.123L396.861 245.782V243.635L401.225 240.737H403.339Z" fill="#464646"/>
<path d="M650.63 240.737V258.191H648.516V242.953H648.414L644.152 245.782V243.635L648.516 240.737H650.63ZM661.24 258.43C660.07 258.43 659.036 258.223 658.138 257.808C657.246 257.387 656.55 256.811 656.05 256.078C655.55 255.339 655.303 254.498 655.309 253.555C655.303 252.816 655.448 252.135 655.743 251.51C656.039 250.879 656.442 250.353 656.953 249.933C657.471 249.507 658.047 249.237 658.684 249.123V249.021C657.848 248.805 657.184 248.336 656.689 247.615C656.195 246.887 655.951 246.061 655.956 245.135C655.951 244.248 656.175 243.456 656.63 242.757C657.084 242.058 657.709 241.507 658.505 241.103C659.306 240.7 660.218 240.498 661.24 240.498C662.252 240.498 663.155 240.7 663.951 241.103C664.746 241.507 665.371 242.058 665.826 242.757C666.286 243.456 666.519 244.248 666.525 245.135C666.519 246.061 666.266 246.887 665.766 247.615C665.272 248.336 664.615 248.805 663.797 249.021V249.123C664.428 249.237 664.996 249.507 665.502 249.933C666.007 250.353 666.411 250.879 666.712 251.51C667.013 252.135 667.167 252.816 667.172 253.555C667.167 254.498 666.911 255.339 666.405 256.078C665.905 256.811 665.209 257.387 664.317 257.808C663.431 258.223 662.405 258.43 661.24 258.43ZM661.24 256.555C662.03 256.555 662.712 256.427 663.286 256.172C663.86 255.916 664.303 255.555 664.615 255.089C664.928 254.623 665.087 254.078 665.093 253.453C665.087 252.794 664.917 252.211 664.581 251.706C664.246 251.2 663.789 250.802 663.209 250.512C662.635 250.223 661.979 250.078 661.24 250.078C660.496 250.078 659.831 250.223 659.246 250.512C658.667 250.802 658.209 251.2 657.874 251.706C657.544 252.211 657.382 252.794 657.388 253.453C657.382 254.078 657.533 254.623 657.84 255.089C658.152 255.555 658.598 255.916 659.178 256.172C659.757 256.427 660.445 256.555 661.24 256.555ZM661.24 248.271C661.865 248.271 662.419 248.146 662.902 247.896C663.391 247.646 663.775 247.297 664.053 246.848C664.331 246.399 664.473 245.873 664.479 245.271C664.473 244.68 664.334 244.166 664.061 243.728C663.789 243.285 663.411 242.944 662.928 242.706C662.445 242.461 661.882 242.339 661.24 242.339C660.587 242.339 660.016 242.461 659.527 242.706C659.039 242.944 658.661 243.285 658.394 243.728C658.127 244.166 657.996 244.68 658.002 245.271C657.996 245.873 658.13 246.399 658.402 246.848C658.681 247.297 659.064 247.646 659.553 247.896C660.042 248.146 660.604 248.271 661.24 248.271Z" fill="#464646"/>
<path d="M209.607 258.43C208.891 258.419 208.175 258.282 207.459 258.021C206.743 257.76 206.09 257.319 205.499 256.7C204.908 256.075 204.433 255.231 204.075 254.169C203.717 253.1 203.538 251.76 203.538 250.146C203.538 248.6 203.683 247.231 203.973 246.038C204.263 244.839 204.683 243.831 205.234 243.012C205.786 242.189 206.45 241.564 207.229 241.137C208.013 240.711 208.896 240.498 209.879 240.498C210.857 240.498 211.726 240.694 212.487 241.086C213.254 241.473 213.879 242.012 214.362 242.706C214.845 243.399 215.158 244.197 215.3 245.1H213.22C213.027 244.316 212.652 243.666 212.095 243.149C211.538 242.632 210.8 242.373 209.879 242.373C208.527 242.373 207.462 242.961 206.683 244.137C205.911 245.314 205.521 246.964 205.516 249.089H205.652C205.97 248.606 206.348 248.194 206.786 247.853C207.229 247.507 207.717 247.24 208.251 247.052C208.786 246.865 209.351 246.771 209.948 246.771C210.948 246.771 211.862 247.021 212.692 247.521C213.521 248.015 214.186 248.7 214.686 249.575C215.186 250.444 215.436 251.441 215.436 252.566C215.436 253.646 215.195 254.635 214.712 255.532C214.229 256.424 213.55 257.135 212.675 257.663C211.805 258.186 210.783 258.441 209.607 258.43ZM209.607 256.555C210.323 256.555 210.965 256.376 211.533 256.018C212.107 255.66 212.558 255.18 212.888 254.578C213.223 253.975 213.391 253.305 213.391 252.566C213.391 251.845 213.229 251.189 212.905 250.598C212.587 250.001 212.146 249.527 211.584 249.174C211.027 248.822 210.391 248.646 209.675 248.646C209.135 248.646 208.632 248.754 208.166 248.97C207.7 249.18 207.291 249.47 206.939 249.839C206.592 250.208 206.32 250.632 206.121 251.109C205.922 251.581 205.823 252.078 205.823 252.6C205.823 253.294 205.984 253.941 206.308 254.544C206.638 255.146 207.087 255.632 207.655 256.001C208.229 256.37 208.879 256.555 209.607 256.555Z" fill="#464646"/>
<path d="M464.481 240.737V258.191H462.367V242.953H462.265L458.003 245.782V243.635L462.367 240.737H464.481ZM475.398 258.43C474.273 258.43 473.27 258.237 472.39 257.85C471.515 257.464 470.819 256.927 470.302 256.24C469.79 255.547 469.512 254.743 469.467 253.828H471.614C471.66 254.39 471.853 254.876 472.194 255.285C472.535 255.689 472.981 256.001 473.532 256.223C474.083 256.444 474.694 256.555 475.364 256.555C476.114 256.555 476.779 256.424 477.359 256.163C477.938 255.902 478.393 255.538 478.722 255.072C479.052 254.606 479.217 254.066 479.217 253.453C479.217 252.811 479.057 252.245 478.739 251.757C478.421 251.262 477.955 250.876 477.342 250.598C476.728 250.319 475.978 250.18 475.092 250.18H473.694V248.305H475.092C475.785 248.305 476.393 248.18 476.915 247.93C477.444 247.68 477.856 247.328 478.151 246.873C478.452 246.419 478.603 245.885 478.603 245.271C478.603 244.68 478.472 244.166 478.211 243.728C477.949 243.291 477.58 242.95 477.103 242.706C476.631 242.461 476.074 242.339 475.432 242.339C474.83 242.339 474.262 242.45 473.728 242.672C473.199 242.887 472.768 243.203 472.432 243.618C472.097 244.027 471.915 244.521 471.887 245.1H469.842C469.876 244.186 470.151 243.385 470.668 242.697C471.185 242.004 471.861 241.464 472.697 241.078C473.538 240.691 474.461 240.498 475.467 240.498C476.546 240.498 477.472 240.717 478.245 241.154C479.018 241.586 479.611 242.157 480.026 242.868C480.441 243.578 480.648 244.345 480.648 245.169C480.648 246.152 480.39 246.99 479.873 247.683C479.361 248.376 478.665 248.856 477.785 249.123V249.26C478.887 249.441 479.748 249.91 480.367 250.666C480.986 251.416 481.296 252.345 481.296 253.453C481.296 254.402 481.038 255.254 480.52 256.01C480.009 256.76 479.31 257.35 478.424 257.782C477.538 258.214 476.529 258.43 475.398 258.43Z" fill="#464646"/>
<path d="M242.17 258.191L249.977 242.748V242.612H240.977V240.737H252.159V242.714L244.386 258.191H242.17Z" fill="#464646"/>
<path d="M501.603 240.737V258.191H499.489V242.953H499.387L495.126 245.782V243.635L499.489 240.737H501.603ZM506.214 254.612V252.873L513.884 240.737H515.145V243.43H514.293L508.498 252.6V252.737H518.827V254.612H506.214ZM514.429 258.191V254.083V253.274V240.737H516.441V258.191H514.429Z" fill="#464646"/>
<path d="M427.676 240.737V258.191H425.562V242.953H425.46L421.198 245.782V243.635L425.562 240.737H427.676ZM432.695 258.191V256.657L438.457 250.35C439.133 249.612 439.69 248.97 440.127 248.424C440.565 247.873 440.889 247.356 441.099 246.873C441.315 246.385 441.423 245.873 441.423 245.339C441.423 244.725 441.275 244.194 440.98 243.745C440.69 243.297 440.292 242.95 439.786 242.706C439.281 242.461 438.712 242.339 438.082 242.339C437.411 242.339 436.826 242.478 436.326 242.757C435.832 243.029 435.448 243.413 435.176 243.907C434.908 244.402 434.775 244.981 434.775 245.646H432.764C432.764 244.623 432.999 243.725 433.471 242.953C433.943 242.18 434.585 241.578 435.397 241.146C436.215 240.714 437.133 240.498 438.15 240.498C439.173 240.498 440.079 240.714 440.869 241.146C441.658 241.578 442.278 242.16 442.727 242.893C443.176 243.626 443.4 244.441 443.4 245.339C443.4 245.981 443.283 246.609 443.051 247.223C442.823 247.831 442.426 248.51 441.857 249.26C441.295 250.004 440.514 250.913 439.514 251.987L435.593 256.18V256.316H443.707V258.191H432.695Z" fill="#464646"/>
<path d="M687.717 240.737V258.191H685.603V242.953H685.501L681.239 245.782V243.635L685.603 240.737H687.717ZM698.293 240.498C699.009 240.504 699.725 240.64 700.441 240.907C701.157 241.174 701.81 241.618 702.401 242.237C702.992 242.85 703.467 243.689 703.825 244.751C704.182 245.814 704.361 247.146 704.361 248.748C704.361 250.299 704.214 251.677 703.918 252.882C703.628 254.081 703.208 255.092 702.657 255.916C702.111 256.74 701.447 257.365 700.663 257.791C699.884 258.217 699.003 258.43 698.021 258.43C697.043 258.43 696.171 258.237 695.404 257.85C694.643 257.458 694.018 256.916 693.529 256.223C693.046 255.524 692.736 254.714 692.6 253.794H694.68C694.867 254.595 695.239 255.257 695.796 255.779C696.359 256.297 697.1 256.555 698.021 256.555C699.367 256.555 700.43 255.967 701.208 254.791C701.992 253.615 702.384 251.953 702.384 249.805H702.248C701.93 250.282 701.552 250.694 701.114 251.041C700.677 251.387 700.191 251.654 699.657 251.842C699.123 252.029 698.555 252.123 697.952 252.123C696.952 252.123 696.035 251.876 695.2 251.382C694.37 250.882 693.705 250.197 693.205 249.328C692.711 248.453 692.464 247.453 692.464 246.328C692.464 245.26 692.702 244.282 693.18 243.396C693.663 242.504 694.339 241.794 695.208 241.265C696.083 240.737 697.111 240.481 698.293 240.498ZM698.293 242.373C697.577 242.373 696.932 242.552 696.359 242.91C695.79 243.262 695.339 243.74 695.003 244.342C694.674 244.939 694.509 245.6 694.509 246.328C694.509 247.055 694.668 247.717 694.986 248.314C695.31 248.904 695.751 249.376 696.307 249.728C696.87 250.075 697.509 250.248 698.225 250.248C698.765 250.248 699.268 250.143 699.734 249.933C700.2 249.717 700.606 249.424 700.952 249.055C701.305 248.68 701.58 248.257 701.779 247.785C701.978 247.308 702.077 246.811 702.077 246.294C702.077 245.612 701.913 244.973 701.583 244.376C701.259 243.779 700.81 243.297 700.236 242.927C699.668 242.558 699.021 242.373 698.293 242.373Z" fill="#464646"/>
<path d="M865.772 258.191V256.657L871.533 250.35C872.209 249.612 872.766 248.97 873.203 248.424C873.641 247.873 873.965 247.356 874.175 246.873C874.391 246.385 874.499 245.873 874.499 245.339C874.499 244.725 874.351 244.194 874.056 243.745C873.766 243.297 873.368 242.95 872.862 242.706C872.357 242.461 871.789 242.339 871.158 242.339C870.487 242.339 869.902 242.478 869.402 242.757C868.908 243.029 868.524 243.413 868.252 243.907C867.985 244.402 867.851 244.981 867.851 245.646H865.84C865.84 244.623 866.076 243.725 866.547 242.953C867.019 242.18 867.661 241.578 868.473 241.146C869.291 240.714 870.209 240.498 871.226 240.498C872.249 240.498 873.155 240.714 873.945 241.146C874.735 241.578 875.354 242.16 875.803 242.893C876.252 243.626 876.476 244.441 876.476 245.339C876.476 245.981 876.36 246.609 876.127 247.223C875.899 247.831 875.502 248.51 874.934 249.26C874.371 250.004 873.59 250.913 872.59 251.987L868.669 256.18V256.316H876.783V258.191H865.772ZM879.519 254.612V252.873L887.189 240.737H888.451V243.43H887.598L881.803 252.6V252.737H892.132V254.612H879.519ZM887.735 258.191V254.083V253.274V240.737H889.746V258.191H887.735Z" fill="#464646"/>
<rect x="228" y="162.656" width="74.4459" height="63.1579" fill="#E6A352"/>
<path d="M234.245 149H296.45L302.446 162.656H228L234.245 149Z" fill="#E6A352" fill-opacity="0.7"/>
<path d="M262.475 149H268.221L268.72 162.656H261.975L262.475 149Z" fill="#C4C4C4" fill-opacity="0.7"/>
<rect x="261.975" y="162.656" width="6.7451" height="14.2248" fill="#C4C4C4"/>
<path d="M264.292 214.859C262.116 214.859 260.484 214.667 259.396 214.283C258.34 213.867 257.588 213.147 257.14 212.123C256.724 211.067 256.516 209.499 256.516 207.419C256.516 205.563 256.74 204.107 257.188 203.051C257.668 201.995 258.42 201.243 259.444 200.795C260.5 200.315 261.94 200.075 263.764 200.075H271.636V198.491C271.636 197.499 271.492 196.763 271.204 196.283C270.948 195.803 270.452 195.467 269.716 195.275C269.012 195.083 267.94 194.987 266.5 194.987C264.516 194.987 261.796 195.179 258.34 195.563V191.147C260.868 190.827 263.828 190.667 267.22 190.667C270.196 190.667 272.484 190.891 274.084 191.339C275.716 191.787 276.884 192.555 277.588 193.643C278.292 194.731 278.644 196.315 278.644 198.395V214.379H271.78V212.267C271.236 213.195 270.5 213.851 269.572 214.235C268.644 214.651 266.884 214.859 264.292 214.859ZM267.028 210.491C268.436 210.491 269.444 210.443 270.052 210.347C270.5 210.283 270.804 210.187 270.964 210.059C271.156 209.931 271.316 209.723 271.444 209.435C271.572 209.211 271.636 208.875 271.636 208.427V203.915H266.836C265.748 203.915 264.98 203.995 264.532 204.155C264.084 204.283 263.78 204.571 263.62 205.019C263.46 205.435 263.38 206.187 263.38 207.275C263.38 208.331 263.46 209.067 263.62 209.483C263.78 209.899 264.084 210.171 264.532 210.299C265.012 210.427 265.844 210.491 267.028 210.491Z" fill="black"/>
<rect x="302" y="162.656" width="74.4459" height="63.1579" fill="#E6A352"/>
<path d="M308.245 149H370.45L376.446 162.656H302L308.245 149Z" fill="#E6A352" fill-opacity="0.7"/>
<path d="M336.475 149H342.221L342.72 162.656H335.975L336.475 149Z" fill="#C4C4C4" fill-opacity="0.7"/>
<rect x="335.975" y="162.656" width="6.7451" height="14.2248" fill="#C4C4C4"/>
<path d="M343.476 214.859C340.532 214.859 338.196 214.555 336.468 213.947C334.772 213.339 333.556 212.411 332.82 211.163C332.084 209.883 331.716 208.203 331.716 206.123V180.779H338.724V193.451C339.14 192.395 339.908 191.675 341.028 191.291C342.148 190.875 343.892 190.667 346.26 190.667C348.276 190.667 349.892 190.827 351.108 191.147C352.356 191.467 353.3 191.979 353.94 192.683C354.548 193.387 354.964 194.171 355.188 195.035C355.412 195.867 355.524 197.019 355.524 198.491V206.123C355.524 209.259 354.58 211.499 352.692 212.843C350.804 214.187 347.732 214.859 343.476 214.859ZM343.572 210.491C344.948 210.491 345.988 210.395 346.692 210.203C347.396 210.011 347.876 209.675 348.132 209.195C348.388 208.715 348.516 207.995 348.516 207.035V198.443C348.516 197.387 348.404 196.635 348.18 196.187C347.956 195.707 347.508 195.387 346.836 195.227C346.164 195.067 345.06 194.987 343.524 194.987C342.212 194.987 341.204 195.099 340.5 195.323C339.828 195.547 339.364 195.899 339.108 196.379C338.852 196.859 338.724 197.547 338.724 198.443V207.035C338.724 207.995 338.836 208.715 339.06 209.195C339.316 209.675 339.78 210.011 340.452 210.203C341.156 210.395 342.196 210.491 343.572 210.491Z" fill="black"/>
<rect x="376" y="162.656" width="74.4459" height="63.1579" fill="#E6A352"/>
<path d="M382.245 149H444.45L450.446 162.656H376L382.245 149Z" fill="#E6A352" fill-opacity="0.7"/>
<path d="M410.475 149H416.221L416.72 162.656H409.975L410.475 149Z" fill="#C4C4C4" fill-opacity="0.7"/>
<rect x="409.975" y="162.656" width="6.7451" height="14.2248" fill="#C4C4C4"/>
<path d="M417.044 214.859C415.828 214.859 414.868 214.827 414.164 214.763C413.46 214.731 412.596 214.651 411.572 214.523C410.548 214.395 409.7 214.171 409.028 213.851C408.388 213.531 407.716 213.051 407.012 212.411C405.7 211.323 405.044 209.467 405.044 206.843V199.115C405.044 197.003 405.524 195.243 406.484 193.835C406.836 193.323 407.348 192.859 408.02 192.443C408.724 191.995 409.428 191.643 410.132 191.387C410.708 191.195 411.476 191.035 412.436 190.907C413.396 190.779 414.244 190.699 414.98 190.667H417.524C419.316 190.667 421.668 190.955 424.58 191.531V196.139C421.284 195.371 418.756 194.987 416.996 194.987C413.764 194.987 412.148 196.075 412.148 198.251V206.795C412.148 209.259 413.924 210.491 417.476 210.491C419.204 210.491 421.684 210.139 424.916 209.435V214.043C422.004 214.587 419.38 214.859 417.044 214.859Z" fill="black"/>
<rect x="448" y="162.656" width="74.4459" height="63.1579" fill="#E6A352"/>
<path d="M454.245 149H516.45L522.446 162.656H448L454.245 149Z" fill="#E6A352" fill-opacity="0.7"/>
<path d="M482.475 149H488.221L488.72 162.656H481.975L482.475 149Z" fill="#C4C4C4" fill-opacity="0.7"/>
<rect x="481.975" y="162.656" width="6.7451" height="14.2248" fill="#C4C4C4"/>
<path d="M486.644 214.859C483.892 214.859 481.86 214.667 480.548 214.283C479.236 213.867 478.324 213.099 477.812 211.979C477.3 210.859 477.044 209.115 477.044 206.747V197.675C477.044 195.115 477.764 193.307 479.204 192.251C480.676 191.195 483.044 190.667 486.308 190.667C487.844 190.667 489.044 190.763 489.908 190.955C490.804 191.115 491.524 191.419 492.068 191.867C492.612 192.283 493.172 192.907 493.748 193.739V180.779H500.756V214.379H493.988V211.739C493.412 212.667 492.884 213.323 492.404 213.707C491.956 214.059 491.316 214.331 490.484 214.523C489.62 214.747 488.34 214.859 486.644 214.859ZM488.42 210.491C489.988 210.491 491.14 210.411 491.876 210.251C492.612 210.091 493.108 209.803 493.364 209.387C493.62 208.939 493.748 208.283 493.748 207.419V198.059C493.748 197.259 493.604 196.651 493.316 196.235C493.06 195.787 492.58 195.467 491.876 195.275C491.204 195.083 490.18 194.987 488.804 194.987C487.332 194.987 486.276 195.083 485.636 195.275C484.996 195.435 484.564 195.739 484.34 196.187C484.148 196.603 484.052 197.307 484.052 198.299V207.179C484.052 208.075 484.148 208.763 484.34 209.243C484.564 209.691 484.98 210.011 485.588 210.203C486.196 210.395 487.14 210.491 488.42 210.491Z" fill="black"/>
<rect x="522" y="162.656" width="74.4459" height="63.1579" fill="#E6A352"/>
<path d="M528.245 149H590.45L596.446 162.656H522L528.245 149Z" fill="#E6A352" fill-opacity="0.7"/>
<path d="M556.475 149H562.221L562.72 162.656H555.975L556.475 149Z" fill="#C4C4C4" fill-opacity="0.7"/>
<rect x="555.975" y="162.656" width="6.7451" height="14.2248" fill="#C4C4C4"/>
<path d="M563.38 214.859C555.156 214.859 551.044 212.347 551.044 207.323V198.971C551.044 196.059 551.972 193.947 553.828 192.635C555.716 191.323 558.612 190.667 562.516 190.667C566.196 190.667 568.884 191.307 570.58 192.587C572.308 193.835 573.172 195.963 573.172 198.971V204.635H558.1V206.747C558.1 208.091 558.58 209.051 559.54 209.627C560.5 210.203 562.228 210.491 564.724 210.491C567.028 210.491 569.62 210.155 572.5 209.483V213.947C569.652 214.555 566.612 214.859 563.38 214.859ZM566.5 200.651V197.291C566.5 196.523 566.18 195.947 565.54 195.563C564.932 195.179 563.892 194.987 562.42 194.987C560.724 194.987 559.588 195.179 559.012 195.563C558.404 195.979 558.1 196.555 558.1 197.291V200.651H566.5Z" fill="black"/>
<rect x="596" y="162.656" width="74.4459" height="63.1579" fill="#E6A352"/>
<path d="M602.245 149H664.45L670.446 162.656H596L602.245 149Z" fill="#E6A352" fill-opacity="0.7"/>
<path d="M630.475 149H636.221L636.72 162.656H629.975L630.475 149Z" fill="#C4C4C4" fill-opacity="0.7"/>
<rect x="629.975" y="162.656" width="6.7451" height="14.2248" fill="#C4C4C4"/>
<path d="M627.492 195.467H623.124V191.147H627.492V187.643C627.492 185.755 627.796 184.283 628.404 183.227C629.044 182.139 630.004 181.387 631.284 180.971C632.596 180.523 634.34 180.299 636.516 180.299C637.7 180.299 639.444 180.427 641.748 180.683V185.003C639.7 184.747 638.324 184.619 637.62 184.619C636.436 184.619 635.62 184.811 635.172 185.195C634.724 185.547 634.5 186.235 634.5 187.259V191.147H640.884V195.467H634.5V214.379H627.492V195.467Z" fill="black"/>
<rect x="670" y="162.656" width="74.4459" height="63.1579" fill="#E6A352"/>
<path d="M676.245 149H738.45L744.446 162.656H670L676.245 149Z" fill="#E6A352" fill-opacity="0.7"/>
<path d="M704.475 149H710.221L710.72 162.656H703.975L704.475 149Z" fill="#C4C4C4" fill-opacity="0.7"/>
<rect x="703.975" y="162.656" width="6.7451" height="14.2248" fill="#C4C4C4"/>
<path d="M709.124 224.939C705.348 224.939 702.548 224.827 700.724 224.603V219.899C703.732 220.315 706.532 220.523 709.124 220.523C711.492 220.523 713.188 220.139 714.212 219.371C715.236 218.603 715.748 217.323 715.748 215.531V211.787C715.172 212.619 714.612 213.259 714.068 213.707C713.524 214.123 712.804 214.411 711.908 214.571C711.044 214.763 709.844 214.859 708.308 214.859C706.036 214.859 704.228 214.651 702.884 214.235C701.54 213.787 700.564 213.067 699.956 212.075C699.348 211.051 699.044 209.643 699.044 207.851V198.779C699.044 196.635 699.316 194.987 699.86 193.835C700.436 192.683 701.396 191.867 702.74 191.387C704.116 190.907 706.084 190.667 708.644 190.667C710.308 190.667 711.588 190.763 712.484 190.955C713.348 191.147 714.004 191.435 714.452 191.819C714.9 192.203 715.412 192.859 715.988 193.787V191.147H722.756V215.627C722.756 218.923 721.62 221.291 719.348 222.731C717.108 224.203 713.7 224.939 709.124 224.939ZM710.804 210.491C712.18 210.491 713.204 210.395 713.876 210.203C714.58 210.011 715.06 209.707 715.316 209.291C715.604 208.843 715.748 208.219 715.748 207.419V198.059C715.748 197.195 715.62 196.555 715.364 196.139C715.108 195.691 714.612 195.387 713.876 195.227C713.14 195.067 711.988 194.987 710.42 194.987C709.14 194.987 708.196 195.083 707.588 195.275C706.98 195.467 706.564 195.803 706.34 196.283C706.148 196.731 706.052 197.403 706.052 198.299V207.179C706.052 208.171 706.148 208.891 706.34 209.339C706.564 209.755 706.996 210.059 707.636 210.251C708.276 210.411 709.332 210.491 710.804 210.491Z" fill="black"/>
<rect x="744" y="162.656" width="74.4459" height="63.1579" fill="#E6A352"/>
<path d="M750.245 149H812.45L818.446 162.656H744L750.245 149Z" fill="#E6A352" fill-opacity="0.7"/>
<path d="M778.475 149H784.221L784.72 162.656H777.975L778.475 149Z" fill="#C4C4C4" fill-opacity="0.7"/>
<rect x="777.975" y="162.656" width="6.7451" height="14.2248" fill="#C4C4C4"/>
<path d="M773.716 180.779H780.724V193.979C781.172 191.771 783.62 190.667 788.068 190.667C791.044 190.667 793.124 191.211 794.308 192.299C795.524 193.355 796.132 195.035 796.132 197.339V214.379H789.124V198.155C789.124 197.259 789.028 196.603 788.836 196.187C788.676 195.739 788.34 195.435 787.828 195.275C787.316 195.083 786.5 194.987 785.38 194.987C784.004 194.987 782.996 195.067 782.356 195.227C781.716 195.387 781.284 195.691 781.06 196.139C780.836 196.555 780.724 197.227 780.724 198.155V214.379H773.716V180.779Z" fill="black"/>
<path d="M74.8149 208.375L75.4598 192.033H82.3834L83.0283 208.375H74.8149Z" fill="#C4C4C4" stroke="#444B5B" stroke-width="0.75"/>
<path d="M89.7877 214.373C89.7877 220.376 84.9224 225.242 78.9214 225.242C72.9205 225.242 68.0552 220.376 68.0552 214.373C68.0552 208.37 72.9205 203.504 78.9214 203.504C84.9224 203.504 89.7877 208.37 89.7877 214.373Z" fill="#303140" stroke="#7BD5E0" stroke-width="3"/>
<path d="M75.3237 195.403C76.5978 194.953 79.8205 194.323 82.5186 195.403" stroke="#444B5B" stroke-width="0.5" stroke-linecap="round"/>
<path d="M75.0996 198.023C76.3737 197.573 79.5964 196.943 82.2945 198.023" stroke="#444B5B" stroke-width="0.5" stroke-linecap="round"/>
<path d="M75.3237 200.721C76.5978 200.271 79.8205 199.642 82.5186 200.721" stroke="#444B5B" stroke-width="0.5" stroke-linecap="round"/>
<path d="M123.993 173.582C124.099 168.384 120.501 159.038 118.689 155.016C117.01 155.767 113.863 157.191 114.712 156.872C115.56 156.554 118.424 168.587 119.75 174.643C120.599 174.855 122.932 174.024 123.993 173.582Z" fill="#C4C4C4" stroke="#444B5B" stroke-width="0.5"/>
<path d="M33.6898 174.245C33.5837 169.047 37.1813 159.701 38.9933 155.679C40.6728 156.43 43.8195 157.854 42.9709 157.535C42.1224 157.217 39.2585 169.25 37.9326 175.306C37.084 175.518 34.7505 174.687 33.6898 174.245Z" fill="#C4C4C4" stroke="#444B5B" stroke-width="0.5"/>
<path d="M114.911 113.64C114.911 129.46 123.397 142.285 79.3774 142.285C35.3581 142.285 43.5786 129.46 43.5786 113.64C43.5786 97.8192 60.9975 84.9941 79.3774 84.9941C97.7572 84.9941 114.911 97.8192 114.911 113.64Z" fill="#7BD5E0"/>
<path d="M115.237 111.83C115.237 126.798 123.73 139.367 79.6736 139.367C35.6173 139.367 43.8447 126.798 43.8447 111.83C43.8447 96.8625 61.2783 84.7285 79.6736 84.7285C98.0688 84.7285 115.237 96.8625 115.237 111.83Z" fill="#9BE3E8"/>
<path d="M46.9495 108.334C46.9495 115.658 45.0499 131.807 42.7066 131.807C37.8009 131.807 35.5469 124.941 35.5469 117.617C35.5469 110.293 37.4465 104.355 39.7897 104.355C46.1765 104.355 46.9495 101.01 46.9495 108.334Z" fill="#303140"/>
<path d="M46.9495 107.792C46.9495 113.92 45.0499 127.431 42.7066 127.431C37.8009 127.431 35.5469 121.687 35.5469 115.559C35.5469 109.431 37.4465 104.463 39.7897 104.463C46.1765 104.463 46.9495 101.664 46.9495 107.792Z" fill="#4A4E62"/>
<path d="M111.652 108.566C111.652 115.891 113.551 132.04 115.894 132.04C120.8 132.04 123.054 125.174 123.054 117.85C123.054 110.525 121.155 104.588 118.811 104.588C112.425 104.588 111.652 101.242 111.652 108.566Z" fill="#353D4D"/>
<path d="M53.996 149.715C54.8205 143.783 59.8927 139.367 65.8818 139.367H92.2335C98.1452 139.367 103.176 143.673 104.089 149.513L108.769 179.445C109.88 186.547 104.539 193.025 97.3561 193.29L77.9742 194.006L61.2307 193.327C54.147 193.04 48.8549 186.707 49.8308 179.685L53.996 149.715Z" fill="#7BD5E0"/>
<path d="M53.807 149.959L50.632 174.968C50.3309 177.34 51.7451 179.608 54.0471 180.252C63.6361 182.938 80.2791 185.843 100.935 181.108C103.259 180.575 104.806 178.393 104.62 176.016C103.581 162.686 102.195 153.925 100.704 148.603C100.031 146.203 97.4814 145.088 95.039 145.586C83.7693 147.885 69.1838 146.896 59.8903 145.495C56.9785 145.056 54.1779 147.038 53.807 149.959Z" fill="#9BE3EC"/>
<path d="M59.8721 155.095C60.6946 149.161 65.7677 144.742 71.7585 144.742H86.5832C92.4967 144.742 97.5287 149.05 98.4399 154.893L101.085 171.858C102.193 178.958 96.8536 185.433 89.6727 185.699L78.331 186.119L68.9144 185.736C61.8329 185.449 56.5421 179.119 57.5151 172.099L59.8721 155.095Z" fill="#444B5B"/>
<ellipse cx="45.8887" cy="148.12" rx="10.3419" ry="10.3442" fill="#353D4D"/>
<path d="M55.9651 146.263C55.9651 150.291 52.1344 153.424 47.0817 153.424C42.0291 153.424 35.9443 150.159 35.9443 146.13C35.9443 142.102 40.8358 137.775 45.8884 137.775C50.9411 137.775 55.9651 142.235 55.9651 146.263Z" fill="#444B5B"/>
<ellipse cx="112.713" cy="148.12" rx="10.3419" ry="10.3442" fill="#353D4D"/>
<ellipse cx="7.77134" cy="4.25656" rx="7.77134" ry="4.25656" transform="matrix(0.96427 0.26492 -0.264809 0.964301 28.2544 172.257)" fill="#7BD5E0"/>
<ellipse cx="7.06988" cy="3.38593" rx="7.06988" ry="3.38593" transform="matrix(0.96427 0.26492 -0.264809 0.964301 28.854 172.622)" fill="#90E2EB"/>
<ellipse cx="7.77134" cy="4.25656" rx="7.77134" ry="4.25656" transform="matrix(-0.96427 0.26492 0.264809 0.964301 129.291 171.159)" fill="#7BD5E0"/>
<path d="M116.765 94.5493C82.6972 104.655 52.6992 98.3822 41.9587 93.9824C39.9509 96.3793 41.1221 99.5159 41.9587 100.785C71.363 110.826 104.081 104.968 116.765 100.785C119.032 97.675 117.709 95.332 116.765 94.5493Z" fill="#FECA00" stroke="#353D4D" stroke-width="3"/>
<path d="M115.737 94.4401C87.8227 104.611 55.5848 98.6779 42.9553 94.4401C40.1703 81.4189 49.459 73.413 54.4514 71.0377C58.1431 65.6608 70.1305 62.2651 75.6627 61.2394C76.1808 58.9073 76.4476 58.7344 79.8479 59.2202C84.0014 58.6534 83.3538 60.2407 84.0014 61.2394C93.0688 62.6646 101.812 68.7433 105.051 71.6045C117.421 77.8883 117.33 89.4465 115.737 94.4401Z" fill="#FEE200" stroke="#353D4D" stroke-width="3"/>
<path d="M115.138 94.5307C87.6894 102.903 55.9899 98.0192 43.5712 94.5307C40.8328 83.8121 49.9663 77.2218 54.8754 75.2665C58.5055 70.8404 70.2926 68.0452 75.7325 67.2009C76.2419 65.2811 76.5043 65.1388 79.8478 65.5387C83.932 65.0721 83.2951 66.3787 83.932 67.2009C92.848 68.374 101.446 73.3779 104.63 75.7331C116.794 80.9058 116.704 90.4201 115.138 94.5307Z" fill="#FEC900"/>
<path d="M75.3188 62.0654V99.6234M84.6424 62.5545V100.112" stroke="#353D4D" stroke-width="3"/>
<path d="M70.3877 64.209C69.9964 64.2718 67.1042 65.0294 66.5562 65.5775V90.7896C67.1268 91.4703 68.6921 92.4233 70.3877 90.7896V64.209Z" fill="#FFA616"/>
<path d="M89.6038 64.3662C89.9923 64.4306 92.3136 65.0307 93.4097 66.127L93.4079 90.2695C92.8414 90.9666 91.2874 91.9426 89.6038 90.2695V64.3662Z" fill="#FFA616"/>
<ellipse cx="5.18176" cy="3.56273" rx="5.18176" ry="3.56273" transform="matrix(0.815123 -0.579288 0.579114 0.815246 51.6982 82.333)" fill="#FFE200"/>
<ellipse cx="2.12889" cy="1.46384" rx="2.12889" ry="1.46384" transform="matrix(-0.917935 -0.396731 0.39658 -0.918 53.0161 89.7754)" fill="#FEE200"/>
<path d="M115.928 97.3385C81.5374 108.209 53.3564 101.622 42.9542 97.0928C42.7085 97.3386 42.9542 98.5674 43.2433 99.3282C43.5843 100.226 77.4636 110.894 115.437 99.3046C115.683 98.8131 116.174 97.8301 115.928 97.3385Z" fill="#FFA519"/>
<path d="M111.652 107.792C111.652 113.92 113.551 127.431 115.894 127.431C120.8 127.431 123.054 121.687 123.054 115.559C123.054 109.431 121.155 104.463 118.811 104.463C112.425 104.463 111.652 101.664 111.652 107.792Z" fill="#4A4E62"/>
<path d="M122.922 146.263C122.922 150.291 119.091 153.424 114.038 153.424C108.986 153.424 102.636 150.291 102.636 146.263C102.636 142.234 107.542 137.643 112.845 137.775C117.898 137.775 122.922 142.234 122.922 146.263Z" fill="#444B5B"/>
<path d="M41.9524 107.145C40.3282 107.631 38.578 108.963 38.3607 112.281" stroke="#686C81" stroke-width="5" stroke-linecap="round"/>
<path d="M116.69 107.106C118.314 107.592 120.065 108.924 120.282 112.242" stroke="#686C81" stroke-width="5" stroke-linecap="round"/>
<ellipse cx="43.8991" cy="142.55" rx="2.78435" ry="2.12189" fill="#686C81"/>
<ellipse cx="2.78446" cy="2.12181" rx="2.78446" ry="2.12181" transform="matrix(0.913316 0.407251 -0.407098 0.913385 114.174 139.367)" fill="#686C81"/>
<ellipse cx="68.5604" cy="114.037" rx="3.84506" ry="3.84592" fill="#303140"/>
<ellipse cx="68.0307" cy="114.567" rx="1.45847" ry="1.4588" fill="white"/>
<ellipse cx="69.3558" cy="112.445" rx="0.662941" ry="0.66309" fill="white"/>
<ellipse cx="90.5702" cy="114.037" rx="3.84506" ry="3.84592" fill="#303140"/>
<path d="M73.2012 124.248C75.1458 126.989 80.3609 130.083 85.9296 124.248" stroke="#303140" stroke-width="2" stroke-linecap="round"/>
<ellipse cx="90.5698" cy="114.567" rx="1.45847" ry="1.4588" fill="white"/>
<ellipse cx="91.8959" cy="112.445" rx="0.662941" ry="0.66309" fill="white"/>
<path d="M116.802 179.033C117.298 180.836 120.751 181.459 124.516 180.425C128.281 179.39 130.932 177.09 130.437 175.287C129.942 173.484 126.168 172.844 122.403 173.878C118.638 174.913 116.307 177.23 116.802 179.033Z" fill="#90E2EB"/>
<path d="M31.1235 177.031C31.58 177.617 33.2589 178.786 36.3224 178.774" stroke="#D7FBFB" stroke-width="2" stroke-linecap="round"/>
<path d="M121.463 177.818C122.191 177.965 124.226 177.757 126.542 175.75" stroke="#D7FBFB" stroke-width="2" stroke-linecap="round"/>
<ellipse cx="67.8976" cy="148.915" rx="0.795529" ry="0.795708" fill="#9BE3E8"/>
<ellipse cx="66.3063" cy="177.827" rx="0.795529" ry="0.795708" fill="#9BE3E8"/>
<ellipse cx="90.9684" cy="148.915" rx="0.795529" ry="0.795708" fill="#9BE3E8"/>
<ellipse cx="92.8243" cy="177.561" rx="0.795529" ry="0.795708" fill="#9BE3E8"/>
<path d="M116.428 160.412C116.794 159.498 118.072 158.768 120.265 159.316M117.524 163.701C118.072 162.788 119.168 161.18 121.361 162.057M118.072 166.99C118.62 166.077 119.826 164.578 122.457 165.894M118.62 169.731C119.351 169 121.361 167.867 123.553 169.183" stroke="#444B5B" stroke-width="0.5" stroke-linecap="round"/>
<path d="M56.2288 158.768C55.4981 160.412 54.1462 165.017 54.5846 170.279" stroke="#D7FBFB" stroke-width="2" stroke-linecap="round"/>
<path d="M38.0566 158.768C38.7873 158.768 40.0295 159.096 41.3449 160.412M36.9605 161.508C37.8739 161.326 39.9199 161.399 40.7968 163.153M35.8644 164.797C36.7778 164.615 38.3854 164.688 39.7007 166.442M34.7683 168.635C35.8644 168.269 38.2758 167.977 39.1527 169.731M34.2202 171.924C35.3163 171.376 37.7277 171.156 38.6046 172.472" stroke="#444B5B" stroke-width="0.5" stroke-linecap="round"/>
<path d="M79.7085 203.718C80.6828 203.718 82.1443 203.901 84.0929 204.814" stroke="#D8FFFD" stroke-width="0.75" stroke-linecap="round"/>
<path d="M75.3246 204.814C72.9215 205.545 68.2505 208.761 68.7912 215.778" stroke="#D8FFFD" stroke-width="0.75" stroke-linecap="round"/>
<path d="M76.6502 204.145C77.0415 204.046 77.9133 203.861 78.2699 203.908" stroke="#D8FFFD" stroke-width="0.75" stroke-linecap="round"/>
<ellipse cx="79.1612" cy="214.134" rx="1.64415" ry="1.64452" fill="#7BD5E0"/>
<path d="M302 308.542L321.442 282L340.398 308.542H328.976V343.138H321.442H313.422V308.542H302Z" fill="#5D71A7"/>
<defs>
<filter id="filter0_d_628_438" x="352" y="0" width="196.857" height="66.7861" filterUnits="userSpaceOnUse" color-interpolation-filters="sRGB">
<feFlood flood-opacity="0" result="BackgroundImageFix"/>
<feColorMatrix in="SourceAlpha" type="matrix" values="0 0 0 0 0 0 0 0 0 0 0 0 0 0 0 0 0 0 127 0" result="hardAlpha"/>
<feOffset dy="4"/>
<feGaussianBlur stdDeviation="2"/>
<feComposite in2="hardAlpha" operator="out"/>
<feColorMatrix type="matrix" values="0 0 0 0 0 0 0 0 0 0 0 0 0 0 0 0 0 0 0.25 0"/>
<feBlend mode="normal" in2="BackgroundImageFix" result="effect1_dropShadow_628_438"/>
<feBlend mode="normal" in="SourceGraphic" in2="effect1_dropShadow_628_438" result="shape"/>
</filter>
</defs>
</svg>
