<svg width="1141" height="1071" viewBox="0 0 1141 1071" fill="none" xmlns="http://www.w3.org/2000/svg">
<rect width="1141" height="77" rx="5" fill="#FEC900"/>
<path d="M36.4586 43.652C36.4586 42.716 36.7186 41.9013 37.2386 41.208C37.7586 40.5147 38.4346 39.986 39.2666 39.622C39.9253 39.3273 40.6966 39.0327 41.5806 38.738C42.4646 38.4433 43.1493 38.1313 43.6346 37.802C44.1199 37.4727 44.3626 37.0827 44.3626 36.632V34.474C44.3626 33.9367 44.1459 33.5813 43.7126 33.408C43.2446 33.2173 42.5166 33.122 41.5286 33.122C40.3326 33.122 38.7553 33.3387 36.7966 33.772V30.912C38.5299 30.548 40.3413 30.366 42.2306 30.366C44.2759 30.366 45.7926 30.678 46.7806 31.302C47.7859 31.926 48.2886 32.966 48.2886 34.422V36.762C48.2886 37.646 48.0199 38.4173 47.4826 39.076C46.9626 39.7173 46.2866 40.2027 45.4546 40.532C44.6746 40.8613 43.8773 41.156 43.0626 41.416C42.1786 41.728 41.4766 42.0747 40.9566 42.456C40.4539 42.8373 40.2026 43.288 40.2026 43.808V44.666H48.3146V47.5H36.4586V43.652ZM51.3326 43.912H55.3886V47.5H51.3326V43.912ZM104.387 47.76C99.5158 47.76 97.0805 46.1307 97.0805 42.872V30.626H101.137V42.872C101.137 43.6347 101.379 44.1633 101.865 44.458C102.367 44.7353 103.225 44.874 104.439 44.874C105.635 44.874 106.467 44.7353 106.935 44.458C107.42 44.1633 107.663 43.6347 107.663 42.872V30.626H111.719V42.872C111.719 46.1307 109.275 47.76 104.387 47.76ZM119.862 47.76C118.51 47.76 116.855 47.63 114.896 47.37V44.848C117.306 45.212 118.978 45.394 119.914 45.394C120.712 45.394 121.301 45.316 121.682 45.16C122.064 45.004 122.254 44.718 122.254 44.302V43.522C122.254 43.0887 122.133 42.7853 121.89 42.612C121.648 42.4213 121.171 42.326 120.46 42.326H118.822C117.488 42.326 116.456 42.066 115.728 41.546C115 41.0087 114.636 40.2287 114.636 39.206V37.672C114.636 36.58 115.156 35.8087 116.196 35.358C117.236 34.89 118.805 34.656 120.902 34.656C121.734 34.656 123.225 34.734 125.374 34.89V37.308C122.67 37.1 121.145 36.996 120.798 36.996C119.776 36.996 119.108 37.0653 118.796 37.204C118.519 37.36 118.38 37.646 118.38 38.062V38.738C118.38 38.9633 118.493 39.1627 118.718 39.336C118.944 39.492 119.273 39.57 119.706 39.57H121.37C124.456 39.57 125.998 40.5753 125.998 42.586V44.172C125.998 44.7787 125.886 45.3073 125.66 45.758C125.435 46.2087 125.14 46.564 124.776 46.824C124.43 47.0667 123.979 47.2573 123.424 47.396C122.887 47.5347 122.324 47.63 121.734 47.682C121.197 47.734 120.573 47.76 119.862 47.76ZM135.134 47.76C130.68 47.76 128.452 46.3993 128.452 43.678V39.154C128.452 37.5767 128.955 36.4327 129.96 35.722C130.983 35.0113 132.552 34.656 134.666 34.656C136.66 34.656 138.116 35.0027 139.034 35.696C139.97 36.372 140.438 37.5247 140.438 39.154V42.222H132.274V43.366C132.274 44.094 132.534 44.614 133.054 44.926C133.574 45.238 134.51 45.394 135.862 45.394C137.11 45.394 138.514 45.212 140.074 44.848V47.266C138.532 47.5953 136.885 47.76 135.134 47.76ZM136.824 40.064V38.244C136.824 37.828 136.651 37.516 136.304 37.308C135.975 37.1 135.412 36.996 134.614 36.996C133.696 36.996 133.08 37.1 132.768 37.308C132.439 37.5333 132.274 37.8453 132.274 38.244V40.064H136.824ZM148.176 47.76C146.685 47.76 145.584 47.656 144.874 47.448C144.163 47.2227 143.669 46.8067 143.392 46.2C143.114 45.5933 142.976 44.6487 142.976 43.366V38.452C142.976 37.0653 143.366 36.086 144.146 35.514C144.943 34.942 146.226 34.656 147.994 34.656C148.826 34.656 149.476 34.708 149.944 34.812C150.429 34.8987 150.819 35.0633 151.114 35.306C151.408 35.5313 151.712 35.8693 152.024 36.32V29.3H155.82V47.5H152.154V46.07C151.842 46.5727 151.556 46.928 151.296 47.136C151.053 47.3267 150.706 47.474 150.256 47.578C149.788 47.6993 149.094 47.76 148.176 47.76ZM149.138 45.394C149.987 45.394 150.611 45.3507 151.01 45.264C151.408 45.1773 151.677 45.0213 151.816 44.796C151.954 44.5533 152.024 44.198 152.024 43.73V38.66C152.024 38.2267 151.946 37.8973 151.79 37.672C151.651 37.4293 151.391 37.256 151.01 37.152C150.646 37.048 150.091 36.996 149.346 36.996C148.548 36.996 147.976 37.048 147.63 37.152C147.283 37.2387 147.049 37.4033 146.928 37.646C146.824 37.8713 146.772 38.2527 146.772 38.79V43.6C146.772 44.0853 146.824 44.458 146.928 44.718C147.049 44.9607 147.274 45.134 147.604 45.238C147.933 45.342 148.444 45.394 149.138 45.394ZM171.442 47.76C170.801 47.76 170.264 47.734 169.83 47.682C169.397 47.63 168.964 47.526 168.53 47.37C168.045 47.214 167.646 46.9973 167.334 46.72C167.04 46.4427 166.797 46.0613 166.606 45.576C166.398 45.0733 166.294 44.4927 166.294 43.834V37.256H163.746V34.916H166.294V31.276H170.09V34.916H173.548V37.256H170.09V43.184C170.09 43.7907 170.142 44.25 170.246 44.562C170.35 44.8567 170.55 45.0733 170.844 45.212C171.139 45.3333 171.59 45.394 172.196 45.394C172.439 45.394 172.89 45.3507 173.548 45.264V47.63C172.734 47.7167 172.032 47.76 171.442 47.76ZM181.77 47.76C180.99 47.76 180.349 47.734 179.846 47.682C179.344 47.63 178.806 47.526 178.234 47.37C177.61 47.1967 177.108 46.954 176.726 46.642C176.345 46.3127 176.024 45.8533 175.764 45.264C175.504 44.692 175.374 43.9987 175.374 43.184V39.466C175.374 38.634 175.504 37.906 175.764 37.282C176.024 36.658 176.362 36.1727 176.778 35.826C177.142 35.5313 177.619 35.2887 178.208 35.098C178.815 34.89 179.404 34.76 179.976 34.708C180.635 34.6733 181.233 34.656 181.77 34.656C182.568 34.656 183.2 34.682 183.668 34.734C184.154 34.7687 184.682 34.8727 185.254 35.046C185.878 35.2367 186.381 35.4967 186.762 35.826C187.161 36.1553 187.499 36.6233 187.776 37.23C188.036 37.854 188.166 38.5993 188.166 39.466V43.184C188.166 43.964 188.036 44.6487 187.776 45.238C187.534 45.8273 187.213 46.2867 186.814 46.616C186.468 46.9107 185.991 47.1533 185.384 47.344C184.795 47.5173 184.214 47.63 183.642 47.682C183.122 47.734 182.498 47.76 181.77 47.76ZM181.77 45.394C182.481 45.394 183.018 45.342 183.382 45.238C183.746 45.1167 183.998 44.9347 184.136 44.692C184.292 44.4493 184.37 44.094 184.37 43.626V38.868C184.37 38.1747 184.188 37.6893 183.824 37.412C183.46 37.1347 182.776 36.996 181.77 36.996C180.765 36.996 180.08 37.1347 179.716 37.412C179.352 37.6893 179.17 38.1747 179.17 38.868V43.626C179.17 44.094 179.24 44.4493 179.378 44.692C179.534 44.9347 179.794 45.1167 180.158 45.238C180.522 45.342 181.06 45.394 181.77 45.394ZM197.221 30.366H201.017V33.434H197.221V30.366ZM197.221 34.916H201.017V47.5H197.221V34.916ZM204.455 34.916H208.251V36.45C208.494 35.254 209.733 34.656 211.969 34.656C213.148 34.656 214.04 34.812 214.647 35.124C215.254 35.4187 215.661 35.8867 215.869 36.528C216.077 35.8693 216.476 35.3927 217.065 35.098C217.672 34.8033 218.582 34.656 219.795 34.656C220.887 34.656 221.728 34.786 222.317 35.046C222.906 35.2887 223.314 35.67 223.539 36.19C223.782 36.71 223.903 37.4033 223.903 38.27V47.5H220.107V38.79C220.107 38.2353 220.072 37.8453 220.003 37.62C219.934 37.3773 219.778 37.2127 219.535 37.126C219.31 37.0393 218.911 36.996 218.339 36.996C217.628 36.996 217.117 37.0393 216.805 37.126C216.51 37.2127 216.311 37.3773 216.207 37.62C216.12 37.8453 216.077 38.2353 216.077 38.79V47.5H212.281V38.79C212.281 38.2353 212.246 37.8453 212.177 37.62C212.108 37.3773 211.952 37.2127 211.709 37.126C211.484 37.0393 211.085 36.996 210.513 36.996C209.802 36.996 209.291 37.0393 208.979 37.126C208.684 37.2127 208.485 37.3773 208.381 37.62C208.294 37.8453 208.251 38.2353 208.251 38.79V47.5H204.455V34.916ZM227.23 34.916H230.818V36.164C231.044 35.6093 231.486 35.2193 232.144 34.994C232.803 34.7687 233.782 34.656 235.082 34.656C236.174 34.656 237.05 34.7427 237.708 34.916C238.384 35.0893 238.896 35.3667 239.242 35.748C239.572 36.1293 239.797 36.554 239.918 37.022C240.04 37.4727 240.1 38.0967 240.1 38.894V43.028C240.1 44.276 239.918 45.238 239.554 45.914C239.19 46.59 238.627 47.0667 237.864 47.344C237.119 47.6213 236.096 47.76 234.796 47.76C233.548 47.76 232.647 47.656 232.092 47.448C231.538 47.24 231.182 46.8327 231.026 46.226V52.908H227.23V34.916ZM233.626 45.394C234.372 45.394 234.935 45.342 235.316 45.238C235.698 45.134 235.958 44.952 236.096 44.692C236.235 44.432 236.304 44.042 236.304 43.522V38.868C236.304 38.296 236.244 37.8887 236.122 37.646C236.001 37.386 235.758 37.2127 235.394 37.126C235.03 37.0393 234.432 36.996 233.6 36.996C232.89 36.996 232.344 37.0567 231.962 37.178C231.598 37.2993 231.347 37.49 231.208 37.75C231.087 38.01 231.026 38.3827 231.026 38.868V43.522C231.026 44.042 231.087 44.432 231.208 44.692C231.347 44.952 231.598 45.134 231.962 45.238C232.326 45.342 232.881 45.394 233.626 45.394ZM243.178 29.3H246.974V47.5H243.178V29.3ZM256.73 47.76C252.275 47.76 250.048 46.3993 250.048 43.678V39.154C250.048 37.5767 250.551 36.4327 251.556 35.722C252.579 35.0113 254.147 34.656 256.262 34.656C258.255 34.656 259.711 35.0027 260.63 35.696C261.566 36.372 262.034 37.5247 262.034 39.154V42.222H253.87V43.366C253.87 44.094 254.13 44.614 254.65 44.926C255.17 45.238 256.106 45.394 257.458 45.394C258.706 45.394 260.11 45.212 261.67 44.848V47.266C260.127 47.5953 258.481 47.76 256.73 47.76ZM258.42 40.064V38.244C258.42 37.828 258.247 37.516 257.9 37.308C257.571 37.1 257.007 36.996 256.21 36.996C255.291 36.996 254.676 37.1 254.364 37.308C254.035 37.5333 253.87 37.8453 253.87 38.244V40.064H258.42ZM264.935 34.916H268.731V36.45C268.974 35.254 270.213 34.656 272.449 34.656C273.628 34.656 274.521 34.812 275.127 35.124C275.734 35.4187 276.141 35.8867 276.349 36.528C276.557 35.8693 276.956 35.3927 277.545 35.098C278.152 34.8033 279.062 34.656 280.275 34.656C281.367 34.656 282.208 34.786 282.797 35.046C283.387 35.2887 283.794 35.67 284.019 36.19C284.262 36.71 284.383 37.4033 284.383 38.27V47.5H280.587V38.79C280.587 38.2353 280.553 37.8453 280.483 37.62C280.414 37.3773 280.258 37.2127 280.015 37.126C279.79 37.0393 279.391 36.996 278.819 36.996C278.109 36.996 277.597 37.0393 277.285 37.126C276.991 37.2127 276.791 37.3773 276.687 37.62C276.601 37.8453 276.557 38.2353 276.557 38.79V47.5H272.761V38.79C272.761 38.2353 272.727 37.8453 272.657 37.62C272.588 37.3773 272.432 37.2127 272.189 37.126C271.964 37.0393 271.565 36.996 270.993 36.996C270.283 36.996 269.771 37.0393 269.459 37.126C269.165 37.2127 268.965 37.3773 268.861 37.62C268.775 37.8453 268.731 38.2353 268.731 38.79V47.5H264.935V34.916ZM294.029 47.76C289.574 47.76 287.347 46.3993 287.347 43.678V39.154C287.347 37.5767 287.85 36.4327 288.855 35.722C289.878 35.0113 291.446 34.656 293.561 34.656C295.554 34.656 297.01 35.0027 297.929 35.696C298.865 36.372 299.333 37.5247 299.333 39.154V42.222H291.169V43.366C291.169 44.094 291.429 44.614 291.949 44.926C292.469 45.238 293.405 45.394 294.757 45.394C296.005 45.394 297.409 45.212 298.969 44.848V47.266C297.426 47.5953 295.78 47.76 294.029 47.76ZM295.719 40.064V38.244C295.719 37.828 295.546 37.516 295.199 37.308C294.87 37.1 294.306 36.996 293.509 36.996C292.59 36.996 291.975 37.1 291.663 37.308C291.334 37.5333 291.169 37.8453 291.169 38.244V40.064H295.719ZM302.234 34.916H305.978V36.45C306.273 35.254 307.616 34.656 310.008 34.656C311.62 34.656 312.747 34.9507 313.388 35.54C314.047 36.112 314.376 37.022 314.376 38.27V47.5H310.58V38.764C310.58 38.2787 310.528 37.9147 310.424 37.672C310.338 37.4293 310.147 37.256 309.852 37.152C309.575 37.048 309.142 36.996 308.552 36.996C307.807 36.996 307.261 37.048 306.914 37.152C306.568 37.2387 306.334 37.4033 306.212 37.646C306.091 37.8887 306.03 38.2613 306.03 38.764V47.5H302.234V34.916ZM323.989 47.76C323.348 47.76 322.811 47.734 322.377 47.682C321.944 47.63 321.511 47.526 321.077 47.37C320.592 47.214 320.193 46.9973 319.881 46.72C319.587 46.4427 319.344 46.0613 319.153 45.576C318.945 45.0733 318.841 44.4927 318.841 43.834V37.256H316.293V34.916H318.841V31.276H322.637V34.916H326.095V37.256H322.637V43.184C322.637 43.7907 322.689 44.25 322.793 44.562C322.897 44.8567 323.097 45.0733 323.391 45.212C323.686 45.3333 324.137 45.394 324.743 45.394C324.986 45.394 325.437 45.3507 326.095 45.264V47.63C325.281 47.7167 324.579 47.76 323.989 47.76ZM340.413 47.76C339.755 47.76 339.235 47.7427 338.853 47.708C338.472 47.6907 338.004 47.6473 337.449 47.578C336.895 47.5087 336.435 47.3873 336.071 47.214C335.725 47.0407 335.361 46.7807 334.979 46.434C334.269 45.8447 333.913 44.8393 333.913 43.418V39.232C333.913 38.088 334.173 37.1347 334.693 36.372C334.884 36.0947 335.161 35.8433 335.525 35.618C335.907 35.3753 336.288 35.1847 336.669 35.046C336.981 34.942 337.397 34.8553 337.917 34.786C338.437 34.7167 338.897 34.6733 339.295 34.656H340.673C341.644 34.656 342.918 34.812 344.495 35.124V37.62C342.71 37.204 341.341 36.996 340.387 36.996C338.637 36.996 337.761 37.5853 337.761 38.764V43.392C337.761 44.7267 338.723 45.394 340.647 45.394C341.583 45.394 342.927 45.2033 344.677 44.822V47.318C343.1 47.6127 341.679 47.76 340.413 47.76ZM352.852 47.76C352.072 47.76 351.431 47.734 350.928 47.682C350.426 47.63 349.888 47.526 349.316 47.37C348.692 47.1967 348.19 46.954 347.808 46.642C347.427 46.3127 347.106 45.8533 346.846 45.264C346.586 44.692 346.456 43.9987 346.456 43.184V39.466C346.456 38.634 346.586 37.906 346.846 37.282C347.106 36.658 347.444 36.1727 347.86 35.826C348.224 35.5313 348.701 35.2887 349.29 35.098C349.897 34.89 350.486 34.76 351.058 34.708C351.717 34.6733 352.315 34.656 352.852 34.656C353.65 34.656 354.282 34.682 354.75 34.734C355.236 34.7687 355.764 34.8727 356.336 35.046C356.96 35.2367 357.463 35.4967 357.844 35.826C358.243 36.1553 358.581 36.6233 358.858 37.23C359.118 37.854 359.248 38.5993 359.248 39.466V43.184C359.248 43.964 359.118 44.6487 358.858 45.238C358.616 45.8273 358.295 46.2867 357.896 46.616C357.55 46.9107 357.073 47.1533 356.466 47.344C355.877 47.5173 355.296 47.63 354.724 47.682C354.204 47.734 353.58 47.76 352.852 47.76ZM352.852 45.394C353.563 45.394 354.1 45.342 354.464 45.238C354.828 45.1167 355.08 44.9347 355.218 44.692C355.374 44.4493 355.452 44.094 355.452 43.626V38.868C355.452 38.1747 355.27 37.6893 354.906 37.412C354.542 37.1347 353.858 36.996 352.852 36.996C351.847 36.996 351.162 37.1347 350.798 37.412C350.434 37.6893 350.252 38.1747 350.252 38.868V43.626C350.252 44.094 350.322 44.4493 350.46 44.692C350.616 44.9347 350.876 45.1167 351.24 45.238C351.604 45.342 352.142 45.394 352.852 45.394ZM362.207 34.916H365.951V36.45C366.246 35.254 367.589 34.656 369.981 34.656C371.593 34.656 372.72 34.9507 373.361 35.54C374.02 36.112 374.349 37.022 374.349 38.27V47.5H370.553V38.764C370.553 38.2787 370.501 37.9147 370.397 37.672C370.31 37.4293 370.12 37.256 369.825 37.152C369.548 37.048 369.114 36.996 368.525 36.996C367.78 36.996 367.234 37.048 366.887 37.152C366.54 37.2387 366.306 37.4033 366.185 37.646C366.064 37.8887 366.003 38.2613 366.003 38.764V47.5H362.207V34.916ZM377.67 34.916H381.414V36.45C381.709 35.254 383.052 34.656 385.444 34.656C387.056 34.656 388.183 34.9507 388.824 35.54C389.483 36.112 389.812 37.022 389.812 38.27V47.5H386.016V38.764C386.016 38.2787 385.964 37.9147 385.86 37.672C385.773 37.4293 385.583 37.256 385.288 37.152C385.011 37.048 384.577 36.996 383.988 36.996C383.243 36.996 382.697 37.048 382.35 37.152C382.003 37.2387 381.769 37.4033 381.648 37.646C381.527 37.8887 381.466 38.2613 381.466 38.764V47.5H377.67V34.916ZM399.451 47.76C394.996 47.76 392.769 46.3993 392.769 43.678V39.154C392.769 37.5767 393.271 36.4327 394.277 35.722C395.299 35.0113 396.868 34.656 398.983 34.656C400.976 34.656 402.432 35.0027 403.351 35.696C404.287 36.372 404.755 37.5247 404.755 39.154V42.222H396.591V43.366C396.591 44.094 396.851 44.614 397.371 44.926C397.891 45.238 398.827 45.394 400.179 45.394C401.427 45.394 402.831 45.212 404.391 44.848V47.266C402.848 47.5953 401.201 47.76 399.451 47.76ZM401.141 40.064V38.244C401.141 37.828 400.967 37.516 400.621 37.308C400.291 37.1 399.728 36.996 398.931 36.996C398.012 36.996 397.397 37.1 397.085 37.308C396.755 37.5333 396.591 37.8453 396.591 38.244V40.064H401.141ZM413.792 47.76C413.134 47.76 412.614 47.7427 412.232 47.708C411.851 47.6907 411.383 47.6473 410.828 47.578C410.274 47.5087 409.814 47.3873 409.45 47.214C409.104 47.0407 408.74 46.7807 408.358 46.434C407.648 45.8447 407.292 44.8393 407.292 43.418V39.232C407.292 38.088 407.552 37.1347 408.072 36.372C408.263 36.0947 408.54 35.8433 408.904 35.618C409.286 35.3753 409.667 35.1847 410.048 35.046C410.36 34.942 410.776 34.8553 411.296 34.786C411.816 34.7167 412.276 34.6733 412.674 34.656H414.052C415.023 34.656 416.297 34.812 417.874 35.124V37.62C416.089 37.204 414.72 36.996 413.766 36.996C412.016 36.996 411.14 37.5853 411.14 38.764V43.392C411.14 44.7267 412.102 45.394 414.026 45.394C414.962 45.394 416.306 45.2033 418.056 44.822V47.318C416.479 47.6127 415.058 47.76 413.792 47.76ZM426.491 47.76C425.85 47.76 425.312 47.734 424.879 47.682C424.446 47.63 424.012 47.526 423.579 47.37C423.094 47.214 422.695 46.9973 422.383 46.72C422.088 46.4427 421.846 46.0613 421.655 45.576C421.447 45.0733 421.343 44.4927 421.343 43.834V37.256H418.795V34.916H421.343V31.276H425.139V34.916H428.597V37.256H425.139V43.184C425.139 43.7907 425.191 44.25 425.295 44.562C425.399 44.8567 425.598 45.0733 425.893 45.212C426.188 45.3333 426.638 45.394 427.245 45.394C427.488 45.394 427.938 45.3507 428.597 45.264V47.63C427.782 47.7167 427.08 47.76 426.491 47.76ZM430.891 30.366H434.687V33.434H430.891V30.366ZM430.891 34.916H434.687V47.5H430.891V34.916ZM444.157 47.76C443.377 47.76 442.736 47.734 442.233 47.682C441.73 47.63 441.193 47.526 440.621 47.37C439.997 47.1967 439.494 46.954 439.113 46.642C438.732 46.3127 438.411 45.8533 438.151 45.264C437.891 44.692 437.761 43.9987 437.761 43.184V39.466C437.761 38.634 437.891 37.906 438.151 37.282C438.411 36.658 438.749 36.1727 439.165 35.826C439.529 35.5313 440.006 35.2887 440.595 35.098C441.202 34.89 441.791 34.76 442.363 34.708C443.022 34.6733 443.62 34.656 444.157 34.656C444.954 34.656 445.587 34.682 446.055 34.734C446.54 34.7687 447.069 34.8727 447.641 35.046C448.265 35.2367 448.768 35.4967 449.149 35.826C449.548 36.1553 449.886 36.6233 450.163 37.23C450.423 37.854 450.553 38.5993 450.553 39.466V43.184C450.553 43.964 450.423 44.6487 450.163 45.238C449.92 45.8273 449.6 46.2867 449.201 46.616C448.854 46.9107 448.378 47.1533 447.771 47.344C447.182 47.5173 446.601 47.63 446.029 47.682C445.509 47.734 444.885 47.76 444.157 47.76ZM444.157 45.394C444.868 45.394 445.405 45.342 445.769 45.238C446.133 45.1167 446.384 44.9347 446.523 44.692C446.679 44.4493 446.757 44.094 446.757 43.626V38.868C446.757 38.1747 446.575 37.6893 446.211 37.412C445.847 37.1347 445.162 36.996 444.157 36.996C443.152 36.996 442.467 37.1347 442.103 37.412C441.739 37.6893 441.557 38.1747 441.557 38.868V43.626C441.557 44.094 441.626 44.4493 441.765 44.692C441.921 44.9347 442.181 45.1167 442.545 45.238C442.909 45.342 443.446 45.394 444.157 45.394ZM453.512 34.916H457.256V36.45C457.55 35.254 458.894 34.656 461.286 34.656C462.898 34.656 464.024 34.9507 464.666 35.54C465.324 36.112 465.654 37.022 465.654 38.27V47.5H461.858V38.764C461.858 38.2787 461.806 37.9147 461.702 37.672C461.615 37.4293 461.424 37.256 461.13 37.152C460.852 37.048 460.419 36.996 459.83 36.996C459.084 36.996 458.538 37.048 458.192 37.152C457.845 37.2387 457.611 37.4033 457.49 37.646C457.368 37.8887 457.308 38.2613 457.308 38.764V47.5H453.512V34.916ZM473.681 47.76C472.329 47.76 470.673 47.63 468.715 47.37V44.848C471.124 45.212 472.797 45.394 473.733 45.394C474.53 45.394 475.119 45.316 475.501 45.16C475.882 45.004 476.073 44.718 476.073 44.302V43.522C476.073 43.0887 475.951 42.7853 475.709 42.612C475.466 42.4213 474.989 42.326 474.279 42.326H472.641C471.306 42.326 470.275 42.066 469.547 41.546C468.819 41.0087 468.455 40.2287 468.455 39.206V37.672C468.455 36.58 468.975 35.8087 470.015 35.358C471.055 34.89 472.623 34.656 474.721 34.656C475.553 34.656 477.043 34.734 479.193 34.89V37.308C476.489 37.1 474.963 36.996 474.617 36.996C473.594 36.996 472.927 37.0653 472.615 37.204C472.337 37.36 472.199 37.646 472.199 38.062V38.738C472.199 38.9633 472.311 39.1627 472.537 39.336C472.762 39.492 473.091 39.57 473.525 39.57H475.189C478.274 39.57 479.817 40.5753 479.817 42.586V44.172C479.817 44.7787 479.704 45.3073 479.479 45.758C479.253 46.2087 478.959 46.564 478.595 46.824C478.248 47.0667 477.797 47.2573 477.243 47.396C476.705 47.5347 476.142 47.63 475.553 47.682C475.015 47.734 474.391 47.76 473.681 47.76ZM488.731 30.366H492.527V33.434H488.731V30.366ZM488.731 34.916H492.527V47.5H488.731V34.916ZM495.965 34.916H499.709V36.45C500.003 35.254 501.347 34.656 503.739 34.656C505.351 34.656 506.477 34.9507 507.119 35.54C507.777 36.112 508.107 37.022 508.107 38.27V47.5H504.311V38.764C504.311 38.2787 504.259 37.9147 504.155 37.672C504.068 37.4293 503.877 37.256 503.583 37.152C503.305 37.048 502.872 36.996 502.283 36.996C501.537 36.996 500.991 37.048 500.645 37.152C500.298 37.2387 500.064 37.4033 499.943 37.646C499.821 37.8887 499.761 38.2613 499.761 38.764V47.5H495.965V34.916ZM522.256 47.76C520.765 47.76 519.665 47.656 518.954 47.448C518.243 47.2227 517.749 46.8067 517.472 46.2C517.195 45.5933 517.056 44.6487 517.056 43.366V38.452C517.056 37.0653 517.446 36.086 518.226 35.514C519.023 34.942 520.306 34.656 522.074 34.656C522.906 34.656 523.556 34.708 524.024 34.812C524.509 34.8987 524.899 35.0633 525.194 35.306C525.489 35.5313 525.792 35.8693 526.104 36.32V29.3H529.9V47.5H526.234V46.07C525.922 46.5727 525.636 46.928 525.376 47.136C525.133 47.3267 524.787 47.474 524.336 47.578C523.868 47.6993 523.175 47.76 522.256 47.76ZM523.218 45.394C524.067 45.394 524.691 45.3507 525.09 45.264C525.489 45.1773 525.757 45.0213 525.896 44.796C526.035 44.5533 526.104 44.198 526.104 43.73V38.66C526.104 38.2267 526.026 37.8973 525.87 37.672C525.731 37.4293 525.471 37.256 525.09 37.152C524.726 37.048 524.171 36.996 523.426 36.996C522.629 36.996 522.057 37.048 521.71 37.152C521.363 37.2387 521.129 37.4033 521.008 37.646C520.904 37.8713 520.852 38.2527 520.852 38.79V43.6C520.852 44.0853 520.904 44.458 521.008 44.718C521.129 44.9607 521.355 45.134 521.684 45.238C522.013 45.342 522.525 45.394 523.218 45.394ZM536.8 47.76C535.622 47.76 534.738 47.656 534.148 47.448C533.576 47.2227 533.169 46.8327 532.926 46.278C532.701 45.706 532.588 44.8567 532.588 43.73C532.588 42.7247 532.71 41.936 532.952 41.364C533.212 40.792 533.62 40.3847 534.174 40.142C534.746 39.882 535.526 39.752 536.514 39.752H540.778V38.894C540.778 38.3567 540.7 37.958 540.544 37.698C540.406 37.438 540.137 37.256 539.738 37.152C539.357 37.048 538.776 36.996 537.996 36.996C536.922 36.996 535.448 37.1 533.576 37.308V34.916C534.946 34.7427 536.549 34.656 538.386 34.656C539.998 34.656 541.238 34.7773 542.104 35.02C542.988 35.2627 543.621 35.6787 544.002 36.268C544.384 36.8573 544.574 37.7153 544.574 38.842V47.5H540.856V46.356C540.562 46.8587 540.163 47.214 539.66 47.422C539.158 47.6473 538.204 47.76 536.8 47.76ZM538.282 45.394C539.045 45.394 539.591 45.368 539.92 45.316C540.163 45.2813 540.328 45.2293 540.414 45.16C540.518 45.0907 540.605 44.978 540.674 44.822C540.744 44.7007 540.778 44.5187 540.778 44.276V41.832H538.178C537.589 41.832 537.173 41.8753 536.93 41.962C536.688 42.0313 536.523 42.1873 536.436 42.43C536.35 42.6553 536.306 43.0627 536.306 43.652C536.306 44.224 536.35 44.6227 536.436 44.848C536.523 45.0733 536.688 45.2207 536.93 45.29C537.19 45.3593 537.641 45.394 538.282 45.394ZM554.206 47.76C553.565 47.76 553.027 47.734 552.594 47.682C552.161 47.63 551.727 47.526 551.294 47.37C550.809 47.214 550.41 46.9973 550.098 46.72C549.803 46.4427 549.561 46.0613 549.37 45.576C549.162 45.0733 549.058 44.4927 549.058 43.834V37.256H546.51V34.916H549.058V31.276H552.854V34.916H556.312V37.256H552.854V43.184C552.854 43.7907 552.906 44.25 553.01 44.562C553.114 44.8567 553.313 45.0733 553.608 45.212C553.903 45.3333 554.353 45.394 554.96 45.394C555.203 45.394 555.653 45.3507 556.312 45.264V47.63C555.497 47.7167 554.795 47.76 554.206 47.76ZM562.064 47.76C560.885 47.76 560.001 47.656 559.412 47.448C558.84 47.2227 558.433 46.8327 558.19 46.278C557.965 45.706 557.852 44.8567 557.852 43.73C557.852 42.7247 557.973 41.936 558.216 41.364C558.476 40.792 558.883 40.3847 559.438 40.142C560.01 39.882 560.79 39.752 561.778 39.752H566.042V38.894C566.042 38.3567 565.964 37.958 565.808 37.698C565.669 37.438 565.401 37.256 565.002 37.152C564.621 37.048 564.04 36.996 563.26 36.996C562.185 36.996 560.712 37.1 558.84 37.308V34.916C560.209 34.7427 561.813 34.656 563.65 34.656C565.262 34.656 566.501 34.7773 567.368 35.02C568.252 35.2627 568.885 35.6787 569.266 36.268C569.647 36.8573 569.838 37.7153 569.838 38.842V47.5H566.12V46.356C565.825 46.8587 565.427 47.214 564.924 47.422C564.421 47.6473 563.468 47.76 562.064 47.76ZM563.546 45.394C564.309 45.394 564.855 45.368 565.184 45.316C565.427 45.2813 565.591 45.2293 565.678 45.16C565.782 45.0907 565.869 44.978 565.938 44.822C566.007 44.7007 566.042 44.5187 566.042 44.276V41.832H563.442C562.853 41.832 562.437 41.8753 562.194 41.962C561.951 42.0313 561.787 42.1873 561.7 42.43C561.613 42.6553 561.57 43.0627 561.57 43.652C561.57 44.224 561.613 44.6227 561.7 44.848C561.787 45.0733 561.951 45.2207 562.194 45.29C562.454 45.3593 562.905 45.394 563.546 45.394ZM583.876 47.76C582.524 47.76 580.869 47.63 578.91 47.37V44.848C581.319 45.212 582.992 45.394 583.928 45.394C584.725 45.394 585.315 45.316 585.696 45.16C586.077 45.004 586.268 44.718 586.268 44.302V43.522C586.268 43.0887 586.147 42.7853 585.904 42.612C585.661 42.4213 585.185 42.326 584.474 42.326H582.836C581.501 42.326 580.47 42.066 579.742 41.546C579.014 41.0087 578.65 40.2287 578.65 39.206V37.672C578.65 36.58 579.17 35.8087 580.21 35.358C581.25 34.89 582.819 34.656 584.916 34.656C585.748 34.656 587.239 34.734 589.388 34.89V37.308C586.684 37.1 585.159 36.996 584.812 36.996C583.789 36.996 583.122 37.0653 582.81 37.204C582.533 37.36 582.394 37.646 582.394 38.062V38.738C582.394 38.9633 582.507 39.1627 582.732 39.336C582.957 39.492 583.287 39.57 583.72 39.57H585.384C588.469 39.57 590.012 40.5753 590.012 42.586V44.172C590.012 44.7787 589.899 45.3073 589.674 45.758C589.449 46.2087 589.154 46.564 588.79 46.824C588.443 47.0667 587.993 47.2573 587.438 47.396C586.901 47.5347 586.337 47.63 585.748 47.682C585.211 47.734 584.587 47.76 583.876 47.76ZM599.122 47.76C598.481 47.76 597.943 47.734 597.51 47.682C597.077 47.63 596.643 47.526 596.21 47.37C595.725 47.214 595.326 46.9973 595.014 46.72C594.719 46.4427 594.477 46.0613 594.286 45.576C594.078 45.0733 593.974 44.4927 593.974 43.834V37.256H591.426V34.916H593.974V31.276H597.77V34.916H601.228V37.256H597.77V43.184C597.77 43.7907 597.822 44.25 597.926 44.562C598.03 44.8567 598.229 45.0733 598.524 45.212C598.819 45.3333 599.269 45.394 599.876 45.394C600.119 45.394 600.569 45.3507 601.228 45.264V47.63C600.413 47.7167 599.711 47.76 599.122 47.76ZM603.418 34.916H607.032V37.126C607.032 36.7273 607.197 36.3373 607.526 35.956C607.855 35.5747 608.271 35.2627 608.774 35.02C609.294 34.7773 609.805 34.656 610.308 34.656H611.66V37.802H610.36C609.285 37.802 608.488 37.9667 607.968 38.296C607.465 38.6253 607.214 39.1713 607.214 39.934V47.5H603.418V34.916ZM618.12 47.76C616.508 47.76 615.373 47.474 614.714 46.902C614.073 46.3127 613.752 45.394 613.752 44.146V34.916H617.548V43.626C617.548 44.1113 617.591 44.4753 617.678 44.718C617.782 44.9607 617.973 45.134 618.25 45.238C618.545 45.342 618.987 45.394 619.576 45.394C620.321 45.394 620.867 45.3507 621.214 45.264C621.561 45.16 621.795 44.9867 621.916 44.744C622.037 44.5013 622.098 44.1287 622.098 43.626V34.916H625.894V47.5H622.15V45.966C621.873 47.162 620.529 47.76 618.12 47.76ZM635.351 47.76C634.692 47.76 634.172 47.7427 633.791 47.708C633.409 47.6907 632.941 47.6473 632.387 47.578C631.832 47.5087 631.373 47.3873 631.009 47.214C630.662 47.0407 630.298 46.7807 629.917 46.434C629.206 45.8447 628.851 44.8393 628.851 43.418V39.232C628.851 38.088 629.111 37.1347 629.631 36.372C629.821 36.0947 630.099 35.8433 630.463 35.618C630.844 35.3753 631.225 35.1847 631.607 35.046C631.919 34.942 632.335 34.8553 632.855 34.786C633.375 34.7167 633.834 34.6733 634.233 34.656H635.611C636.581 34.656 637.855 34.812 639.433 35.124V37.62C637.647 37.204 636.278 36.996 635.325 36.996C633.574 36.996 632.699 37.5853 632.699 38.764V43.392C632.699 44.7267 633.661 45.394 635.585 45.394C636.521 45.394 637.864 45.2033 639.615 44.822V47.318C638.037 47.6127 636.616 47.76 635.351 47.76ZM648.05 47.76C647.408 47.76 646.871 47.734 646.438 47.682C646.004 47.63 645.571 47.526 645.138 47.37C644.652 47.214 644.254 46.9973 643.942 46.72C643.647 46.4427 643.404 46.0613 643.214 45.576C643.006 45.0733 642.902 44.4927 642.902 43.834V37.256H640.354V34.916H642.902V31.276H646.698V34.916H650.156V37.256H646.698V43.184C646.698 43.7907 646.75 44.25 646.854 44.562C646.958 44.8567 647.157 45.0733 647.452 45.212C647.746 45.3333 648.197 45.394 648.804 45.394C649.046 45.394 649.497 45.3507 650.156 45.264V47.63C649.341 47.7167 648.639 47.76 648.05 47.76ZM656.714 47.76C655.102 47.76 653.966 47.474 653.308 46.902C652.666 46.3127 652.346 45.394 652.346 44.146V34.916H656.142V43.626C656.142 44.1113 656.185 44.4753 656.272 44.718C656.376 44.9607 656.566 45.134 656.844 45.238C657.138 45.342 657.58 45.394 658.17 45.394C658.915 45.394 659.461 45.3507 659.808 45.264C660.154 45.16 660.388 44.9867 660.51 44.744C660.631 44.5013 660.692 44.1287 660.692 43.626V34.916H664.488V47.5H660.744V45.966C660.466 47.162 659.123 47.76 656.714 47.76ZM667.809 34.916H671.423V37.126C671.423 36.7273 671.587 36.3373 671.917 35.956C672.246 35.5747 672.662 35.2627 673.165 35.02C673.685 34.7773 674.196 34.656 674.699 34.656H676.051V37.802H674.751C673.676 37.802 672.879 37.9667 672.359 38.296C671.856 38.6253 671.605 39.1713 671.605 39.934V47.5H667.809V34.916ZM684.461 47.76C680.006 47.76 677.779 46.3993 677.779 43.678V39.154C677.779 37.5767 678.281 36.4327 679.287 35.722C680.309 35.0113 681.878 34.656 683.993 34.656C685.986 34.656 687.442 35.0027 688.361 35.696C689.297 36.372 689.765 37.5247 689.765 39.154V42.222H681.601V43.366C681.601 44.094 681.861 44.614 682.381 44.926C682.901 45.238 683.837 45.394 685.189 45.394C686.437 45.394 687.841 45.212 689.401 44.848V47.266C687.858 47.5953 686.211 47.76 684.461 47.76ZM686.151 40.064V38.244C686.151 37.828 685.977 37.516 685.631 37.308C685.301 37.1 684.738 36.996 683.941 36.996C683.022 36.996 682.407 37.1 682.095 37.308C681.765 37.5333 681.601 37.8453 681.601 38.244V40.064H686.151ZM697.372 47.76C696.02 47.76 694.365 47.63 692.406 47.37V44.848C694.815 45.212 696.488 45.394 697.424 45.394C698.221 45.394 698.811 45.316 699.192 45.16C699.573 45.004 699.764 44.718 699.764 44.302V43.522C699.764 43.0887 699.643 42.7853 699.4 42.612C699.157 42.4213 698.681 42.326 697.97 42.326H696.332C694.997 42.326 693.966 42.066 693.238 41.546C692.51 41.0087 692.146 40.2287 692.146 39.206V37.672C692.146 36.58 692.666 35.8087 693.706 35.358C694.746 34.89 696.315 34.656 698.412 34.656C699.244 34.656 700.735 34.734 702.884 34.89V37.308C700.18 37.1 698.655 36.996 698.308 36.996C697.285 36.996 696.618 37.0653 696.306 37.204C696.029 37.36 695.89 37.646 695.89 38.062V38.738C695.89 38.9633 696.003 39.1627 696.228 39.336C696.453 39.492 696.783 39.57 697.216 39.57H698.88C701.965 39.57 703.508 40.5753 703.508 42.586V44.172C703.508 44.7787 703.395 45.3073 703.17 45.758C702.945 46.2087 702.65 46.564 702.286 46.824C701.939 47.0667 701.489 47.2573 700.934 47.396C700.397 47.5347 699.833 47.63 699.244 47.682C698.707 47.734 698.083 47.76 697.372 47.76ZM712.422 29.3H716.218V47.5H712.422V29.3ZM719.76 30.366H723.556V33.434H719.76V30.366ZM719.76 34.916H723.556V47.5H719.76V34.916ZM726.994 29.3H730.79V47.5H726.994V29.3ZM730.946 40.428L735.08 34.916H739.422L735.054 40.402L739.786 47.5H735.496L730.946 40.428ZM747.353 47.76C742.898 47.76 740.671 46.3993 740.671 43.678V39.154C740.671 37.5767 741.174 36.4327 742.179 35.722C743.202 35.0113 744.77 34.656 746.885 34.656C748.878 34.656 750.334 35.0027 751.253 35.696C752.189 36.372 752.657 37.5247 752.657 39.154V42.222H744.493V43.366C744.493 44.094 744.753 44.614 745.273 44.926C745.793 45.238 746.729 45.394 748.081 45.394C749.329 45.394 750.733 45.212 752.293 44.848V47.266C750.75 47.5953 749.104 47.76 747.353 47.76ZM749.043 40.064V38.244C749.043 37.828 748.87 37.516 748.523 37.308C748.194 37.1 747.63 36.996 746.833 36.996C745.914 36.996 745.299 37.1 744.987 37.308C744.658 37.5333 744.493 37.8453 744.493 38.244V40.064H749.043ZM761.655 29.3H765.451V47.5H761.655V29.3ZM768.993 30.366H772.789V33.434H768.993V30.366ZM768.993 34.916H772.789V47.5H768.993V34.916ZM776.227 34.916H779.971V36.45C780.265 35.254 781.609 34.656 784.001 34.656C785.613 34.656 786.739 34.9507 787.381 35.54C788.039 36.112 788.369 37.022 788.369 38.27V47.5H784.573V38.764C784.573 38.2787 784.521 37.9147 784.417 37.672C784.33 37.4293 784.139 37.256 783.845 37.152C783.567 37.048 783.134 36.996 782.545 36.996C781.799 36.996 781.253 37.048 780.907 37.152C780.56 37.2387 780.326 37.4033 780.205 37.646C780.083 37.8887 780.023 38.2613 780.023 38.764V47.5H776.227V34.916ZM791.689 29.3H795.485V47.5H791.689V29.3ZM795.641 40.428L799.775 34.916H804.117L799.749 40.402L804.481 47.5H800.191L795.641 40.428ZM812.048 47.76C807.594 47.76 805.366 46.3993 805.366 43.678V39.154C805.366 37.5767 805.869 36.4327 806.874 35.722C807.897 35.0113 809.466 34.656 811.58 34.656C813.574 34.656 815.03 35.0027 815.948 35.696C816.884 36.372 817.352 37.5247 817.352 39.154V42.222H809.188V43.366C809.188 44.094 809.448 44.614 809.968 44.926C810.488 45.238 811.424 45.394 812.776 45.394C814.024 45.394 815.428 45.212 816.988 44.848V47.266C815.446 47.5953 813.799 47.76 812.048 47.76ZM813.738 40.064V38.244C813.738 37.828 813.565 37.516 813.218 37.308C812.889 37.1 812.326 36.996 811.528 36.996C810.61 36.996 809.994 37.1 809.682 37.308C809.353 37.5333 809.188 37.8453 809.188 38.244V40.064H813.738ZM825.09 47.76C823.599 47.76 822.499 47.656 821.788 47.448C821.077 47.2227 820.583 46.8067 820.306 46.2C820.029 45.5933 819.89 44.6487 819.89 43.366V38.452C819.89 37.0653 820.28 36.086 821.06 35.514C821.857 34.942 823.14 34.656 824.908 34.656C825.74 34.656 826.39 34.708 826.858 34.812C827.343 34.8987 827.733 35.0633 828.028 35.306C828.323 35.5313 828.626 35.8693 828.938 36.32V29.3H832.734V47.5H829.068V46.07C828.756 46.5727 828.47 46.928 828.21 47.136C827.967 47.3267 827.621 47.474 827.17 47.578C826.702 47.6993 826.009 47.76 825.09 47.76ZM826.052 45.394C826.901 45.394 827.525 45.3507 827.924 45.264C828.323 45.1773 828.591 45.0213 828.73 44.796C828.869 44.5533 828.938 44.198 828.938 43.73V38.66C828.938 38.2267 828.86 37.8973 828.704 37.672C828.565 37.4293 828.305 37.256 827.924 37.152C827.56 37.048 827.005 36.996 826.26 36.996C825.463 36.996 824.891 37.048 824.544 37.152C824.197 37.2387 823.963 37.4033 823.842 37.646C823.738 37.8713 823.686 38.2527 823.686 38.79V43.6C823.686 44.0853 823.738 44.458 823.842 44.718C823.963 44.9607 824.189 45.134 824.518 45.238C824.847 45.342 825.359 45.394 826.052 45.394ZM842.168 29.3H845.964V47.5H842.168V29.3ZM849.506 30.366H853.302V33.434H849.506V30.366ZM849.506 34.916H853.302V47.5H849.506V34.916ZM861.446 47.76C860.094 47.76 858.439 47.63 856.48 47.37V44.848C858.89 45.212 860.562 45.394 861.498 45.394C862.296 45.394 862.885 45.316 863.266 45.16C863.648 45.004 863.838 44.718 863.838 44.302V43.522C863.838 43.0887 863.717 42.7853 863.474 42.612C863.232 42.4213 862.755 42.326 862.044 42.326H860.406C859.072 42.326 858.04 42.066 857.312 41.546C856.584 41.0087 856.22 40.2287 856.22 39.206V37.672C856.22 36.58 856.74 35.8087 857.78 35.358C858.82 34.89 860.389 34.656 862.486 34.656C863.318 34.656 864.809 34.734 866.958 34.89V37.308C864.254 37.1 862.729 36.996 862.382 36.996C861.36 36.996 860.692 37.0653 860.38 37.204C860.103 37.36 859.964 37.646 859.964 38.062V38.738C859.964 38.9633 860.077 39.1627 860.302 39.336C860.528 39.492 860.857 39.57 861.29 39.57H862.954C866.04 39.57 867.582 40.5753 867.582 42.586V44.172C867.582 44.7787 867.47 45.3073 867.244 45.758C867.019 46.2087 866.724 46.564 866.36 46.824C866.014 47.0667 865.563 47.2573 865.008 47.396C864.471 47.5347 863.908 47.63 863.318 47.682C862.781 47.734 862.157 47.76 861.446 47.76ZM876.692 47.76C876.051 47.76 875.514 47.734 875.08 47.682C874.647 47.63 874.214 47.526 873.78 47.37C873.295 47.214 872.896 46.9973 872.584 46.72C872.29 46.4427 872.047 46.0613 871.856 45.576C871.648 45.0733 871.544 44.4927 871.544 43.834V37.256H868.996V34.916H871.544V31.276H875.34V34.916H878.798V37.256H875.34V43.184C875.34 43.7907 875.392 44.25 875.496 44.562C875.6 44.8567 875.8 45.0733 876.094 45.212C876.389 45.3333 876.84 45.394 877.446 45.394C877.689 45.394 878.14 45.3507 878.798 45.264V47.63C877.984 47.7167 877.282 47.76 876.692 47.76ZM885.694 47.76C884.342 47.76 882.687 47.63 880.728 47.37V44.848C883.138 45.212 884.81 45.394 885.746 45.394C886.544 45.394 887.133 45.316 887.514 45.16C887.896 45.004 888.086 44.718 888.086 44.302V43.522C888.086 43.0887 887.965 42.7853 887.722 42.612C887.48 42.4213 887.003 42.326 886.292 42.326H884.654C883.32 42.326 882.288 42.066 881.56 41.546C880.832 41.0087 880.468 40.2287 880.468 39.206V37.672C880.468 36.58 880.988 35.8087 882.028 35.358C883.068 34.89 884.637 34.656 886.734 34.656C887.566 34.656 889.057 34.734 891.206 34.89V37.308C888.502 37.1 886.977 36.996 886.63 36.996C885.608 36.996 884.94 37.0653 884.628 37.204C884.351 37.36 884.212 37.646 884.212 38.062V38.738C884.212 38.9633 884.325 39.1627 884.55 39.336C884.776 39.492 885.105 39.57 885.538 39.57H887.202C890.288 39.57 891.83 40.5753 891.83 42.586V44.172C891.83 44.7787 891.718 45.3073 891.492 45.758C891.267 46.2087 890.972 46.564 890.608 46.824C890.262 47.0667 889.811 47.2573 889.256 47.396C888.719 47.5347 888.156 47.63 887.566 47.682C887.029 47.734 886.405 47.76 885.694 47.76ZM894.674 43.912H898.626L896.182 50.412H893.478L894.674 43.912ZM913.585 47.76C912.944 47.76 912.406 47.734 911.973 47.682C911.54 47.63 911.106 47.526 910.673 47.37C910.188 47.214 909.789 46.9973 909.477 46.72C909.182 46.4427 908.94 46.0613 908.749 45.576C908.541 45.0733 908.437 44.4927 908.437 43.834V37.256H905.889V34.916H908.437V31.276H912.233V34.916H915.691V37.256H912.233V43.184C912.233 43.7907 912.285 44.25 912.389 44.562C912.493 44.8567 912.692 45.0733 912.987 45.212C913.282 45.3333 913.732 45.394 914.339 45.394C914.582 45.394 915.032 45.3507 915.691 45.264V47.63C914.876 47.7167 914.174 47.76 913.585 47.76ZM917.881 34.916H921.495V37.126C921.495 36.7273 921.659 36.3373 921.989 35.956C922.318 35.5747 922.734 35.2627 923.237 35.02C923.757 34.7773 924.268 34.656 924.771 34.656H926.123V37.802H924.823C923.748 37.802 922.951 37.9667 922.431 38.296C921.928 38.6253 921.677 39.1713 921.677 39.934V47.5H917.881V34.916ZM934.533 47.76C930.078 47.76 927.851 46.3993 927.851 43.678V39.154C927.851 37.5767 928.353 36.4327 929.359 35.722C930.381 35.0113 931.95 34.656 934.065 34.656C936.058 34.656 937.514 35.0027 938.433 35.696C939.369 36.372 939.837 37.5247 939.837 39.154V42.222H931.673V43.366C931.673 44.094 931.933 44.614 932.453 44.926C932.973 45.238 933.909 45.394 935.261 45.394C936.509 45.394 937.913 45.212 939.473 44.848V47.266C937.93 47.5953 936.283 47.76 934.533 47.76ZM936.223 40.064V38.244C936.223 37.828 936.049 37.516 935.703 37.308C935.373 37.1 934.81 36.996 934.013 36.996C933.094 36.996 932.479 37.1 932.167 37.308C931.837 37.5333 931.673 37.8453 931.673 38.244V40.064H936.223ZM949.056 47.76C944.602 47.76 942.374 46.3993 942.374 43.678V39.154C942.374 37.5767 942.877 36.4327 943.882 35.722C944.905 35.0113 946.474 34.656 948.588 34.656C950.582 34.656 952.038 35.0027 952.956 35.696C953.892 36.372 954.36 37.5247 954.36 39.154V42.222H946.196V43.366C946.196 44.094 946.456 44.614 946.976 44.926C947.496 45.238 948.432 45.394 949.784 45.394C951.032 45.394 952.436 45.212 953.996 44.848V47.266C952.454 47.5953 950.807 47.76 949.056 47.76ZM950.746 40.064V38.244C950.746 37.828 950.573 37.516 950.226 37.308C949.897 37.1 949.334 36.996 948.536 36.996C947.618 36.996 947.002 37.1 946.69 37.308C946.361 37.5333 946.196 37.8453 946.196 38.244V40.064H950.746ZM961.968 47.76C960.616 47.76 958.96 47.63 957.002 47.37V44.848C959.411 45.212 961.084 45.394 962.02 45.394C962.817 45.394 963.406 45.316 963.788 45.16C964.169 45.004 964.36 44.718 964.36 44.302V43.522C964.36 43.0887 964.238 42.7853 963.996 42.612C963.753 42.4213 963.276 42.326 962.566 42.326H960.928C959.593 42.326 958.562 42.066 957.834 41.546C957.106 41.0087 956.742 40.2287 956.742 39.206V37.672C956.742 36.58 957.262 35.8087 958.302 35.358C959.342 34.89 960.91 34.656 963.008 34.656C963.84 34.656 965.33 34.734 967.48 34.89V37.308C964.776 37.1 963.25 36.996 962.904 36.996C961.881 36.996 961.214 37.0653 960.902 37.204C960.624 37.36 960.486 37.646 960.486 38.062V38.738C960.486 38.9633 960.598 39.1627 960.824 39.336C961.049 39.492 961.378 39.57 961.812 39.57H963.476C966.561 39.57 968.104 40.5753 968.104 42.586V44.172C968.104 44.7787 967.991 45.3073 967.766 45.758C967.54 46.2087 967.246 46.564 966.882 46.824C966.535 47.0667 966.084 47.2573 965.53 47.396C964.992 47.5347 964.429 47.63 963.84 47.682C963.302 47.734 962.678 47.76 961.968 47.76ZM970.948 43.912H974.9L972.456 50.412H969.752L970.948 43.912ZM988.662 53.22C986.617 53.22 985.1 53.1593 984.112 53.038V50.49C985.742 50.7153 987.258 50.828 988.662 50.828C989.945 50.828 990.864 50.62 991.418 50.204C991.973 49.788 992.25 49.0947 992.25 48.124V46.096C991.938 46.5467 991.635 46.8933 991.34 47.136C991.046 47.3613 990.656 47.5173 990.17 47.604C989.702 47.708 989.052 47.76 988.22 47.76C986.99 47.76 986.01 47.6473 985.282 47.422C984.554 47.1793 984.026 46.7893 983.696 46.252C983.367 45.6973 983.202 44.9347 983.202 43.964V39.05C983.202 37.8887 983.35 36.996 983.644 36.372C983.956 35.748 984.476 35.306 985.204 35.046C985.95 34.786 987.016 34.656 988.402 34.656C989.304 34.656 989.997 34.708 990.482 34.812C990.95 34.916 991.306 35.072 991.548 35.28C991.791 35.488 992.068 35.8433 992.38 36.346V34.916H996.046V48.176C996.046 49.9613 995.431 51.244 994.2 52.024C992.987 52.8213 991.141 53.22 988.662 53.22ZM989.572 45.394C990.318 45.394 990.872 45.342 991.236 45.238C991.618 45.134 991.878 44.9693 992.016 44.744C992.172 44.5013 992.25 44.1633 992.25 43.73V38.66C992.25 38.192 992.181 37.8453 992.042 37.62C991.904 37.3773 991.635 37.2127 991.236 37.126C990.838 37.0393 990.214 36.996 989.364 36.996C988.671 36.996 988.16 37.048 987.83 37.152C987.501 37.256 987.276 37.438 987.154 37.698C987.05 37.9407 986.998 38.3047 986.998 38.79V43.6C986.998 44.1373 987.05 44.5273 987.154 44.77C987.276 44.9953 987.51 45.16 987.856 45.264C988.203 45.3507 988.775 45.394 989.572 45.394ZM999.385 34.916H1003V37.126C1003 36.7273 1003.16 36.3373 1003.49 35.956C1003.82 35.5747 1004.24 35.2627 1004.74 35.02C1005.26 34.7773 1005.77 34.656 1006.27 34.656H1007.63V37.802H1006.33C1005.25 37.802 1004.45 37.9667 1003.93 38.296C1003.43 38.6253 1003.18 39.1713 1003.18 39.934V47.5H999.385V34.916ZM1013.28 47.76C1012.1 47.76 1011.22 47.656 1010.63 47.448C1010.06 47.2227 1009.65 46.8327 1009.41 46.278C1009.18 45.706 1009.07 44.8567 1009.07 43.73C1009.07 42.7247 1009.19 41.936 1009.43 41.364C1009.69 40.792 1010.1 40.3847 1010.65 40.142C1011.23 39.882 1012.01 39.752 1012.99 39.752H1017.26V38.894C1017.26 38.3567 1017.18 37.958 1017.02 37.698C1016.89 37.438 1016.62 37.256 1016.22 37.152C1015.84 37.048 1015.26 36.996 1014.48 36.996C1013.4 36.996 1011.93 37.1 1010.06 37.308V34.916C1011.43 34.7427 1013.03 34.656 1014.87 34.656C1016.48 34.656 1017.72 34.7773 1018.58 35.02C1019.47 35.2627 1020.1 35.6787 1020.48 36.268C1020.86 36.8573 1021.05 37.7153 1021.05 38.842V47.5H1017.34V46.356C1017.04 46.8587 1016.64 47.214 1016.14 47.422C1015.64 47.6473 1014.68 47.76 1013.28 47.76ZM1014.76 45.394C1015.53 45.394 1016.07 45.368 1016.4 45.316C1016.64 45.2813 1016.81 45.2293 1016.89 45.16C1017 45.0907 1017.09 44.978 1017.15 44.822C1017.22 44.7007 1017.26 44.5187 1017.26 44.276V41.832H1014.66C1014.07 41.832 1013.65 41.8753 1013.41 41.962C1013.17 42.0313 1013 42.1873 1012.92 42.43C1012.83 42.6553 1012.79 43.0627 1012.79 43.652C1012.79 44.224 1012.83 44.6227 1012.92 44.848C1013 45.0733 1013.17 45.2207 1013.41 45.29C1013.67 45.3593 1014.12 45.394 1014.76 45.394ZM1024.39 34.916H1027.98V36.164C1028.21 35.6093 1028.65 35.2193 1029.31 34.994C1029.97 34.7687 1030.95 34.656 1032.25 34.656C1033.34 34.656 1034.21 34.7427 1034.87 34.916C1035.55 35.0893 1036.06 35.3667 1036.41 35.748C1036.74 36.1293 1036.96 36.554 1037.08 37.022C1037.2 37.4727 1037.26 38.0967 1037.26 38.894V43.028C1037.26 44.276 1037.08 45.238 1036.72 45.914C1036.35 46.59 1035.79 47.0667 1035.03 47.344C1034.28 47.6213 1033.26 47.76 1031.96 47.76C1030.71 47.76 1029.81 47.656 1029.26 47.448C1028.7 47.24 1028.35 46.8327 1028.19 46.226V52.908H1024.39V34.916ZM1030.79 45.394C1031.54 45.394 1032.1 45.342 1032.48 45.238C1032.86 45.134 1033.12 44.952 1033.26 44.692C1033.4 44.432 1033.47 44.042 1033.47 43.522V38.868C1033.47 38.296 1033.41 37.8887 1033.29 37.646C1033.17 37.386 1032.92 37.2127 1032.56 37.126C1032.19 37.0393 1031.6 36.996 1030.76 36.996C1030.05 36.996 1029.51 37.0567 1029.13 37.178C1028.76 37.2993 1028.51 37.49 1028.37 37.75C1028.25 38.01 1028.19 38.3827 1028.19 38.868V43.522C1028.19 44.042 1028.25 44.432 1028.37 44.692C1028.51 44.952 1028.76 45.134 1029.13 45.238C1029.49 45.342 1030.05 45.394 1030.79 45.394ZM1040.24 29.3H1044.03V36.45C1044.28 35.254 1045.6 34.656 1048.01 34.656C1049.62 34.656 1050.75 34.9507 1051.39 35.54C1052.05 36.112 1052.38 37.022 1052.38 38.27V47.5H1048.58V38.712C1048.58 38.2267 1048.53 37.8713 1048.43 37.646C1048.34 37.4033 1048.16 37.2387 1047.88 37.152C1047.6 37.048 1047.16 36.996 1046.56 36.996C1045.81 36.996 1045.26 37.0393 1044.92 37.126C1044.57 37.2127 1044.34 37.3773 1044.22 37.62C1044.09 37.8453 1044.03 38.2093 1044.03 38.712V47.5H1040.24V29.3ZM1060.41 47.76C1059.06 47.76 1057.4 47.63 1055.44 47.37V44.848C1057.85 45.212 1059.52 45.394 1060.46 45.394C1061.26 45.394 1061.85 45.316 1062.23 45.16C1062.61 45.004 1062.8 44.718 1062.8 44.302V43.522C1062.8 43.0887 1062.68 42.7853 1062.44 42.612C1062.19 42.4213 1061.72 42.326 1061.01 42.326H1059.37C1058.03 42.326 1057 42.066 1056.27 41.546C1055.55 41.0087 1055.18 40.2287 1055.18 39.206V37.672C1055.18 36.58 1055.7 35.8087 1056.74 35.358C1057.78 34.89 1059.35 34.656 1061.45 34.656C1062.28 34.656 1063.77 34.734 1065.92 34.89V37.308C1063.22 37.1 1061.69 36.996 1061.34 36.996C1060.32 36.996 1059.65 37.0653 1059.34 37.204C1059.06 37.36 1058.93 37.646 1058.93 38.062V38.738C1058.93 38.9633 1059.04 39.1627 1059.26 39.336C1059.49 39.492 1059.82 39.57 1060.25 39.57H1061.92C1065 39.57 1066.54 40.5753 1066.54 42.586V44.172C1066.54 44.7787 1066.43 45.3073 1066.21 45.758C1065.98 46.2087 1065.69 46.564 1065.32 46.824C1064.97 47.0667 1064.52 47.2573 1063.97 47.396C1063.43 47.5347 1062.87 47.63 1062.28 47.682C1061.74 47.734 1061.12 47.76 1060.41 47.76ZM1069.39 43.912H1073.34L1070.9 50.412H1068.19L1069.39 43.912ZM1088.32 47.76C1083.87 47.76 1081.64 46.3993 1081.64 43.678V39.154C1081.64 37.5767 1082.14 36.4327 1083.15 35.722C1084.17 35.0113 1085.74 34.656 1087.86 34.656C1089.85 34.656 1091.31 35.0027 1092.22 35.696C1093.16 36.372 1093.63 37.5247 1093.63 39.154V42.222H1085.46V43.366C1085.46 44.094 1085.72 44.614 1086.24 44.926C1086.76 45.238 1087.7 45.394 1089.05 45.394C1090.3 45.394 1091.7 45.212 1093.26 44.848V47.266C1091.72 47.5953 1090.07 47.76 1088.32 47.76ZM1090.01 40.064V38.244C1090.01 37.828 1089.84 37.516 1089.49 37.308C1089.16 37.1 1088.6 36.996 1087.8 36.996C1086.89 36.996 1086.27 37.1 1085.96 37.308C1085.63 37.5333 1085.46 37.8453 1085.46 38.244V40.064H1090.01ZM1102.82 47.76C1102.18 47.76 1101.64 47.734 1101.21 47.682C1100.78 47.63 1100.34 47.526 1099.91 47.37C1099.42 47.214 1099.03 46.9973 1098.71 46.72C1098.42 46.4427 1098.18 46.0613 1097.99 45.576C1097.78 45.0733 1097.67 44.4927 1097.67 43.834V37.256H1095.13V34.916H1097.67V31.276H1101.47V34.916H1104.93V37.256H1101.47V43.184C1101.47 43.7907 1101.52 44.25 1101.63 44.562C1101.73 44.8567 1101.93 45.0733 1102.22 45.212C1102.52 45.3333 1102.97 45.394 1103.58 45.394C1103.82 45.394 1104.27 45.3507 1104.93 45.264V47.63C1104.11 47.7167 1103.41 47.76 1102.82 47.76ZM1113.25 47.76C1112.59 47.76 1112.07 47.7427 1111.69 47.708C1111.31 47.6907 1110.84 47.6473 1110.29 47.578C1109.73 47.5087 1109.28 47.3873 1108.91 47.214C1108.56 47.0407 1108.2 46.7807 1107.82 46.434C1107.11 45.8447 1106.75 44.8393 1106.75 43.418V39.232C1106.75 38.088 1107.01 37.1347 1107.53 36.372C1107.72 36.0947 1108 35.8433 1108.37 35.618C1108.75 35.3753 1109.13 35.1847 1109.51 35.046C1109.82 34.942 1110.24 34.8553 1110.76 34.786C1111.28 34.7167 1111.74 34.6733 1112.14 34.656H1113.51C1114.48 34.656 1115.76 34.812 1117.34 35.124V37.62C1115.55 37.204 1114.18 36.996 1113.23 36.996C1111.48 36.996 1110.6 37.5853 1110.6 38.764V43.392C1110.6 44.7267 1111.56 45.394 1113.49 45.394C1114.42 45.394 1115.77 45.2033 1117.52 44.822V47.318C1115.94 47.6127 1114.52 47.76 1113.25 47.76ZM1119.3 43.912H1123.35V47.5H1119.3V43.912Z" fill="#121538"/>
<mask id="path-3-inside-1_1697_2162" fill="white">
<path fill-rule="evenodd" clip-rule="evenodd" d="M234 252.133L215.569 270.731L197 252.181L208.773 252.166V200H222.992V252.147L234 252.133Z"/>
</mask>
<path fill-rule="evenodd" clip-rule="evenodd" d="M234 252.133L215.569 270.731L197 252.181L208.773 252.166V200H222.992V252.147L234 252.133Z" fill="#FEC900"/>
<path d="M215.569 270.731L216.279 271.435L215.572 272.148L214.862 271.438L215.569 270.731ZM234 252.133L233.999 251.133L236.402 251.13L234.71 252.837L234 252.133ZM197 252.181L196.293 252.889L194.587 251.185L196.999 251.181L197 252.181ZM208.773 252.166H209.773V253.165L208.774 253.166L208.773 252.166ZM208.773 200H207.773V199H208.773V200ZM222.992 200V199H223.992V200H222.992ZM222.992 252.147L222.994 253.147L221.992 253.149V252.147H222.992ZM214.858 270.027L233.29 251.429L234.71 252.837L216.279 271.435L214.858 270.027ZM197.707 251.474L216.275 270.023L214.862 271.438L196.293 252.889L197.707 251.474ZM208.774 253.166L197.001 253.181L196.999 251.181L208.771 251.166L208.774 253.166ZM209.773 200V252.166H207.773V200H209.773ZM222.992 201H208.773V199H222.992V201ZM221.992 252.147V200H223.992V252.147H221.992ZM234.001 253.133L222.994 253.147L222.991 251.147L233.999 251.133L234.001 253.133Z" fill="black" mask="url(#path-3-inside-1_1697_2162)"/>
<circle cx="924" cy="308" r="49.5" fill="#FEC900" stroke="black"/>
<path d="M902.445 301.424H906.237L913.773 312.056V301.424H917.109V317H913.317L905.781 306.2V317H902.445V301.424ZM924.357 317.24C922.869 317.24 921.821 316.976 921.213 316.448C920.621 315.904 920.325 315.056 920.325 313.904V305.384H923.829V313.424C923.829 313.872 923.869 314.208 923.949 314.432C924.045 314.656 924.221 314.816 924.477 314.912C924.749 315.008 925.157 315.056 925.701 315.056C926.389 315.056 926.893 315.016 927.213 314.936C927.533 314.84 927.749 314.68 927.861 314.456C927.973 314.232 928.029 313.888 928.029 313.424V305.384H931.533V317H928.077V315.584C927.821 316.688 926.581 317.24 924.357 317.24ZM934.694 300.2H938.198V317H934.694V300.2ZM941.467 300.2H944.971V317H941.467V300.2Z" fill="#121538"/>
<circle cx="217" cy="153" r="49.5" fill="#FEC900" stroke="black"/>
<path d="M188.859 146.424H192.603V152.664H199.227V146.424H202.971V162H199.227V155.328H192.603V162H188.859V146.424ZM212.008 162.24C207.896 162.24 205.84 160.984 205.84 158.472V154.296C205.84 152.84 206.304 151.784 207.232 151.128C208.176 150.472 209.624 150.144 211.576 150.144C213.416 150.144 214.76 150.464 215.608 151.104C216.472 151.728 216.904 152.792 216.904 154.296V157.128H209.368V158.184C209.368 158.856 209.608 159.336 210.088 159.624C210.568 159.912 211.432 160.056 212.68 160.056C213.832 160.056 215.128 159.888 216.568 159.552V161.784C215.144 162.088 213.624 162.24 212.008 162.24ZM213.568 155.136V153.456C213.568 153.072 213.408 152.784 213.088 152.592C212.784 152.4 212.264 152.304 211.528 152.304C210.68 152.304 210.112 152.4 209.824 152.592C209.52 152.8 209.368 153.088 209.368 153.456V155.136H213.568ZM222.87 162.24C221.782 162.24 220.966 162.144 220.422 161.952C219.894 161.744 219.518 161.384 219.294 160.872C219.086 160.344 218.982 159.56 218.982 158.52C218.982 157.592 219.094 156.864 219.318 156.336C219.558 155.808 219.934 155.432 220.446 155.208C220.974 154.968 221.694 154.848 222.606 154.848H226.542V154.056C226.542 153.56 226.47 153.192 226.326 152.952C226.198 152.712 225.95 152.544 225.582 152.448C225.23 152.352 224.694 152.304 223.974 152.304C222.982 152.304 221.622 152.4 219.894 152.592V150.384C221.158 150.224 222.638 150.144 224.334 150.144C225.822 150.144 226.966 150.256 227.766 150.48C228.582 150.704 229.166 151.088 229.518 151.632C229.87 152.176 230.046 152.968 230.046 154.008V162H226.614V160.944C226.342 161.408 225.974 161.736 225.51 161.928C225.046 162.136 224.166 162.24 222.87 162.24ZM224.238 160.056C224.942 160.056 225.446 160.032 225.75 159.984C225.974 159.952 226.126 159.904 226.206 159.84C226.302 159.776 226.382 159.672 226.446 159.528C226.51 159.416 226.542 159.248 226.542 159.024V156.768H224.142C223.598 156.768 223.214 156.808 222.99 156.888C222.766 156.952 222.614 157.096 222.534 157.32C222.454 157.528 222.414 157.904 222.414 158.448C222.414 158.976 222.454 159.344 222.534 159.552C222.614 159.76 222.766 159.896 222.99 159.96C223.23 160.024 223.646 160.056 224.238 160.056ZM237.593 162.24C236.217 162.24 235.201 162.144 234.545 161.952C233.889 161.744 233.433 161.36 233.177 160.8C232.921 160.24 232.793 159.368 232.793 158.184V153.648C232.793 152.368 233.153 151.464 233.873 150.936C234.609 150.408 235.793 150.144 237.425 150.144C238.193 150.144 238.793 150.192 239.225 150.288C239.673 150.368 240.033 150.52 240.305 150.744C240.577 150.952 240.857 151.264 241.145 151.68V145.2H244.649V162H241.265V160.68C240.977 161.144 240.713 161.472 240.473 161.664C240.249 161.84 239.929 161.976 239.513 162.072C239.081 162.184 238.441 162.24 237.593 162.24ZM238.481 160.056C239.265 160.056 239.841 160.016 240.209 159.936C240.577 159.856 240.825 159.712 240.953 159.504C241.081 159.28 241.145 158.952 241.145 158.52V153.84C241.145 153.44 241.073 153.136 240.929 152.928C240.801 152.704 240.561 152.544 240.209 152.448C239.873 152.352 239.361 152.304 238.673 152.304C237.937 152.304 237.409 152.352 237.089 152.448C236.769 152.528 236.553 152.68 236.441 152.904C236.345 153.112 236.297 153.464 236.297 153.96V158.4C236.297 158.848 236.345 159.192 236.441 159.432C236.553 159.656 236.761 159.816 237.065 159.912C237.369 160.008 237.841 160.056 238.481 160.056Z" fill="#121538"/>
<rect x="167.5" y="274.5" width="69" height="68" fill="white"/>
<rect x="167.5" y="274.5" width="69" height="68" stroke="black"/>
<path d="M199.792 301.924H204.352L209.968 317.5H206.176L204.784 313.396H199.096L197.728 317.5H194.032L199.792 301.924ZM203.968 310.9L202 305.044H201.904L199.936 310.9H203.968Z" fill="black"/>
<rect x="234.5" y="274.5" width="36" height="68" fill="white" stroke="black"/>
<rect x="344.5" y="274.5" width="68.4017" height="68" fill="white"/>
<rect x="344.5" y="274.5" width="68.4017" height="68" stroke="black"/>
<path d="M372.763 301.924H379.075C380.563 301.924 381.707 302.036 382.507 302.26C383.323 302.468 383.899 302.812 384.235 303.292C384.571 303.756 384.739 304.412 384.739 305.26V307.18C384.739 307.612 384.563 308.02 384.211 308.404C383.875 308.788 383.475 309.052 383.011 309.196V309.316C383.619 309.38 384.171 309.644 384.667 310.108C385.179 310.556 385.435 311.06 385.435 311.62V314.02C385.435 315.284 384.931 316.18 383.923 316.708C382.915 317.236 381.355 317.5 379.243 317.5H372.763V301.924ZM379.075 308.26C379.667 308.26 380.107 308.212 380.395 308.116C380.683 308.02 380.875 307.868 380.971 307.66C381.083 307.436 381.139 307.116 381.139 306.7V305.932C381.139 305.564 381.091 305.292 380.995 305.116C380.899 304.924 380.699 304.788 380.395 304.708C380.107 304.628 379.643 304.588 379.003 304.588H376.507V308.26H379.075ZM379.171 314.836C380.083 314.836 380.731 314.732 381.115 314.524C381.499 314.316 381.691 313.98 381.691 313.516V312.268C381.691 311.692 381.539 311.284 381.235 311.044C380.947 310.804 380.427 310.684 379.675 310.684H376.507V314.836H379.171Z" fill="black"/>
<rect x="410.927" y="274.5" width="35.6838" height="68" fill="white" stroke="black"/>
<rect x="520.5" y="274.5" width="69" height="68" fill="white"/>
<rect x="520.5" y="274.5" width="69" height="68" stroke="black"/>
<path d="M556.408 317.74C555.704 317.74 555.072 317.708 554.512 317.644C553.968 317.58 553.368 317.46 552.712 317.284C551.976 317.092 551.368 316.844 550.888 316.54C550.408 316.22 550.008 315.78 549.688 315.22C549.352 314.66 549.184 313.996 549.184 313.228V306.388C549.184 303.252 551.592 301.684 556.408 301.684C557.64 301.684 559.288 301.86 561.352 302.212V305.02C559.496 304.572 557.864 304.348 556.456 304.348C555.864 304.348 555.4 304.364 555.064 304.396C554.744 304.428 554.408 304.508 554.056 304.636C553.304 304.892 552.928 305.46 552.928 306.34V312.964C552.928 314.372 554.216 315.076 556.792 315.076C557.896 315.076 559.448 314.844 561.448 314.38V317.212C559.736 317.564 558.056 317.74 556.408 317.74Z" fill="black"/>
<rect x="587.5" y="274.5" width="36" height="68" fill="white" stroke="black"/>
<rect x="697.5" y="274.5" width="69" height="68" fill="white"/>
<rect x="697.5" y="274.5" width="69" height="68" stroke="black"/>
<path d="M725.16 301.924H731.784C733.608 301.924 735.048 302.068 736.104 302.356C737.16 302.628 737.936 303.108 738.432 303.796C738.928 304.484 739.176 305.436 739.176 306.652V312.988C739.176 314.172 738.944 315.092 738.48 315.748C738.016 316.388 737.256 316.844 736.2 317.116C735.144 317.372 733.68 317.5 731.808 317.5H725.16V301.924ZM731.64 314.836C732.664 314.836 733.432 314.796 733.944 314.716C734.472 314.62 734.848 314.444 735.072 314.188C735.312 313.932 735.432 313.532 735.432 312.988V306.58C735.432 305.844 735.136 305.332 734.544 305.044C733.968 304.74 733.04 304.588 731.76 304.588H728.904V314.836H731.64Z" fill="black"/>
<rect x="764.5" y="274.5" width="36" height="68" fill="white" stroke="black"/>
<mask id="path-21-inside-2_1697_2162" fill="white">
<path fill-rule="evenodd" clip-rule="evenodd" d="M324.806 289L344 307.431L324.856 326L324.84 314.227H271V300.008H324.82L324.806 289Z"/>
</mask>
<path fill-rule="evenodd" clip-rule="evenodd" d="M324.806 289L344 307.431L324.856 326L324.84 314.227H271V300.008H324.82L324.806 289Z" fill="#FEC900"/>
<path d="M344 307.431L344.693 306.71L345.44 307.428L344.696 308.149L344 307.431ZM324.806 289L323.806 289.001L323.802 286.65L325.498 288.279L324.806 289ZM324.856 326L325.552 326.718L323.859 328.36L323.856 326.001L324.856 326ZM324.84 314.227V313.227H325.838L325.84 314.226L324.84 314.227ZM271 314.227V315.227H270V314.227H271ZM271 300.008H270V299.008H271V300.008ZM324.82 300.008L325.82 300.006L325.822 301.008H324.82V300.008ZM343.307 308.153L324.113 289.721L325.498 288.279L344.693 306.71L343.307 308.153ZM324.159 325.282L343.304 306.714L344.696 308.149L325.552 326.718L324.159 325.282ZM325.84 314.226L325.856 325.999L323.856 326.001L323.84 314.229L325.84 314.226ZM271 313.227H324.84V315.227H271V313.227ZM272 300.008V314.227H270V300.008H272ZM324.82 301.008H271V299.008H324.82V301.008ZM325.806 288.999L325.82 300.006L323.82 300.009L323.806 289.001L325.806 288.999Z" fill="black" mask="url(#path-21-inside-2_1697_2162)"/>
<mask id="path-23-inside-3_1697_2162" fill="white">
<path fill-rule="evenodd" clip-rule="evenodd" d="M500.806 289L520 307.431L500.856 326L500.84 314.227H447V300.008H500.82L500.806 289Z"/>
</mask>
<path fill-rule="evenodd" clip-rule="evenodd" d="M500.806 289L520 307.431L500.856 326L500.84 314.227H447V300.008H500.82L500.806 289Z" fill="#FEC900"/>
<path d="M520 307.431L520.693 306.71L521.44 307.428L520.696 308.149L520 307.431ZM500.806 289L499.806 289.001L499.802 286.65L501.498 288.279L500.806 289ZM500.856 326L501.552 326.718L499.859 328.36L499.856 326.001L500.856 326ZM500.84 314.227V313.227H501.838L501.84 314.226L500.84 314.227ZM447 314.227V315.227H446V314.227H447ZM447 300.008H446V299.008H447V300.008ZM500.82 300.008L501.82 300.006L501.822 301.008H500.82V300.008ZM519.307 308.153L500.113 289.721L501.498 288.279L520.693 306.71L519.307 308.153ZM500.159 325.282L519.304 306.714L520.696 308.149L501.552 326.718L500.159 325.282ZM501.84 314.226L501.856 325.999L499.856 326.001L499.84 314.229L501.84 314.226ZM447 313.227H500.84V315.227H447V313.227ZM448 300.008V314.227H446V300.008H448ZM500.82 301.008H447V299.008H500.82V301.008ZM501.806 288.999L501.82 300.006L499.82 300.009L499.806 289.001L501.806 288.999Z" fill="black" mask="url(#path-23-inside-3_1697_2162)"/>
<mask id="path-25-inside-4_1697_2162" fill="white">
<path fill-rule="evenodd" clip-rule="evenodd" d="M677.806 289L697 307.431L677.856 326L677.84 314.227H624V300.008H677.82L677.806 289Z"/>
</mask>
<path fill-rule="evenodd" clip-rule="evenodd" d="M677.806 289L697 307.431L677.856 326L677.84 314.227H624V300.008H677.82L677.806 289Z" fill="#FEC900"/>
<path d="M697 307.431L697.693 306.71L698.44 307.428L697.696 308.149L697 307.431ZM677.806 289L676.806 289.001L676.802 286.65L678.498 288.279L677.806 289ZM677.856 326L678.552 326.718L676.859 328.36L676.856 326.001L677.856 326ZM677.84 314.227V313.227H678.838L678.84 314.226L677.84 314.227ZM624 314.227V315.227H623V314.227H624ZM624 300.008H623V299.008H624V300.008ZM677.82 300.008L678.82 300.006L678.822 301.008H677.82V300.008ZM696.307 308.153L677.113 289.721L678.498 288.279L697.693 306.71L696.307 308.153ZM677.159 325.282L696.304 306.714L697.696 308.149L678.552 326.718L677.159 325.282ZM678.84 314.226L678.856 325.999L676.856 326.001L676.84 314.229L678.84 314.226ZM624 313.227H677.84V315.227H624V313.227ZM625 300.008V314.227H623V300.008H625ZM677.82 301.008H624V299.008H677.82V301.008ZM678.806 288.999L678.82 300.006L676.82 300.009L676.806 289.001L678.806 288.999Z" fill="black" mask="url(#path-25-inside-4_1697_2162)"/>
<mask id="path-27-inside-5_1697_2162" fill="white">
<path fill-rule="evenodd" clip-rule="evenodd" d="M854.806 290L874 308.431L854.856 327L854.84 315.227H801V301.008H854.82L854.806 290Z"/>
</mask>
<path fill-rule="evenodd" clip-rule="evenodd" d="M854.806 290L874 308.431L854.856 327L854.84 315.227H801V301.008H854.82L854.806 290Z" fill="#FEC900"/>
<path d="M874 308.431L874.693 307.71L875.44 308.428L874.696 309.149L874 308.431ZM854.806 290L853.806 290.001L853.802 287.65L855.498 289.279L854.806 290ZM854.856 327L855.552 327.718L853.859 329.36L853.856 327.001L854.856 327ZM854.84 315.227V314.227H855.838L855.84 315.226L854.84 315.227ZM801 315.227V316.227H800V315.227H801ZM801 301.008H800V300.008H801V301.008ZM854.82 301.008L855.82 301.006L855.822 302.008H854.82V301.008ZM873.307 309.153L854.113 290.721L855.498 289.279L874.693 307.71L873.307 309.153ZM854.159 326.282L873.304 307.714L874.696 309.149L855.552 327.718L854.159 326.282ZM855.84 315.226L855.856 326.999L853.856 327.001L853.84 315.229L855.84 315.226ZM801 314.227H854.84V316.227H801V314.227ZM802 301.008V315.227H800V301.008H802ZM854.82 302.008H801V300.008H854.82V302.008ZM855.806 289.999L855.82 301.006L853.82 301.009L853.806 290.001L855.806 289.999Z" fill="black" mask="url(#path-27-inside-5_1697_2162)"/>
<circle cx="129.5" cy="942.5" r="50" fill="white" stroke="black"/>
<circle cx="490.5" cy="942.5" r="50" fill="white" stroke="black"/>
<path d="M131.559 938.16H123.999V935.424H135.423V937.824L129.447 951H125.559L131.559 938.16Z" fill="black"/>
<path d="M490.543 951.24C489.167 951.24 487.687 951.16 486.103 951V948.504C488.151 948.728 489.615 948.84 490.495 948.84C491.311 948.84 491.903 948.784 492.271 948.672C492.639 948.56 492.879 948.352 492.991 948.048C493.119 947.744 493.183 947.264 493.183 946.608V945.144H490.591C489.727 945.144 489.103 945.136 488.719 945.12C488.335 945.088 487.903 945.008 487.423 944.88C486.927 944.752 486.551 944.568 486.295 944.328C486.039 944.088 485.815 943.736 485.623 943.272C485.447 942.792 485.359 942.232 485.359 941.592V939.48C485.359 938.744 485.471 938.104 485.695 937.56C485.919 937 486.207 936.56 486.559 936.24C486.879 935.968 487.295 935.744 487.807 935.568C488.335 935.392 488.855 935.28 489.367 935.232C489.975 935.2 490.527 935.184 491.023 935.184C491.775 935.184 492.367 935.208 492.799 935.256C493.247 935.288 493.719 935.384 494.215 935.544C494.743 935.72 495.167 935.96 495.487 936.264C495.823 936.552 496.103 936.968 496.327 937.512C496.551 938.088 496.663 938.744 496.663 939.48V946.728C496.663 948.344 496.175 949.504 495.199 950.208C494.239 950.896 492.687 951.24 490.543 951.24ZM493.183 942.816V939.168C493.183 938.624 493.135 938.248 493.039 938.04C492.959 937.832 492.775 937.696 492.487 937.632C492.215 937.568 491.711 937.536 490.975 937.536C490.303 937.536 489.823 937.576 489.535 937.656C489.263 937.72 489.079 937.864 488.983 938.088C488.887 938.296 488.839 938.656 488.839 939.168V941.544C488.839 941.928 488.887 942.208 488.983 942.384C489.079 942.544 489.271 942.656 489.559 942.72C489.863 942.784 490.343 942.816 490.999 942.816H493.183Z" fill="black"/>
<circle cx="50.5" cy="50.5" r="50" transform="matrix(-1 0 0 1 1063 895)" fill="white" stroke="black"/>
<circle cx="50.5" cy="50.5" r="50" transform="matrix(-1 0 0 1 702 895)" fill="white" stroke="black"/>
<path d="M644.366 942.096L640.118 944.448V941.496L645.038 938.424H647.87V954H644.366V942.096ZM658.288 942.096L654.04 944.448V941.496L658.96 938.424H661.792V954H658.288V942.096Z" fill="black"/>
<path d="M1005.37 942.096L1001.12 944.448V941.496L1006.04 938.424H1008.87V954H1005.37V942.096ZM1020.82 950.856H1013.62V948.096L1020.03 938.424H1023.99V948.336H1025.67V950.856H1023.99V954H1020.82V950.856ZM1020.82 948.336V941.736L1016.62 948.336H1020.82Z" fill="black"/>
<mask id="path-37-inside-6_1697_2162" fill="white">
<path fill-rule="evenodd" clip-rule="evenodd" d="M601.709 549.397C592.967 556.644 581.742 561 569.5 561C557.192 561 545.913 556.597 537.151 549.281L383.774 690.179L394.777 702.772L347 711.634L363.406 666.868L371.927 676.62L525.589 535.46C521.396 528.098 519 519.579 519 510.5C519 482.61 541.61 460 569.5 460C597.39 460 620 482.61 620 510.5C620 519.644 617.569 528.221 613.319 535.62L770.073 679.62L778.594 669.868L795 714.634L747.223 705.772L758.226 693.179L601.709 549.397Z"/>
</mask>
<path fill-rule="evenodd" clip-rule="evenodd" d="M601.709 549.397C592.967 556.644 581.742 561 569.5 561C557.192 561 545.913 556.597 537.151 549.281L383.774 690.179L394.777 702.772L347 711.634L363.406 666.868L371.927 676.62L525.589 535.46C521.396 528.098 519 519.579 519 510.5C519 482.61 541.61 460 569.5 460C597.39 460 620 482.61 620 510.5C620 519.644 617.569 528.221 613.319 535.62L770.073 679.62L778.594 669.868L795 714.634L747.223 705.772L758.226 693.179L601.709 549.397Z" fill="white"/>
<path d="M601.709 549.397L602.386 548.66L601.743 548.07L601.071 548.627L601.709 549.397ZM537.151 549.281L537.792 548.513L537.12 547.951L536.475 548.544L537.151 549.281ZM383.774 690.179L383.098 689.443L382.379 690.103L383.021 690.837L383.774 690.179ZM394.777 702.772L394.959 703.755L396.684 703.435L395.53 702.114L394.777 702.772ZM347 711.634L346.061 711.29L345.457 712.937L347.182 712.617L347 711.634ZM363.406 666.868L364.159 666.21L363.048 664.938L362.467 666.524L363.406 666.868ZM371.927 676.62L371.174 677.278L371.849 678.05L372.604 677.356L371.927 676.62ZM525.589 535.46L526.266 536.196L526.853 535.657L526.458 534.965L525.589 535.46ZM613.319 535.62L612.452 535.121L612.054 535.815L612.643 536.356L613.319 535.62ZM770.073 679.62L769.396 680.356L770.151 681.05L770.826 680.278L770.073 679.62ZM778.594 669.868L779.533 669.524L778.952 667.938L777.841 669.21L778.594 669.868ZM795 714.634L794.818 715.617L796.543 715.937L795.939 714.29L795 714.634ZM747.223 705.772L746.47 705.114L745.316 706.435L747.041 706.755L747.223 705.772ZM758.226 693.179L758.979 693.837L759.621 693.103L758.902 692.443L758.226 693.179ZM569.5 562C581.984 562 593.433 557.557 602.348 550.166L601.071 548.627C592.502 555.731 581.501 560 569.5 560V562ZM536.51 550.048C545.445 557.509 556.949 562 569.5 562V560C557.435 560 546.381 555.685 537.792 548.513L536.51 550.048ZM384.451 690.916L537.828 550.017L536.475 548.544L383.098 689.443L384.451 690.916ZM395.53 702.114L384.527 689.521L383.021 690.837L394.024 703.43L395.53 702.114ZM347.182 712.617L394.959 703.755L394.594 701.789L346.818 710.651L347.182 712.617ZM362.467 666.524L346.061 711.29L347.939 711.978L364.345 667.212L362.467 666.524ZM372.68 675.962L364.159 666.21L362.653 667.526L371.174 677.278L372.68 675.962ZM524.913 534.723L371.251 675.883L372.604 677.356L526.266 536.196L524.913 534.723ZM518 510.5C518 519.757 520.443 528.446 524.72 535.954L526.458 534.965C522.348 527.75 520 519.401 520 510.5H518ZM569.5 459C541.057 459 518 482.057 518 510.5H520C520 483.162 542.162 461 569.5 461V459ZM621 510.5C621 482.057 597.943 459 569.5 459V461C596.838 461 619 483.162 619 510.5H621ZM614.186 536.118C618.521 528.572 621 519.824 621 510.5H619C619 519.465 616.618 527.871 612.452 535.121L614.186 536.118ZM612.643 536.356L769.396 680.356L770.749 678.883L613.996 534.883L612.643 536.356ZM770.826 680.278L779.347 670.526L777.841 669.21L769.32 678.962L770.826 680.278ZM777.655 670.212L794.061 714.978L795.939 714.29L779.533 669.524L777.655 670.212ZM795.182 713.651L747.406 704.789L747.041 706.755L794.818 715.617L795.182 713.651ZM747.976 706.43L758.979 693.837L757.473 692.521L746.47 705.114L747.976 706.43ZM758.902 692.443L602.386 548.66L601.033 550.133L757.549 693.916L758.902 692.443Z" fill="black" mask="url(#path-37-inside-6_1697_2162)"/>
<mask id="path-39-inside-7_1697_2162" fill="white">
<path fill-rule="evenodd" clip-rule="evenodd" d="M339.797 786.906C331.357 793.244 320.867 797 309.5 797C297.808 797 287.044 793.027 278.485 786.357L184.774 872.443L195.777 885.036L148 893.898L164.406 849.132L172.927 858.884L266.472 772.95C261.734 765.257 259 756.198 259 746.5C259 718.61 281.61 696 309.5 696C337.39 696 360 718.61 360 746.5C360 756.522 357.081 765.862 352.046 773.716L444.756 858.884L453.277 849.132L469.684 893.898L421.907 885.036L432.91 872.443L339.797 786.906Z"/>
</mask>
<path fill-rule="evenodd" clip-rule="evenodd" d="M339.797 786.906C331.357 793.244 320.867 797 309.5 797C297.808 797 287.044 793.027 278.485 786.357L184.774 872.443L195.777 885.036L148 893.898L164.406 849.132L172.927 858.884L266.472 772.95C261.734 765.257 259 756.198 259 746.5C259 718.61 281.61 696 309.5 696C337.39 696 360 718.61 360 746.5C360 756.522 357.081 765.862 352.046 773.716L444.756 858.884L453.277 849.132L469.684 893.898L421.907 885.036L432.91 872.443L339.797 786.906Z" fill="white"/>
<path d="M339.797 786.906L340.473 786.17L339.861 785.607L339.196 786.106L339.797 786.906ZM278.485 786.357L279.1 785.568L278.432 785.047L277.808 785.62L278.485 786.357ZM184.774 872.443L184.098 871.707L183.379 872.367L184.021 873.101L184.774 872.443ZM195.777 885.036L195.959 886.019L197.684 885.699L196.53 884.378L195.777 885.036ZM148 893.898L147.061 893.554L146.457 895.202L148.182 894.882L148 893.898ZM164.406 849.132L165.159 848.474L164.048 847.202L163.467 848.788L164.406 849.132ZM172.927 858.884L172.174 859.542L172.849 860.314L173.604 859.62L172.927 858.884ZM266.472 772.95L267.149 773.686L267.757 773.128L267.324 772.425L266.472 772.95ZM352.046 773.716L351.204 773.177L350.75 773.884L351.369 774.453L352.046 773.716ZM444.756 858.884L444.08 859.62L444.835 860.314L445.51 859.542L444.756 858.884ZM453.277 849.132L454.216 848.788L453.635 847.202L452.524 848.474L453.277 849.132ZM469.684 893.898L469.501 894.882L471.226 895.202L470.623 893.554L469.684 893.898ZM421.907 885.036L421.154 884.378L420 885.699L421.725 886.019L421.907 885.036ZM432.91 872.443L433.663 873.101L434.304 872.367L433.586 871.707L432.91 872.443ZM309.5 798C321.091 798 331.791 794.169 340.397 787.706L339.196 786.106C330.924 792.319 320.643 796 309.5 796V798ZM277.87 787.145C286.599 793.947 297.578 798 309.5 798V796C298.039 796 287.489 792.106 279.1 785.568L277.87 787.145ZM185.451 873.18L279.161 787.093L277.808 785.62L184.098 871.707L185.451 873.18ZM196.53 884.378L185.527 871.785L184.021 873.101L195.024 885.694L196.53 884.378ZM148.182 894.882L195.959 886.019L195.594 884.053L147.818 892.915L148.182 894.882ZM163.467 848.788L147.061 893.554L148.939 894.242L165.345 849.476L163.467 848.788ZM173.68 858.226L165.159 848.474L163.653 849.79L172.174 859.542L173.68 858.226ZM265.796 772.213L172.251 858.148L173.604 859.62L267.149 773.686L265.796 772.213ZM258 746.5C258 756.388 260.788 765.629 265.621 773.474L267.324 772.425C262.679 764.886 260 756.007 260 746.5H258ZM309.5 695C281.057 695 258 718.057 258 746.5H260C260 719.162 282.162 697 309.5 697V695ZM361 746.5C361 718.057 337.943 695 309.5 695V697C336.838 697 359 719.162 359 746.5H361ZM352.888 774.256C358.023 766.245 361 756.719 361 746.5H359C359 756.325 356.139 765.479 351.204 773.177L352.888 774.256ZM351.369 774.453L444.08 859.62L445.433 858.148L352.722 772.98L351.369 774.453ZM445.51 859.542L454.03 849.79L452.524 848.474L444.003 858.226L445.51 859.542ZM452.338 849.476L468.745 894.242L470.623 893.554L454.216 848.788L452.338 849.476ZM469.866 892.915L422.089 884.053L421.725 886.019L469.501 894.882L469.866 892.915ZM422.66 885.694L433.663 873.101L432.156 871.785L421.154 884.378L422.66 885.694ZM433.586 871.707L340.473 786.17L339.12 787.642L432.233 873.18L433.586 871.707Z" fill="black" mask="url(#path-39-inside-7_1697_2162)"/>
<mask id="path-41-inside-8_1697_2162" fill="white">
<path fill-rule="evenodd" clip-rule="evenodd" d="M802.203 789.906C810.643 796.244 821.133 800 832.5 800C844.192 800 854.956 796.027 863.515 789.357L957.226 875.443L946.223 888.036L994 896.898L977.594 852.132L969.073 861.884L875.528 775.95C880.266 768.257 883 759.198 883 749.5C883 721.61 860.39 699 832.5 699C804.61 699 782 721.61 782 749.5C782 759.522 784.919 768.862 789.954 776.716L697.244 861.884L688.723 852.132L672.316 896.898L720.093 888.036L709.09 875.443L802.203 789.906Z"/>
</mask>
<path fill-rule="evenodd" clip-rule="evenodd" d="M802.203 789.906C810.643 796.244 821.133 800 832.5 800C844.192 800 854.956 796.027 863.515 789.357L957.226 875.443L946.223 888.036L994 896.898L977.594 852.132L969.073 861.884L875.528 775.95C880.266 768.257 883 759.198 883 749.5C883 721.61 860.39 699 832.5 699C804.61 699 782 721.61 782 749.5C782 759.522 784.919 768.862 789.954 776.716L697.244 861.884L688.723 852.132L672.316 896.898L720.093 888.036L709.09 875.443L802.203 789.906Z" fill="white"/>
<path d="M802.203 789.906L802.804 789.106L802.139 788.607L801.527 789.17L802.203 789.906ZM863.515 789.357L864.192 788.62L863.568 788.047L862.9 788.568L863.515 789.357ZM957.226 875.443L957.979 876.101L958.621 875.367L957.902 874.707L957.226 875.443ZM946.223 888.036L945.47 887.378L944.316 888.699L946.041 889.019L946.223 888.036ZM994 896.898L993.818 897.882L995.543 898.202L994.939 896.554L994 896.898ZM977.594 852.132L978.533 851.788L977.952 850.202L976.841 851.474L977.594 852.132ZM969.073 861.884L968.396 862.62L969.151 863.314L969.826 862.542L969.073 861.884ZM875.528 775.95L874.676 775.425L874.243 776.128L874.851 776.686L875.528 775.95ZM789.954 776.716L790.631 777.453L791.25 776.884L790.796 776.177L789.954 776.716ZM697.244 861.884L696.49 862.542L697.165 863.314L697.92 862.62L697.244 861.884ZM688.723 852.132L689.476 851.474L688.365 850.202L687.784 851.788L688.723 852.132ZM672.316 896.898L671.377 896.554L670.774 898.202L672.499 897.882L672.316 896.898ZM720.093 888.036L720.275 889.019L722.001 888.699L720.846 887.378L720.093 888.036ZM709.09 875.443L708.414 874.707L707.696 875.367L708.337 876.101L709.09 875.443ZM832.5 799C821.357 799 811.076 795.319 802.804 789.106L801.603 790.706C810.209 797.169 820.909 801 832.5 801V799ZM862.9 788.568C854.511 795.106 843.961 799 832.5 799V801C844.422 801 855.401 796.947 864.13 790.145L862.9 788.568ZM957.902 874.707L864.192 788.62L862.839 790.093L956.549 876.18L957.902 874.707ZM946.976 888.694L957.979 876.101L956.473 874.785L945.47 887.378L946.976 888.694ZM994.182 895.915L946.406 887.053L946.041 889.019L993.818 897.882L994.182 895.915ZM976.655 852.476L993.061 897.242L994.939 896.554L978.533 851.788L976.655 852.476ZM969.826 862.542L978.347 852.79L976.841 851.474L968.32 861.226L969.826 862.542ZM874.851 776.686L968.396 862.62L969.749 861.148L876.204 775.213L874.851 776.686ZM882 749.5C882 759.007 879.321 767.886 874.676 775.425L876.379 776.474C881.212 768.629 884 759.388 884 749.5H882ZM832.5 700C859.838 700 882 722.162 882 749.5H884C884 721.057 860.943 698 832.5 698V700ZM783 749.5C783 722.162 805.162 700 832.5 700V698C804.057 698 781 721.057 781 749.5H783ZM790.796 776.177C785.861 768.479 783 759.325 783 749.5H781C781 759.719 783.977 769.245 789.112 777.256L790.796 776.177ZM789.278 775.98L696.567 861.148L697.92 862.62L790.631 777.453L789.278 775.98ZM697.997 861.226L689.476 851.474L687.97 852.79L696.49 862.542L697.997 861.226ZM687.784 851.788L671.377 896.554L673.255 897.242L689.662 852.476L687.784 851.788ZM672.499 897.882L720.275 889.019L719.911 887.053L672.134 895.915L672.499 897.882ZM720.846 887.378L709.844 874.785L708.337 876.101L719.34 888.694L720.846 887.378ZM709.767 876.18L802.88 790.642L801.527 789.17L708.414 874.707L709.767 876.18Z" fill="black" mask="url(#path-41-inside-8_1697_2162)"/>
<path d="M824.366 744.096L820.118 746.448V743.496L825.038 740.424H827.87V756H824.366V744.096ZM833.392 752.448C833.392 751.584 833.632 750.832 834.112 750.192C834.592 749.552 835.216 749.064 835.984 748.728C836.592 748.456 837.304 748.184 838.12 747.912C838.936 747.64 839.568 747.352 840.016 747.048C840.464 746.744 840.688 746.384 840.688 745.968V743.976C840.688 743.48 840.488 743.152 840.088 742.992C839.656 742.816 838.984 742.728 838.072 742.728C836.968 742.728 835.512 742.928 833.704 743.328V740.688C835.304 740.352 836.976 740.184 838.72 740.184C840.608 740.184 842.008 740.472 842.92 741.048C843.848 741.624 844.312 742.584 844.312 743.928V746.088C844.312 746.904 844.064 747.616 843.568 748.224C843.088 748.816 842.464 749.264 841.696 749.568C840.976 749.872 840.24 750.144 839.488 750.384C838.672 750.672 838.024 750.992 837.544 751.344C837.08 751.696 836.848 752.112 836.848 752.592V753.384H844.336V756H833.392V752.448Z" fill="black"/>
<path d="M308.999 753.24C306.935 753.24 305.423 752.984 304.463 752.472C303.519 751.96 303.047 751.072 303.047 749.808V747.12C303.047 746.608 303.303 746.128 303.815 745.68C304.327 745.232 304.935 744.928 305.639 744.768V744.672C305.095 744.608 304.615 744.384 304.199 744C303.783 743.616 303.575 743.176 303.575 742.68V740.448C303.575 739.328 303.983 738.504 304.799 737.976C305.631 737.448 307.031 737.184 308.999 737.184C310.967 737.184 312.359 737.448 313.175 737.976C314.007 738.504 314.423 739.328 314.423 740.448V742.68C314.423 743.176 314.215 743.616 313.799 744C313.383 744.384 312.903 744.608 312.359 744.672V744.768C313.063 744.928 313.671 745.232 314.183 745.68C314.695 746.128 314.951 746.608 314.951 747.12V749.808C314.951 751.104 314.463 752 313.487 752.496C312.511 752.992 311.015 753.24 308.999 753.24ZM308.999 743.832C309.703 743.832 310.191 743.736 310.463 743.544C310.751 743.336 310.895 743.008 310.895 742.56V740.76C310.895 740.296 310.751 739.968 310.463 739.776C310.191 739.568 309.703 739.464 308.999 739.464C308.295 739.464 307.799 739.568 307.511 739.776C307.239 739.968 307.103 740.296 307.103 740.76V742.56C307.103 742.976 307.239 743.296 307.511 743.52C307.767 743.728 308.263 743.832 308.999 743.832ZM308.999 750.96C309.687 750.96 310.183 750.92 310.487 750.84C310.807 750.76 311.015 750.624 311.111 750.432C311.223 750.24 311.279 749.936 311.279 749.52V747.408C311.279 746.944 311.143 746.6 310.871 746.376C310.599 746.168 309.983 746.064 309.023 746.064C308.111 746.064 307.495 746.168 307.175 746.376C306.871 746.568 306.719 746.912 306.719 747.408V749.52C306.719 749.936 306.767 750.24 306.863 750.432C306.975 750.624 307.183 750.76 307.487 750.84C307.807 750.92 308.311 750.96 308.999 750.96Z" fill="black"/>
<path d="M560.366 505.096L556.118 507.448V504.496L561.038 501.424H563.87V517H560.366V505.096ZM574.936 517.24C574.232 517.24 573.656 517.216 573.208 517.168C572.76 517.12 572.272 517.024 571.744 516.88C571.2 516.72 570.76 516.496 570.424 516.208C570.088 515.904 569.808 515.472 569.584 514.912C569.344 514.368 569.224 513.712 569.224 512.944V505.48C569.224 504.744 569.336 504.096 569.56 503.536C569.784 502.976 570.072 502.536 570.424 502.216C570.728 501.944 571.144 501.728 571.672 501.568C572.2 501.392 572.728 501.28 573.256 501.232C573.864 501.2 574.424 501.184 574.936 501.184C575.656 501.184 576.232 501.208 576.664 501.256C577.096 501.288 577.576 501.384 578.104 501.544C578.68 501.72 579.136 501.952 579.472 502.24C579.808 502.528 580.096 502.944 580.336 503.488C580.576 504.032 580.696 504.696 580.696 505.48V512.944C580.696 513.68 580.576 514.328 580.336 514.888C580.112 515.448 579.824 515.88 579.472 516.184C579.152 516.456 578.712 516.68 578.152 516.856C577.608 517.032 577.088 517.136 576.592 517.168C576.144 517.216 575.592 517.24 574.936 517.24ZM574.984 514.984C575.656 514.984 576.136 514.944 576.424 514.864C576.712 514.768 576.904 514.6 577 514.36C577.096 514.12 577.144 513.728 577.144 513.184V505.24C577.144 504.696 577.096 504.304 577 504.064C576.904 503.824 576.712 503.664 576.424 503.584C576.136 503.488 575.656 503.44 574.984 503.44C574.296 503.44 573.8 503.488 573.496 503.584C573.208 503.664 573.016 503.824 572.92 504.064C572.824 504.304 572.776 504.696 572.776 505.24V513.184C572.776 513.728 572.824 514.12 572.92 514.36C573.016 514.6 573.208 514.768 573.496 514.864C573.8 514.944 574.296 514.984 574.984 514.984Z" fill="black"/>
<rect x="498.5" y="373.5" width="144" height="47" rx="4.5" stroke="black"/>
<path d="M509.907 390.424H513.651V403.336H521.307V406H509.907V390.424ZM523.78 390.184H527.284V393.016H523.78V390.184ZM523.78 394.384H527.284V406H523.78V394.384ZM530.458 394.384H533.914V395.8C534.186 394.696 535.426 394.144 537.634 394.144C539.122 394.144 540.162 394.416 540.754 394.96C541.362 395.488 541.666 396.328 541.666 397.48V406H538.162V397.936C538.162 397.488 538.114 397.152 538.018 396.928C537.938 396.704 537.762 396.544 537.49 396.448C537.234 396.352 536.834 396.304 536.29 396.304C535.602 396.304 535.098 396.352 534.778 396.448C534.458 396.528 534.242 396.68 534.13 396.904C534.018 397.128 533.962 397.472 533.962 397.936V406H530.458V394.384ZM544.731 389.2H548.235V406H544.731V389.2ZM548.379 399.472L552.195 394.384H556.203L552.171 399.448L556.539 406H552.579L548.379 399.472ZM563.524 406.24C559.412 406.24 557.356 404.984 557.356 402.472V398.296C557.356 396.84 557.82 395.784 558.748 395.128C559.692 394.472 561.14 394.144 563.092 394.144C564.932 394.144 566.276 394.464 567.124 395.104C567.988 395.728 568.42 396.792 568.42 398.296V401.128H560.884V402.184C560.884 402.856 561.124 403.336 561.604 403.624C562.084 403.912 562.948 404.056 564.196 404.056C565.348 404.056 566.644 403.888 568.084 403.552V405.784C566.66 406.088 565.14 406.24 563.524 406.24ZM565.084 399.136V397.456C565.084 397.072 564.924 396.784 564.604 396.592C564.3 396.4 563.78 396.304 563.044 396.304C562.196 396.304 561.628 396.4 561.34 396.592C561.036 396.8 560.884 397.088 560.884 397.456V399.136H565.084ZM575.562 406.24C574.187 406.24 573.171 406.144 572.515 405.952C571.859 405.744 571.403 405.36 571.146 404.8C570.891 404.24 570.763 403.368 570.763 402.184V397.648C570.763 396.368 571.123 395.464 571.843 394.936C572.579 394.408 573.763 394.144 575.395 394.144C576.163 394.144 576.763 394.192 577.195 394.288C577.643 394.368 578.003 394.52 578.275 394.744C578.547 394.952 578.827 395.264 579.115 395.68V389.2H582.619V406H579.235V404.68C578.947 405.144 578.683 405.472 578.443 405.664C578.219 405.84 577.899 405.976 577.483 406.072C577.051 406.184 576.411 406.24 575.562 406.24ZM576.451 404.056C577.235 404.056 577.811 404.016 578.179 403.936C578.547 403.856 578.795 403.712 578.923 403.504C579.051 403.28 579.115 402.952 579.115 402.52V397.84C579.115 397.44 579.043 397.136 578.899 396.928C578.771 396.704 578.531 396.544 578.179 396.448C577.843 396.352 577.331 396.304 576.643 396.304C575.907 396.304 575.379 396.352 575.059 396.448C574.739 396.528 574.523 396.68 574.411 396.904C574.315 397.112 574.267 397.464 574.267 397.96V402.4C574.267 402.848 574.315 403.192 574.411 403.432C574.523 403.656 574.731 403.816 575.035 403.912C575.339 404.008 575.811 404.056 576.451 404.056ZM591.375 390.424H595.119V403.336H602.775V406H591.375V390.424ZM605.249 390.184H608.753V393.016H605.249V390.184ZM605.249 394.384H608.753V406H605.249V394.384ZM616.271 406.24C615.023 406.24 613.495 406.12 611.687 405.88V403.552C613.911 403.888 615.455 404.056 616.319 404.056C617.055 404.056 617.599 403.984 617.951 403.84C618.303 403.696 618.479 403.432 618.479 403.048V402.328C618.479 401.928 618.367 401.648 618.143 401.488C617.919 401.312 617.479 401.224 616.823 401.224H615.311C614.079 401.224 613.127 400.984 612.455 400.504C611.783 400.008 611.447 399.288 611.447 398.344V396.928C611.447 395.92 611.927 395.208 612.887 394.792C613.847 394.36 615.295 394.144 617.231 394.144C617.999 394.144 619.375 394.216 621.359 394.36V396.592C618.863 396.4 617.455 396.304 617.135 396.304C616.191 396.304 615.575 396.368 615.287 396.496C615.031 396.64 614.903 396.904 614.903 397.288V397.912C614.903 398.12 615.007 398.304 615.215 398.464C615.423 398.608 615.727 398.68 616.127 398.68H617.663C620.511 398.68 621.935 399.608 621.935 401.464V402.928C621.935 403.488 621.831 403.976 621.623 404.392C621.415 404.808 621.143 405.136 620.807 405.376C620.487 405.6 620.071 405.776 619.559 405.904C619.063 406.032 618.543 406.12 617.999 406.168C617.503 406.216 616.927 406.24 616.271 406.24ZM630.344 406.24C629.752 406.24 629.256 406.216 628.856 406.168C628.456 406.12 628.056 406.024 627.656 405.88C627.208 405.736 626.84 405.536 626.552 405.28C626.28 405.024 626.056 404.672 625.88 404.224C625.688 403.76 625.592 403.224 625.592 402.616V396.544H623.24V394.384H625.592V391.024H629.096V394.384H632.288V396.544H629.096V402.016C629.096 402.576 629.144 403 629.24 403.288C629.336 403.56 629.52 403.76 629.792 403.888C630.064 404 630.48 404.056 631.04 404.056C631.264 404.056 631.68 404.016 632.288 403.936V406.12C631.536 406.2 630.888 406.24 630.344 406.24Z" fill="black"/>
<rect x="455.5" y="1023.5" width="230" height="47" rx="4.5" stroke="black"/>
<path d="M466.793 1040.42H473.105C474.593 1040.42 475.737 1040.54 476.537 1040.76C477.353 1040.97 477.929 1041.31 478.265 1041.79C478.601 1042.26 478.769 1042.91 478.769 1043.76V1045.68C478.769 1046.11 478.593 1046.52 478.241 1046.9C477.905 1047.29 477.505 1047.55 477.041 1047.7V1047.82C477.649 1047.88 478.201 1048.14 478.697 1048.61C479.209 1049.06 479.465 1049.56 479.465 1050.12V1052.52C479.465 1053.78 478.961 1054.68 477.953 1055.21C476.945 1055.74 475.385 1056 473.273 1056H466.793V1040.42ZM473.105 1046.76C473.697 1046.76 474.137 1046.71 474.425 1046.62C474.713 1046.52 474.905 1046.37 475.001 1046.16C475.113 1045.94 475.169 1045.62 475.169 1045.2V1044.43C475.169 1044.06 475.121 1043.79 475.025 1043.62C474.929 1043.42 474.729 1043.29 474.425 1043.21C474.137 1043.13 473.673 1043.09 473.033 1043.09H470.537V1046.76H473.105ZM473.201 1053.34C474.113 1053.34 474.761 1053.23 475.145 1053.02C475.529 1052.82 475.721 1052.48 475.721 1052.02V1050.77C475.721 1050.19 475.569 1049.78 475.265 1049.54C474.977 1049.3 474.457 1049.18 473.705 1049.18H470.537V1053.34H473.201ZM481.98 1040.18H485.484V1043.02H481.98V1040.18ZM481.98 1044.38H485.484V1056H481.98V1044.38ZM488.657 1044.38H492.113V1045.8C492.385 1044.7 493.625 1044.14 495.833 1044.14C497.321 1044.14 498.361 1044.42 498.953 1044.96C499.561 1045.49 499.865 1046.33 499.865 1047.48V1056H496.361V1047.94C496.361 1047.49 496.313 1047.15 496.217 1046.93C496.137 1046.7 495.961 1046.54 495.689 1046.45C495.433 1046.35 495.033 1046.3 494.489 1046.3C493.801 1046.3 493.297 1046.35 492.977 1046.45C492.657 1046.53 492.441 1046.68 492.329 1046.9C492.217 1047.13 492.161 1047.47 492.161 1047.94V1056H488.657V1044.38ZM506.219 1056.24C505.131 1056.24 504.315 1056.14 503.771 1055.95C503.243 1055.74 502.867 1055.38 502.643 1054.87C502.435 1054.34 502.331 1053.56 502.331 1052.52C502.331 1051.59 502.443 1050.86 502.667 1050.34C502.907 1049.81 503.283 1049.43 503.795 1049.21C504.323 1048.97 505.043 1048.85 505.955 1048.85H509.891V1048.06C509.891 1047.56 509.819 1047.19 509.675 1046.95C509.547 1046.71 509.299 1046.54 508.931 1046.45C508.579 1046.35 508.043 1046.3 507.323 1046.3C506.331 1046.3 504.971 1046.4 503.243 1046.59V1044.38C504.507 1044.22 505.987 1044.14 507.683 1044.14C509.171 1044.14 510.315 1044.26 511.115 1044.48C511.931 1044.7 512.515 1045.09 512.867 1045.63C513.219 1046.18 513.395 1046.97 513.395 1048.01V1056H509.963V1054.94C509.691 1055.41 509.323 1055.74 508.859 1055.93C508.395 1056.14 507.515 1056.24 506.219 1056.24ZM507.587 1054.06C508.291 1054.06 508.795 1054.03 509.099 1053.98C509.323 1053.95 509.475 1053.9 509.555 1053.84C509.651 1053.78 509.731 1053.67 509.795 1053.53C509.859 1053.42 509.891 1053.25 509.891 1053.02V1050.77H507.491C506.947 1050.77 506.563 1050.81 506.339 1050.89C506.115 1050.95 505.963 1051.1 505.883 1051.32C505.803 1051.53 505.763 1051.9 505.763 1052.45C505.763 1052.98 505.803 1053.34 505.883 1053.55C505.963 1053.76 506.115 1053.9 506.339 1053.96C506.579 1054.02 506.995 1054.06 507.587 1054.06ZM516.477 1044.38H519.813V1046.42C519.813 1046.06 519.965 1045.7 520.269 1045.34C520.573 1044.99 520.957 1044.7 521.421 1044.48C521.901 1044.26 522.373 1044.14 522.837 1044.14H524.085V1047.05H522.885C521.893 1047.05 521.157 1047.2 520.677 1047.5C520.213 1047.81 519.981 1048.31 519.981 1049.02V1056H516.477V1044.38ZM529.304 1055.9L524.672 1044.38H528.488L531.104 1052.59L533.48 1044.38H537.104L530.744 1060.99H527.192L529.304 1055.9ZM549.552 1056.24C548.064 1056.24 546.224 1056.1 544.032 1055.81V1052.95C546.752 1053.37 548.608 1053.58 549.6 1053.58C551.68 1053.58 552.72 1053.04 552.72 1051.97V1050.96C552.72 1050.45 552.568 1050.06 552.264 1049.78C551.976 1049.51 551.448 1049.38 550.68 1049.38H548.856C545.432 1049.38 543.72 1048.02 543.72 1045.3V1044.14C543.72 1042.78 544.288 1041.78 545.424 1041.14C546.56 1040.5 548.36 1040.18 550.824 1040.18C552.104 1040.18 553.728 1040.29 555.696 1040.5V1043.28C553.28 1042.99 551.616 1042.85 550.704 1042.85C549.44 1042.85 548.592 1042.95 548.16 1043.16C547.696 1043.38 547.464 1043.74 547.464 1044.22V1045.32C547.464 1046.14 548.152 1046.54 549.528 1046.54H551.4C553.176 1046.54 554.464 1046.87 555.264 1047.53C556.064 1048.18 556.464 1049.18 556.464 1050.53V1051.56C556.464 1053.42 555.8 1054.67 554.472 1055.33C553.832 1055.66 553.12 1055.9 552.336 1056.02C551.568 1056.17 550.64 1056.24 549.552 1056.24ZM564.755 1056.24C560.643 1056.24 558.587 1054.98 558.587 1052.47V1048.3C558.587 1046.84 559.051 1045.78 559.979 1045.13C560.923 1044.47 562.371 1044.14 564.323 1044.14C566.163 1044.14 567.507 1044.46 568.355 1045.1C569.219 1045.73 569.651 1046.79 569.651 1048.3V1051.13H562.115V1052.18C562.115 1052.86 562.355 1053.34 562.835 1053.62C563.315 1053.91 564.179 1054.06 565.427 1054.06C566.579 1054.06 567.875 1053.89 569.315 1053.55V1055.78C567.891 1056.09 566.371 1056.24 564.755 1056.24ZM566.315 1049.14V1047.46C566.315 1047.07 566.155 1046.78 565.835 1046.59C565.531 1046.4 565.011 1046.3 564.275 1046.3C563.427 1046.3 562.859 1046.4 562.571 1046.59C562.267 1046.8 562.115 1047.09 562.115 1047.46V1049.14H566.315ZM575.617 1056.24C574.529 1056.24 573.713 1056.14 573.169 1055.95C572.641 1055.74 572.265 1055.38 572.041 1054.87C571.833 1054.34 571.729 1053.56 571.729 1052.52C571.729 1051.59 571.841 1050.86 572.065 1050.34C572.305 1049.81 572.681 1049.43 573.193 1049.21C573.721 1048.97 574.441 1048.85 575.353 1048.85H579.289V1048.06C579.289 1047.56 579.217 1047.19 579.073 1046.95C578.945 1046.71 578.697 1046.54 578.329 1046.45C577.977 1046.35 577.441 1046.3 576.721 1046.3C575.729 1046.3 574.369 1046.4 572.641 1046.59V1044.38C573.905 1044.22 575.385 1044.14 577.081 1044.14C578.569 1044.14 579.713 1044.26 580.513 1044.48C581.329 1044.7 581.913 1045.09 582.265 1045.63C582.617 1046.18 582.793 1046.97 582.793 1048.01V1056H579.361V1054.94C579.089 1055.41 578.721 1055.74 578.257 1055.93C577.793 1056.14 576.913 1056.24 575.617 1056.24ZM576.985 1054.06C577.689 1054.06 578.193 1054.03 578.497 1053.98C578.721 1053.95 578.873 1053.9 578.953 1053.84C579.049 1053.78 579.129 1053.67 579.193 1053.53C579.257 1053.42 579.289 1053.25 579.289 1053.02V1050.77H576.889C576.345 1050.77 575.961 1050.81 575.737 1050.89C575.513 1050.95 575.361 1051.1 575.281 1051.32C575.201 1051.53 575.161 1051.9 575.161 1052.45C575.161 1052.98 575.201 1053.34 575.281 1053.55C575.361 1053.76 575.513 1053.9 575.737 1053.96C575.977 1054.02 576.393 1054.06 576.985 1054.06ZM585.876 1044.38H589.212V1046.42C589.212 1046.06 589.364 1045.7 589.668 1045.34C589.972 1044.99 590.356 1044.7 590.82 1044.48C591.3 1044.26 591.772 1044.14 592.236 1044.14H593.484V1047.05H592.284C591.292 1047.05 590.556 1047.2 590.076 1047.5C589.612 1047.81 589.38 1048.31 589.38 1049.02V1056H585.876V1044.38ZM601.079 1056.24C600.471 1056.24 599.991 1056.22 599.639 1056.19C599.287 1056.18 598.855 1056.14 598.343 1056.07C597.831 1056.01 597.407 1055.9 597.071 1055.74C596.751 1055.58 596.415 1055.34 596.063 1055.02C595.407 1054.47 595.079 1053.54 595.079 1052.23V1048.37C595.079 1047.31 595.319 1046.43 595.799 1045.73C595.975 1045.47 596.231 1045.24 596.567 1045.03C596.919 1044.81 597.271 1044.63 597.623 1044.5C597.911 1044.41 598.295 1044.33 598.775 1044.26C599.255 1044.2 599.679 1044.16 600.047 1044.14H601.319C602.215 1044.14 603.391 1044.29 604.847 1044.58V1046.88C603.199 1046.5 601.935 1046.3 601.055 1046.3C599.439 1046.3 598.631 1046.85 598.631 1047.94V1052.21C598.631 1053.44 599.519 1054.06 601.295 1054.06C602.159 1054.06 603.399 1053.88 605.015 1053.53V1055.83C603.559 1056.1 602.247 1056.24 601.079 1056.24ZM606.993 1039.2H610.497V1045.8C610.721 1044.7 611.945 1044.14 614.169 1044.14C615.657 1044.14 616.697 1044.42 617.289 1044.96C617.897 1045.49 618.201 1046.33 618.201 1047.48V1056H614.697V1047.89C614.697 1047.44 614.649 1047.11 614.553 1046.9C614.473 1046.68 614.305 1046.53 614.049 1046.45C613.793 1046.35 613.385 1046.3 612.825 1046.3C612.137 1046.3 611.633 1046.34 611.313 1046.42C610.993 1046.5 610.777 1046.66 610.665 1046.88C610.553 1047.09 610.497 1047.42 610.497 1047.89V1056H606.993V1039.2ZM630.542 1043.09H625.742V1040.42H639.062V1043.09H634.286V1056H630.542V1043.09ZM641.071 1044.38H644.407V1046.42C644.407 1046.06 644.559 1045.7 644.863 1045.34C645.167 1044.99 645.551 1044.7 646.015 1044.48C646.495 1044.26 646.967 1044.14 647.431 1044.14H648.679V1047.05H647.479C646.487 1047.05 645.751 1047.2 645.271 1047.5C644.807 1047.81 644.575 1048.31 644.575 1049.02V1056H641.071V1044.38ZM656.442 1056.24C652.33 1056.24 650.274 1054.98 650.274 1052.47V1048.3C650.274 1046.84 650.738 1045.78 651.666 1045.13C652.61 1044.47 654.058 1044.14 656.01 1044.14C657.85 1044.14 659.194 1044.46 660.042 1045.1C660.906 1045.73 661.338 1046.79 661.338 1048.3V1051.13H653.802V1052.18C653.802 1052.86 654.042 1053.34 654.522 1053.62C655.002 1053.91 655.866 1054.06 657.114 1054.06C658.266 1054.06 659.562 1053.89 661.002 1053.55V1055.78C659.578 1056.09 658.058 1056.24 656.442 1056.24ZM658.002 1049.14V1047.46C658.002 1047.07 657.842 1046.78 657.522 1046.59C657.218 1046.4 656.698 1046.3 655.962 1046.3C655.114 1046.3 654.546 1046.4 654.258 1046.59C653.954 1046.8 653.802 1047.09 653.802 1047.46V1049.14H658.002ZM669.848 1056.24C665.736 1056.24 663.68 1054.98 663.68 1052.47V1048.3C663.68 1046.84 664.144 1045.78 665.072 1045.13C666.016 1044.47 667.464 1044.14 669.416 1044.14C671.256 1044.14 672.6 1044.46 673.448 1045.1C674.312 1045.73 674.744 1046.79 674.744 1048.3V1051.13H667.208V1052.18C667.208 1052.86 667.448 1053.34 667.928 1053.62C668.408 1053.91 669.272 1054.06 670.52 1054.06C671.672 1054.06 672.968 1053.89 674.408 1053.55V1055.78C672.984 1056.09 671.464 1056.24 669.848 1056.24ZM671.408 1049.14V1047.46C671.408 1047.07 671.248 1046.78 670.928 1046.59C670.624 1046.4 670.104 1046.3 669.368 1046.3C668.52 1046.3 667.952 1046.4 667.664 1046.59C667.36 1046.8 667.208 1047.09 667.208 1047.46V1049.14H671.408Z" fill="black"/>
</svg>
