<svg width="784" height="937" viewBox="0 0 784 937" fill="none" xmlns="http://www.w3.org/2000/svg">
<rect x="12" width="759" height="77" rx="5" fill="#FEC900"/>
<path d="M68.5799 44.094H60.7799V41.104L67.7219 30.626H72.0119V41.364H73.8319V44.094H72.0119V47.5H68.5799V44.094ZM68.5799 41.364V34.214L64.0299 41.364H68.5799ZM76.486 43.912H80.542V47.5H76.486V43.912ZM129.54 47.76C124.669 47.76 122.234 46.1307 122.234 42.872V30.626H126.29V42.872C126.29 43.6347 126.532 44.1633 127.018 44.458C127.52 44.7353 128.378 44.874 129.592 44.874C130.788 44.874 131.62 44.7353 132.088 44.458C132.573 44.1633 132.816 43.6347 132.816 42.872V30.626H136.872V42.872C136.872 46.1307 134.428 47.76 129.54 47.76ZM145.016 47.76C143.664 47.76 142.008 47.63 140.05 47.37V44.848C142.459 45.212 144.132 45.394 145.068 45.394C145.865 45.394 146.454 45.316 146.836 45.16C147.217 45.004 147.408 44.718 147.408 44.302V43.522C147.408 43.0887 147.286 42.7853 147.044 42.612C146.801 42.4213 146.324 42.326 145.614 42.326H143.976C142.641 42.326 141.61 42.066 140.882 41.546C140.154 41.0087 139.79 40.2287 139.79 39.206V37.672C139.79 36.58 140.31 35.8087 141.35 35.358C142.39 34.89 143.958 34.656 146.056 34.656C146.888 34.656 148.378 34.734 150.528 34.89V37.308C147.824 37.1 146.298 36.996 145.952 36.996C144.929 36.996 144.262 37.0653 143.95 37.204C143.672 37.36 143.534 37.646 143.534 38.062V38.738C143.534 38.9633 143.646 39.1627 143.872 39.336C144.097 39.492 144.426 39.57 144.86 39.57H146.524C149.609 39.57 151.152 40.5753 151.152 42.586V44.172C151.152 44.7787 151.039 45.3073 150.814 45.758C150.588 46.2087 150.294 46.564 149.93 46.824C149.583 47.0667 149.132 47.2573 148.578 47.396C148.04 47.5347 147.477 47.63 146.888 47.682C146.35 47.734 145.726 47.76 145.016 47.76ZM160.288 47.76C155.833 47.76 153.606 46.3993 153.606 43.678V39.154C153.606 37.5767 154.108 36.4327 155.114 35.722C156.136 35.0113 157.705 34.656 159.82 34.656C161.813 34.656 163.269 35.0027 164.188 35.696C165.124 36.372 165.592 37.5247 165.592 39.154V42.222H157.428V43.366C157.428 44.094 157.688 44.614 158.208 44.926C158.728 45.238 159.664 45.394 161.016 45.394C162.264 45.394 163.668 45.212 165.228 44.848V47.266C163.685 47.5953 162.038 47.76 160.288 47.76ZM161.978 40.064V38.244C161.978 37.828 161.804 37.516 161.458 37.308C161.128 37.1 160.565 36.996 159.768 36.996C158.849 36.996 158.234 37.1 157.922 37.308C157.592 37.5333 157.428 37.8453 157.428 38.244V40.064H161.978ZM173.329 47.76C171.838 47.76 170.738 47.656 170.027 47.448C169.316 47.2227 168.822 46.8067 168.545 46.2C168.268 45.5933 168.129 44.6487 168.129 43.366V38.452C168.129 37.0653 168.519 36.086 169.299 35.514C170.096 34.942 171.379 34.656 173.147 34.656C173.979 34.656 174.629 34.708 175.097 34.812C175.582 34.8987 175.972 35.0633 176.267 35.306C176.562 35.5313 176.865 35.8693 177.177 36.32V29.3H180.973V47.5H177.307V46.07C176.995 46.5727 176.709 46.928 176.449 47.136C176.206 47.3267 175.86 47.474 175.409 47.578C174.941 47.6993 174.248 47.76 173.329 47.76ZM174.291 45.394C175.14 45.394 175.764 45.3507 176.163 45.264C176.562 45.1773 176.83 45.0213 176.969 44.796C177.108 44.5533 177.177 44.198 177.177 43.73V38.66C177.177 38.2267 177.099 37.8973 176.943 37.672C176.804 37.4293 176.544 37.256 176.163 37.152C175.799 37.048 175.244 36.996 174.499 36.996C173.702 36.996 173.13 37.048 172.783 37.152C172.436 37.2387 172.202 37.4033 172.081 37.646C171.977 37.8713 171.925 38.2527 171.925 38.79V43.6C171.925 44.0853 171.977 44.458 172.081 44.718C172.202 44.9607 172.428 45.134 172.757 45.238C173.086 45.342 173.598 45.394 174.291 45.394ZM191.266 37.256H188.9V34.916H191.266V33.018C191.266 31.9953 191.43 31.198 191.76 30.626C192.106 30.0367 192.626 29.6293 193.32 29.404C194.03 29.1613 194.975 29.04 196.154 29.04C196.795 29.04 197.74 29.1093 198.988 29.248V31.588C197.878 31.4493 197.133 31.38 196.752 31.38C196.11 31.38 195.668 31.484 195.426 31.692C195.183 31.8827 195.062 32.2553 195.062 32.81V34.916H198.52V37.256H195.062V47.5H191.266V37.256ZM206.416 47.76C205.636 47.76 204.994 47.734 204.492 47.682C203.989 47.63 203.452 47.526 202.88 47.37C202.256 47.1967 201.753 46.954 201.372 46.642C200.99 46.3127 200.67 45.8533 200.41 45.264C200.15 44.692 200.02 43.9987 200.02 43.184V39.466C200.02 38.634 200.15 37.906 200.41 37.282C200.67 36.658 201.008 36.1727 201.424 35.826C201.788 35.5313 202.264 35.2887 202.854 35.098C203.46 34.89 204.05 34.76 204.622 34.708C205.28 34.6733 205.878 34.656 206.416 34.656C207.213 34.656 207.846 34.682 208.314 34.734C208.799 34.7687 209.328 34.8727 209.9 35.046C210.524 35.2367 211.026 35.4967 211.408 35.826C211.806 36.1553 212.144 36.6233 212.422 37.23C212.682 37.854 212.812 38.5993 212.812 39.466V43.184C212.812 43.964 212.682 44.6487 212.422 45.238C212.179 45.8273 211.858 46.2867 211.46 46.616C211.113 46.9107 210.636 47.1533 210.03 47.344C209.44 47.5173 208.86 47.63 208.288 47.682C207.768 47.734 207.144 47.76 206.416 47.76ZM206.416 45.394C207.126 45.394 207.664 45.342 208.028 45.238C208.392 45.1167 208.643 44.9347 208.782 44.692C208.938 44.4493 209.016 44.094 209.016 43.626V38.868C209.016 38.1747 208.834 37.6893 208.47 37.412C208.106 37.1347 207.421 36.996 206.416 36.996C205.41 36.996 204.726 37.1347 204.362 37.412C203.998 37.6893 203.816 38.1747 203.816 38.868V43.626C203.816 44.094 203.885 44.4493 204.024 44.692C204.18 44.9347 204.44 45.1167 204.804 45.238C205.168 45.342 205.705 45.394 206.416 45.394ZM215.77 34.916H219.384V37.126C219.384 36.7273 219.549 36.3373 219.878 35.956C220.208 35.5747 220.624 35.2627 221.126 35.02C221.646 34.7773 222.158 34.656 222.66 34.656H224.012V37.802H222.712C221.638 37.802 220.84 37.9667 220.32 38.296C219.818 38.6253 219.566 39.1713 219.566 39.934V47.5H215.77V34.916ZM232.097 34.916H235.685V36.164C235.91 35.6093 236.352 35.2193 237.011 34.994C237.669 34.7687 238.649 34.656 239.949 34.656C241.041 34.656 241.916 34.7427 242.575 34.916C243.251 35.0893 243.762 35.3667 244.109 35.748C244.438 36.1293 244.663 36.554 244.785 37.022C244.906 37.4727 244.967 38.0967 244.967 38.894V43.028C244.967 44.276 244.785 45.238 244.421 45.914C244.057 46.59 243.493 47.0667 242.731 47.344C241.985 47.6213 240.963 47.76 239.663 47.76C238.415 47.76 237.513 47.656 236.959 47.448C236.404 47.24 236.049 46.8327 235.893 46.226V52.908H232.097V34.916ZM238.493 45.394C239.238 45.394 239.801 45.342 240.183 45.238C240.564 45.134 240.824 44.952 240.963 44.692C241.101 44.432 241.171 44.042 241.171 43.522V38.868C241.171 38.296 241.11 37.8887 240.989 37.646C240.867 37.386 240.625 37.2127 240.261 37.126C239.897 37.0393 239.299 36.996 238.467 36.996C237.756 36.996 237.21 37.0567 236.829 37.178C236.465 37.2993 236.213 37.49 236.075 37.75C235.953 38.01 235.893 38.3827 235.893 38.868V43.522C235.893 44.042 235.953 44.432 236.075 44.692C236.213 44.952 236.465 45.134 236.829 45.238C237.193 45.342 237.747 45.394 238.493 45.394ZM251.502 47.76C250.324 47.76 249.44 47.656 248.85 47.448C248.278 47.2227 247.871 46.8327 247.628 46.278C247.403 45.706 247.29 44.8567 247.29 43.73C247.29 42.7247 247.412 41.936 247.654 41.364C247.914 40.792 248.322 40.3847 248.876 40.142C249.448 39.882 250.228 39.752 251.216 39.752H255.48V38.894C255.48 38.3567 255.402 37.958 255.246 37.698C255.108 37.438 254.839 37.256 254.44 37.152C254.059 37.048 253.478 36.996 252.698 36.996C251.624 36.996 250.15 37.1 248.278 37.308V34.916C249.648 34.7427 251.251 34.656 253.088 34.656C254.7 34.656 255.94 34.7773 256.806 35.02C257.69 35.2627 258.323 35.6787 258.704 36.268C259.086 36.8573 259.276 37.7153 259.276 38.842V47.5H255.558V46.356C255.264 46.8587 254.865 47.214 254.362 47.422C253.86 47.6473 252.906 47.76 251.502 47.76ZM252.984 45.394C253.747 45.394 254.293 45.368 254.622 45.316C254.865 45.2813 255.03 45.2293 255.116 45.16C255.22 45.0907 255.307 44.978 255.376 44.822C255.446 44.7007 255.48 44.5187 255.48 44.276V41.832H252.88C252.291 41.832 251.875 41.8753 251.632 41.962C251.39 42.0313 251.225 42.1873 251.138 42.43C251.052 42.6553 251.008 43.0627 251.008 43.652C251.008 44.224 251.052 44.6227 251.138 44.848C251.225 45.0733 251.39 45.2207 251.632 45.29C251.892 45.3593 252.343 45.394 252.984 45.394ZM267.322 47.76C265.97 47.76 264.315 47.63 262.356 47.37V44.848C264.765 45.212 266.438 45.394 267.374 45.394C268.171 45.394 268.761 45.316 269.142 45.16C269.523 45.004 269.714 44.718 269.714 44.302V43.522C269.714 43.0887 269.593 42.7853 269.35 42.612C269.107 42.4213 268.631 42.326 267.92 42.326H266.282C264.947 42.326 263.916 42.066 263.188 41.546C262.46 41.0087 262.096 40.2287 262.096 39.206V37.672C262.096 36.58 262.616 35.8087 263.656 35.358C264.696 34.89 266.265 34.656 268.362 34.656C269.194 34.656 270.685 34.734 272.834 34.89V37.308C270.13 37.1 268.605 36.996 268.258 36.996C267.235 36.996 266.568 37.0653 266.256 37.204C265.979 37.36 265.84 37.646 265.84 38.062V38.738C265.84 38.9633 265.953 39.1627 266.178 39.336C266.403 39.492 266.733 39.57 267.166 39.57H268.83C271.915 39.57 273.458 40.5753 273.458 42.586V44.172C273.458 44.7787 273.345 45.3073 273.12 45.758C272.895 46.2087 272.6 46.564 272.236 46.824C271.889 47.0667 271.439 47.2573 270.884 47.396C270.347 47.5347 269.783 47.63 269.194 47.682C268.657 47.734 268.033 47.76 267.322 47.76ZM280.982 47.76C279.63 47.76 277.975 47.63 276.016 47.37V44.848C278.426 45.212 280.098 45.394 281.034 45.394C281.832 45.394 282.421 45.316 282.802 45.16C283.184 45.004 283.374 44.718 283.374 44.302V43.522C283.374 43.0887 283.253 42.7853 283.01 42.612C282.768 42.4213 282.291 42.326 281.58 42.326H279.942C278.608 42.326 277.576 42.066 276.848 41.546C276.12 41.0087 275.756 40.2287 275.756 39.206V37.672C275.756 36.58 276.276 35.8087 277.316 35.358C278.356 34.89 279.925 34.656 282.022 34.656C282.854 34.656 284.345 34.734 286.494 34.89V37.308C283.79 37.1 282.265 36.996 281.918 36.996C280.896 36.996 280.228 37.0653 279.916 37.204C279.639 37.36 279.5 37.646 279.5 38.062V38.738C279.5 38.9633 279.613 39.1627 279.838 39.336C280.064 39.492 280.393 39.57 280.826 39.57H282.49C285.576 39.57 287.118 40.5753 287.118 42.586V44.172C287.118 44.7787 287.006 45.3073 286.78 45.758C286.555 46.2087 286.26 46.564 285.896 46.824C285.55 47.0667 285.099 47.2573 284.544 47.396C284.007 47.5347 283.444 47.63 282.854 47.682C282.317 47.734 281.693 47.76 280.982 47.76ZM290.04 30.366H293.836V33.434H290.04V30.366ZM290.04 34.916H293.836V47.5H290.04V34.916ZM297.274 34.916H301.018V36.45C301.313 35.254 302.656 34.656 305.048 34.656C306.66 34.656 307.787 34.9507 308.428 35.54C309.087 36.112 309.416 37.022 309.416 38.27V47.5H305.62V38.764C305.62 38.2787 305.568 37.9147 305.464 37.672C305.378 37.4293 305.187 37.256 304.892 37.152C304.615 37.048 304.182 36.996 303.592 36.996C302.847 36.996 302.301 37.048 301.954 37.152C301.608 37.2387 301.374 37.4033 301.252 37.646C301.131 37.8887 301.07 38.2613 301.07 38.764V47.5H297.274V34.916ZM317.833 53.22C315.788 53.22 314.271 53.1593 313.283 53.038V50.49C314.913 50.7153 316.429 50.828 317.833 50.828C319.116 50.828 320.035 50.62 320.589 50.204C321.144 49.788 321.421 49.0947 321.421 48.124V46.096C321.109 46.5467 320.806 46.8933 320.511 47.136C320.217 47.3613 319.827 47.5173 319.341 47.604C318.873 47.708 318.223 47.76 317.391 47.76C316.161 47.76 315.181 47.6473 314.453 47.422C313.725 47.1793 313.197 46.7893 312.867 46.252C312.538 45.6973 312.373 44.9347 312.373 43.964V39.05C312.373 37.8887 312.521 36.996 312.815 36.372C313.127 35.748 313.647 35.306 314.375 35.046C315.121 34.786 316.187 34.656 317.573 34.656C318.475 34.656 319.168 34.708 319.653 34.812C320.121 34.916 320.477 35.072 320.719 35.28C320.962 35.488 321.239 35.8433 321.551 36.346V34.916H325.217V48.176C325.217 49.9613 324.602 51.244 323.371 52.024C322.158 52.8213 320.312 53.22 317.833 53.22ZM318.743 45.394C319.489 45.394 320.043 45.342 320.407 45.238C320.789 45.134 321.049 44.9693 321.187 44.744C321.343 44.5013 321.421 44.1633 321.421 43.73V38.66C321.421 38.192 321.352 37.8453 321.213 37.62C321.075 37.3773 320.806 37.2127 320.407 37.126C320.009 37.0393 319.385 36.996 318.535 36.996C317.842 36.996 317.331 37.048 317.001 37.152C316.672 37.256 316.447 37.438 316.325 37.698C316.221 37.9407 316.169 38.3047 316.169 38.79V43.6C316.169 44.1373 316.221 44.5273 316.325 44.77C316.447 44.9953 316.681 45.16 317.027 45.264C317.374 45.3507 317.946 45.394 318.743 45.394ZM340.58 47.76C339.8 47.76 339.158 47.734 338.656 47.682C338.153 47.63 337.616 47.526 337.044 47.37C336.42 47.1967 335.917 46.954 335.536 46.642C335.154 46.3127 334.834 45.8533 334.574 45.264C334.314 44.692 334.184 43.9987 334.184 43.184V39.466C334.184 38.634 334.314 37.906 334.574 37.282C334.834 36.658 335.172 36.1727 335.588 35.826C335.952 35.5313 336.428 35.2887 337.018 35.098C337.624 34.89 338.214 34.76 338.786 34.708C339.444 34.6733 340.042 34.656 340.58 34.656C341.377 34.656 342.01 34.682 342.478 34.734C342.963 34.7687 343.492 34.8727 344.064 35.046C344.688 35.2367 345.19 35.4967 345.572 35.826C345.97 36.1553 346.308 36.6233 346.586 37.23C346.846 37.854 346.976 38.5993 346.976 39.466V43.184C346.976 43.964 346.846 44.6487 346.586 45.238C346.343 45.8273 346.022 46.2867 345.624 46.616C345.277 46.9107 344.8 47.1533 344.194 47.344C343.604 47.5173 343.024 47.63 342.452 47.682C341.932 47.734 341.308 47.76 340.58 47.76ZM340.58 45.394C341.29 45.394 341.828 45.342 342.192 45.238C342.556 45.1167 342.807 44.9347 342.946 44.692C343.102 44.4493 343.18 44.094 343.18 43.626V38.868C343.18 38.1747 342.998 37.6893 342.634 37.412C342.27 37.1347 341.585 36.996 340.58 36.996C339.574 36.996 338.89 37.1347 338.526 37.412C338.162 37.6893 337.98 38.1747 337.98 38.868V43.626C337.98 44.094 338.049 44.4493 338.188 44.692C338.344 44.9347 338.604 45.1167 338.968 45.238C339.332 45.342 339.869 45.394 340.58 45.394ZM356.305 47.76C354.71 47.76 353.445 47.5953 352.509 47.266C351.59 46.9367 350.931 46.434 350.533 45.758C350.134 45.0647 349.935 44.1547 349.935 43.028V29.3H353.731V36.164C353.956 35.592 354.372 35.202 354.979 34.994C355.585 34.7687 356.53 34.656 357.813 34.656C358.905 34.656 359.78 34.7427 360.439 34.916C361.115 35.0893 361.626 35.3667 361.973 35.748C362.302 36.1293 362.527 36.554 362.649 37.022C362.77 37.4727 362.831 38.0967 362.831 38.894V43.028C362.831 44.7267 362.319 45.94 361.297 46.668C360.274 47.396 358.61 47.76 356.305 47.76ZM356.357 45.394C357.102 45.394 357.665 45.342 358.047 45.238C358.428 45.134 358.688 44.952 358.827 44.692C358.965 44.432 359.035 44.042 359.035 43.522V38.868C359.035 38.296 358.974 37.8887 358.853 37.646C358.731 37.386 358.489 37.2127 358.125 37.126C357.761 37.0393 357.163 36.996 356.331 36.996C355.62 36.996 355.074 37.0567 354.693 37.178C354.329 37.2993 354.077 37.49 353.939 37.75C353.8 38.01 353.731 38.3827 353.731 38.868V43.522C353.731 44.042 353.791 44.432 353.913 44.692C354.051 44.952 354.303 45.134 354.667 45.238C355.048 45.342 355.611 45.394 356.357 45.394ZM365.804 30.366H369.6V33.434H365.804V30.366ZM363.152 53.168V50.698C363.221 50.7153 363.377 50.724 363.62 50.724C364.278 50.724 364.755 50.672 365.05 50.568C365.344 50.4813 365.544 50.2907 365.648 49.996C365.752 49.7013 365.804 49.216 365.804 48.54V34.916H369.6V49.398C369.6 50.8367 369.175 51.8333 368.326 52.388C367.494 52.9427 366.176 53.22 364.374 53.22L363.152 53.168ZM379.256 47.76C374.802 47.76 372.574 46.3993 372.574 43.678V39.154C372.574 37.5767 373.077 36.4327 374.082 35.722C375.105 35.0113 376.674 34.656 378.788 34.656C380.782 34.656 382.238 35.0027 383.156 35.696C384.092 36.372 384.56 37.5247 384.56 39.154V42.222H376.396V43.366C376.396 44.094 376.656 44.614 377.176 44.926C377.696 45.238 378.632 45.394 379.984 45.394C381.232 45.394 382.636 45.212 384.196 44.848V47.266C382.654 47.5953 381.007 47.76 379.256 47.76ZM380.946 40.064V38.244C380.946 37.828 380.773 37.516 380.426 37.308C380.097 37.1 379.534 36.996 378.736 36.996C377.818 36.996 377.202 37.1 376.89 37.308C376.561 37.5333 376.396 37.8453 376.396 38.244V40.064H380.946ZM393.598 47.76C392.939 47.76 392.419 47.7427 392.038 47.708C391.657 47.6907 391.189 47.6473 390.634 47.578C390.079 47.5087 389.62 47.3873 389.256 47.214C388.909 47.0407 388.545 46.7807 388.164 46.434C387.453 45.8447 387.098 44.8393 387.098 43.418V39.232C387.098 38.088 387.358 37.1347 387.878 36.372C388.069 36.0947 388.346 35.8433 388.71 35.618C389.091 35.3753 389.473 35.1847 389.854 35.046C390.166 34.942 390.582 34.8553 391.102 34.786C391.622 34.7167 392.081 34.6733 392.48 34.656H393.858C394.829 34.656 396.103 34.812 397.68 35.124V37.62C395.895 37.204 394.525 36.996 393.572 36.996C391.821 36.996 390.946 37.5853 390.946 38.764V43.392C390.946 44.7267 391.908 45.394 393.832 45.394C394.768 45.394 396.111 45.2033 397.862 44.822V47.318C396.285 47.6127 394.863 47.76 393.598 47.76ZM406.297 47.76C405.655 47.76 405.118 47.734 404.685 47.682C404.251 47.63 403.818 47.526 403.385 47.37C402.899 47.214 402.501 46.9973 402.189 46.72C401.894 46.4427 401.651 46.0613 401.461 45.576C401.253 45.0733 401.149 44.4927 401.149 43.834V37.256H398.601V34.916H401.149V31.276H404.945V34.916H408.403V37.256H404.945V43.184C404.945 43.7907 404.997 44.25 405.101 44.562C405.205 44.8567 405.404 45.0733 405.699 45.212C405.993 45.3333 406.444 45.394 407.051 45.394C407.293 45.394 407.744 45.3507 408.403 45.264V47.63C407.588 47.7167 406.886 47.76 406.297 47.76ZM415.299 47.76C413.947 47.76 412.291 47.63 410.333 47.37V44.848C412.742 45.212 414.415 45.394 415.351 45.394C416.148 45.394 416.737 45.316 417.119 45.16C417.5 45.004 417.691 44.718 417.691 44.302V43.522C417.691 43.0887 417.569 42.7853 417.327 42.612C417.084 42.4213 416.607 42.326 415.897 42.326H414.259C412.924 42.326 411.893 42.066 411.165 41.546C410.437 41.0087 410.073 40.2287 410.073 39.206V37.672C410.073 36.58 410.593 35.8087 411.633 35.358C412.673 34.89 414.241 34.656 416.339 34.656C417.171 34.656 418.661 34.734 420.811 34.89V37.308C418.107 37.1 416.581 36.996 416.235 36.996C415.212 36.996 414.545 37.0653 414.233 37.204C413.955 37.36 413.817 37.646 413.817 38.062V38.738C413.817 38.9633 413.929 39.1627 414.155 39.336C414.38 39.492 414.709 39.57 415.143 39.57H416.807C419.892 39.57 421.435 40.5753 421.435 42.586V44.172C421.435 44.7787 421.322 45.3073 421.097 45.758C420.871 46.2087 420.577 46.564 420.213 46.824C419.866 47.0667 419.415 47.2573 418.861 47.396C418.323 47.5347 417.76 47.63 417.171 47.682C416.633 47.734 416.009 47.76 415.299 47.76ZM436.615 47.76C435.02 47.76 433.755 47.5953 432.819 47.266C431.9 46.9367 431.242 46.434 430.843 45.758C430.444 45.0647 430.245 44.1547 430.245 43.028V29.3H434.041V36.164C434.266 35.592 434.682 35.202 435.289 34.994C435.896 34.7687 436.84 34.656 438.123 34.656C439.215 34.656 440.09 34.7427 440.749 34.916C441.425 35.0893 441.936 35.3667 442.283 35.748C442.612 36.1293 442.838 36.554 442.959 37.022C443.08 37.4727 443.141 38.0967 443.141 38.894V43.028C443.141 44.7267 442.63 45.94 441.607 46.668C440.584 47.396 438.92 47.76 436.615 47.76ZM436.667 45.394C437.412 45.394 437.976 45.342 438.357 45.238C438.738 45.134 438.998 44.952 439.137 44.692C439.276 44.432 439.345 44.042 439.345 43.522V38.868C439.345 38.296 439.284 37.8887 439.163 37.646C439.042 37.386 438.799 37.2127 438.435 37.126C438.071 37.0393 437.473 36.996 436.641 36.996C435.93 36.996 435.384 37.0567 435.003 37.178C434.639 37.2993 434.388 37.49 434.249 37.75C434.11 38.01 434.041 38.3827 434.041 38.868V43.522C434.041 44.042 434.102 44.432 434.223 44.692C434.362 44.952 434.613 45.134 434.977 45.238C435.358 45.342 435.922 45.394 436.667 45.394ZM452.432 47.76C447.978 47.76 445.75 46.3993 445.75 43.678V39.154C445.75 37.5767 446.253 36.4327 447.258 35.722C448.281 35.0113 449.85 34.656 451.964 34.656C453.958 34.656 455.414 35.0027 456.332 35.696C457.268 36.372 457.736 37.5247 457.736 39.154V42.222H449.572V43.366C449.572 44.094 449.832 44.614 450.352 44.926C450.872 45.238 451.808 45.394 453.16 45.394C454.408 45.394 455.812 45.212 457.372 44.848V47.266C455.83 47.5953 454.183 47.76 452.432 47.76ZM454.122 40.064V38.244C454.122 37.828 453.949 37.516 453.602 37.308C453.273 37.1 452.71 36.996 451.912 36.996C450.994 36.996 450.378 37.1 450.066 37.308C449.737 37.5333 449.572 37.8453 449.572 38.244V40.064H454.122ZM466.93 47.76C466.288 47.76 465.751 47.734 465.318 47.682C464.884 47.63 464.451 47.526 464.018 47.37C463.532 47.214 463.134 46.9973 462.822 46.72C462.527 46.4427 462.284 46.0613 462.094 45.576C461.886 45.0733 461.782 44.4927 461.782 43.834V37.256H459.234V34.916H461.782V31.276H465.578V34.916H469.036V37.256H465.578V43.184C465.578 43.7907 465.63 44.25 465.734 44.562C465.838 44.8567 466.037 45.0733 466.332 45.212C466.626 45.3333 467.077 45.394 467.684 45.394C467.926 45.394 468.377 45.3507 469.036 45.264V47.63C468.221 47.7167 467.519 47.76 466.93 47.76ZM469.77 34.916H473.644L475.984 44.042L478.48 34.916H482.198L484.798 44.042L487.034 34.916H490.726L486.618 47.5H482.77L480.274 38.998L477.83 47.5H473.982L469.77 34.916ZM498.922 47.76C494.468 47.76 492.24 46.3993 492.24 43.678V39.154C492.24 37.5767 492.743 36.4327 493.748 35.722C494.771 35.0113 496.34 34.656 498.454 34.656C500.448 34.656 501.904 35.0027 502.822 35.696C503.758 36.372 504.226 37.5247 504.226 39.154V42.222H496.062V43.366C496.062 44.094 496.322 44.614 496.842 44.926C497.362 45.238 498.298 45.394 499.65 45.394C500.898 45.394 502.302 45.212 503.862 44.848V47.266C502.32 47.5953 500.673 47.76 498.922 47.76ZM500.612 40.064V38.244C500.612 37.828 500.439 37.516 500.092 37.308C499.763 37.1 499.2 36.996 498.402 36.996C497.484 36.996 496.868 37.1 496.556 37.308C496.227 37.5333 496.062 37.8453 496.062 38.244V40.064H500.612ZM513.446 47.76C508.991 47.76 506.764 46.3993 506.764 43.678V39.154C506.764 37.5767 507.267 36.4327 508.272 35.722C509.295 35.0113 510.863 34.656 512.978 34.656C514.971 34.656 516.427 35.0027 517.346 35.696C518.282 36.372 518.75 37.5247 518.75 39.154V42.222H510.586V43.366C510.586 44.094 510.846 44.614 511.366 44.926C511.886 45.238 512.822 45.394 514.174 45.394C515.422 45.394 516.826 45.212 518.386 44.848V47.266C516.843 47.5953 515.197 47.76 513.446 47.76ZM515.136 40.064V38.244C515.136 37.828 514.963 37.516 514.616 37.308C514.287 37.1 513.723 36.996 512.926 36.996C512.007 36.996 511.392 37.1 511.08 37.308C510.751 37.5333 510.586 37.8453 510.586 38.244V40.064H515.136ZM521.651 34.916H525.395V36.45C525.69 35.254 527.033 34.656 529.425 34.656C531.037 34.656 532.164 34.9507 532.805 35.54C533.464 36.112 533.793 37.022 533.793 38.27V47.5H529.997V38.764C529.997 38.2787 529.945 37.9147 529.841 37.672C529.755 37.4293 529.564 37.256 529.269 37.152C528.992 37.048 528.559 36.996 527.969 36.996C527.224 36.996 526.678 37.048 526.331 37.152C525.985 37.2387 525.751 37.4033 525.629 37.646C525.508 37.8887 525.447 38.2613 525.447 38.764V47.5H521.651V34.916ZM544.068 37.256H541.702V34.916H544.068V33.018C544.068 31.9953 544.233 31.198 544.562 30.626C544.909 30.0367 545.429 29.6293 546.122 29.404C546.833 29.1613 547.778 29.04 548.956 29.04C549.598 29.04 550.542 29.1093 551.79 29.248V31.588C550.681 31.4493 549.936 31.38 549.554 31.38C548.913 31.38 548.471 31.484 548.228 31.692C547.986 31.8827 547.864 32.2553 547.864 32.81V34.916H551.322V37.256H547.864V47.5H544.068V37.256ZM557.554 47.76C555.942 47.76 554.807 47.474 554.148 46.902C553.507 46.3127 553.186 45.394 553.186 44.146V34.916H556.982V43.626C556.982 44.1113 557.026 44.4753 557.112 44.718C557.216 44.9607 557.407 45.134 557.684 45.238C557.979 45.342 558.421 45.394 559.01 45.394C559.756 45.394 560.302 45.3507 560.648 45.264C560.995 45.16 561.229 44.9867 561.35 44.744C561.472 44.5013 561.532 44.1287 561.532 43.626V34.916H565.328V47.5H561.584V45.966C561.307 47.162 559.964 47.76 557.554 47.76ZM568.649 34.916H572.393V36.45C572.688 35.254 574.031 34.656 576.423 34.656C578.035 34.656 579.162 34.9507 579.803 35.54C580.462 36.112 580.791 37.022 580.791 38.27V47.5H576.995V38.764C576.995 38.2787 576.943 37.9147 576.839 37.672C576.753 37.4293 576.562 37.256 576.267 37.152C575.99 37.048 575.557 36.996 574.967 36.996C574.222 36.996 573.676 37.048 573.329 37.152C572.983 37.2387 572.749 37.4033 572.627 37.646C572.506 37.8887 572.445 38.2613 572.445 38.764V47.5H568.649V34.916ZM590.248 47.76C589.59 47.76 589.07 47.7427 588.688 47.708C588.307 47.6907 587.839 47.6473 587.284 47.578C586.73 47.5087 586.27 47.3873 585.906 47.214C585.56 47.0407 585.196 46.7807 584.814 46.434C584.104 45.8447 583.748 44.8393 583.748 43.418V39.232C583.748 38.088 584.008 37.1347 584.528 36.372C584.719 36.0947 584.996 35.8433 585.36 35.618C585.742 35.3753 586.123 35.1847 586.504 35.046C586.816 34.942 587.232 34.8553 587.752 34.786C588.272 34.7167 588.732 34.6733 589.13 34.656H590.508C591.479 34.656 592.753 34.812 594.33 35.124V37.62C592.545 37.204 591.176 36.996 590.222 36.996C588.472 36.996 587.596 37.5853 587.596 38.764V43.392C587.596 44.7267 588.558 45.394 590.482 45.394C591.418 45.394 592.762 45.2033 594.512 44.822V47.318C592.935 47.6127 591.514 47.76 590.248 47.76ZM602.947 47.76C602.306 47.76 601.769 47.734 601.335 47.682C600.902 47.63 600.469 47.526 600.035 47.37C599.55 47.214 599.151 46.9973 598.839 46.72C598.545 46.4427 598.302 46.0613 598.111 45.576C597.903 45.0733 597.799 44.4927 597.799 43.834V37.256H595.251V34.916H597.799V31.276H601.595V34.916H605.053V37.256H601.595V43.184C601.595 43.7907 601.647 44.25 601.751 44.562C601.855 44.8567 602.055 45.0733 602.349 45.212C602.644 45.3333 603.095 45.394 603.701 45.394C603.944 45.394 604.395 45.3507 605.053 45.264V47.63C604.239 47.7167 603.537 47.76 602.947 47.76ZM607.347 30.366H611.143V33.434H607.347V30.366ZM607.347 34.916H611.143V47.5H607.347V34.916ZM620.613 47.76C619.833 47.76 619.192 47.734 618.689 47.682C618.186 47.63 617.649 47.526 617.077 47.37C616.453 47.1967 615.95 46.954 615.569 46.642C615.188 46.3127 614.867 45.8533 614.607 45.264C614.347 44.692 614.217 43.9987 614.217 43.184V39.466C614.217 38.634 614.347 37.906 614.607 37.282C614.867 36.658 615.205 36.1727 615.621 35.826C615.985 35.5313 616.462 35.2887 617.051 35.098C617.658 34.89 618.247 34.76 618.819 34.708C619.478 34.6733 620.076 34.656 620.613 34.656C621.41 34.656 622.043 34.682 622.511 34.734C622.996 34.7687 623.525 34.8727 624.097 35.046C624.721 35.2367 625.224 35.4967 625.605 35.826C626.004 36.1553 626.342 36.6233 626.619 37.23C626.879 37.854 627.009 38.5993 627.009 39.466V43.184C627.009 43.964 626.879 44.6487 626.619 45.238C626.376 45.8273 626.056 46.2867 625.657 46.616C625.31 46.9107 624.834 47.1533 624.227 47.344C623.638 47.5173 623.057 47.63 622.485 47.682C621.965 47.734 621.341 47.76 620.613 47.76ZM620.613 45.394C621.324 45.394 621.861 45.342 622.225 45.238C622.589 45.1167 622.84 44.9347 622.979 44.692C623.135 44.4493 623.213 44.094 623.213 43.626V38.868C623.213 38.1747 623.031 37.6893 622.667 37.412C622.303 37.1347 621.618 36.996 620.613 36.996C619.608 36.996 618.923 37.1347 618.559 37.412C618.195 37.6893 618.013 38.1747 618.013 38.868V43.626C618.013 44.094 618.082 44.4493 618.221 44.692C618.377 44.9347 618.637 45.1167 619.001 45.238C619.365 45.342 619.902 45.394 620.613 45.394ZM629.968 34.916H633.712V36.45C634.006 35.254 635.35 34.656 637.742 34.656C639.354 34.656 640.48 34.9507 641.122 35.54C641.78 36.112 642.11 37.022 642.11 38.27V47.5H638.314V38.764C638.314 38.2787 638.262 37.9147 638.158 37.672C638.071 37.4293 637.88 37.256 637.586 37.152C637.308 37.048 636.875 36.996 636.286 36.996C635.54 36.996 634.994 37.048 634.648 37.152C634.301 37.2387 634.067 37.4033 633.946 37.646C633.824 37.8887 633.764 38.2613 633.764 38.764V47.5H629.968V34.916ZM650.137 47.76C648.785 47.76 647.129 47.63 645.171 47.37V44.848C647.58 45.212 649.253 45.394 650.189 45.394C650.986 45.394 651.575 45.316 651.957 45.16C652.338 45.004 652.529 44.718 652.529 44.302V43.522C652.529 43.0887 652.407 42.7853 652.165 42.612C651.922 42.4213 651.445 42.326 650.735 42.326H649.097C647.762 42.326 646.731 42.066 646.003 41.546C645.275 41.0087 644.911 40.2287 644.911 39.206V37.672C644.911 36.58 645.431 35.8087 646.471 35.358C647.511 34.89 649.079 34.656 651.177 34.656C652.009 34.656 653.499 34.734 655.649 34.89V37.308C652.945 37.1 651.419 36.996 651.073 36.996C650.05 36.996 649.383 37.0653 649.071 37.204C648.793 37.36 648.655 37.646 648.655 38.062V38.738C648.655 38.9633 648.767 39.1627 648.993 39.336C649.218 39.492 649.547 39.57 649.981 39.57H651.645C654.73 39.57 656.273 40.5753 656.273 42.586V44.172C656.273 44.7787 656.16 45.3073 655.935 45.758C655.709 46.2087 655.415 46.564 655.051 46.824C654.704 47.0667 654.253 47.2573 653.699 47.396C653.161 47.5347 652.598 47.63 652.009 47.682C651.471 47.734 650.847 47.76 650.137 47.76ZM671.401 47.76C666.946 47.76 664.719 46.3993 664.719 43.678V39.154C664.719 37.5767 665.222 36.4327 666.227 35.722C667.25 35.0113 668.818 34.656 670.933 34.656C672.926 34.656 674.382 35.0027 675.301 35.696C676.237 36.372 676.705 37.5247 676.705 39.154V42.222H668.541V43.366C668.541 44.094 668.801 44.614 669.321 44.926C669.841 45.238 670.777 45.394 672.129 45.394C673.377 45.394 674.781 45.212 676.341 44.848V47.266C674.798 47.5953 673.152 47.76 671.401 47.76ZM673.091 40.064V38.244C673.091 37.828 672.918 37.516 672.571 37.308C672.242 37.1 671.678 36.996 670.881 36.996C669.962 36.996 669.347 37.1 669.035 37.308C668.706 37.5333 668.541 37.8453 668.541 38.244V40.064H673.091ZM683.168 47.76C681.99 47.76 681.106 47.656 680.516 47.448C679.944 47.2227 679.537 46.8327 679.294 46.278C679.069 45.706 678.956 44.8567 678.956 43.73C678.956 42.7247 679.078 41.936 679.32 41.364C679.58 40.792 679.988 40.3847 680.542 40.142C681.114 39.882 681.894 39.752 682.882 39.752H687.146V38.894C687.146 38.3567 687.068 37.958 686.912 37.698C686.774 37.438 686.505 37.256 686.106 37.152C685.725 37.048 685.144 36.996 684.364 36.996C683.29 36.996 681.816 37.1 679.944 37.308V34.916C681.314 34.7427 682.917 34.656 684.754 34.656C686.366 34.656 687.606 34.7773 688.472 35.02C689.356 35.2627 689.989 35.6787 690.37 36.268C690.752 36.8573 690.942 37.7153 690.942 38.842V47.5H687.224V46.356C686.93 46.8587 686.531 47.214 686.028 47.422C685.526 47.6473 684.572 47.76 683.168 47.76ZM684.65 45.394C685.413 45.394 685.959 45.368 686.288 45.316C686.531 45.2813 686.696 45.2293 686.782 45.16C686.886 45.0907 686.973 44.978 687.042 44.822C687.112 44.7007 687.146 44.5187 687.146 44.276V41.832H684.546C683.957 41.832 683.541 41.8753 683.298 41.962C683.056 42.0313 682.891 42.1873 682.804 42.43C682.718 42.6553 682.674 43.0627 682.674 43.652C682.674 44.224 682.718 44.6227 682.804 44.848C682.891 45.0733 683.056 45.2207 683.298 45.29C683.558 45.3593 684.009 45.394 684.65 45.394ZM698.988 47.76C697.636 47.76 695.981 47.63 694.022 47.37V44.848C696.431 45.212 698.104 45.394 699.04 45.394C699.837 45.394 700.427 45.316 700.808 45.16C701.189 45.004 701.38 44.718 701.38 44.302V43.522C701.38 43.0887 701.259 42.7853 701.016 42.612C700.773 42.4213 700.297 42.326 699.586 42.326H697.948C696.613 42.326 695.582 42.066 694.854 41.546C694.126 41.0087 693.762 40.2287 693.762 39.206V37.672C693.762 36.58 694.282 35.8087 695.322 35.358C696.362 34.89 697.931 34.656 700.028 34.656C700.86 34.656 702.351 34.734 704.5 34.89V37.308C701.796 37.1 700.271 36.996 699.924 36.996C698.901 36.996 698.234 37.0653 697.922 37.204C697.645 37.36 697.506 37.646 697.506 38.062V38.738C697.506 38.9633 697.619 39.1627 697.844 39.336C698.069 39.492 698.399 39.57 698.832 39.57H700.496C703.581 39.57 705.124 40.5753 705.124 42.586V44.172C705.124 44.7787 705.011 45.3073 704.786 45.758C704.561 46.2087 704.266 46.564 703.902 46.824C703.555 47.0667 703.105 47.2573 702.55 47.396C702.013 47.5347 701.449 47.63 700.86 47.682C700.323 47.734 699.699 47.76 698.988 47.76ZM708.046 30.366H711.842V33.434H708.046V30.366ZM708.046 34.916H711.842V47.5H708.046V34.916ZM715.384 29.3H719.18V47.5H715.384V29.3ZM726.18 47.396L721.162 34.916H725.296L728.13 43.808L730.704 34.916H734.63L727.74 52.908H723.892L726.18 47.396ZM736.143 43.912H740.199V47.5H736.143V43.912Z" fill="#121538"/>
<rect x="534.5" y="548.5" width="249" height="116" rx="4.5" stroke="black"/>
<path d="M657.424 594.828H662.744L669.296 613H664.872L663.248 608.212H656.612L655.016 613H650.704L657.424 594.828ZM662.296 605.3L660 598.468H659.888L657.592 605.3H662.296Z" fill="black"/>
<rect x="1" y="549" width="250" height="117" rx="5" fill="#FEC900"/>
<path d="M79.6123 600.448H83.4763V601.792C83.719 601.195 84.195 600.775 84.9043 600.532C85.6136 600.289 86.6683 600.168 88.0683 600.168C89.2443 600.168 90.187 600.261 90.8963 600.448C91.6243 600.635 92.175 600.933 92.5483 601.344C92.903 601.755 93.1456 602.212 93.2763 602.716C93.407 603.201 93.4723 603.873 93.4723 604.732V609.184C93.4723 610.528 93.2763 611.564 92.8843 612.292C92.4923 613.02 91.8856 613.533 91.0643 613.832C90.2616 614.131 89.1603 614.28 87.7603 614.28C86.4163 614.28 85.4456 614.168 84.8483 613.944C84.251 613.72 83.8683 613.281 83.7003 612.628V619.824H79.6123V600.448ZM86.5003 611.732C87.303 611.732 87.9096 611.676 88.3203 611.564C88.731 611.452 89.011 611.256 89.1603 610.976C89.3096 610.696 89.3843 610.276 89.3843 609.716V604.704C89.3843 604.088 89.319 603.649 89.1883 603.388C89.0576 603.108 88.7963 602.921 88.4043 602.828C88.0123 602.735 87.3683 602.688 86.4723 602.688C85.707 602.688 85.119 602.753 84.7083 602.884C84.3163 603.015 84.0456 603.22 83.8963 603.5C83.7656 603.78 83.7003 604.181 83.7003 604.704V609.716C83.7003 610.276 83.7656 610.696 83.8963 610.976C84.0456 611.256 84.3163 611.452 84.7083 611.564C85.1003 611.676 85.6976 611.732 86.5003 611.732ZM103.171 614.28C102.331 614.28 101.64 614.252 101.099 614.196C100.557 614.14 99.9788 614.028 99.3628 613.86C98.6908 613.673 98.1495 613.412 97.7388 613.076C97.3281 612.721 96.9828 612.227 96.7028 611.592C96.4228 610.976 96.2828 610.229 96.2828 609.352V605.348C96.2828 604.452 96.4228 603.668 96.7028 602.996C96.9828 602.324 97.3468 601.801 97.7948 601.428C98.1868 601.111 98.7001 600.849 99.3348 600.644C99.9881 600.42 100.623 600.28 101.239 600.224C101.948 600.187 102.592 600.168 103.171 600.168C104.029 600.168 104.711 600.196 105.215 600.252C105.737 600.289 106.307 600.401 106.923 600.588C107.595 600.793 108.136 601.073 108.547 601.428C108.976 601.783 109.34 602.287 109.639 602.94C109.919 603.612 110.059 604.415 110.059 605.348V609.352C110.059 610.192 109.919 610.929 109.639 611.564C109.377 612.199 109.032 612.693 108.603 613.048C108.229 613.365 107.716 613.627 107.063 613.832C106.428 614.019 105.803 614.14 105.187 614.196C104.627 614.252 103.955 614.28 103.171 614.28ZM103.171 611.732C103.936 611.732 104.515 611.676 104.907 611.564C105.299 611.433 105.569 611.237 105.719 610.976C105.887 610.715 105.971 610.332 105.971 609.828V604.704C105.971 603.957 105.775 603.435 105.383 603.136C104.991 602.837 104.253 602.688 103.171 602.688C102.088 602.688 101.351 602.837 100.959 603.136C100.567 603.435 100.371 603.957 100.371 604.704V609.828C100.371 610.332 100.445 610.715 100.595 610.976C100.763 611.237 101.043 611.433 101.435 611.564C101.827 611.676 102.405 611.732 103.171 611.732ZM113.357 595.548H117.445V598.852H113.357V595.548ZM113.357 600.448H117.445V614H113.357V600.448ZM121.147 600.448H125.179V602.1C125.497 600.812 126.943 600.168 129.519 600.168C131.255 600.168 132.469 600.485 133.159 601.12C133.869 601.736 134.223 602.716 134.223 604.06V614H130.135V604.592C130.135 604.069 130.079 603.677 129.967 603.416C129.874 603.155 129.669 602.968 129.351 602.856C129.053 602.744 128.586 602.688 127.951 602.688C127.149 602.688 126.561 602.744 126.187 602.856C125.814 602.949 125.562 603.127 125.431 603.388C125.301 603.649 125.235 604.051 125.235 604.592V614H121.147V600.448ZM144.576 614.28C143.885 614.28 143.306 614.252 142.84 614.196C142.373 614.14 141.906 614.028 141.44 613.86C140.917 613.692 140.488 613.459 140.152 613.16C139.834 612.861 139.573 612.451 139.368 611.928C139.144 611.387 139.032 610.761 139.032 610.052V602.968H136.288V600.448H139.032V596.528H143.12V600.448H146.844V602.968H143.12V609.352C143.12 610.005 143.176 610.5 143.288 610.836C143.4 611.153 143.614 611.387 143.932 611.536C144.249 611.667 144.734 611.732 145.388 611.732C145.649 611.732 146.134 611.685 146.844 611.592V614.14C145.966 614.233 145.21 614.28 144.576 614.28ZM156.006 614.28C151.209 614.28 148.81 612.815 148.81 609.884V605.012C148.81 603.313 149.351 602.081 150.434 601.316C151.535 600.551 153.225 600.168 155.502 600.168C157.649 600.168 159.217 600.541 160.206 601.288C161.214 602.016 161.718 603.257 161.718 605.012V608.316H152.926V609.548C152.926 610.332 153.206 610.892 153.766 611.228C154.326 611.564 155.334 611.732 156.79 611.732C158.134 611.732 159.646 611.536 161.326 611.144V613.748C159.665 614.103 157.891 614.28 156.006 614.28ZM157.826 605.992V604.032C157.826 603.584 157.639 603.248 157.266 603.024C156.911 602.8 156.305 602.688 155.446 602.688C154.457 602.688 153.794 602.8 153.458 603.024C153.103 603.267 152.926 603.603 152.926 604.032V605.992H157.826ZM164.843 600.448H168.735V602.828C168.735 602.399 168.912 601.979 169.267 601.568C169.621 601.157 170.069 600.821 170.611 600.56C171.171 600.299 171.721 600.168 172.263 600.168H173.719V603.556H172.319C171.161 603.556 170.303 603.733 169.743 604.088C169.201 604.443 168.931 605.031 168.931 605.852V614H164.843V600.448Z" fill="black"/>
<path d="M251 622.5V622H250.5V622.5H251ZM468.885 622.5H469.385V622H468.885V622.5ZM468.885 645H468.385V645.865L469.134 645.433L468.885 645ZM534 607.5L534.25 607.933L535.002 607.5L534.25 607.067L534 607.5ZM468.885 570L469.134 569.567L468.385 569.135V570H468.885ZM468.885 591.5V592H469.385V591.5H468.885ZM251 591.5H250.5V592H251V591.5ZM1.5 554C1.5 551.515 3.51472 549.5 6 549.5V548.5C2.96243 548.5 0.5 550.962 0.5 554H1.5ZM1.5 661V554H0.5V661H1.5ZM6 665.5C3.51471 665.5 1.5 663.485 1.5 661H0.5C0.5 664.038 2.96243 666.5 6 666.5V665.5ZM246 665.5H6V666.5H246V665.5ZM250.5 661C250.5 663.485 248.485 665.5 246 665.5V666.5C249.038 666.5 251.5 664.038 251.5 661H250.5ZM250.5 622.5V661H251.5V622.5H250.5ZM251 623H468.885V622H251V623ZM468.385 622.5V645H469.385V622.5H468.385ZM469.134 645.433L534.25 607.933L533.75 607.067L468.635 644.567L469.134 645.433ZM534.25 607.067L469.134 569.567L468.635 570.433L533.75 607.933L534.25 607.067ZM468.385 570V591.5H469.385V570H468.385ZM468.885 591H251V592H468.885V591ZM250.5 554V591.5H251.5V554H250.5ZM246 549.5C248.485 549.5 250.5 551.515 250.5 554H251.5C251.5 550.962 249.038 548.5 246 548.5V549.5ZM6 549.5H246V548.5H6V549.5Z" fill="black"/>
<rect x="268.5" y="775.5" width="249" height="116" rx="4.5" stroke="black"/>
<path d="M340.33 740.28C339.509 740.28 338.771 740.243 338.118 740.168C337.483 740.093 336.783 739.953 336.018 739.748C335.159 739.524 334.45 739.235 333.89 738.88C333.33 738.507 332.863 737.993 332.49 737.34C332.098 736.687 331.902 735.912 331.902 735.016V727.036C331.902 723.377 334.711 721.548 340.33 721.548C341.767 721.548 343.69 721.753 346.098 722.164V725.44C343.933 724.917 342.029 724.656 340.386 724.656C339.695 724.656 339.154 724.675 338.762 724.712C338.389 724.749 337.997 724.843 337.586 724.992C336.709 725.291 336.27 725.953 336.27 726.98V734.708C336.27 736.351 337.773 737.172 340.778 737.172C342.066 737.172 343.877 736.901 346.21 736.36V739.664C344.213 740.075 342.253 740.28 340.33 740.28ZM355.329 740.28C354.489 740.28 353.798 740.252 353.257 740.196C352.716 740.14 352.137 740.028 351.521 739.86C350.849 739.673 350.308 739.412 349.897 739.076C349.486 738.721 349.141 738.227 348.861 737.592C348.581 736.976 348.441 736.229 348.441 735.352V731.348C348.441 730.452 348.581 729.668 348.861 728.996C349.141 728.324 349.505 727.801 349.953 727.428C350.345 727.111 350.858 726.849 351.493 726.644C352.146 726.42 352.781 726.28 353.397 726.224C354.106 726.187 354.75 726.168 355.329 726.168C356.188 726.168 356.869 726.196 357.373 726.252C357.896 726.289 358.465 726.401 359.081 726.588C359.753 726.793 360.294 727.073 360.705 727.428C361.134 727.783 361.498 728.287 361.797 728.94C362.077 729.612 362.217 730.415 362.217 731.348V735.352C362.217 736.192 362.077 736.929 361.797 737.564C361.536 738.199 361.19 738.693 360.761 739.048C360.388 739.365 359.874 739.627 359.221 739.832C358.586 740.019 357.961 740.14 357.345 740.196C356.785 740.252 356.113 740.28 355.329 740.28ZM355.329 737.732C356.094 737.732 356.673 737.676 357.065 737.564C357.457 737.433 357.728 737.237 357.877 736.976C358.045 736.715 358.129 736.332 358.129 735.828V730.704C358.129 729.957 357.933 729.435 357.541 729.136C357.149 728.837 356.412 728.688 355.329 728.688C354.246 728.688 353.509 728.837 353.117 729.136C352.725 729.435 352.529 729.957 352.529 730.704V735.828C352.529 736.332 352.604 736.715 352.753 736.976C352.921 737.237 353.201 737.433 353.593 737.564C353.985 737.676 354.564 737.732 355.329 737.732ZM365.403 726.448H369.267V727.792C369.51 727.195 369.986 726.775 370.695 726.532C371.405 726.289 372.459 726.168 373.859 726.168C375.035 726.168 375.978 726.261 376.687 726.448C377.415 726.635 377.966 726.933 378.339 727.344C378.694 727.755 378.937 728.212 379.067 728.716C379.198 729.201 379.263 729.873 379.263 730.732V735.184C379.263 736.528 379.067 737.564 378.675 738.292C378.283 739.02 377.677 739.533 376.855 739.832C376.053 740.131 374.951 740.28 373.551 740.28C372.207 740.28 371.237 740.168 370.639 739.944C370.042 739.72 369.659 739.281 369.491 738.628V745.824H365.403V726.448ZM372.291 737.732C373.094 737.732 373.701 737.676 374.111 737.564C374.522 737.452 374.802 737.256 374.951 736.976C375.101 736.696 375.175 736.276 375.175 735.716V730.704C375.175 730.088 375.11 729.649 374.979 729.388C374.849 729.108 374.587 728.921 374.195 728.828C373.803 728.735 373.159 728.688 372.263 728.688C371.498 728.688 370.91 728.753 370.499 728.884C370.107 729.015 369.837 729.22 369.687 729.5C369.557 729.78 369.491 730.181 369.491 730.704V735.716C369.491 736.276 369.557 736.696 369.687 736.976C369.837 737.256 370.107 737.452 370.499 737.564C370.891 737.676 371.489 737.732 372.291 737.732ZM386.302 739.888L380.898 726.448H385.35L388.402 736.024L391.174 726.448H395.402L387.982 745.824H383.838L386.302 739.888ZM410.372 740.28C409.532 740.28 408.841 740.252 408.3 740.196C407.759 740.14 407.18 740.028 406.564 739.86C405.892 739.673 405.351 739.412 404.94 739.076C404.529 738.721 404.184 738.227 403.904 737.592C403.624 736.976 403.484 736.229 403.484 735.352V731.348C403.484 730.452 403.624 729.668 403.904 728.996C404.184 728.324 404.548 727.801 404.996 727.428C405.388 727.111 405.901 726.849 406.536 726.644C407.189 726.42 407.824 726.28 408.44 726.224C409.149 726.187 409.793 726.168 410.372 726.168C411.231 726.168 411.912 726.196 412.416 726.252C412.939 726.289 413.508 726.401 414.124 726.588C414.796 726.793 415.337 727.073 415.748 727.428C416.177 727.783 416.541 728.287 416.84 728.94C417.12 729.612 417.26 730.415 417.26 731.348V735.352C417.26 736.192 417.12 736.929 416.84 737.564C416.579 738.199 416.233 738.693 415.804 739.048C415.431 739.365 414.917 739.627 414.264 739.832C413.629 740.019 413.004 740.14 412.388 740.196C411.828 740.252 411.156 740.28 410.372 740.28ZM410.372 737.732C411.137 737.732 411.716 737.676 412.108 737.564C412.5 737.433 412.771 737.237 412.92 736.976C413.088 736.715 413.172 736.332 413.172 735.828V730.704C413.172 729.957 412.976 729.435 412.584 729.136C412.192 728.837 411.455 728.688 410.372 728.688C409.289 728.688 408.552 728.837 408.16 729.136C407.768 729.435 407.572 729.957 407.572 730.704V735.828C407.572 736.332 407.647 736.715 407.796 736.976C407.964 737.237 408.244 737.433 408.636 737.564C409.028 737.676 409.607 737.732 410.372 737.732ZM421.482 728.968H418.934V726.448H421.482V724.404C421.482 723.303 421.66 722.444 422.014 721.828C422.388 721.193 422.948 720.755 423.694 720.512C424.46 720.251 425.477 720.12 426.746 720.12C427.437 720.12 428.454 720.195 429.798 720.344V722.864C428.604 722.715 427.801 722.64 427.39 722.64C426.7 722.64 426.224 722.752 425.962 722.976C425.701 723.181 425.57 723.583 425.57 724.18V726.448H429.294V728.968H425.57V740H421.482V728.968ZM442.739 721.828H448.059L454.611 740H450.187L448.563 735.212H441.927L440.331 740H436.019L442.739 721.828ZM447.611 732.3L445.315 725.468H445.203L442.907 732.3H447.611Z" fill="black"/>
<rect x="302" y="743.306" width="21.9965" height="253.876" transform="rotate(-40.5699 302 743.306)" fill="#A80000"/>
<rect width="21.9965" height="253.876" transform="matrix(-0.759613 -0.650375 -0.650375 0.759613 484 743.774)" fill="#A80000"/>
<rect x="192" y="219" width="402" height="256" rx="5" fill="#8596BE" fill-opacity="0.15"/>
<path d="M250.478 278L246.408 266.648H248.19L249.818 271.4L251.578 276.526H251.666L253.426 271.4L255.054 266.648H256.792L252.722 278H250.478ZM264.791 278.264C263.999 278.264 263.281 278.125 262.635 277.846C262.005 277.567 261.462 277.171 261.007 276.658C260.567 276.13 260.23 275.507 259.995 274.788C259.761 274.055 259.643 273.233 259.643 272.324C259.643 271.429 259.761 270.615 259.995 269.882C260.23 269.149 260.567 268.525 261.007 268.012C261.462 267.484 262.005 267.081 262.635 266.802C263.281 266.523 263.999 266.384 264.791 266.384C265.583 266.384 266.295 266.523 266.925 266.802C267.571 267.081 268.113 267.484 268.553 268.012C269.008 268.525 269.353 269.149 269.587 269.882C269.822 270.615 269.939 271.429 269.939 272.324C269.939 273.233 269.822 274.055 269.587 274.788C269.353 275.507 269.008 276.13 268.553 276.658C268.113 277.171 267.571 277.567 266.925 277.846C266.295 278.125 265.583 278.264 264.791 278.264ZM264.791 276.746C265.774 276.746 266.566 276.453 267.167 275.866C267.769 275.279 268.069 274.37 268.069 273.138V271.51C268.069 270.278 267.769 269.369 267.167 268.782C266.566 268.195 265.774 267.902 264.791 267.902C263.809 267.902 263.017 268.195 262.415 268.782C261.814 269.369 261.513 270.278 261.513 271.51V273.138C261.513 274.37 261.814 275.279 262.415 275.866C263.017 276.453 263.809 276.746 264.791 276.746ZM278.687 264.14C278.173 264.14 277.814 264.037 277.609 263.832C277.403 263.612 277.301 263.341 277.301 263.018V262.666C277.301 262.343 277.403 262.079 277.609 261.874C277.814 261.654 278.173 261.544 278.687 261.544C279.2 261.544 279.559 261.654 279.765 261.874C279.97 262.079 280.073 262.343 280.073 262.666V263.018C280.073 263.341 279.97 263.612 279.765 263.832C279.559 264.037 279.2 264.14 278.687 264.14ZM273.715 276.504H277.807V268.144H273.715V266.648H279.567V276.504H283.395V278H273.715V276.504ZM293.924 276.152H293.836C293.103 277.56 291.937 278.264 290.338 278.264C288.945 278.264 287.852 277.743 287.06 276.702C286.283 275.661 285.894 274.201 285.894 272.324C285.894 270.447 286.283 268.987 287.06 267.946C287.852 266.905 288.945 266.384 290.338 266.384C291.937 266.384 293.103 267.088 293.836 268.496H293.924V261.72H295.684V278H293.924V276.152ZM291.02 276.702C291.416 276.702 291.79 276.651 292.142 276.548C292.494 276.445 292.802 276.299 293.066 276.108C293.33 275.903 293.536 275.661 293.682 275.382C293.844 275.089 293.924 274.751 293.924 274.37V270.278C293.924 269.897 293.844 269.567 293.682 269.288C293.536 268.995 293.33 268.753 293.066 268.562C292.802 268.357 292.494 268.203 292.142 268.1C291.79 267.997 291.416 267.946 291.02 267.946C289.994 267.946 289.194 268.261 288.622 268.892C288.065 269.508 287.786 270.329 287.786 271.356V273.292C287.786 274.319 288.065 275.147 288.622 275.778C289.194 276.394 289.994 276.702 291.02 276.702ZM312.783 276.504H316.611V268.144H312.563V266.648H316.611V264.316C316.611 263.553 316.809 262.93 317.205 262.446C317.616 261.962 318.254 261.72 319.119 261.72H322.925V263.216H318.371V266.648H322.925V268.144H318.371V276.504H322.419V278H312.783V276.504ZM330.748 278.264C329.956 278.264 329.238 278.125 328.592 277.846C327.962 277.567 327.419 277.171 326.964 276.658C326.524 276.13 326.187 275.507 325.952 274.788C325.718 274.055 325.6 273.233 325.6 272.324C325.6 271.429 325.718 270.615 325.952 269.882C326.187 269.149 326.524 268.525 326.964 268.012C327.419 267.484 327.962 267.081 328.592 266.802C329.238 266.523 329.956 266.384 330.748 266.384C331.54 266.384 332.252 266.523 332.882 266.802C333.528 267.081 334.07 267.484 334.51 268.012C334.965 268.525 335.31 269.149 335.544 269.882C335.779 270.615 335.896 271.429 335.896 272.324C335.896 273.233 335.779 274.055 335.544 274.788C335.31 275.507 334.965 276.13 334.51 276.658C334.07 277.171 333.528 277.567 332.882 277.846C332.252 278.125 331.54 278.264 330.748 278.264ZM330.748 276.746C331.731 276.746 332.523 276.453 333.124 275.866C333.726 275.279 334.026 274.37 334.026 273.138V271.51C334.026 270.278 333.726 269.369 333.124 268.782C332.523 268.195 331.731 267.902 330.748 267.902C329.766 267.902 328.974 268.195 328.372 268.782C327.771 269.369 327.47 270.278 327.47 271.51V273.138C327.47 274.37 327.771 275.279 328.372 275.866C328.974 276.453 329.766 276.746 330.748 276.746ZM343.94 278.264C343.148 278.264 342.429 278.125 341.784 277.846C341.153 277.567 340.611 277.171 340.156 276.658C339.716 276.13 339.379 275.507 339.144 274.788C338.909 274.055 338.792 273.233 338.792 272.324C338.792 271.429 338.909 270.615 339.144 269.882C339.379 269.149 339.716 268.525 340.156 268.012C340.611 267.484 341.153 267.081 341.784 266.802C342.429 266.523 343.148 266.384 343.94 266.384C344.732 266.384 345.443 266.523 346.074 266.802C346.719 267.081 347.262 267.484 347.702 268.012C348.157 268.525 348.501 269.149 348.736 269.882C348.971 270.615 349.088 271.429 349.088 272.324C349.088 273.233 348.971 274.055 348.736 274.788C348.501 275.507 348.157 276.13 347.702 276.658C347.262 277.171 346.719 277.567 346.074 277.846C345.443 278.125 344.732 278.264 343.94 278.264ZM343.94 276.746C344.923 276.746 345.715 276.453 346.316 275.866C346.917 275.279 347.218 274.37 347.218 273.138V271.51C347.218 270.278 346.917 269.369 346.316 268.782C345.715 268.195 344.923 267.902 343.94 267.902C342.957 267.902 342.165 268.195 341.564 268.782C340.963 269.369 340.662 270.278 340.662 271.51V273.138C340.662 274.37 340.963 275.279 341.564 275.866C342.165 276.453 342.957 276.746 343.94 276.746ZM355.041 271.158C355.041 270.087 355.159 269.061 355.393 268.078C355.643 267.081 355.973 266.157 356.383 265.306C356.809 264.455 357.3 263.693 357.857 263.018C358.415 262.329 359.001 261.749 359.617 261.28H361.399C360.754 261.764 360.145 262.329 359.573 262.974C359.016 263.605 358.517 264.301 358.077 265.064C357.652 265.812 357.315 266.626 357.065 267.506C356.816 268.371 356.691 269.273 356.691 270.212V272.104C356.691 273.043 356.816 273.952 357.065 274.832C357.315 275.697 357.652 276.511 358.077 277.274C358.517 278.022 359.016 278.711 359.573 279.342C360.145 279.987 360.754 280.552 361.399 281.036H359.617C359.001 280.581 358.415 280.009 357.857 279.32C357.3 278.631 356.809 277.861 356.383 277.01C355.973 276.159 355.643 275.243 355.393 274.26C355.159 273.263 355.041 272.229 355.041 271.158ZM372.413 271.158C372.413 272.229 372.288 273.263 372.039 274.26C371.804 275.243 371.474 276.159 371.049 277.01C370.638 277.861 370.154 278.631 369.597 279.32C369.039 280.009 368.453 280.581 367.837 281.036H366.055C366.685 280.552 367.287 279.987 367.859 279.342C368.431 278.711 368.929 278.022 369.355 277.274C369.795 276.511 370.139 275.697 370.389 274.832C370.638 273.952 370.763 273.043 370.763 272.104V270.212C370.763 269.273 370.638 268.371 370.389 267.506C370.139 266.626 369.795 265.812 369.355 265.064C368.929 264.301 368.431 263.605 367.859 262.974C367.287 262.329 366.685 261.764 366.055 261.28H367.837C368.453 261.749 369.039 262.329 369.597 263.018C370.154 263.693 370.638 264.455 371.049 265.306C371.474 266.157 371.804 267.081 372.039 268.078C372.288 269.061 372.413 270.087 372.413 271.158ZM397.123 281.036C396.507 281.036 396.045 280.86 395.737 280.508C395.429 280.171 395.275 279.745 395.275 279.232V277.846C395.275 277.45 395.312 277.105 395.385 276.812C395.473 276.519 395.576 276.255 395.693 276.02C395.811 275.785 395.943 275.58 396.089 275.404C396.236 275.213 396.375 275.037 396.507 274.876C396.757 274.583 396.925 274.333 397.013 274.128C397.116 273.908 397.167 273.681 397.167 273.446C397.167 272.889 396.911 272.485 396.397 272.236C395.884 271.972 395.129 271.84 394.131 271.84H392.415V270.476H394.131C395.129 270.476 395.884 270.351 396.397 270.102C396.911 269.838 397.167 269.427 397.167 268.87C397.167 268.635 397.116 268.415 397.013 268.21C396.925 267.99 396.757 267.733 396.507 267.44C396.375 267.279 396.236 267.11 396.089 266.934C395.943 266.743 395.811 266.538 395.693 266.318C395.576 266.083 395.473 265.819 395.385 265.526C395.312 265.218 395.275 264.866 395.275 264.47V263.084C395.275 262.571 395.429 262.145 395.737 261.808C396.045 261.456 396.507 261.28 397.123 261.28H400.995V262.644H396.793V264.338C396.793 264.939 396.881 265.401 397.057 265.724C397.233 266.047 397.439 266.362 397.673 266.67C397.923 266.993 398.157 267.33 398.377 267.682C398.597 268.019 398.707 268.423 398.707 268.892C398.707 269.508 398.487 270.007 398.047 270.388C397.622 270.769 397.035 271.011 396.287 271.114V271.202C397.035 271.305 397.622 271.547 398.047 271.928C398.487 272.309 398.707 272.808 398.707 273.424C398.707 273.893 398.597 274.304 398.377 274.656C398.157 274.993 397.923 275.323 397.673 275.646C397.439 275.954 397.233 276.269 397.057 276.592C396.881 276.915 396.793 277.377 396.793 277.978V279.672H400.995V281.036H397.123ZM313.047 290.72H314.807V297.496H314.895C315.628 296.088 316.794 295.384 318.393 295.384C319.786 295.384 320.872 295.905 321.649 296.946C322.441 297.987 322.837 299.447 322.837 301.324C322.837 303.201 322.441 304.661 321.649 305.702C320.872 306.743 319.786 307.264 318.393 307.264C316.794 307.264 315.628 306.56 314.895 305.152H314.807V307H313.047V290.72ZM317.711 305.702C318.738 305.702 319.53 305.394 320.087 304.778C320.659 304.147 320.945 303.319 320.945 302.292V300.356C320.945 299.329 320.659 298.508 320.087 297.892C319.53 297.261 318.738 296.946 317.711 296.946C317.315 296.946 316.941 296.997 316.589 297.1C316.237 297.203 315.929 297.357 315.665 297.562C315.401 297.753 315.188 297.995 315.027 298.288C314.88 298.567 314.807 298.897 314.807 299.278V303.37C314.807 303.751 314.88 304.089 315.027 304.382C315.188 304.661 315.401 304.903 315.665 305.108C315.929 305.299 316.237 305.445 316.589 305.548C316.941 305.651 317.315 305.702 317.711 305.702ZM335.038 307C334.349 307 333.858 306.824 333.564 306.472C333.271 306.12 333.088 305.68 333.014 305.152H332.904C332.655 305.812 332.252 306.333 331.694 306.714C331.152 307.081 330.418 307.264 329.494 307.264C328.306 307.264 327.36 306.956 326.656 306.34C325.952 305.724 325.6 304.881 325.6 303.81C325.6 302.754 325.982 301.94 326.744 301.368C327.522 300.796 328.768 300.51 330.484 300.51H332.904V299.388C332.904 298.552 332.67 297.929 332.2 297.518C331.731 297.093 331.064 296.88 330.198 296.88C329.436 296.88 328.812 297.034 328.328 297.342C327.844 297.635 327.456 298.039 327.162 298.552L325.974 297.672C326.121 297.379 326.319 297.093 326.568 296.814C326.818 296.535 327.126 296.293 327.492 296.088C327.859 295.868 328.277 295.699 328.746 295.582C329.216 295.45 329.736 295.384 330.308 295.384C331.643 295.384 332.699 295.721 333.476 296.396C334.268 297.071 334.664 298.009 334.664 299.212V305.46H336.248V307H335.038ZM329.802 305.79C330.257 305.79 330.668 305.739 331.034 305.636C331.416 305.519 331.746 305.372 332.024 305.196C332.303 305.005 332.516 304.785 332.662 304.536C332.824 304.272 332.904 303.993 332.904 303.7V301.83H330.484C329.428 301.83 328.658 301.977 328.174 302.27C327.69 302.563 327.448 302.989 327.448 303.546V304.008C327.448 304.595 327.654 305.042 328.064 305.35C328.49 305.643 329.069 305.79 329.802 305.79ZM339.034 305.504H342.356V297.144H339.034V295.648H344.116V298.508H344.226C344.461 297.613 344.901 296.917 345.546 296.418C346.206 295.905 347.042 295.648 348.054 295.648H349.638V297.408H347.504C346.492 297.408 345.671 297.701 345.04 298.288C344.424 298.875 344.116 299.645 344.116 300.598V305.504H348.516V307H339.034V305.504ZM355.041 300.158C355.041 299.087 355.159 298.061 355.393 297.078C355.643 296.081 355.973 295.157 356.383 294.306C356.809 293.455 357.3 292.693 357.857 292.018C358.415 291.329 359.001 290.749 359.617 290.28H361.399C360.754 290.764 360.145 291.329 359.573 291.974C359.016 292.605 358.517 293.301 358.077 294.064C357.652 294.812 357.315 295.626 357.065 296.506C356.816 297.371 356.691 298.273 356.691 299.212V301.104C356.691 302.043 356.816 302.952 357.065 303.832C357.315 304.697 357.652 305.511 358.077 306.274C358.517 307.022 359.016 307.711 359.573 308.342C360.145 308.987 360.754 309.552 361.399 310.036H359.617C359.001 309.581 358.415 309.009 357.857 308.32C357.3 307.631 356.809 306.861 356.383 306.01C355.973 305.159 355.643 304.243 355.393 303.26C355.159 302.263 355.041 301.229 355.041 300.158ZM374.305 307L373.007 302.622H367.617L366.319 307H364.405L369.113 291.644H371.555L376.263 307H374.305ZM370.411 293.602H370.213L368.057 301.016H372.567L370.411 293.602ZM385.604 300.158C385.604 301.229 385.479 302.263 385.23 303.26C384.995 304.243 384.665 305.159 384.24 306.01C383.829 306.861 383.345 307.631 382.788 308.32C382.231 309.009 381.644 309.581 381.028 310.036H379.246C379.877 309.552 380.478 308.987 381.05 308.342C381.622 307.711 382.121 307.022 382.546 306.274C382.986 305.511 383.331 304.697 383.58 303.832C383.829 302.952 383.954 302.043 383.954 301.104V299.212C383.954 298.273 383.829 297.371 383.58 296.506C383.331 295.626 382.986 294.812 382.546 294.064C382.121 293.301 381.622 292.605 381.05 291.974C380.478 291.329 379.877 290.764 379.246 290.28H381.028C381.644 290.749 382.231 291.329 382.788 292.018C383.345 292.693 383.829 293.455 384.24 294.306C384.665 295.157 384.995 296.081 385.23 297.078C385.479 298.061 385.604 299.087 385.604 300.158ZM395.759 304.008H398.597L396.067 310.102H394.593L395.759 304.008ZM396.705 298.486C396.104 298.486 395.679 298.361 395.429 298.112C395.195 297.863 395.077 297.547 395.077 297.166V296.77C395.077 296.389 395.195 296.073 395.429 295.824C395.679 295.575 396.104 295.45 396.705 295.45C397.307 295.45 397.725 295.575 397.959 295.824C398.209 296.073 398.333 296.389 398.333 296.77V297.166C398.333 297.547 398.209 297.863 397.959 298.112C397.725 298.361 397.307 298.486 396.705 298.486ZM251.182 319.28C251.798 319.28 252.26 319.456 252.568 319.808C252.876 320.145 253.03 320.571 253.03 321.084V322.47C253.03 322.866 252.986 323.218 252.898 323.526C252.825 323.819 252.729 324.083 252.612 324.318C252.495 324.538 252.363 324.743 252.216 324.934C252.069 325.11 251.93 325.279 251.798 325.44C251.549 325.733 251.373 325.99 251.27 326.21C251.182 326.415 251.138 326.635 251.138 326.87C251.138 327.427 251.395 327.838 251.908 328.102C252.421 328.351 253.177 328.476 254.174 328.476H255.89V329.84H254.174C253.177 329.84 252.421 329.972 251.908 330.236C251.395 330.485 251.138 330.889 251.138 331.446C251.138 331.681 251.182 331.908 251.27 332.128C251.373 332.333 251.549 332.583 251.798 332.876C251.93 333.037 252.069 333.213 252.216 333.404C252.363 333.58 252.495 333.785 252.612 334.02C252.729 334.255 252.825 334.519 252.898 334.812C252.986 335.105 253.03 335.45 253.03 335.846V337.232C253.03 337.745 252.876 338.171 252.568 338.508C252.26 338.86 251.798 339.036 251.182 339.036H247.31V337.672H251.512V335.978C251.512 335.377 251.424 334.915 251.248 334.592C251.072 334.269 250.867 333.954 250.632 333.646C250.383 333.323 250.148 332.993 249.928 332.656C249.708 332.304 249.598 331.893 249.598 331.424C249.598 330.808 249.811 330.309 250.236 329.928C250.676 329.547 251.27 329.305 252.018 329.202V329.114C251.27 329.011 250.676 328.769 250.236 328.388C249.811 328.007 249.598 327.508 249.598 326.892C249.598 326.423 249.708 326.019 249.928 325.682C250.148 325.33 250.383 324.993 250.632 324.67C250.867 324.362 251.072 324.047 251.248 323.724C251.424 323.401 251.512 322.939 251.512 322.338V320.644H247.31V319.28H251.182ZM250.478 365L246.408 353.648H248.19L249.818 358.4L251.578 363.526H251.666L253.426 358.4L255.054 353.648H256.792L252.722 365H250.478ZM264.791 365.264C263.999 365.264 263.281 365.125 262.635 364.846C262.005 364.567 261.462 364.171 261.007 363.658C260.567 363.13 260.23 362.507 259.995 361.788C259.761 361.055 259.643 360.233 259.643 359.324C259.643 358.429 259.761 357.615 259.995 356.882C260.23 356.149 260.567 355.525 261.007 355.012C261.462 354.484 262.005 354.081 262.635 353.802C263.281 353.523 263.999 353.384 264.791 353.384C265.583 353.384 266.295 353.523 266.925 353.802C267.571 354.081 268.113 354.484 268.553 355.012C269.008 355.525 269.353 356.149 269.587 356.882C269.822 357.615 269.939 358.429 269.939 359.324C269.939 360.233 269.822 361.055 269.587 361.788C269.353 362.507 269.008 363.13 268.553 363.658C268.113 364.171 267.571 364.567 266.925 364.846C266.295 365.125 265.583 365.264 264.791 365.264ZM264.791 363.746C265.774 363.746 266.566 363.453 267.167 362.866C267.769 362.279 268.069 361.37 268.069 360.138V358.51C268.069 357.278 267.769 356.369 267.167 355.782C266.566 355.195 265.774 354.902 264.791 354.902C263.809 354.902 263.017 355.195 262.415 355.782C261.814 356.369 261.513 357.278 261.513 358.51V360.138C261.513 361.37 261.814 362.279 262.415 362.866C263.017 363.453 263.809 363.746 264.791 363.746ZM278.687 351.14C278.173 351.14 277.814 351.037 277.609 350.832C277.403 350.612 277.301 350.341 277.301 350.018V349.666C277.301 349.343 277.403 349.079 277.609 348.874C277.814 348.654 278.173 348.544 278.687 348.544C279.2 348.544 279.559 348.654 279.765 348.874C279.97 349.079 280.073 349.343 280.073 349.666V350.018C280.073 350.341 279.97 350.612 279.765 350.832C279.559 351.037 279.2 351.14 278.687 351.14ZM273.715 363.504H277.807V355.144H273.715V353.648H279.567V363.504H283.395V365H273.715V363.504ZM293.924 363.152H293.836C293.103 364.56 291.937 365.264 290.338 365.264C288.945 365.264 287.852 364.743 287.06 363.702C286.283 362.661 285.894 361.201 285.894 359.324C285.894 357.447 286.283 355.987 287.06 354.946C287.852 353.905 288.945 353.384 290.338 353.384C291.937 353.384 293.103 354.088 293.836 355.496H293.924V348.72H295.684V365H293.924V363.152ZM291.02 363.702C291.416 363.702 291.79 363.651 292.142 363.548C292.494 363.445 292.802 363.299 293.066 363.108C293.33 362.903 293.536 362.661 293.682 362.382C293.844 362.089 293.924 361.751 293.924 361.37V357.278C293.924 356.897 293.844 356.567 293.682 356.288C293.536 355.995 293.33 355.753 293.066 355.562C292.802 355.357 292.494 355.203 292.142 355.1C291.79 354.997 291.416 354.946 291.02 354.946C289.994 354.946 289.194 355.261 288.622 355.892C288.065 356.508 287.786 357.329 287.786 358.356V360.292C287.786 361.319 288.065 362.147 288.622 362.778C289.194 363.394 289.994 363.702 291.02 363.702ZM313.047 348.72H314.807V355.496H314.895C315.628 354.088 316.794 353.384 318.393 353.384C319.786 353.384 320.872 353.905 321.649 354.946C322.441 355.987 322.837 357.447 322.837 359.324C322.837 361.201 322.441 362.661 321.649 363.702C320.872 364.743 319.786 365.264 318.393 365.264C316.794 365.264 315.628 364.56 314.895 363.152H314.807V365H313.047V348.72ZM317.711 363.702C318.738 363.702 319.53 363.394 320.087 362.778C320.659 362.147 320.945 361.319 320.945 360.292V358.356C320.945 357.329 320.659 356.508 320.087 355.892C319.53 355.261 318.738 354.946 317.711 354.946C317.315 354.946 316.941 354.997 316.589 355.1C316.237 355.203 315.929 355.357 315.665 355.562C315.401 355.753 315.188 355.995 315.027 356.288C314.88 356.567 314.807 356.897 314.807 357.278V361.37C314.807 361.751 314.88 362.089 315.027 362.382C315.188 362.661 315.401 362.903 315.665 363.108C315.929 363.299 316.237 363.445 316.589 363.548C316.941 363.651 317.315 363.702 317.711 363.702ZM335.038 365C334.349 365 333.858 364.824 333.564 364.472C333.271 364.12 333.088 363.68 333.014 363.152H332.904C332.655 363.812 332.252 364.333 331.694 364.714C331.152 365.081 330.418 365.264 329.494 365.264C328.306 365.264 327.36 364.956 326.656 364.34C325.952 363.724 325.6 362.881 325.6 361.81C325.6 360.754 325.982 359.94 326.744 359.368C327.522 358.796 328.768 358.51 330.484 358.51H332.904V357.388C332.904 356.552 332.67 355.929 332.2 355.518C331.731 355.093 331.064 354.88 330.198 354.88C329.436 354.88 328.812 355.034 328.328 355.342C327.844 355.635 327.456 356.039 327.162 356.552L325.974 355.672C326.121 355.379 326.319 355.093 326.568 354.814C326.818 354.535 327.126 354.293 327.492 354.088C327.859 353.868 328.277 353.699 328.746 353.582C329.216 353.45 329.736 353.384 330.308 353.384C331.643 353.384 332.699 353.721 333.476 354.396C334.268 355.071 334.664 356.009 334.664 357.212V363.46H336.248V365H335.038ZM329.802 363.79C330.257 363.79 330.668 363.739 331.034 363.636C331.416 363.519 331.746 363.372 332.024 363.196C332.303 363.005 332.516 362.785 332.662 362.536C332.824 362.272 332.904 361.993 332.904 361.7V359.83H330.484C329.428 359.83 328.658 359.977 328.174 360.27C327.69 360.563 327.448 360.989 327.448 361.546V362.008C327.448 362.595 327.654 363.042 328.064 363.35C328.49 363.643 329.069 363.79 329.802 363.79ZM339.034 363.504H342.356V355.144H339.034V353.648H344.116V356.508H344.226C344.461 355.613 344.901 354.917 345.546 354.418C346.206 353.905 347.042 353.648 348.054 353.648H349.638V355.408H347.504C346.492 355.408 345.671 355.701 345.04 356.288C344.424 356.875 344.116 357.645 344.116 358.598V363.504H348.516V365H339.034V363.504ZM355.041 358.158C355.041 357.087 355.159 356.061 355.393 355.078C355.643 354.081 355.973 353.157 356.383 352.306C356.809 351.455 357.3 350.693 357.857 350.018C358.415 349.329 359.001 348.749 359.617 348.28H361.399C360.754 348.764 360.145 349.329 359.573 349.974C359.016 350.605 358.517 351.301 358.077 352.064C357.652 352.812 357.315 353.626 357.065 354.506C356.816 355.371 356.691 356.273 356.691 357.212V359.104C356.691 360.043 356.816 360.952 357.065 361.832C357.315 362.697 357.652 363.511 358.077 364.274C358.517 365.022 359.016 365.711 359.573 366.342C360.145 366.987 360.754 367.552 361.399 368.036H359.617C359.001 367.581 358.415 367.009 357.857 366.32C357.3 365.631 356.809 364.861 356.383 364.01C355.973 363.159 355.643 362.243 355.393 361.26C355.159 360.263 355.041 359.229 355.041 358.158ZM370.323 365.264C369.384 365.264 368.577 365.088 367.903 364.736C367.228 364.369 366.671 363.849 366.231 363.174C365.791 362.499 365.468 361.671 365.263 360.688C365.057 359.705 364.955 358.583 364.955 357.322C364.955 356.075 365.057 354.961 365.263 353.978C365.468 352.981 365.791 352.145 366.231 351.47C366.671 350.795 367.228 350.282 367.903 349.93C368.577 349.563 369.384 349.38 370.323 349.38C371.261 349.38 372.068 349.563 372.743 349.93C373.417 350.282 373.975 350.795 374.415 351.47C374.855 352.145 375.177 352.981 375.383 353.978C375.588 354.961 375.691 356.075 375.691 357.322C375.691 358.583 375.588 359.705 375.383 360.688C375.177 361.671 374.855 362.499 374.415 363.174C373.975 363.849 373.417 364.369 372.743 364.736C372.068 365.088 371.261 365.264 370.323 365.264ZM370.323 363.658C370.939 363.658 371.459 363.541 371.885 363.306C372.31 363.057 372.662 362.712 372.941 362.272C373.219 361.832 373.417 361.304 373.535 360.688C373.667 360.057 373.733 359.353 373.733 358.576V356.068C373.733 355.305 373.667 354.609 373.535 353.978C373.417 353.347 373.219 352.812 372.941 352.372C372.662 351.932 372.31 351.595 371.885 351.36C371.459 351.111 370.939 350.986 370.323 350.986C369.707 350.986 369.186 351.111 368.761 351.36C368.335 351.595 367.983 351.932 367.705 352.372C367.426 352.812 367.221 353.347 367.089 353.978C366.971 354.609 366.913 355.305 366.913 356.068V358.576C366.913 359.353 366.971 360.057 367.089 360.688C367.221 361.304 367.426 361.832 367.705 362.272C367.983 362.712 368.335 363.057 368.761 363.306C369.186 363.541 369.707 363.658 370.323 363.658ZM379.004 348.72H380.764V355.496H380.852C381.585 354.088 382.751 353.384 384.35 353.384C385.743 353.384 386.829 353.905 387.606 354.946C388.398 355.987 388.794 357.447 388.794 359.324C388.794 361.201 388.398 362.661 387.606 363.702C386.829 364.743 385.743 365.264 384.35 365.264C382.751 365.264 381.585 364.56 380.852 363.152H380.764V365H379.004V348.72ZM383.668 363.702C384.695 363.702 385.487 363.394 386.044 362.778C386.616 362.147 386.902 361.319 386.902 360.292V358.356C386.902 357.329 386.616 356.508 386.044 355.892C385.487 355.261 384.695 354.946 383.668 354.946C383.272 354.946 382.898 354.997 382.546 355.1C382.194 355.203 381.886 355.357 381.622 355.562C381.358 355.753 381.145 355.995 380.984 356.288C380.837 356.567 380.764 356.897 380.764 357.278V361.37C380.764 361.751 380.837 362.089 380.984 362.382C381.145 362.661 381.358 362.903 381.622 363.108C381.886 363.299 382.194 363.445 382.546 363.548C382.898 363.651 383.272 363.702 383.668 363.702ZM392.349 367.904H397.849V355.144H392.151V353.648H399.609V366.804C399.609 367.567 399.404 368.19 398.993 368.674C398.597 369.158 397.967 369.4 397.101 369.4H392.349V367.904ZM398.729 351.14C398.216 351.14 397.857 351.037 397.651 350.832C397.446 350.612 397.343 350.341 397.343 350.018V349.666C397.343 349.343 397.446 349.079 397.651 348.874C397.857 348.654 398.216 348.544 398.729 348.544C399.243 348.544 399.602 348.654 399.807 348.874C400.013 349.079 400.115 349.343 400.115 349.666V350.018C400.115 350.341 400.013 350.612 399.807 350.832C399.602 351.037 399.243 351.14 398.729 351.14ZM407.147 363.416L405.893 362.492L408.621 358.752L404.243 357.3L404.705 355.848L409.083 357.256V352.504H410.711V357.256L415.089 355.848L415.551 357.3L411.173 358.752L413.901 362.492L412.647 363.416L409.897 359.632L407.147 363.416ZM440.262 365L438.964 360.622H433.574L432.276 365H430.362L435.07 349.644H437.512L442.22 365H440.262ZM436.368 351.602H436.17L434.014 359.016H438.524L436.368 351.602ZM451.561 358.158C451.561 359.229 451.436 360.263 451.187 361.26C450.952 362.243 450.622 363.159 450.197 364.01C449.786 364.861 449.302 365.631 448.745 366.32C448.188 367.009 447.601 367.581 446.985 368.036H445.203C445.834 367.552 446.435 366.987 447.007 366.342C447.579 365.711 448.078 365.022 448.503 364.274C448.943 363.511 449.288 362.697 449.537 361.832C449.786 360.952 449.911 360.043 449.911 359.104V357.212C449.911 356.273 449.786 355.371 449.537 354.506C449.288 353.626 448.943 352.812 448.503 352.064C448.078 351.301 447.579 350.605 447.007 349.974C446.435 349.329 445.834 348.764 445.203 348.28H446.985C447.601 348.749 448.188 349.329 448.745 350.018C449.302 350.693 449.786 351.455 450.197 352.306C450.622 353.157 450.952 354.081 451.187 355.078C451.436 356.061 451.561 357.087 451.561 358.158ZM476.272 368.036C475.656 368.036 475.194 367.86 474.886 367.508C474.578 367.171 474.424 366.745 474.424 366.232V364.846C474.424 364.45 474.461 364.105 474.534 363.812C474.622 363.519 474.725 363.255 474.842 363.02C474.959 362.785 475.091 362.58 475.238 362.404C475.385 362.213 475.524 362.037 475.656 361.876C475.905 361.583 476.074 361.333 476.162 361.128C476.265 360.908 476.316 360.681 476.316 360.446C476.316 359.889 476.059 359.485 475.546 359.236C475.033 358.972 474.277 358.84 473.28 358.84H471.564V357.476H473.28C474.277 357.476 475.033 357.351 475.546 357.102C476.059 356.838 476.316 356.427 476.316 355.87C476.316 355.635 476.265 355.415 476.162 355.21C476.074 354.99 475.905 354.733 475.656 354.44C475.524 354.279 475.385 354.11 475.238 353.934C475.091 353.743 474.959 353.538 474.842 353.318C474.725 353.083 474.622 352.819 474.534 352.526C474.461 352.218 474.424 351.866 474.424 351.47V350.084C474.424 349.571 474.578 349.145 474.886 348.808C475.194 348.456 475.656 348.28 476.272 348.28H480.144V349.644H475.942V351.338C475.942 351.939 476.03 352.401 476.206 352.724C476.382 353.047 476.587 353.362 476.822 353.67C477.071 353.993 477.306 354.33 477.526 354.682C477.746 355.019 477.856 355.423 477.856 355.892C477.856 356.508 477.636 357.007 477.196 357.388C476.771 357.769 476.184 358.011 475.436 358.114V358.202C476.184 358.305 476.771 358.547 477.196 358.928C477.636 359.309 477.856 359.808 477.856 360.424C477.856 360.893 477.746 361.304 477.526 361.656C477.306 361.993 477.071 362.323 476.822 362.646C476.587 362.954 476.382 363.269 476.206 363.592C476.03 363.915 475.942 364.377 475.942 364.978V366.672H480.144V368.036H476.272ZM321.539 394L320.241 389.622H314.851L313.553 394H311.639L316.347 378.644H318.789L323.497 394H321.539ZM317.645 380.602H317.447L315.291 388.016H319.801L317.645 380.602ZM327.558 388.236V386.388H333.938V388.236H327.558ZM339.21 391.822L347.02 387.4V387.224L339.21 382.802V380.932L348.67 386.41V388.17L339.21 393.648V391.822ZM359.881 392.152H359.793C359.06 393.56 357.894 394.264 356.295 394.264C354.902 394.264 353.809 393.743 353.017 392.702C352.24 391.661 351.851 390.201 351.851 388.324C351.851 386.447 352.24 384.987 353.017 383.946C353.809 382.905 354.902 382.384 356.295 382.384C357.894 382.384 359.06 383.088 359.793 384.496H359.881V377.72H361.641V394H359.881V392.152ZM356.977 392.702C357.373 392.702 357.747 392.651 358.099 392.548C358.451 392.445 358.759 392.299 359.023 392.108C359.287 391.903 359.493 391.661 359.639 391.382C359.801 391.089 359.881 390.751 359.881 390.37V386.278C359.881 385.897 359.801 385.567 359.639 385.288C359.493 384.995 359.287 384.753 359.023 384.562C358.759 384.357 358.451 384.203 358.099 384.1C357.747 383.997 357.373 383.946 356.977 383.946C355.951 383.946 355.151 384.261 354.579 384.892C354.022 385.508 353.743 386.329 353.743 387.356V389.292C353.743 390.319 354.022 391.147 354.579 391.778C355.151 392.394 355.951 392.702 356.977 392.702ZM370.323 394.264C369.531 394.264 368.812 394.125 368.167 393.846C367.536 393.567 366.993 393.171 366.539 392.658C366.099 392.13 365.761 391.507 365.527 390.788C365.292 390.055 365.175 389.233 365.175 388.324C365.175 387.429 365.292 386.615 365.527 385.882C365.761 385.149 366.099 384.525 366.539 384.012C366.993 383.484 367.536 383.081 368.167 382.802C368.812 382.523 369.531 382.384 370.323 382.384C371.115 382.384 371.826 382.523 372.457 382.802C373.102 383.081 373.645 383.484 374.085 384.012C374.539 384.525 374.884 385.149 375.119 385.882C375.353 386.615 375.471 387.429 375.471 388.324C375.471 389.233 375.353 390.055 375.119 390.788C374.884 391.507 374.539 392.13 374.085 392.658C373.645 393.171 373.102 393.567 372.457 393.846C371.826 394.125 371.115 394.264 370.323 394.264ZM370.323 392.746C371.305 392.746 372.097 392.453 372.699 391.866C373.3 391.279 373.601 390.37 373.601 389.138V387.51C373.601 386.278 373.3 385.369 372.699 384.782C372.097 384.195 371.305 383.902 370.323 383.902C369.34 383.902 368.548 384.195 367.947 384.782C367.345 385.369 367.045 386.278 367.045 387.51V389.138C367.045 390.37 367.345 391.279 367.947 391.866C368.548 392.453 369.34 392.746 370.323 392.746ZM378.234 397.718V396.09H388.794V397.718H378.234ZM396.837 394.264C395.649 394.264 394.623 394.066 393.757 393.67C392.907 393.259 392.181 392.717 391.579 392.042L392.767 391.008C393.31 391.58 393.904 392.02 394.549 392.328C395.195 392.636 395.972 392.79 396.881 392.79C397.761 392.79 398.48 392.636 399.037 392.328C399.609 392.005 399.895 391.507 399.895 390.832C399.895 390.539 399.837 390.297 399.719 390.106C399.617 389.901 399.47 389.739 399.279 389.622C399.089 389.505 398.876 389.417 398.641 389.358C398.407 389.285 398.157 389.226 397.893 389.182L396.111 388.918C395.715 388.859 395.283 388.779 394.813 388.676C394.359 388.573 393.941 388.412 393.559 388.192C393.178 387.957 392.855 387.649 392.591 387.268C392.342 386.887 392.217 386.388 392.217 385.772C392.217 385.2 392.327 384.709 392.547 384.298C392.782 383.873 393.105 383.521 393.515 383.242C393.926 382.949 394.41 382.736 394.967 382.604C395.525 382.457 396.133 382.384 396.793 382.384C397.82 382.384 398.707 382.545 399.455 382.868C400.218 383.191 400.871 383.638 401.413 384.21L400.269 385.288C400.137 385.127 399.969 384.965 399.763 384.804C399.573 384.628 399.331 384.474 399.037 384.342C398.759 384.195 398.429 384.078 398.047 383.99C397.666 383.902 397.226 383.858 396.727 383.858C395.833 383.858 395.143 384.012 394.659 384.32C394.19 384.628 393.955 385.075 393.955 385.662C393.955 385.955 394.007 386.205 394.109 386.41C394.227 386.601 394.381 386.755 394.571 386.872C394.762 386.989 394.975 387.085 395.209 387.158C395.459 387.217 395.708 387.268 395.957 387.312L397.739 387.576C398.15 387.635 398.583 387.715 399.037 387.818C399.492 387.921 399.91 388.089 400.291 388.324C400.673 388.544 400.988 388.845 401.237 389.226C401.501 389.607 401.633 390.106 401.633 390.722C401.633 391.851 401.193 392.724 400.313 393.34C399.448 393.956 398.289 394.264 396.837 394.264ZM409.897 394.264C409.105 394.264 408.386 394.125 407.741 393.846C407.11 393.567 406.568 393.171 406.113 392.658C405.673 392.13 405.336 391.507 405.101 390.788C404.866 390.055 404.749 389.233 404.749 388.324C404.749 387.429 404.866 386.615 405.101 385.882C405.336 385.149 405.673 384.525 406.113 384.012C406.568 383.484 407.11 383.081 407.741 382.802C408.386 382.523 409.105 382.384 409.897 382.384C410.689 382.384 411.4 382.523 412.031 382.802C412.676 383.081 413.219 383.484 413.659 384.012C414.114 384.525 414.458 385.149 414.693 385.882C414.928 386.615 415.045 387.429 415.045 388.324C415.045 389.233 414.928 390.055 414.693 390.788C414.458 391.507 414.114 392.13 413.659 392.658C413.219 393.171 412.676 393.567 412.031 393.846C411.4 394.125 410.689 394.264 409.897 394.264ZM409.897 392.746C410.88 392.746 411.672 392.453 412.273 391.866C412.874 391.279 413.175 390.37 413.175 389.138V387.51C413.175 386.278 412.874 385.369 412.273 384.782C411.672 384.195 410.88 383.902 409.897 383.902C408.914 383.902 408.122 384.195 407.521 384.782C406.92 385.369 406.619 386.278 406.619 387.51V389.138C406.619 390.37 406.92 391.279 407.521 391.866C408.122 392.453 408.914 392.746 409.897 392.746ZM417.676 394V382.648H419.304V383.968H419.392C419.568 383.528 419.818 383.154 420.14 382.846C420.463 382.538 420.94 382.384 421.57 382.384C422.23 382.384 422.722 382.553 423.044 382.89C423.367 383.213 423.565 383.638 423.638 384.166H423.704C423.91 383.653 424.203 383.227 424.584 382.89C424.966 382.553 425.494 382.384 426.168 382.384C427.092 382.384 427.708 382.707 428.016 383.352C428.339 383.997 428.5 384.921 428.5 386.124V394H426.872V386.41C426.872 385.442 426.77 384.775 426.564 384.408C426.374 384.027 426.014 383.836 425.486 383.836C425.017 383.836 424.636 383.99 424.342 384.298C424.049 384.591 423.902 385.046 423.902 385.662V394H422.274V386.41C422.274 385.442 422.172 384.775 421.966 384.408C421.776 384.027 421.424 383.836 420.91 383.836C420.441 383.836 420.052 383.99 419.744 384.298C419.451 384.591 419.304 385.046 419.304 385.662V394H417.676ZM436.478 394.264C435.656 394.264 434.916 394.125 434.256 393.846C433.61 393.567 433.053 393.171 432.584 392.658C432.129 392.13 431.777 391.507 431.528 390.788C431.278 390.055 431.154 389.241 431.154 388.346C431.154 387.437 431.278 386.615 431.528 385.882C431.792 385.149 432.151 384.525 432.606 384.012C433.06 383.484 433.603 383.081 434.234 382.802C434.879 382.523 435.59 382.384 436.368 382.384C437.13 382.384 437.82 382.523 438.436 382.802C439.066 383.081 439.602 383.469 440.042 383.968C440.482 384.452 440.819 385.031 441.054 385.706C441.288 386.381 441.406 387.121 441.406 387.928V388.764H433.002V389.292C433.002 389.791 433.082 390.253 433.244 390.678C433.405 391.103 433.632 391.47 433.926 391.778C434.234 392.086 434.6 392.328 435.026 392.504C435.466 392.665 435.95 392.746 436.478 392.746C437.24 392.746 437.9 392.57 438.458 392.218C439.015 391.866 439.44 391.382 439.734 390.766L441.032 391.646C440.694 392.409 440.13 393.039 439.338 393.538C438.56 394.022 437.607 394.264 436.478 394.264ZM436.368 383.836C435.884 383.836 435.436 383.924 435.026 384.1C434.615 384.276 434.256 384.518 433.948 384.826C433.654 385.134 433.42 385.501 433.244 385.926C433.082 386.337 433.002 386.791 433.002 387.29V387.444H439.514V387.202C439.514 386.703 439.433 386.249 439.272 385.838C439.125 385.427 438.912 385.075 438.634 384.782C438.37 384.474 438.04 384.239 437.644 384.078C437.262 383.917 436.837 383.836 436.368 383.836ZM450.021 394C449.156 394 448.518 393.758 448.107 393.274C447.711 392.79 447.513 392.167 447.513 391.404V384.144H443.729V382.648H446.545C446.926 382.648 447.19 382.575 447.337 382.428C447.498 382.267 447.579 381.995 447.579 381.614V378.644H449.273V382.648H454.443V384.144H449.273V392.504H454.443V394H450.021ZM458.219 377.72H459.979V384.496H460.067C460.184 384.217 460.331 383.953 460.507 383.704C460.683 383.44 460.895 383.213 461.145 383.022C461.409 382.831 461.717 382.677 462.069 382.56C462.421 382.443 462.831 382.384 463.301 382.384C464.489 382.384 465.442 382.765 466.161 383.528C466.879 384.276 467.239 385.339 467.239 386.718V394H465.479V387.026C465.479 385.985 465.251 385.215 464.797 384.716C464.342 384.203 463.675 383.946 462.795 383.946C462.443 383.946 462.098 383.99 461.761 384.078C461.423 384.166 461.123 384.298 460.859 384.474C460.595 384.65 460.382 384.877 460.221 385.156C460.059 385.435 459.979 385.757 459.979 386.124V394H458.219V377.72ZM476.558 380.14C476.045 380.14 475.685 380.037 475.48 379.832C475.275 379.612 475.172 379.341 475.172 379.018V378.666C475.172 378.343 475.275 378.079 475.48 377.874C475.685 377.654 476.045 377.544 476.558 377.544C477.071 377.544 477.431 377.654 477.636 377.874C477.841 378.079 477.944 378.343 477.944 378.666V379.018C477.944 379.341 477.841 379.612 477.636 379.832C477.431 380.037 477.071 380.14 476.558 380.14ZM471.586 392.504H475.678V384.144H471.586V382.648H477.438V392.504H481.266V394H471.586V392.504ZM484.601 394V382.648H486.361V384.496H486.449C486.567 384.217 486.713 383.953 486.889 383.704C487.065 383.44 487.278 383.213 487.527 383.022C487.791 382.831 488.099 382.677 488.451 382.56C488.803 382.443 489.214 382.384 489.683 382.384C490.871 382.384 491.825 382.765 492.543 383.528C493.262 384.276 493.621 385.339 493.621 386.718V394H491.861V387.026C491.861 385.985 491.634 385.215 491.179 384.716C490.725 384.203 490.057 383.946 489.177 383.946C488.825 383.946 488.481 383.99 488.143 384.078C487.806 384.166 487.505 384.298 487.241 384.474C486.977 384.65 486.765 384.877 486.603 385.156C486.442 385.435 486.361 385.757 486.361 386.124V394H484.601ZM507.979 395.298C507.979 396.442 507.502 397.285 506.549 397.828C505.595 398.385 504.165 398.664 502.259 398.664C500.425 398.664 499.105 398.422 498.299 397.938C497.507 397.454 497.111 396.757 497.111 395.848C497.111 395.232 497.272 394.755 497.595 394.418C497.917 394.081 498.372 393.831 498.959 393.67V393.406C498.636 393.245 498.387 393.039 498.211 392.79C498.035 392.541 497.947 392.225 497.947 391.844C497.947 391.257 498.137 390.817 498.519 390.524C498.915 390.231 499.406 390.011 499.993 389.864V389.776C499.289 389.468 498.739 389.013 498.343 388.412C497.961 387.811 497.771 387.107 497.771 386.3C497.771 385.728 497.873 385.2 498.079 384.716C498.284 384.232 498.577 383.821 498.959 383.484C499.355 383.132 499.824 382.861 500.367 382.67C500.909 382.479 501.511 382.384 502.171 382.384C503.021 382.384 503.769 382.538 504.415 382.846V382.648C504.415 382.208 504.517 381.841 504.723 381.548C504.928 381.255 505.28 381.108 505.779 381.108H507.869V382.648H505.317V383.418C505.727 383.77 506.043 384.188 506.263 384.672C506.483 385.156 506.593 385.699 506.593 386.3C506.593 386.872 506.483 387.4 506.263 387.884C506.057 388.368 505.764 388.786 505.383 389.138C505.001 389.475 504.532 389.739 503.975 389.93C503.432 390.121 502.831 390.216 502.171 390.216C501.98 390.216 501.797 390.209 501.621 390.194C501.445 390.179 501.269 390.157 501.093 390.128C500.917 390.157 500.733 390.209 500.543 390.282C500.352 390.341 500.176 390.429 500.015 390.546C499.853 390.649 499.721 390.773 499.619 390.92C499.516 391.067 499.465 391.235 499.465 391.426C499.465 391.763 499.633 391.991 499.971 392.108C500.308 392.211 500.748 392.262 501.291 392.262H503.799C505.265 392.262 506.329 392.541 506.989 393.098C507.649 393.641 507.979 394.374 507.979 395.298ZM506.329 395.386C506.329 394.931 506.145 394.565 505.779 394.286C505.412 394.022 504.774 393.89 503.865 393.89H499.927C499.164 394.198 498.783 394.711 498.783 395.43C498.783 395.929 498.981 396.354 499.377 396.706C499.773 397.073 500.433 397.256 501.357 397.256H503.073C504.099 397.256 504.899 397.095 505.471 396.772C506.043 396.464 506.329 396.002 506.329 395.386ZM502.171 388.852C503.051 388.852 503.696 388.647 504.107 388.236C504.532 387.825 504.745 387.283 504.745 386.608V385.97C504.745 385.295 504.532 384.76 504.107 384.364C503.696 383.953 503.051 383.748 502.171 383.748C501.291 383.748 500.645 383.953 500.235 384.364C499.824 384.76 499.619 385.295 499.619 385.97V386.608C499.619 387.283 499.824 387.825 500.235 388.236C500.645 388.647 501.291 388.852 502.171 388.852ZM513.338 387.158C513.338 386.087 513.455 385.061 513.69 384.078C513.939 383.081 514.269 382.157 514.68 381.306C515.105 380.455 515.597 379.693 516.154 379.018C516.711 378.329 517.298 377.749 517.914 377.28H519.696C519.051 377.764 518.442 378.329 517.87 378.974C517.313 379.605 516.814 380.301 516.374 381.064C515.949 381.812 515.611 382.626 515.362 383.506C515.113 384.371 514.988 385.273 514.988 386.212V388.104C514.988 389.043 515.113 389.952 515.362 390.832C515.611 391.697 515.949 392.511 516.374 393.274C516.814 394.022 517.313 394.711 517.87 395.342C518.442 395.987 519.051 396.552 519.696 397.036H517.914C517.298 396.581 516.711 396.009 516.154 395.32C515.597 394.631 515.105 393.861 514.68 393.01C514.269 392.159 513.939 391.243 513.69 390.26C513.455 389.263 513.338 388.229 513.338 387.158ZM530.71 387.158C530.71 388.229 530.585 389.263 530.336 390.26C530.101 391.243 529.771 392.159 529.346 393.01C528.935 393.861 528.451 394.631 527.894 395.32C527.336 396.009 526.75 396.581 526.134 397.036H524.352C524.982 396.552 525.584 395.987 526.156 395.342C526.728 394.711 527.226 394.022 527.652 393.274C528.092 392.511 528.436 391.697 528.686 390.832C528.935 389.952 529.06 389.043 529.06 388.104V386.212C529.06 385.273 528.935 384.371 528.686 383.506C528.436 382.626 528.092 381.812 527.652 381.064C527.226 380.301 526.728 379.605 526.156 378.974C525.584 378.329 524.982 377.764 524.352 377.28H526.134C526.75 377.749 527.336 378.329 527.894 379.018C528.451 379.693 528.935 380.455 529.346 381.306C529.771 382.157 530.101 383.081 530.336 384.078C530.585 385.061 530.71 386.087 530.71 387.158ZM540.865 391.008H543.703L541.173 397.102H539.699L540.865 391.008ZM541.811 385.486C541.21 385.486 540.784 385.361 540.535 385.112C540.3 384.863 540.183 384.547 540.183 384.166V383.77C540.183 383.389 540.3 383.073 540.535 382.824C540.784 382.575 541.21 382.45 541.811 382.45C542.412 382.45 542.83 382.575 543.065 382.824C543.314 383.073 543.439 383.389 543.439 383.77V384.166C543.439 384.547 543.314 384.863 543.065 385.112C542.83 385.361 542.412 385.486 541.811 385.486ZM251.182 406.28C251.798 406.28 252.26 406.456 252.568 406.808C252.876 407.145 253.03 407.571 253.03 408.084V409.47C253.03 409.866 252.986 410.218 252.898 410.526C252.825 410.819 252.729 411.083 252.612 411.318C252.495 411.538 252.363 411.743 252.216 411.934C252.069 412.11 251.93 412.279 251.798 412.44C251.549 412.733 251.373 412.99 251.27 413.21C251.182 413.415 251.138 413.635 251.138 413.87C251.138 414.427 251.395 414.838 251.908 415.102C252.421 415.351 253.177 415.476 254.174 415.476H255.89V416.84H254.174C253.177 416.84 252.421 416.972 251.908 417.236C251.395 417.485 251.138 417.889 251.138 418.446C251.138 418.681 251.182 418.908 251.27 419.128C251.373 419.333 251.549 419.583 251.798 419.876C251.93 420.037 252.069 420.213 252.216 420.404C252.363 420.58 252.495 420.785 252.612 421.02C252.729 421.255 252.825 421.519 252.898 421.812C252.986 422.105 253.03 422.45 253.03 422.846V424.232C253.03 424.745 252.876 425.171 252.568 425.508C252.26 425.86 251.798 426.036 251.182 426.036H247.31V424.672H251.512V422.978C251.512 422.377 251.424 421.915 251.248 421.592C251.072 421.269 250.867 420.954 250.632 420.646C250.383 420.323 250.148 419.993 249.928 419.656C249.708 419.304 249.598 418.893 249.598 418.424C249.598 417.808 249.811 417.309 250.236 416.928C250.676 416.547 251.27 416.305 252.018 416.202V416.114C251.27 416.011 250.676 415.769 250.236 415.388C249.811 415.007 249.598 414.508 249.598 413.892C249.598 413.423 249.708 413.019 249.928 412.682C250.148 412.33 250.383 411.993 250.632 411.67C250.867 411.362 251.072 411.047 251.248 410.724C251.424 410.401 251.512 409.939 251.512 409.338V407.644H247.31V406.28H251.182Z" fill="black"/>
</svg>
