<svg width="1010" height="757" viewBox="0 0 1010 757" fill="none" xmlns="http://www.w3.org/2000/svg">
<mask id="path-1-inside-1_1646_4161" fill="white">
<path fill-rule="evenodd" clip-rule="evenodd" d="M112.222 551.528L88.434 591.897L64.4683 551.633L80.3506 551.598V472.778H96.2332V551.563L112.222 551.528Z"/>
</mask>
<path fill-rule="evenodd" clip-rule="evenodd" d="M112.222 551.528L88.434 591.897L64.4683 551.633L80.3506 551.598V472.778H96.2332V551.563L112.222 551.528Z" fill="#FEC900"/>
<path d="M88.434 591.897L89.2955 592.405L88.4383 593.859L87.5747 592.409L88.434 591.897ZM112.222 551.528L112.22 550.528L113.975 550.524L113.084 552.036L112.222 551.528ZM64.4683 551.633L63.609 552.145L62.7116 550.637L64.4661 550.633L64.4683 551.633ZM80.3506 551.598H81.3506V552.596L80.3528 552.598L80.3506 551.598ZM80.3506 472.778H79.3506V471.778H80.3506V472.778ZM96.2332 472.778V471.778H97.2332V472.778H96.2332ZM96.2332 551.563L96.2354 552.563L95.2332 552.565V551.563H96.2332ZM87.5724 591.389L111.361 551.02L113.084 552.036L89.2955 592.405L87.5724 591.389ZM65.3276 551.122L89.2933 591.386L87.5747 592.409L63.609 552.145L65.3276 551.122ZM80.3528 552.598L64.4705 552.633L64.4661 550.633L80.3484 550.598L80.3528 552.598ZM81.3506 472.778V551.598H79.3506V472.778H81.3506ZM96.2332 473.778H80.3506V471.778H96.2332V473.778ZM95.2332 551.563V472.778H97.2332V551.563H95.2332ZM112.225 552.528L96.2354 552.563L96.231 550.563L112.22 550.528L112.225 552.528Z" fill="black" mask="url(#path-1-inside-1_1646_4161)"/>
<rect x="0.5" y="592.658" width="167.333" height="163.752" fill="white"/>
<rect x="0.5" y="592.658" width="167.333" height="163.752" stroke="black"/>
<path d="M83.4936 671.63L79.2456 673.982V671.03L84.1656 667.958H86.9976V683.534H83.4936V671.63Z" fill="black"/>
<rect x="163.882" y="592.658" width="167.333" height="163.752" fill="white"/>
<rect x="163.882" y="592.658" width="167.333" height="163.752" stroke="black"/>
<path d="M241.98 679.982C241.98 679.118 242.22 678.366 242.7 677.726C243.18 677.086 243.804 676.598 244.572 676.262C245.18 675.99 245.892 675.718 246.708 675.446C247.524 675.174 248.156 674.886 248.604 674.582C249.052 674.278 249.276 673.918 249.276 673.502V671.51C249.276 671.014 249.076 670.686 248.676 670.526C248.244 670.35 247.572 670.262 246.66 670.262C245.556 670.262 244.1 670.462 242.292 670.862V668.222C243.892 667.886 245.564 667.718 247.308 667.718C249.196 667.718 250.596 668.006 251.508 668.582C252.436 669.158 252.9 670.118 252.9 671.462V673.622C252.9 674.438 252.652 675.15 252.156 675.758C251.676 676.35 251.052 676.798 250.284 677.102C249.564 677.406 248.828 677.678 248.076 677.918C247.26 678.206 246.612 678.526 246.132 678.878C245.668 679.23 245.436 679.646 245.436 680.126V680.918H252.924V683.534H241.98V679.982Z" fill="black"/>
<rect x="327.265" y="592.658" width="167.333" height="163.752" fill="white"/>
<rect x="327.265" y="592.658" width="167.333" height="163.752" stroke="black"/>
<path d="M410.33 683.774C408.986 683.774 407.242 683.654 405.098 683.414V680.63L405.866 680.774C406.17 680.838 406.338 680.878 406.37 680.894L407.186 681.038C407.378 681.07 407.786 681.118 408.41 681.182C408.89 681.23 409.378 681.254 409.874 681.254C410.802 681.254 411.442 681.142 411.794 680.918C412.162 680.694 412.346 680.27 412.346 679.646V677.846C412.346 677.094 411.538 676.718 409.922 676.718H407.09V674.318H409.922C411.17 674.318 411.794 673.862 411.794 672.95V671.438C411.794 671.102 411.73 670.846 411.602 670.67C411.474 670.478 411.242 670.342 410.906 670.262C410.586 670.182 410.106 670.142 409.466 670.142C408.554 670.142 407.146 670.238 405.242 670.43V667.934C407.418 667.79 408.954 667.718 409.85 667.718C411.802 667.718 413.21 667.942 414.074 668.39C414.954 668.838 415.394 669.63 415.394 670.766V673.334C415.394 673.798 415.25 674.198 414.962 674.534C414.69 674.854 414.338 675.07 413.906 675.182C415.314 675.678 416.018 676.454 416.018 677.51V680.054C416.018 681.382 415.562 682.334 414.65 682.91C413.738 683.486 412.298 683.774 410.33 683.774Z" fill="black"/>
<rect x="490.647" y="592.658" width="167.333" height="163.752" fill="white"/>
<rect x="490.647" y="592.658" width="167.333" height="163.752" stroke="black"/>
<path d="M575.177 680.39H567.977V677.63L574.385 667.958H578.345V677.87H580.025V680.39H578.345V683.534H575.177V680.39ZM575.177 677.87V671.27L570.977 677.87H575.177Z" fill="black"/>
<rect x="654.029" y="592.658" width="167.333" height="163.752" fill="white"/>
<rect x="654.029" y="592.658" width="167.333" height="163.752" stroke="black"/>
<path d="M737.167 683.774C736.063 683.774 734.407 683.686 732.199 683.51V680.606C734.183 680.974 735.679 681.158 736.687 681.158C737.567 681.158 738.207 681.062 738.607 680.87C739.007 680.662 739.207 680.342 739.207 679.91V677.582C739.207 677.15 739.063 676.846 738.775 676.67C738.487 676.478 738.015 676.382 737.359 676.382H732.559V667.958H742.399V670.646H736.063V673.814H738.511C739.439 673.814 740.343 673.99 741.223 674.342C741.703 674.55 742.087 674.87 742.375 675.302C742.663 675.734 742.807 676.238 742.807 676.814V680.078C742.807 680.702 742.687 681.262 742.447 681.758C742.207 682.238 741.903 682.606 741.535 682.862C741.215 683.102 740.783 683.294 740.239 683.438C739.711 683.582 739.199 683.678 738.703 683.726C738.127 683.758 737.615 683.774 737.167 683.774Z" fill="black"/>
<rect x="817.412" y="592.658" width="192.088" height="163.752" fill="white"/>
<rect x="817.412" y="592.658" width="192.088" height="163.752" stroke="black"/>
<path d="M905.445 680.222H909.189V683.534H905.445V680.222ZM911.585 680.222H915.329V683.534H911.585V680.222ZM917.726 680.222H921.47V683.534H917.726V680.222Z" fill="black"/>
<rect x="17.2139" y="351.5" width="139.875" height="123.161" rx="5.5" fill="#FEC900"/>
<rect x="17.2139" y="351.5" width="139.875" height="123.161" rx="5.5" stroke="black"/>
<path d="M71.7186 410.464H75.0306V411.616C75.2386 411.104 75.6466 410.744 76.2546 410.536C76.8626 410.328 77.7666 410.224 78.9666 410.224C79.9746 410.224 80.7826 410.304 81.3906 410.464C82.0146 410.624 82.4866 410.88 82.8066 411.232C83.1106 411.584 83.3186 411.976 83.4306 412.408C83.5426 412.824 83.5986 413.4 83.5986 414.136V417.952C83.5986 419.104 83.4306 419.992 83.0946 420.616C82.7586 421.24 82.2386 421.68 81.5346 421.936C80.8466 422.192 79.9026 422.32 78.7026 422.32C77.5506 422.32 76.7186 422.224 76.2066 422.032C75.6946 421.84 75.3666 421.464 75.2226 420.904V427.072H71.7186V410.464ZM77.6226 420.136C78.3106 420.136 78.8306 420.088 79.1826 419.992C79.5346 419.896 79.7746 419.728 79.9026 419.488C80.0306 419.248 80.0946 418.888 80.0946 418.408V414.112C80.0946 413.584 80.0386 413.208 79.9266 412.984C79.8146 412.744 79.5906 412.584 79.2546 412.504C78.9186 412.424 78.3666 412.384 77.5986 412.384C76.9426 412.384 76.4386 412.44 76.0866 412.552C75.7506 412.664 75.5186 412.84 75.3906 413.08C75.2786 413.32 75.2226 413.664 75.2226 414.112V418.408C75.2226 418.888 75.2786 419.248 75.3906 419.488C75.5186 419.728 75.7506 419.896 76.0866 419.992C76.4226 420.088 76.9346 420.136 77.6226 420.136ZM92.1516 422.32C91.5596 422.32 91.0636 422.296 90.6636 422.248C90.2636 422.2 89.8636 422.104 89.4636 421.96C89.0156 421.816 88.6476 421.616 88.3596 421.36C88.0876 421.104 87.8636 420.752 87.6876 420.304C87.4956 419.84 87.3996 419.304 87.3996 418.696V412.624H85.0476V410.464H87.3996V407.104H90.9036V410.464H94.0956V412.624H90.9036V418.096C90.9036 418.656 90.9516 419.08 91.0476 419.368C91.1436 419.64 91.3276 419.84 91.5996 419.968C91.8716 420.08 92.2876 420.136 92.8476 420.136C93.0716 420.136 93.4876 420.096 94.0956 420.016V422.2C93.3436 422.28 92.6956 422.32 92.1516 422.32ZM96.1171 410.464H99.4531V412.504C99.4531 412.136 99.6051 411.776 99.9091 411.424C100.213 411.072 100.597 410.784 101.061 410.56C101.541 410.336 102.013 410.224 102.477 410.224H103.725V413.128H102.525C101.533 413.128 100.797 413.28 100.317 413.584C99.8531 413.888 99.6211 414.392 99.6211 415.096V422.08H96.1171V410.464Z" fill="black"/>
<rect x="82" width="846" height="77" rx="5" fill="#FEC900"/>
<path d="M128.761 47.76C127.305 47.76 125.415 47.63 123.093 47.37V44.354L123.925 44.51C124.254 44.5793 124.436 44.6227 124.471 44.64L125.355 44.796C125.563 44.8307 126.005 44.8827 126.681 44.952C127.201 45.004 127.729 45.03 128.267 45.03C129.272 45.03 129.965 44.9087 130.347 44.666C130.745 44.4233 130.945 43.964 130.945 43.288V41.338C130.945 40.5233 130.069 40.116 128.319 40.116H125.251V37.516H128.319C129.671 37.516 130.347 37.022 130.347 36.034V34.396C130.347 34.032 130.277 33.7547 130.139 33.564C130 33.356 129.749 33.2087 129.385 33.122C129.038 33.0353 128.518 32.992 127.825 32.992C126.837 32.992 125.311 33.096 123.249 33.304V30.6C125.606 30.444 127.27 30.366 128.241 30.366C130.355 30.366 131.881 30.6087 132.817 31.094C133.77 31.5793 134.247 32.4373 134.247 33.668V36.45C134.247 36.9527 134.091 37.386 133.779 37.75C133.484 38.0967 133.103 38.3307 132.635 38.452C134.16 38.9893 134.923 39.83 134.923 40.974V43.73C134.923 45.1687 134.429 46.2 133.441 46.824C132.453 47.448 130.893 47.76 128.761 47.76ZM138.253 43.912H142.309V47.5H138.253V43.912ZM185.314 47.76C180.444 47.76 178.008 46.1307 178.008 42.872V30.626H182.064V42.872C182.064 43.6347 182.307 44.1633 182.792 44.458C183.295 44.7353 184.153 44.874 185.366 44.874C186.562 44.874 187.394 44.7353 187.862 44.458C188.348 44.1633 188.59 43.6347 188.59 42.872V30.626H192.646V42.872C192.646 46.1307 190.202 47.76 185.314 47.76ZM200.79 47.76C199.438 47.76 197.783 47.63 195.824 47.37V44.848C198.233 45.212 199.906 45.394 200.842 45.394C201.639 45.394 202.229 45.316 202.61 45.16C202.991 45.004 203.182 44.718 203.182 44.302V43.522C203.182 43.0887 203.061 42.7853 202.818 42.612C202.575 42.4213 202.099 42.326 201.388 42.326H199.75C198.415 42.326 197.384 42.066 196.656 41.546C195.928 41.0087 195.564 40.2287 195.564 39.206V37.672C195.564 36.58 196.084 35.8087 197.124 35.358C198.164 34.89 199.733 34.656 201.83 34.656C202.662 34.656 204.153 34.734 206.302 34.89V37.308C203.598 37.1 202.073 36.996 201.726 36.996C200.703 36.996 200.036 37.0653 199.724 37.204C199.447 37.36 199.308 37.646 199.308 38.062V38.738C199.308 38.9633 199.421 39.1627 199.646 39.336C199.871 39.492 200.201 39.57 200.634 39.57H202.298C205.383 39.57 206.926 40.5753 206.926 42.586V44.172C206.926 44.7787 206.813 45.3073 206.588 45.758C206.363 46.2087 206.068 46.564 205.704 46.824C205.357 47.0667 204.907 47.2573 204.352 47.396C203.815 47.5347 203.251 47.63 202.662 47.682C202.125 47.734 201.501 47.76 200.79 47.76ZM216.062 47.76C211.607 47.76 209.38 46.3993 209.38 43.678V39.154C209.38 37.5767 209.883 36.4327 210.888 35.722C211.911 35.0113 213.479 34.656 215.594 34.656C217.587 34.656 219.043 35.0027 219.962 35.696C220.898 36.372 221.366 37.5247 221.366 39.154V42.222H213.202V43.366C213.202 44.094 213.462 44.614 213.982 44.926C214.502 45.238 215.438 45.394 216.79 45.394C218.038 45.394 219.442 45.212 221.002 44.848V47.266C219.459 47.5953 217.813 47.76 216.062 47.76ZM217.752 40.064V38.244C217.752 37.828 217.579 37.516 217.232 37.308C216.903 37.1 216.339 36.996 215.542 36.996C214.623 36.996 214.008 37.1 213.696 37.308C213.367 37.5333 213.202 37.8453 213.202 38.244V40.064H217.752ZM229.104 47.76C227.613 47.76 226.512 47.656 225.802 47.448C225.091 47.2227 224.597 46.8067 224.32 46.2C224.042 45.5933 223.904 44.6487 223.904 43.366V38.452C223.904 37.0653 224.294 36.086 225.074 35.514C225.871 34.942 227.154 34.656 228.922 34.656C229.754 34.656 230.404 34.708 230.872 34.812C231.357 34.8987 231.747 35.0633 232.042 35.306C232.336 35.5313 232.64 35.8693 232.952 36.32V29.3H236.748V47.5H233.082V46.07C232.77 46.5727 232.484 46.928 232.224 47.136C231.981 47.3267 231.634 47.474 231.184 47.578C230.716 47.6993 230.022 47.76 229.104 47.76ZM230.066 45.394C230.915 45.394 231.539 45.3507 231.938 45.264C232.336 45.1773 232.605 45.0213 232.744 44.796C232.882 44.5533 232.952 44.198 232.952 43.73V38.66C232.952 38.2267 232.874 37.8973 232.718 37.672C232.579 37.4293 232.319 37.256 231.938 37.152C231.574 37.048 231.019 36.996 230.274 36.996C229.476 36.996 228.904 37.048 228.558 37.152C228.211 37.2387 227.977 37.4033 227.856 37.646C227.752 37.8713 227.7 38.2527 227.7 38.79V43.6C227.7 44.0853 227.752 44.458 227.856 44.718C227.977 44.9607 228.202 45.134 228.532 45.238C228.861 45.342 229.372 45.394 230.066 45.394ZM247.04 37.256H244.674V34.916H247.04V33.018C247.04 31.9953 247.205 31.198 247.534 30.626C247.881 30.0367 248.401 29.6293 249.094 29.404C249.805 29.1613 250.749 29.04 251.928 29.04C252.569 29.04 253.514 29.1093 254.762 29.248V31.588C253.653 31.4493 252.907 31.38 252.526 31.38C251.885 31.38 251.443 31.484 251.2 31.692C250.957 31.8827 250.836 32.2553 250.836 32.81V34.916H254.294V37.256H250.836V47.5H247.04V37.256ZM262.19 47.76C261.41 47.76 260.769 47.734 260.266 47.682C259.763 47.63 259.226 47.526 258.654 47.37C258.03 47.1967 257.527 46.954 257.146 46.642C256.765 46.3127 256.444 45.8533 256.184 45.264C255.924 44.692 255.794 43.9987 255.794 43.184V39.466C255.794 38.634 255.924 37.906 256.184 37.282C256.444 36.658 256.782 36.1727 257.198 35.826C257.562 35.5313 258.039 35.2887 258.628 35.098C259.235 34.89 259.824 34.76 260.396 34.708C261.055 34.6733 261.653 34.656 262.19 34.656C262.987 34.656 263.62 34.682 264.088 34.734C264.573 34.7687 265.102 34.8727 265.674 35.046C266.298 35.2367 266.801 35.4967 267.182 35.826C267.581 36.1553 267.919 36.6233 268.196 37.23C268.456 37.854 268.586 38.5993 268.586 39.466V43.184C268.586 43.964 268.456 44.6487 268.196 45.238C267.953 45.8273 267.633 46.2867 267.234 46.616C266.887 46.9107 266.411 47.1533 265.804 47.344C265.215 47.5173 264.634 47.63 264.062 47.682C263.542 47.734 262.918 47.76 262.19 47.76ZM262.19 45.394C262.901 45.394 263.438 45.342 263.802 45.238C264.166 45.1167 264.417 44.9347 264.556 44.692C264.712 44.4493 264.79 44.094 264.79 43.626V38.868C264.79 38.1747 264.608 37.6893 264.244 37.412C263.88 37.1347 263.195 36.996 262.19 36.996C261.185 36.996 260.5 37.1347 260.136 37.412C259.772 37.6893 259.59 38.1747 259.59 38.868V43.626C259.59 44.094 259.659 44.4493 259.798 44.692C259.954 44.9347 260.214 45.1167 260.578 45.238C260.942 45.342 261.479 45.394 262.19 45.394ZM271.545 34.916H275.159V37.126C275.159 36.7273 275.324 36.3373 275.653 35.956C275.982 35.5747 276.398 35.2627 276.901 35.02C277.421 34.7773 277.932 34.656 278.435 34.656H279.787V37.802H278.487C277.412 37.802 276.615 37.9667 276.095 38.296C275.592 38.6253 275.341 39.1713 275.341 39.934V47.5H271.545V34.916ZM287.975 30.366H291.771V33.434H287.975V30.366ZM287.975 34.916H291.771V47.5H287.975V34.916ZM301.501 47.76C300.86 47.76 300.322 47.734 299.889 47.682C299.456 47.63 299.022 47.526 298.589 47.37C298.104 47.214 297.705 46.9973 297.393 46.72C297.098 46.4427 296.856 46.0613 296.665 45.576C296.457 45.0733 296.353 44.4927 296.353 43.834V37.256H293.805V34.916H296.353V31.276H300.149V34.916H303.607V37.256H300.149V43.184C300.149 43.7907 300.201 44.25 300.305 44.562C300.409 44.8567 300.608 45.0733 300.903 45.212C301.198 45.3333 301.648 45.394 302.255 45.394C302.498 45.394 302.948 45.3507 303.607 45.264V47.63C302.792 47.7167 302.09 47.76 301.501 47.76ZM312.115 47.76C307.66 47.76 305.433 46.3993 305.433 43.678V39.154C305.433 37.5767 305.935 36.4327 306.941 35.722C307.963 35.0113 309.532 34.656 311.647 34.656C313.64 34.656 315.096 35.0027 316.015 35.696C316.951 36.372 317.419 37.5247 317.419 39.154V42.222H309.255V43.366C309.255 44.094 309.515 44.614 310.035 44.926C310.555 45.238 311.491 45.394 312.843 45.394C314.091 45.394 315.495 45.212 317.055 44.848V47.266C315.512 47.5953 313.865 47.76 312.115 47.76ZM313.805 40.064V38.244C313.805 37.828 313.631 37.516 313.285 37.308C312.955 37.1 312.392 36.996 311.595 36.996C310.676 36.996 310.061 37.1 309.749 37.308C309.419 37.5333 309.255 37.8453 309.255 38.244V40.064H313.805ZM320.32 34.916H323.934V37.126C323.934 36.7273 324.099 36.3373 324.428 35.956C324.758 35.5747 325.174 35.2627 325.676 35.02C326.196 34.7773 326.708 34.656 327.21 34.656H328.562V37.802H327.262C326.188 37.802 325.39 37.9667 324.87 38.296C324.368 38.6253 324.116 39.1713 324.116 39.934V47.5H320.32V34.916ZM334.216 47.76C333.038 47.76 332.154 47.656 331.564 47.448C330.992 47.2227 330.585 46.8327 330.342 46.278C330.117 45.706 330.004 44.8567 330.004 43.73C330.004 42.7247 330.126 41.936 330.368 41.364C330.628 40.792 331.036 40.3847 331.59 40.142C332.162 39.882 332.942 39.752 333.93 39.752H338.194V38.894C338.194 38.3567 338.116 37.958 337.96 37.698C337.822 37.438 337.553 37.256 337.154 37.152C336.773 37.048 336.192 36.996 335.412 36.996C334.338 36.996 332.864 37.1 330.992 37.308V34.916C332.362 34.7427 333.965 34.656 335.802 34.656C337.414 34.656 338.654 34.7773 339.52 35.02C340.404 35.2627 341.037 35.6787 341.418 36.268C341.8 36.8573 341.99 37.7153 341.99 38.842V47.5H338.272V46.356C337.978 46.8587 337.579 47.214 337.076 47.422C336.574 47.6473 335.62 47.76 334.216 47.76ZM335.698 45.394C336.461 45.394 337.007 45.368 337.336 45.316C337.579 45.2813 337.744 45.2293 337.83 45.16C337.934 45.0907 338.021 44.978 338.09 44.822C338.16 44.7007 338.194 44.5187 338.194 44.276V41.832H335.594C335.005 41.832 334.589 41.8753 334.346 41.962C334.104 42.0313 333.939 42.1873 333.852 42.43C333.766 42.6553 333.722 43.0627 333.722 43.652C333.722 44.224 333.766 44.6227 333.852 44.848C333.939 45.0733 334.104 45.2207 334.346 45.29C334.606 45.3593 335.057 45.394 335.698 45.394ZM351.622 47.76C350.981 47.76 350.443 47.734 350.01 47.682C349.577 47.63 349.143 47.526 348.71 47.37C348.225 47.214 347.826 46.9973 347.514 46.72C347.219 46.4427 346.977 46.0613 346.786 45.576C346.578 45.0733 346.474 44.4927 346.474 43.834V37.256H343.926V34.916H346.474V31.276H350.27V34.916H353.728V37.256H350.27V43.184C350.27 43.7907 350.322 44.25 350.426 44.562C350.53 44.8567 350.729 45.0733 351.024 45.212C351.319 45.3333 351.769 45.394 352.376 45.394C352.619 45.394 353.069 45.3507 353.728 45.264V47.63C352.913 47.7167 352.211 47.76 351.622 47.76ZM356.022 30.366H359.818V33.434H356.022V30.366ZM356.022 34.916H359.818V47.5H356.022V34.916ZM363.256 34.916H367V36.45C367.294 35.254 368.638 34.656 371.03 34.656C372.642 34.656 373.768 34.9507 374.41 35.54C375.068 36.112 375.398 37.022 375.398 38.27V47.5H371.602V38.764C371.602 38.2787 371.55 37.9147 371.446 37.672C371.359 37.4293 371.168 37.256 370.874 37.152C370.596 37.048 370.163 36.996 369.574 36.996C368.828 36.996 368.282 37.048 367.936 37.152C367.589 37.2387 367.355 37.4033 367.234 37.646C367.112 37.8887 367.052 38.2613 367.052 38.764V47.5H363.256V34.916ZM383.815 53.22C381.769 53.22 380.253 53.1593 379.265 53.038V50.49C380.894 50.7153 382.411 50.828 383.815 50.828C385.097 50.828 386.016 50.62 386.571 50.204C387.125 49.788 387.403 49.0947 387.403 48.124V46.096C387.091 46.5467 386.787 46.8933 386.493 47.136C386.198 47.3613 385.808 47.5173 385.323 47.604C384.855 47.708 384.205 47.76 383.373 47.76C382.142 47.76 381.163 47.6473 380.435 47.422C379.707 47.1793 379.178 46.7893 378.849 46.252C378.519 45.6973 378.355 44.9347 378.355 43.964V39.05C378.355 37.8887 378.502 36.996 378.797 36.372C379.109 35.748 379.629 35.306 380.357 35.046C381.102 34.786 382.168 34.656 383.555 34.656C384.456 34.656 385.149 34.708 385.635 34.812C386.103 34.916 386.458 35.072 386.701 35.28C386.943 35.488 387.221 35.8433 387.533 36.346V34.916H391.199V48.176C391.199 49.9613 390.583 51.244 389.353 52.024C388.139 52.8213 386.293 53.22 383.815 53.22ZM384.725 45.394C385.47 45.394 386.025 45.342 386.389 45.238C386.77 45.134 387.03 44.9693 387.169 44.744C387.325 44.5013 387.403 44.1633 387.403 43.73V38.66C387.403 38.192 387.333 37.8453 387.195 37.62C387.056 37.3773 386.787 37.2127 386.389 37.126C385.99 37.0393 385.366 36.996 384.517 36.996C383.823 36.996 383.312 37.048 382.983 37.152C382.653 37.256 382.428 37.438 382.307 37.698C382.203 37.9407 382.151 38.3047 382.151 38.79V43.6C382.151 44.1373 382.203 44.5273 382.307 44.77C382.428 44.9953 382.662 45.16 383.009 45.264C383.355 45.3507 383.927 45.394 384.725 45.394ZM406.821 47.76C406.18 47.76 405.643 47.734 405.209 47.682C404.776 47.63 404.343 47.526 403.909 47.37C403.424 47.214 403.025 46.9973 402.713 46.72C402.419 46.4427 402.176 46.0613 401.985 45.576C401.777 45.0733 401.673 44.4927 401.673 43.834V37.256H399.125V34.916H401.673V31.276H405.469V34.916H408.927V37.256H405.469V43.184C405.469 43.7907 405.521 44.25 405.625 44.562C405.729 44.8567 405.929 45.0733 406.223 45.212C406.518 45.3333 406.969 45.394 407.575 45.394C407.818 45.394 408.269 45.3507 408.927 45.264V47.63C408.113 47.7167 407.411 47.76 406.821 47.76ZM411.117 29.3H414.913V36.45C415.156 35.254 416.482 34.656 418.891 34.656C420.503 34.656 421.63 34.9507 422.271 35.54C422.93 36.112 423.259 37.022 423.259 38.27V47.5H419.463V38.712C419.463 38.2267 419.411 37.8713 419.307 37.646C419.22 37.4033 419.038 37.2387 418.761 37.152C418.484 37.048 418.042 36.996 417.435 36.996C416.69 36.996 416.144 37.0393 415.797 37.126C415.45 37.2127 415.216 37.3773 415.095 37.62C414.974 37.8453 414.913 38.2093 414.913 38.712V47.5H411.117V29.3ZM426.58 34.916H430.194V37.126C430.194 36.7273 430.359 36.3373 430.688 35.956C431.017 35.5747 431.433 35.2627 431.936 35.02C432.456 34.7773 432.967 34.656 433.47 34.656H434.822V37.802H433.522C432.447 37.802 431.65 37.9667 431.13 38.296C430.627 38.6253 430.376 39.1713 430.376 39.934V47.5H426.58V34.916ZM442.946 47.76C442.166 47.76 441.525 47.734 441.022 47.682C440.519 47.63 439.982 47.526 439.41 47.37C438.786 47.1967 438.283 46.954 437.902 46.642C437.521 46.3127 437.2 45.8533 436.94 45.264C436.68 44.692 436.55 43.9987 436.55 43.184V39.466C436.55 38.634 436.68 37.906 436.94 37.282C437.2 36.658 437.538 36.1727 437.954 35.826C438.318 35.5313 438.795 35.2887 439.384 35.098C439.991 34.89 440.58 34.76 441.152 34.708C441.811 34.6733 442.409 34.656 442.946 34.656C443.743 34.656 444.376 34.682 444.844 34.734C445.329 34.7687 445.858 34.8727 446.43 35.046C447.054 35.2367 447.557 35.4967 447.938 35.826C448.337 36.1553 448.675 36.6233 448.952 37.23C449.212 37.854 449.342 38.5993 449.342 39.466V43.184C449.342 43.964 449.212 44.6487 448.952 45.238C448.709 45.8273 448.389 46.2867 447.99 46.616C447.643 46.9107 447.167 47.1533 446.56 47.344C445.971 47.5173 445.39 47.63 444.818 47.682C444.298 47.734 443.674 47.76 442.946 47.76ZM442.946 45.394C443.657 45.394 444.194 45.342 444.558 45.238C444.922 45.1167 445.173 44.9347 445.312 44.692C445.468 44.4493 445.546 44.094 445.546 43.626V38.868C445.546 38.1747 445.364 37.6893 445 37.412C444.636 37.1347 443.951 36.996 442.946 36.996C441.941 36.996 441.256 37.1347 440.892 37.412C440.528 37.6893 440.346 38.1747 440.346 38.868V43.626C440.346 44.094 440.415 44.4493 440.554 44.692C440.71 44.9347 440.97 45.1167 441.334 45.238C441.698 45.342 442.235 45.394 442.946 45.394ZM456.669 47.76C455.057 47.76 453.921 47.474 453.263 46.902C452.621 46.3127 452.301 45.394 452.301 44.146V34.916H456.097V43.626C456.097 44.1113 456.14 44.4753 456.227 44.718C456.331 44.9607 456.521 45.134 456.799 45.238C457.093 45.342 457.535 45.394 458.125 45.394C458.87 45.394 459.416 45.3507 459.763 45.264C460.109 45.16 460.343 44.9867 460.465 44.744C460.586 44.5013 460.647 44.1287 460.647 43.626V34.916H464.443V47.5H460.699V45.966C460.421 47.162 459.078 47.76 456.669 47.76ZM472.86 53.22C470.814 53.22 469.298 53.1593 468.31 53.038V50.49C469.939 50.7153 471.456 50.828 472.86 50.828C474.142 50.828 475.061 50.62 475.616 50.204C476.17 49.788 476.448 49.0947 476.448 48.124V46.096C476.136 46.5467 475.832 46.8933 475.538 47.136C475.243 47.3613 474.853 47.5173 474.368 47.604C473.9 47.708 473.25 47.76 472.418 47.76C471.187 47.76 470.208 47.6473 469.48 47.422C468.752 47.1793 468.223 46.7893 467.894 46.252C467.564 45.6973 467.4 44.9347 467.4 43.964V39.05C467.4 37.8887 467.547 36.996 467.842 36.372C468.154 35.748 468.674 35.306 469.402 35.046C470.147 34.786 471.213 34.656 472.6 34.656C473.501 34.656 474.194 34.708 474.68 34.812C475.148 34.916 475.503 35.072 475.746 35.28C475.988 35.488 476.266 35.8433 476.578 36.346V34.916H480.244V48.176C480.244 49.9613 479.628 51.244 478.398 52.024C477.184 52.8213 475.338 53.22 472.86 53.22ZM473.77 45.394C474.515 45.394 475.07 45.342 475.434 45.238C475.815 45.134 476.075 44.9693 476.214 44.744C476.37 44.5013 476.448 44.1633 476.448 43.73V38.66C476.448 38.192 476.378 37.8453 476.24 37.62C476.101 37.3773 475.832 37.2127 475.434 37.126C475.035 37.0393 474.411 36.996 473.562 36.996C472.868 36.996 472.357 37.048 472.028 37.152C471.698 37.256 471.473 37.438 471.352 37.698C471.248 37.9407 471.196 38.3047 471.196 38.79V43.6C471.196 44.1373 471.248 44.5273 471.352 44.77C471.473 44.9953 471.707 45.16 472.054 45.264C472.4 45.3507 472.972 45.394 473.77 45.394ZM483.582 29.3H487.378V36.45C487.621 35.254 488.947 34.656 491.356 34.656C492.968 34.656 494.095 34.9507 494.736 35.54C495.395 36.112 495.724 37.022 495.724 38.27V47.5H491.928V38.712C491.928 38.2267 491.876 37.8713 491.772 37.646C491.685 37.4033 491.503 37.2387 491.226 37.152C490.949 37.048 490.507 36.996 489.9 36.996C489.155 36.996 488.609 37.0393 488.262 37.126C487.915 37.2127 487.681 37.3773 487.56 37.62C487.439 37.8453 487.378 38.2093 487.378 38.712V47.5H483.582V29.3ZM508.599 47.76C507.42 47.76 506.536 47.656 505.947 47.448C505.375 47.2227 504.968 46.8327 504.725 46.278C504.5 45.706 504.387 44.8567 504.387 43.73C504.387 42.7247 504.508 41.936 504.751 41.364C505.011 40.792 505.418 40.3847 505.973 40.142C506.545 39.882 507.325 39.752 508.313 39.752H512.577V38.894C512.577 38.3567 512.499 37.958 512.343 37.698C512.204 37.438 511.936 37.256 511.537 37.152C511.156 37.048 510.575 36.996 509.795 36.996C508.72 36.996 507.247 37.1 505.375 37.308V34.916C506.744 34.7427 508.348 34.656 510.185 34.656C511.797 34.656 513.036 34.7773 513.903 35.02C514.787 35.2627 515.42 35.6787 515.801 36.268C516.182 36.8573 516.373 37.7153 516.373 38.842V47.5H512.655V46.356C512.36 46.8587 511.962 47.214 511.459 47.422C510.956 47.6473 510.003 47.76 508.599 47.76ZM510.081 45.394C510.844 45.394 511.39 45.368 511.719 45.316C511.962 45.2813 512.126 45.2293 512.213 45.16C512.317 45.0907 512.404 44.978 512.473 44.822C512.542 44.7007 512.577 44.5187 512.577 44.276V41.832H509.977C509.388 41.832 508.972 41.8753 508.729 41.962C508.486 42.0313 508.322 42.1873 508.235 42.43C508.148 42.6553 508.105 43.0627 508.105 43.652C508.105 44.224 508.148 44.6227 508.235 44.848C508.322 45.0733 508.486 45.2207 508.729 45.29C508.989 45.3593 509.44 45.394 510.081 45.394ZM519.713 34.916H523.327V37.126C523.327 36.7273 523.491 36.3373 523.821 35.956C524.15 35.5747 524.566 35.2627 525.069 35.02C525.589 34.7773 526.1 34.656 526.603 34.656H527.955V37.802H526.655C525.58 37.802 524.783 37.9667 524.263 38.296C523.76 38.6253 523.509 39.1713 523.509 39.934V47.5H519.713V34.916ZM530.047 34.916H533.661V37.126C533.661 36.7273 533.825 36.3373 534.155 35.956C534.484 35.5747 534.9 35.2627 535.403 35.02C535.923 34.7773 536.434 34.656 536.937 34.656H538.289V37.802H536.989C535.914 37.802 535.117 37.9667 534.597 38.296C534.094 38.6253 533.843 39.1713 533.843 39.934V47.5H530.047V34.916ZM543.943 47.76C542.764 47.76 541.88 47.656 541.291 47.448C540.719 47.2227 540.311 46.8327 540.069 46.278C539.843 45.706 539.731 44.8567 539.731 43.73C539.731 42.7247 539.852 41.936 540.095 41.364C540.355 40.792 540.762 40.3847 541.317 40.142C541.889 39.882 542.669 39.752 543.657 39.752H547.921V38.894C547.921 38.3567 547.843 37.958 547.687 37.698C547.548 37.438 547.279 37.256 546.881 37.152C546.499 37.048 545.919 36.996 545.139 36.996C544.064 36.996 542.591 37.1 540.719 37.308V34.916C542.088 34.7427 543.691 34.656 545.529 34.656C547.141 34.656 548.38 34.7773 549.247 35.02C550.131 35.2627 550.763 35.6787 551.145 36.268C551.526 36.8573 551.717 37.7153 551.717 38.842V47.5H547.999V46.356C547.704 46.8587 547.305 47.214 546.803 47.422C546.3 47.6473 545.347 47.76 543.943 47.76ZM545.425 45.394C546.187 45.394 546.733 45.368 547.063 45.316C547.305 45.2813 547.47 45.2293 547.557 45.16C547.661 45.0907 547.747 44.978 547.817 44.822C547.886 44.7007 547.921 44.5187 547.921 44.276V41.832H545.321C544.731 41.832 544.315 41.8753 544.073 41.962C543.83 42.0313 543.665 42.1873 543.579 42.43C543.492 42.6553 543.449 43.0627 543.449 43.652C543.449 44.224 543.492 44.6227 543.579 44.848C543.665 45.0733 543.83 45.2207 544.073 45.29C544.333 45.3593 544.783 45.394 545.425 45.394ZM558.619 47.396L553.601 34.916H557.735L560.569 43.808L563.143 34.916H567.069L560.179 52.908H556.331L558.619 47.396ZM573.651 47.76C572.299 47.76 570.644 47.63 568.685 47.37V44.848C571.095 45.212 572.767 45.394 573.703 45.394C574.501 45.394 575.09 45.316 575.471 45.16C575.853 45.004 576.043 44.718 576.043 44.302V43.522C576.043 43.0887 575.922 42.7853 575.679 42.612C575.437 42.4213 574.96 42.326 574.249 42.326H572.611C571.277 42.326 570.245 42.066 569.517 41.546C568.789 41.0087 568.425 40.2287 568.425 39.206V37.672C568.425 36.58 568.945 35.8087 569.985 35.358C571.025 34.89 572.594 34.656 574.691 34.656C575.523 34.656 577.014 34.734 579.163 34.89V37.308C576.459 37.1 574.934 36.996 574.587 36.996C573.565 36.996 572.897 37.0653 572.585 37.204C572.308 37.36 572.169 37.646 572.169 38.062V38.738C572.169 38.9633 572.282 39.1627 572.507 39.336C572.733 39.492 573.062 39.57 573.495 39.57H575.159C578.245 39.57 579.787 40.5753 579.787 42.586V44.172C579.787 44.7787 579.675 45.3073 579.449 45.758C579.224 46.2087 578.929 46.564 578.565 46.824C578.219 47.0667 577.768 47.2573 577.213 47.396C576.676 47.5347 576.113 47.63 575.523 47.682C574.986 47.734 574.362 47.76 573.651 47.76ZM592.16 47.76C590.981 47.76 590.097 47.656 589.508 47.448C588.936 47.2227 588.528 46.8327 588.286 46.278C588.06 45.706 587.948 44.8567 587.948 43.73C587.948 42.7247 588.069 41.936 588.312 41.364C588.572 40.792 588.979 40.3847 589.534 40.142C590.106 39.882 590.886 39.752 591.874 39.752H596.138V38.894C596.138 38.3567 596.06 37.958 595.904 37.698C595.765 37.438 595.496 37.256 595.098 37.152C594.716 37.048 594.136 36.996 593.356 36.996C592.281 36.996 590.808 37.1 588.936 37.308V34.916C590.305 34.7427 591.908 34.656 593.746 34.656C595.358 34.656 596.597 34.7773 597.464 35.02C598.348 35.2627 598.98 35.6787 599.362 36.268C599.743 36.8573 599.934 37.7153 599.934 38.842V47.5H596.216V46.356C595.921 46.8587 595.522 47.214 595.02 47.422C594.517 47.6473 593.564 47.76 592.16 47.76ZM593.642 45.394C594.404 45.394 594.95 45.368 595.28 45.316C595.522 45.2813 595.687 45.2293 595.774 45.16C595.878 45.0907 595.964 44.978 596.034 44.822C596.103 44.7007 596.138 44.5187 596.138 44.276V41.832H593.538C592.948 41.832 592.532 41.8753 592.29 41.962C592.047 42.0313 591.882 42.1873 591.796 42.43C591.709 42.6553 591.666 43.0627 591.666 43.652C591.666 44.224 591.709 44.6227 591.796 44.848C591.882 45.0733 592.047 45.2207 592.29 45.29C592.55 45.3593 593 45.394 593.642 45.394ZM603.273 34.916H607.017V36.45C607.312 35.254 608.655 34.656 611.047 34.656C612.659 34.656 613.786 34.9507 614.427 35.54C615.086 36.112 615.415 37.022 615.415 38.27V47.5H611.619V38.764C611.619 38.2787 611.567 37.9147 611.463 37.672C611.377 37.4293 611.186 37.256 610.891 37.152C610.614 37.048 610.181 36.996 609.591 36.996C608.846 36.996 608.3 37.048 607.953 37.152C607.607 37.2387 607.373 37.4033 607.251 37.646C607.13 37.8887 607.069 38.2613 607.069 38.764V47.5H603.273V34.916ZM623.572 47.76C622.082 47.76 620.981 47.656 620.27 47.448C619.56 47.2227 619.066 46.8067 618.788 46.2C618.511 45.5933 618.372 44.6487 618.372 43.366V38.452C618.372 37.0653 618.762 36.086 619.542 35.514C620.34 34.942 621.622 34.656 623.39 34.656C624.222 34.656 624.872 34.708 625.34 34.812C625.826 34.8987 626.216 35.0633 626.51 35.306C626.805 35.5313 627.108 35.8693 627.42 36.32V29.3H631.216V47.5H627.55V46.07C627.238 46.5727 626.952 46.928 626.692 47.136C626.45 47.3267 626.103 47.474 625.652 47.578C625.184 47.6993 624.491 47.76 623.572 47.76ZM624.534 45.394C625.384 45.394 626.008 45.3507 626.406 45.264C626.805 45.1773 627.074 45.0213 627.212 44.796C627.351 44.5533 627.42 44.198 627.42 43.73V38.66C627.42 38.2267 627.342 37.8973 627.186 37.672C627.048 37.4293 626.788 37.256 626.406 37.152C626.042 37.048 625.488 36.996 624.742 36.996C623.945 36.996 623.373 37.048 623.026 37.152C622.68 37.2387 622.446 37.4033 622.324 37.646C622.22 37.8713 622.168 38.2527 622.168 38.79V43.6C622.168 44.0853 622.22 44.458 622.324 44.718C622.446 44.9607 622.671 45.134 623 45.238C623.33 45.342 623.841 45.394 624.534 45.394ZM646.579 47.76C645.799 47.76 645.157 47.734 644.655 47.682C644.152 47.63 643.615 47.526 643.043 47.37C642.419 47.1967 641.916 46.954 641.535 46.642C641.153 46.3127 640.833 45.8533 640.573 45.264C640.313 44.692 640.183 43.9987 640.183 43.184V39.466C640.183 38.634 640.313 37.906 640.573 37.282C640.833 36.658 641.171 36.1727 641.587 35.826C641.951 35.5313 642.427 35.2887 643.017 35.098C643.623 34.89 644.213 34.76 644.785 34.708C645.443 34.6733 646.041 34.656 646.579 34.656C647.376 34.656 648.009 34.682 648.477 34.734C648.962 34.7687 649.491 34.8727 650.063 35.046C650.687 35.2367 651.189 35.4967 651.571 35.826C651.969 36.1553 652.307 36.6233 652.585 37.23C652.845 37.854 652.975 38.5993 652.975 39.466V43.184C652.975 43.964 652.845 44.6487 652.585 45.238C652.342 45.8273 652.021 46.2867 651.623 46.616C651.276 46.9107 650.799 47.1533 650.193 47.344C649.603 47.5173 649.023 47.63 648.451 47.682C647.931 47.734 647.307 47.76 646.579 47.76ZM646.579 45.394C647.289 45.394 647.827 45.342 648.191 45.238C648.555 45.1167 648.806 44.9347 648.945 44.692C649.101 44.4493 649.179 44.094 649.179 43.626V38.868C649.179 38.1747 648.997 37.6893 648.633 37.412C648.269 37.1347 647.584 36.996 646.579 36.996C645.573 36.996 644.889 37.1347 644.525 37.412C644.161 37.6893 643.979 38.1747 643.979 38.868V43.626C643.979 44.094 644.048 44.4493 644.187 44.692C644.343 44.9347 644.603 45.1167 644.967 45.238C645.331 45.342 645.868 45.394 646.579 45.394ZM662.226 47.76C661.584 47.76 661.047 47.734 660.614 47.682C660.18 47.63 659.747 47.526 659.314 47.37C658.828 47.214 658.43 46.9973 658.118 46.72C657.823 46.4427 657.58 46.0613 657.39 45.576C657.182 45.0733 657.078 44.4927 657.078 43.834V37.256H654.53V34.916H657.078V31.276H660.874V34.916H664.332V37.256H660.874V43.184C660.874 43.7907 660.926 44.25 661.03 44.562C661.134 44.8567 661.333 45.0733 661.628 45.212C661.922 45.3333 662.373 45.394 662.98 45.394C663.222 45.394 663.673 45.3507 664.332 45.264V47.63C663.517 47.7167 662.815 47.76 662.226 47.76ZM666.521 29.3H670.317V36.45C670.56 35.254 671.886 34.656 674.295 34.656C675.907 34.656 677.034 34.9507 677.675 35.54C678.334 36.112 678.663 37.022 678.663 38.27V47.5H674.867V38.712C674.867 38.2267 674.815 37.8713 674.711 37.646C674.625 37.4033 674.443 37.2387 674.165 37.152C673.888 37.048 673.446 36.996 672.839 36.996C672.094 36.996 671.548 37.0393 671.201 37.126C670.855 37.2127 670.621 37.3773 670.499 37.62C670.378 37.8453 670.317 38.2093 670.317 38.712V47.5H666.521V29.3ZM688.302 47.76C683.848 47.76 681.62 46.3993 681.62 43.678V39.154C681.62 37.5767 682.123 36.4327 683.128 35.722C684.151 35.0113 685.72 34.656 687.834 34.656C689.828 34.656 691.284 35.0027 692.202 35.696C693.138 36.372 693.606 37.5247 693.606 39.154V42.222H685.442V43.366C685.442 44.094 685.702 44.614 686.222 44.926C686.742 45.238 687.678 45.394 689.03 45.394C690.278 45.394 691.682 45.212 693.242 44.848V47.266C691.7 47.5953 690.053 47.76 688.302 47.76ZM689.992 40.064V38.244C689.992 37.828 689.819 37.516 689.472 37.308C689.143 37.1 688.58 36.996 687.782 36.996C686.864 36.996 686.248 37.1 685.936 37.308C685.607 37.5333 685.442 37.8453 685.442 38.244V40.064H689.992ZM696.508 34.916H700.122V37.126C700.122 36.7273 700.286 36.3373 700.616 35.956C700.945 35.5747 701.361 35.2627 701.864 35.02C702.384 34.7773 702.895 34.656 703.398 34.656H704.75V37.802H703.45C702.375 37.802 701.578 37.9667 701.058 38.296C700.555 38.6253 700.304 39.1713 700.304 39.934V47.5H696.508V34.916ZM717.67 47.76C716.179 47.76 715.079 47.656 714.368 47.448C713.657 47.2227 713.163 46.8067 712.886 46.2C712.609 45.5933 712.47 44.6487 712.47 43.366V38.452C712.47 37.0653 712.86 36.086 713.64 35.514C714.437 34.942 715.72 34.656 717.488 34.656C718.32 34.656 718.97 34.708 719.438 34.812C719.923 34.8987 720.313 35.0633 720.608 35.306C720.903 35.5313 721.206 35.8693 721.518 36.32V29.3H725.314V47.5H721.648V46.07C721.336 46.5727 721.05 46.928 720.79 47.136C720.547 47.3267 720.201 47.474 719.75 47.578C719.282 47.6993 718.589 47.76 717.67 47.76ZM718.632 45.394C719.481 45.394 720.105 45.3507 720.504 45.264C720.903 45.1773 721.171 45.0213 721.31 44.796C721.449 44.5533 721.518 44.198 721.518 43.73V38.66C721.518 38.2267 721.44 37.8973 721.284 37.672C721.145 37.4293 720.885 37.256 720.504 37.152C720.14 37.048 719.585 36.996 718.84 36.996C718.043 36.996 717.471 37.048 717.124 37.152C716.777 37.2387 716.543 37.4033 716.422 37.646C716.318 37.8713 716.266 38.2527 716.266 38.79V43.6C716.266 44.0853 716.318 44.458 716.422 44.718C716.543 44.9607 716.769 45.134 717.098 45.238C717.427 45.342 717.939 45.394 718.632 45.394ZM732.214 47.76C731.036 47.76 730.152 47.656 729.562 47.448C728.99 47.2227 728.583 46.8327 728.34 46.278C728.115 45.706 728.002 44.8567 728.002 43.73C728.002 42.7247 728.124 41.936 728.366 41.364C728.626 40.792 729.034 40.3847 729.588 40.142C730.16 39.882 730.94 39.752 731.928 39.752H736.192V38.894C736.192 38.3567 736.114 37.958 735.958 37.698C735.82 37.438 735.551 37.256 735.152 37.152C734.771 37.048 734.19 36.996 733.41 36.996C732.336 36.996 730.862 37.1 728.99 37.308V34.916C730.36 34.7427 731.963 34.656 733.8 34.656C735.412 34.656 736.652 34.7773 737.518 35.02C738.402 35.2627 739.035 35.6787 739.416 36.268C739.798 36.8573 739.988 37.7153 739.988 38.842V47.5H736.27V46.356C735.976 46.8587 735.577 47.214 735.074 47.422C734.572 47.6473 733.618 47.76 732.214 47.76ZM733.696 45.394C734.459 45.394 735.005 45.368 735.334 45.316C735.577 45.2813 735.742 45.2293 735.828 45.16C735.932 45.0907 736.019 44.978 736.088 44.822C736.158 44.7007 736.192 44.5187 736.192 44.276V41.832H733.592C733.003 41.832 732.587 41.8753 732.344 41.962C732.102 42.0313 731.937 42.1873 731.85 42.43C731.764 42.6553 731.72 43.0627 731.72 43.652C731.72 44.224 731.764 44.6227 731.85 44.848C731.937 45.0733 732.102 45.2207 732.344 45.29C732.604 45.3593 733.055 45.394 733.696 45.394ZM749.62 47.76C748.979 47.76 748.441 47.734 748.008 47.682C747.575 47.63 747.141 47.526 746.708 47.37C746.223 47.214 745.824 46.9973 745.512 46.72C745.217 46.4427 744.975 46.0613 744.784 45.576C744.576 45.0733 744.472 44.4927 744.472 43.834V37.256H741.924V34.916H744.472V31.276H748.268V34.916H751.726V37.256H748.268V43.184C748.268 43.7907 748.32 44.25 748.424 44.562C748.528 44.8567 748.727 45.0733 749.022 45.212C749.317 45.3333 749.767 45.394 750.374 45.394C750.617 45.394 751.067 45.3507 751.726 45.264V47.63C750.911 47.7167 750.209 47.76 749.62 47.76ZM757.478 47.76C756.299 47.76 755.415 47.656 754.826 47.448C754.254 47.2227 753.847 46.8327 753.604 46.278C753.379 45.706 753.266 44.8567 753.266 43.73C753.266 42.7247 753.387 41.936 753.63 41.364C753.89 40.792 754.297 40.3847 754.852 40.142C755.424 39.882 756.204 39.752 757.192 39.752H761.456V38.894C761.456 38.3567 761.378 37.958 761.222 37.698C761.083 37.438 760.815 37.256 760.416 37.152C760.035 37.048 759.454 36.996 758.674 36.996C757.599 36.996 756.126 37.1 754.254 37.308V34.916C755.623 34.7427 757.227 34.656 759.064 34.656C760.676 34.656 761.915 34.7773 762.782 35.02C763.666 35.2627 764.299 35.6787 764.68 36.268C765.061 36.8573 765.252 37.7153 765.252 38.842V47.5H761.534V46.356C761.239 46.8587 760.841 47.214 760.338 47.422C759.835 47.6473 758.882 47.76 757.478 47.76ZM758.96 45.394C759.723 45.394 760.269 45.368 760.598 45.316C760.841 45.2813 761.005 45.2293 761.092 45.16C761.196 45.0907 761.283 44.978 761.352 44.822C761.421 44.7007 761.456 44.5187 761.456 44.276V41.832H758.856C758.267 41.832 757.851 41.8753 757.608 41.962C757.365 42.0313 757.201 42.1873 757.114 42.43C757.027 42.6553 756.984 43.0627 756.984 43.652C756.984 44.224 757.027 44.6227 757.114 44.848C757.201 45.0733 757.365 45.2207 757.608 45.29C757.868 45.3593 758.319 45.394 758.96 45.394ZM779.29 47.76C777.938 47.76 776.283 47.63 774.324 47.37V44.848C776.733 45.212 778.406 45.394 779.342 45.394C780.139 45.394 780.729 45.316 781.11 45.16C781.491 45.004 781.682 44.718 781.682 44.302V43.522C781.682 43.0887 781.561 42.7853 781.318 42.612C781.075 42.4213 780.599 42.326 779.888 42.326H778.25C776.915 42.326 775.884 42.066 775.156 41.546C774.428 41.0087 774.064 40.2287 774.064 39.206V37.672C774.064 36.58 774.584 35.8087 775.624 35.358C776.664 34.89 778.233 34.656 780.33 34.656C781.162 34.656 782.653 34.734 784.802 34.89V37.308C782.098 37.1 780.573 36.996 780.226 36.996C779.203 36.996 778.536 37.0653 778.224 37.204C777.947 37.36 777.808 37.646 777.808 38.062V38.738C777.808 38.9633 777.921 39.1627 778.146 39.336C778.371 39.492 778.701 39.57 779.134 39.57H780.798C783.883 39.57 785.426 40.5753 785.426 42.586V44.172C785.426 44.7787 785.313 45.3073 785.088 45.758C784.863 46.2087 784.568 46.564 784.204 46.824C783.857 47.0667 783.407 47.2573 782.852 47.396C782.315 47.5347 781.751 47.63 781.162 47.682C780.625 47.734 780.001 47.76 779.29 47.76ZM794.536 47.76C793.895 47.76 793.357 47.734 792.924 47.682C792.491 47.63 792.057 47.526 791.624 47.37C791.139 47.214 790.74 46.9973 790.428 46.72C790.133 46.4427 789.891 46.0613 789.7 45.576C789.492 45.0733 789.388 44.4927 789.388 43.834V37.256H786.84V34.916H789.388V31.276H793.184V34.916H796.642V37.256H793.184V43.184C793.184 43.7907 793.236 44.25 793.34 44.562C793.444 44.8567 793.643 45.0733 793.938 45.212C794.233 45.3333 794.683 45.394 795.29 45.394C795.533 45.394 795.983 45.3507 796.642 45.264V47.63C795.827 47.7167 795.125 47.76 794.536 47.76ZM798.832 34.916H802.446V37.126C802.446 36.7273 802.611 36.3373 802.94 35.956C803.269 35.5747 803.685 35.2627 804.188 35.02C804.708 34.7773 805.219 34.656 805.722 34.656H807.074V37.802H805.774C804.699 37.802 803.902 37.9667 803.382 38.296C802.879 38.6253 802.628 39.1713 802.628 39.934V47.5H798.832V34.916ZM813.534 47.76C811.922 47.76 810.787 47.474 810.128 46.902C809.487 46.3127 809.166 45.394 809.166 44.146V34.916H812.962V43.626C812.962 44.1113 813.005 44.4753 813.092 44.718C813.196 44.9607 813.387 45.134 813.664 45.238C813.959 45.342 814.401 45.394 814.99 45.394C815.735 45.394 816.281 45.3507 816.628 45.264C816.975 45.16 817.209 44.9867 817.33 44.744C817.451 44.5013 817.512 44.1287 817.512 43.626V34.916H821.308V47.5H817.564V45.966C817.287 47.162 815.943 47.76 813.534 47.76ZM830.765 47.76C830.106 47.76 829.586 47.7427 829.205 47.708C828.824 47.6907 828.356 47.6473 827.801 47.578C827.246 47.5087 826.787 47.3873 826.423 47.214C826.076 47.0407 825.712 46.7807 825.331 46.434C824.62 45.8447 824.265 44.8393 824.265 43.418V39.232C824.265 38.088 824.525 37.1347 825.045 36.372C825.236 36.0947 825.513 35.8433 825.877 35.618C826.258 35.3753 826.64 35.1847 827.021 35.046C827.333 34.942 827.749 34.8553 828.269 34.786C828.789 34.7167 829.248 34.6733 829.647 34.656H831.025C831.996 34.656 833.27 34.812 834.847 35.124V37.62C833.062 37.204 831.692 36.996 830.739 36.996C828.988 36.996 828.113 37.5853 828.113 38.764V43.392C828.113 44.7267 829.075 45.394 830.999 45.394C831.935 45.394 833.278 45.2033 835.029 44.822V47.318C833.452 47.6127 832.03 47.76 830.765 47.76ZM843.464 47.76C842.822 47.76 842.285 47.734 841.852 47.682C841.418 47.63 840.985 47.526 840.552 47.37C840.066 47.214 839.668 46.9973 839.356 46.72C839.061 46.4427 838.818 46.0613 838.628 45.576C838.42 45.0733 838.316 44.4927 838.316 43.834V37.256H835.768V34.916H838.316V31.276H842.112V34.916H845.57V37.256H842.112V43.184C842.112 43.7907 842.164 44.25 842.268 44.562C842.372 44.8567 842.571 45.0733 842.866 45.212C843.16 45.3333 843.611 45.394 844.218 45.394C844.46 45.394 844.911 45.3507 845.57 45.264V47.63C844.755 47.7167 844.053 47.76 843.464 47.76ZM852.128 47.76C850.516 47.76 849.38 47.474 848.722 46.902C848.08 46.3127 847.76 45.394 847.76 44.146V34.916H851.556V43.626C851.556 44.1113 851.599 44.4753 851.686 44.718C851.79 44.9607 851.98 45.134 852.258 45.238C852.552 45.342 852.994 45.394 853.584 45.394C854.329 45.394 854.875 45.3507 855.222 45.264C855.568 45.16 855.802 44.9867 855.924 44.744C856.045 44.5013 856.106 44.1287 856.106 43.626V34.916H859.902V47.5H856.158V45.966C855.88 47.162 854.537 47.76 852.128 47.76ZM863.223 34.916H866.837V37.126C866.837 36.7273 867.001 36.3373 867.331 35.956C867.66 35.5747 868.076 35.2627 868.579 35.02C869.099 34.7773 869.61 34.656 870.113 34.656H871.465V37.802H870.165C869.09 37.802 868.293 37.9667 867.773 38.296C867.27 38.6253 867.019 39.1713 867.019 39.934V47.5H863.223V34.916ZM879.875 47.76C875.42 47.76 873.193 46.3993 873.193 43.678V39.154C873.193 37.5767 873.695 36.4327 874.701 35.722C875.723 35.0113 877.292 34.656 879.407 34.656C881.4 34.656 882.856 35.0027 883.775 35.696C884.711 36.372 885.179 37.5247 885.179 39.154V42.222H877.015V43.366C877.015 44.094 877.275 44.614 877.795 44.926C878.315 45.238 879.251 45.394 880.603 45.394C881.851 45.394 883.255 45.212 884.815 44.848V47.266C883.272 47.5953 881.625 47.76 879.875 47.76ZM881.565 40.064V38.244C881.565 37.828 881.391 37.516 881.045 37.308C880.715 37.1 880.152 36.996 879.355 36.996C878.436 36.996 877.821 37.1 877.509 37.308C877.179 37.5333 877.015 37.8453 877.015 38.244V40.064H881.565ZM892.786 47.76C891.434 47.76 889.779 47.63 887.82 47.37V44.848C890.229 45.212 891.902 45.394 892.838 45.394C893.635 45.394 894.225 45.316 894.606 45.16C894.987 45.004 895.178 44.718 895.178 44.302V43.522C895.178 43.0887 895.057 42.7853 894.814 42.612C894.571 42.4213 894.095 42.326 893.384 42.326H891.746C890.411 42.326 889.38 42.066 888.652 41.546C887.924 41.0087 887.56 40.2287 887.56 39.206V37.672C887.56 36.58 888.08 35.8087 889.12 35.358C890.16 34.89 891.729 34.656 893.826 34.656C894.658 34.656 896.149 34.734 898.298 34.89V37.308C895.594 37.1 894.069 36.996 893.722 36.996C892.699 36.996 892.032 37.0653 891.72 37.204C891.443 37.36 891.304 37.646 891.304 38.062V38.738C891.304 38.9633 891.417 39.1627 891.642 39.336C891.867 39.492 892.197 39.57 892.63 39.57H894.294C897.379 39.57 898.922 40.5753 898.922 42.586V44.172C898.922 44.7787 898.809 45.3073 898.584 45.758C898.359 46.2087 898.064 46.564 897.7 46.824C897.353 47.0667 896.903 47.2573 896.348 47.396C895.811 47.5347 895.247 47.63 894.658 47.682C894.121 47.734 893.497 47.76 892.786 47.76ZM901.376 43.912H905.432V47.5H901.376V43.912Z" fill="#121538"/>
</svg>
